<?xml version="1.0" encoding="us-ascii" standalone="no"?><svg xmlns="http://www.w3.org/2000/svg" xmlns:xlink="http://www.w3.org/1999/xlink" contentStyleType="text/css" height="915px" preserveAspectRatio="none" style="width:1220px;height:915px;background:#FFFFFF;" version="1.1" viewBox="0 0 1220 915" width="1220px" zoomAndPan="magnify"><defs/><g><!--cluster gui--><g id="cluster_gui"><path d="M8.5,6.0137 L31.5,6.0137 A3.75,3.75 0 0 1 34,8.5137 L41,30.6348 L1210.5,30.6348 A2.5,2.5 0 0 1 1213,33.1348 L1213,905.5137 A2.5,2.5 0 0 1 1210.5,908.0137 L8.5,908.0137 A2.5,2.5 0 0 1 6,905.5137 L6,8.5137 A2.5,2.5 0 0 1 8.5,6.0137 " fill="none" style="stroke:#000000;stroke-width:1.5;"/><line style="stroke:#000000;stroke-width:1.5;" x1="6" x2="41" y1="30.6348" y2="30.6348"/><text fill="#000000" font-family="sans-serif" font-size="14" font-weight="bold" lengthAdjust="spacing" textLength="22" x="10" y="23.1211">gui</text></g><!--cluster views--><g id="cluster_views"><path d="M32.5,671.0137 L74.5,671.0137 A3.75,3.75 0 0 1 77,673.5137 L84,695.6348 L1186.5,695.6348 A2.5,2.5 0 0 1 1189,698.1348 L1189,881.5137 A2.5,2.5 0 0 1 1186.5,884.0137 L32.5,884.0137 A2.5,2.5 0 0 1 30,881.5137 L30,673.5137 A2.5,2.5 0 0 1 32.5,671.0137 " fill="none" style="stroke:#000000;stroke-width:1.5;"/><line style="stroke:#000000;stroke-width:1.5;" x1="30" x2="84" y1="695.6348" y2="695.6348"/><text fill="#000000" font-family="sans-serif" font-size="14" font-weight="bold" lengthAdjust="spacing" textLength="41" x="34" y="688.1211">views</text></g><!--class View--><g id="elem_View"><rect codeLine="3" fill="#F1F1F1" height="178.3477" id="View" rx="2.5" ry="2.5" style="stroke:#181818;stroke-width:0.5;" width="230" x="594" y="319.0137"/><ellipse cx="690.25" cy="335.0137" fill="#A9DCDF" rx="11" ry="11" style="stroke:#181818;stroke-width:1.0;"/><path d="M692.4375,336.7793 L688.2969,336.7793 L687.875,337.8105 L688.2969,337.8105 Q688.9063,337.8105 689.1719,338.0449 Q689.4375,338.2793 689.4375,338.6699 Q689.4375,339.0449 689.1719,339.2793 Q688.9063,339.5137 688.2969,339.5137 L686,339.5137 Q685.3906,339.5137 685.1406,339.2793 Q684.875,339.0449 684.875,338.6543 Q684.875,338.2793 685.1563,338.0449 Q685.4219,337.7949 686.0469,337.8105 L688.7188,331.1543 L687.6094,331.1543 Q687,331.1543 686.7344,330.9199 Q686.4688,330.6855 686.4688,330.2949 Q686.4688,329.9199 686.7344,329.6855 Q687,329.4512 687.6094,329.4512 L691.2813,329.4512 L694.6719,337.8105 Q695.2656,337.8105 695.4531,337.9512 Q695.8438,338.2168 695.8438,338.6699 Q695.8438,339.0449 695.5781,339.2793 Q695.3281,339.5137 694.7188,339.5137 L692.4219,339.5137 Q691.8125,339.5137 691.5469,339.2793 Q691.2813,339.0449 691.2813,338.6543 Q691.2813,338.2793 691.5469,338.0449 Q691.8125,337.8105 692.4219,337.8105 L692.8438,337.8105 L692.4375,336.7793 Z M691.7188,335.0762 L690.3594,331.7012 L688.9844,335.0762 L691.7188,335.0762 Z " fill="#000000"/><text fill="#000000" font-family="sans-serif" font-size="14" font-style="italic" lengthAdjust="spacing" textLength="29" x="710.75" y="340.8105">View</text><line style="stroke:#181818;stroke-width:0.5;" x1="595" x2="823" y1="351.0137" y2="351.0137"/><polygon fill="none" points="605,360.8242,609,364.8242,605,368.8242,601,364.8242" style="stroke:#B38D22;stroke-width:1.0;"/><text fill="#000000" font-family="sans-serif" font-size="14" lengthAdjust="spacing" textLength="71" x="614" y="370.1211">Parent root</text><line style="stroke:#181818;stroke-width:1.0;" x1="595" x2="823" y1="377.6348" y2="377.6348"/><ellipse cx="605" cy="392.4453" fill="#84BE84" rx="3" ry="3" style="stroke:#038048;stroke-width:1.0;"/><text fill="#000000" font-family="sans-serif" font-size="14" lengthAdjust="spacing" textLength="110" x="614" y="396.7422">getRoot(): Parent</text><ellipse cx="605" cy="411.0664" fill="#84BE84" rx="3" ry="3" style="stroke:#038048;stroke-width:1.0;"/><text fill="#000000" font-family="sans-serif" font-size="14" lengthAdjust="spacing" textLength="160" x="614" y="415.3633">enableRootEvents(): void</text><ellipse cx="605" cy="429.6875" fill="#84BE84" rx="3" ry="3" style="stroke:#038048;stroke-width:1.0;"/><text fill="#000000" font-family="sans-serif" font-size="14" lengthAdjust="spacing" textLength="107" x="614" y="433.9844">onViewInit(): void</text><ellipse cx="605" cy="448.3086" fill="#84BE84" rx="3" ry="3" style="stroke:#038048;stroke-width:1.0;"/><text fill="#000000" font-family="sans-serif" font-size="14" lengthAdjust="spacing" textLength="151" x="614" y="452.6055">onViewDisplayed(): void</text><ellipse cx="605" cy="466.9297" fill="#84BE84" rx="3" ry="3" style="stroke:#038048;stroke-width:1.0;"/><text fill="#000000" font-family="sans-serif" font-size="14" lengthAdjust="spacing" textLength="196" x="614" y="471.2266">onKeyPressed(KeyEvent): void</text><ellipse cx="605" cy="485.5508" fill="#84BE84" rx="3" ry="3" style="stroke:#038048;stroke-width:1.0;"/><text fill="#000000" font-family="sans-serif" font-size="14" lengthAdjust="spacing" textLength="204" x="614" y="489.8477">onKeyReleased(KeyEvent): void</text></g><!--class ViewController--><g id="elem_ViewController"><rect codeLine="14" fill="#F1F1F1" height="48" id="ViewController" rx="2.5" ry="2.5" style="stroke:#181818;stroke-width:0.5;" width="123" x="371.5" y="576.0137"/><ellipse cx="386.5" cy="592.0137" fill="#A9DCDF" rx="11" ry="11" style="stroke:#181818;stroke-width:1.0;"/><path d="M388.6875,593.7793 L384.5469,593.7793 L384.125,594.8105 L384.5469,594.8105 Q385.1563,594.8105 385.4219,595.0449 Q385.6875,595.2793 385.6875,595.6699 Q385.6875,596.0449 385.4219,596.2793 Q385.1563,596.5137 384.5469,596.5137 L382.25,596.5137 Q381.6406,596.5137 381.3906,596.2793 Q381.125,596.0449 381.125,595.6543 Q381.125,595.2793 381.4063,595.0449 Q381.6719,594.7949 382.2969,594.8105 L384.9688,588.1543 L383.8594,588.1543 Q383.25,588.1543 382.9844,587.9199 Q382.7188,587.6855 382.7188,587.2949 Q382.7188,586.9199 382.9844,586.6855 Q383.25,586.4512 383.8594,586.4512 L387.5313,586.4512 L390.9219,594.8105 Q391.5156,594.8105 391.7031,594.9512 Q392.0938,595.2168 392.0938,595.6699 Q392.0938,596.0449 391.8281,596.2793 Q391.5781,596.5137 390.9688,596.5137 L388.6719,596.5137 Q388.0625,596.5137 387.7969,596.2793 Q387.5313,596.0449 387.5313,595.6543 Q387.5313,595.2793 387.7969,595.0449 Q388.0625,594.8105 388.6719,594.8105 L389.0938,594.8105 L388.6875,593.7793 Z M387.9688,592.0762 L386.6094,588.7012 L385.2344,592.0762 L387.9688,592.0762 Z " fill="#000000"/><text fill="#000000" font-family="sans-serif" font-size="14" font-style="italic" lengthAdjust="spacing" textLength="91" x="400.5" y="597.8105">ViewController</text><line style="stroke:#181818;stroke-width:0.5;" x1="372.5" x2="493.5" y1="608.0137" y2="608.0137"/><line style="stroke:#181818;stroke-width:0.5;" x1="372.5" x2="493.5" y1="616.0137" y2="616.0137"/></g><!--class VIEWS--><g id="elem_VIEWS"><rect codeLine="16" fill="#F1F1F1" height="85.2422" id="VIEWS" rx="2.5" ry="2.5" style="stroke:#181818;stroke-width:0.5;" width="75" x="989.5" y="99.0137"/><ellipse cx="1004.5" cy="115.0137" fill="#EB937F" rx="11" ry="11" style="stroke:#181818;stroke-width:1.0;"/><path d="M1003.3594,115.8105 L1003.3594,118.3105 L1007.6875,118.3105 L1007.6875,117.3887 Q1007.6875,116.7793 1007.9219,116.5137 Q1008.1719,116.248 1008.5469,116.248 Q1008.9219,116.248 1009.1563,116.5137 Q1009.3906,116.7793 1009.3906,117.3887 L1009.3906,120.0137 L1001.3906,120.0137 Q1000.7656,120.0137 1000.5,119.7793 Q1000.25,119.5449 1000.25,119.1543 Q1000.25,118.7793 1000.5156,118.5449 Q1000.7813,118.3105 1001.3906,118.3105 L1001.6563,118.3105 L1001.6563,111.6543 L1001.3906,111.6543 Q1000.7656,111.6543 1000.5,111.4199 Q1000.25,111.1855 1000.25,110.7949 Q1000.25,110.4199 1000.5,110.1855 Q1000.7656,109.9512 1001.3906,109.9512 L1009.0156,109.9512 L1009.0156,112.5449 Q1009.0156,113.1543 1008.7813,113.4199 Q1008.5625,113.6699 1008.1719,113.6699 Q1007.7969,113.6699 1007.5625,113.4199 Q1007.3281,113.1543 1007.3281,112.5449 L1007.3281,111.6543 L1003.3594,111.6543 L1003.3594,114.1074 L1004.8438,114.1074 Q1004.8438,113.4512 1004.9688,113.2637 Q1005.2344,112.8574 1005.7031,112.8574 Q1006.0781,112.8574 1006.3125,113.123 Q1006.5469,113.373 1006.5469,113.9824 L1006.5469,115.9512 Q1006.5469,116.498 1006.4219,116.6855 Q1006.1563,117.0762 1005.7031,117.0762 Q1005.2344,117.0762 1004.9688,116.6699 Q1004.8438,116.4824 1004.8438,115.8105 L1003.3594,115.8105 Z " fill="#000000"/><text fill="#000000" font-family="sans-serif" font-size="14" lengthAdjust="spacing" textLength="43" x="1018.5" y="120.8105">VIEWS</text><line style="stroke:#181818;stroke-width:0.5;" x1="990.5" x2="1063.5" y1="131.0137" y2="131.0137"/><text fill="#000000" font-family="sans-serif" font-size="14" lengthAdjust="spacing" textLength="44" x="995.5" y="150.1211">HOME,</text><text fill="#000000" font-family="sans-serif" font-size="14" lengthAdjust="spacing" textLength="40" x="995.5" y="168.7422">GAME</text><line style="stroke:#181818;stroke-width:0.5;" x1="990.5" x2="1063.5" y1="176.2559" y2="176.2559"/></g><!--class ViewManager--><g id="elem_ViewManager"><rect codeLine="21" fill="#F1F1F1" height="196.9688" id="ViewManager" rx="2.5" ry="2.5" style="stroke:#181818;stroke-width:0.5;" width="227" x="595.5" y="43.0137"/><ellipse cx="662.25" cy="59.0137" fill="#ADD1B2" rx="11" ry="11" style="stroke:#181818;stroke-width:1.0;"/><path d="M665.0156,54.8887 Q665.1719,54.6699 665.3594,54.5605 Q665.5469,54.4512 665.7656,54.4512 Q666.1406,54.4512 666.375,54.7168 Q666.6094,54.9668 666.6094,55.5762 L666.6094,57.0293 Q666.6094,57.6387 666.375,57.9043 Q666.1406,58.1699 665.7656,58.1699 Q665.4219,58.1699 665.2188,57.9668 Q665.0156,57.7793 664.9063,57.2637 Q664.8594,56.9043 664.6719,56.7168 Q664.3438,56.3418 663.7344,56.123 Q663.125,55.9043 662.5,55.9043 Q661.7344,55.9043 661.0938,56.2324 Q660.4688,56.5605 659.9688,57.3105 Q659.4844,58.0605 659.4844,59.0918 L659.4844,60.1855 Q659.4844,61.4199 660.375,62.248 Q661.2656,63.0605 662.8594,63.0605 Q663.7969,63.0605 664.4531,62.8105 Q664.8438,62.6543 665.2656,62.2168 Q665.5313,61.9512 665.6719,61.873 Q665.8281,61.7949 666.0313,61.7949 Q666.3594,61.7949 666.6094,62.0605 Q666.875,62.3105 666.875,62.6543 Q666.875,62.998 666.5313,63.4043 Q666.0313,63.9824 665.2344,64.3105 Q664.1563,64.7637 662.8594,64.7637 Q661.3438,64.7637 660.1406,64.1387 Q659.1563,63.6387 658.4688,62.5762 Q657.7813,61.498 657.7813,60.2168 L657.7813,59.0605 Q657.7813,57.7324 658.3906,56.5918 Q659.0156,55.4355 660.1094,54.8262 Q661.2031,54.2012 662.4375,54.2012 Q663.1719,54.2012 663.8125,54.373 Q664.4688,54.5293 665.0156,54.8887 Z " fill="#000000"/><text fill="#000000" font-family="sans-serif" font-size="14" lengthAdjust="spacing" textLength="85" x="682.75" y="64.8105">ViewManager</text><line style="stroke:#181818;stroke-width:0.5;" x1="596.5" x2="821.5" y1="75.0137" y2="75.0137"/><rect fill="none" height="6" style="stroke:#C82930;stroke-width:1.0;" width="6" x="603.5" y="86.8242"/><text fill="#000000" font-family="sans-serif" font-size="14" lengthAdjust="spacing" text-decoration="underline" textLength="146" x="615.5" y="94.1211">instance: ViewManager</text><rect fill="none" height="6" style="stroke:#C82930;stroke-width:1.0;" width="6" x="603.5" y="105.4453"/><text fill="#000000" font-family="sans-serif" font-size="14" lengthAdjust="spacing" textLength="80" x="615.5" y="112.7422">stage: Stage</text><line style="stroke:#181818;stroke-width:1.0;" x1="596.5" x2="821.5" y1="120.2559" y2="120.2559"/><rect fill="#F24D5C" height="6" style="stroke:#C82930;stroke-width:1.0;" width="6" x="603.5" y="132.0664"/><text fill="#000000" font-family="sans-serif" font-size="14" lengthAdjust="spacing" textLength="95" x="615.5" y="139.3633">ViewManager()</text><ellipse cx="606.5" cy="153.6875" fill="#84BE84" rx="3" ry="3" style="stroke:#038048;stroke-width:1.0;"/><text fill="#000000" font-family="sans-serif" font-size="14" lengthAdjust="spacing" text-decoration="underline" textLength="176" x="615.5" y="157.9844">getInstance(): ViewManager</text><ellipse cx="606.5" cy="172.3086" fill="#84BE84" rx="3" ry="3" style="stroke:#038048;stroke-width:1.0;"/><text fill="#000000" font-family="sans-serif" font-size="14" lengthAdjust="spacing" textLength="137" x="615.5" y="176.6055">setStage(Stage): void</text><ellipse cx="606.5" cy="190.9297" fill="#84BE84" rx="3" ry="3" style="stroke:#038048;stroke-width:1.0;"/><text fill="#000000" font-family="sans-serif" font-size="14" lengthAdjust="spacing" textLength="201" x="615.5" y="195.2266">registerView(VIEWS, View): void</text><ellipse cx="606.5" cy="209.5508" fill="#84BE84" rx="3" ry="3" style="stroke:#038048;stroke-width:1.0;"/><text fill="#000000" font-family="sans-serif" font-size="14" lengthAdjust="spacing" textLength="158" x="615.5" y="213.8477">navigateTo(VIEWS): void</text><ellipse cx="606.5" cy="228.1719" fill="#84BE84" rx="3" ry="3" style="stroke:#038048;stroke-width:1.0;"/><text fill="#000000" font-family="sans-serif" font-size="14" lengthAdjust="spacing" textLength="182" x="615.5" y="232.4688">setFullScreen(boolean): void</text></g><!--class HomeViewController--><g id="elem_HomeViewController"><rect codeLine="34" fill="#F1F1F1" height="159.7266" id="HomeViewController" rx="2.5" ry="2.5" style="stroke:#181818;stroke-width:0.5;" width="271" x="46.5" y="708.0137"/><ellipse cx="114.25" cy="724.0137" fill="#ADD1B2" rx="11" ry="11" style="stroke:#181818;stroke-width:1.0;"/><path d="M117.0156,719.8887 Q117.1719,719.6699 117.3594,719.5605 Q117.5469,719.4512 117.7656,719.4512 Q118.1406,719.4512 118.375,719.7168 Q118.6094,719.9668 118.6094,720.5762 L118.6094,722.0293 Q118.6094,722.6387 118.375,722.9043 Q118.1406,723.1699 117.7656,723.1699 Q117.4219,723.1699 117.2188,722.9668 Q117.0156,722.7793 116.9063,722.2637 Q116.8594,721.9043 116.6719,721.7168 Q116.3438,721.3418 115.7344,721.123 Q115.125,720.9043 114.5,720.9043 Q113.7344,720.9043 113.0938,721.2324 Q112.4688,721.5605 111.9688,722.3105 Q111.4844,723.0605 111.4844,724.0918 L111.4844,725.1855 Q111.4844,726.4199 112.375,727.248 Q113.2656,728.0605 114.8594,728.0605 Q115.7969,728.0605 116.4531,727.8105 Q116.8438,727.6543 117.2656,727.2168 Q117.5313,726.9512 117.6719,726.873 Q117.8281,726.7949 118.0313,726.7949 Q118.3594,726.7949 118.6094,727.0605 Q118.875,727.3105 118.875,727.6543 Q118.875,727.998 118.5313,728.4043 Q118.0313,728.9824 117.2344,729.3105 Q116.1563,729.7637 114.8594,729.7637 Q113.3438,729.7637 112.1406,729.1387 Q111.1563,728.6387 110.4688,727.5762 Q109.7813,726.498 109.7813,725.2168 L109.7813,724.0605 Q109.7813,722.7324 110.3906,721.5918 Q111.0156,720.4355 112.1094,719.8262 Q113.2031,719.2012 114.4375,719.2012 Q115.1719,719.2012 115.8125,719.373 Q116.4688,719.5293 117.0156,719.8887 Z " fill="#000000"/><text fill="#000000" font-family="sans-serif" font-size="14" lengthAdjust="spacing" textLength="127" x="134.75" y="729.8105">HomeViewController</text><line style="stroke:#181818;stroke-width:0.5;" x1="47.5" x2="316.5" y1="740.0137" y2="740.0137"/><rect fill="none" height="6" style="stroke:#C82930;stroke-width:1.0;" width="6" x="54.5" y="751.8242"/><text fill="#000000" font-family="sans-serif" font-size="14" lengthAdjust="spacing" textLength="107" x="66.5" y="759.1211">gameTitle: String</text><rect fill="none" height="6" style="stroke:#C82930;stroke-width:1.0;" width="6" x="54.5" y="770.4453"/><text fill="#000000" font-family="sans-serif" font-size="14" lengthAdjust="spacing" textLength="197" x="66.5" y="777.7422">fullScreenCheckBox: CheckBox</text><line style="stroke:#181818;stroke-width:1.0;" x1="47.5" x2="316.5" y1="785.2559" y2="785.2559"/><polygon fill="#FFFF44" points="57.5,795.0664,61.5,799.0664,57.5,803.0664,53.5,799.0664" style="stroke:#B38D22;stroke-width:1.0;"/><text fill="#000000" font-family="sans-serif" font-size="14" lengthAdjust="spacing" textLength="131" x="66.5" y="804.3633">onButtonClick(): void</text><polygon fill="#FFFF44" points="57.5,813.6875,61.5,817.6875,57.5,821.6875,53.5,817.6875" style="stroke:#B38D22;stroke-width:1.0;"/><text fill="#000000" font-family="sans-serif" font-size="14" lengthAdjust="spacing" textLength="172" x="66.5" y="822.9844">onFullScreenToggle(): void</text><ellipse cx="57.5" cy="837.3086" fill="#84BE84" rx="3" ry="3" style="stroke:#038048;stroke-width:1.0;"/><text fill="#000000" font-family="sans-serif" font-size="14" lengthAdjust="spacing" textLength="165" x="66.5" y="841.6055">setGameTitle(String): void</text><ellipse cx="57.5" cy="855.9297" fill="#84BE84" rx="3" ry="3" style="stroke:#038048;stroke-width:1.0;"/><text fill="#000000" font-family="sans-serif" font-size="14" lengthAdjust="spacing" textLength="245" x="66.5" y="860.2266">setFullScreenCheckBox(boolean): void</text></g><!--class GameViewController--><g id="elem_GameViewController"><rect codeLine="44" fill="#F1F1F1" height="85.2422" id="GameViewController" rx="2.5" ry="2.5" style="stroke:#181818;stroke-width:0.5;" width="161" x="352.5" y="745.5137"/><ellipse cx="367.5" cy="761.5137" fill="#ADD1B2" rx="11" ry="11" style="stroke:#181818;stroke-width:1.0;"/><path d="M370.2656,757.3887 Q370.4219,757.1699 370.6094,757.0605 Q370.7969,756.9512 371.0156,756.9512 Q371.3906,756.9512 371.625,757.2168 Q371.8594,757.4668 371.8594,758.0762 L371.8594,759.5293 Q371.8594,760.1387 371.625,760.4043 Q371.3906,760.6699 371.0156,760.6699 Q370.6719,760.6699 370.4688,760.4668 Q370.2656,760.2793 370.1563,759.7637 Q370.1094,759.4043 369.9219,759.2168 Q369.5938,758.8418 368.9844,758.623 Q368.375,758.4043 367.75,758.4043 Q366.9844,758.4043 366.3438,758.7324 Q365.7188,759.0605 365.2188,759.8105 Q364.7344,760.5605 364.7344,761.5918 L364.7344,762.6855 Q364.7344,763.9199 365.625,764.748 Q366.5156,765.5605 368.1094,765.5605 Q369.0469,765.5605 369.7031,765.3105 Q370.0938,765.1543 370.5156,764.7168 Q370.7813,764.4512 370.9219,764.373 Q371.0781,764.2949 371.2813,764.2949 Q371.6094,764.2949 371.8594,764.5605 Q372.125,764.8105 372.125,765.1543 Q372.125,765.498 371.7813,765.9043 Q371.2813,766.4824 370.4844,766.8105 Q369.4063,767.2637 368.1094,767.2637 Q366.5938,767.2637 365.3906,766.6387 Q364.4063,766.1387 363.7188,765.0762 Q363.0313,763.998 363.0313,762.7168 L363.0313,761.5605 Q363.0313,760.2324 363.6406,759.0918 Q364.2656,757.9355 365.3594,757.3262 Q366.4531,756.7012 367.6875,756.7012 Q368.4219,756.7012 369.0625,756.873 Q369.7188,757.0293 370.2656,757.3887 Z " fill="#000000"/><text fill="#000000" font-family="sans-serif" font-size="14" lengthAdjust="spacing" textLength="129" x="381.5" y="767.3105">GameViewController</text><line style="stroke:#181818;stroke-width:0.5;" x1="353.5" x2="512.5" y1="777.5137" y2="777.5137"/><rect fill="none" height="6" style="stroke:#C82930;stroke-width:1.0;" width="6" x="360.5" y="789.3242"/><text fill="#000000" font-family="sans-serif" font-size="14" lengthAdjust="spacing" textLength="101" x="372.5" y="796.6211">canvas: Canvas</text><line style="stroke:#181818;stroke-width:1.0;" x1="353.5" x2="512.5" y1="804.1348" y2="804.1348"/><ellipse cx="363.5" cy="818.9453" fill="#84BE84" rx="3" ry="3" style="stroke:#038048;stroke-width:1.0;"/><text fill="#000000" font-family="sans-serif" font-size="14" lengthAdjust="spacing" textLength="134" x="372.5" y="823.2422">getCanvas(): Canvas</text></g><!--class HomeView--><g id="elem_HomeView"><rect codeLine="50" fill="#F1F1F1" height="122.4844" id="HomeView" rx="2.5" ry="2.5" style="stroke:#181818;stroke-width:0.5;" width="321" x="548.5" y="727.0137"/><ellipse cx="672.25" cy="743.0137" fill="#ADD1B2" rx="11" ry="11" style="stroke:#181818;stroke-width:1.0;"/><path d="M675.0156,738.8887 Q675.1719,738.6699 675.3594,738.5605 Q675.5469,738.4512 675.7656,738.4512 Q676.1406,738.4512 676.375,738.7168 Q676.6094,738.9668 676.6094,739.5762 L676.6094,741.0293 Q676.6094,741.6387 676.375,741.9043 Q676.1406,742.1699 675.7656,742.1699 Q675.4219,742.1699 675.2188,741.9668 Q675.0156,741.7793 674.9063,741.2637 Q674.8594,740.9043 674.6719,740.7168 Q674.3438,740.3418 673.7344,740.123 Q673.125,739.9043 672.5,739.9043 Q671.7344,739.9043 671.0938,740.2324 Q670.4688,740.5605 669.9688,741.3105 Q669.4844,742.0605 669.4844,743.0918 L669.4844,744.1855 Q669.4844,745.4199 670.375,746.248 Q671.2656,747.0605 672.8594,747.0605 Q673.7969,747.0605 674.4531,746.8105 Q674.8438,746.6543 675.2656,746.2168 Q675.5313,745.9512 675.6719,745.873 Q675.8281,745.7949 676.0313,745.7949 Q676.3594,745.7949 676.6094,746.0605 Q676.875,746.3105 676.875,746.6543 Q676.875,746.998 676.5313,747.4043 Q676.0313,747.9824 675.2344,748.3105 Q674.1563,748.7637 672.8594,748.7637 Q671.3438,748.7637 670.1406,748.1387 Q669.1563,747.6387 668.4688,746.5762 Q667.7813,745.498 667.7813,744.2168 L667.7813,743.0605 Q667.7813,741.7324 668.3906,740.5918 Q669.0156,739.4355 670.1094,738.8262 Q671.2031,738.2012 672.4375,738.2012 Q673.1719,738.2012 673.8125,738.373 Q674.4688,738.5293 675.0156,738.8887 Z " fill="#000000"/><text fill="#000000" font-family="sans-serif" font-size="14" lengthAdjust="spacing" textLength="65" x="692.75" y="748.8105">HomeView</text><line style="stroke:#181818;stroke-width:0.5;" x1="549.5" x2="868.5" y1="759.0137" y2="759.0137"/><rect fill="none" height="6" style="stroke:#C82930;stroke-width:1.0;" width="6" x="556.5" y="770.8242"/><text fill="#000000" font-family="sans-serif" font-size="14" lengthAdjust="spacing" textLength="107" x="568.5" y="778.1211">gameTitle: String</text><line style="stroke:#181818;stroke-width:1.0;" x1="549.5" x2="868.5" y1="785.6348" y2="785.6348"/><ellipse cx="559.5" cy="800.4453" fill="#84BE84" rx="3" ry="3" style="stroke:#038048;stroke-width:1.0;"/><text fill="#000000" font-family="sans-serif" font-size="14" lengthAdjust="spacing" textLength="112" x="568.5" y="804.7422">HomeView(String)</text><ellipse cx="559.5" cy="819.0664" fill="#84BE84" rx="3" ry="3" style="stroke:#038048;stroke-width:1.0;"/><text fill="#000000" font-family="sans-serif" font-size="14" lengthAdjust="spacing" textLength="198" x="568.5" y="823.3633">onViewInit(ViewController): void</text><ellipse cx="559.5" cy="837.6875" fill="#84BE84" rx="3" ry="3" style="stroke:#038048;stroke-width:1.0;"/><text fill="#000000" font-family="sans-serif" font-size="14" lengthAdjust="spacing" textLength="295" x="568.5" y="841.9844">onKeyPressed(ViewController, KeyEvent): void</text></g><!--class GameView--><g id="elem_GameView"><rect codeLine="58" fill="#F1F1F1" height="103.8633" id="GameView" rx="2.5" ry="2.5" style="stroke:#181818;stroke-width:0.5;" width="268" x="905" y="736.0137"/><ellipse cx="1001.25" cy="752.0137" fill="#ADD1B2" rx="11" ry="11" style="stroke:#181818;stroke-width:1.0;"/><path d="M1004.0156,747.8887 Q1004.1719,747.6699 1004.3594,747.5605 Q1004.5469,747.4512 1004.7656,747.4512 Q1005.1406,747.4512 1005.375,747.7168 Q1005.6094,747.9668 1005.6094,748.5762 L1005.6094,750.0293 Q1005.6094,750.6387 1005.375,750.9043 Q1005.1406,751.1699 1004.7656,751.1699 Q1004.4219,751.1699 1004.2188,750.9668 Q1004.0156,750.7793 1003.9063,750.2637 Q1003.8594,749.9043 1003.6719,749.7168 Q1003.3438,749.3418 1002.7344,749.123 Q1002.125,748.9043 1001.5,748.9043 Q1000.7344,748.9043 1000.0938,749.2324 Q999.4688,749.5605 998.9688,750.3105 Q998.4844,751.0605 998.4844,752.0918 L998.4844,753.1855 Q998.4844,754.4199 999.375,755.248 Q1000.2656,756.0605 1001.8594,756.0605 Q1002.7969,756.0605 1003.4531,755.8105 Q1003.8438,755.6543 1004.2656,755.2168 Q1004.5313,754.9512 1004.6719,754.873 Q1004.8281,754.7949 1005.0313,754.7949 Q1005.3594,754.7949 1005.6094,755.0605 Q1005.875,755.3105 1005.875,755.6543 Q1005.875,755.998 1005.5313,756.4043 Q1005.0313,756.9824 1004.2344,757.3105 Q1003.1563,757.7637 1001.8594,757.7637 Q1000.3438,757.7637 999.1406,757.1387 Q998.1563,756.6387 997.4688,755.5762 Q996.7813,754.498 996.7813,753.2168 L996.7813,752.0605 Q996.7813,750.7324 997.3906,749.5918 Q998.0156,748.4355 999.1094,747.8262 Q1000.2031,747.2012 1001.4375,747.2012 Q1002.1719,747.2012 1002.8125,747.373 Q1003.4688,747.5293 1004.0156,747.8887 Z " fill="#000000"/><text fill="#000000" font-family="sans-serif" font-size="14" lengthAdjust="spacing" textLength="67" x="1021.75" y="757.8105">GameView</text><line style="stroke:#181818;stroke-width:0.5;" x1="906" x2="1172" y1="768.0137" y2="768.0137"/><line style="stroke:#181818;stroke-width:0.5;" x1="906" x2="1172" y1="776.0137" y2="776.0137"/><ellipse cx="916" cy="790.8242" fill="#84BE84" rx="3" ry="3" style="stroke:#038048;stroke-width:1.0;"/><text fill="#000000" font-family="sans-serif" font-size="14" lengthAdjust="spacing" textLength="77" x="925" y="795.1211">GameView()</text><ellipse cx="916" cy="809.4453" fill="#84BE84" rx="3" ry="3" style="stroke:#038048;stroke-width:1.0;"/><text fill="#000000" font-family="sans-serif" font-size="14" lengthAdjust="spacing" textLength="242" x="925" y="813.7422">onViewDisplayed(ViewController): void</text><rect fill="#F24D5C" height="6" style="stroke:#C82930;stroke-width:1.0;" width="6" x="913" y="825.0664"/><text fill="#000000" font-family="sans-serif" font-size="14" lengthAdjust="spacing" textLength="179" x="925" y="832.3633">draw(Canvas, Number): void</text></g><!--link View to ViewController--><g id="link_View_ViewController"><path codeLine="66" d="M593.95,488.2137 C547.95,519.8837 498.45,553.9637 466.67,575.8337 " fill="none" id="View-ViewController" style="stroke:#181818;stroke-width:1.0;"/><polygon fill="none" points="536,532.1592,540,536.1592,536,540.1592,532,536.1592" style="stroke:#B38D22;stroke-width:1.0;"/><text fill="#000000" font-family="sans-serif" font-size="13" lengthAdjust="spacing" textLength="53" x="543" y="542.042">controller</text><text fill="#000000" font-family="sans-serif" font-size="13" lengthAdjust="spacing" textLength="7" x="467.0239" y="564.9317">1</text></g><!--link ViewManager to View--><g id="link_ViewManager_View"><path codeLine="67" d="M709,240.2537 C709,266.0037 709,293.6337 709,318.8537 " fill="none" id="ViewManager-View" style="stroke:#181818;stroke-width:1.0;"/><rect fill="none" height="6" style="stroke:#C82930;stroke-width:1.0;" width="6" x="712" y="277.1592"/><text fill="#000000" font-family="sans-serif" font-size="13" lengthAdjust="spacing" textLength="31" x="722" y="285.042">views</text><text fill="#000000" font-family="sans-serif" font-size="13" lengthAdjust="spacing" textLength="5" x="703.793" y="307.7922">*</text></g><!--reverse link ViewController to HomeViewController--><g id="link_ViewController_HomeViewController"><path codeLine="69" d="M377.09,634.8037 C363.13,643.6737 348.34,653.4337 335,663.0137 C315.56,676.9737 295.31,692.5637 276.15,707.8637 " fill="none" id="ViewController-backto-HomeViewController" style="stroke:#181818;stroke-width:1.0;"/><polygon fill="none" points="373.48,628.8037,394.15,624.1437,380.9,640.6737,373.48,628.8037" style="stroke:#181818;stroke-width:1.0;"/></g><!--reverse link View to HomeView--><g id="link_View_HomeView"><path codeLine="70" d="M709,517.2237 C709,585.2637 709,670.5237 709,726.7737 " fill="none" id="View-backto-HomeView" style="stroke:#181818;stroke-width:1.0;"/><polygon fill="none" points="702,517.1637,709,497.1637,716,517.1637,702,517.1637" style="stroke:#181818;stroke-width:1.0;"/></g><!--reverse link ViewController to GameViewController--><g id="link_ViewController_GameViewController"><path codeLine="71" d="M433,644.3137 C433,674.7837 433,715.3537 433,745.4437 " fill="none" id="ViewController-backto-GameViewController" style="stroke:#181818;stroke-width:1.0;"/><polygon fill="none" points="426,644.1937,433,624.1937,440,644.1937,426,644.1937" style="stroke:#181818;stroke-width:1.0;"/></g><!--reverse link View to GameView--><g id="link_View_GameView"><path codeLine="72" d="M799.17,512.3037 C862.54,584.8937 944.59,678.8737 994.44,735.9737 " fill="none" id="View-backto-GameView" style="stroke:#181818;stroke-width:1.0;"/><polygon fill="none" points="793.83,516.8337,785.95,497.1637,804.38,507.6237,793.83,516.8337" style="stroke:#181818;stroke-width:1.0;"/></g><!--SRC=[bLJ1SjiW4BthAvZaejJcqAiFdMbS9_5qt6PYJth6U4COO_00Kffn_Uz5IC98GirK1mdqtlAMjx17GlU40M85HwSCkOTiZTM4MaG5CGOzStXhaEgvHez4WxH8AsN3Nup3S88Os2S7vZUpXXjX8CbMG0KlIeUOYbGgleieIbQIIydjAFYDcwCWxx1BChx3-wC6OnpiXbvdXFO40iWOxvoDsJ5Nqceb16XqQbWWYmDwNYv-hIEl7dwk5jCmk_-wMiGBNzPR4UbAeAD8Z4x64ilf6N7fHfB2BAP6H8So1wwhJweUE8xBRo8BWeGhsB9HgGnDwKoG0UirSlyU6gg1SMD1Lz6vTsBgLneo9Iav8nOsgkOD6KxhhX1YJJM0pBTAkJB9H6sEpU4jdOw9xAkjVL07w9ShK6fh63d0XblX3THSiXx-4hAOlmBTtwhVCzIEkbJScLwxytLRMAlaN72w7npJbdFPvKOn9Y19z7xSjvdcTQAZnBj1oYa38nClXbKQ7nX6YIo9SIRuxxyiy7sWfbMxwWKCjDjY_M-9-gBjEgrDFJXgBjsTfltiD9Dkm1IDDPTHNtjxcmGWJwTvQNCVvuhHJfEtlBPvYduKX-sGU6ukZylGvuFnrUUhVakRkPD9mpIB6vJZVwhvZeNhQvTbYNk6YoF-ywMtSY36S9OuTEdeu68S_HS0]--></g></svg>