<?xml version="1.0" encoding="us-ascii" standalone="no"?><svg xmlns="http://www.w3.org/2000/svg" xmlns:xlink="http://www.w3.org/1999/xlink" contentStyleType="text/css" height="893px" preserveAspectRatio="none" style="width:809px;height:893px;background:#FFFFFF;" version="1.1" viewBox="0 0 809 893" width="809px" zoomAndPan="magnify"><defs/><g><!--cluster Escape--><g id="cluster_Escape"><path d="M8.5,6.0137 L60.5,6.0137 A3.75,3.75 0 0 1 63,8.5137 L70,30.6348 L799.5,30.6348 A2.5,2.5 0 0 1 802,33.1348 L802,883.5137 A2.5,2.5 0 0 1 799.5,886.0137 L8.5,886.0137 A2.5,2.5 0 0 1 6,883.5137 L6,8.5137 A2.5,2.5 0 0 1 8.5,6.0137 " fill="none" style="stroke:#000000;stroke-width:1.5;"/><line style="stroke:#000000;stroke-width:1.5;" x1="6" x2="70" y1="30.6348" y2="30.6348"/><text fill="#000000" font-family="sans-serif" font-size="14" font-weight="bold" lengthAdjust="spacing" textLength="51" x="10" y="23.1211">Escape</text></g><!--cluster Monde--><g id="cluster_Monde"><path d="M32.5,114.0137 L82.5,114.0137 A3.75,3.75 0 0 1 85,116.5137 L92,138.6348 L437.5,138.6348 A2.5,2.5 0 0 1 440,141.1348 L440,859.5137 A2.5,2.5 0 0 1 437.5,862.0137 L32.5,862.0137 A2.5,2.5 0 0 1 30,859.5137 L30,116.5137 A2.5,2.5 0 0 1 32.5,114.0137 " fill="none" style="stroke:#000000;stroke-width:1.5;"/><line style="stroke:#000000;stroke-width:1.5;" x1="30" x2="92" y1="138.6348" y2="138.6348"/><text fill="#000000" font-family="sans-serif" font-size="14" font-weight="bold" lengthAdjust="spacing" textLength="49" x="34" y="131.1211">Monde</text></g><!--cluster Outils--><g id="cluster_Outils"><path d="M466.5,338.5137 L508.5,338.5137 A3.75,3.75 0 0 1 511,341.0137 L518,363.1348 L775.5,363.1348 A2.5,2.5 0 0 1 778,365.6348 L778,456.0137 A2.5,2.5 0 0 1 775.5,458.5137 L466.5,458.5137 A2.5,2.5 0 0 1 464,456.0137 L464,341.0137 A2.5,2.5 0 0 1 466.5,338.5137 " fill="none" style="stroke:#000000;stroke-width:1.5;"/><line style="stroke:#000000;stroke-width:1.5;" x1="464" x2="518" y1="363.1348" y2="363.1348"/><text fill="#000000" font-family="sans-serif" font-size="14" font-weight="bold" lengthAdjust="spacing" textLength="41" x="468" y="355.6211">Outils</text></g><!--class Escape--><g id="elem_Escape"><rect codeLine="44" fill="#F1F1F1" height="48" id="Escape" rx="2.5" ry="2.5" style="stroke:#181818;stroke-width:0.5;" width="79" x="195.5" y="43.0137"/><ellipse cx="210.5" cy="59.0137" fill="#ADD1B2" rx="11" ry="11" style="stroke:#181818;stroke-width:1.0;"/><path d="M213.2656,54.8887 Q213.4219,54.6699 213.6094,54.5605 Q213.7969,54.4512 214.0156,54.4512 Q214.3906,54.4512 214.625,54.7168 Q214.8594,54.9668 214.8594,55.5762 L214.8594,57.0293 Q214.8594,57.6387 214.625,57.9043 Q214.3906,58.1699 214.0156,58.1699 Q213.6719,58.1699 213.4688,57.9668 Q213.2656,57.7793 213.1563,57.2637 Q213.1094,56.9043 212.9219,56.7168 Q212.5938,56.3418 211.9844,56.123 Q211.375,55.9043 210.75,55.9043 Q209.9844,55.9043 209.3438,56.2324 Q208.7188,56.5605 208.2188,57.3105 Q207.7344,58.0605 207.7344,59.0918 L207.7344,60.1855 Q207.7344,61.4199 208.625,62.248 Q209.5156,63.0605 211.1094,63.0605 Q212.0469,63.0605 212.7031,62.8105 Q213.0938,62.6543 213.5156,62.2168 Q213.7813,61.9512 213.9219,61.873 Q214.0781,61.7949 214.2813,61.7949 Q214.6094,61.7949 214.8594,62.0605 Q215.125,62.3105 215.125,62.6543 Q215.125,62.998 214.7813,63.4043 Q214.2813,63.9824 213.4844,64.3105 Q212.4063,64.7637 211.1094,64.7637 Q209.5938,64.7637 208.3906,64.1387 Q207.4063,63.6387 206.7188,62.5762 Q206.0313,61.498 206.0313,60.2168 L206.0313,59.0605 Q206.0313,57.7324 206.6406,56.5918 Q207.2656,55.4355 208.3594,54.8262 Q209.4531,54.2012 210.6875,54.2012 Q211.4219,54.2012 212.0625,54.373 Q212.7188,54.5293 213.2656,54.8887 Z " fill="#000000"/><text fill="#000000" font-family="sans-serif" font-size="14" lengthAdjust="spacing" textLength="47" x="224.5" y="64.8105">Escape</text><line style="stroke:#181818;stroke-width:0.5;" x1="196.5" x2="273.5" y1="75.0137" y2="75.0137"/><line style="stroke:#181818;stroke-width:0.5;" x1="196.5" x2="273.5" y1="83.0137" y2="83.0137"/></g><!--class ElementMonde--><g id="elem_ElementMonde"><rect codeLine="5" fill="#F1F1F1" height="122.4844" id="ElementMonde" rx="2.5" ry="2.5" style="stroke:#181818;stroke-width:0.5;" width="127" x="171.5" y="348.0137"/><ellipse cx="186.5" cy="364.0137" fill="#A9DCDF" rx="11" ry="11" style="stroke:#181818;stroke-width:1.0;"/><path d="M188.6875,365.7793 L184.5469,365.7793 L184.125,366.8105 L184.5469,366.8105 Q185.1563,366.8105 185.4219,367.0449 Q185.6875,367.2793 185.6875,367.6699 Q185.6875,368.0449 185.4219,368.2793 Q185.1563,368.5137 184.5469,368.5137 L182.25,368.5137 Q181.6406,368.5137 181.3906,368.2793 Q181.125,368.0449 181.125,367.6543 Q181.125,367.2793 181.4063,367.0449 Q181.6719,366.7949 182.2969,366.8105 L184.9688,360.1543 L183.8594,360.1543 Q183.25,360.1543 182.9844,359.9199 Q182.7188,359.6855 182.7188,359.2949 Q182.7188,358.9199 182.9844,358.6855 Q183.25,358.4512 183.8594,358.4512 L187.5313,358.4512 L190.9219,366.8105 Q191.5156,366.8105 191.7031,366.9512 Q192.0938,367.2168 192.0938,367.6699 Q192.0938,368.0449 191.8281,368.2793 Q191.5781,368.5137 190.9688,368.5137 L188.6719,368.5137 Q188.0625,368.5137 187.7969,368.2793 Q187.5313,368.0449 187.5313,367.6543 Q187.5313,367.2793 187.7969,367.0449 Q188.0625,366.8105 188.6719,366.8105 L189.0938,366.8105 L188.6875,365.7793 Z M187.9688,364.0762 L186.6094,360.7012 L185.2344,364.0762 L187.9688,364.0762 Z " fill="#000000"/><text fill="#000000" font-family="sans-serif" font-size="14" font-style="italic" lengthAdjust="spacing" textLength="95" x="200.5" y="369.8105">ElementMonde</text><line style="stroke:#181818;stroke-width:0.5;" x1="172.5" x2="297.5" y1="380.0137" y2="380.0137"/><polygon fill="none" points="182.5,389.8242,186.5,393.8242,182.5,397.8242,178.5,393.8242" style="stroke:#B38D22;stroke-width:1.0;"/><text fill="#000000" font-family="sans-serif" font-size="14" lengthAdjust="spacing" textLength="37" x="191.5" y="399.1211">float x</text><polygon fill="none" points="182.5,408.4453,186.5,412.4453,182.5,416.4453,178.5,412.4453" style="stroke:#B38D22;stroke-width:1.0;"/><text fill="#000000" font-family="sans-serif" font-size="14" lengthAdjust="spacing" textLength="38" x="191.5" y="417.7422">float y</text><polygon fill="none" points="182.5,427.0664,186.5,431.0664,182.5,435.0664,178.5,431.0664" style="stroke:#B38D22;stroke-width:1.0;"/><text fill="#000000" font-family="sans-serif" font-size="14" lengthAdjust="spacing" textLength="68" x="191.5" y="436.3633">int hauteur</text><polygon fill="none" points="182.5,445.6875,186.5,449.6875,182.5,453.6875,178.5,449.6875" style="stroke:#B38D22;stroke-width:1.0;"/><text fill="#000000" font-family="sans-serif" font-size="14" lengthAdjust="spacing" textLength="64" x="191.5" y="454.9844">int largeur</text><line style="stroke:#181818;stroke-width:0.5;" x1="172.5" x2="297.5" y1="462.498" y2="462.498"/></g><!--class Terrain--><g id="elem_Terrain"><rect codeLine="12" fill="#F1F1F1" height="48" id="Terrain" rx="2.5" ry="2.5" style="stroke:#181818;stroke-width:0.5;" width="78" x="63" y="556.0137"/><ellipse cx="78" cy="572.0137" fill="#A9DCDF" rx="11" ry="11" style="stroke:#181818;stroke-width:1.0;"/><path d="M80.1875,573.7793 L76.0469,573.7793 L75.625,574.8105 L76.0469,574.8105 Q76.6563,574.8105 76.9219,575.0449 Q77.1875,575.2793 77.1875,575.6699 Q77.1875,576.0449 76.9219,576.2793 Q76.6563,576.5137 76.0469,576.5137 L73.75,576.5137 Q73.1406,576.5137 72.8906,576.2793 Q72.625,576.0449 72.625,575.6543 Q72.625,575.2793 72.9063,575.0449 Q73.1719,574.7949 73.7969,574.8105 L76.4688,568.1543 L75.3594,568.1543 Q74.75,568.1543 74.4844,567.9199 Q74.2188,567.6855 74.2188,567.2949 Q74.2188,566.9199 74.4844,566.6855 Q74.75,566.4512 75.3594,566.4512 L79.0313,566.4512 L82.4219,574.8105 Q83.0156,574.8105 83.2031,574.9512 Q83.5938,575.2168 83.5938,575.6699 Q83.5938,576.0449 83.3281,576.2793 Q83.0781,576.5137 82.4688,576.5137 L80.1719,576.5137 Q79.5625,576.5137 79.2969,576.2793 Q79.0313,576.0449 79.0313,575.6543 Q79.0313,575.2793 79.2969,575.0449 Q79.5625,574.8105 80.1719,574.8105 L80.5938,574.8105 L80.1875,573.7793 Z M79.4688,572.0762 L78.1094,568.7012 L76.7344,572.0762 L79.4688,572.0762 Z " fill="#000000"/><text fill="#000000" font-family="sans-serif" font-size="14" font-style="italic" lengthAdjust="spacing" textLength="46" x="92" y="577.8105">Terrain</text><line style="stroke:#181818;stroke-width:0.5;" x1="64" x2="140" y1="588.0137" y2="588.0137"/><line style="stroke:#181818;stroke-width:0.5;" x1="64" x2="140" y1="596.0137" y2="596.0137"/></g><!--class Mur--><g id="elem_Mur"><rect codeLine="16" fill="#F1F1F1" height="48" id="Mur" rx="2.5" ry="2.5" style="stroke:#181818;stroke-width:0.5;" width="56" x="74" y="690.0137"/><ellipse cx="89" cy="706.0137" fill="#ADD1B2" rx="11" ry="11" style="stroke:#181818;stroke-width:1.0;"/><path d="M91.7656,701.8887 Q91.9219,701.6699 92.1094,701.5605 Q92.2969,701.4512 92.5156,701.4512 Q92.8906,701.4512 93.125,701.7168 Q93.3594,701.9668 93.3594,702.5762 L93.3594,704.0293 Q93.3594,704.6387 93.125,704.9043 Q92.8906,705.1699 92.5156,705.1699 Q92.1719,705.1699 91.9688,704.9668 Q91.7656,704.7793 91.6563,704.2637 Q91.6094,703.9043 91.4219,703.7168 Q91.0938,703.3418 90.4844,703.123 Q89.875,702.9043 89.25,702.9043 Q88.4844,702.9043 87.8438,703.2324 Q87.2188,703.5605 86.7188,704.3105 Q86.2344,705.0605 86.2344,706.0918 L86.2344,707.1855 Q86.2344,708.4199 87.125,709.248 Q88.0156,710.0605 89.6094,710.0605 Q90.5469,710.0605 91.2031,709.8105 Q91.5938,709.6543 92.0156,709.2168 Q92.2813,708.9512 92.4219,708.873 Q92.5781,708.7949 92.7813,708.7949 Q93.1094,708.7949 93.3594,709.0605 Q93.625,709.3105 93.625,709.6543 Q93.625,709.998 93.2813,710.4043 Q92.7813,710.9824 91.9844,711.3105 Q90.9063,711.7637 89.6094,711.7637 Q88.0938,711.7637 86.8906,711.1387 Q85.9063,710.6387 85.2188,709.5762 Q84.5313,708.498 84.5313,707.2168 L84.5313,706.0605 Q84.5313,704.7324 85.1406,703.5918 Q85.7656,702.4355 86.8594,701.8262 Q87.9531,701.2012 89.1875,701.2012 Q89.9219,701.2012 90.5625,701.373 Q91.2188,701.5293 91.7656,701.8887 Z " fill="#000000"/><text fill="#000000" font-family="sans-serif" font-size="14" lengthAdjust="spacing" textLength="24" x="103" y="711.8105">Mur</text><line style="stroke:#181818;stroke-width:0.5;" x1="75" x2="129" y1="722.0137" y2="722.0137"/><line style="stroke:#181818;stroke-width:0.5;" x1="75" x2="129" y1="730.0137" y2="730.0137"/></g><!--class Personnage--><g id="elem_Personnage"><rect codeLine="20" fill="#F1F1F1" height="99.8633" id="Personnage" rx="2.5" ry="2.5" style="stroke:#181818;stroke-width:0.5;" width="230" x="176" y="530.0137"/><ellipse cx="248.25" cy="546.0137" fill="#A9DCDF" rx="11" ry="11" style="stroke:#181818;stroke-width:1.0;"/><path d="M250.4375,547.7793 L246.2969,547.7793 L245.875,548.8105 L246.2969,548.8105 Q246.9063,548.8105 247.1719,549.0449 Q247.4375,549.2793 247.4375,549.6699 Q247.4375,550.0449 247.1719,550.2793 Q246.9063,550.5137 246.2969,550.5137 L244,550.5137 Q243.3906,550.5137 243.1406,550.2793 Q242.875,550.0449 242.875,549.6543 Q242.875,549.2793 243.1563,549.0449 Q243.4219,548.7949 244.0469,548.8105 L246.7188,542.1543 L245.6094,542.1543 Q245,542.1543 244.7344,541.9199 Q244.4688,541.6855 244.4688,541.2949 Q244.4688,540.9199 244.7344,540.6855 Q245,540.4512 245.6094,540.4512 L249.2813,540.4512 L252.6719,548.8105 Q253.2656,548.8105 253.4531,548.9512 Q253.8438,549.2168 253.8438,549.6699 Q253.8438,550.0449 253.5781,550.2793 Q253.3281,550.5137 252.7188,550.5137 L250.4219,550.5137 Q249.8125,550.5137 249.5469,550.2793 Q249.2813,550.0449 249.2813,549.6543 Q249.2813,549.2793 249.5469,549.0449 Q249.8125,548.8105 250.4219,548.8105 L250.8438,548.8105 L250.4375,547.7793 Z M249.7188,546.0762 L248.3594,542.7012 L246.9844,546.0762 L249.7188,546.0762 Z " fill="#000000"/><text fill="#000000" font-family="sans-serif" font-size="14" font-style="italic" lengthAdjust="spacing" textLength="77" x="268.75" y="551.8105">Personnage</text><line style="stroke:#181818;stroke-width:0.5;" x1="177" x2="405" y1="562.0137" y2="562.0137"/><polygon fill="none" points="187,571.8242,191,575.8242,187,579.8242,183,575.8242" style="stroke:#B38D22;stroke-width:1.0;"/><text fill="#000000" font-family="sans-serif" font-size="14" lengthAdjust="spacing" textLength="75" x="196" y="581.1211">float vitesse</text><ellipse cx="187" cy="618.0664" fill="#84BE84" rx="3" ry="3" style="stroke:#038048;stroke-width:1.0;"/><text fill="#000000" font-family="sans-serif" font-size="14" lengthAdjust="spacing" textLength="204" x="196" y="622.3633">d&#233;placer(string typeMouvement)</text><line style="stroke:#181818;stroke-width:1.0;stroke-dasharray:1.0,2.0;" x1="177" x2="260" y1="597.9453" y2="597.9453"/><text fill="#000000" font-family="sans-serif" font-size="14" lengthAdjust="spacing" textLength="62" x="260" y="603.2422">M&#233;thodes</text><line style="stroke:#181818;stroke-width:1.0;stroke-dasharray:1.0,2.0;" x1="322" x2="405" y1="597.9453" y2="597.9453"/></g><!--class Heros--><g id="elem_Heros"><rect codeLine="26" fill="#F1F1F1" height="48" id="Heros" rx="2.5" ry="2.5" style="stroke:#181818;stroke-width:0.5;" width="69" x="319.5" y="690.0137"/><ellipse cx="334.5" cy="706.0137" fill="#ADD1B2" rx="11" ry="11" style="stroke:#181818;stroke-width:1.0;"/><path d="M337.2656,701.8887 Q337.4219,701.6699 337.6094,701.5605 Q337.7969,701.4512 338.0156,701.4512 Q338.3906,701.4512 338.625,701.7168 Q338.8594,701.9668 338.8594,702.5762 L338.8594,704.0293 Q338.8594,704.6387 338.625,704.9043 Q338.3906,705.1699 338.0156,705.1699 Q337.6719,705.1699 337.4688,704.9668 Q337.2656,704.7793 337.1563,704.2637 Q337.1094,703.9043 336.9219,703.7168 Q336.5938,703.3418 335.9844,703.123 Q335.375,702.9043 334.75,702.9043 Q333.9844,702.9043 333.3438,703.2324 Q332.7188,703.5605 332.2188,704.3105 Q331.7344,705.0605 331.7344,706.0918 L331.7344,707.1855 Q331.7344,708.4199 332.625,709.248 Q333.5156,710.0605 335.1094,710.0605 Q336.0469,710.0605 336.7031,709.8105 Q337.0938,709.6543 337.5156,709.2168 Q337.7813,708.9512 337.9219,708.873 Q338.0781,708.7949 338.2813,708.7949 Q338.6094,708.7949 338.8594,709.0605 Q339.125,709.3105 339.125,709.6543 Q339.125,709.998 338.7813,710.4043 Q338.2813,710.9824 337.4844,711.3105 Q336.4063,711.7637 335.1094,711.7637 Q333.5938,711.7637 332.3906,711.1387 Q331.4063,710.6387 330.7188,709.5762 Q330.0313,708.498 330.0313,707.2168 L330.0313,706.0605 Q330.0313,704.7324 330.6406,703.5918 Q331.2656,702.4355 332.3594,701.8262 Q333.4531,701.2012 334.6875,701.2012 Q335.4219,701.2012 336.0625,701.373 Q336.7188,701.5293 337.2656,701.8887 Z " fill="#000000"/><text fill="#000000" font-family="sans-serif" font-size="14" lengthAdjust="spacing" textLength="37" x="348.5" y="711.8105">Heros</text><line style="stroke:#181818;stroke-width:0.5;" x1="320.5" x2="387.5" y1="722.0137" y2="722.0137"/><line style="stroke:#181818;stroke-width:0.5;" x1="320.5" x2="387.5" y1="730.0137" y2="730.0137"/></g><!--class Monstre--><g id="elem_Monstre"><rect codeLine="29" fill="#F1F1F1" height="48" id="Monstre" rx="2.5" ry="2.5" style="stroke:#181818;stroke-width:0.5;" width="84" x="200" y="690.0137"/><ellipse cx="215" cy="706.0137" fill="#A9DCDF" rx="11" ry="11" style="stroke:#181818;stroke-width:1.0;"/><path d="M217.1875,707.7793 L213.0469,707.7793 L212.625,708.8105 L213.0469,708.8105 Q213.6563,708.8105 213.9219,709.0449 Q214.1875,709.2793 214.1875,709.6699 Q214.1875,710.0449 213.9219,710.2793 Q213.6563,710.5137 213.0469,710.5137 L210.75,710.5137 Q210.1406,710.5137 209.8906,710.2793 Q209.625,710.0449 209.625,709.6543 Q209.625,709.2793 209.9063,709.0449 Q210.1719,708.7949 210.7969,708.8105 L213.4688,702.1543 L212.3594,702.1543 Q211.75,702.1543 211.4844,701.9199 Q211.2188,701.6855 211.2188,701.2949 Q211.2188,700.9199 211.4844,700.6855 Q211.75,700.4512 212.3594,700.4512 L216.0313,700.4512 L219.4219,708.8105 Q220.0156,708.8105 220.2031,708.9512 Q220.5938,709.2168 220.5938,709.6699 Q220.5938,710.0449 220.3281,710.2793 Q220.0781,710.5137 219.4688,710.5137 L217.1719,710.5137 Q216.5625,710.5137 216.2969,710.2793 Q216.0313,710.0449 216.0313,709.6543 Q216.0313,709.2793 216.2969,709.0449 Q216.5625,708.8105 217.1719,708.8105 L217.5938,708.8105 L217.1875,707.7793 Z M216.4688,706.0762 L215.1094,702.7012 L213.7344,706.0762 L216.4688,706.0762 Z " fill="#000000"/><text fill="#000000" font-family="sans-serif" font-size="14" font-style="italic" lengthAdjust="spacing" textLength="52" x="229" y="711.8105">Monstre</text><line style="stroke:#181818;stroke-width:0.5;" x1="201" x2="283" y1="722.0137" y2="722.0137"/><line style="stroke:#181818;stroke-width:0.5;" x1="201" x2="283" y1="730.0137" y2="730.0137"/></g><!--class Walker--><g id="elem_Walker"><rect codeLine="32" fill="#F1F1F1" height="48" id="Walker" rx="2.5" ry="2.5" style="stroke:#181818;stroke-width:0.5;" width="76" x="204" y="798.0137"/><ellipse cx="219" cy="814.0137" fill="#ADD1B2" rx="11" ry="11" style="stroke:#181818;stroke-width:1.0;"/><path d="M221.7656,809.8887 Q221.9219,809.6699 222.1094,809.5605 Q222.2969,809.4512 222.5156,809.4512 Q222.8906,809.4512 223.125,809.7168 Q223.3594,809.9668 223.3594,810.5762 L223.3594,812.0293 Q223.3594,812.6387 223.125,812.9043 Q222.8906,813.1699 222.5156,813.1699 Q222.1719,813.1699 221.9688,812.9668 Q221.7656,812.7793 221.6563,812.2637 Q221.6094,811.9043 221.4219,811.7168 Q221.0938,811.3418 220.4844,811.123 Q219.875,810.9043 219.25,810.9043 Q218.4844,810.9043 217.8438,811.2324 Q217.2188,811.5605 216.7188,812.3105 Q216.2344,813.0605 216.2344,814.0918 L216.2344,815.1855 Q216.2344,816.4199 217.125,817.248 Q218.0156,818.0605 219.6094,818.0605 Q220.5469,818.0605 221.2031,817.8105 Q221.5938,817.6543 222.0156,817.2168 Q222.2813,816.9512 222.4219,816.873 Q222.5781,816.7949 222.7813,816.7949 Q223.1094,816.7949 223.3594,817.0605 Q223.625,817.3105 223.625,817.6543 Q223.625,817.998 223.2813,818.4043 Q222.7813,818.9824 221.9844,819.3105 Q220.9063,819.7637 219.6094,819.7637 Q218.0938,819.7637 216.8906,819.1387 Q215.9063,818.6387 215.2188,817.5762 Q214.5313,816.498 214.5313,815.2168 L214.5313,814.0605 Q214.5313,812.7324 215.1406,811.5918 Q215.7656,810.4355 216.8594,809.8262 Q217.9531,809.2012 219.1875,809.2012 Q219.9219,809.2012 220.5625,809.373 Q221.2188,809.5293 221.7656,809.8887 Z " fill="#000000"/><text fill="#000000" font-family="sans-serif" font-size="14" lengthAdjust="spacing" textLength="44" x="233" y="819.8105">Walker</text><line style="stroke:#181818;stroke-width:0.5;" x1="205" x2="279" y1="830.0137" y2="830.0137"/><line style="stroke:#181818;stroke-width:0.5;" x1="205" x2="279" y1="838.0137" y2="838.0137"/></g><!--class Monde--><g id="elem_Monde"><rect codeLine="35" fill="#F1F1F1" height="137.1055" id="Monde" rx="2.5" ry="2.5" style="stroke:#181818;stroke-width:0.5;" width="377" x="46.5" y="151.0137"/><ellipse cx="209.25" cy="167.0137" fill="#ADD1B2" rx="11" ry="11" style="stroke:#181818;stroke-width:1.0;"/><path d="M212.0156,162.8887 Q212.1719,162.6699 212.3594,162.5605 Q212.5469,162.4512 212.7656,162.4512 Q213.1406,162.4512 213.375,162.7168 Q213.6094,162.9668 213.6094,163.5762 L213.6094,165.0293 Q213.6094,165.6387 213.375,165.9043 Q213.1406,166.1699 212.7656,166.1699 Q212.4219,166.1699 212.2188,165.9668 Q212.0156,165.7793 211.9063,165.2637 Q211.8594,164.9043 211.6719,164.7168 Q211.3438,164.3418 210.7344,164.123 Q210.125,163.9043 209.5,163.9043 Q208.7344,163.9043 208.0938,164.2324 Q207.4688,164.5605 206.9688,165.3105 Q206.4844,166.0605 206.4844,167.0918 L206.4844,168.1855 Q206.4844,169.4199 207.375,170.248 Q208.2656,171.0605 209.8594,171.0605 Q210.7969,171.0605 211.4531,170.8105 Q211.8438,170.6543 212.2656,170.2168 Q212.5313,169.9512 212.6719,169.873 Q212.8281,169.7949 213.0313,169.7949 Q213.3594,169.7949 213.6094,170.0605 Q213.875,170.3105 213.875,170.6543 Q213.875,170.998 213.5313,171.4043 Q213.0313,171.9824 212.2344,172.3105 Q211.1563,172.7637 209.8594,172.7637 Q208.3438,172.7637 207.1406,172.1387 Q206.1563,171.6387 205.4688,170.5762 Q204.7813,169.498 204.7813,168.2168 L204.7813,167.0605 Q204.7813,165.7324 205.3906,164.5918 Q206.0156,163.4355 207.1094,162.8262 Q208.2031,162.2012 209.4375,162.2012 Q210.1719,162.2012 210.8125,162.373 Q211.4688,162.5293 212.0156,162.8887 Z " fill="#000000"/><text fill="#000000" font-family="sans-serif" font-size="14" lengthAdjust="spacing" textLength="43" x="229.75" y="172.8105">Monde</text><line style="stroke:#181818;stroke-width:0.5;" x1="47.5" x2="422.5" y1="183.0137" y2="183.0137"/><polygon fill="none" points="57.5,192.8242,61.5,196.8242,57.5,200.8242,53.5,196.8242" style="stroke:#B38D22;stroke-width:1.0;"/><text fill="#000000" font-family="sans-serif" font-size="14" lengthAdjust="spacing" textLength="70" x="66.5" y="202.1211">int nbLigne</text><polygon fill="none" points="57.5,211.4453,61.5,215.4453,57.5,219.4453,53.5,215.4453" style="stroke:#B38D22;stroke-width:1.0;"/><text fill="#000000" font-family="sans-serif" font-size="14" lengthAdjust="spacing" textLength="56" x="66.5" y="220.7422">int nbCol</text><ellipse cx="57.5" cy="257.6875" fill="#84BE84" rx="3" ry="3" style="stroke:#038048;stroke-width:1.0;"/><text fill="#000000" font-family="sans-serif" font-size="14" lengthAdjust="spacing" textLength="351" x="66.5" y="261.9844">boolean collision(ElementMonde e1, ElementMonde e2)</text><ellipse cx="57.5" cy="276.3086" fill="#84BE84" rx="3" ry="3" style="stroke:#038048;stroke-width:1.0;"/><text fill="#000000" font-family="sans-serif" font-size="14" lengthAdjust="spacing" textLength="146" x="66.5" y="280.6055">void gestionCollisions()</text><line style="stroke:#181818;stroke-width:1.0;stroke-dasharray:1.0,2.0;" x1="47.5" x2="204" y1="237.5664" y2="237.5664"/><text fill="#000000" font-family="sans-serif" font-size="14" lengthAdjust="spacing" textLength="62" x="204" y="242.8633">M&#233;thodes</text><line style="stroke:#181818;stroke-width:1.0;stroke-dasharray:1.0,2.0;" x1="266" x2="422.5" y1="237.5664" y2="237.5664"/></g><!--class GestionFichier--><g id="elem_GestionFichier"><rect codeLine="48" fill="#F1F1F1" height="66.6211" id="GestionFichier" rx="2.5" ry="2.5" style="stroke:#181818;stroke-width:0.5;" width="282" x="480" y="375.5137"/><ellipse cx="570.75" cy="391.5137" fill="#ADD1B2" rx="11" ry="11" style="stroke:#181818;stroke-width:1.0;"/><path d="M573.5156,387.3887 Q573.6719,387.1699 573.8594,387.0605 Q574.0469,386.9512 574.2656,386.9512 Q574.6406,386.9512 574.875,387.2168 Q575.1094,387.4668 575.1094,388.0762 L575.1094,389.5293 Q575.1094,390.1387 574.875,390.4043 Q574.6406,390.6699 574.2656,390.6699 Q573.9219,390.6699 573.7188,390.4668 Q573.5156,390.2793 573.4063,389.7637 Q573.3594,389.4043 573.1719,389.2168 Q572.8438,388.8418 572.2344,388.623 Q571.625,388.4043 571,388.4043 Q570.2344,388.4043 569.5938,388.7324 Q568.9688,389.0605 568.4688,389.8105 Q567.9844,390.5605 567.9844,391.5918 L567.9844,392.6855 Q567.9844,393.9199 568.875,394.748 Q569.7656,395.5605 571.3594,395.5605 Q572.2969,395.5605 572.9531,395.3105 Q573.3438,395.1543 573.7656,394.7168 Q574.0313,394.4512 574.1719,394.373 Q574.3281,394.2949 574.5313,394.2949 Q574.8594,394.2949 575.1094,394.5605 Q575.375,394.8105 575.375,395.1543 Q575.375,395.498 575.0313,395.9043 Q574.5313,396.4824 573.7344,396.8105 Q572.6563,397.2637 571.3594,397.2637 Q569.8438,397.2637 568.6406,396.6387 Q567.6563,396.1387 566.9688,395.0762 Q566.2813,393.998 566.2813,392.7168 L566.2813,391.5605 Q566.2813,390.2324 566.8906,389.0918 Q567.5156,387.9355 568.6094,387.3262 Q569.7031,386.7012 570.9375,386.7012 Q571.6719,386.7012 572.3125,386.873 Q572.9688,387.0293 573.5156,387.3887 Z " fill="#000000"/><text fill="#000000" font-family="sans-serif" font-size="14" lengthAdjust="spacing" textLength="92" x="591.25" y="397.3105">GestionFichier</text><line style="stroke:#181818;stroke-width:0.5;" x1="481" x2="761" y1="407.5137" y2="407.5137"/><line style="stroke:#181818;stroke-width:0.5;" x1="481" x2="761" y1="415.5137" y2="415.5137"/><ellipse cx="491" cy="430.3242" fill="#84BE84" rx="3" ry="3" style="stroke:#038048;stroke-width:1.0;"/><text fill="#000000" font-family="sans-serif" font-size="14" lengthAdjust="spacing" textLength="256" x="500" y="434.6211">char[] lireFichierCarte(string nomFichier)</text></g><!--link Escape to Monde--><g id="link_Escape_Monde"><path codeLine="54" d="M235,91.2037 C235,107.1937 235,129.3437 235,150.6937 " fill="none" id="Escape-Monde" style="stroke:#181818;stroke-width:1.0;"/><text fill="#000000" font-family="sans-serif" font-size="13" lengthAdjust="spacing" textLength="7" x="227.6391" y="139.7579">1</text></g><!--reverse link ElementMonde to Personnage--><g id="link_ElementMonde_Personnage"><path codeLine="55" d="M261.3,489.3837 C265.89,503.2337 270.54,517.2737 274.76,530.0037 " fill="none" id="ElementMonde-backto-Personnage" style="stroke:#181818;stroke-width:1.0;"/><polygon fill="none" points="254.55,491.2637,254.9,470.0737,267.84,486.8537,254.55,491.2637" style="stroke:#181818;stroke-width:1.0;"/></g><!--reverse link Personnage to Heros--><g id="link_Personnage_Heros"><path codeLine="56" d="M323.3,648.7037 C330.35,663.4537 337.34,678.1037 342.87,689.6837 " fill="none" id="Personnage-backto-Heros" style="stroke:#181818;stroke-width:1.0;"/><polygon fill="none" points="316.76,651.2337,314.46,630.1637,329.39,645.2037,316.76,651.2337" style="stroke:#181818;stroke-width:1.0;"/></g><!--reverse link Personnage to Monstre--><g id="link_Personnage_Monstre"><path codeLine="57" d="M265.69,649.1937 C260.27,663.7837 254.91,678.2337 250.66,689.6837 " fill="none" id="Personnage-backto-Monstre" style="stroke:#181818;stroke-width:1.0;"/><polygon fill="none" points="259.23,646.4837,272.75,630.1637,272.36,651.3537,259.23,646.4837" style="stroke:#181818;stroke-width:1.0;"/></g><!--reverse link Monstre to Walker--><g id="link_Monstre_Walker"><path codeLine="58" d="M242,758.0337 C242,771.5937 242,786.0537 242,797.6937 " fill="none" id="Monstre-backto-Walker" style="stroke:#181818;stroke-width:1.0;"/><polygon fill="none" points="235,758.0137,242,738.0137,249,758.0137,235,758.0137" style="stroke:#181818;stroke-width:1.0;"/></g><!--reverse link ElementMonde to Terrain--><g id="link_ElementMonde_Terrain"><path codeLine="60" d="M175.2,486.0037 C155.33,511.2537 134.65,537.5237 120.36,555.6837 " fill="none" id="ElementMonde-backto-Terrain" style="stroke:#181818;stroke-width:1.0;"/><polygon fill="none" points="169.87,481.4637,187.73,470.0737,180.87,490.1137,169.87,481.4637" style="stroke:#181818;stroke-width:1.0;"/></g><!--reverse link Terrain to Mur--><g id="link_Terrain_Mur"><path codeLine="61" d="M102,624.4837 C102,646.3337 102,671.9237 102,689.9537 " fill="none" id="Terrain-backto-Mur" style="stroke:#181818;stroke-width:1.0;"/><polygon fill="none" points="95,624.3137,102,604.3137,109,624.3137,95,624.3137" style="stroke:#181818;stroke-width:1.0;"/></g><!--link Monde to ElementMonde--><g id="link_Monde_ElementMonde"><path codeLine="63" d="M235,288.2037 C235,307.7137 235,328.8637 235,347.8837 " fill="none" id="Monde-ElementMonde" style="stroke:#181818;stroke-width:1.0;"/><text fill="#000000" font-family="sans-serif" font-size="13" lengthAdjust="spacing" textLength="5" x="229.7109" y="336.8498">*</text></g><!--link Monde to GestionFichier--><g id="link_Monde_GestionFichier"><path codeLine="65" d="M374.08,288.0737 C435.33,317.8237 504.45,351.4037 553.95,375.4437 " fill="none" id="Monde-GestionFichier" style="stroke:#181818;stroke-width:1.0;"/><text fill="#000000" font-family="sans-serif" font-size="13" lengthAdjust="spacing" textLength="7" x="533.0605" y="364.2554">1</text></g><!--SRC=[TLBBJiCm4BpxArRbqb8IgNm0bwh0WGWEI1mG1pTP4gkk7TbEHLNoGVsE_XY9xOIyAaMHF3FspkviJkCTJH4sEgOvdWX0zUKUZAH846eGW6wrKJGs47EgDMmuxb6OhWBW1hwvf0P-1kTZUsR2G4OBWuNgOPogjCOiM4uLV4UbA1E-LaTdVquJ5Shp7MhgiJTKMWfHzpZqVc06jKQBXc5qEPjC9gZ3q29BI2xddDCOrRnwaOaKp377I1O7Eu_5jB5dL5AFhGrSLSEipZZMEVg3yXsgAwGDujIRgTY-i5JW05jBxf5nTtL_MoavKW6nv9nf9iMy5pMkxlhPu_sYlNkGB84KjQckhPlxUlu_bDBjbryXktAssxA_Tw-5ORoPbnC_kLSVMPmnL6rgIuWpgZw_W3E5dbnJPR19HyYzXxikIa9SzT2R20AOhMRUKcWxSt_IMPMWo8FVXrxxn2NhcNyjQR8SCox6Xl0wGfhzdYfIxxN7lQprtx5gcxYTzQzUqrNDzaTA_W00]--></g></svg>