<?xml version="1.0" encoding="windows-1252" standalone="no"?>
<svg xmlns="http://www.w3.org/2000/svg" xmlns:xlink="http://www.w3.org/1999/xlink" contentStyleType="text/css" height="915px" preserveAspectRatio="none" style="width:2051px;height:915px;background:#FFFFFF;" version="1.1" viewBox="0 0 2051 915" width="2051px" zoomAndPan="magnify"><defs/><g><!--cluster Escape--><g id="cluster_Escape"><path d="M8.5,6 L65.5,6 A3.75,3.75 0 0 1 68,8.5 L75,28.2969 L2041.5,28.2969 A2.5,2.5 0 0 1 2044,30.7969 L2044,905.5 A2.5,2.5 0 0 1 2041.5,908 L8.5,908 A2.5,2.5 0 0 1 6,905.5 L6,8.5 A2.5,2.5 0 0 1 8.5,6 " fill="none" style="stroke:#000000;stroke-width:1.5;"/><line style="stroke:#000000;stroke-width:1.5;" x1="6" x2="75" y1="28.2969" y2="28.2969"/><text fill="#000000" font-family="sans-serif" font-size="14" font-weight="bold" lengthAdjust="spacing" textLength="56" x="10" y="20.9951">Escape</text></g><!--cluster Monde--><g id="cluster_Monde"><path d="M32.5,143 L86.5,143 A3.75,3.75 0 0 1 89,145.5 L96,165.2969 L1643.5,165.2969 A2.5,2.5 0 0 1 1646,167.7969 L1646,881.5 A2.5,2.5 0 0 1 1643.5,884 L32.5,884 A2.5,2.5 0 0 1 30,881.5 L30,145.5 A2.5,2.5 0 0 1 32.5,143 " fill="none" style="stroke:#000000;stroke-width:1.5;"/><line style="stroke:#000000;stroke-width:1.5;" x1="30" x2="96" y1="165.2969" y2="165.2969"/><text fill="#000000" font-family="sans-serif" font-size="14" font-weight="bold" lengthAdjust="spacing" textLength="53" x="34" y="157.9951">Monde</text></g><!--cluster Outils--><g id="cluster_Outils"><path d="M1672.5,387.5 L1722.5,387.5 A3.75,3.75 0 0 1 1725,390 L1732,409.7969 L2017.5,409.7969 A2.5,2.5 0 0 1 2020,412.2969 L2020,549 A2.5,2.5 0 0 1 2017.5,551.5 L1672.5,551.5 A2.5,2.5 0 0 1 1670,549 L1670,390 A2.5,2.5 0 0 1 1672.5,387.5 " fill="none" style="stroke:#000000;stroke-width:1.5;"/><line style="stroke:#000000;stroke-width:1.5;" x1="1670" x2="1732" y1="409.7969" y2="409.7969"/><text fill="#000000" font-family="sans-serif" font-size="14" font-weight="bold" lengthAdjust="spacing" textLength="49" x="1674" y="402.4951">Outils</text></g><!--class Escape--><g id="elem_Escape"><rect codeLine="68" fill="#F1F1F1" height="76.5938" id="Escape" rx="2.5" ry="2.5" style="stroke:#181818;stroke-width:0.5;" width="102" x="1135" y="41"/><ellipse cx="1158.55" cy="57" fill="#ADD1B2" rx="11" ry="11" style="stroke:#181818;stroke-width:1.0;"/><path d="M1160.8938,52.6719 C1159.9563,52.2344 1159.3625,52.0938 1158.4875,52.0938 C1155.8625,52.0938 1153.8625,54.1719 1153.8625,56.8906 L1153.8625,58.0156 C1153.8625,60.5938 1155.9719,62.4844 1158.8625,62.4844 C1160.0813,62.4844 1161.2375,62.1875 1161.9875,61.6406 C1162.5656,61.2344 1162.8938,60.7813 1162.8938,60.3906 C1162.8938,59.9375 1162.5031,59.5469 1162.0344,59.5469 C1161.8156,59.5469 1161.6125,59.625 1161.425,59.8125 C1160.9719,60.2969 1160.9719,60.2969 1160.7844,60.3906 C1160.3625,60.6563 1159.675,60.7813 1158.9094,60.7813 C1156.8625,60.7813 1155.5656,59.6875 1155.5656,57.9844 L1155.5656,56.8906 C1155.5656,55.1094 1156.8156,53.7969 1158.55,53.7969 C1159.1281,53.7969 1159.7375,53.9531 1160.2063,54.2031 C1160.6906,54.4844 1160.8625,54.7031 1160.9563,55.1094 C1161.0188,55.5156 1161.05,55.6406 1161.1906,55.7656 C1161.3313,55.9063 1161.5656,56.0156 1161.7844,56.0156 C1162.05,56.0156 1162.3156,55.875 1162.4875,55.6563 C1162.5969,55.5 1162.6281,55.3125 1162.6281,54.8906 L1162.6281,53.4688 C1162.6281,53.0313 1162.6125,52.9063 1162.5188,52.75 C1162.3625,52.4844 1162.0813,52.3438 1161.7844,52.3438 C1161.4875,52.3438 1161.2844,52.4375 1161.0656,52.75 L1160.8938,52.6719 Z " fill="#000000"/><text fill="#000000" font-family="sans-serif" font-size="14" lengthAdjust="spacing" textLength="51" x="1174.45" y="61.8467">Escape</text><line style="stroke:#181818;stroke-width:0.5;" x1="1136" x2="1236" y1="73" y2="73"/><ellipse cx="1146" cy="106.9453" fill="#84BE84" rx="3" ry="3" style="stroke:#038048;stroke-width:1.0;"/><text fill="#000000" font-family="sans-serif" font-size="14" lengthAdjust="spacing" textLength="61" x="1155" y="110.292">Escape()</text><line style="stroke:#181818;stroke-width:1.0;stroke-dasharray:1.0,2.0;" x1="1136" x2="1139" y1="89.1484" y2="89.1484"/><text fill="#000000" font-family="sans-serif" font-size="14" lengthAdjust="spacing" textLength="94" x="1139" y="93.4951">Constructeur</text><line style="stroke:#181818;stroke-width:1.0;stroke-dasharray:1.0,2.0;" x1="1233" x2="1236" y1="89.1484" y2="89.1484"/></g><!--class ElementMonde--><g id="elem_ElementMonde"><rect codeLine="4" fill="#F1F1F1" height="158.0781" id="ElementMonde" rx="2.5" ry="2.5" style="stroke:#181818;stroke-width:0.5;" width="139" x="789.5" y="400"/><ellipse cx="804.5" cy="416" fill="#A9DCDF" rx="11" ry="11" style="stroke:#181818;stroke-width:1.0;"/><path d="M806.5781,417.8125 L806.9688,418.7969 L806.5781,418.7969 C806.125,418.7969 806.0156,418.8125 805.8594,418.9219 C805.6094,419.0781 805.4531,419.3594 805.4531,419.6563 C805.4531,419.9219 805.5938,420.1719 805.8125,420.3281 C805.9531,420.4531 806.1563,420.5 806.5781,420.5 L808.9375,420.5 C809.2969,420.5 809.5156,420.4688 809.6563,420.375 C809.9063,420.2344 810.0625,419.9375 810.0625,419.6563 C810.0625,419.375 809.9219,419.125 809.7031,418.9688 C809.5313,418.8281 809.375,418.7969 808.9063,418.7969 L805.5156,410.5938 L801.8438,410.5938 C801.3906,410.5938 801.2656,410.6094 801.1094,410.7031 C800.8594,410.875 800.7031,411.1563 800.7031,411.4375 C800.7031,411.7188 800.8438,411.9688 801.0625,412.1406 C801.2344,412.25 801.4063,412.2813 801.8438,412.2813 L802.9219,412.2813 L800.2813,418.7969 C799.8594,418.7969 799.7031,418.8125 799.5469,418.9219 C799.2969,419.0781 799.1406,419.3594 799.1406,419.6563 C799.1406,420.2188 799.5156,420.5 800.2656,420.5 L802.5313,420.5 C802.8906,420.5 803.1094,420.4688 803.2344,420.375 C803.5,420.2344 803.6406,419.9375 803.6406,419.6563 C803.6406,419.375 803.5156,419.125 803.2969,418.9531 C803.125,418.8281 802.9844,418.7969 802.5313,418.7969 L802.1406,418.7969 L802.5313,417.8125 L806.5781,417.8125 Z M805.875,416.1094 L803.2031,416.1094 L804.5469,412.8438 L805.875,416.1094 Z " fill="#000000"/><text fill="#000000" font-family="sans-serif" font-size="14" font-style="italic" lengthAdjust="spacing" textLength="107" x="818.5" y="420.8467">ElementMonde</text><line style="stroke:#181818;stroke-width:0.5;" x1="790.5" x2="927.5" y1="432" y2="432"/><polygon fill="none" points="800.5,440.6484,804.5,444.6484,800.5,448.6484,796.5,444.6484" style="stroke:#B38D22;stroke-width:1.0;"/><text fill="#000000" font-family="sans-serif" font-size="14" lengthAdjust="spacing" textLength="46" x="809.5" y="448.9951">float x</text><polygon fill="none" points="800.5,456.9453,804.5,460.9453,800.5,464.9453,796.5,460.9453" style="stroke:#B38D22;stroke-width:1.0;"/><text fill="#000000" font-family="sans-serif" font-size="14" lengthAdjust="spacing" textLength="46" x="809.5" y="465.292">float y</text><polygon fill="none" points="800.5,473.2422,804.5,477.2422,800.5,481.2422,796.5,477.2422" style="stroke:#B38D22;stroke-width:1.0;"/><text fill="#000000" font-family="sans-serif" font-size="14" lengthAdjust="spacing" textLength="79" x="809.5" y="481.5889">int hauteur</text><polygon fill="none" points="800.5,489.5391,804.5,493.5391,800.5,497.5391,796.5,493.5391" style="stroke:#B38D22;stroke-width:1.0;"/><text fill="#000000" font-family="sans-serif" font-size="14" lengthAdjust="spacing" textLength="74" x="809.5" y="497.8857">int largeur</text><ellipse cx="800.5" cy="531.1328" fill="#84BE84" rx="3" ry="3" style="stroke:#038048;stroke-width:1.0;"/><text fill="#000000" font-family="sans-serif" font-size="14" lengthAdjust="spacing" textLength="58" x="809.5" y="534.4795">Monde()</text><text fill="#000000" font-family="sans-serif" font-size="14" lengthAdjust="spacing" textLength="4" x="809.5" y="550.7764"> </text><line style="stroke:#181818;stroke-width:1.0;stroke-dasharray:1.0,2.0;" x1="790.5" x2="812" y1="513.3359" y2="513.3359"/><text fill="#000000" font-family="sans-serif" font-size="14" lengthAdjust="spacing" textLength="94" x="812" y="517.6826">Constructeur</text><line style="stroke:#181818;stroke-width:1.0;stroke-dasharray:1.0,2.0;" x1="906" x2="927.5" y1="513.3359" y2="513.3359"/></g><!--class Terrain--><g id="elem_Terrain"><rect codeLine="13" fill="#F1F1F1" height="129.4844" id="Terrain" rx="2.5" ry="2.5" style="stroke:#181818;stroke-width:0.5;" width="356" x="398" y="414.5"/><ellipse cx="545.75" cy="430.5" fill="#A9DCDF" rx="11" ry="11" style="stroke:#181818;stroke-width:1.0;"/><path d="M547.8281,432.3125 L548.2188,433.2969 L547.8281,433.2969 C547.375,433.2969 547.2656,433.3125 547.1094,433.4219 C546.8594,433.5781 546.7031,433.8594 546.7031,434.1563 C546.7031,434.4219 546.8438,434.6719 547.0625,434.8281 C547.2031,434.9531 547.4063,435 547.8281,435 L550.1875,435 C550.5469,435 550.7656,434.9688 550.9063,434.875 C551.1563,434.7344 551.3125,434.4375 551.3125,434.1563 C551.3125,433.875 551.1719,433.625 550.9531,433.4688 C550.7813,433.3281 550.625,433.2969 550.1563,433.2969 L546.7656,425.0938 L543.0938,425.0938 C542.6406,425.0938 542.5156,425.1094 542.3594,425.2031 C542.1094,425.375 541.9531,425.6563 541.9531,425.9375 C541.9531,426.2188 542.0938,426.4688 542.3125,426.6406 C542.4844,426.75 542.6563,426.7813 543.0938,426.7813 L544.1719,426.7813 L541.5313,433.2969 C541.1094,433.2969 540.9531,433.3125 540.7969,433.4219 C540.5469,433.5781 540.3906,433.8594 540.3906,434.1563 C540.3906,434.7188 540.7656,435 541.5156,435 L543.7813,435 C544.1406,435 544.3594,434.9688 544.4844,434.875 C544.75,434.7344 544.8906,434.4375 544.8906,434.1563 C544.8906,433.875 544.7656,433.625 544.5469,433.4531 C544.375,433.3281 544.2344,433.2969 543.7813,433.2969 L543.3906,433.2969 L543.7813,432.3125 L547.8281,432.3125 Z M547.125,430.6094 L544.4531,430.6094 L545.7969,427.3438 L547.125,430.6094 Z " fill="#000000"/><text fill="#000000" font-family="sans-serif" font-size="14" font-style="italic" lengthAdjust="spacing" textLength="52" x="566.25" y="435.3467">Terrain</text><line style="stroke:#181818;stroke-width:0.5;" x1="399" x2="753" y1="446.5" y2="446.5"/><ellipse cx="409" cy="480.4453" fill="#84BE84" rx="3" ry="3" style="stroke:#038048;stroke-width:1.0;"/><text fill="#000000" font-family="sans-serif" font-size="14" lengthAdjust="spacing" textLength="330" x="418" y="483.792">Terrain(float x, float y, int hauteur, int largeur)</text><line style="stroke:#181818;stroke-width:1.0;stroke-dasharray:1.0,2.0;" x1="399" x2="529" y1="462.6484" y2="462.6484"/><text fill="#000000" font-family="sans-serif" font-size="14" lengthAdjust="spacing" textLength="94" x="529" y="466.9951">Constructeur</text><line style="stroke:#181818;stroke-width:1.0;stroke-dasharray:1.0,2.0;" x1="623" x2="753" y1="462.6484" y2="462.6484"/><ellipse cx="409" cy="517.0391" fill="#84BE84" rx="3" ry="3" style="stroke:#038048;stroke-width:1.0;"/><text fill="#000000" font-family="sans-serif" font-size="14" lengthAdjust="spacing" textLength="179" x="418" y="520.3857">boolean estTraversable()</text><text fill="#000000" font-family="sans-serif" font-size="14" lengthAdjust="spacing" textLength="4" x="418" y="536.6826"> </text><line style="stroke:#181818;stroke-width:1.0;stroke-dasharray:1.0,2.0;" x1="399" x2="540.5" y1="499.2422" y2="499.2422"/><text fill="#000000" font-family="sans-serif" font-size="14" lengthAdjust="spacing" textLength="71" x="540.5" y="503.5889">Méthodes</text><line style="stroke:#181818;stroke-width:1.0;stroke-dasharray:1.0,2.0;" x1="611.5" x2="753" y1="499.2422" y2="499.2422"/></g><!--class Mur--><g id="elem_Mur"><rect codeLine="21" fill="#F1F1F1" height="113.1875" id="Mur" rx="2.5" ry="2.5" style="stroke:#181818;stroke-width:0.5;" width="331" x="46.5" y="618"/><ellipse cx="194.75" cy="634" fill="#ADD1B2" rx="11" ry="11" style="stroke:#181818;stroke-width:1.0;"/><path d="M197.0938,629.6719 C196.1563,629.2344 195.5625,629.0938 194.6875,629.0938 C192.0625,629.0938 190.0625,631.1719 190.0625,633.8906 L190.0625,635.0156 C190.0625,637.5938 192.1719,639.4844 195.0625,639.4844 C196.2813,639.4844 197.4375,639.1875 198.1875,638.6406 C198.7656,638.2344 199.0938,637.7813 199.0938,637.3906 C199.0938,636.9375 198.7031,636.5469 198.2344,636.5469 C198.0156,636.5469 197.8125,636.625 197.625,636.8125 C197.1719,637.2969 197.1719,637.2969 196.9844,637.3906 C196.5625,637.6563 195.875,637.7813 195.1094,637.7813 C193.0625,637.7813 191.7656,636.6875 191.7656,634.9844 L191.7656,633.8906 C191.7656,632.1094 193.0156,630.7969 194.75,630.7969 C195.3281,630.7969 195.9375,630.9531 196.4063,631.2031 C196.8906,631.4844 197.0625,631.7031 197.1563,632.1094 C197.2188,632.5156 197.25,632.6406 197.3906,632.7656 C197.5313,632.9063 197.7656,633.0156 197.9844,633.0156 C198.25,633.0156 198.5156,632.875 198.6875,632.6563 C198.7969,632.5 198.8281,632.3125 198.8281,631.8906 L198.8281,630.4688 C198.8281,630.0313 198.8125,629.9063 198.7188,629.75 C198.5625,629.4844 198.2813,629.3438 197.9844,629.3438 C197.6875,629.3438 197.4844,629.4375 197.2656,629.75 L197.0938,629.6719 Z " fill="#000000"/><text fill="#000000" font-family="sans-serif" font-size="14" lengthAdjust="spacing" textLength="26" x="215.25" y="638.8467">Mur</text><line style="stroke:#181818;stroke-width:0.5;" x1="47.5" x2="376.5" y1="650" y2="650"/><ellipse cx="57.5" cy="683.9453" fill="#84BE84" rx="3" ry="3" style="stroke:#038048;stroke-width:1.0;"/><text fill="#000000" font-family="sans-serif" font-size="14" lengthAdjust="spacing" textLength="305" x="66.5" y="687.292">Mur(float x, float y, int hauteur, int largeur)</text><line style="stroke:#181818;stroke-width:1.0;stroke-dasharray:1.0,2.0;" x1="47.5" x2="165" y1="666.1484" y2="666.1484"/><text fill="#000000" font-family="sans-serif" font-size="14" lengthAdjust="spacing" textLength="94" x="165" y="670.4951">Constructeur</text><line style="stroke:#181818;stroke-width:1.0;stroke-dasharray:1.0,2.0;" x1="259" x2="376.5" y1="666.1484" y2="666.1484"/><ellipse cx="57.5" cy="720.5391" fill="#84BE84" rx="3" ry="3" style="stroke:#038048;stroke-width:1.0;"/><text fill="#000000" font-family="sans-serif" font-size="14" lengthAdjust="spacing" textLength="179" x="66.5" y="723.8857">boolean estTraversable()</text><line style="stroke:#181818;stroke-width:1.0;stroke-dasharray:1.0,2.0;" x1="47.5" x2="176.5" y1="702.7422" y2="702.7422"/><text fill="#000000" font-family="sans-serif" font-size="14" lengthAdjust="spacing" textLength="71" x="176.5" y="707.0889">Méthodes</text><line style="stroke:#181818;stroke-width:1.0;stroke-dasharray:1.0,2.0;" x1="247.5" x2="376.5" y1="702.7422" y2="702.7422"/></g><!--class Sol--><g id="elem_Sol"><rect codeLine="28" fill="#F1F1F1" height="76.5938" id="Sol" rx="2.5" ry="2.5" style="stroke:#181818;stroke-width:0.5;" width="327" x="412.5" y="636"/><ellipse cx="560.75" cy="652" fill="#ADD1B2" rx="11" ry="11" style="stroke:#181818;stroke-width:1.0;"/><path d="M563.0938,647.6719 C562.1563,647.2344 561.5625,647.0938 560.6875,647.0938 C558.0625,647.0938 556.0625,649.1719 556.0625,651.8906 L556.0625,653.0156 C556.0625,655.5938 558.1719,657.4844 561.0625,657.4844 C562.2813,657.4844 563.4375,657.1875 564.1875,656.6406 C564.7656,656.2344 565.0938,655.7813 565.0938,655.3906 C565.0938,654.9375 564.7031,654.5469 564.2344,654.5469 C564.0156,654.5469 563.8125,654.625 563.625,654.8125 C563.1719,655.2969 563.1719,655.2969 562.9844,655.3906 C562.5625,655.6563 561.875,655.7813 561.1094,655.7813 C559.0625,655.7813 557.7656,654.6875 557.7656,652.9844 L557.7656,651.8906 C557.7656,650.1094 559.0156,648.7969 560.75,648.7969 C561.3281,648.7969 561.9375,648.9531 562.4063,649.2031 C562.8906,649.4844 563.0625,649.7031 563.1563,650.1094 C563.2188,650.5156 563.25,650.6406 563.3906,650.7656 C563.5313,650.9063 563.7656,651.0156 563.9844,651.0156 C564.25,651.0156 564.5156,650.875 564.6875,650.6563 C564.7969,650.5 564.8281,650.3125 564.8281,649.8906 L564.8281,648.4688 C564.8281,648.0313 564.8125,647.9063 564.7188,647.75 C564.5625,647.4844 564.2813,647.3438 563.9844,647.3438 C563.6875,647.3438 563.4844,647.4375 563.2656,647.75 L563.0938,647.6719 Z " fill="#000000"/><text fill="#000000" font-family="sans-serif" font-size="14" lengthAdjust="spacing" textLength="22" x="581.25" y="656.8467">Sol</text><line style="stroke:#181818;stroke-width:0.5;" x1="413.5" x2="738.5" y1="668" y2="668"/><ellipse cx="423.5" cy="701.9453" fill="#84BE84" rx="3" ry="3" style="stroke:#038048;stroke-width:1.0;"/><text fill="#000000" font-family="sans-serif" font-size="14" lengthAdjust="spacing" textLength="301" x="432.5" y="705.292">Sol(float x, float y, int hauteur, int largeur)</text><line style="stroke:#181818;stroke-width:1.0;stroke-dasharray:1.0,2.0;" x1="413.5" x2="529" y1="684.1484" y2="684.1484"/><text fill="#000000" font-family="sans-serif" font-size="14" lengthAdjust="spacing" textLength="94" x="529" y="688.4951">Constructeur</text><line style="stroke:#181818;stroke-width:1.0;stroke-dasharray:1.0,2.0;" x1="623" x2="738.5" y1="684.1484" y2="684.1484"/></g><!--class Personnage--><g id="elem_Personnage"><rect codeLine="34" fill="#F1F1F1" height="129.4844" id="Personnage" rx="2.5" ry="2.5" style="stroke:#181818;stroke-width:0.5;" width="444" x="964" y="414.5"/><ellipse cx="1139.75" cy="430.5" fill="#A9DCDF" rx="11" ry="11" style="stroke:#181818;stroke-width:1.0;"/><path d="M1141.8281,432.3125 L1142.2188,433.2969 L1141.8281,433.2969 C1141.375,433.2969 1141.2656,433.3125 1141.1094,433.4219 C1140.8594,433.5781 1140.7031,433.8594 1140.7031,434.1563 C1140.7031,434.4219 1140.8438,434.6719 1141.0625,434.8281 C1141.2031,434.9531 1141.4063,435 1141.8281,435 L1144.1875,435 C1144.5469,435 1144.7656,434.9688 1144.9063,434.875 C1145.1563,434.7344 1145.3125,434.4375 1145.3125,434.1563 C1145.3125,433.875 1145.1719,433.625 1144.9531,433.4688 C1144.7813,433.3281 1144.625,433.2969 1144.1563,433.2969 L1140.7656,425.0938 L1137.0938,425.0938 C1136.6406,425.0938 1136.5156,425.1094 1136.3594,425.2031 C1136.1094,425.375 1135.9531,425.6563 1135.9531,425.9375 C1135.9531,426.2188 1136.0938,426.4688 1136.3125,426.6406 C1136.4844,426.75 1136.6563,426.7813 1137.0938,426.7813 L1138.1719,426.7813 L1135.5313,433.2969 C1135.1094,433.2969 1134.9531,433.3125 1134.7969,433.4219 C1134.5469,433.5781 1134.3906,433.8594 1134.3906,434.1563 C1134.3906,434.7188 1134.7656,435 1135.5156,435 L1137.7813,435 C1138.1406,435 1138.3594,434.9688 1138.4844,434.875 C1138.75,434.7344 1138.8906,434.4375 1138.8906,434.1563 C1138.8906,433.875 1138.7656,433.625 1138.5469,433.4531 C1138.375,433.3281 1138.2344,433.2969 1137.7813,433.2969 L1137.3906,433.2969 L1137.7813,432.3125 L1141.8281,432.3125 Z M1141.125,430.6094 L1138.4531,430.6094 L1139.7969,427.3438 L1141.125,430.6094 Z " fill="#000000"/><text fill="#000000" font-family="sans-serif" font-size="14" font-style="italic" lengthAdjust="spacing" textLength="84" x="1160.25" y="435.3467">Personnage</text><line style="stroke:#181818;stroke-width:0.5;" x1="965" x2="1407" y1="446.5" y2="446.5"/><polygon fill="none" points="975,455.1484,979,459.1484,975,463.1484,971,459.1484" style="stroke:#B38D22;stroke-width:1.0;"/><text fill="#000000" font-family="sans-serif" font-size="14" lengthAdjust="spacing" textLength="89" x="984" y="463.4951">float vitesse</text><ellipse cx="975" cy="496.7422" fill="#84BE84" rx="3" ry="3" style="stroke:#038048;stroke-width:1.0;"/><text fill="#000000" font-family="sans-serif" font-size="14" lengthAdjust="spacing" textLength="418" x="984" y="500.0889">Personnage(int x, int y, int largeur, int hauteur, int vitesse)</text><line style="stroke:#181818;stroke-width:1.0;stroke-dasharray:1.0,2.0;" x1="965" x2="1139" y1="478.9453" y2="478.9453"/><text fill="#000000" font-family="sans-serif" font-size="14" lengthAdjust="spacing" textLength="94" x="1139" y="483.292">Constructeur</text><line style="stroke:#181818;stroke-width:1.0;stroke-dasharray:1.0,2.0;" x1="1233" x2="1407" y1="478.9453" y2="478.9453"/><ellipse cx="975" cy="533.3359" fill="#84BE84" rx="3" ry="3" style="stroke:#038048;stroke-width:1.0;"/><text fill="#000000" font-family="sans-serif" font-size="14" lengthAdjust="spacing" textLength="238" x="984" y="536.6826">déplacer(string typeMouvement)</text><line style="stroke:#181818;stroke-width:1.0;stroke-dasharray:1.0,2.0;" x1="965" x2="1150.5" y1="515.5391" y2="515.5391"/><text fill="#000000" font-family="sans-serif" font-size="14" lengthAdjust="spacing" textLength="71" x="1150.5" y="519.8857">Méthodes</text><line style="stroke:#181818;stroke-width:1.0;stroke-dasharray:1.0,2.0;" x1="1221.5" x2="1407" y1="515.5391" y2="515.5391"/></g><!--class Heros--><g id="elem_Heros"><rect codeLine="42" fill="#F1F1F1" height="76.5938" id="Heros" rx="2.5" ry="2.5" style="stroke:#181818;stroke-width:0.5;" width="401" x="1228.5" y="636"/><ellipse cx="1404.25" cy="652" fill="#ADD1B2" rx="11" ry="11" style="stroke:#181818;stroke-width:1.0;"/><path d="M1406.5938,647.6719 C1405.6563,647.2344 1405.0625,647.0938 1404.1875,647.0938 C1401.5625,647.0938 1399.5625,649.1719 1399.5625,651.8906 L1399.5625,653.0156 C1399.5625,655.5938 1401.6719,657.4844 1404.5625,657.4844 C1405.7813,657.4844 1406.9375,657.1875 1407.6875,656.6406 C1408.2656,656.2344 1408.5938,655.7813 1408.5938,655.3906 C1408.5938,654.9375 1408.2031,654.5469 1407.7344,654.5469 C1407.5156,654.5469 1407.3125,654.625 1407.125,654.8125 C1406.6719,655.2969 1406.6719,655.2969 1406.4844,655.3906 C1406.0625,655.6563 1405.375,655.7813 1404.6094,655.7813 C1402.5625,655.7813 1401.2656,654.6875 1401.2656,652.9844 L1401.2656,651.8906 C1401.2656,650.1094 1402.5156,648.7969 1404.25,648.7969 C1404.8281,648.7969 1405.4375,648.9531 1405.9063,649.2031 C1406.3906,649.4844 1406.5625,649.7031 1406.6563,650.1094 C1406.7188,650.5156 1406.75,650.6406 1406.8906,650.7656 C1407.0313,650.9063 1407.2656,651.0156 1407.4844,651.0156 C1407.75,651.0156 1408.0156,650.875 1408.1875,650.6563 C1408.2969,650.5 1408.3281,650.3125 1408.3281,649.8906 L1408.3281,648.4688 C1408.3281,648.0313 1408.3125,647.9063 1408.2188,647.75 C1408.0625,647.4844 1407.7813,647.3438 1407.4844,647.3438 C1407.1875,647.3438 1406.9844,647.4375 1406.7656,647.75 L1406.5938,647.6719 Z " fill="#000000"/><text fill="#000000" font-family="sans-serif" font-size="14" lengthAdjust="spacing" textLength="41" x="1424.75" y="656.8467">Heros</text><line style="stroke:#181818;stroke-width:0.5;" x1="1229.5" x2="1628.5" y1="668" y2="668"/><ellipse cx="1239.5" cy="701.9453" fill="#84BE84" rx="3" ry="3" style="stroke:#038048;stroke-width:1.0;"/><text fill="#000000" font-family="sans-serif" font-size="14" lengthAdjust="spacing" textLength="375" x="1248.5" y="705.292">Heros(int x, int y, int largeur, int hauteur, int vitesse)</text><line style="stroke:#181818;stroke-width:1.0;stroke-dasharray:1.0,2.0;" x1="1229.5" x2="1382" y1="684.1484" y2="684.1484"/><text fill="#000000" font-family="sans-serif" font-size="14" lengthAdjust="spacing" textLength="94" x="1382" y="688.4951">Constructeur</text><line style="stroke:#181818;stroke-width:1.0;stroke-dasharray:1.0,2.0;" x1="1476" x2="1628.5" y1="684.1484" y2="684.1484"/></g><!--class Monstre--><g id="elem_Monstre"><rect codeLine="47" fill="#F1F1F1" height="76.5938" id="Monstre" rx="2.5" ry="2.5" style="stroke:#181818;stroke-width:0.5;" width="419" x="774.5" y="636"/><ellipse cx="951.25" cy="652" fill="#A9DCDF" rx="11" ry="11" style="stroke:#181818;stroke-width:1.0;"/><path d="M953.3281,653.8125 L953.7188,654.7969 L953.3281,654.7969 C952.875,654.7969 952.7656,654.8125 952.6094,654.9219 C952.3594,655.0781 952.2031,655.3594 952.2031,655.6563 C952.2031,655.9219 952.3438,656.1719 952.5625,656.3281 C952.7031,656.4531 952.9063,656.5 953.3281,656.5 L955.6875,656.5 C956.0469,656.5 956.2656,656.4688 956.4063,656.375 C956.6563,656.2344 956.8125,655.9375 956.8125,655.6563 C956.8125,655.375 956.6719,655.125 956.4531,654.9688 C956.2813,654.8281 956.125,654.7969 955.6563,654.7969 L952.2656,646.5938 L948.5938,646.5938 C948.1406,646.5938 948.0156,646.6094 947.8594,646.7031 C947.6094,646.875 947.4531,647.1563 947.4531,647.4375 C947.4531,647.7188 947.5938,647.9688 947.8125,648.1406 C947.9844,648.25 948.1563,648.2813 948.5938,648.2813 L949.6719,648.2813 L947.0313,654.7969 C946.6094,654.7969 946.4531,654.8125 946.2969,654.9219 C946.0469,655.0781 945.8906,655.3594 945.8906,655.6563 C945.8906,656.2188 946.2656,656.5 947.0156,656.5 L949.2813,656.5 C949.6406,656.5 949.8594,656.4688 949.9844,656.375 C950.25,656.2344 950.3906,655.9375 950.3906,655.6563 C950.3906,655.375 950.2656,655.125 950.0469,654.9531 C949.875,654.8281 949.7344,654.7969 949.2813,654.7969 L948.8906,654.7969 L949.2813,653.8125 L953.3281,653.8125 Z M952.625,652.1094 L949.9531,652.1094 L951.2969,648.8438 L952.625,652.1094 Z " fill="#000000"/><text fill="#000000" font-family="sans-serif" font-size="14" font-style="italic" lengthAdjust="spacing" textLength="57" x="971.75" y="656.8467">Monstre</text><line style="stroke:#181818;stroke-width:0.5;" x1="775.5" x2="1192.5" y1="668" y2="668"/><ellipse cx="785.5" cy="701.9453" fill="#84BE84" rx="3" ry="3" style="stroke:#038048;stroke-width:1.0;"/><text fill="#000000" font-family="sans-serif" font-size="14" lengthAdjust="spacing" textLength="393" x="794.5" y="705.292">Monstre(int x, int y, int largeur, int hauteur, int vitesse)</text><line style="stroke:#181818;stroke-width:1.0;stroke-dasharray:1.0,2.0;" x1="775.5" x2="937" y1="684.1484" y2="684.1484"/><text fill="#000000" font-family="sans-serif" font-size="14" lengthAdjust="spacing" textLength="94" x="937" y="688.4951">Constructeur</text><line style="stroke:#181818;stroke-width:1.0;stroke-dasharray:1.0,2.0;" x1="1031" x2="1192.5" y1="684.1484" y2="684.1484"/></g><!--class Walker--><g id="elem_Walker"><rect codeLine="52" fill="#F1F1F1" height="76.5938" id="Walker" rx="2.5" ry="2.5" style="stroke:#181818;stroke-width:0.5;" width="410" x="779" y="791"/><ellipse cx="954.75" cy="807" fill="#ADD1B2" rx="11" ry="11" style="stroke:#181818;stroke-width:1.0;"/><path d="M957.0938,802.6719 C956.1563,802.2344 955.5625,802.0938 954.6875,802.0938 C952.0625,802.0938 950.0625,804.1719 950.0625,806.8906 L950.0625,808.0156 C950.0625,810.5938 952.1719,812.4844 955.0625,812.4844 C956.2813,812.4844 957.4375,812.1875 958.1875,811.6406 C958.7656,811.2344 959.0938,810.7813 959.0938,810.3906 C959.0938,809.9375 958.7031,809.5469 958.2344,809.5469 C958.0156,809.5469 957.8125,809.625 957.625,809.8125 C957.1719,810.2969 957.1719,810.2969 956.9844,810.3906 C956.5625,810.6563 955.875,810.7813 955.1094,810.7813 C953.0625,810.7813 951.7656,809.6875 951.7656,807.9844 L951.7656,806.8906 C951.7656,805.1094 953.0156,803.7969 954.75,803.7969 C955.3281,803.7969 955.9375,803.9531 956.4063,804.2031 C956.8906,804.4844 957.0625,804.7031 957.1563,805.1094 C957.2188,805.5156 957.25,805.6406 957.3906,805.7656 C957.5313,805.9063 957.7656,806.0156 957.9844,806.0156 C958.25,806.0156 958.5156,805.875 958.6875,805.6563 C958.7969,805.5 958.8281,805.3125 958.8281,804.8906 L958.8281,803.4688 C958.8281,803.0313 958.8125,802.9063 958.7188,802.75 C958.5625,802.4844 958.2813,802.3438 957.9844,802.3438 C957.6875,802.3438 957.4844,802.4375 957.2656,802.75 L957.0938,802.6719 Z " fill="#000000"/><text fill="#000000" font-family="sans-serif" font-size="14" lengthAdjust="spacing" textLength="50" x="975.25" y="811.8467">Walker</text><line style="stroke:#181818;stroke-width:0.5;" x1="780" x2="1188" y1="823" y2="823"/><ellipse cx="790" cy="856.9453" fill="#84BE84" rx="3" ry="3" style="stroke:#038048;stroke-width:1.0;"/><text fill="#000000" font-family="sans-serif" font-size="14" lengthAdjust="spacing" textLength="384" x="799" y="860.292">Walker(int x, int y, int largeur, int hauteur, int vitesse)</text><line style="stroke:#181818;stroke-width:1.0;stroke-dasharray:1.0,2.0;" x1="780" x2="937" y1="839.1484" y2="839.1484"/><text fill="#000000" font-family="sans-serif" font-size="14" lengthAdjust="spacing" textLength="94" x="937" y="843.4951">Constructeur</text><line style="stroke:#181818;stroke-width:1.0;stroke-dasharray:1.0,2.0;" x1="1031" x2="1188" y1="839.1484" y2="839.1484"/></g><!--class Monde--><g id="elem_Monde"><rect codeLine="57" fill="#F1F1F1" height="162.0781" id="Monde" rx="2.5" ry="2.5" style="stroke:#181818;stroke-width:0.5;" width="425" x="973.5" y="178"/><ellipse cx="1157.75" cy="194" fill="#ADD1B2" rx="11" ry="11" style="stroke:#181818;stroke-width:1.0;"/><path d="M1160.0938,189.6719 C1159.1563,189.2344 1158.5625,189.0938 1157.6875,189.0938 C1155.0625,189.0938 1153.0625,191.1719 1153.0625,193.8906 L1153.0625,195.0156 C1153.0625,197.5938 1155.1719,199.4844 1158.0625,199.4844 C1159.2813,199.4844 1160.4375,199.1875 1161.1875,198.6406 C1161.7656,198.2344 1162.0938,197.7813 1162.0938,197.3906 C1162.0938,196.9375 1161.7031,196.5469 1161.2344,196.5469 C1161.0156,196.5469 1160.8125,196.625 1160.625,196.8125 C1160.1719,197.2969 1160.1719,197.2969 1159.9844,197.3906 C1159.5625,197.6563 1158.875,197.7813 1158.1094,197.7813 C1156.0625,197.7813 1154.7656,196.6875 1154.7656,194.9844 L1154.7656,193.8906 C1154.7656,192.1094 1156.0156,190.7969 1157.75,190.7969 C1158.3281,190.7969 1158.9375,190.9531 1159.4063,191.2031 C1159.8906,191.4844 1160.0625,191.7031 1160.1563,192.1094 C1160.2188,192.5156 1160.25,192.6406 1160.3906,192.7656 C1160.5313,192.9063 1160.7656,193.0156 1160.9844,193.0156 C1161.25,193.0156 1161.5156,192.875 1161.6875,192.6563 C1161.7969,192.5 1161.8281,192.3125 1161.8281,191.8906 L1161.8281,190.4688 C1161.8281,190.0313 1161.8125,189.9063 1161.7188,189.75 C1161.5625,189.4844 1161.2813,189.3438 1160.9844,189.3438 C1160.6875,189.3438 1160.4844,189.4375 1160.2656,189.75 L1160.0938,189.6719 Z " fill="#000000"/><text fill="#000000" font-family="sans-serif" font-size="14" lengthAdjust="spacing" textLength="48" x="1178.25" y="198.8467">Monde</text><line style="stroke:#181818;stroke-width:0.5;" x1="974.5" x2="1397.5" y1="210" y2="210"/><polygon fill="none" points="984.5,218.6484,988.5,222.6484,984.5,226.6484,980.5,222.6484" style="stroke:#B38D22;stroke-width:1.0;"/><text fill="#000000" font-family="sans-serif" font-size="14" lengthAdjust="spacing" textLength="82" x="993.5" y="226.9951">int nbLigne</text><polygon fill="none" points="984.5,234.9453,988.5,238.9453,984.5,242.9453,980.5,238.9453" style="stroke:#B38D22;stroke-width:1.0;"/><text fill="#000000" font-family="sans-serif" font-size="14" lengthAdjust="spacing" textLength="66" x="993.5" y="243.292">int nbCol</text><ellipse cx="984.5" cy="276.5391" fill="#84BE84" rx="3" ry="3" style="stroke:#038048;stroke-width:1.0;"/><text fill="#000000" font-family="sans-serif" font-size="14" lengthAdjust="spacing" textLength="58" x="993.5" y="279.8857">Monde()</text><line style="stroke:#181818;stroke-width:1.0;stroke-dasharray:1.0,2.0;" x1="974.5" x2="1139" y1="258.7422" y2="258.7422"/><text fill="#000000" font-family="sans-serif" font-size="14" lengthAdjust="spacing" textLength="94" x="1139" y="263.0889">Constructeur</text><line style="stroke:#181818;stroke-width:1.0;stroke-dasharray:1.0,2.0;" x1="1233" x2="1397.5" y1="258.7422" y2="258.7422"/><ellipse cx="984.5" cy="313.1328" fill="#84BE84" rx="3" ry="3" style="stroke:#038048;stroke-width:1.0;"/><text fill="#000000" font-family="sans-serif" font-size="14" lengthAdjust="spacing" textLength="399" x="993.5" y="316.4795">boolean collision(ElementMonde e1, ElementMonde e2)</text><ellipse cx="984.5" cy="329.4297" fill="#84BE84" rx="3" ry="3" style="stroke:#038048;stroke-width:1.0;"/><text fill="#000000" font-family="sans-serif" font-size="14" lengthAdjust="spacing" textLength="165" x="993.5" y="332.7764">void gestionCollisions()</text><line style="stroke:#181818;stroke-width:1.0;stroke-dasharray:1.0,2.0;" x1="974.5" x2="1150.5" y1="295.3359" y2="295.3359"/><text fill="#000000" font-family="sans-serif" font-size="14" lengthAdjust="spacing" textLength="71" x="1150.5" y="299.6826">Méthodes</text><line style="stroke:#181818;stroke-width:1.0;stroke-dasharray:1.0,2.0;" x1="1221.5" x2="1397.5" y1="295.3359" y2="295.3359"/></g><!--class GestionFichier--><g id="elem_GestionFichier"><rect codeLine="74" fill="#F1F1F1" height="113.1875" id="GestionFichier" rx="2.5" ry="2.5" style="stroke:#181818;stroke-width:0.5;" width="318" x="1686" y="422.5"/><ellipse cx="1788.75" cy="438.5" fill="#ADD1B2" rx="11" ry="11" style="stroke:#181818;stroke-width:1.0;"/><path d="M1791.0938,434.1719 C1790.1563,433.7344 1789.5625,433.5938 1788.6875,433.5938 C1786.0625,433.5938 1784.0625,435.6719 1784.0625,438.3906 L1784.0625,439.5156 C1784.0625,442.0938 1786.1719,443.9844 1789.0625,443.9844 C1790.2813,443.9844 1791.4375,443.6875 1792.1875,443.1406 C1792.7656,442.7344 1793.0938,442.2813 1793.0938,441.8906 C1793.0938,441.4375 1792.7031,441.0469 1792.2344,441.0469 C1792.0156,441.0469 1791.8125,441.125 1791.625,441.3125 C1791.1719,441.7969 1791.1719,441.7969 1790.9844,441.8906 C1790.5625,442.1563 1789.875,442.2813 1789.1094,442.2813 C1787.0625,442.2813 1785.7656,441.1875 1785.7656,439.4844 L1785.7656,438.3906 C1785.7656,436.6094 1787.0156,435.2969 1788.75,435.2969 C1789.3281,435.2969 1789.9375,435.4531 1790.4063,435.7031 C1790.8906,435.9844 1791.0625,436.2031 1791.1563,436.6094 C1791.2188,437.0156 1791.25,437.1406 1791.3906,437.2656 C1791.5313,437.4063 1791.7656,437.5156 1791.9844,437.5156 C1792.25,437.5156 1792.5156,437.375 1792.6875,437.1563 C1792.7969,437 1792.8281,436.8125 1792.8281,436.3906 L1792.8281,434.9688 C1792.8281,434.5313 1792.8125,434.4063 1792.7188,434.25 C1792.5625,433.9844 1792.2813,433.8438 1791.9844,433.8438 C1791.6875,433.8438 1791.4844,433.9375 1791.2656,434.25 L1791.0938,434.1719 Z " fill="#000000"/><text fill="#000000" font-family="sans-serif" font-size="14" lengthAdjust="spacing" textLength="104" x="1809.25" y="443.3467">GestionFichier</text><line style="stroke:#181818;stroke-width:0.5;" x1="1687" x2="2003" y1="454.5" y2="454.5"/><ellipse cx="1697" cy="488.4453" fill="#84BE84" rx="3" ry="3" style="stroke:#038048;stroke-width:1.0;"/><text fill="#000000" font-family="sans-serif" font-size="14" lengthAdjust="spacing" textLength="114" x="1706" y="491.792">GestionFichier()</text><line style="stroke:#181818;stroke-width:1.0;stroke-dasharray:1.0,2.0;" x1="1687" x2="1798" y1="470.6484" y2="470.6484"/><text fill="#000000" font-family="sans-serif" font-size="14" lengthAdjust="spacing" textLength="94" x="1798" y="474.9951">Constructeur</text><line style="stroke:#181818;stroke-width:1.0;stroke-dasharray:1.0,2.0;" x1="1892" x2="2003" y1="470.6484" y2="470.6484"/><ellipse cx="1697" cy="525.0391" fill="#84BE84" rx="3" ry="3" style="stroke:#038048;stroke-width:1.0;"/><text fill="#000000" font-family="sans-serif" font-size="14" lengthAdjust="spacing" textLength="292" x="1706" y="528.3857">char[] lireFichierCarte(string nomFichier)</text><line style="stroke:#181818;stroke-width:1.0;stroke-dasharray:1.0,2.0;" x1="1687" x2="1809.5" y1="507.2422" y2="507.2422"/><text fill="#000000" font-family="sans-serif" font-size="14" lengthAdjust="spacing" textLength="71" x="1809.5" y="511.5889">Méthodes</text><line style="stroke:#181818;stroke-width:1.0;stroke-dasharray:1.0,2.0;" x1="1880.5" x2="2003" y1="507.2422" y2="507.2422"/></g><!--link Escape to Monde--><g id="link_Escape_Monde"><path codeLine="83" d="M1186,118.143 C1186,135.545 1186,156.923 1186,177.681 " fill="none" id="Escape-Monde" style="stroke:#181818;stroke-width:1.0;"/><text fill="#000000" font-family="sans-serif" font-size="13" lengthAdjust="spacing" textLength="8" x="1177.6438" y="166.8399">1</text></g><!--reverse link ElementMonde to Personnage--><g id="link_ElementMonde_Personnage"><path codeLine="84" d="M946.615,479 C958.345,479 952.075,479 963.805,479 " fill="none" id="ElementMonde-backto-Personnage" style="stroke:#181818;stroke-width:1.0;"/><polygon fill="none" points="928.615,479,946.615,485,946.615,473,928.615,479" style="stroke:#181818;stroke-width:1.0;"/></g><!--reverse link Personnage to Heros--><g id="link_Personnage_Heros"><path codeLine="85" d="M1279.9814,554.8392 C1318.3014,585.3512 1348.82,609.65 1381.68,635.82 " fill="none" id="Personnage-backto-Heros" style="stroke:#181818;stroke-width:1.0;"/><polygon fill="none" points="1265.9,543.627,1276.244,559.533,1283.7188,550.1454,1265.9,543.627" style="stroke:#181818;stroke-width:1.0;"/></g><!--reverse link Personnage to Monstre--><g id="link_Personnage_Monstre"><path codeLine="86" d="M1106.582,556.079 C1074.732,586.591 1050.65,609.65 1023.34,635.82 " fill="none" id="Personnage-backto-Monstre" style="stroke:#181818;stroke-width:1.0;"/><polygon fill="none" points="1119.58,543.627,1102.4313,551.7463,1110.7326,560.4116,1119.58,543.627" style="stroke:#181818;stroke-width:1.0;"/></g><!--reverse link Monstre to Walker--><g id="link_Monstre_Walker"><path codeLine="87" d="M984,731.32 C984,754.947 984,767.255 984,790.85 " fill="none" id="Monstre-backto-Walker" style="stroke:#181818;stroke-width:1.0;"/><polygon fill="none" points="984,713.32,978,731.32,990,731.32,984,713.32" style="stroke:#181818;stroke-width:1.0;"/></g><!--link Terrain to ElementMonde--><g id="link_Terrain_ElementMonde"><path codeLine="89" d="M754.257,479 C765.986,479 759.715,479 771.444,479 " fill="none" id="Terrain-to-ElementMonde" style="stroke:#181818;stroke-width:1.0;"/><polygon fill="none" points="789.444,479,771.444,473,771.444,485,789.444,479" style="stroke:#181818;stroke-width:1.0;"/></g><!--reverse link Terrain to Mur--><g id="link_Terrain_Mur"><path codeLine="90" d="M440.4152,552.076 C395.2432,576.089 360.141,594.749 316.47,617.965 " fill="none" id="Terrain-backto-Mur" style="stroke:#181818;stroke-width:1.0;"/><polygon fill="none" points="456.309,543.627,437.5988,546.7781,443.2315,557.374,456.309,543.627" style="stroke:#181818;stroke-width:1.0;"/></g><!--reverse link Terrain to Sol--><g id="link_Terrain_Sol"><path codeLine="91" d="M576,561.627 C576,592.139 576,609.65 576,635.82 " fill="none" id="Terrain-backto-Sol" style="stroke:#181818;stroke-width:1.0;"/><polygon fill="none" points="576,543.627,570,561.627,582,561.627,576,543.627" style="stroke:#181818;stroke-width:1.0;"/></g><!--link Monde to Personnage--><g id="link_Monde_Personnage"><path codeLine="94" d="M1186,340.246 C1186,364.649 1186,391.122 1186,414.279 " fill="none" id="Monde-Personnage" style="stroke:#181818;stroke-width:1.0;"/><text fill="#000000" font-family="sans-serif" font-size="13" lengthAdjust="spacing" textLength="7" x="1178.6172" y="403.4275">*</text></g><!--link Monde to Terrain--><g id="link_Monde_Terrain"><path codeLine="95" d="M973.406,313.235 C907.964,331.781 836.257,354.329 772,379.5 C746.203,389.605 719.24,401.922 693.856,414.376 " fill="none" id="Monde-Terrain" style="stroke:#181818;stroke-width:1.0;"/><text fill="#000000" font-family="sans-serif" font-size="13" lengthAdjust="spacing" textLength="7" x="699.3637" y="403.5351">*</text></g><!--link Monde to GestionFichier--><g id="link_Monde_GestionFichier"><path codeLine="98" d="M1398.64,305.57 C1477.44,324.97 1566.85,349.989 1646,379.5 C1678.33,391.554 1712.37,407.218 1742.99,422.496 " fill="none" id="Monde-GestionFichier" style="stroke:#181818;stroke-width:1.0;"/><text fill="#000000" font-family="sans-serif" font-size="13" lengthAdjust="spacing" textLength="8" x="1721.4075" y="411.3589">1</text></g><!--SRC=[jLNDRjim3BxxAOZiugonWUu1TWdQxL2Z1LfWXs47nM5jeQfaI7BG8Ci3zJdwOfCbsPOJfyx-BZPCVIG_KkJdYkHFf42uKZcfS1T509KtPOAl4NR60a1MIakIQyWPKGgk63uZro42u0CyCa4ql1nyRxjloZMKfDPOou6D4LdqjZHT2cxIrNa3J5Dlld24udba3VinNWye9Q6yetGob0V6dl6YfRe8EIv2SlCkPFRsgaknHXN4Mmd1a710fHyasQ1KPCK2hlRbE6QrdEPdGF-VMz_6WDwzO8xTABUBvlotcPdwnsxhpb0Hd3UpTZX36wfHAPngKnyXRfA-kDpR0OKHSZxw-srRlxrMZEGeOvEPyWBqji9Cr1ix-lFZY_sAKgZfgxMmFwUx7srbPdFX6OFbW7-TtwNzHjWJoica3lQFSbeLs0tqWwzkQC7nmBOKx5n5EMTzSi4OLLJmUA1-UBaOoY5-cdU-6q7NK9Z5CsxBrby5gsShyvfg5HZUNJw7iVxxKAflQqrPEtikt1UNzPhc9SLUSKusema_zEdwCjwPnY4lYVp-0nYLw9sMH6fiDuQBPsyEApRCNHsfBpb9O7OvyyMbjelk6GKAaJ1yrCdFpuDcHsxdahfgJdfqrEx3yOcRnVR0uwAe_NCaaXRbSPv6jBsBHqP620zDNM513RQwZxEGmcdGP23Jfk4b_G80]--></g></svg>