<?xml version="1.0" encoding="us-ascii" standalone="no"?><svg xmlns="http://www.w3.org/2000/svg" xmlns:xlink="http://www.w3.org/1999/xlink" contentStyleType="text/css" height="1050px" preserveAspectRatio="none" style="width:1820px;height:1050px;background:#FFFFFF;" version="1.1" viewBox="0 0 1820 1050" width="1820px" zoomAndPan="magnify"><defs/><g><text fill="#000000" font-family="sans-serif" font-size="14" font-weight="bold" lengthAdjust="spacing" textLength="124" x="841.25" y="22.9951">Empty Diagram</text><!--cluster Escape--><g id="cluster_Escape"><path d="M8.5,43.2969 L65.5,43.2969 A3.75,3.75 0 0 1 68,45.7969 L75,65.5938 L1679.5,65.5938 A2.5,2.5 0 0 1 1682,68.0938 L1682,1040.7969 A2.5,2.5 0 0 1 1679.5,1043.2969 L8.5,1043.2969 A2.5,2.5 0 0 1 6,1040.7969 L6,45.7969 A2.5,2.5 0 0 1 8.5,43.2969 " fill="none" style="stroke:#000000;stroke-width:1.5;"/><line style="stroke:#000000;stroke-width:1.5;" x1="6" x2="75" y1="65.5938" y2="65.5938"/><text fill="#000000" font-family="sans-serif" font-size="14" font-weight="bold" lengthAdjust="spacing" textLength="56" x="10" y="58.292">Escape</text></g><!--cluster Monde--><g id="cluster_Monde"><path d="M32.5,196.2969 L86.5,196.2969 A3.75,3.75 0 0 1 89,198.7969 L96,218.5938 L1281.5,218.5938 A2.5,2.5 0 0 1 1284,221.0938 L1284,1016.7969 A2.5,2.5 0 0 1 1281.5,1019.2969 L32.5,1019.2969 A2.5,2.5 0 0 1 30,1016.7969 L30,198.7969 A2.5,2.5 0 0 1 32.5,196.2969 " fill="none" style="stroke:#000000;stroke-width:1.5;"/><line style="stroke:#000000;stroke-width:1.5;" x1="30" x2="96" y1="218.5938" y2="218.5938"/><text fill="#000000" font-family="sans-serif" font-size="14" font-weight="bold" lengthAdjust="spacing" textLength="53" x="34" y="211.292">Monde</text></g><!--cluster Outils--><g id="cluster_Outils"><path d="M1310.5,522.7969 L1360.5,522.7969 A3.75,3.75 0 0 1 1363,525.2969 L1370,545.0938 L1655.5,545.0938 A2.5,2.5 0 0 1 1658,547.5938 L1658,684.2969 A2.5,2.5 0 0 1 1655.5,686.7969 L1310.5,686.7969 A2.5,2.5 0 0 1 1308,684.2969 L1308,525.2969 A2.5,2.5 0 0 1 1310.5,522.7969 " fill="none" style="stroke:#000000;stroke-width:1.5;"/><line style="stroke:#000000;stroke-width:1.5;" x1="1308" x2="1370" y1="545.0938" y2="545.0938"/><text fill="#000000" font-family="sans-serif" font-size="14" font-weight="bold" lengthAdjust="spacing" textLength="49" x="1312" y="537.792">Outils</text></g><!--class Escape--><g id="elem_Escape"><rect codeLine="80" fill="#F1F1F1" height="92.8906" id="Escape" rx="2.5" ry="2.5" style="stroke:#181818;stroke-width:0.5;" width="193" x="1114.5" y="78.2969"/><ellipse cx="1181.25" cy="94.2969" fill="#ADD1B2" rx="11" ry="11" style="stroke:#181818;stroke-width:1.0;"/><path d="M1183.5938,89.9688 C1182.6563,89.5313 1182.0625,89.3906 1181.1875,89.3906 C1178.5625,89.3906 1176.5625,91.4688 1176.5625,94.1875 L1176.5625,95.3125 C1176.5625,97.8906 1178.6719,99.7813 1181.5625,99.7813 C1182.7813,99.7813 1183.9375,99.4844 1184.6875,98.9375 C1185.2656,98.5313 1185.5938,98.0781 1185.5938,97.6875 C1185.5938,97.2344 1185.2031,96.8438 1184.7344,96.8438 C1184.5156,96.8438 1184.3125,96.9219 1184.125,97.1094 C1183.6719,97.5938 1183.6719,97.5938 1183.4844,97.6875 C1183.0625,97.9531 1182.375,98.0781 1181.6094,98.0781 C1179.5625,98.0781 1178.2656,96.9844 1178.2656,95.2813 L1178.2656,94.1875 C1178.2656,92.4063 1179.5156,91.0938 1181.25,91.0938 C1181.8281,91.0938 1182.4375,91.25 1182.9063,91.5 C1183.3906,91.7813 1183.5625,92 1183.6563,92.4063 C1183.7188,92.8125 1183.75,92.9375 1183.8906,93.0625 C1184.0313,93.2031 1184.2656,93.3125 1184.4844,93.3125 C1184.75,93.3125 1185.0156,93.1719 1185.1875,92.9531 C1185.2969,92.7969 1185.3281,92.6094 1185.3281,92.1875 L1185.3281,90.7656 C1185.3281,90.3281 1185.3125,90.2031 1185.2188,90.0469 C1185.0625,89.7813 1184.7813,89.6406 1184.4844,89.6406 C1184.1875,89.6406 1183.9844,89.7344 1183.7656,90.0469 L1183.5938,89.9688 Z " fill="#000000"/><text fill="#000000" font-family="sans-serif" font-size="14" lengthAdjust="spacing" textLength="51" x="1201.75" y="99.1436">Escape</text><line style="stroke:#181818;stroke-width:0.5;" x1="1115.5" x2="1306.5" y1="110.2969" y2="110.2969"/><ellipse cx="1125.5" cy="144.2422" fill="#84BE84" rx="3" ry="3" style="stroke:#038048;stroke-width:1.0;"/><text fill="#000000" font-family="sans-serif" font-size="14" lengthAdjust="spacing" text-decoration="underline" textLength="167" x="1134.5" y="147.5889">void main(String[] args)</text><ellipse cx="1125.5" cy="160.5391" fill="#84BE84" rx="3" ry="3" style="stroke:#038048;stroke-width:1.0;"/><text fill="#000000" font-family="sans-serif" font-size="14" lengthAdjust="spacing" textLength="165" x="1134.5" y="163.8857">void start(Stage stage)</text><line style="stroke:#181818;stroke-width:1.0;stroke-dasharray:1.0,2.0;" x1="1115.5" x2="1194.5" y1="126.4453" y2="126.4453"/><text fill="#000000" font-family="sans-serif" font-size="14" lengthAdjust="spacing" textLength="33" x="1194.5" y="130.792">Main</text><line style="stroke:#181818;stroke-width:1.0;stroke-dasharray:1.0,2.0;" x1="1227.5" x2="1306.5" y1="126.4453" y2="126.4453"/></g><!--class ElementMonde--><g id="elem_ElementMonde"><rect codeLine="6" fill="#F1F1F1" height="158.0781" id="ElementMonde" rx="2.5" ry="2.5" style="stroke:#181818;stroke-width:0.5;" width="139" x="457.5" y="535.2969"/><ellipse cx="472.5" cy="551.2969" fill="#A9DCDF" rx="11" ry="11" style="stroke:#181818;stroke-width:1.0;"/><path d="M474.5781,553.1094 L474.9688,554.0938 L474.5781,554.0938 C474.125,554.0938 474.0156,554.1094 473.8594,554.2188 C473.6094,554.375 473.4531,554.6563 473.4531,554.9531 C473.4531,555.2188 473.5938,555.4688 473.8125,555.625 C473.9531,555.75 474.1563,555.7969 474.5781,555.7969 L476.9375,555.7969 C477.2969,555.7969 477.5156,555.7656 477.6563,555.6719 C477.9063,555.5313 478.0625,555.2344 478.0625,554.9531 C478.0625,554.6719 477.9219,554.4219 477.7031,554.2656 C477.5313,554.125 477.375,554.0938 476.9063,554.0938 L473.5156,545.8906 L469.8438,545.8906 C469.3906,545.8906 469.2656,545.9063 469.1094,546 C468.8594,546.1719 468.7031,546.4531 468.7031,546.7344 C468.7031,547.0156 468.8438,547.2656 469.0625,547.4375 C469.2344,547.5469 469.4063,547.5781 469.8438,547.5781 L470.9219,547.5781 L468.2813,554.0938 C467.8594,554.0938 467.7031,554.1094 467.5469,554.2188 C467.2969,554.375 467.1406,554.6563 467.1406,554.9531 C467.1406,555.5156 467.5156,555.7969 468.2656,555.7969 L470.5313,555.7969 C470.8906,555.7969 471.1094,555.7656 471.2344,555.6719 C471.5,555.5313 471.6406,555.2344 471.6406,554.9531 C471.6406,554.6719 471.5156,554.4219 471.2969,554.25 C471.125,554.125 470.9844,554.0938 470.5313,554.0938 L470.1406,554.0938 L470.5313,553.1094 L474.5781,553.1094 Z M473.875,551.4063 L471.2031,551.4063 L472.5469,548.1406 L473.875,551.4063 Z " fill="#000000"/><text fill="#000000" font-family="sans-serif" font-size="14" font-style="italic" lengthAdjust="spacing" textLength="107" x="486.5" y="556.1436">ElementMonde</text><line style="stroke:#181818;stroke-width:0.5;" x1="458.5" x2="595.5" y1="567.2969" y2="567.2969"/><polygon fill="none" points="468.5,575.9453,472.5,579.9453,468.5,583.9453,464.5,579.9453" style="stroke:#B38D22;stroke-width:1.0;"/><text fill="#000000" font-family="sans-serif" font-size="14" lengthAdjust="spacing" textLength="46" x="477.5" y="584.292">float x</text><polygon fill="none" points="468.5,592.2422,472.5,596.2422,468.5,600.2422,464.5,596.2422" style="stroke:#B38D22;stroke-width:1.0;"/><text fill="#000000" font-family="sans-serif" font-size="14" lengthAdjust="spacing" textLength="46" x="477.5" y="600.5889">float y</text><polygon fill="none" points="468.5,608.5391,472.5,612.5391,468.5,616.5391,464.5,612.5391" style="stroke:#B38D22;stroke-width:1.0;"/><text fill="#000000" font-family="sans-serif" font-size="14" lengthAdjust="spacing" textLength="79" x="477.5" y="616.8857">int hauteur</text><polygon fill="none" points="468.5,624.8359,472.5,628.8359,468.5,632.8359,464.5,628.8359" style="stroke:#B38D22;stroke-width:1.0;"/><text fill="#000000" font-family="sans-serif" font-size="14" lengthAdjust="spacing" textLength="74" x="477.5" y="633.1826">int largeur</text><ellipse cx="468.5" cy="666.4297" fill="#84BE84" rx="3" ry="3" style="stroke:#038048;stroke-width:1.0;"/><text fill="#000000" font-family="sans-serif" font-size="14" lengthAdjust="spacing" textLength="58" x="477.5" y="669.7764">Monde()</text><text fill="#000000" font-family="sans-serif" font-size="14" lengthAdjust="spacing" textLength="4" x="477.5" y="686.0732">&#160;</text><line style="stroke:#181818;stroke-width:1.0;stroke-dasharray:1.0,2.0;" x1="458.5" x2="480" y1="648.6328" y2="648.6328"/><text fill="#000000" font-family="sans-serif" font-size="14" lengthAdjust="spacing" textLength="94" x="480" y="652.9795">Constructeur</text><line style="stroke:#181818;stroke-width:1.0;stroke-dasharray:1.0,2.0;" x1="574" x2="595.5" y1="648.6328" y2="648.6328"/></g><!--class Terrain--><g id="elem_Terrain"><rect codeLine="15" fill="#F1F1F1" height="129.4844" id="Terrain" rx="2.5" ry="2.5" style="stroke:#181818;stroke-width:0.5;" width="356" x="66" y="549.7969"/><ellipse cx="213.75" cy="565.7969" fill="#A9DCDF" rx="11" ry="11" style="stroke:#181818;stroke-width:1.0;"/><path d="M215.8281,567.6094 L216.2188,568.5938 L215.8281,568.5938 C215.375,568.5938 215.2656,568.6094 215.1094,568.7188 C214.8594,568.875 214.7031,569.1563 214.7031,569.4531 C214.7031,569.7188 214.8438,569.9688 215.0625,570.125 C215.2031,570.25 215.4063,570.2969 215.8281,570.2969 L218.1875,570.2969 C218.5469,570.2969 218.7656,570.2656 218.9063,570.1719 C219.1563,570.0313 219.3125,569.7344 219.3125,569.4531 C219.3125,569.1719 219.1719,568.9219 218.9531,568.7656 C218.7813,568.625 218.625,568.5938 218.1563,568.5938 L214.7656,560.3906 L211.0938,560.3906 C210.6406,560.3906 210.5156,560.4063 210.3594,560.5 C210.1094,560.6719 209.9531,560.9531 209.9531,561.2344 C209.9531,561.5156 210.0938,561.7656 210.3125,561.9375 C210.4844,562.0469 210.6563,562.0781 211.0938,562.0781 L212.1719,562.0781 L209.5313,568.5938 C209.1094,568.5938 208.9531,568.6094 208.7969,568.7188 C208.5469,568.875 208.3906,569.1563 208.3906,569.4531 C208.3906,570.0156 208.7656,570.2969 209.5156,570.2969 L211.7813,570.2969 C212.1406,570.2969 212.3594,570.2656 212.4844,570.1719 C212.75,570.0313 212.8906,569.7344 212.8906,569.4531 C212.8906,569.1719 212.7656,568.9219 212.5469,568.75 C212.375,568.625 212.2344,568.5938 211.7813,568.5938 L211.3906,568.5938 L211.7813,567.6094 L215.8281,567.6094 Z M215.125,565.9063 L212.4531,565.9063 L213.7969,562.6406 L215.125,565.9063 Z " fill="#000000"/><text fill="#000000" font-family="sans-serif" font-size="14" font-style="italic" lengthAdjust="spacing" textLength="52" x="234.25" y="570.6436">Terrain</text><line style="stroke:#181818;stroke-width:0.5;" x1="67" x2="421" y1="581.7969" y2="581.7969"/><ellipse cx="77" cy="615.7422" fill="#84BE84" rx="3" ry="3" style="stroke:#038048;stroke-width:1.0;"/><text fill="#000000" font-family="sans-serif" font-size="14" lengthAdjust="spacing" textLength="330" x="86" y="619.0889">Terrain(float x, float y, int hauteur, int largeur)</text><line style="stroke:#181818;stroke-width:1.0;stroke-dasharray:1.0,2.0;" x1="67" x2="197" y1="597.9453" y2="597.9453"/><text fill="#000000" font-family="sans-serif" font-size="14" lengthAdjust="spacing" textLength="94" x="197" y="602.292">Constructeur</text><line style="stroke:#181818;stroke-width:1.0;stroke-dasharray:1.0,2.0;" x1="291" x2="421" y1="597.9453" y2="597.9453"/><ellipse cx="77" cy="652.3359" fill="#84BE84" rx="3" ry="3" style="stroke:#038048;stroke-width:1.0;"/><text fill="#000000" font-family="sans-serif" font-size="14" lengthAdjust="spacing" textLength="179" x="86" y="655.6826">boolean estTraversable()</text><text fill="#000000" font-family="sans-serif" font-size="14" lengthAdjust="spacing" textLength="4" x="86" y="671.9795">&#160;</text><line style="stroke:#181818;stroke-width:1.0;stroke-dasharray:1.0,2.0;" x1="67" x2="208.5" y1="634.5391" y2="634.5391"/><text fill="#000000" font-family="sans-serif" font-size="14" lengthAdjust="spacing" textLength="71" x="208.5" y="638.8857">M&#233;thodes</text><line style="stroke:#181818;stroke-width:1.0;stroke-dasharray:1.0,2.0;" x1="279.5" x2="421" y1="634.5391" y2="634.5391"/></g><!--class Mur--><g id="elem_Mur"><rect codeLine="23" fill="#F1F1F1" height="113.1875" id="Mur" rx="2.5" ry="2.5" style="stroke:#181818;stroke-width:0.5;" width="331" x="46.5" y="753.2969"/><ellipse cx="194.75" cy="769.2969" fill="#ADD1B2" rx="11" ry="11" style="stroke:#181818;stroke-width:1.0;"/><path d="M197.0938,764.9688 C196.1563,764.5313 195.5625,764.3906 194.6875,764.3906 C192.0625,764.3906 190.0625,766.4688 190.0625,769.1875 L190.0625,770.3125 C190.0625,772.8906 192.1719,774.7813 195.0625,774.7813 C196.2813,774.7813 197.4375,774.4844 198.1875,773.9375 C198.7656,773.5313 199.0938,773.0781 199.0938,772.6875 C199.0938,772.2344 198.7031,771.8438 198.2344,771.8438 C198.0156,771.8438 197.8125,771.9219 197.625,772.1094 C197.1719,772.5938 197.1719,772.5938 196.9844,772.6875 C196.5625,772.9531 195.875,773.0781 195.1094,773.0781 C193.0625,773.0781 191.7656,771.9844 191.7656,770.2813 L191.7656,769.1875 C191.7656,767.4063 193.0156,766.0938 194.75,766.0938 C195.3281,766.0938 195.9375,766.25 196.4063,766.5 C196.8906,766.7813 197.0625,767 197.1563,767.4063 C197.2188,767.8125 197.25,767.9375 197.3906,768.0625 C197.5313,768.2031 197.7656,768.3125 197.9844,768.3125 C198.25,768.3125 198.5156,768.1719 198.6875,767.9531 C198.7969,767.7969 198.8281,767.6094 198.8281,767.1875 L198.8281,765.7656 C198.8281,765.3281 198.8125,765.2031 198.7188,765.0469 C198.5625,764.7813 198.2813,764.6406 197.9844,764.6406 C197.6875,764.6406 197.4844,764.7344 197.2656,765.0469 L197.0938,764.9688 Z " fill="#000000"/><text fill="#000000" font-family="sans-serif" font-size="14" lengthAdjust="spacing" textLength="26" x="215.25" y="774.1436">Mur</text><line style="stroke:#181818;stroke-width:0.5;" x1="47.5" x2="376.5" y1="785.2969" y2="785.2969"/><ellipse cx="57.5" cy="819.2422" fill="#84BE84" rx="3" ry="3" style="stroke:#038048;stroke-width:1.0;"/><text fill="#000000" font-family="sans-serif" font-size="14" lengthAdjust="spacing" textLength="305" x="66.5" y="822.5889">Mur(float x, float y, int hauteur, int largeur)</text><line style="stroke:#181818;stroke-width:1.0;stroke-dasharray:1.0,2.0;" x1="47.5" x2="165" y1="801.4453" y2="801.4453"/><text fill="#000000" font-family="sans-serif" font-size="14" lengthAdjust="spacing" textLength="94" x="165" y="805.792">Constructeur</text><line style="stroke:#181818;stroke-width:1.0;stroke-dasharray:1.0,2.0;" x1="259" x2="376.5" y1="801.4453" y2="801.4453"/><ellipse cx="57.5" cy="855.8359" fill="#84BE84" rx="3" ry="3" style="stroke:#038048;stroke-width:1.0;"/><text fill="#000000" font-family="sans-serif" font-size="14" lengthAdjust="spacing" textLength="179" x="66.5" y="859.1826">boolean estTraversable()</text><line style="stroke:#181818;stroke-width:1.0;stroke-dasharray:1.0,2.0;" x1="47.5" x2="176.5" y1="838.0391" y2="838.0391"/><text fill="#000000" font-family="sans-serif" font-size="14" lengthAdjust="spacing" textLength="71" x="176.5" y="842.3857">M&#233;thodes</text><line style="stroke:#181818;stroke-width:1.0;stroke-dasharray:1.0,2.0;" x1="247.5" x2="376.5" y1="838.0391" y2="838.0391"/></g><!--class Personnage--><g id="elem_Personnage"><rect codeLine="31" fill="#F1F1F1" height="145.7813" id="Personnage" rx="2.5" ry="2.5" style="stroke:#181818;stroke-width:0.5;" width="444" x="632" y="541.2969"/><ellipse cx="807.75" cy="557.2969" fill="#A9DCDF" rx="11" ry="11" style="stroke:#181818;stroke-width:1.0;"/><path d="M809.8281,559.1094 L810.2188,560.0938 L809.8281,560.0938 C809.375,560.0938 809.2656,560.1094 809.1094,560.2188 C808.8594,560.375 808.7031,560.6563 808.7031,560.9531 C808.7031,561.2188 808.8438,561.4688 809.0625,561.625 C809.2031,561.75 809.4063,561.7969 809.8281,561.7969 L812.1875,561.7969 C812.5469,561.7969 812.7656,561.7656 812.9063,561.6719 C813.1563,561.5313 813.3125,561.2344 813.3125,560.9531 C813.3125,560.6719 813.1719,560.4219 812.9531,560.2656 C812.7813,560.125 812.625,560.0938 812.1563,560.0938 L808.7656,551.8906 L805.0938,551.8906 C804.6406,551.8906 804.5156,551.9063 804.3594,552 C804.1094,552.1719 803.9531,552.4531 803.9531,552.7344 C803.9531,553.0156 804.0938,553.2656 804.3125,553.4375 C804.4844,553.5469 804.6563,553.5781 805.0938,553.5781 L806.1719,553.5781 L803.5313,560.0938 C803.1094,560.0938 802.9531,560.1094 802.7969,560.2188 C802.5469,560.375 802.3906,560.6563 802.3906,560.9531 C802.3906,561.5156 802.7656,561.7969 803.5156,561.7969 L805.7813,561.7969 C806.1406,561.7969 806.3594,561.7656 806.4844,561.6719 C806.75,561.5313 806.8906,561.2344 806.8906,560.9531 C806.8906,560.6719 806.7656,560.4219 806.5469,560.25 C806.375,560.125 806.2344,560.0938 805.7813,560.0938 L805.3906,560.0938 L805.7813,559.1094 L809.8281,559.1094 Z M809.125,557.4063 L806.4531,557.4063 L807.7969,554.1406 L809.125,557.4063 Z " fill="#000000"/><text fill="#000000" font-family="sans-serif" font-size="14" font-style="italic" lengthAdjust="spacing" textLength="84" x="828.25" y="562.1436">Personnage</text><line style="stroke:#181818;stroke-width:0.5;" x1="633" x2="1075" y1="573.2969" y2="573.2969"/><polygon fill="none" points="643,581.9453,647,585.9453,643,589.9453,639,585.9453" style="stroke:#B38D22;stroke-width:1.0;"/><text fill="#000000" font-family="sans-serif" font-size="14" lengthAdjust="spacing" textLength="89" x="652" y="590.292">float vitesse</text><ellipse cx="643" cy="623.5391" fill="#84BE84" rx="3" ry="3" style="stroke:#038048;stroke-width:1.0;"/><text fill="#000000" font-family="sans-serif" font-size="14" lengthAdjust="spacing" textLength="418" x="652" y="626.8857">Personnage(int x, int y, int largeur, int hauteur, int vitesse)</text><line style="stroke:#181818;stroke-width:1.0;stroke-dasharray:1.0,2.0;" x1="633" x2="807" y1="605.7422" y2="605.7422"/><text fill="#000000" font-family="sans-serif" font-size="14" lengthAdjust="spacing" textLength="94" x="807" y="610.0889">Constructeur</text><line style="stroke:#181818;stroke-width:1.0;stroke-dasharray:1.0,2.0;" x1="901" x2="1075" y1="605.7422" y2="605.7422"/><ellipse cx="643" cy="660.1328" fill="#84BE84" rx="3" ry="3" style="stroke:#038048;stroke-width:1.0;"/><text fill="#000000" font-family="sans-serif" font-size="14" lengthAdjust="spacing" textLength="351" x="652" y="663.4795">void d&#233;placer(TypeMouvement typeMouvement)</text><ellipse cx="643" cy="676.4297" fill="#84BE84" rx="3" ry="3" style="stroke:#038048;stroke-width:1.0;"/><text fill="#000000" font-family="sans-serif" font-size="14" lengthAdjust="spacing" textLength="154" x="652" y="679.7764">boolean estUnHeros()</text><line style="stroke:#181818;stroke-width:1.0;stroke-dasharray:1.0,2.0;" x1="633" x2="818.5" y1="642.3359" y2="642.3359"/><text fill="#000000" font-family="sans-serif" font-size="14" lengthAdjust="spacing" textLength="71" x="818.5" y="646.6826">M&#233;thodes</text><line style="stroke:#181818;stroke-width:1.0;stroke-dasharray:1.0,2.0;" x1="889.5" x2="1075" y1="642.3359" y2="642.3359"/></g><!--class TypeMouvement--><g id="elem_TypeMouvement"><rect codeLine="40" fill="#F1F1F1" height="113.1875" id="TypeMouvement" rx="2.5" ry="2.5" style="stroke:#181818;stroke-width:0.5;" width="153" x="1114.5" y="296.7969"/><ellipse cx="1129.5" cy="312.7969" fill="#EB937F" rx="11" ry="11" style="stroke:#181818;stroke-width:1.0;"/><path d="M1128.2969,313.6719 L1129.75,313.6719 L1129.75,313.7813 C1129.75,314.1875 1129.7813,314.3438 1129.8594,314.5 C1130.0156,314.75 1130.2969,314.9063 1130.5938,314.9063 C1130.8438,314.9063 1131.1094,314.7656 1131.2656,314.5469 C1131.3906,314.3906 1131.4219,314.2344 1131.4219,313.7813 L1131.4219,311.8594 C1131.4219,311.7031 1131.4219,311.6563 1131.4063,311.5 C1131.3438,311.0313 1131.0313,310.7188 1130.5781,310.7188 C1130.3281,310.7188 1130.0625,310.8594 1129.8906,311.0781 C1129.7813,311.25 1129.75,311.4063 1129.75,311.8594 L1129.75,311.9844 L1128.2969,311.9844 L1128.2969,309.5781 L1132.2813,309.5781 L1132.2813,310.4375 C1132.2813,310.8438 1132.3125,311.0156 1132.3906,311.1719 C1132.5625,311.4219 1132.8438,311.5781 1133.125,311.5781 C1133.3906,311.5781 1133.6563,311.4375 1133.8281,311.2188 C1133.9375,311.0469 1133.9688,310.9063 1133.9688,310.4375 L1133.9688,307.8906 L1126.3438,307.8906 C1125.9063,307.8906 1125.7813,307.9063 1125.625,308 C1125.375,308.1563 1125.2188,308.4531 1125.2188,308.7344 C1125.2188,309.0156 1125.3594,309.2656 1125.5781,309.4375 C1125.7344,309.5469 1125.9219,309.5781 1126.3438,309.5781 L1126.5938,309.5781 L1126.5938,316.0938 L1126.3438,316.0938 C1125.9375,316.0938 1125.7813,316.1094 1125.625,316.2188 C1125.375,316.3906 1125.2188,316.6563 1125.2188,316.9531 C1125.2188,317.2188 1125.3594,317.4688 1125.5781,317.625 C1125.7188,317.75 1125.9531,317.7969 1126.3438,317.7969 L1134.3438,317.7969 L1134.3438,315.2188 C1134.3438,314.7813 1134.3125,314.6406 1134.2344,314.4844 C1134.0625,314.2344 1133.7813,314.0781 1133.5,314.0781 C1133.2344,314.0781 1132.9688,314.1875 1132.7969,314.4375 C1132.6875,314.5938 1132.6563,314.7344 1132.6563,315.2188 L1132.6563,316.0938 L1128.2969,316.0938 L1128.2969,313.6719 Z " fill="#000000"/><text fill="#000000" font-family="sans-serif" font-size="14" lengthAdjust="spacing" textLength="121" x="1143.5" y="317.6436">TypeMouvement</text><line style="stroke:#181818;stroke-width:0.5;" x1="1115.5" x2="1266.5" y1="328.7969" y2="328.7969"/><text fill="#000000" font-family="sans-serif" font-size="14" lengthAdjust="spacing" textLength="44" x="1120.5" y="345.792">RIGHT</text><text fill="#000000" font-family="sans-serif" font-size="14" lengthAdjust="spacing" textLength="34" x="1120.5" y="362.0889">LEFT</text><text fill="#000000" font-family="sans-serif" font-size="14" lengthAdjust="spacing" textLength="29" x="1120.5" y="378.3857">TOP</text><text fill="#000000" font-family="sans-serif" font-size="14" lengthAdjust="spacing" textLength="46" x="1120.5" y="394.6826">DOWN</text><line style="stroke:#181818;stroke-width:0.5;" x1="1115.5" x2="1266.5" y1="401.9844" y2="401.9844"/></g><!--class Heros--><g id="elem_Heros"><rect codeLine="47" fill="#F1F1F1" height="113.1875" id="Heros" rx="2.5" ry="2.5" style="stroke:#181818;stroke-width:0.5;" width="401" x="412.5" y="753.2969"/><ellipse cx="588.25" cy="769.2969" fill="#ADD1B2" rx="11" ry="11" style="stroke:#181818;stroke-width:1.0;"/><path d="M590.5938,764.9688 C589.6563,764.5313 589.0625,764.3906 588.1875,764.3906 C585.5625,764.3906 583.5625,766.4688 583.5625,769.1875 L583.5625,770.3125 C583.5625,772.8906 585.6719,774.7813 588.5625,774.7813 C589.7813,774.7813 590.9375,774.4844 591.6875,773.9375 C592.2656,773.5313 592.5938,773.0781 592.5938,772.6875 C592.5938,772.2344 592.2031,771.8438 591.7344,771.8438 C591.5156,771.8438 591.3125,771.9219 591.125,772.1094 C590.6719,772.5938 590.6719,772.5938 590.4844,772.6875 C590.0625,772.9531 589.375,773.0781 588.6094,773.0781 C586.5625,773.0781 585.2656,771.9844 585.2656,770.2813 L585.2656,769.1875 C585.2656,767.4063 586.5156,766.0938 588.25,766.0938 C588.8281,766.0938 589.4375,766.25 589.9063,766.5 C590.3906,766.7813 590.5625,767 590.6563,767.4063 C590.7188,767.8125 590.75,767.9375 590.8906,768.0625 C591.0313,768.2031 591.2656,768.3125 591.4844,768.3125 C591.75,768.3125 592.0156,768.1719 592.1875,767.9531 C592.2969,767.7969 592.3281,767.6094 592.3281,767.1875 L592.3281,765.7656 C592.3281,765.3281 592.3125,765.2031 592.2188,765.0469 C592.0625,764.7813 591.7813,764.6406 591.4844,764.6406 C591.1875,764.6406 590.9844,764.7344 590.7656,765.0469 L590.5938,764.9688 Z " fill="#000000"/><text fill="#000000" font-family="sans-serif" font-size="14" lengthAdjust="spacing" textLength="41" x="608.75" y="774.1436">Heros</text><line style="stroke:#181818;stroke-width:0.5;" x1="413.5" x2="812.5" y1="785.2969" y2="785.2969"/><ellipse cx="423.5" cy="819.2422" fill="#84BE84" rx="3" ry="3" style="stroke:#038048;stroke-width:1.0;"/><text fill="#000000" font-family="sans-serif" font-size="14" lengthAdjust="spacing" textLength="375" x="432.5" y="822.5889">Heros(int x, int y, int largeur, int hauteur, int vitesse)</text><line style="stroke:#181818;stroke-width:1.0;stroke-dasharray:1.0,2.0;" x1="413.5" x2="566" y1="801.4453" y2="801.4453"/><text fill="#000000" font-family="sans-serif" font-size="14" lengthAdjust="spacing" textLength="94" x="566" y="805.792">Constructeur</text><line style="stroke:#181818;stroke-width:1.0;stroke-dasharray:1.0,2.0;" x1="660" x2="812.5" y1="801.4453" y2="801.4453"/><ellipse cx="423.5" cy="855.8359" fill="#84BE84" rx="3" ry="3" style="stroke:#038048;stroke-width:1.0;"/><text fill="#000000" font-family="sans-serif" font-size="14" lengthAdjust="spacing" textLength="154" x="432.5" y="859.1826">boolean estUnHeros()</text><line style="stroke:#181818;stroke-width:1.0;stroke-dasharray:1.0,2.0;" x1="413.5" x2="577.5" y1="838.0391" y2="838.0391"/><text fill="#000000" font-family="sans-serif" font-size="14" lengthAdjust="spacing" textLength="71" x="577.5" y="842.3857">M&#233;thodes</text><line style="stroke:#181818;stroke-width:1.0;stroke-dasharray:1.0,2.0;" x1="648.5" x2="812.5" y1="838.0391" y2="838.0391"/></g><!--class Monstre--><g id="elem_Monstre"><rect codeLine="54" fill="#F1F1F1" height="76.5938" id="Monstre" rx="2.5" ry="2.5" style="stroke:#181818;stroke-width:0.5;" width="419" x="848.5" y="771.2969"/><ellipse cx="1025.25" cy="787.2969" fill="#A9DCDF" rx="11" ry="11" style="stroke:#181818;stroke-width:1.0;"/><path d="M1027.3281,789.1094 L1027.7188,790.0938 L1027.3281,790.0938 C1026.875,790.0938 1026.7656,790.1094 1026.6094,790.2188 C1026.3594,790.375 1026.2031,790.6563 1026.2031,790.9531 C1026.2031,791.2188 1026.3438,791.4688 1026.5625,791.625 C1026.7031,791.75 1026.9063,791.7969 1027.3281,791.7969 L1029.6875,791.7969 C1030.0469,791.7969 1030.2656,791.7656 1030.4063,791.6719 C1030.6563,791.5313 1030.8125,791.2344 1030.8125,790.9531 C1030.8125,790.6719 1030.6719,790.4219 1030.4531,790.2656 C1030.2813,790.125 1030.125,790.0938 1029.6563,790.0938 L1026.2656,781.8906 L1022.5938,781.8906 C1022.1406,781.8906 1022.0156,781.9063 1021.8594,782 C1021.6094,782.1719 1021.4531,782.4531 1021.4531,782.7344 C1021.4531,783.0156 1021.5938,783.2656 1021.8125,783.4375 C1021.9844,783.5469 1022.1563,783.5781 1022.5938,783.5781 L1023.6719,783.5781 L1021.0313,790.0938 C1020.6094,790.0938 1020.4531,790.1094 1020.2969,790.2188 C1020.0469,790.375 1019.8906,790.6563 1019.8906,790.9531 C1019.8906,791.5156 1020.2656,791.7969 1021.0156,791.7969 L1023.2813,791.7969 C1023.6406,791.7969 1023.8594,791.7656 1023.9844,791.6719 C1024.25,791.5313 1024.3906,791.2344 1024.3906,790.9531 C1024.3906,790.6719 1024.2656,790.4219 1024.0469,790.25 C1023.875,790.125 1023.7344,790.0938 1023.2813,790.0938 L1022.8906,790.0938 L1023.2813,789.1094 L1027.3281,789.1094 Z M1026.625,787.4063 L1023.9531,787.4063 L1025.2969,784.1406 L1026.625,787.4063 Z " fill="#000000"/><text fill="#000000" font-family="sans-serif" font-size="14" font-style="italic" lengthAdjust="spacing" textLength="57" x="1045.75" y="792.1436">Monstre</text><line style="stroke:#181818;stroke-width:0.5;" x1="849.5" x2="1266.5" y1="803.2969" y2="803.2969"/><ellipse cx="859.5" cy="837.2422" fill="#84BE84" rx="3" ry="3" style="stroke:#038048;stroke-width:1.0;"/><text fill="#000000" font-family="sans-serif" font-size="14" lengthAdjust="spacing" textLength="393" x="868.5" y="840.5889">Monstre(int x, int y, int largeur, int hauteur, int vitesse)</text><line style="stroke:#181818;stroke-width:1.0;stroke-dasharray:1.0,2.0;" x1="849.5" x2="1011" y1="819.4453" y2="819.4453"/><text fill="#000000" font-family="sans-serif" font-size="14" lengthAdjust="spacing" textLength="94" x="1011" y="823.792">Constructeur</text><line style="stroke:#181818;stroke-width:1.0;stroke-dasharray:1.0,2.0;" x1="1105" x2="1266.5" y1="819.4453" y2="819.4453"/></g><!--class Walker--><g id="elem_Walker"><rect codeLine="59" fill="#F1F1F1" height="76.5938" id="Walker" rx="2.5" ry="2.5" style="stroke:#181818;stroke-width:0.5;" width="410" x="853" y="926.2969"/><ellipse cx="1028.75" cy="942.2969" fill="#ADD1B2" rx="11" ry="11" style="stroke:#181818;stroke-width:1.0;"/><path d="M1031.0938,937.9688 C1030.1563,937.5313 1029.5625,937.3906 1028.6875,937.3906 C1026.0625,937.3906 1024.0625,939.4688 1024.0625,942.1875 L1024.0625,943.3125 C1024.0625,945.8906 1026.1719,947.7813 1029.0625,947.7813 C1030.2813,947.7813 1031.4375,947.4844 1032.1875,946.9375 C1032.7656,946.5313 1033.0938,946.0781 1033.0938,945.6875 C1033.0938,945.2344 1032.7031,944.8438 1032.2344,944.8438 C1032.0156,944.8438 1031.8125,944.9219 1031.625,945.1094 C1031.1719,945.5938 1031.1719,945.5938 1030.9844,945.6875 C1030.5625,945.9531 1029.875,946.0781 1029.1094,946.0781 C1027.0625,946.0781 1025.7656,944.9844 1025.7656,943.2813 L1025.7656,942.1875 C1025.7656,940.4063 1027.0156,939.0938 1028.75,939.0938 C1029.3281,939.0938 1029.9375,939.25 1030.4063,939.5 C1030.8906,939.7813 1031.0625,940 1031.1563,940.4063 C1031.2188,940.8125 1031.25,940.9375 1031.3906,941.0625 C1031.5313,941.2031 1031.7656,941.3125 1031.9844,941.3125 C1032.25,941.3125 1032.5156,941.1719 1032.6875,940.9531 C1032.7969,940.7969 1032.8281,940.6094 1032.8281,940.1875 L1032.8281,938.7656 C1032.8281,938.3281 1032.8125,938.2031 1032.7188,938.0469 C1032.5625,937.7813 1032.2813,937.6406 1031.9844,937.6406 C1031.6875,937.6406 1031.4844,937.7344 1031.2656,938.0469 L1031.0938,937.9688 Z " fill="#000000"/><text fill="#000000" font-family="sans-serif" font-size="14" lengthAdjust="spacing" textLength="50" x="1049.25" y="947.1436">Walker</text><line style="stroke:#181818;stroke-width:0.5;" x1="854" x2="1262" y1="958.2969" y2="958.2969"/><ellipse cx="864" cy="992.2422" fill="#84BE84" rx="3" ry="3" style="stroke:#038048;stroke-width:1.0;"/><text fill="#000000" font-family="sans-serif" font-size="14" lengthAdjust="spacing" textLength="384" x="873" y="995.5889">Walker(int x, int y, int largeur, int hauteur, int vitesse)</text><line style="stroke:#181818;stroke-width:1.0;stroke-dasharray:1.0,2.0;" x1="854" x2="1011" y1="974.4453" y2="974.4453"/><text fill="#000000" font-family="sans-serif" font-size="14" lengthAdjust="spacing" textLength="94" x="1011" y="978.792">Constructeur</text><line style="stroke:#181818;stroke-width:1.0;stroke-dasharray:1.0,2.0;" x1="1105" x2="1262" y1="974.4453" y2="974.4453"/></g><!--class Monde--><g id="elem_Monde"><rect codeLine="64" fill="#F1F1F1" height="243.5625" id="Monde" rx="2.5" ry="2.5" style="stroke:#181818;stroke-width:0.5;" width="451" x="628.5" y="231.2969"/><ellipse cx="825.75" cy="247.2969" fill="#ADD1B2" rx="11" ry="11" style="stroke:#181818;stroke-width:1.0;"/><path d="M828.0938,242.9688 C827.1563,242.5313 826.5625,242.3906 825.6875,242.3906 C823.0625,242.3906 821.0625,244.4688 821.0625,247.1875 L821.0625,248.3125 C821.0625,250.8906 823.1719,252.7813 826.0625,252.7813 C827.2813,252.7813 828.4375,252.4844 829.1875,251.9375 C829.7656,251.5313 830.0938,251.0781 830.0938,250.6875 C830.0938,250.2344 829.7031,249.8438 829.2344,249.8438 C829.0156,249.8438 828.8125,249.9219 828.625,250.1094 C828.1719,250.5938 828.1719,250.5938 827.9844,250.6875 C827.5625,250.9531 826.875,251.0781 826.1094,251.0781 C824.0625,251.0781 822.7656,249.9844 822.7656,248.2813 L822.7656,247.1875 C822.7656,245.4063 824.0156,244.0938 825.75,244.0938 C826.3281,244.0938 826.9375,244.25 827.4063,244.5 C827.8906,244.7813 828.0625,245 828.1563,245.4063 C828.2188,245.8125 828.25,245.9375 828.3906,246.0625 C828.5313,246.2031 828.7656,246.3125 828.9844,246.3125 C829.25,246.3125 829.5156,246.1719 829.6875,245.9531 C829.7969,245.7969 829.8281,245.6094 829.8281,245.1875 L829.8281,243.7656 C829.8281,243.3281 829.8125,243.2031 829.7188,243.0469 C829.5625,242.7813 829.2813,242.6406 828.9844,242.6406 C828.6875,242.6406 828.4844,242.7344 828.2656,243.0469 L828.0938,242.9688 Z " fill="#000000"/><text fill="#000000" font-family="sans-serif" font-size="14" lengthAdjust="spacing" textLength="48" x="846.25" y="252.1436">Monde</text><line style="stroke:#181818;stroke-width:0.5;" x1="629.5" x2="1078.5" y1="263.2969" y2="263.2969"/><polygon fill="none" points="639.5,271.9453,643.5,275.9453,639.5,279.9453,635.5,275.9453" style="stroke:#B38D22;stroke-width:1.0;"/><text fill="#000000" font-family="sans-serif" font-size="14" lengthAdjust="spacing" textLength="82" x="648.5" y="280.292">int nbLigne</text><polygon fill="none" points="639.5,288.2422,643.5,292.2422,639.5,296.2422,635.5,292.2422" style="stroke:#B38D22;stroke-width:1.0;"/><text fill="#000000" font-family="sans-serif" font-size="14" lengthAdjust="spacing" textLength="66" x="648.5" y="296.5889">int nbCol</text><ellipse cx="639.5" cy="329.8359" fill="#84BE84" rx="3" ry="3" style="stroke:#038048;stroke-width:1.0;"/><text fill="#000000" font-family="sans-serif" font-size="14" lengthAdjust="spacing" textLength="58" x="648.5" y="333.1826">Monde()</text><line style="stroke:#181818;stroke-width:1.0;stroke-dasharray:1.0,2.0;" x1="629.5" x2="807" y1="312.0391" y2="312.0391"/><text fill="#000000" font-family="sans-serif" font-size="14" lengthAdjust="spacing" textLength="94" x="807" y="316.3857">Constructeur</text><line style="stroke:#181818;stroke-width:1.0;stroke-dasharray:1.0,2.0;" x1="901" x2="1078.5" y1="312.0391" y2="312.0391"/><ellipse cx="639.5" cy="366.4297" fill="#84BE84" rx="3" ry="3" style="stroke:#038048;stroke-width:1.0;"/><text fill="#000000" font-family="sans-serif" font-size="14" lengthAdjust="spacing" textLength="399" x="648.5" y="369.7764">boolean collision(ElementMonde e1, ElementMonde e2)</text><ellipse cx="639.5" cy="382.7266" fill="#84BE84" rx="3" ry="3" style="stroke:#038048;stroke-width:1.0;"/><text fill="#000000" font-family="sans-serif" font-size="14" lengthAdjust="spacing" textLength="121" x="648.5" y="386.0732">Heros getHeros()</text><ellipse cx="639.5" cy="399.0234" fill="#84BE84" rx="3" ry="3" style="stroke:#038048;stroke-width:1.0;"/><text fill="#000000" font-family="sans-serif" font-size="14" lengthAdjust="spacing" textLength="425" x="648.5" y="402.3701">void deplacementHeros(TypeMouvement typeMouvement)</text><ellipse cx="639.5" cy="415.3203" fill="#84BE84" rx="3" ry="3" style="stroke:#038048;stroke-width:1.0;"/><text fill="#000000" font-family="sans-serif" font-size="14" lengthAdjust="spacing" textLength="190" x="648.5" y="418.667">void addTerrains(Terrain t)</text><ellipse cx="639.5" cy="431.6172" fill="#84BE84" rx="3" ry="3" style="stroke:#038048;stroke-width:1.0;"/><text fill="#000000" font-family="sans-serif" font-size="14" lengthAdjust="spacing" textLength="252" x="648.5" y="434.9639">void addPersonnage(Personnage p)</text><ellipse cx="639.5" cy="447.9141" fill="#84BE84" rx="3" ry="3" style="stroke:#038048;stroke-width:1.0;"/><text fill="#000000" font-family="sans-serif" font-size="14" lengthAdjust="spacing" textLength="129" x="648.5" y="451.2607">void updateData()</text><ellipse cx="639.5" cy="464.2109" fill="#84BE84" rx="3" ry="3" style="stroke:#038048;stroke-width:1.0;"/><text fill="#000000" font-family="sans-serif" font-size="14" lengthAdjust="spacing" textLength="225" x="648.5" y="467.5576">void chargerCarte(String carte)</text><line style="stroke:#181818;stroke-width:1.0;stroke-dasharray:1.0,2.0;" x1="629.5" x2="818.5" y1="348.6328" y2="348.6328"/><text fill="#000000" font-family="sans-serif" font-size="14" lengthAdjust="spacing" textLength="71" x="818.5" y="352.9795">M&#233;thodes</text><line style="stroke:#181818;stroke-width:1.0;stroke-dasharray:1.0,2.0;" x1="889.5" x2="1078.5" y1="348.6328" y2="348.6328"/></g><!--class GestionFichier--><g id="elem_GestionFichier"><rect codeLine="87" fill="#F1F1F1" height="113.1875" id="GestionFichier" rx="2.5" ry="2.5" style="stroke:#181818;stroke-width:0.5;" width="318" x="1324" y="557.7969"/><ellipse cx="1426.75" cy="573.7969" fill="#ADD1B2" rx="11" ry="11" style="stroke:#181818;stroke-width:1.0;"/><path d="M1429.0938,569.4688 C1428.1563,569.0313 1427.5625,568.8906 1426.6875,568.8906 C1424.0625,568.8906 1422.0625,570.9688 1422.0625,573.6875 L1422.0625,574.8125 C1422.0625,577.3906 1424.1719,579.2813 1427.0625,579.2813 C1428.2813,579.2813 1429.4375,578.9844 1430.1875,578.4375 C1430.7656,578.0313 1431.0938,577.5781 1431.0938,577.1875 C1431.0938,576.7344 1430.7031,576.3438 1430.2344,576.3438 C1430.0156,576.3438 1429.8125,576.4219 1429.625,576.6094 C1429.1719,577.0938 1429.1719,577.0938 1428.9844,577.1875 C1428.5625,577.4531 1427.875,577.5781 1427.1094,577.5781 C1425.0625,577.5781 1423.7656,576.4844 1423.7656,574.7813 L1423.7656,573.6875 C1423.7656,571.9063 1425.0156,570.5938 1426.75,570.5938 C1427.3281,570.5938 1427.9375,570.75 1428.4063,571 C1428.8906,571.2813 1429.0625,571.5 1429.1563,571.9063 C1429.2188,572.3125 1429.25,572.4375 1429.3906,572.5625 C1429.5313,572.7031 1429.7656,572.8125 1429.9844,572.8125 C1430.25,572.8125 1430.5156,572.6719 1430.6875,572.4531 C1430.7969,572.2969 1430.8281,572.1094 1430.8281,571.6875 L1430.8281,570.2656 C1430.8281,569.8281 1430.8125,569.7031 1430.7188,569.5469 C1430.5625,569.2813 1430.2813,569.1406 1429.9844,569.1406 C1429.6875,569.1406 1429.4844,569.2344 1429.2656,569.5469 L1429.0938,569.4688 Z " fill="#000000"/><text fill="#000000" font-family="sans-serif" font-size="14" lengthAdjust="spacing" textLength="104" x="1447.25" y="578.6436">GestionFichier</text><line style="stroke:#181818;stroke-width:0.5;" x1="1325" x2="1641" y1="589.7969" y2="589.7969"/><ellipse cx="1335" cy="623.7422" fill="#84BE84" rx="3" ry="3" style="stroke:#038048;stroke-width:1.0;"/><text fill="#000000" font-family="sans-serif" font-size="14" lengthAdjust="spacing" textLength="114" x="1344" y="627.0889">GestionFichier()</text><line style="stroke:#181818;stroke-width:1.0;stroke-dasharray:1.0,2.0;" x1="1325" x2="1436" y1="605.9453" y2="605.9453"/><text fill="#000000" font-family="sans-serif" font-size="14" lengthAdjust="spacing" textLength="94" x="1436" y="610.292">Constructeur</text><line style="stroke:#181818;stroke-width:1.0;stroke-dasharray:1.0,2.0;" x1="1530" x2="1641" y1="605.9453" y2="605.9453"/><ellipse cx="1335" cy="660.3359" fill="#84BE84" rx="3" ry="3" style="stroke:#038048;stroke-width:1.0;"/><text fill="#000000" font-family="sans-serif" font-size="14" lengthAdjust="spacing" textLength="292" x="1344" y="663.6826">char[] lireFichierCarte(string nomFichier)</text><line style="stroke:#181818;stroke-width:1.0;stroke-dasharray:1.0,2.0;" x1="1325" x2="1447.5" y1="642.5391" y2="642.5391"/><text fill="#000000" font-family="sans-serif" font-size="14" lengthAdjust="spacing" textLength="71" x="1447.5" y="646.8857">M&#233;thodes</text><line style="stroke:#181818;stroke-width:1.0;stroke-dasharray:1.0,2.0;" x1="1518.5" x2="1641" y1="642.5391" y2="642.5391"/></g><!--class Application--><g id="elem_Application"><rect codeLine="96" fill="#F1F1F1" height="48" id="Application" rx="2.5" ry="2.5" style="stroke:#181818;stroke-width:0.5;" width="115" x="1698.5" y="329.2969"/><ellipse cx="1713.5" cy="345.2969" fill="#ADD1B2" rx="11" ry="11" style="stroke:#181818;stroke-width:1.0;"/><path d="M1715.8438,340.9688 C1714.9063,340.5313 1714.3125,340.3906 1713.4375,340.3906 C1710.8125,340.3906 1708.8125,342.4688 1708.8125,345.1875 L1708.8125,346.3125 C1708.8125,348.8906 1710.9219,350.7813 1713.8125,350.7813 C1715.0313,350.7813 1716.1875,350.4844 1716.9375,349.9375 C1717.5156,349.5313 1717.8438,349.0781 1717.8438,348.6875 C1717.8438,348.2344 1717.4531,347.8438 1716.9844,347.8438 C1716.7656,347.8438 1716.5625,347.9219 1716.375,348.1094 C1715.9219,348.5938 1715.9219,348.5938 1715.7344,348.6875 C1715.3125,348.9531 1714.625,349.0781 1713.8594,349.0781 C1711.8125,349.0781 1710.5156,347.9844 1710.5156,346.2813 L1710.5156,345.1875 C1710.5156,343.4063 1711.7656,342.0938 1713.5,342.0938 C1714.0781,342.0938 1714.6875,342.25 1715.1563,342.5 C1715.6406,342.7813 1715.8125,343 1715.9063,343.4063 C1715.9688,343.8125 1716,343.9375 1716.1406,344.0625 C1716.2813,344.2031 1716.5156,344.3125 1716.7344,344.3125 C1717,344.3125 1717.2656,344.1719 1717.4375,343.9531 C1717.5469,343.7969 1717.5781,343.6094 1717.5781,343.1875 L1717.5781,341.7656 C1717.5781,341.3281 1717.5625,341.2031 1717.4688,341.0469 C1717.3125,340.7813 1717.0313,340.6406 1716.7344,340.6406 C1716.4375,340.6406 1716.2344,340.7344 1716.0156,341.0469 L1715.8438,340.9688 Z " fill="#000000"/><text fill="#000000" font-family="sans-serif" font-size="14" lengthAdjust="spacing" textLength="83" x="1727.5" y="350.1436">Application</text><line style="stroke:#181818;stroke-width:0.5;" x1="1699.5" x2="1812.5" y1="361.2969" y2="361.2969"/><line style="stroke:#181818;stroke-width:0.5;" x1="1699.5" x2="1812.5" y1="369.2969" y2="369.2969"/></g><!--link Escape to Monde--><g id="link_Escape_Monde"><path codeLine="98" d="M1125.84,171.3579 C1116.04,176.9339 1106.25,182.6559 1097,188.2969 C1074.84,201.8109 1051.86,216.4489 1029.28,231.2279 " fill="none" id="Escape-Monde" style="stroke:#181818;stroke-width:1.0;"/><text fill="#000000" font-family="sans-serif" font-size="13" lengthAdjust="spacing" textLength="8" x="1031.7174" y="220.4165">1</text></g><!--reverse link ElementMonde to Personnage--><g id="link_ElementMonde_Personnage"><path codeLine="99" d="M614.615,614.2969 C626.345,614.2969 620.075,614.2969 631.805,614.2969 " fill="none" id="ElementMonde-backto-Personnage" style="stroke:#181818;stroke-width:1.0;"/><polygon fill="none" points="596.615,614.2969,614.615,620.2969,614.615,608.2969,596.615,614.2969" style="stroke:#181818;stroke-width:1.0;"/></g><!--reverse link Personnage to Heros--><g id="link_Personnage_Heros"><path codeLine="100" d="M750.2243,698.6183 C723.1913,720.3233 707.981,732.5369 682.475,753.0149 " fill="none" id="Personnage-backto-Heros" style="stroke:#181818;stroke-width:1.0;"/><polygon fill="none" points="764.26,687.3489,746.4678,693.9397,753.9807,703.2968,764.26,687.3489" style="stroke:#181818;stroke-width:1.0;"/></g><!--reverse link Personnage to Monstre--><g id="link_Personnage_Monstre"><path codeLine="101" d="M943.0215,699.7363 C973.0415,728.2113 993.23,747.3569 1018.32,771.1549 " fill="none" id="Personnage-backto-Monstre" style="stroke:#181818;stroke-width:1.0;"/><polygon fill="none" points="929.962,687.3489,938.8924,704.0895,947.1507,695.3831,929.962,687.3489" style="stroke:#181818;stroke-width:1.0;"/></g><!--reverse link Monstre to Walker--><g id="link_Monstre_Walker"><path codeLine="102" d="M1058,866.6169 C1058,890.2439 1058,902.5519 1058,926.1469 " fill="none" id="Monstre-backto-Walker" style="stroke:#181818;stroke-width:1.0;"/><polygon fill="none" points="1058,848.6169,1052,866.6169,1064,866.6169,1058,848.6169" style="stroke:#181818;stroke-width:1.0;"/></g><!--link Terrain to ElementMonde--><g id="link_Terrain_ElementMonde"><path codeLine="104" d="M422.257,614.2969 C433.986,614.2969 427.715,614.2969 439.444,614.2969 " fill="none" id="Terrain-to-ElementMonde" style="stroke:#181818;stroke-width:1.0;"/><polygon fill="none" points="457.444,614.2969,439.444,608.2969,439.444,620.2969,457.444,614.2969" style="stroke:#181818;stroke-width:1.0;"/></g><!--reverse link Terrain to Mur--><g id="link_Terrain_Mur"><path codeLine="105" d="M230.5412,696.6827 C226.5702,720.6957 225.023,730.0459 221.184,753.2619 " fill="none" id="Terrain-backto-Mur" style="stroke:#181818;stroke-width:1.0;"/><polygon fill="none" points="233.478,678.9239,224.6216,695.7038,236.4609,697.6616,233.478,678.9239" style="stroke:#181818;stroke-width:1.0;"/></g><!--link Escape to Application--><g id="link_Escape_Application"><path codeLine="106" d="M1307.81,166.0299 C1422.05,213.5099 1591.5085,283.9324 1683.8085,322.2954 " fill="none" id="Escape-to-Application" style="stroke:#181818;stroke-width:1.0;"/><polygon fill="none" points="1700.43,329.2039,1686.1113,316.7549,1681.5057,327.8359,1700.43,329.2039" style="stroke:#181818;stroke-width:1.0;"/></g><!--link Monde to Personnage--><g id="link_Monde_Personnage"><path codeLine="109" d="M854,475.4549 C854,497.9689 854,520.8189 854,541.2709 " fill="none" id="Monde-Personnage" style="stroke:#181818;stroke-width:1.0;"/><text fill="#000000" font-family="sans-serif" font-size="13" lengthAdjust="spacing" textLength="7" x="846.6391" y="530.0517">*</text></g><!--link Monde to Terrain--><g id="link_Monde_Terrain"><path codeLine="110" d="M628.397,437.2529 C566.81,461.1179 500.417,487.9779 440,514.7969 C415.809,525.5349 390.306,537.7029 365.988,549.7319 " fill="none" id="Monde-Terrain" style="stroke:#181818;stroke-width:1.0;"/><text fill="#000000" font-family="sans-serif" font-size="13" lengthAdjust="spacing" textLength="7" x="371.9476" y="538.8974">*</text></g><!--link Monde to GestionFichier--><g id="link_Monde_GestionFichier"><path codeLine="113" d="M1079.54,468.9469 C1085.39,471.1599 1091.21,473.2819 1097,475.2969 C1177.22,503.2309 1203.75,486.9579 1284,514.7969 C1317.23,526.3249 1352.06,542.1499 1383.12,557.7429 " fill="none" id="Monde-GestionFichier" style="stroke:#181818;stroke-width:1.0;"/><text fill="#000000" font-family="sans-serif" font-size="13" lengthAdjust="spacing" textLength="8" x="1361.8104" y="546.5993">1</text></g><!--SRC=[jLNDRXen4BxxAKRqmZQ0b3v0fIeXIQLGefOgXwW7ipjPh1XxPNjH4Cq3vJdoOhNNtiMxG45LUc7n-9kPRtvjcE48usLXrd39QAxeaf22fayqjsATqW8tX03KeeaK6SB6IW3eN1j5KmCffrh3cECIXOaH01_WaKjguBbpNZTd9WmiQ6cmL2qPfohVoaQZ2ocikp9rmD4eYCyyeNv2Ai7BFbupL8eoqL0wQ2e0-u7neAOwY3aEOd99OtBozceMCaCTsPjBoP4AG6rcYgvGQJhd4TVgupbEIdMSdmNzVsw1shv4tbcK5CArGRUyAsPGQpmMmTP2tp5zzeJNBTvx8WhM_nxHIh8CihVNWjCKLN-sBd0YorNLas3YKx8l2p_53Igfjnbm7nJb4bgMwi01ld-zlfarfzlnrVOmczur_o-dzzzswrtvEbvnJ-dTKtKix4xT9nKvFA51FV3V2RToT4_v4vum5XxtJawxsykXnVoMvG8xiWl9JzrDfzGYbPmppQJej_OedW_QYnK_9UtsW1nDNCFjB60r2axLtvyq4fKgpRAm3ArMM9zxCD4uHxkXw03B8gC6BwcXNORfmbL8NL1biF_3A2PoIDqXQRPvLPpmlbIlKQYDJQOb5V9u1Xjjg67fYxUxT5lSstlu1TQ7JaZarcALiVUEh7Q_IUseVkMcfM6yda_l_TeEYwtE5KiNBEhAWzLttjewJVJxMy4fk8HOnfmf34e-DzhdHiXb4CS9iimznIz5mLbAdKj2VBP68Md38VJEUo65ewgJ_2-92ZVa-6Y6lp-t6exu9XkMXRlPeacz5NPlmk26Yu0Zf6waeMBvOjUFUmA3Ia3kn62lMZ6ItNYgI3_sOZg7GRMVWuPiojer_0C0]--></g></svg>