<?xml version="1.0" encoding="us-ascii" standalone="no"?><svg xmlns="http://www.w3.org/2000/svg" xmlns:xlink="http://www.w3.org/1999/xlink" contentStyleType="text/css" height="526.4px" preserveAspectRatio="none" style="width:860px;height:526px;background:#FFFFFF;" version="1.1" viewBox="0 0 860 526" width="860.8px" zoomAndPan="magnify"><defs/><g><!--cluster gui--><g id="cluster_gui"><path d="M6.8,4.8109 L25.2,4.8109 A3,3 0 0 1 27.2,6.8109 L32.8,24.5078 L853.2,24.5078 A2,2 0 0 1 855.2,26.5078 L855.2,518.8109 A2,2 0 0 1 853.2,520.8109 L6.8,520.8109 A2,2 0 0 1 4.8,518.8109 L4.8,6.8109 A2,2 0 0 1 6.8,4.8109 " fill="none" style="stroke:#000000;stroke-width:1.2000000000000002;"/><line style="stroke:#000000;stroke-width:1.2000000000000002;" x1="4.8" x2="32.8" y1="24.5078" y2="24.5078"/><text fill="#000000" font-family="sans-serif" font-size="11.2" font-weight="bold" lengthAdjust="spacing" textLength="17.6" x="8" y="18.4969">gui</text></g><!--cluster views--><g id="cluster_views"><path d="M32.4,331.2109 L66,331.2109 A3,3 0 0 1 68,333.2109 L73.6,350.9078 L826.8,350.9078 A2,2 0 0 1 828.8,352.9078 L828.8,499.6109 A2,2 0 0 1 826.8,501.6109 L32.4,501.6109 A2,2 0 0 1 30.4,499.6109 L30.4,333.2109 A2,2 0 0 1 32.4,331.2109 " fill="none" style="stroke:#000000;stroke-width:1.2000000000000002;"/><line style="stroke:#000000;stroke-width:1.2000000000000002;" x1="30.4" x2="73.6" y1="350.9078" y2="350.9078"/><text fill="#000000" font-family="sans-serif" font-size="11.2" font-weight="bold" lengthAdjust="spacing" textLength="32.8" x="33.6" y="344.8969">views</text></g><!--cluster engine--><g id="cluster_engine"><path d="M552.4,49.6109 L592.4,49.6109 A3,3 0 0 1 594.4,51.6109 L600,69.3078 L834,69.3078 A2,2 0 0 1 836,71.3078 L836,158.0109 A2,2 0 0 1 834,160.0109 L552.4,160.0109 A2,2 0 0 1 550.4,158.0109 L550.4,51.6109 A2,2 0 0 1 552.4,49.6109 " fill="none" style="stroke:#000000;stroke-width:1.2000000000000002;"/><line style="stroke:#000000;stroke-width:1.2000000000000002;" x1="550.4" x2="600" y1="69.3078" y2="69.3078"/><text fill="#000000" font-family="sans-serif" font-size="11.2" font-weight="bold" lengthAdjust="spacing" textLength="39.2" x="553.6" y="63.2969">engine</text></g><!--class View--><g id="elem_View"><rect codeLine="3" fill="#F1F1F1" height="142.6781" id="View" rx="2" ry="2" style="stroke:#181818;stroke-width:0.4000000000000001;" width="184" x="351.2" y="42.0109"/><ellipse cx="428.2" cy="54.8109" fill="#A9DCDF" rx="8.8" ry="8.8" style="stroke:#181818;stroke-width:0.8000000000000002;"/><path d="M429.95,56.2234 L426.6375,56.2234 L426.3,57.0484 L426.6375,57.0484 Q427.125,57.0484 427.3375,57.2359 Q427.55,57.4234 427.55,57.7359 Q427.55,58.0359 427.3375,58.2234 Q427.125,58.4109 426.6375,58.4109 L424.8,58.4109 Q424.3125,58.4109 424.1125,58.2234 Q423.9,58.0359 423.9,57.7234 Q423.9,57.4234 424.125,57.2359 Q424.3375,57.0359 424.8375,57.0484 L426.975,51.7234 L426.0875,51.7234 Q425.6,51.7234 425.3875,51.5359 Q425.175,51.3484 425.175,51.0359 Q425.175,50.7359 425.3875,50.5484 Q425.6,50.3609 426.0875,50.3609 L429.025,50.3609 L431.7375,57.0484 Q432.2125,57.0484 432.3625,57.1609 Q432.675,57.3734 432.675,57.7359 Q432.675,58.0359 432.4625,58.2234 Q432.2625,58.4109 431.775,58.4109 L429.9375,58.4109 Q429.45,58.4109 429.2375,58.2234 Q429.025,58.0359 429.025,57.7234 Q429.025,57.4234 429.2375,57.2359 Q429.45,57.0484 429.9375,57.0484 L430.275,57.0484 L429.95,56.2234 Z M429.375,54.8609 L428.2875,52.1609 L427.1875,54.8609 L429.375,54.8609 Z " fill="#000000"/><text fill="#000000" font-family="sans-serif" font-size="11.2" font-style="italic" lengthAdjust="spacing" textLength="23.2" x="444.6" y="59.4484">View</text><line style="stroke:#181818;stroke-width:0.4000000000000001;" x1="352" x2="534.4" y1="67.6109" y2="67.6109"/><polygon fill="none" points="360,75.4594,363.2,78.6594,360,81.8594,356.8,78.6594" style="stroke:#B38D22;stroke-width:0.8000000000000002;"/><text fill="#000000" font-family="sans-serif" font-size="11.2" lengthAdjust="spacing" textLength="56.8" x="367.2" y="82.8969">Parent root</text><line style="stroke:#181818;stroke-width:0.8000000000000002;" x1="352" x2="534.4" y1="88.9078" y2="88.9078"/><ellipse cx="360" cy="100.7563" fill="#84BE84" rx="2.4" ry="2.4" style="stroke:#038048;stroke-width:0.8000000000000002;"/><text fill="#000000" font-family="sans-serif" font-size="11.2" lengthAdjust="spacing" textLength="88" x="367.2" y="104.1938">getRoot(): Parent</text><ellipse cx="360" cy="115.6531" fill="#84BE84" rx="2.4" ry="2.4" style="stroke:#038048;stroke-width:0.8000000000000002;"/><text fill="#000000" font-family="sans-serif" font-size="11.2" lengthAdjust="spacing" textLength="128" x="367.2" y="119.0906">enableRootEvents(): void</text><ellipse cx="360" cy="130.55" fill="#84BE84" rx="2.4" ry="2.4" style="stroke:#038048;stroke-width:0.8000000000000002;"/><text fill="#000000" font-family="sans-serif" font-size="11.2" lengthAdjust="spacing" textLength="85.6" x="367.2" y="133.9875">onViewInit(): void</text><ellipse cx="360" cy="145.4469" fill="#84BE84" rx="2.4" ry="2.4" style="stroke:#038048;stroke-width:0.8000000000000002;"/><text fill="#000000" font-family="sans-serif" font-size="11.2" lengthAdjust="spacing" textLength="120.8" x="367.2" y="148.8844">onViewDisplayed(): void</text><ellipse cx="360" cy="160.3438" fill="#84BE84" rx="2.4" ry="2.4" style="stroke:#038048;stroke-width:0.8000000000000002;"/><text fill="#000000" font-family="sans-serif" font-size="11.2" lengthAdjust="spacing" textLength="156.8" x="367.2" y="163.7813">onKeyPressed(KeyEvent): void</text><ellipse cx="360" cy="175.2406" fill="#84BE84" rx="2.4" ry="2.4" style="stroke:#038048;stroke-width:0.8000000000000002;"/><text fill="#000000" font-family="sans-serif" font-size="11.2" lengthAdjust="spacing" textLength="163.2" x="367.2" y="178.6781">onKeyReleased(KeyEvent): void</text></g><!--class ViewController--><g id="elem_ViewController"><rect codeLine="14" fill="#F1F1F1" height="38.4" id="ViewController" rx="2" ry="2" style="stroke:#181818;stroke-width:0.4000000000000001;" width="98.4" x="303.6" y="255.2109"/><ellipse cx="315.6" cy="268.0109" fill="#A9DCDF" rx="8.8" ry="8.8" style="stroke:#181818;stroke-width:0.8000000000000002;"/><path d="M317.35,269.4234 L314.0375,269.4234 L313.7,270.2484 L314.0375,270.2484 Q314.525,270.2484 314.7375,270.4359 Q314.95,270.6234 314.95,270.9359 Q314.95,271.2359 314.7375,271.4234 Q314.525,271.6109 314.0375,271.6109 L312.2,271.6109 Q311.7125,271.6109 311.5125,271.4234 Q311.3,271.2359 311.3,270.9234 Q311.3,270.6234 311.525,270.4359 Q311.7375,270.2359 312.2375,270.2484 L314.375,264.9234 L313.4875,264.9234 Q313,264.9234 312.7875,264.7359 Q312.575,264.5484 312.575,264.2359 Q312.575,263.9359 312.7875,263.7484 Q313,263.5609 313.4875,263.5609 L316.425,263.5609 L319.1375,270.2484 Q319.6125,270.2484 319.7625,270.3609 Q320.075,270.5734 320.075,270.9359 Q320.075,271.2359 319.8625,271.4234 Q319.6625,271.6109 319.175,271.6109 L317.3375,271.6109 Q316.85,271.6109 316.6375,271.4234 Q316.425,271.2359 316.425,270.9234 Q316.425,270.6234 316.6375,270.4359 Q316.85,270.2484 317.3375,270.2484 L317.675,270.2484 L317.35,269.4234 Z M316.775,268.0609 L315.6875,265.3609 L314.5875,268.0609 L316.775,268.0609 Z " fill="#000000"/><text fill="#000000" font-family="sans-serif" font-size="11.2" font-style="italic" lengthAdjust="spacing" textLength="72.8" x="326.8" y="272.6484">ViewController</text><line style="stroke:#181818;stroke-width:0.4000000000000001;" x1="304.4" x2="401.2" y1="280.8109" y2="280.8109"/><line style="stroke:#181818;stroke-width:0.4000000000000001;" x1="304.4" x2="401.2" y1="287.2109" y2="287.2109"/></g><!--class VIEWS--><g id="elem_VIEWS"><rect codeLine="16" fill="#F1F1F1" height="68.1938" id="VIEWS" rx="2" ry="2" style="stroke:#181818;stroke-width:0.4000000000000001;" width="60" x="18" y="79.2109"/><ellipse cx="30" cy="92.0109" fill="#EB937F" rx="8.8" ry="8.8" style="stroke:#181818;stroke-width:0.8000000000000002;"/><path d="M29.0875,92.6484 L29.0875,94.6484 L32.55,94.6484 L32.55,93.9109 Q32.55,93.4234 32.7375,93.2109 Q32.9375,92.9984 33.2375,92.9984 Q33.5375,92.9984 33.725,93.2109 Q33.9125,93.4234 33.9125,93.9109 L33.9125,96.0109 L27.5125,96.0109 Q27.0125,96.0109 26.8,95.8234 Q26.6,95.6359 26.6,95.3234 Q26.6,95.0234 26.8125,94.8359 Q27.025,94.6484 27.5125,94.6484 L27.725,94.6484 L27.725,89.3234 L27.5125,89.3234 Q27.0125,89.3234 26.8,89.1359 Q26.6,88.9484 26.6,88.6359 Q26.6,88.3359 26.8,88.1484 Q27.0125,87.9609 27.5125,87.9609 L33.6125,87.9609 L33.6125,90.0359 Q33.6125,90.5234 33.425,90.7359 Q33.25,90.9359 32.9375,90.9359 Q32.6375,90.9359 32.45,90.7359 Q32.2625,90.5234 32.2625,90.0359 L32.2625,89.3234 L29.0875,89.3234 L29.0875,91.2859 L30.275,91.2859 Q30.275,90.7609 30.375,90.6109 Q30.5875,90.2859 30.9625,90.2859 Q31.2625,90.2859 31.45,90.4984 Q31.6375,90.6984 31.6375,91.1859 L31.6375,92.7609 Q31.6375,93.1984 31.5375,93.3484 Q31.325,93.6609 30.9625,93.6609 Q30.5875,93.6609 30.375,93.3359 Q30.275,93.1859 30.275,92.6484 L29.0875,92.6484 Z " fill="#000000"/><text fill="#000000" font-family="sans-serif" font-size="11.2" lengthAdjust="spacing" textLength="34.4" x="41.2" y="96.6484">VIEWS</text><line style="stroke:#181818;stroke-width:0.4000000000000001;" x1="18.8" x2="77.2" y1="104.8109" y2="104.8109"/><text fill="#000000" font-family="sans-serif" font-size="11.2" lengthAdjust="spacing" textLength="32" x="22.8" y="120.0969">HOME</text><text fill="#000000" font-family="sans-serif" font-size="11.2" lengthAdjust="spacing" textLength="32" x="22.8" y="134.9938">GAME</text><line style="stroke:#181818;stroke-width:0.4000000000000001;" x1="18.8" x2="77.2" y1="141.0047" y2="141.0047"/></g><!--class ViewManager--><g id="elem_ViewManager"><rect codeLine="21" fill="#F1F1F1" height="157.575" id="ViewManager" rx="2" ry="2" style="stroke:#181818;stroke-width:0.4000000000000001;" width="181.6" x="106" y="34.4109"/><ellipse cx="159.4" cy="47.2109" fill="#ADD1B2" rx="8.8" ry="8.8" style="stroke:#181818;stroke-width:0.8000000000000002;"/><path d="M161.6125,43.9109 Q161.7375,43.7359 161.8875,43.6484 Q162.0375,43.5609 162.2125,43.5609 Q162.5125,43.5609 162.7,43.7734 Q162.8875,43.9734 162.8875,44.4609 L162.8875,45.6234 Q162.8875,46.1109 162.7,46.3234 Q162.5125,46.5359 162.2125,46.5359 Q161.9375,46.5359 161.775,46.3734 Q161.6125,46.2234 161.525,45.8109 Q161.4875,45.5234 161.3375,45.3734 Q161.075,45.0734 160.5875,44.8984 Q160.1,44.7234 159.6,44.7234 Q158.9875,44.7234 158.475,44.9859 Q157.975,45.2484 157.575,45.8484 Q157.1875,46.4484 157.1875,47.2734 L157.1875,48.1484 Q157.1875,49.1359 157.9,49.7984 Q158.6125,50.4484 159.8875,50.4484 Q160.6375,50.4484 161.1625,50.2484 Q161.475,50.1234 161.8125,49.7734 Q162.025,49.5609 162.1375,49.4984 Q162.2625,49.4359 162.425,49.4359 Q162.6875,49.4359 162.8875,49.6484 Q163.1,49.8484 163.1,50.1234 Q163.1,50.3984 162.825,50.7234 Q162.425,51.1859 161.7875,51.4484 Q160.925,51.8109 159.8875,51.8109 Q158.675,51.8109 157.7125,51.3109 Q156.925,50.9109 156.375,50.0609 Q155.825,49.1984 155.825,48.1734 L155.825,47.2484 Q155.825,46.1859 156.3125,45.2734 Q156.8125,44.3484 157.6875,43.8609 Q158.5625,43.3609 159.55,43.3609 Q160.1375,43.3609 160.65,43.4984 Q161.175,43.6234 161.6125,43.9109 Z " fill="#000000"/><text fill="#000000" font-family="sans-serif" font-size="11.2" lengthAdjust="spacing" textLength="68" x="175.8" y="51.8484">ViewManager</text><line style="stroke:#181818;stroke-width:0.4000000000000001;" x1="106.8" x2="286.8" y1="60.0109" y2="60.0109"/><rect fill="none" height="4.8" style="stroke:#C82930;stroke-width:0.8000000000000002;" width="4.8" x="112.4" y="69.4594"/><text fill="#000000" font-family="sans-serif" font-size="11.2" lengthAdjust="spacing" text-decoration="underline" textLength="116.8" x="122" y="75.2969">instance: ViewManager</text><rect fill="none" height="4.8" style="stroke:#C82930;stroke-width:0.8000000000000002;" width="4.8" x="112.4" y="84.3563"/><text fill="#000000" font-family="sans-serif" font-size="11.2" lengthAdjust="spacing" textLength="64" x="122" y="90.1938">stage: Stage</text><line style="stroke:#181818;stroke-width:0.8000000000000002;" x1="106.8" x2="286.8" y1="96.2047" y2="96.2047"/><rect fill="#F24D5C" height="4.8" style="stroke:#C82930;stroke-width:0.8000000000000002;" width="4.8" x="112.4" y="105.6531"/><text fill="#000000" font-family="sans-serif" font-size="11.2" lengthAdjust="spacing" textLength="76" x="122" y="111.4906">ViewManager()</text><ellipse cx="114.8" cy="122.95" fill="#84BE84" rx="2.4" ry="2.4" style="stroke:#038048;stroke-width:0.8000000000000002;"/><text fill="#000000" font-family="sans-serif" font-size="11.2" lengthAdjust="spacing" text-decoration="underline" textLength="140.8" x="122" y="126.3875">getInstance(): ViewManager</text><ellipse cx="114.8" cy="137.8469" fill="#84BE84" rx="2.4" ry="2.4" style="stroke:#038048;stroke-width:0.8000000000000002;"/><text fill="#000000" font-family="sans-serif" font-size="11.2" lengthAdjust="spacing" textLength="109.6" x="122" y="141.2844">setStage(Stage): void</text><ellipse cx="114.8" cy="152.7438" fill="#84BE84" rx="2.4" ry="2.4" style="stroke:#038048;stroke-width:0.8000000000000002;"/><text fill="#000000" font-family="sans-serif" font-size="11.2" lengthAdjust="spacing" textLength="160.8" x="122" y="156.1813">registerView(VIEWS, View): void</text><ellipse cx="114.8" cy="167.6406" fill="#84BE84" rx="2.4" ry="2.4" style="stroke:#038048;stroke-width:0.8000000000000002;"/><text fill="#000000" font-family="sans-serif" font-size="11.2" lengthAdjust="spacing" textLength="126.4" x="122" y="171.0781">navigateTo(VIEWS): void</text><ellipse cx="114.8" cy="182.5375" fill="#84BE84" rx="2.4" ry="2.4" style="stroke:#038048;stroke-width:0.8000000000000002;"/><text fill="#000000" font-family="sans-serif" font-size="11.2" lengthAdjust="spacing" textLength="145.6" x="122" y="185.975">setFullScreen(boolean): void</text></g><!--class HomeViewController--><g id="elem_HomeViewController"><rect codeLine="34" fill="#F1F1F1" height="127.7813" id="HomeViewController" rx="2" ry="2" style="stroke:#181818;stroke-width:0.4000000000000001;" width="216.8" x="43.6" y="360.8109"/><ellipse cx="97.8" cy="373.6109" fill="#ADD1B2" rx="8.8" ry="8.8" style="stroke:#181818;stroke-width:0.8000000000000002;"/><path d="M100.0125,370.3109 Q100.1375,370.1359 100.2875,370.0484 Q100.4375,369.9609 100.6125,369.9609 Q100.9125,369.9609 101.1,370.1734 Q101.2875,370.3734 101.2875,370.8609 L101.2875,372.0234 Q101.2875,372.5109 101.1,372.7234 Q100.9125,372.9359 100.6125,372.9359 Q100.3375,372.9359 100.175,372.7734 Q100.0125,372.6234 99.925,372.2109 Q99.8875,371.9234 99.7375,371.7734 Q99.475,371.4734 98.9875,371.2984 Q98.5,371.1234 98,371.1234 Q97.3875,371.1234 96.875,371.3859 Q96.375,371.6484 95.975,372.2484 Q95.5875,372.8484 95.5875,373.6734 L95.5875,374.5484 Q95.5875,375.5359 96.3,376.1984 Q97.0125,376.8484 98.2875,376.8484 Q99.0375,376.8484 99.5625,376.6484 Q99.875,376.5234 100.2125,376.1734 Q100.425,375.9609 100.5375,375.8984 Q100.6625,375.8359 100.825,375.8359 Q101.0875,375.8359 101.2875,376.0484 Q101.5,376.2484 101.5,376.5234 Q101.5,376.7984 101.225,377.1234 Q100.825,377.5859 100.1875,377.8484 Q99.325,378.2109 98.2875,378.2109 Q97.075,378.2109 96.1125,377.7109 Q95.325,377.3109 94.775,376.4609 Q94.225,375.5984 94.225,374.5734 L94.225,373.6484 Q94.225,372.5859 94.7125,371.6734 Q95.2125,370.7484 96.0875,370.2609 Q96.9625,369.7609 97.95,369.7609 Q98.5375,369.7609 99.05,369.8984 Q99.575,370.0234 100.0125,370.3109 Z " fill="#000000"/><text fill="#000000" font-family="sans-serif" font-size="11.2" lengthAdjust="spacing" textLength="101.6" x="114.2" y="378.2484">HomeViewController</text><line style="stroke:#181818;stroke-width:0.4000000000000001;" x1="44.4" x2="259.6" y1="386.4109" y2="386.4109"/><rect fill="none" height="4.8" style="stroke:#C82930;stroke-width:0.8000000000000002;" width="4.8" x="50" y="395.8594"/><text fill="#000000" font-family="sans-serif" font-size="11.2" lengthAdjust="spacing" textLength="85.6" x="59.6" y="401.6969">gameTitle: String</text><rect fill="none" height="4.8" style="stroke:#C82930;stroke-width:0.8000000000000002;" width="4.8" x="50" y="410.7563"/><text fill="#000000" font-family="sans-serif" font-size="11.2" lengthAdjust="spacing" textLength="157.6" x="59.6" y="416.5938">fullScreenCheckBox: CheckBox</text><line style="stroke:#181818;stroke-width:0.8000000000000002;" x1="44.4" x2="259.6" y1="422.6047" y2="422.6047"/><polygon fill="#FFFF44" points="52.4,430.4531,55.6,433.6531,52.4,436.8531,49.2,433.6531" style="stroke:#B38D22;stroke-width:0.8000000000000002;"/><text fill="#000000" font-family="sans-serif" font-size="11.2" lengthAdjust="spacing" textLength="104.8" x="59.6" y="437.8906">onButtonClick(): void</text><polygon fill="#FFFF44" points="52.4,445.35,55.6,448.55,52.4,451.75,49.2,448.55" style="stroke:#B38D22;stroke-width:0.8000000000000002;"/><text fill="#000000" font-family="sans-serif" font-size="11.2" lengthAdjust="spacing" textLength="137.6" x="59.6" y="452.7875">onFullScreenToggle(): void</text><ellipse cx="52.4" cy="464.2469" fill="#84BE84" rx="2.4" ry="2.4" style="stroke:#038048;stroke-width:0.8000000000000002;"/><text fill="#000000" font-family="sans-serif" font-size="11.2" lengthAdjust="spacing" textLength="132" x="59.6" y="467.6844">setGameTitle(String): void</text><ellipse cx="52.4" cy="479.1438" fill="#84BE84" rx="2.4" ry="2.4" style="stroke:#038048;stroke-width:0.8000000000000002;"/><text fill="#000000" font-family="sans-serif" font-size="11.2" lengthAdjust="spacing" textLength="196" x="59.6" y="482.5813">setFullScreenCheckBox(boolean): void</text></g><!--class GameViewController--><g id="elem_GameViewController"><rect codeLine="44" fill="#F1F1F1" height="68.1938" id="GameViewController" rx="2" ry="2" style="stroke:#181818;stroke-width:0.4000000000000001;" width="128.8" x="288.4" y="390.8109"/><ellipse cx="300.4" cy="403.6109" fill="#ADD1B2" rx="8.8" ry="8.8" style="stroke:#181818;stroke-width:0.8000000000000002;"/><path d="M302.6125,400.3109 Q302.7375,400.1359 302.8875,400.0484 Q303.0375,399.9609 303.2125,399.9609 Q303.5125,399.9609 303.7,400.1734 Q303.8875,400.3734 303.8875,400.8609 L303.8875,402.0234 Q303.8875,402.5109 303.7,402.7234 Q303.5125,402.9359 303.2125,402.9359 Q302.9375,402.9359 302.775,402.7734 Q302.6125,402.6234 302.525,402.2109 Q302.4875,401.9234 302.3375,401.7734 Q302.075,401.4734 301.5875,401.2984 Q301.1,401.1234 300.6,401.1234 Q299.9875,401.1234 299.475,401.3859 Q298.975,401.6484 298.575,402.2484 Q298.1875,402.8484 298.1875,403.6734 L298.1875,404.5484 Q298.1875,405.5359 298.9,406.1984 Q299.6125,406.8484 300.8875,406.8484 Q301.6375,406.8484 302.1625,406.6484 Q302.475,406.5234 302.8125,406.1734 Q303.025,405.9609 303.1375,405.8984 Q303.2625,405.8359 303.425,405.8359 Q303.6875,405.8359 303.8875,406.0484 Q304.1,406.2484 304.1,406.5234 Q304.1,406.7984 303.825,407.1234 Q303.425,407.5859 302.7875,407.8484 Q301.925,408.2109 300.8875,408.2109 Q299.675,408.2109 298.7125,407.7109 Q297.925,407.3109 297.375,406.4609 Q296.825,405.5984 296.825,404.5734 L296.825,403.6484 Q296.825,402.5859 297.3125,401.6734 Q297.8125,400.7484 298.6875,400.2609 Q299.5625,399.7609 300.55,399.7609 Q301.1375,399.7609 301.65,399.8984 Q302.175,400.0234 302.6125,400.3109 Z " fill="#000000"/><text fill="#000000" font-family="sans-serif" font-size="11.2" lengthAdjust="spacing" textLength="103.2" x="311.6" y="408.2484">GameViewController</text><line style="stroke:#181818;stroke-width:0.4000000000000001;" x1="289.2" x2="416.4" y1="416.4109" y2="416.4109"/><rect fill="none" height="4.8" style="stroke:#C82930;stroke-width:0.8000000000000002;" width="4.8" x="294.8" y="425.8594"/><text fill="#000000" font-family="sans-serif" font-size="11.2" lengthAdjust="spacing" textLength="80.8" x="304.4" y="431.6969">canvas: Canvas</text><line style="stroke:#181818;stroke-width:0.8000000000000002;" x1="289.2" x2="416.4" y1="437.7078" y2="437.7078"/><ellipse cx="297.2" cy="449.5563" fill="#84BE84" rx="2.4" ry="2.4" style="stroke:#038048;stroke-width:0.8000000000000002;"/><text fill="#000000" font-family="sans-serif" font-size="11.2" lengthAdjust="spacing" textLength="107.2" x="304.4" y="452.9938">getCanvas(): Canvas</text></g><!--class HomeView--><g id="elem_HomeView"><rect codeLine="50" fill="#F1F1F1" height="83.0906" id="HomeView" rx="2" ry="2" style="stroke:#181818;stroke-width:0.4000000000000001;" width="177.6" x="445.6" y="383.2109"/><ellipse cx="505" cy="396.0109" fill="#ADD1B2" rx="8.8" ry="8.8" style="stroke:#181818;stroke-width:0.8000000000000002;"/><path d="M507.2125,392.7109 Q507.3375,392.5359 507.4875,392.4484 Q507.6375,392.3609 507.8125,392.3609 Q508.1125,392.3609 508.3,392.5734 Q508.4875,392.7734 508.4875,393.2609 L508.4875,394.4234 Q508.4875,394.9109 508.3,395.1234 Q508.1125,395.3359 507.8125,395.3359 Q507.5375,395.3359 507.375,395.1734 Q507.2125,395.0234 507.125,394.6109 Q507.0875,394.3234 506.9375,394.1734 Q506.675,393.8734 506.1875,393.6984 Q505.7,393.5234 505.2,393.5234 Q504.5875,393.5234 504.075,393.7859 Q503.575,394.0484 503.175,394.6484 Q502.7875,395.2484 502.7875,396.0734 L502.7875,396.9484 Q502.7875,397.9359 503.5,398.5984 Q504.2125,399.2484 505.4875,399.2484 Q506.2375,399.2484 506.7625,399.0484 Q507.075,398.9234 507.4125,398.5734 Q507.625,398.3609 507.7375,398.2984 Q507.8625,398.2359 508.025,398.2359 Q508.2875,398.2359 508.4875,398.4484 Q508.7,398.6484 508.7,398.9234 Q508.7,399.1984 508.425,399.5234 Q508.025,399.9859 507.3875,400.2484 Q506.525,400.6109 505.4875,400.6109 Q504.275,400.6109 503.3125,400.1109 Q502.525,399.7109 501.975,398.8609 Q501.425,397.9984 501.425,396.9734 L501.425,396.0484 Q501.425,394.9859 501.9125,394.0734 Q502.4125,393.1484 503.2875,392.6609 Q504.1625,392.1609 505.15,392.1609 Q505.7375,392.1609 506.25,392.2984 Q506.775,392.4234 507.2125,392.7109 Z " fill="#000000"/><text fill="#000000" font-family="sans-serif" font-size="11.2" lengthAdjust="spacing" textLength="52" x="521.4" y="400.6484">HomeView</text><line style="stroke:#181818;stroke-width:0.4000000000000001;" x1="446.4" x2="622.4" y1="408.8109" y2="408.8109"/><line style="stroke:#181818;stroke-width:0.4000000000000001;" x1="446.4" x2="622.4" y1="415.2109" y2="415.2109"/><ellipse cx="454.4" cy="427.0594" fill="#84BE84" rx="2.4" ry="2.4" style="stroke:#038048;stroke-width:0.8000000000000002;"/><text fill="#000000" font-family="sans-serif" font-size="11.2" lengthAdjust="spacing" textLength="60" x="461.6" y="430.4969">HomeView()</text><ellipse cx="454.4" cy="441.9563" fill="#84BE84" rx="2.4" ry="2.4" style="stroke:#038048;stroke-width:0.8000000000000002;"/><text fill="#000000" font-family="sans-serif" font-size="11.2" lengthAdjust="spacing" textLength="85.6" x="461.6" y="445.3938">onViewInit(): void</text><ellipse cx="454.4" cy="456.8531" fill="#84BE84" rx="2.4" ry="2.4" style="stroke:#038048;stroke-width:0.8000000000000002;"/><text fill="#000000" font-family="sans-serif" font-size="11.2" lengthAdjust="spacing" textLength="156.8" x="461.6" y="460.2906">onKeyPressed(KeyEvent): void</text></g><!--class GameView--><g id="elem_GameView"><rect codeLine="56" fill="#F1F1F1" height="97.9875" id="GameView" rx="2" ry="2" style="stroke:#181818;stroke-width:0.4000000000000001;" width="164" x="651.6" y="376.0109"/><ellipse cx="703.4" cy="388.8109" fill="#ADD1B2" rx="8.8" ry="8.8" style="stroke:#181818;stroke-width:0.8000000000000002;"/><path d="M705.6125,385.5109 Q705.7375,385.3359 705.8875,385.2484 Q706.0375,385.1609 706.2125,385.1609 Q706.5125,385.1609 706.7,385.3734 Q706.8875,385.5734 706.8875,386.0609 L706.8875,387.2234 Q706.8875,387.7109 706.7,387.9234 Q706.5125,388.1359 706.2125,388.1359 Q705.9375,388.1359 705.775,387.9734 Q705.6125,387.8234 705.525,387.4109 Q705.4875,387.1234 705.3375,386.9734 Q705.075,386.6734 704.5875,386.4984 Q704.1,386.3234 703.6,386.3234 Q702.9875,386.3234 702.475,386.5859 Q701.975,386.8484 701.575,387.4484 Q701.1875,388.0484 701.1875,388.8734 L701.1875,389.7484 Q701.1875,390.7359 701.9,391.3984 Q702.6125,392.0484 703.8875,392.0484 Q704.6375,392.0484 705.1625,391.8484 Q705.475,391.7234 705.8125,391.3734 Q706.025,391.1609 706.1375,391.0984 Q706.2625,391.0359 706.425,391.0359 Q706.6875,391.0359 706.8875,391.2484 Q707.1,391.4484 707.1,391.7234 Q707.1,391.9984 706.825,392.3234 Q706.425,392.7859 705.7875,393.0484 Q704.925,393.4109 703.8875,393.4109 Q702.675,393.4109 701.7125,392.9109 Q700.925,392.5109 700.375,391.6609 Q699.825,390.7984 699.825,389.7734 L699.825,388.8484 Q699.825,387.7859 700.3125,386.8734 Q700.8125,385.9484 701.6875,385.4609 Q702.5625,384.9609 703.55,384.9609 Q704.1375,384.9609 704.65,385.0984 Q705.175,385.2234 705.6125,385.5109 Z " fill="#000000"/><text fill="#000000" font-family="sans-serif" font-size="11.2" lengthAdjust="spacing" textLength="53.6" x="719.8" y="393.4484">GameView</text><line style="stroke:#181818;stroke-width:0.4000000000000001;" x1="652.4" x2="814.8" y1="401.6109" y2="401.6109"/><line style="stroke:#181818;stroke-width:0.4000000000000001;" x1="652.4" x2="814.8" y1="408.0109" y2="408.0109"/><ellipse cx="660.4" cy="419.8594" fill="#84BE84" rx="2.4" ry="2.4" style="stroke:#038048;stroke-width:0.8000000000000002;"/><text fill="#000000" font-family="sans-serif" font-size="11.2" lengthAdjust="spacing" textLength="61.6" x="667.6" y="423.2969">GameView()</text><ellipse cx="660.4" cy="434.7563" fill="#84BE84" rx="2.4" ry="2.4" style="stroke:#038048;stroke-width:0.8000000000000002;"/><text fill="#000000" font-family="sans-serif" font-size="11.2" lengthAdjust="spacing" textLength="120.8" x="667.6" y="438.1938">onViewDisplayed(): void</text><rect fill="#F24D5C" height="4.8" style="stroke:#C82930;stroke-width:0.8000000000000002;" width="4.8" x="658" y="447.2531"/><text fill="#000000" font-family="sans-serif" font-size="11.2" lengthAdjust="spacing" textLength="143.2" x="667.6" y="453.0906">draw(Canvas, Number): void</text><ellipse cx="660.4" cy="464.55" fill="#84BE84" rx="2.4" ry="2.4" style="stroke:#038048;stroke-width:0.8000000000000002;"/><text fill="#000000" font-family="sans-serif" font-size="11.2" lengthAdjust="spacing" textLength="68.8" x="667.6" y="467.9875">render(): void</text></g><!--class Engine--><g id="elem_Engine"><rect codeLine="65" fill="#F1F1F1" height="68.1938" id="Engine" rx="2" ry="2" style="stroke:#181818;stroke-width:0.4000000000000001;" width="112" x="563.2" y="79.2109"/><ellipse cx="598.24" cy="92.0109" fill="#ADD1B2" rx="8.8" ry="8.8" style="stroke:#181818;stroke-width:0.8000000000000002;"/><path d="M600.4525,88.7109 Q600.5775,88.5359 600.7275,88.4484 Q600.8775,88.3609 601.0525,88.3609 Q601.3525,88.3609 601.54,88.5734 Q601.7275,88.7734 601.7275,89.2609 L601.7275,90.4234 Q601.7275,90.9109 601.54,91.1234 Q601.3525,91.3359 601.0525,91.3359 Q600.7775,91.3359 600.615,91.1734 Q600.4525,91.0234 600.365,90.6109 Q600.3275,90.3234 600.1775,90.1734 Q599.915,89.8734 599.4275,89.6984 Q598.94,89.5234 598.44,89.5234 Q597.8275,89.5234 597.315,89.7859 Q596.815,90.0484 596.415,90.6484 Q596.0275,91.2484 596.0275,92.0734 L596.0275,92.9484 Q596.0275,93.9359 596.74,94.5984 Q597.4525,95.2484 598.7275,95.2484 Q599.4775,95.2484 600.0025,95.0484 Q600.315,94.9234 600.6525,94.5734 Q600.865,94.3609 600.9775,94.2984 Q601.1025,94.2359 601.265,94.2359 Q601.5275,94.2359 601.7275,94.4484 Q601.94,94.6484 601.94,94.9234 Q601.94,95.1984 601.665,95.5234 Q601.265,95.9859 600.6275,96.2484 Q599.765,96.6109 598.7275,96.6109 Q597.515,96.6109 596.5525,96.1109 Q595.765,95.7109 595.215,94.8609 Q594.665,93.9984 594.665,92.9734 L594.665,92.0484 Q594.665,90.9859 595.1525,90.0734 Q595.6525,89.1484 596.5275,88.6609 Q597.4025,88.1609 598.39,88.1609 Q598.9775,88.1609 599.49,88.2984 Q600.015,88.4234 600.4525,88.7109 Z " fill="#000000"/><text fill="#000000" font-family="sans-serif" font-size="11.2" lengthAdjust="spacing" textLength="35.2" x="614.56" y="96.6484">Engine</text><line style="stroke:#181818;stroke-width:0.4000000000000001;" x1="564" x2="674.4" y1="104.8109" y2="104.8109"/><line style="stroke:#181818;stroke-width:0.4000000000000001;" x1="564" x2="674.4" y1="111.2109" y2="111.2109"/><ellipse cx="572" cy="123.0594" fill="#84BE84" rx="2.4" ry="2.4" style="stroke:#038048;stroke-width:0.8000000000000002;"/><text fill="#000000" font-family="sans-serif" font-size="11.2" lengthAdjust="spacing" textLength="91.2" x="579.2" y="126.4969">handle(long): void</text><ellipse cx="572" cy="137.9563" fill="#84BE84" rx="2.4" ry="2.4" style="stroke:#038048;stroke-width:0.8000000000000002;"/><text fill="#000000" font-family="sans-serif" font-size="11.2" lengthAdjust="spacing" textLength="57.6" x="579.2" y="141.3938">start(): void</text></g><!--class GameInterface--><g id="elem_GameInterface"><rect codeLine="70" fill="#F1F1F1" height="53.2969" id="GameInterface" rx="2" ry="2" style="stroke:#181818;stroke-width:0.4000000000000001;" width="100.8" x="722.4" y="86.4109"/><ellipse cx="734.4" cy="99.2109" fill="#B4A7E5" rx="8.8" ry="8.8" style="stroke:#181818;stroke-width:0.8000000000000002;"/><path d="M735.1625,96.5234 L735.1625,101.8484 L736.5375,101.8484 Q737.025,101.8484 737.2375,102.0359 Q737.45,102.2234 737.45,102.5359 Q737.45,102.8359 737.2375,103.0234 Q737.025,103.2109 736.5375,103.2109 L732.425,103.2109 Q731.9375,103.2109 731.725,103.0234 Q731.5125,102.8359 731.5125,102.5234 Q731.5125,102.2234 731.725,102.0359 Q731.9375,101.8484 732.425,101.8484 L733.8,101.8484 L733.8,96.5234 L732.425,96.5234 Q731.9375,96.5234 731.725,96.3359 Q731.5125,96.1484 731.5125,95.8359 Q731.5125,95.5359 731.725,95.3484 Q731.9375,95.1609 732.425,95.1609 L736.5375,95.1609 Q737.025,95.1609 737.2375,95.3484 Q737.45,95.5359 737.45,95.8359 Q737.45,96.1484 737.2375,96.3359 Q737.025,96.5234 736.5375,96.5234 L735.1625,96.5234 Z " fill="#000000"/><text fill="#000000" font-family="sans-serif" font-size="11.2" font-style="italic" lengthAdjust="spacing" textLength="75.2" x="745.6" y="103.8484">GameInterface</text><line style="stroke:#181818;stroke-width:0.4000000000000001;" x1="723.2" x2="822.4" y1="112.0109" y2="112.0109"/><line style="stroke:#181818;stroke-width:0.4000000000000001;" x1="723.2" x2="822.4" y1="118.4109" y2="118.4109"/><ellipse cx="731.2" cy="130.2594" fill="#84BE84" rx="2.4" ry="2.4" style="stroke:#038048;stroke-width:0.8000000000000002;"/><text fill="#000000" font-family="sans-serif" font-size="11.2" lengthAdjust="spacing" textLength="68.8" x="738.4" y="133.6969">render(): void</text></g><!--link View to ViewController--><g id="link_View_ViewController"><path codeLine="76" d="M403.288,184.4749 C388.624,210.3629 373.208,237.5789 363.328,255.0269 " fill="none" id="View-ViewController" style="stroke:#181818;stroke-width:0.8000000000000002;"/><polygon fill="none" points="388.8,220.1273,392,223.3273,388.8,226.5273,385.6,223.3273" style="stroke:#B38D22;stroke-width:0.8000000000000002;"/><text fill="#000000" font-family="sans-serif" font-size="10.4" lengthAdjust="spacing" textLength="42.4" x="394.4" y="228.0336">controller</text><text fill="#000000" font-family="sans-serif" font-size="10.4" lengthAdjust="spacing" textLength="5.6" x="359.6117" y="246.2956">1</text></g><!--link ViewManager to View--><g id="link_ViewManager_View"><path codeLine="77" d="M287.848,113.2109 C308.48,113.2109 330.408,113.2109 351.08,113.2109 " fill="none" id="ViewManager-View" style="stroke:#181818;stroke-width:0.8000000000000002;"/><rect fill="none" height="4.8" style="stroke:#C82930;stroke-width:0.8000000000000002;" width="4.8" x="303.8" y="101.3273"/><text fill="#000000" font-family="sans-serif" font-size="10.4" lengthAdjust="spacing" textLength="24.8" x="311.8" y="107.6336">views</text><text fill="#000000" font-family="sans-serif" font-size="10.4" lengthAdjust="spacing" textLength="4" x="340.7563" y="110.3752">*</text></g><!--reverse link ViewController to HomeViewController--><g id="link_ViewController_HomeViewController"><path codeLine="80" d="M309.4534,301.2574 C294.8294,310.2494 289.576,313.9149 274.4,324.8109 C258.848,335.9789 242.648,348.4509 227.32,360.6909 " fill="none" id="ViewController-backto-HomeViewController" style="stroke:#181818;stroke-width:0.8000000000000002;"/><polygon fill="none" points="321.72,293.7149,306.9392,297.1686,311.9675,305.3463,321.72,293.7149" style="stroke:#181818;stroke-width:0.8000000000000002;"/></g><!--reverse link View to HomeView--><g id="link_View_HomeView"><path codeLine="81" d="M468.072,198.5536 C486.104,259.8496 507.504,332.5869 522.352,383.0509 " fill="none" id="View-backto-HomeView" style="stroke:#181818;stroke-width:0.8000000000000002;"/><polygon fill="none" points="464.008,184.7389,463.4671,199.9082,472.6769,197.1989,464.008,184.7389" style="stroke:#181818;stroke-width:0.8000000000000002;"/></g><!--reverse link ViewController to GameViewController--><g id="link_ViewController_GameViewController"><path codeLine="82" d="M352.8,308.1549 C352.8,332.3869 352.8,360.8349 352.8,390.7549 " fill="none" id="ViewController-backto-GameViewController" style="stroke:#181818;stroke-width:0.8000000000000002;"/><polygon fill="none" points="352.8,293.7549,348,308.1549,357.6,308.1549,352.8,293.7549" style="stroke:#181818;stroke-width:0.8000000000000002;"/></g><!--reverse link View to GameView--><g id="link_View_GameView"><path codeLine="83" d="M519.3004,195.2484 C574.1244,253.7764 640.68,324.8189 688.616,375.9949 " fill="none" id="View-backto-GameView" style="stroke:#181818;stroke-width:0.8000000000000002;"/><polygon fill="none" points="509.456,184.7389,515.7972,198.5298,522.8035,191.9669,509.456,184.7389" style="stroke:#181818;stroke-width:0.8000000000000002;"/></g><!--reverse link GameInterface to GameView--><g id="link_GameInterface_GameView"><path codeLine="86" d="M768.3715,154.4839 C764.0755,193.3879 757.152,254.4589 748.8,318.4109 C746.344,337.2349 743.416,357.9149 740.792,375.9469 " fill="none" id="GameInterface-backto-GameView" style="stroke:#181818;stroke-width:0.8000000000000002;stroke-dasharray:7.0,7.0;"/><polygon fill="none" points="769.952,140.1709,763.6005,153.9571,773.1425,155.0108,769.952,140.1709" style="stroke:#181818;stroke-width:0.8000000000000002;"/></g><!--link Engine to GameInterface--><g id="link_Engine_GameInterface"><path codeLine="87" d="M675.304,113.2109 C690.648,113.2109 707.176,113.2109 722.192,113.2109 " fill="none" id="Engine-GameInterface" style="stroke:#181818;stroke-width:0.8000000000000002;"/><rect fill="none" height="4.8" style="stroke:#C82930;stroke-width:0.8000000000000002;" width="4.8" x="691.6" y="101.3273"/><text fill="#000000" font-family="sans-serif" font-size="10.4" lengthAdjust="spacing" textLength="8" x="699.6" y="107.6336">ui</text><text fill="#000000" font-family="sans-serif" font-size="10.4" lengthAdjust="spacing" textLength="5.6" x="710.4167" y="110.0783">1</text></g><!--SRC=[bLHDJnin4Btlhx32eKk38_MQGoL80qGLBI8HFJkRmLXnxCZsXgAK_zwnT-Cu-m5Y3xlslZUUyPkFBIlMZ0FXfI3xZE33bjOPLZXII6OjUHJmKYF-EIFtp81on6ZjubzAut98EBW71FFpSSrDC51iAS73qnqYrfDsMgmIYbRUvKm9rml-47OhsIkiEXa_uVNUWBK8upBuwQ4zW0JMntlB-kIOQEMCbX8CsTSiKEM6FCwcV-Q9LhU_xwPnStDPRsgBut5tJ646J698oTuwvaJnHeJ2bIfWd58J8g8SmRd_TAM3fdRvUQ90T87vcjLUl9vTVeR4WWi-yl1kwsc02-l0UEiy274HJcep5Ti9pXmiTCLhCz3NTIdbl300AbzgZLbI7QdPrhMxGpysaQ-IzbPle9cjIAcauMm32-5a4D08nHluKunYyWp5-ah_7PF3wfHAJxPdM5vNfNDQJQGergqgFN2EjrnepYLq4eCUDuT8yohGNk9rA-Gk0HCHZu9v7ny8LZ2rOnP52D_t90XZeABvMpKCMhuFoMfu74OWATqFnyGd1a6l2Ar03a1F8FqZgL9kPTXBNgbmGNwLcoMOxh1nOAvyfxO2xIXyK5meQ5N-jFcxElcPgHKMaDIzvUEOSVax4Wc57Vx42WXgpE9k_xaxu8b1Oae7tmRDYJh6pYZYDai791ryhUX8ebNNPzcNUj7HxhJSqd_V6muYCOMpZjhljexraLfZ45KgZl1eL6v7Y9y8bTMP2VS-bT3Vg1JPVm00]--></g></svg>