<?xml version="1.0" encoding="us-ascii" standalone="no"?><svg xmlns="http://www.w3.org/2000/svg" xmlns:xlink="http://www.w3.org/1999/xlink" contentStyleType="text/css" height="943px" preserveAspectRatio="none" style="width:2003px;height:943px;background:#FFFFFF;" version="1.1" viewBox="0 0 2003 943" width="2003px" zoomAndPan="magnify"><defs/><g><!--cluster Escape--><g id="cluster_Escape"><path d="M8.5,6 L60.5,6 A3.75,3.75 0 0 1 63,8.5 L70,29.6094 L1993.5,29.6094 A2.5,2.5 0 0 1 1996,32.1094 L1996,933.5 A2.5,2.5 0 0 1 1993.5,936 L8.5,936 A2.5,2.5 0 0 1 6,933.5 L6,8.5 A2.5,2.5 0 0 1 8.5,6 " fill="none" style="stroke:#000000;stroke-width:1.5;"/><line style="stroke:#000000;stroke-width:1.5;" x1="6" x2="70" y1="29.6094" y2="29.6094"/><text fill="#000000" font-family="sans-serif" font-size="14" font-weight="bold" lengthAdjust="spacing" textLength="51" x="10" y="22.5332">Escape</text></g><!--cluster Monde--><g id="cluster_Monde"><path d="M32.5,145 L82.5,145 A3.75,3.75 0 0 1 85,147.5 L92,168.6094 L1631.5,168.6094 A2.5,2.5 0 0 1 1634,171.1094 L1634,909.5 A2.5,2.5 0 0 1 1631.5,912 L32.5,912 A2.5,2.5 0 0 1 30,909.5 L30,147.5 A2.5,2.5 0 0 1 32.5,145 " fill="none" style="stroke:#000000;stroke-width:1.5;"/><line style="stroke:#000000;stroke-width:1.5;" x1="30" x2="92" y1="168.6094" y2="168.6094"/><text fill="#000000" font-family="sans-serif" font-size="14" font-weight="bold" lengthAdjust="spacing" textLength="49" x="34" y="161.5332">Monde</text></g><!--cluster Outils--><g id="cluster_Outils"><path d="M1660.5,400.5 L1702.5,400.5 A3.75,3.75 0 0 1 1705,403 L1712,424.1094 L1969.5,424.1094 A2.5,2.5 0 0 1 1972,426.6094 L1972,568 A2.5,2.5 0 0 1 1969.5,570.5 L1660.5,570.5 A2.5,2.5 0 0 1 1658,568 L1658,403 A2.5,2.5 0 0 1 1660.5,400.5 " fill="none" style="stroke:#000000;stroke-width:1.5;"/><line style="stroke:#000000;stroke-width:1.5;" x1="1658" x2="1712" y1="424.1094" y2="424.1094"/><text fill="#000000" font-family="sans-serif" font-size="14" font-weight="bold" lengthAdjust="spacing" textLength="41" x="1662" y="417.0332">Outils</text></g><!--class Escape--><g id="elem_Escape"><rect codeLine="76" fill="#F1F1F1" height="79.2188" id="Escape" rx="2.5" ry="2.5" style="stroke:#181818;stroke-width:0.5;" width="90" x="1193" y="42"/><ellipse cx="1212.95" cy="58" fill="#ADD1B2" rx="11" ry="11" style="stroke:#181818;stroke-width:1.0;"/><path d="M1214.95,54.5 Q1215.1531,54 1215.3875,53.75 Q1215.6219,53.5 1215.8875,53.5 Q1216.3563,53.5 1216.6531,53.7813 Q1216.95,54.0625 1216.95,54.7188 L1216.95,56.2813 Q1216.95,56.9375 1216.6688,57.2188 Q1216.3875,57.5 1215.95,57.5 Q1215.5594,57.5 1215.3094,57.3281 Q1215.0594,57.1563 1214.95,56.7031 Q1214.9031,56.3906 1214.7313,56.2188 Q1214.4188,55.8906 1213.8563,55.7031 Q1213.2938,55.5 1212.7313,55.5 Q1212.0281,55.5 1211.4344,55.7813 Q1210.8563,56.0625 1210.4031,56.6875 Q1209.95,57.3125 1209.95,58.1719 L1209.95,59.0938 Q1209.95,60.125 1210.7938,60.8125 Q1211.6375,61.5 1213.1375,61.5 Q1214.0281,61.5 1214.6531,61.2969 Q1215.0125,61.1875 1215.4188,60.8281 Q1215.6844,60.625 1215.825,60.5625 Q1215.9656,60.5 1216.1375,60.5 Q1216.4656,60.5 1216.7,60.7656 Q1216.95,61.0156 1216.95,61.375 Q1216.95,61.7188 1216.6063,62.125 Q1216.1063,62.7188 1215.3094,63.0469 Q1214.2625,63.5 1212.9813,63.5 Q1211.4813,63.5 1210.2781,62.9063 Q1209.3094,62.4375 1208.6219,61.4219 Q1207.95,60.4063 1207.95,59.2031 L1207.95,58.1094 Q1207.95,56.8594 1208.5438,55.7656 Q1209.1531,54.6719 1210.2,54.0938 Q1211.2625,53.5 1212.45,53.5 Q1213.1688,53.5 1213.7938,53.75 Q1214.4188,54 1214.95,54.5 Z " fill="#000000"/><text fill="#000000" font-family="sans-serif" font-size="14" lengthAdjust="spacing" textLength="47" x="1228.05" y="63.7285">Escape</text><line style="stroke:#181818;stroke-width:0.5;" x1="1194" x2="1282" y1="74" y2="74"/><ellipse cx="1204" cy="109.9141" fill="#84BE84" rx="3" ry="3" style="stroke:#038048;stroke-width:1.0;"/><text fill="#000000" font-family="sans-serif" font-size="14" lengthAdjust="spacing" textLength="57" x="1213" y="114.1426">Escape()</text><line style="stroke:#181818;stroke-width:1.0;stroke-dasharray:1.0,2.0;" x1="1194" x2="1197" y1="90.8047" y2="90.8047"/><text fill="#000000" font-family="sans-serif" font-size="14" lengthAdjust="spacing" textLength="82" x="1197" y="96.0332">Constructeur</text><line style="stroke:#181818;stroke-width:1.0;stroke-dasharray:1.0,2.0;" x1="1279" x2="1282" y1="90.8047" y2="90.8047"/></g><!--class ElementMonde--><g id="elem_ElementMonde"><rect codeLine="5" fill="#F1F1F1" height="167.2656" id="ElementMonde" rx="2.5" ry="2.5" style="stroke:#181818;stroke-width:0.5;" width="127" x="831.5" y="412"/><ellipse cx="846.5" cy="428" fill="#A9DCDF" rx="11" ry="11" style="stroke:#181818;stroke-width:1.0;"/><path d="M848.25,429.5 L844.9531,429.5 L844.5156,430.5 L844.5156,430.5 L844.9844,430.5 L845.5,431.125 L845.5,431.5 L845.5,431.875 L844.9844,432.5 L844.5156,432.5 L842.625,432.5 L842.0156,432.5 L841.5,431.875 L841.5,431.5 L841.5,431.125 L842.0156,430.5 L842.625,430.5 L844.9375,424.5 L844.0625,424.5 L843.0156,424.5 L842.5,423.875 L842.5,423.5 L842.5,423.125 L843.0156,422.5 L844.0625,422.5 L847.7344,422.5 L850.4219,430.5 L850.9844,430.5 L850.9844,430.5 L851.5,431.125 L851.5,431.5 L851.5,431.875 L850.9844,432.5 L850.4219,432.5 L848.5313,432.5 L848.0156,432.5 L847.5,431.875 L847.5,431.5 L847.5,431.125 L848.0156,430.5 L848.5313,430.5 L848.5313,430.5 L848.25,429.5 Z M847.7031,427.5 L846.5,423.9219 L845.4688,427.5 L847.7031,427.5 Z " fill="#000000"/><text fill="#000000" font-family="sans-serif" font-size="14" font-style="italic" lengthAdjust="spacing" textLength="95" x="860.5" y="433.7285">ElementMonde</text><line style="stroke:#181818;stroke-width:0.5;" x1="832.5" x2="957.5" y1="444" y2="444"/><polygon fill="none" points="842.5,453.3047,846.5,457.3047,842.5,461.3047,838.5,457.3047" style="stroke:#B38D22;stroke-width:1.0;"/><text fill="#000000" font-family="sans-serif" font-size="14" lengthAdjust="spacing" textLength="37" x="851.5" y="462.5332">float x</text><polygon fill="none" points="842.5,470.9141,846.5,474.9141,842.5,478.9141,838.5,474.9141" style="stroke:#B38D22;stroke-width:1.0;"/><text fill="#000000" font-family="sans-serif" font-size="14" lengthAdjust="spacing" textLength="38" x="851.5" y="480.1426">float y</text><polygon fill="none" points="842.5,488.5234,846.5,492.5234,842.5,496.5234,838.5,492.5234" style="stroke:#B38D22;stroke-width:1.0;"/><text fill="#000000" font-family="sans-serif" font-size="14" lengthAdjust="spacing" textLength="68" x="851.5" y="497.752">int hauteur</text><polygon fill="none" points="842.5,506.1328,846.5,510.1328,842.5,514.1328,838.5,510.1328" style="stroke:#B38D22;stroke-width:1.0;"/><text fill="#000000" font-family="sans-serif" font-size="14" lengthAdjust="spacing" textLength="64" x="851.5" y="515.3613">int largeur</text><ellipse cx="842.5" cy="550.3516" fill="#84BE84" rx="3" ry="3" style="stroke:#038048;stroke-width:1.0;"/><text fill="#000000" font-family="sans-serif" font-size="14" lengthAdjust="spacing" textLength="53" x="851.5" y="554.5801">Monde()</text><text fill="#000000" font-family="sans-serif" font-size="14" lengthAdjust="spacing" textLength="4" x="851.5" y="572.1895">&#160;</text><line style="stroke:#181818;stroke-width:1.0;stroke-dasharray:1.0,2.0;" x1="832.5" x2="854" y1="531.2422" y2="531.2422"/><text fill="#000000" font-family="sans-serif" font-size="14" lengthAdjust="spacing" textLength="82" x="854" y="536.4707">Constructeur</text><line style="stroke:#181818;stroke-width:1.0;stroke-dasharray:1.0,2.0;" x1="936" x2="957.5" y1="531.2422" y2="531.2422"/></g><!--class Terrain--><g id="elem_Terrain"><rect codeLine="14" fill="#F1F1F1" height="136.0469" id="Terrain" rx="2.5" ry="2.5" style="stroke:#181818;stroke-width:0.5;" width="313" x="384.5" y="427.5"/><ellipse cx="513.75" cy="443.5" fill="#A9DCDF" rx="11" ry="11" style="stroke:#181818;stroke-width:1.0;"/><path d="M515.5,445 L512.2031,445 L511.7656,446 L511.7656,446 L512.2344,446 L512.75,446.625 L512.75,447 L512.75,447.375 L512.2344,448 L511.7656,448 L509.875,448 L509.2656,448 L508.75,447.375 L508.75,447 L508.75,446.625 L509.2656,446 L509.875,446 L512.1875,440 L511.3125,440 L510.2656,440 L509.75,439.375 L509.75,439 L509.75,438.625 L510.2656,438 L511.3125,438 L514.9844,438 L517.6719,446 L518.2344,446 L518.2344,446 L518.75,446.625 L518.75,447 L518.75,447.375 L518.2344,448 L517.6719,448 L515.7813,448 L515.2656,448 L514.75,447.375 L514.75,447 L514.75,446.625 L515.2656,446 L515.7813,446 L515.7813,446 L515.5,445 Z M514.9531,443 L513.75,439.4219 L512.7188,443 L514.9531,443 Z " fill="#000000"/><text fill="#000000" font-family="sans-serif" font-size="14" font-style="italic" lengthAdjust="spacing" textLength="46" x="534.25" y="449.2285">Terrain</text><line style="stroke:#181818;stroke-width:0.5;" x1="385.5" x2="696.5" y1="459.5" y2="459.5"/><ellipse cx="395.5" cy="495.4141" fill="#84BE84" rx="3" ry="3" style="stroke:#038048;stroke-width:1.0;"/><text fill="#000000" font-family="sans-serif" font-size="14" lengthAdjust="spacing" textLength="287" x="404.5" y="499.6426">Terrain(float x, float y, int hauteur, int largeur)</text><line style="stroke:#181818;stroke-width:1.0;stroke-dasharray:1.0,2.0;" x1="385.5" x2="500" y1="476.3047" y2="476.3047"/><text fill="#000000" font-family="sans-serif" font-size="14" lengthAdjust="spacing" textLength="82" x="500" y="481.5332">Constructeur</text><line style="stroke:#181818;stroke-width:1.0;stroke-dasharray:1.0,2.0;" x1="582" x2="696.5" y1="476.3047" y2="476.3047"/><ellipse cx="395.5" cy="534.6328" fill="#84BE84" rx="3" ry="3" style="stroke:#038048;stroke-width:1.0;"/><text fill="#000000" font-family="sans-serif" font-size="14" lengthAdjust="spacing" textLength="160" x="404.5" y="538.8613">boolean estTraversable()</text><text fill="#000000" font-family="sans-serif" font-size="14" lengthAdjust="spacing" textLength="4" x="404.5" y="556.4707">&#160;</text><line style="stroke:#181818;stroke-width:1.0;stroke-dasharray:1.0,2.0;" x1="385.5" x2="510" y1="515.5234" y2="515.5234"/><text fill="#000000" font-family="sans-serif" font-size="14" lengthAdjust="spacing" textLength="62" x="510" y="520.752">M&#233;thodes</text><line style="stroke:#181818;stroke-width:1.0;stroke-dasharray:1.0,2.0;" x1="572" x2="696.5" y1="515.5234" y2="515.5234"/></g><!--class Mur--><g id="elem_Mur"><rect codeLine="22" fill="#F1F1F1" height="118.4375" id="Mur" rx="2.5" ry="2.5" style="stroke:#181818;stroke-width:0.5;" width="291" x="46.5" y="639"/><ellipse cx="175.75" cy="655" fill="#ADD1B2" rx="11" ry="11" style="stroke:#181818;stroke-width:1.0;"/><path d="M177.75,651.5 Q177.9531,651 178.1875,650.75 Q178.4219,650.5 178.6875,650.5 Q179.1563,650.5 179.4531,650.7813 Q179.75,651.0625 179.75,651.7188 L179.75,653.2813 Q179.75,653.9375 179.4688,654.2188 Q179.1875,654.5 178.75,654.5 Q178.3594,654.5 178.1094,654.3281 Q177.8594,654.1563 177.75,653.7031 Q177.7031,653.3906 177.5313,653.2188 Q177.2188,652.8906 176.6563,652.7031 Q176.0938,652.5 175.5313,652.5 Q174.8281,652.5 174.2344,652.7813 Q173.6563,653.0625 173.2031,653.6875 Q172.75,654.3125 172.75,655.1719 L172.75,656.0938 Q172.75,657.125 173.5938,657.8125 Q174.4375,658.5 175.9375,658.5 Q176.8281,658.5 177.4531,658.2969 Q177.8125,658.1875 178.2188,657.8281 Q178.4844,657.625 178.625,657.5625 Q178.7656,657.5 178.9375,657.5 Q179.2656,657.5 179.5,657.7656 Q179.75,658.0156 179.75,658.375 Q179.75,658.7188 179.4063,659.125 Q178.9063,659.7188 178.1094,660.0469 Q177.0625,660.5 175.7813,660.5 Q174.2813,660.5 173.0781,659.9063 Q172.1094,659.4375 171.4219,658.4219 Q170.75,657.4063 170.75,656.2031 L170.75,655.1094 Q170.75,653.8594 171.3438,652.7656 Q171.9531,651.6719 173,651.0938 Q174.0625,650.5 175.25,650.5 Q175.9688,650.5 176.5938,650.75 Q177.2188,651 177.75,651.5 Z " fill="#000000"/><text fill="#000000" font-family="sans-serif" font-size="14" lengthAdjust="spacing" textLength="24" x="196.25" y="660.7285">Mur</text><line style="stroke:#181818;stroke-width:0.5;" x1="47.5" x2="336.5" y1="671" y2="671"/><ellipse cx="57.5" cy="706.9141" fill="#84BE84" rx="3" ry="3" style="stroke:#038048;stroke-width:1.0;"/><text fill="#000000" font-family="sans-serif" font-size="14" lengthAdjust="spacing" textLength="265" x="66.5" y="711.1426">Mur(float x, float y, int hauteur, int largeur)</text><line style="stroke:#181818;stroke-width:1.0;stroke-dasharray:1.0,2.0;" x1="47.5" x2="151" y1="687.8047" y2="687.8047"/><text fill="#000000" font-family="sans-serif" font-size="14" lengthAdjust="spacing" textLength="82" x="151" y="693.0332">Constructeur</text><line style="stroke:#181818;stroke-width:1.0;stroke-dasharray:1.0,2.0;" x1="233" x2="336.5" y1="687.8047" y2="687.8047"/><ellipse cx="57.5" cy="746.1328" fill="#84BE84" rx="3" ry="3" style="stroke:#038048;stroke-width:1.0;"/><text fill="#000000" font-family="sans-serif" font-size="14" lengthAdjust="spacing" textLength="160" x="66.5" y="750.3613">boolean estTraversable()</text><line style="stroke:#181818;stroke-width:1.0;stroke-dasharray:1.0,2.0;" x1="47.5" x2="161" y1="727.0234" y2="727.0234"/><text fill="#000000" font-family="sans-serif" font-size="14" lengthAdjust="spacing" textLength="62" x="161" y="732.252">M&#233;thodes</text><line style="stroke:#181818;stroke-width:1.0;stroke-dasharray:1.0,2.0;" x1="223" x2="336.5" y1="727.0234" y2="727.0234"/></g><!--class Sol--><g id="elem_Sol"><rect codeLine="29" fill="#F1F1F1" height="79.2188" id="Sol" rx="2.5" ry="2.5" style="stroke:#181818;stroke-width:0.5;" width="287" x="372.5" y="658.5"/><ellipse cx="501.75" cy="674.5" fill="#ADD1B2" rx="11" ry="11" style="stroke:#181818;stroke-width:1.0;"/><path d="M503.75,671 Q503.9531,670.5 504.1875,670.25 Q504.4219,670 504.6875,670 Q505.1563,670 505.4531,670.2813 Q505.75,670.5625 505.75,671.2188 L505.75,672.7813 Q505.75,673.4375 505.4688,673.7188 Q505.1875,674 504.75,674 Q504.3594,674 504.1094,673.8281 Q503.8594,673.6563 503.75,673.2031 Q503.7031,672.8906 503.5313,672.7188 Q503.2188,672.3906 502.6563,672.2031 Q502.0938,672 501.5313,672 Q500.8281,672 500.2344,672.2813 Q499.6563,672.5625 499.2031,673.1875 Q498.75,673.8125 498.75,674.6719 L498.75,675.5938 Q498.75,676.625 499.5938,677.3125 Q500.4375,678 501.9375,678 Q502.8281,678 503.4531,677.7969 Q503.8125,677.6875 504.2188,677.3281 Q504.4844,677.125 504.625,677.0625 Q504.7656,677 504.9375,677 Q505.2656,677 505.5,677.2656 Q505.75,677.5156 505.75,677.875 Q505.75,678.2188 505.4063,678.625 Q504.9063,679.2188 504.1094,679.5469 Q503.0625,680 501.7813,680 Q500.2813,680 499.0781,679.4063 Q498.1094,678.9375 497.4219,677.9219 Q496.75,676.9063 496.75,675.7031 L496.75,674.6094 Q496.75,673.3594 497.3438,672.2656 Q497.9531,671.1719 499,670.5938 Q500.0625,670 501.25,670 Q501.9688,670 502.5938,670.25 Q503.2188,670.5 503.75,671 Z " fill="#000000"/><text fill="#000000" font-family="sans-serif" font-size="14" lengthAdjust="spacing" textLength="20" x="522.25" y="680.2285">Sol</text><line style="stroke:#181818;stroke-width:0.5;" x1="373.5" x2="658.5" y1="690.5" y2="690.5"/><ellipse cx="383.5" cy="726.4141" fill="#84BE84" rx="3" ry="3" style="stroke:#038048;stroke-width:1.0;"/><text fill="#000000" font-family="sans-serif" font-size="14" lengthAdjust="spacing" textLength="261" x="392.5" y="730.6426">Sol(float x, float y, int hauteur, int largeur)</text><line style="stroke:#181818;stroke-width:1.0;stroke-dasharray:1.0,2.0;" x1="373.5" x2="475" y1="707.3047" y2="707.3047"/><text fill="#000000" font-family="sans-serif" font-size="14" lengthAdjust="spacing" textLength="82" x="475" y="712.5332">Constructeur</text><line style="stroke:#181818;stroke-width:1.0;stroke-dasharray:1.0,2.0;" x1="557" x2="658.5" y1="707.3047" y2="707.3047"/></g><!--class Personnage--><g id="elem_Personnage"><rect codeLine="35" fill="#F1F1F1" height="136.0469" id="Personnage" rx="2.5" ry="2.5" style="stroke:#181818;stroke-width:0.5;" width="391" x="1042.5" y="427.5"/><ellipse cx="1195.25" cy="443.5" fill="#A9DCDF" rx="11" ry="11" style="stroke:#181818;stroke-width:1.0;"/><path d="M1197,445 L1193.7031,445 L1193.2656,446 L1193.2656,446 L1193.7344,446 L1194.25,446.625 L1194.25,447 L1194.25,447.375 L1193.7344,448 L1193.2656,448 L1191.375,448 L1190.7656,448 L1190.25,447.375 L1190.25,447 L1190.25,446.625 L1190.7656,446 L1191.375,446 L1193.6875,440 L1192.8125,440 L1191.7656,440 L1191.25,439.375 L1191.25,439 L1191.25,438.625 L1191.7656,438 L1192.8125,438 L1196.4844,438 L1199.1719,446 L1199.7344,446 L1199.7344,446 L1200.25,446.625 L1200.25,447 L1200.25,447.375 L1199.7344,448 L1199.1719,448 L1197.2813,448 L1196.7656,448 L1196.25,447.375 L1196.25,447 L1196.25,446.625 L1196.7656,446 L1197.2813,446 L1197.2813,446 L1197,445 Z M1196.4531,443 L1195.25,439.4219 L1194.2188,443 L1196.4531,443 Z " fill="#000000"/><text fill="#000000" font-family="sans-serif" font-size="14" font-style="italic" lengthAdjust="spacing" textLength="77" x="1215.75" y="449.2285">Personnage</text><line style="stroke:#181818;stroke-width:0.5;" x1="1043.5" x2="1432.5" y1="459.5" y2="459.5"/><polygon fill="none" points="1053.5,468.8047,1057.5,472.8047,1053.5,476.8047,1049.5,472.8047" style="stroke:#B38D22;stroke-width:1.0;"/><text fill="#000000" font-family="sans-serif" font-size="14" lengthAdjust="spacing" textLength="75" x="1062.5" y="478.0332">float vitesse</text><ellipse cx="1053.5" cy="513.0234" fill="#84BE84" rx="3" ry="3" style="stroke:#038048;stroke-width:1.0;"/><text fill="#000000" font-family="sans-serif" font-size="14" lengthAdjust="spacing" textLength="365" x="1062.5" y="517.252">Personnage(int x, int y, int largeur, int hauteur, int vitesse)</text><line style="stroke:#181818;stroke-width:1.0;stroke-dasharray:1.0,2.0;" x1="1043.5" x2="1197" y1="493.9141" y2="493.9141"/><text fill="#000000" font-family="sans-serif" font-size="14" lengthAdjust="spacing" textLength="82" x="1197" y="499.1426">Constructeur</text><line style="stroke:#181818;stroke-width:1.0;stroke-dasharray:1.0,2.0;" x1="1279" x2="1432.5" y1="493.9141" y2="493.9141"/><ellipse cx="1053.5" cy="552.2422" fill="#84BE84" rx="3" ry="3" style="stroke:#038048;stroke-width:1.0;"/><text fill="#000000" font-family="sans-serif" font-size="14" lengthAdjust="spacing" textLength="274" x="1062.5" y="556.4707">d&#233;placer(TypeMouvement typeMouvement)</text><line style="stroke:#181818;stroke-width:1.0;stroke-dasharray:1.0,2.0;" x1="1043.5" x2="1207" y1="533.1328" y2="533.1328"/><text fill="#000000" font-family="sans-serif" font-size="14" lengthAdjust="spacing" textLength="62" x="1207" y="538.3613">M&#233;thodes</text><line style="stroke:#181818;stroke-width:1.0;stroke-dasharray:1.0,2.0;" x1="1269" x2="1432.5" y1="533.1328" y2="533.1328"/></g><!--class TypeMouvement--><g id="elem_TypeMouvement"><rect codeLine="43" fill="#F1F1F1" height="118.4375" id="TypeMouvement" rx="2.5" ry="2.5" style="stroke:#181818;stroke-width:0.5;" width="137" x="1480.5" y="639"/><ellipse cx="1495.5" cy="655" fill="#EB937F" rx="11" ry="11" style="stroke:#181818;stroke-width:1.0;"/><path d="M1494,656 L1494,658 L1498,658 L1498,657 L1498,656.5156 L1498.625,656 L1499,656 L1499.375,656 L1500,656.5156 L1500,657 L1500,660 L1492,660 L1491.5156,660 L1491,659.375 L1491,659 L1491,658.625 L1491.5156,658 L1492,658 L1492,658 L1492,652 L1492,652 L1491.5156,652 L1491,651.375 L1491,651 L1491,650.625 L1491.5156,650 L1492,650 L1500,650 L1500,653 L1500,653.4844 L1499.375,654 L1499,654 L1498.625,654 L1498,653.4844 L1498,653 L1498,652 L1494,652 L1494,654 L1495,654 L1495,653.5156 L1495,653.5156 L1495.625,653 L1496,653 L1496.375,653 L1497,653.5156 L1497,654 L1497,656 L1497,656.4844 L1496.375,657 L1496.375,657 L1496,657 L1495.625,657 L1495,656.4844 L1495,656.4844 L1495,656 L1494,656 Z " fill="#000000"/><text fill="#000000" font-family="sans-serif" font-size="14" lengthAdjust="spacing" textLength="105" x="1509.5" y="660.7285">TypeMouvement</text><line style="stroke:#181818;stroke-width:0.5;" x1="1481.5" x2="1616.5" y1="671" y2="671"/><text fill="#000000" font-family="sans-serif" font-size="14" lengthAdjust="spacing" textLength="42" x="1486.5" y="689.5332">RIGHT</text><text fill="#000000" font-family="sans-serif" font-size="14" lengthAdjust="spacing" textLength="35" x="1486.5" y="707.1426">LEFT</text><text fill="#000000" font-family="sans-serif" font-size="14" lengthAdjust="spacing" textLength="29" x="1486.5" y="724.752">TOP</text><text fill="#000000" font-family="sans-serif" font-size="14" lengthAdjust="spacing" textLength="43" x="1486.5" y="742.3613">DOWN</text><line style="stroke:#181818;stroke-width:0.5;" x1="1481.5" x2="1616.5" y1="749.4375" y2="749.4375"/></g><!--class Heros--><g id="elem_Heros"><rect codeLine="50" fill="#F1F1F1" height="79.2188" id="Heros" rx="2.5" ry="2.5" style="stroke:#181818;stroke-width:0.5;" width="351" x="694.5" y="658.5"/><ellipse cx="847.25" cy="674.5" fill="#ADD1B2" rx="11" ry="11" style="stroke:#181818;stroke-width:1.0;"/><path d="M849.25,671 Q849.4531,670.5 849.6875,670.25 Q849.9219,670 850.1875,670 Q850.6563,670 850.9531,670.2813 Q851.25,670.5625 851.25,671.2188 L851.25,672.7813 Q851.25,673.4375 850.9688,673.7188 Q850.6875,674 850.25,674 Q849.8594,674 849.6094,673.8281 Q849.3594,673.6563 849.25,673.2031 Q849.2031,672.8906 849.0313,672.7188 Q848.7188,672.3906 848.1563,672.2031 Q847.5938,672 847.0313,672 Q846.3281,672 845.7344,672.2813 Q845.1563,672.5625 844.7031,673.1875 Q844.25,673.8125 844.25,674.6719 L844.25,675.5938 Q844.25,676.625 845.0938,677.3125 Q845.9375,678 847.4375,678 Q848.3281,678 848.9531,677.7969 Q849.3125,677.6875 849.7188,677.3281 Q849.9844,677.125 850.125,677.0625 Q850.2656,677 850.4375,677 Q850.7656,677 851,677.2656 Q851.25,677.5156 851.25,677.875 Q851.25,678.2188 850.9063,678.625 Q850.4063,679.2188 849.6094,679.5469 Q848.5625,680 847.2813,680 Q845.7813,680 844.5781,679.4063 Q843.6094,678.9375 842.9219,677.9219 Q842.25,676.9063 842.25,675.7031 L842.25,674.6094 Q842.25,673.3594 842.8438,672.2656 Q843.4531,671.1719 844.5,670.5938 Q845.5625,670 846.75,670 Q847.4688,670 848.0938,670.25 Q848.7188,670.5 849.25,671 Z " fill="#000000"/><text fill="#000000" font-family="sans-serif" font-size="14" lengthAdjust="spacing" textLength="37" x="867.75" y="680.2285">Heros</text><line style="stroke:#181818;stroke-width:0.5;" x1="695.5" x2="1044.5" y1="690.5" y2="690.5"/><ellipse cx="705.5" cy="726.4141" fill="#84BE84" rx="3" ry="3" style="stroke:#038048;stroke-width:1.0;"/><text fill="#000000" font-family="sans-serif" font-size="14" lengthAdjust="spacing" textLength="325" x="714.5" y="730.6426">Heros(int x, int y, int largeur, int hauteur, int vitesse)</text><line style="stroke:#181818;stroke-width:1.0;stroke-dasharray:1.0,2.0;" x1="695.5" x2="829" y1="707.3047" y2="707.3047"/><text fill="#000000" font-family="sans-serif" font-size="14" lengthAdjust="spacing" textLength="82" x="829" y="712.5332">Constructeur</text><line style="stroke:#181818;stroke-width:1.0;stroke-dasharray:1.0,2.0;" x1="911" x2="1044.5" y1="707.3047" y2="707.3047"/></g><!--class Monstre--><g id="elem_Monstre"><rect codeLine="55" fill="#F1F1F1" height="79.2188" id="Monstre" rx="2.5" ry="2.5" style="stroke:#181818;stroke-width:0.5;" width="365" x="1080.5" y="658.5"/><ellipse cx="1232.75" cy="674.5" fill="#A9DCDF" rx="11" ry="11" style="stroke:#181818;stroke-width:1.0;"/><path d="M1234.5,676 L1231.2031,676 L1230.7656,677 L1230.7656,677 L1231.2344,677 L1231.75,677.625 L1231.75,678 L1231.75,678.375 L1231.2344,679 L1230.7656,679 L1228.875,679 L1228.2656,679 L1227.75,678.375 L1227.75,678 L1227.75,677.625 L1228.2656,677 L1228.875,677 L1231.1875,671 L1230.3125,671 L1229.2656,671 L1228.75,670.375 L1228.75,670 L1228.75,669.625 L1229.2656,669 L1230.3125,669 L1233.9844,669 L1236.6719,677 L1237.2344,677 L1237.2344,677 L1237.75,677.625 L1237.75,678 L1237.75,678.375 L1237.2344,679 L1236.6719,679 L1234.7813,679 L1234.2656,679 L1233.75,678.375 L1233.75,678 L1233.75,677.625 L1234.2656,677 L1234.7813,677 L1234.7813,677 L1234.5,676 Z M1233.9531,674 L1232.75,670.4219 L1231.7188,674 L1233.9531,674 Z " fill="#000000"/><text fill="#000000" font-family="sans-serif" font-size="14" font-style="italic" lengthAdjust="spacing" textLength="52" x="1253.25" y="680.2285">Monstre</text><line style="stroke:#181818;stroke-width:0.5;" x1="1081.5" x2="1444.5" y1="690.5" y2="690.5"/><ellipse cx="1091.5" cy="726.4141" fill="#84BE84" rx="3" ry="3" style="stroke:#038048;stroke-width:1.0;"/><text fill="#000000" font-family="sans-serif" font-size="14" lengthAdjust="spacing" textLength="339" x="1100.5" y="730.6426">Monstre(int x, int y, int largeur, int hauteur, int vitesse)</text><line style="stroke:#181818;stroke-width:1.0;stroke-dasharray:1.0,2.0;" x1="1081.5" x2="1222" y1="707.3047" y2="707.3047"/><text fill="#000000" font-family="sans-serif" font-size="14" lengthAdjust="spacing" textLength="82" x="1222" y="712.5332">Constructeur</text><line style="stroke:#181818;stroke-width:1.0;stroke-dasharray:1.0,2.0;" x1="1304" x2="1444.5" y1="707.3047" y2="707.3047"/></g><!--class Walker--><g id="elem_Walker"><rect codeLine="60" fill="#F1F1F1" height="79.2188" id="Walker" rx="2.5" ry="2.5" style="stroke:#181818;stroke-width:0.5;" width="358" x="1084" y="817"/><ellipse cx="1236.75" cy="833" fill="#ADD1B2" rx="11" ry="11" style="stroke:#181818;stroke-width:1.0;"/><path d="M1238.75,829.5 Q1238.9531,829 1239.1875,828.75 Q1239.4219,828.5 1239.6875,828.5 Q1240.1563,828.5 1240.4531,828.7813 Q1240.75,829.0625 1240.75,829.7188 L1240.75,831.2813 Q1240.75,831.9375 1240.4688,832.2188 Q1240.1875,832.5 1239.75,832.5 Q1239.3594,832.5 1239.1094,832.3281 Q1238.8594,832.1563 1238.75,831.7031 Q1238.7031,831.3906 1238.5313,831.2188 Q1238.2188,830.8906 1237.6563,830.7031 Q1237.0938,830.5 1236.5313,830.5 Q1235.8281,830.5 1235.2344,830.7813 Q1234.6563,831.0625 1234.2031,831.6875 Q1233.75,832.3125 1233.75,833.1719 L1233.75,834.0938 Q1233.75,835.125 1234.5938,835.8125 Q1235.4375,836.5 1236.9375,836.5 Q1237.8281,836.5 1238.4531,836.2969 Q1238.8125,836.1875 1239.2188,835.8281 Q1239.4844,835.625 1239.625,835.5625 Q1239.7656,835.5 1239.9375,835.5 Q1240.2656,835.5 1240.5,835.7656 Q1240.75,836.0156 1240.75,836.375 Q1240.75,836.7188 1240.4063,837.125 Q1239.9063,837.7188 1239.1094,838.0469 Q1238.0625,838.5 1236.7813,838.5 Q1235.2813,838.5 1234.0781,837.9063 Q1233.1094,837.4375 1232.4219,836.4219 Q1231.75,835.4063 1231.75,834.2031 L1231.75,833.1094 Q1231.75,831.8594 1232.3438,830.7656 Q1232.9531,829.6719 1234,829.0938 Q1235.0625,828.5 1236.25,828.5 Q1236.9688,828.5 1237.5938,828.75 Q1238.2188,829 1238.75,829.5 Z " fill="#000000"/><text fill="#000000" font-family="sans-serif" font-size="14" lengthAdjust="spacing" textLength="44" x="1257.25" y="838.7285">Walker</text><line style="stroke:#181818;stroke-width:0.5;" x1="1085" x2="1441" y1="849" y2="849"/><ellipse cx="1095" cy="884.9141" fill="#84BE84" rx="3" ry="3" style="stroke:#038048;stroke-width:1.0;"/><text fill="#000000" font-family="sans-serif" font-size="14" lengthAdjust="spacing" textLength="332" x="1104" y="889.1426">Walker(int x, int y, int largeur, int hauteur, int vitesse)</text><line style="stroke:#181818;stroke-width:1.0;stroke-dasharray:1.0,2.0;" x1="1085" x2="1222" y1="865.8047" y2="865.8047"/><text fill="#000000" font-family="sans-serif" font-size="14" lengthAdjust="spacing" textLength="82" x="1222" y="871.0332">Constructeur</text><line style="stroke:#181818;stroke-width:1.0;stroke-dasharray:1.0,2.0;" x1="1304" x2="1441" y1="865.8047" y2="865.8047"/></g><!--class Monde--><g id="elem_Monde"><rect codeLine="65" fill="#F1F1F1" height="171.2656" id="Monde" rx="2.5" ry="2.5" style="stroke:#181818;stroke-width:0.5;" width="377" x="1049.5" y="181"/><ellipse cx="1212.25" cy="197" fill="#ADD1B2" rx="11" ry="11" style="stroke:#181818;stroke-width:1.0;"/><path d="M1214.25,193.5 Q1214.4531,193 1214.6875,192.75 Q1214.9219,192.5 1215.1875,192.5 Q1215.6563,192.5 1215.9531,192.7813 Q1216.25,193.0625 1216.25,193.7188 L1216.25,195.2813 Q1216.25,195.9375 1215.9688,196.2188 Q1215.6875,196.5 1215.25,196.5 Q1214.8594,196.5 1214.6094,196.3281 Q1214.3594,196.1563 1214.25,195.7031 Q1214.2031,195.3906 1214.0313,195.2188 Q1213.7188,194.8906 1213.1563,194.7031 Q1212.5938,194.5 1212.0313,194.5 Q1211.3281,194.5 1210.7344,194.7813 Q1210.1563,195.0625 1209.7031,195.6875 Q1209.25,196.3125 1209.25,197.1719 L1209.25,198.0938 Q1209.25,199.125 1210.0938,199.8125 Q1210.9375,200.5 1212.4375,200.5 Q1213.3281,200.5 1213.9531,200.2969 Q1214.3125,200.1875 1214.7188,199.8281 Q1214.9844,199.625 1215.125,199.5625 Q1215.2656,199.5 1215.4375,199.5 Q1215.7656,199.5 1216,199.7656 Q1216.25,200.0156 1216.25,200.375 Q1216.25,200.7188 1215.9063,201.125 Q1215.4063,201.7188 1214.6094,202.0469 Q1213.5625,202.5 1212.2813,202.5 Q1210.7813,202.5 1209.5781,201.9063 Q1208.6094,201.4375 1207.9219,200.4219 Q1207.25,199.4063 1207.25,198.2031 L1207.25,197.1094 Q1207.25,195.8594 1207.8438,194.7656 Q1208.4531,193.6719 1209.5,193.0938 Q1210.5625,192.5 1211.75,192.5 Q1212.4688,192.5 1213.0938,192.75 Q1213.7188,193 1214.25,193.5 Z " fill="#000000"/><text fill="#000000" font-family="sans-serif" font-size="14" lengthAdjust="spacing" textLength="43" x="1232.75" y="202.7285">Monde</text><line style="stroke:#181818;stroke-width:0.5;" x1="1050.5" x2="1425.5" y1="213" y2="213"/><polygon fill="none" points="1060.5,222.3047,1064.5,226.3047,1060.5,230.3047,1056.5,226.3047" style="stroke:#B38D22;stroke-width:1.0;"/><text fill="#000000" font-family="sans-serif" font-size="14" lengthAdjust="spacing" textLength="70" x="1069.5" y="231.5332">int nbLigne</text><polygon fill="none" points="1060.5,239.9141,1064.5,243.9141,1060.5,247.9141,1056.5,243.9141" style="stroke:#B38D22;stroke-width:1.0;"/><text fill="#000000" font-family="sans-serif" font-size="14" lengthAdjust="spacing" textLength="56" x="1069.5" y="249.1426">int nbCol</text><ellipse cx="1060.5" cy="284.1328" fill="#84BE84" rx="3" ry="3" style="stroke:#038048;stroke-width:1.0;"/><text fill="#000000" font-family="sans-serif" font-size="14" lengthAdjust="spacing" textLength="53" x="1069.5" y="288.3613">Monde()</text><line style="stroke:#181818;stroke-width:1.0;stroke-dasharray:1.0,2.0;" x1="1050.5" x2="1197" y1="265.0234" y2="265.0234"/><text fill="#000000" font-family="sans-serif" font-size="14" lengthAdjust="spacing" textLength="82" x="1197" y="270.252">Constructeur</text><line style="stroke:#181818;stroke-width:1.0;stroke-dasharray:1.0,2.0;" x1="1279" x2="1425.5" y1="265.0234" y2="265.0234"/><ellipse cx="1060.5" cy="323.3516" fill="#84BE84" rx="3" ry="3" style="stroke:#038048;stroke-width:1.0;"/><text fill="#000000" font-family="sans-serif" font-size="14" lengthAdjust="spacing" textLength="351" x="1069.5" y="327.5801">boolean collision(ElementMonde e1, ElementMonde e2)</text><ellipse cx="1060.5" cy="340.9609" fill="#84BE84" rx="3" ry="3" style="stroke:#038048;stroke-width:1.0;"/><text fill="#000000" font-family="sans-serif" font-size="14" lengthAdjust="spacing" textLength="146" x="1069.5" y="345.1895">void gestionCollisions()</text><line style="stroke:#181818;stroke-width:1.0;stroke-dasharray:1.0,2.0;" x1="1050.5" x2="1207" y1="304.2422" y2="304.2422"/><text fill="#000000" font-family="sans-serif" font-size="14" lengthAdjust="spacing" textLength="62" x="1207" y="309.4707">M&#233;thodes</text><line style="stroke:#181818;stroke-width:1.0;stroke-dasharray:1.0,2.0;" x1="1269" x2="1425.5" y1="304.2422" y2="304.2422"/></g><!--class GestionFichier--><g id="elem_GestionFichier"><rect codeLine="82" fill="#F1F1F1" height="118.4375" id="GestionFichier" rx="2.5" ry="2.5" style="stroke:#181818;stroke-width:0.5;" width="282" x="1674" y="436.5"/><ellipse cx="1764.75" cy="452.5" fill="#ADD1B2" rx="11" ry="11" style="stroke:#181818;stroke-width:1.0;"/><path d="M1766.75,449 Q1766.9531,448.5 1767.1875,448.25 Q1767.4219,448 1767.6875,448 Q1768.1563,448 1768.4531,448.2813 Q1768.75,448.5625 1768.75,449.2188 L1768.75,450.7813 Q1768.75,451.4375 1768.4688,451.7188 Q1768.1875,452 1767.75,452 Q1767.3594,452 1767.1094,451.8281 Q1766.8594,451.6563 1766.75,451.2031 Q1766.7031,450.8906 1766.5313,450.7188 Q1766.2188,450.3906 1765.6563,450.2031 Q1765.0938,450 1764.5313,450 Q1763.8281,450 1763.2344,450.2813 Q1762.6563,450.5625 1762.2031,451.1875 Q1761.75,451.8125 1761.75,452.6719 L1761.75,453.5938 Q1761.75,454.625 1762.5938,455.3125 Q1763.4375,456 1764.9375,456 Q1765.8281,456 1766.4531,455.7969 Q1766.8125,455.6875 1767.2188,455.3281 Q1767.4844,455.125 1767.625,455.0625 Q1767.7656,455 1767.9375,455 Q1768.2656,455 1768.5,455.2656 Q1768.75,455.5156 1768.75,455.875 Q1768.75,456.2188 1768.4063,456.625 Q1767.9063,457.2188 1767.1094,457.5469 Q1766.0625,458 1764.7813,458 Q1763.2813,458 1762.0781,457.4063 Q1761.1094,456.9375 1760.4219,455.9219 Q1759.75,454.9063 1759.75,453.7031 L1759.75,452.6094 Q1759.75,451.3594 1760.3438,450.2656 Q1760.9531,449.1719 1762,448.5938 Q1763.0625,448 1764.25,448 Q1764.9688,448 1765.5938,448.25 Q1766.2188,448.5 1766.75,449 Z " fill="#000000"/><text fill="#000000" font-family="sans-serif" font-size="14" lengthAdjust="spacing" textLength="92" x="1785.25" y="458.2285">GestionFichier</text><line style="stroke:#181818;stroke-width:0.5;" x1="1675" x2="1955" y1="468.5" y2="468.5"/><ellipse cx="1685" cy="504.4141" fill="#84BE84" rx="3" ry="3" style="stroke:#038048;stroke-width:1.0;"/><text fill="#000000" font-family="sans-serif" font-size="14" lengthAdjust="spacing" textLength="102" x="1694" y="508.6426">GestionFichier()</text><line style="stroke:#181818;stroke-width:1.0;stroke-dasharray:1.0,2.0;" x1="1675" x2="1774" y1="485.3047" y2="485.3047"/><text fill="#000000" font-family="sans-serif" font-size="14" lengthAdjust="spacing" textLength="82" x="1774" y="490.5332">Constructeur</text><line style="stroke:#181818;stroke-width:1.0;stroke-dasharray:1.0,2.0;" x1="1856" x2="1955" y1="485.3047" y2="485.3047"/><ellipse cx="1685" cy="543.6328" fill="#84BE84" rx="3" ry="3" style="stroke:#038048;stroke-width:1.0;"/><text fill="#000000" font-family="sans-serif" font-size="14" lengthAdjust="spacing" textLength="256" x="1694" y="547.8613">char[] lireFichierCarte(string nomFichier)</text><line style="stroke:#181818;stroke-width:1.0;stroke-dasharray:1.0,2.0;" x1="1675" x2="1784" y1="524.5234" y2="524.5234"/><text fill="#000000" font-family="sans-serif" font-size="14" lengthAdjust="spacing" textLength="62" x="1784" y="529.752">M&#233;thodes</text><line style="stroke:#181818;stroke-width:1.0;stroke-dasharray:1.0,2.0;" x1="1846" x2="1955" y1="524.5234" y2="524.5234"/></g><!--link Escape to Monde--><g id="link_Escape_Monde"><path codeLine="91" d="M1238,121.31 C1238,138.73 1238,160.01 1238,180.81 " fill="none" id="Escape-Monde" style="stroke:#181818;stroke-width:1.0;"/><text fill="#000000" font-family="sans-serif" font-size="13" lengthAdjust="spacing" textLength="7" x="1230.6992" y="170.2573">1</text></g><!--reverse link ElementMonde to Personnage--><g id="link_ElementMonde_Personnage"><path codeLine="92" d="M978.93,495.5 C1000.08,495.5 1021.24,495.5 1042.4,495.5 " fill="none" id="ElementMonde-backto-Personnage" style="stroke:#181818;stroke-width:1.0;"/><polygon fill="none" points="978.64,502.5,958.64,495.5,978.64,488.5,978.64,502.5" style="stroke:#181818;stroke-width:1.0;"/></g><!--reverse link Personnage to Heros--><g id="link_Personnage_Heros"><path codeLine="93" d="M1097.06,573.29 C1043.66,602.39 985.12,634.28 940.86,658.39 " fill="none" id="Personnage-backto-Heros" style="stroke:#181818;stroke-width:1.0;"/><polygon fill="none" points="1094.04,566.96,1114.95,563.54,1100.74,579.26,1094.04,566.96" style="stroke:#181818;stroke-width:1.0;"/></g><!--reverse link Personnage to Monstre--><g id="link_Personnage_Monstre"><path codeLine="94" d="M1248.86,583.63 C1252.12,609.77 1255.53,637.11 1258.19,658.39 " fill="none" id="Personnage-backto-Monstre" style="stroke:#181818;stroke-width:1.0;"/><polygon fill="none" points="1241.89,584.25,1246.36,563.54,1255.78,582.52,1241.89,584.25" style="stroke:#181818;stroke-width:1.0;"/></g><!--reverse link Monstre to Walker--><g id="link_Monstre_Walker"><path codeLine="95" d="M1263,757.82 C1263,777.61 1263,799.17 1263,816.99 " fill="none" id="Monstre-backto-Walker" style="stroke:#181818;stroke-width:1.0;"/><polygon fill="none" points="1256,757.69,1263,737.69,1270,757.69,1256,757.69" style="stroke:#181818;stroke-width:1.0;"/></g><!--link Terrain to ElementMonde--><g id="link_Terrain_ElementMonde"><path codeLine="97" d="M697.6,495.5 C735.49,495.5 773.38,495.5 811.27,495.5 " fill="none" id="Terrain-to-ElementMonde" style="stroke:#181818;stroke-width:1.0;"/><polygon fill="none" points="811.39,488.5,831.39,495.5,811.39,502.5,811.39,488.5" style="stroke:#181818;stroke-width:1.0;"/></g><!--reverse link Terrain to Mur--><g id="link_Terrain_Mur"><path codeLine="98" d="M406.87,573.56 C369.07,595.27 328.6,618.52 293.1,638.92 " fill="none" id="Terrain-backto-Mur" style="stroke:#181818;stroke-width:1.0;"/><polygon fill="none" points="403.47,567.44,424.3,563.54,410.45,579.57,403.47,567.44" style="stroke:#181818;stroke-width:1.0;"/></g><!--reverse link Terrain to Sol--><g id="link_Terrain_Sol"><path codeLine="99" d="M530.14,583.63 C526.88,609.77 523.47,637.11 520.81,658.39 " fill="none" id="Terrain-backto-Sol" style="stroke:#181818;stroke-width:1.0;"/><polygon fill="none" points="523.22,582.52,532.64,563.54,537.11,584.25,523.22,582.52" style="stroke:#181818;stroke-width:1.0;"/></g><!--link Monde to Personnage--><g id="link_Monde_Personnage"><path codeLine="102" d="M1238,352.03 C1238,376.86 1238,403.67 1238,427.27 " fill="none" id="Monde-Personnage" style="stroke:#181818;stroke-width:1.0;"/><text fill="#000000" font-family="sans-serif" font-size="13" lengthAdjust="spacing" textLength="5" x="1232.7266" y="416.4441">*</text></g><!--link Monde to Terrain--><g id="link_Monde_Terrain"><path codeLine="103" d="M1049.25,320.04 C975.5,341.38 890.44,366.99 814,392.5 C776.09,405.15 735.57,419.71 697.68,433.79 " fill="none" id="Monde-Terrain" style="stroke:#181818;stroke-width:1.0;"/><text fill="#000000" font-family="sans-serif" font-size="13" lengthAdjust="spacing" textLength="5" x="705.3903" y="427.9159">*</text></g><!--link Monde to GestionFichier--><g id="link_Monde_GestionFichier"><path codeLine="106" d="M1426.51,318.28 C1493.16,338.51 1567.95,363.83 1634,392.5 C1662.95,405.07 1693.26,420.96 1720.61,436.43 " fill="none" id="Monde-GestionFichier" style="stroke:#181818;stroke-width:1.0;"/><text fill="#000000" font-family="sans-serif" font-size="13" lengthAdjust="spacing" textLength="7" x="1701.6797" y="425.7457">1</text></g><!--reverse link Personnage to TypeMouvement--><g id="link_Personnage_TypeMouvement"><path codeLine="108" d="M1358.28,571.78 C1392.27,593.3 1429.2,616.9 1463,639 C1468.58,642.65 1474.34,646.45 1480.12,650.29 " fill="none" id="Personnage-backto-TypeMouvement" style="stroke:#181818;stroke-width:1.0;"/><ellipse cx="1352.1712" cy="567.9262" fill="#FFFFFF" rx="8" ry="8" style="stroke:#181818;stroke-width:1.0;"/><line style="stroke:#181818;stroke-width:1.0;" x1="1358.9324" x2="1345.41" y1="572.2025" y2="563.65"/><line style="stroke:#181818;stroke-width:1.0;" x1="1347.8949" x2="1356.4474" y1="574.6874" y2="561.1651"/></g><!--SRC=[jLNDRjim3BxxAOZiuYonWUu1TidITa2p55k07eOT58TrX2gI8Sb1WomFrEVeYqssP4TAd2RxkyGXzP7yI95KGR8daYECLKOAt4OHGE5K4y4N25kZ0I1pfIN9D6ICA0LZXYlasaS0l8D79eY6vmDvqygKQrYIKcCf0nqZCj_hqdGak0bNPXKmJPrwO0d5_QXMxBfupL1AGdbBwQGh1umTus53TUXp7Fha-gtBoUkBNee5Ai_VN0Y6X0CgFPDaZLAHEVEurX_BSLBAy_mCwFzpEwBsJJ3Bh9FNe3h_RLOcGDTDtHiQWlEgpmxxPqqrAeNdIhJt45T1dstiJK2XWvpp_dR95gyl1ICPodYsAN0YodNTxw1zAIWWyd850RX92-3hvvlRMIlTZQ_tmcnwt_x_D7tuSdmdjoY5EjymDUpF2x7hlAH97GilQ5SB_EluDkm3OKyepmQri7yKizujss0hyVaTpJaUw4Q2NRgdBXdAJ3165HKy3dOgNWt39OiV-gtjMj05v6QSZTceiLVjGBlCtAQkzpgyETOMKzll_0TWMchAcjwpxcvir6kQBIdkzzZ9ObJkGvksBjsLgGoo9P7VVm2Z4ftHY4YDiN5FUGvSh9pQpzWmjtcaBkKaWTvLpoMNrbMqlv6tUnA6Zphv-J4eTcHdBYcBwcIFZffvE3wnlTWSE5mKDUzH8cc-F8vJFGNEn24Zis8FLMrYNWvrTkzxFeNJeBEEJ9d2Iuhy6WqC9DXiqIy0]--></g></svg>