<?xml version="1.0" encoding="us-ascii" standalone="no"?><svg xmlns="http://www.w3.org/2000/svg" xmlns:xlink="http://www.w3.org/1999/xlink" contentStyleType="text/css" height="897px" preserveAspectRatio="none" style="width:1272px;height:897px;background:#FFFFFF;" version="1.1" viewBox="0 0 1272 897" width="1272px" zoomAndPan="magnify"><defs/><g><!--cluster ui--><g id="cluster_ui"><path d="M8.5,6.0137 L22.5,6.0137 A3.75,3.75 0 0 1 25,8.5137 L32,30.6348 L1262.5,30.6348 A2.5,2.5 0 0 1 1265,33.1348 L1265,887.5137 A2.5,2.5 0 0 1 1262.5,890.0137 L8.5,890.0137 A2.5,2.5 0 0 1 6,887.5137 L6,8.5137 A2.5,2.5 0 0 1 8.5,6.0137 " fill="none" style="stroke:#000000;stroke-width:1.5;"/><line style="stroke:#000000;stroke-width:1.5;" x1="6" x2="32" y1="30.6348" y2="30.6348"/><text fill="#000000" font-family="sans-serif" font-size="14" font-weight="bold" lengthAdjust="spacing" textLength="13" x="10" y="23.1211">ui</text></g><!--cluster views--><g id="cluster_views"><path d="M32.5,653.0137 L74.5,653.0137 A3.75,3.75 0 0 1 77,655.5137 L84,677.6348 L1238.5,677.6348 A2.5,2.5 0 0 1 1241,680.1348 L1241,863.5137 A2.5,2.5 0 0 1 1238.5,866.0137 L32.5,866.0137 A2.5,2.5 0 0 1 30,863.5137 L30,655.5137 A2.5,2.5 0 0 1 32.5,653.0137 " fill="none" style="stroke:#000000;stroke-width:1.5;"/><line style="stroke:#000000;stroke-width:1.5;" x1="30" x2="84" y1="677.6348" y2="677.6348"/><text fill="#000000" font-family="sans-serif" font-size="14" font-weight="bold" lengthAdjust="spacing" textLength="41" x="34" y="670.1211">views</text></g><!--class View--><g id="elem_View"><rect codeLine="3" fill="#F1F1F1" height="141.1055" id="View" rx="2.5" ry="2.5" style="stroke:#181818;stroke-width:0.5;" width="286" x="568" y="282.0137"/><ellipse cx="692.25" cy="298.0137" fill="#ADD1B2" rx="11" ry="11" style="stroke:#181818;stroke-width:1.0;"/><path d="M695.0156,293.8887 Q695.1719,293.6699 695.3594,293.5605 Q695.5469,293.4512 695.7656,293.4512 Q696.1406,293.4512 696.375,293.7168 Q696.6094,293.9668 696.6094,294.5762 L696.6094,296.0293 Q696.6094,296.6387 696.375,296.9043 Q696.1406,297.1699 695.7656,297.1699 Q695.4219,297.1699 695.2188,296.9668 Q695.0156,296.7793 694.9063,296.2637 Q694.8594,295.9043 694.6719,295.7168 Q694.3438,295.3418 693.7344,295.123 Q693.125,294.9043 692.5,294.9043 Q691.7344,294.9043 691.0938,295.2324 Q690.4688,295.5605 689.9688,296.3105 Q689.4844,297.0605 689.4844,298.0918 L689.4844,299.1855 Q689.4844,300.4199 690.375,301.248 Q691.2656,302.0605 692.8594,302.0605 Q693.7969,302.0605 694.4531,301.8105 Q694.8438,301.6543 695.2656,301.2168 Q695.5313,300.9512 695.6719,300.873 Q695.8281,300.7949 696.0313,300.7949 Q696.3594,300.7949 696.6094,301.0605 Q696.875,301.3105 696.875,301.6543 Q696.875,301.998 696.5313,302.4043 Q696.0313,302.9824 695.2344,303.3105 Q694.1563,303.7637 692.8594,303.7637 Q691.3438,303.7637 690.1406,303.1387 Q689.1563,302.6387 688.4688,301.5762 Q687.7813,300.498 687.7813,299.2168 L687.7813,298.0605 Q687.7813,296.7324 688.3906,295.5918 Q689.0156,294.4355 690.1094,293.8262 Q691.2031,293.2012 692.4375,293.2012 Q693.1719,293.2012 693.8125,293.373 Q694.4688,293.5293 695.0156,293.8887 Z " fill="#000000"/><text fill="#000000" font-family="sans-serif" font-size="14" lengthAdjust="spacing" textLength="29" x="712.75" y="303.8105">View</text><line style="stroke:#181818;stroke-width:0.5;" x1="569" x2="853" y1="314.0137" y2="314.0137"/><rect fill="none" height="6" style="stroke:#C82930;stroke-width:1.0;" width="6" x="576" y="325.8242"/><text fill="#000000" font-family="sans-serif" font-size="14" lengthAdjust="spacing" textLength="71" x="588" y="333.1211">Parent root</text><line style="stroke:#181818;stroke-width:1.0;" x1="569" x2="853" y1="340.6348" y2="340.6348"/><ellipse cx="579" cy="355.4453" fill="#84BE84" rx="3" ry="3" style="stroke:#038048;stroke-width:1.0;"/><text fill="#000000" font-family="sans-serif" font-size="14" lengthAdjust="spacing" textLength="260" x="588" y="359.7422">View(Parent, ViewController, ViewEvents)</text><ellipse cx="579" cy="374.0664" fill="#84BE84" rx="3" ry="3" style="stroke:#038048;stroke-width:1.0;"/><text fill="#000000" font-family="sans-serif" font-size="14" lengthAdjust="spacing" textLength="110" x="588" y="378.3633">getRoot(): Parent</text><ellipse cx="579" cy="392.6875" fill="#84BE84" rx="3" ry="3" style="stroke:#038048;stroke-width:1.0;"/><text fill="#000000" font-family="sans-serif" font-size="14" lengthAdjust="spacing" textLength="107" x="588" y="396.9844">onViewInit(): void</text><ellipse cx="579" cy="411.3086" fill="#84BE84" rx="3" ry="3" style="stroke:#038048;stroke-width:1.0;"/><text fill="#000000" font-family="sans-serif" font-size="14" lengthAdjust="spacing" textLength="151" x="588" y="415.6055">onViewDisplayed(): void</text></g><!--class ViewController--><g id="elem_ViewController"><rect codeLine="12" fill="#F1F1F1" height="48" id="ViewController" rx="2.5" ry="2.5" style="stroke:#181818;stroke-width:0.5;" width="123" x="832.5" y="530.0137"/><ellipse cx="847.5" cy="546.0137" fill="#A9DCDF" rx="11" ry="11" style="stroke:#181818;stroke-width:1.0;"/><path d="M849.6875,547.7793 L845.5469,547.7793 L845.125,548.8105 L845.5469,548.8105 Q846.1563,548.8105 846.4219,549.0449 Q846.6875,549.2793 846.6875,549.6699 Q846.6875,550.0449 846.4219,550.2793 Q846.1563,550.5137 845.5469,550.5137 L843.25,550.5137 Q842.6406,550.5137 842.3906,550.2793 Q842.125,550.0449 842.125,549.6543 Q842.125,549.2793 842.4063,549.0449 Q842.6719,548.7949 843.2969,548.8105 L845.9688,542.1543 L844.8594,542.1543 Q844.25,542.1543 843.9844,541.9199 Q843.7188,541.6855 843.7188,541.2949 Q843.7188,540.9199 843.9844,540.6855 Q844.25,540.4512 844.8594,540.4512 L848.5313,540.4512 L851.9219,548.8105 Q852.5156,548.8105 852.7031,548.9512 Q853.0938,549.2168 853.0938,549.6699 Q853.0938,550.0449 852.8281,550.2793 Q852.5781,550.5137 851.9688,550.5137 L849.6719,550.5137 Q849.0625,550.5137 848.7969,550.2793 Q848.5313,550.0449 848.5313,549.6543 Q848.5313,549.2793 848.7969,549.0449 Q849.0625,548.8105 849.6719,548.8105 L850.0938,548.8105 L849.6875,547.7793 Z M848.9688,546.0762 L847.6094,542.7012 L846.2344,546.0762 L848.9688,546.0762 Z " fill="#000000"/><text fill="#000000" font-family="sans-serif" font-size="14" font-style="italic" lengthAdjust="spacing" textLength="91" x="861.5" y="551.8105">ViewController</text><line style="stroke:#181818;stroke-width:0.5;" x1="833.5" x2="954.5" y1="562.0137" y2="562.0137"/><line style="stroke:#181818;stroke-width:0.5;" x1="833.5" x2="954.5" y1="570.0137" y2="570.0137"/></g><!--class ViewEvents--><g id="elem_ViewEvents"><rect codeLine="14" fill="#F1F1F1" height="103.8633" id="ViewEvents" rx="2.5" ry="2.5" style="stroke:#181818;stroke-width:0.5;" width="321" x="402.5" y="502.0137"/><ellipse cx="523.25" cy="518.0137" fill="#B4A7E5" rx="11" ry="11" style="stroke:#181818;stroke-width:1.0;"/><path d="M524.2031,514.6543 L524.2031,521.3105 L525.9219,521.3105 Q526.5313,521.3105 526.7969,521.5449 Q527.0625,521.7793 527.0625,522.1699 Q527.0625,522.5449 526.7969,522.7793 Q526.5313,523.0137 525.9219,523.0137 L520.7813,523.0137 Q520.1719,523.0137 519.9063,522.7793 Q519.6406,522.5449 519.6406,522.1543 Q519.6406,521.7793 519.9063,521.5449 Q520.1719,521.3105 520.7813,521.3105 L522.5,521.3105 L522.5,514.6543 L520.7813,514.6543 Q520.1719,514.6543 519.9063,514.4199 Q519.6406,514.1855 519.6406,513.7949 Q519.6406,513.4199 519.9063,513.1855 Q520.1719,512.9512 520.7813,512.9512 L525.9219,512.9512 Q526.5313,512.9512 526.7969,513.1855 Q527.0625,513.4199 527.0625,513.7949 Q527.0625,514.1855 526.7969,514.4199 Q526.5313,514.6543 525.9219,514.6543 L524.2031,514.6543 Z " fill="#000000"/><text fill="#000000" font-family="sans-serif" font-size="14" font-style="italic" lengthAdjust="spacing" textLength="71" x="543.75" y="523.8105">ViewEvents</text><line style="stroke:#181818;stroke-width:0.5;" x1="403.5" x2="722.5" y1="534.0137" y2="534.0137"/><line style="stroke:#181818;stroke-width:0.5;" x1="403.5" x2="722.5" y1="542.0137" y2="542.0137"/><ellipse cx="413.5" cy="556.8242" fill="#84BE84" rx="3" ry="3" style="stroke:#038048;stroke-width:1.0;"/><text fill="#000000" font-family="sans-serif" font-size="14" lengthAdjust="spacing" textLength="198" x="422.5" y="561.1211">onViewInit(ViewController): void</text><ellipse cx="413.5" cy="575.4453" fill="#84BE84" rx="3" ry="3" style="stroke:#038048;stroke-width:1.0;"/><text fill="#000000" font-family="sans-serif" font-size="14" lengthAdjust="spacing" textLength="242" x="422.5" y="579.7422">onViewDisplayed(ViewController): void</text><ellipse cx="413.5" cy="594.0664" fill="#84BE84" rx="3" ry="3" style="stroke:#038048;stroke-width:1.0;"/><text fill="#000000" font-family="sans-serif" font-size="14" lengthAdjust="spacing" textLength="295" x="422.5" y="598.3633">onKeyPressed(ViewController, KeyEvent): void</text></g><!--class VIEWS--><g id="elem_VIEWS"><rect codeLine="20" fill="#F1F1F1" height="85.2422" id="VIEWS" rx="2.5" ry="2.5" style="stroke:#181818;stroke-width:0.5;" width="75" x="1085.5" y="80.5137"/><ellipse cx="1100.5" cy="96.5137" fill="#EB937F" rx="11" ry="11" style="stroke:#181818;stroke-width:1.0;"/><path d="M1099.3594,97.3105 L1099.3594,99.8105 L1103.6875,99.8105 L1103.6875,98.8887 Q1103.6875,98.2793 1103.9219,98.0137 Q1104.1719,97.748 1104.5469,97.748 Q1104.9219,97.748 1105.1563,98.0137 Q1105.3906,98.2793 1105.3906,98.8887 L1105.3906,101.5137 L1097.3906,101.5137 Q1096.7656,101.5137 1096.5,101.2793 Q1096.25,101.0449 1096.25,100.6543 Q1096.25,100.2793 1096.5156,100.0449 Q1096.7813,99.8105 1097.3906,99.8105 L1097.6563,99.8105 L1097.6563,93.1543 L1097.3906,93.1543 Q1096.7656,93.1543 1096.5,92.9199 Q1096.25,92.6855 1096.25,92.2949 Q1096.25,91.9199 1096.5,91.6855 Q1096.7656,91.4512 1097.3906,91.4512 L1105.0156,91.4512 L1105.0156,94.0449 Q1105.0156,94.6543 1104.7813,94.9199 Q1104.5625,95.1699 1104.1719,95.1699 Q1103.7969,95.1699 1103.5625,94.9199 Q1103.3281,94.6543 1103.3281,94.0449 L1103.3281,93.1543 L1099.3594,93.1543 L1099.3594,95.6074 L1100.8438,95.6074 Q1100.8438,94.9512 1100.9688,94.7637 Q1101.2344,94.3574 1101.7031,94.3574 Q1102.0781,94.3574 1102.3125,94.623 Q1102.5469,94.873 1102.5469,95.4824 L1102.5469,97.4512 Q1102.5469,97.998 1102.4219,98.1855 Q1102.1563,98.5762 1101.7031,98.5762 Q1101.2344,98.5762 1100.9688,98.1699 Q1100.8438,97.9824 1100.8438,97.3105 L1099.3594,97.3105 Z " fill="#000000"/><text fill="#000000" font-family="sans-serif" font-size="14" lengthAdjust="spacing" textLength="43" x="1114.5" y="102.3105">VIEWS</text><line style="stroke:#181818;stroke-width:0.5;" x1="1086.5" x2="1159.5" y1="112.5137" y2="112.5137"/><text fill="#000000" font-family="sans-serif" font-size="14" lengthAdjust="spacing" textLength="44" x="1091.5" y="131.6211">HOME,</text><text fill="#000000" font-family="sans-serif" font-size="14" lengthAdjust="spacing" textLength="40" x="1091.5" y="150.2422">GAME</text><line style="stroke:#181818;stroke-width:0.5;" x1="1086.5" x2="1159.5" y1="157.7559" y2="157.7559"/></g><!--class ViewManager--><g id="elem_ViewManager"><rect codeLine="25" fill="#F1F1F1" height="159.7266" id="ViewManager" rx="2.5" ry="2.5" style="stroke:#181818;stroke-width:0.5;" width="208" x="607" y="43.0137"/><ellipse cx="664.25" cy="59.0137" fill="#ADD1B2" rx="11" ry="11" style="stroke:#181818;stroke-width:1.0;"/><path d="M667.0156,54.8887 Q667.1719,54.6699 667.3594,54.5605 Q667.5469,54.4512 667.7656,54.4512 Q668.1406,54.4512 668.375,54.7168 Q668.6094,54.9668 668.6094,55.5762 L668.6094,57.0293 Q668.6094,57.6387 668.375,57.9043 Q668.1406,58.1699 667.7656,58.1699 Q667.4219,58.1699 667.2188,57.9668 Q667.0156,57.7793 666.9063,57.2637 Q666.8594,56.9043 666.6719,56.7168 Q666.3438,56.3418 665.7344,56.123 Q665.125,55.9043 664.5,55.9043 Q663.7344,55.9043 663.0938,56.2324 Q662.4688,56.5605 661.9688,57.3105 Q661.4844,58.0605 661.4844,59.0918 L661.4844,60.1855 Q661.4844,61.4199 662.375,62.248 Q663.2656,63.0605 664.8594,63.0605 Q665.7969,63.0605 666.4531,62.8105 Q666.8438,62.6543 667.2656,62.2168 Q667.5313,61.9512 667.6719,61.873 Q667.8281,61.7949 668.0313,61.7949 Q668.3594,61.7949 668.6094,62.0605 Q668.875,62.3105 668.875,62.6543 Q668.875,62.998 668.5313,63.4043 Q668.0313,63.9824 667.2344,64.3105 Q666.1563,64.7637 664.8594,64.7637 Q663.3438,64.7637 662.1406,64.1387 Q661.1563,63.6387 660.4688,62.5762 Q659.7813,61.498 659.7813,60.2168 L659.7813,59.0605 Q659.7813,57.7324 660.3906,56.5918 Q661.0156,55.4355 662.1094,54.8262 Q663.2031,54.2012 664.4375,54.2012 Q665.1719,54.2012 665.8125,54.373 Q666.4688,54.5293 667.0156,54.8887 Z " fill="#000000"/><text fill="#000000" font-family="sans-serif" font-size="14" lengthAdjust="spacing" textLength="85" x="684.75" y="64.8105">ViewManager</text><line style="stroke:#181818;stroke-width:0.5;" x1="608" x2="814" y1="75.0137" y2="75.0137"/><rect fill="none" height="6" style="stroke:#C82930;stroke-width:1.0;" width="6" x="615" y="86.8242"/><text fill="#000000" font-family="sans-serif" font-size="14" lengthAdjust="spacing" text-decoration="underline" textLength="146" x="627" y="94.1211">instance: ViewManager</text><rect fill="none" height="6" style="stroke:#C82930;stroke-width:1.0;" width="6" x="615" y="105.4453"/><text fill="#000000" font-family="sans-serif" font-size="14" lengthAdjust="spacing" textLength="80" x="627" y="112.7422">stage: Stage</text><line style="stroke:#181818;stroke-width:1.0;" x1="608" x2="814" y1="120.2559" y2="120.2559"/><ellipse cx="618" cy="135.0664" fill="#84BE84" rx="3" ry="3" style="stroke:#038048;stroke-width:1.0;"/><text fill="#000000" font-family="sans-serif" font-size="14" lengthAdjust="spacing" textLength="176" x="627" y="139.3633">getInstance(): ViewManager</text><ellipse cx="618" cy="153.6875" fill="#84BE84" rx="3" ry="3" style="stroke:#038048;stroke-width:1.0;"/><text fill="#000000" font-family="sans-serif" font-size="14" lengthAdjust="spacing" textLength="137" x="627" y="157.9844">setStage(Stage): void</text><ellipse cx="618" cy="172.3086" fill="#84BE84" rx="3" ry="3" style="stroke:#038048;stroke-width:1.0;"/><text fill="#000000" font-family="sans-serif" font-size="14" lengthAdjust="spacing" textLength="158" x="627" y="176.6055">navigateTo(VIEWS): void</text><ellipse cx="618" cy="190.9297" fill="#84BE84" rx="3" ry="3" style="stroke:#038048;stroke-width:1.0;"/><text fill="#000000" font-family="sans-serif" font-size="14" lengthAdjust="spacing" textLength="182" x="627" y="195.2266">setFullScreen(boolean): void</text></g><!--class HomeController--><g id="elem_HomeController"><rect codeLine="36" fill="#F1F1F1" height="159.7266" id="HomeController" rx="2.5" ry="2.5" style="stroke:#181818;stroke-width:0.5;" width="271" x="758.5" y="690.0137"/><ellipse cx="840.75" cy="706.0137" fill="#ADD1B2" rx="11" ry="11" style="stroke:#181818;stroke-width:1.0;"/><path d="M843.5156,701.8887 Q843.6719,701.6699 843.8594,701.5605 Q844.0469,701.4512 844.2656,701.4512 Q844.6406,701.4512 844.875,701.7168 Q845.1094,701.9668 845.1094,702.5762 L845.1094,704.0293 Q845.1094,704.6387 844.875,704.9043 Q844.6406,705.1699 844.2656,705.1699 Q843.9219,705.1699 843.7188,704.9668 Q843.5156,704.7793 843.4063,704.2637 Q843.3594,703.9043 843.1719,703.7168 Q842.8438,703.3418 842.2344,703.123 Q841.625,702.9043 841,702.9043 Q840.2344,702.9043 839.5938,703.2324 Q838.9688,703.5605 838.4688,704.3105 Q837.9844,705.0605 837.9844,706.0918 L837.9844,707.1855 Q837.9844,708.4199 838.875,709.248 Q839.7656,710.0605 841.3594,710.0605 Q842.2969,710.0605 842.9531,709.8105 Q843.3438,709.6543 843.7656,709.2168 Q844.0313,708.9512 844.1719,708.873 Q844.3281,708.7949 844.5313,708.7949 Q844.8594,708.7949 845.1094,709.0605 Q845.375,709.3105 845.375,709.6543 Q845.375,709.998 845.0313,710.4043 Q844.5313,710.9824 843.7344,711.3105 Q842.6563,711.7637 841.3594,711.7637 Q839.8438,711.7637 838.6406,711.1387 Q837.6563,710.6387 836.9688,709.5762 Q836.2813,708.498 836.2813,707.2168 L836.2813,706.0605 Q836.2813,704.7324 836.8906,703.5918 Q837.5156,702.4355 838.6094,701.8262 Q839.7031,701.2012 840.9375,701.2012 Q841.6719,701.2012 842.3125,701.373 Q842.9688,701.5293 843.5156,701.8887 Z " fill="#000000"/><text fill="#000000" font-family="sans-serif" font-size="14" lengthAdjust="spacing" textLength="98" x="861.25" y="711.8105">HomeController</text><line style="stroke:#181818;stroke-width:0.5;" x1="759.5" x2="1028.5" y1="722.0137" y2="722.0137"/><rect fill="none" height="6" style="stroke:#C82930;stroke-width:1.0;" width="6" x="766.5" y="733.8242"/><text fill="#000000" font-family="sans-serif" font-size="14" lengthAdjust="spacing" textLength="107" x="778.5" y="741.1211">gameTitle: String</text><rect fill="none" height="6" style="stroke:#C82930;stroke-width:1.0;" width="6" x="766.5" y="752.4453"/><text fill="#000000" font-family="sans-serif" font-size="14" lengthAdjust="spacing" textLength="197" x="778.5" y="759.7422">fullScreenCheckBox: CheckBox</text><line style="stroke:#181818;stroke-width:1.0;" x1="759.5" x2="1028.5" y1="767.2559" y2="767.2559"/><polygon fill="#FFFF44" points="769.5,777.0664,773.5,781.0664,769.5,785.0664,765.5,781.0664" style="stroke:#B38D22;stroke-width:1.0;"/><text fill="#000000" font-family="sans-serif" font-size="14" lengthAdjust="spacing" textLength="131" x="778.5" y="786.3633">onButtonClick(): void</text><polygon fill="#FFFF44" points="769.5,795.6875,773.5,799.6875,769.5,803.6875,765.5,799.6875" style="stroke:#B38D22;stroke-width:1.0;"/><text fill="#000000" font-family="sans-serif" font-size="14" lengthAdjust="spacing" textLength="172" x="778.5" y="804.9844">onFullScreenToggle(): void</text><ellipse cx="769.5" cy="819.3086" fill="#84BE84" rx="3" ry="3" style="stroke:#038048;stroke-width:1.0;"/><text fill="#000000" font-family="sans-serif" font-size="14" lengthAdjust="spacing" textLength="165" x="778.5" y="823.6055">setGameTitle(String): void</text><ellipse cx="769.5" cy="837.9297" fill="#84BE84" rx="3" ry="3" style="stroke:#038048;stroke-width:1.0;"/><text fill="#000000" font-family="sans-serif" font-size="14" lengthAdjust="spacing" textLength="245" x="778.5" y="842.2266">setFullScreenCheckBox(boolean): void</text></g><!--class GameController--><g id="elem_GameController"><rect codeLine="46" fill="#F1F1F1" height="85.2422" id="GameController" rx="2.5" ry="2.5" style="stroke:#181818;stroke-width:0.5;" width="160" x="1065" y="727.5137"/><ellipse cx="1092.6" cy="743.5137" fill="#ADD1B2" rx="11" ry="11" style="stroke:#181818;stroke-width:1.0;"/><path d="M1095.3656,739.3887 Q1095.5219,739.1699 1095.7094,739.0605 Q1095.8969,738.9512 1096.1156,738.9512 Q1096.4906,738.9512 1096.725,739.2168 Q1096.9594,739.4668 1096.9594,740.0762 L1096.9594,741.5293 Q1096.9594,742.1387 1096.725,742.4043 Q1096.4906,742.6699 1096.1156,742.6699 Q1095.7719,742.6699 1095.5688,742.4668 Q1095.3656,742.2793 1095.2563,741.7637 Q1095.2094,741.4043 1095.0219,741.2168 Q1094.6938,740.8418 1094.0844,740.623 Q1093.475,740.4043 1092.85,740.4043 Q1092.0844,740.4043 1091.4438,740.7324 Q1090.8188,741.0605 1090.3188,741.8105 Q1089.8344,742.5605 1089.8344,743.5918 L1089.8344,744.6855 Q1089.8344,745.9199 1090.725,746.748 Q1091.6156,747.5605 1093.2094,747.5605 Q1094.1469,747.5605 1094.8031,747.3105 Q1095.1938,747.1543 1095.6156,746.7168 Q1095.8813,746.4512 1096.0219,746.373 Q1096.1781,746.2949 1096.3813,746.2949 Q1096.7094,746.2949 1096.9594,746.5605 Q1097.225,746.8105 1097.225,747.1543 Q1097.225,747.498 1096.8813,747.9043 Q1096.3813,748.4824 1095.5844,748.8105 Q1094.5063,749.2637 1093.2094,749.2637 Q1091.6938,749.2637 1090.4906,748.6387 Q1089.5063,748.1387 1088.8188,747.0762 Q1088.1313,745.998 1088.1313,744.7168 L1088.1313,743.5605 Q1088.1313,742.2324 1088.7406,741.0918 Q1089.3656,739.9355 1090.4594,739.3262 Q1091.5531,738.7012 1092.7875,738.7012 Q1093.5219,738.7012 1094.1625,738.873 Q1094.8188,739.0293 1095.3656,739.3887 Z " fill="#000000"/><text fill="#000000" font-family="sans-serif" font-size="14" lengthAdjust="spacing" textLength="100" x="1109.4" y="749.3105">GameController</text><line style="stroke:#181818;stroke-width:0.5;" x1="1066" x2="1224" y1="759.5137" y2="759.5137"/><rect fill="none" height="6" style="stroke:#C82930;stroke-width:1.0;" width="6" x="1073" y="771.3242"/><text fill="#000000" font-family="sans-serif" font-size="14" lengthAdjust="spacing" textLength="101" x="1085" y="778.6211">canvas: Canvas</text><line style="stroke:#181818;stroke-width:1.0;" x1="1066" x2="1224" y1="786.1348" y2="786.1348"/><ellipse cx="1076" cy="800.9453" fill="#84BE84" rx="3" ry="3" style="stroke:#038048;stroke-width:1.0;"/><text fill="#000000" font-family="sans-serif" font-size="14" lengthAdjust="spacing" textLength="134" x="1085" y="805.2422">getCanvas(): Canvas</text></g><!--class HomeViewEvents--><g id="elem_HomeViewEvents"><rect codeLine="52" fill="#F1F1F1" height="141.1055" id="HomeViewEvents" rx="2.5" ry="2.5" style="stroke:#181818;stroke-width:0.5;" width="321" x="46.5" y="699.5137"/><ellipse cx="148.75" cy="715.5137" fill="#ADD1B2" rx="11" ry="11" style="stroke:#181818;stroke-width:1.0;"/><path d="M151.5156,711.3887 Q151.6719,711.1699 151.8594,711.0605 Q152.0469,710.9512 152.2656,710.9512 Q152.6406,710.9512 152.875,711.2168 Q153.1094,711.4668 153.1094,712.0762 L153.1094,713.5293 Q153.1094,714.1387 152.875,714.4043 Q152.6406,714.6699 152.2656,714.6699 Q151.9219,714.6699 151.7188,714.4668 Q151.5156,714.2793 151.4063,713.7637 Q151.3594,713.4043 151.1719,713.2168 Q150.8438,712.8418 150.2344,712.623 Q149.625,712.4043 149,712.4043 Q148.2344,712.4043 147.5938,712.7324 Q146.9688,713.0605 146.4688,713.8105 Q145.9844,714.5605 145.9844,715.5918 L145.9844,716.6855 Q145.9844,717.9199 146.875,718.748 Q147.7656,719.5605 149.3594,719.5605 Q150.2969,719.5605 150.9531,719.3105 Q151.3438,719.1543 151.7656,718.7168 Q152.0313,718.4512 152.1719,718.373 Q152.3281,718.2949 152.5313,718.2949 Q152.8594,718.2949 153.1094,718.5605 Q153.375,718.8105 153.375,719.1543 Q153.375,719.498 153.0313,719.9043 Q152.5313,720.4824 151.7344,720.8105 Q150.6563,721.2637 149.3594,721.2637 Q147.8438,721.2637 146.6406,720.6387 Q145.6563,720.1387 144.9688,719.0762 Q144.2813,717.998 144.2813,716.7168 L144.2813,715.5605 Q144.2813,714.2324 144.8906,713.0918 Q145.5156,711.9355 146.6094,711.3262 Q147.7031,710.7012 148.9375,710.7012 Q149.6719,710.7012 150.3125,710.873 Q150.9688,711.0293 151.5156,711.3887 Z " fill="#000000"/><text fill="#000000" font-family="sans-serif" font-size="14" lengthAdjust="spacing" textLength="108" x="169.25" y="721.3105">HomeViewEvents</text><line style="stroke:#181818;stroke-width:0.5;" x1="47.5" x2="366.5" y1="731.5137" y2="731.5137"/><rect fill="none" height="6" style="stroke:#C82930;stroke-width:1.0;" width="6" x="54.5" y="743.3242"/><text fill="#000000" font-family="sans-serif" font-size="14" lengthAdjust="spacing" textLength="107" x="66.5" y="750.6211">gameTitle: String</text><line style="stroke:#181818;stroke-width:1.0;" x1="47.5" x2="366.5" y1="758.1348" y2="758.1348"/><ellipse cx="57.5" cy="772.9453" fill="#84BE84" rx="3" ry="3" style="stroke:#038048;stroke-width:1.0;"/><text fill="#000000" font-family="sans-serif" font-size="14" lengthAdjust="spacing" textLength="221" x="66.5" y="777.2422">HomeViewEvents(String gameTitle)</text><ellipse cx="57.5" cy="791.5664" fill="#84BE84" rx="3" ry="3" style="stroke:#038048;stroke-width:1.0;"/><text fill="#000000" font-family="sans-serif" font-size="14" lengthAdjust="spacing" textLength="198" x="66.5" y="795.8633">onViewInit(ViewController): void</text><ellipse cx="57.5" cy="810.1875" fill="#84BE84" rx="3" ry="3" style="stroke:#038048;stroke-width:1.0;"/><text fill="#000000" font-family="sans-serif" font-size="14" lengthAdjust="spacing" textLength="242" x="66.5" y="814.4844">onViewDisplayed(ViewController): void</text><ellipse cx="57.5" cy="828.8086" fill="#84BE84" rx="3" ry="3" style="stroke:#038048;stroke-width:1.0;"/><text fill="#000000" font-family="sans-serif" font-size="14" lengthAdjust="spacing" textLength="295" x="66.5" y="833.1055">onKeyPressed(ViewController, KeyEvent): void</text></g><!--class GameViewEvents--><g id="elem_GameViewEvents"><rect codeLine="61" fill="#F1F1F1" height="122.4844" id="GameViewEvents" rx="2.5" ry="2.5" style="stroke:#181818;stroke-width:0.5;" width="321" x="402.5" y="709.0137"/><ellipse cx="503.75" cy="725.0137" fill="#ADD1B2" rx="11" ry="11" style="stroke:#181818;stroke-width:1.0;"/><path d="M506.5156,720.8887 Q506.6719,720.6699 506.8594,720.5605 Q507.0469,720.4512 507.2656,720.4512 Q507.6406,720.4512 507.875,720.7168 Q508.1094,720.9668 508.1094,721.5762 L508.1094,723.0293 Q508.1094,723.6387 507.875,723.9043 Q507.6406,724.1699 507.2656,724.1699 Q506.9219,724.1699 506.7188,723.9668 Q506.5156,723.7793 506.4063,723.2637 Q506.3594,722.9043 506.1719,722.7168 Q505.8438,722.3418 505.2344,722.123 Q504.625,721.9043 504,721.9043 Q503.2344,721.9043 502.5938,722.2324 Q501.9688,722.5605 501.4688,723.3105 Q500.9844,724.0605 500.9844,725.0918 L500.9844,726.1855 Q500.9844,727.4199 501.875,728.248 Q502.7656,729.0605 504.3594,729.0605 Q505.2969,729.0605 505.9531,728.8105 Q506.3438,728.6543 506.7656,728.2168 Q507.0313,727.9512 507.1719,727.873 Q507.3281,727.7949 507.5313,727.7949 Q507.8594,727.7949 508.1094,728.0605 Q508.375,728.3105 508.375,728.6543 Q508.375,728.998 508.0313,729.4043 Q507.5313,729.9824 506.7344,730.3105 Q505.6563,730.7637 504.3594,730.7637 Q502.8438,730.7637 501.6406,730.1387 Q500.6563,729.6387 499.9688,728.5762 Q499.2813,727.498 499.2813,726.2168 L499.2813,725.0605 Q499.2813,723.7324 499.8906,722.5918 Q500.5156,721.4355 501.6094,720.8262 Q502.7031,720.2012 503.9375,720.2012 Q504.6719,720.2012 505.3125,720.373 Q505.9688,720.5293 506.5156,720.8887 Z " fill="#000000"/><text fill="#000000" font-family="sans-serif" font-size="14" lengthAdjust="spacing" textLength="110" x="524.25" y="730.8105">GameViewEvents</text><line style="stroke:#181818;stroke-width:0.5;" x1="403.5" x2="722.5" y1="741.0137" y2="741.0137"/><line style="stroke:#181818;stroke-width:0.5;" x1="403.5" x2="722.5" y1="749.0137" y2="749.0137"/><rect fill="#F24D5C" height="6" style="stroke:#C82930;stroke-width:1.0;" width="6" x="410.5" y="760.8242"/><text fill="#000000" font-family="sans-serif" font-size="14" lengthAdjust="spacing" textLength="179" x="422.5" y="768.1211">draw(Canvas, Number): void</text><ellipse cx="413.5" cy="782.4453" fill="#84BE84" rx="3" ry="3" style="stroke:#038048;stroke-width:1.0;"/><text fill="#000000" font-family="sans-serif" font-size="14" lengthAdjust="spacing" textLength="198" x="422.5" y="786.7422">onViewInit(ViewController): void</text><ellipse cx="413.5" cy="801.0664" fill="#84BE84" rx="3" ry="3" style="stroke:#038048;stroke-width:1.0;"/><text fill="#000000" font-family="sans-serif" font-size="14" lengthAdjust="spacing" textLength="242" x="422.5" y="805.3633">onViewDisplayed(ViewController): void</text><ellipse cx="413.5" cy="819.6875" fill="#84BE84" rx="3" ry="3" style="stroke:#038048;stroke-width:1.0;"/><text fill="#000000" font-family="sans-serif" font-size="14" lengthAdjust="spacing" textLength="295" x="422.5" y="823.9844">onKeyPressed(ViewController, KeyEvent): void</text></g><!--link View to ViewController--><g id="link_View_ViewController"><path codeLine="70" d="M775,423.2937 C809.02,460.3737 848.62,503.5437 872.48,529.5437 " fill="none" id="View-ViewController" style="stroke:#181818;stroke-width:1.0;"/><rect fill="none" height="6" style="stroke:#C82930;stroke-width:1.0;" width="6" x="821" y="460.1592"/><text fill="#000000" font-family="sans-serif" font-size="13" lengthAdjust="spacing" textLength="53" x="831" y="468.042">controller</text><text fill="#000000" font-family="sans-serif" font-size="13" lengthAdjust="spacing" textLength="7" x="859.3814" y="518.571">1</text></g><!--link View to ViewEvents--><g id="link_View_ViewEvents"><path codeLine="71" d="M659.24,423.2937 C640.06,449.1337 618.7,477.9337 600.98,501.8237 " fill="none" id="View-ViewEvents" style="stroke:#181818;stroke-width:1.0;"/><rect fill="none" height="6" style="stroke:#C82930;stroke-width:1.0;" width="6" x="640" y="460.1592"/><text fill="#000000" font-family="sans-serif" font-size="13" lengthAdjust="spacing" textLength="37" x="650" y="468.042">events</text><text fill="#000000" font-family="sans-serif" font-size="13" lengthAdjust="spacing" textLength="22" x="582.6054" y="490.7255">0..1</text></g><!--link ViewManager to View--><g id="link_ViewManager_View"><path codeLine="72" d="M711,203.2637 C711,228.7837 711,256.8637 711,281.6537 " fill="none" id="ViewManager-View" style="stroke:#181818;stroke-width:1.0;"/><ellipse cx="717" cy="243.1592" fill="none" rx="3" ry="3" style="stroke:#038048;stroke-width:1.0;"/><text fill="#000000" font-family="sans-serif" font-size="13" lengthAdjust="spacing" textLength="31" x="724" y="248.042">views</text><text fill="#000000" font-family="sans-serif" font-size="13" lengthAdjust="spacing" textLength="5" x="705.7422" y="270.5076">*</text></g><!--reverse link ViewController to HomeController--><g id="link_ViewController_HomeController"><path codeLine="74" d="M894,598.6037 C894,624.7737 894,658.8537 894,689.6637 " fill="none" id="ViewController-backto-HomeController" style="stroke:#181818;stroke-width:1.0;"/><polygon fill="none" points="887,598.3237,894,578.3237,901,598.3237,887,598.3237" style="stroke:#181818;stroke-width:1.0;"/></g><!--reverse link ViewEvents to HomeViewEvents--><g id="link_ViewEvents_HomeViewEvents"><path codeLine="75" d="M437.91,615.4637 C419.93,624.9537 401.84,634.9637 385,645.0137 C357.35,661.5237 328.32,680.8337 301.91,699.2337 " fill="none" id="ViewEvents-backto-HomeViewEvents" style="stroke:#181818;stroke-width:1.0;"/><polygon fill="none" points="434.82,609.1737,455.79,606.1537,441.28,621.5937,434.82,609.1737" style="stroke:#181818;stroke-width:1.0;"/></g><!--reverse link ViewController to GameController--><g id="link_ViewController_GameController"><path codeLine="76" d="M961.34,587.5737 C989.41,602.8737 1021.37,622.6737 1047,645.0137 C1074.51,668.9937 1099.89,701.5237 1117.92,727.2537 " fill="none" id="ViewController-backto-GameController" style="stroke:#181818;stroke-width:1.0;"/><polygon fill="none" points="957.98,593.7137,943.56,578.1837,964.52,581.3337,957.98,593.7137" style="stroke:#181818;stroke-width:1.0;"/></g><!--reverse link ViewEvents to GameViewEvents--><g id="link_ViewEvents_GameViewEvents"><path codeLine="77" d="M563,626.3537 C563,653.0437 563,683.0737 563,708.6737 " fill="none" id="ViewEvents-backto-GameViewEvents" style="stroke:#181818;stroke-width:1.0;"/><polygon fill="none" points="556,626.2737,563,606.2737,570,626.2737,556,626.2737" style="stroke:#181818;stroke-width:1.0;"/></g><!--SRC=[pLLDJ-Cm4BtdLrXmIRSDMguzh0JT0jMg2zfMxDbrXwnLrwvi9u0A_ttzaIQE4mhYH0w9xNaUptipdkmmsU0SK47HFa7c8GmhXUufF5OBzidG7PR0DP92w6OrguT3joFrg96RJ0JNKZ06qi-dfJ6fGR0b1_t7-4i7uyfzO1FSxfbnwiobeEkEyITLEuQVOTr2l2RkWrTAIqnqmAS92Eqh5EKQv0Cc44GOq6w5qNRnVb3lut_1yvq4fJhW4J8c5qqFC-355jtFfdyNGQGtj_Ffg9vTNyoduPP6Wpdc9jkobTgzqbXJychKC2DEO1n20w2nviQui9_-8Z0PdLLER5Bwt0oH0krSfExT5ORZakPOmrAaZcONOJnS5OmjY0JWwKe81fZtIBMhYhiqSOHvzNhSY2s4DL6RFTiSRs59DNEC9ULvP7-e8vZy0xAv54zZT1YreLbhUceoVrbeBVY4KRBfbFS1qp1SYZndq0jqMbmV8arze6y2hpeXzuaN2DY8PSyu8XR1lCJA2E2-n-Yx8l4mooZQq3dN9gdtRdueIV7HRM-LN8sJGGJ_yEt_J0VuP1TuCpj7L5fB_9XwfKVeTx5T7MVm5Gdxjo7k_anPTd9-4ZVriQt3Ube3lv-TLTXA7Oi3Dqp2bcYWtppE88Q-PoH9r2IoOfUz_8XEJg8Y3K1-9ObkJx-NA8bTB_y1]--></g></svg>
