<?xml version="1.0" encoding="us-ascii" standalone="no"?><svg xmlns="http://www.w3.org/2000/svg" xmlns:xlink="http://www.w3.org/1999/xlink" contentStyleType="text/css" height="1201px" preserveAspectRatio="none" style="width:2145px;height:1201px;background:#FFFFFF;" version="1.1" viewBox="0 0 2145 1201" width="2145px" zoomAndPan="magnify"><defs/><g><!--cluster Escape--><g id="cluster_Escape"><path d="M8.5,67 L60.5,67 A3.75,3.75 0 0 1 63,69.5 L70,91.6211 L2044.5,91.6211 A2.5,2.5 0 0 1 2047,94.1211 L2047,1191.5 A2.5,2.5 0 0 1 2044.5,1194 L8.5,1194 A2.5,2.5 0 0 1 6,1191.5 L6,69.5 A2.5,2.5 0 0 1 8.5,67 " fill="none" style="stroke:#000000;stroke-width:1.5;"/><line style="stroke:#000000;stroke-width:1.5;" x1="6" x2="70" y1="91.6211" y2="91.6211"/><text fill="#000000" font-family="sans-serif" font-size="14" font-weight="bold" lengthAdjust="spacing" textLength="51" x="10" y="84.1074">Escape</text></g><!--cluster Monde--><g id="cluster_Monde"><path d="M370.5,269 L420.5,269 A3.75,3.75 0 0 1 423,271.5 L430,293.6211 L1843.5,293.6211 A2.5,2.5 0 0 1 1846,296.1211 L1846,1167.5 A2.5,2.5 0 0 1 1843.5,1170 L370.5,1170 A2.5,2.5 0 0 1 368,1167.5 L368,271.5 A2.5,2.5 0 0 1 370.5,269 " fill="none" style="stroke:#000000;stroke-width:1.5;"/><line style="stroke:#000000;stroke-width:1.5;" x1="368" x2="430" y1="293.6211" y2="293.6211"/><text fill="#000000" font-family="sans-serif" font-size="14" font-weight="bold" lengthAdjust="spacing" textLength="49" x="372" y="286.1074">Monde</text></g><!--cluster Outils--><g id="cluster_Outils"><path d="M32.5,334 L74.5,334 A3.75,3.75 0 0 1 77,336.5 L84,358.6211 L341.5,358.6211 A2.5,2.5 0 0 1 344,361.1211 L344,1026.5 A2.5,2.5 0 0 1 341.5,1029 L32.5,1029 A2.5,2.5 0 0 1 30,1026.5 L30,336.5 A2.5,2.5 0 0 1 32.5,334 " fill="none" style="stroke:#000000;stroke-width:1.5;"/><line style="stroke:#000000;stroke-width:1.5;" x1="30" x2="84" y1="358.6211" y2="358.6211"/><text fill="#000000" font-family="sans-serif" font-size="14" font-weight="bold" lengthAdjust="spacing" textLength="41" x="34" y="351.1074">Outils</text></g><!--cluster gui--><g id="cluster_gui"><path d="M1880.5,667 L1903.5,667 A3.75,3.75 0 0 1 1906,669.5 L1913,691.6211 L2012.5,691.6211 A2.5,2.5 0 0 1 2015,694.1211 L2015,781.5 A2.5,2.5 0 0 1 2012.5,784 L1880.5,784 A2.5,2.5 0 0 1 1878,781.5 L1878,669.5 A2.5,2.5 0 0 1 1880.5,667 " fill="none" style="stroke:#000000;stroke-width:1.5;"/><line style="stroke:#000000;stroke-width:1.5;" x1="1878" x2="1913" y1="691.6211" y2="691.6211"/><text fill="#000000" font-family="sans-serif" font-size="14" font-weight="bold" lengthAdjust="spacing" textLength="22" x="1882" y="684.1074">gui</text></g><!--cluster engine--><g id="cluster_engine"><path d="M1764.5,120 L1814.5,120 A3.75,3.75 0 0 1 1817,122.5 L1824,144.6211 L1958.5,144.6211 A2.5,2.5 0 0 1 1961,147.1211 L1961,234.5 A2.5,2.5 0 0 1 1958.5,237 L1764.5,237 A2.5,2.5 0 0 1 1762,234.5 L1762,122.5 A2.5,2.5 0 0 1 1764.5,120 " fill="none" style="stroke:#000000;stroke-width:1.5;"/><line style="stroke:#000000;stroke-width:1.5;" x1="1762" x2="1824" y1="144.6211" y2="144.6211"/><text fill="#000000" font-family="sans-serif" font-size="14" font-weight="bold" lengthAdjust="spacing" textLength="49" x="1766" y="137.1074">engine</text></g><!--class ElementMonde--><g id="elem_ElementMonde"><rect codeLine="4" fill="#F1F1F1" height="174.3477" id="ElementMonde" rx="2.5" ry="2.5" style="stroke:#181818;stroke-width:0.5;" width="127" x="1261.5" y="364"/><ellipse cx="1276.5" cy="380" fill="#A9DCDF" rx="11" ry="11" style="stroke:#181818;stroke-width:1.0;"/><path d="M1278.6875,381.7656 L1274.5469,381.7656 L1274.125,382.7969 L1274.5469,382.7969 Q1275.1563,382.7969 1275.4219,383.0313 Q1275.6875,383.2656 1275.6875,383.6563 Q1275.6875,384.0313 1275.4219,384.2656 Q1275.1563,384.5 1274.5469,384.5 L1272.25,384.5 Q1271.6406,384.5 1271.3906,384.2656 Q1271.125,384.0313 1271.125,383.6406 Q1271.125,383.2656 1271.4063,383.0313 Q1271.6719,382.7813 1272.2969,382.7969 L1274.9688,376.1406 L1273.8594,376.1406 Q1273.25,376.1406 1272.9844,375.9063 Q1272.7188,375.6719 1272.7188,375.2813 Q1272.7188,374.9063 1272.9844,374.6719 Q1273.25,374.4375 1273.8594,374.4375 L1277.5313,374.4375 L1280.9219,382.7969 Q1281.5156,382.7969 1281.7031,382.9375 Q1282.0938,383.2031 1282.0938,383.6563 Q1282.0938,384.0313 1281.8281,384.2656 Q1281.5781,384.5 1280.9688,384.5 L1278.6719,384.5 Q1278.0625,384.5 1277.7969,384.2656 Q1277.5313,384.0313 1277.5313,383.6406 Q1277.5313,383.2656 1277.7969,383.0313 Q1278.0625,382.7969 1278.6719,382.7969 L1279.0938,382.7969 L1278.6875,381.7656 Z M1277.9688,380.0625 L1276.6094,376.6875 L1275.2344,380.0625 L1277.9688,380.0625 Z " fill="#000000"/><text fill="#000000" font-family="sans-serif" font-size="14" font-style="italic" lengthAdjust="spacing" textLength="95" x="1290.5" y="385.7969">ElementMonde</text><line style="stroke:#181818;stroke-width:0.5;" x1="1262.5" x2="1387.5" y1="396" y2="396"/><polygon fill="none" points="1272.5,405.8105,1276.5,409.8105,1272.5,413.8105,1268.5,409.8105" style="stroke:#B38D22;stroke-width:1.0;"/><text fill="#000000" font-family="sans-serif" font-size="14" lengthAdjust="spacing" textLength="53" x="1281.5" y="415.1074">double x</text><polygon fill="none" points="1272.5,424.4316,1276.5,428.4316,1272.5,432.4316,1268.5,428.4316" style="stroke:#B38D22;stroke-width:1.0;"/><text fill="#000000" font-family="sans-serif" font-size="14" lengthAdjust="spacing" textLength="54" x="1281.5" y="433.7285">double y</text><polygon fill="none" points="1272.5,443.0527,1276.5,447.0527,1272.5,451.0527,1268.5,447.0527" style="stroke:#B38D22;stroke-width:1.0;"/><text fill="#000000" font-family="sans-serif" font-size="14" lengthAdjust="spacing" textLength="96" x="1281.5" y="452.3496">double hauteur</text><polygon fill="none" points="1272.5,461.6738,1276.5,465.6738,1272.5,469.6738,1268.5,465.6738" style="stroke:#B38D22;stroke-width:1.0;"/><text fill="#000000" font-family="sans-serif" font-size="14" lengthAdjust="spacing" textLength="92" x="1281.5" y="470.9707">double largeur</text><ellipse cx="1272.5" cy="507.916" fill="#84BE84" rx="3" ry="3" style="stroke:#038048;stroke-width:1.0;"/><text fill="#000000" font-family="sans-serif" font-size="14" lengthAdjust="spacing" textLength="53" x="1281.5" y="512.2129">Monde()</text><text fill="#000000" font-family="sans-serif" font-size="14" lengthAdjust="spacing" textLength="4" x="1281.5" y="530.834">&#160;</text><line style="stroke:#181818;stroke-width:1.0;stroke-dasharray:1.0,2.0;" x1="1262.5" x2="1284" y1="487.7949" y2="487.7949"/><text fill="#000000" font-family="sans-serif" font-size="14" lengthAdjust="spacing" textLength="82" x="1284" y="493.0918">Constructeur</text><line style="stroke:#181818;stroke-width:1.0;stroke-dasharray:1.0,2.0;" x1="1366" x2="1387.5" y1="487.7949" y2="487.7949"/></g><!--class Terrain--><g id="elem_Terrain"><rect codeLine="13" fill="#F1F1F1" height="141.1055" id="Terrain" rx="2.5" ry="2.5" style="stroke:#181818;stroke-width:0.5;" width="401" x="623.5" y="665.5"/><ellipse cx="796.75" cy="681.5" fill="#A9DCDF" rx="11" ry="11" style="stroke:#181818;stroke-width:1.0;"/><path d="M798.9375,683.2656 L794.7969,683.2656 L794.375,684.2969 L794.7969,684.2969 Q795.4063,684.2969 795.6719,684.5313 Q795.9375,684.7656 795.9375,685.1563 Q795.9375,685.5313 795.6719,685.7656 Q795.4063,686 794.7969,686 L792.5,686 Q791.8906,686 791.6406,685.7656 Q791.375,685.5313 791.375,685.1406 Q791.375,684.7656 791.6563,684.5313 Q791.9219,684.2813 792.5469,684.2969 L795.2188,677.6406 L794.1094,677.6406 Q793.5,677.6406 793.2344,677.4063 Q792.9688,677.1719 792.9688,676.7813 Q792.9688,676.4063 793.2344,676.1719 Q793.5,675.9375 794.1094,675.9375 L797.7813,675.9375 L801.1719,684.2969 Q801.7656,684.2969 801.9531,684.4375 Q802.3438,684.7031 802.3438,685.1563 Q802.3438,685.5313 802.0781,685.7656 Q801.8281,686 801.2188,686 L798.9219,686 Q798.3125,686 798.0469,685.7656 Q797.7813,685.5313 797.7813,685.1406 Q797.7813,684.7656 798.0469,684.5313 Q798.3125,684.2969 798.9219,684.2969 L799.3438,684.2969 L798.9375,683.2656 Z M798.2188,681.5625 L796.8594,678.1875 L795.4844,681.5625 L798.2188,681.5625 Z " fill="#000000"/><text fill="#000000" font-family="sans-serif" font-size="14" font-style="italic" lengthAdjust="spacing" textLength="46" x="817.25" y="687.2969">Terrain</text><line style="stroke:#181818;stroke-width:0.5;" x1="624.5" x2="1023.5" y1="697.5" y2="697.5"/><ellipse cx="634.5" cy="734.9316" fill="#84BE84" rx="3" ry="3" style="stroke:#038048;stroke-width:1.0;"/><text fill="#000000" font-family="sans-serif" font-size="14" lengthAdjust="spacing" textLength="375" x="643.5" y="739.2285">Terrain(double x, double y, double hauteur, double largeur)</text><line style="stroke:#181818;stroke-width:1.0;stroke-dasharray:1.0,2.0;" x1="624.5" x2="783" y1="714.8105" y2="714.8105"/><text fill="#000000" font-family="sans-serif" font-size="14" lengthAdjust="spacing" textLength="82" x="783" y="720.1074">Constructeur</text><line style="stroke:#181818;stroke-width:1.0;stroke-dasharray:1.0,2.0;" x1="865" x2="1023.5" y1="714.8105" y2="714.8105"/><ellipse cx="634.5" cy="776.1738" fill="#84BE84" rx="3" ry="3" style="stroke:#038048;stroke-width:1.0;"/><text fill="#000000" font-family="sans-serif" font-size="14" lengthAdjust="spacing" textLength="160" x="643.5" y="780.4707">boolean estTraversable()</text><text fill="#000000" font-family="sans-serif" font-size="14" lengthAdjust="spacing" textLength="4" x="643.5" y="799.0918">&#160;</text><line style="stroke:#181818;stroke-width:1.0;stroke-dasharray:1.0,2.0;" x1="624.5" x2="793" y1="756.0527" y2="756.0527"/><text fill="#000000" font-family="sans-serif" font-size="14" lengthAdjust="spacing" textLength="62" x="793" y="761.3496">M&#233;thodes</text><line style="stroke:#181818;stroke-width:1.0;stroke-dasharray:1.0,2.0;" x1="855" x2="1023.5" y1="756.0527" y2="756.0527"/></g><!--class Mur--><g id="elem_Mur"><rect codeLine="21" fill="#F1F1F1" height="122.4844" id="Mur" rx="2.5" ry="2.5" style="stroke:#181818;stroke-width:0.5;" width="379" x="384.5" y="883.5"/><ellipse cx="557.75" cy="899.5" fill="#ADD1B2" rx="11" ry="11" style="stroke:#181818;stroke-width:1.0;"/><path d="M560.5156,895.375 Q560.6719,895.1563 560.8594,895.0469 Q561.0469,894.9375 561.2656,894.9375 Q561.6406,894.9375 561.875,895.2031 Q562.1094,895.4531 562.1094,896.0625 L562.1094,897.5156 Q562.1094,898.125 561.875,898.3906 Q561.6406,898.6563 561.2656,898.6563 Q560.9219,898.6563 560.7188,898.4531 Q560.5156,898.2656 560.4063,897.75 Q560.3594,897.3906 560.1719,897.2031 Q559.8438,896.8281 559.2344,896.6094 Q558.625,896.3906 558,896.3906 Q557.2344,896.3906 556.5938,896.7188 Q555.9688,897.0469 555.4688,897.7969 Q554.9844,898.5469 554.9844,899.5781 L554.9844,900.6719 Q554.9844,901.9063 555.875,902.7344 Q556.7656,903.5469 558.3594,903.5469 Q559.2969,903.5469 559.9531,903.2969 Q560.3438,903.1406 560.7656,902.7031 Q561.0313,902.4375 561.1719,902.3594 Q561.3281,902.2813 561.5313,902.2813 Q561.8594,902.2813 562.1094,902.5469 Q562.375,902.7969 562.375,903.1406 Q562.375,903.4844 562.0313,903.8906 Q561.5313,904.4688 560.7344,904.7969 Q559.6563,905.25 558.3594,905.25 Q556.8438,905.25 555.6406,904.625 Q554.6563,904.125 553.9688,903.0625 Q553.2813,901.9844 553.2813,900.7031 L553.2813,899.5469 Q553.2813,898.2188 553.8906,897.0781 Q554.5156,895.9219 555.6094,895.3125 Q556.7031,894.6875 557.9375,894.6875 Q558.6719,894.6875 559.3125,894.8594 Q559.9688,895.0156 560.5156,895.375 Z " fill="#000000"/><text fill="#000000" font-family="sans-serif" font-size="14" lengthAdjust="spacing" textLength="24" x="578.25" y="905.2969">Mur</text><line style="stroke:#181818;stroke-width:0.5;" x1="385.5" x2="762.5" y1="915.5" y2="915.5"/><ellipse cx="395.5" cy="952.9316" fill="#84BE84" rx="3" ry="3" style="stroke:#038048;stroke-width:1.0;"/><text fill="#000000" font-family="sans-serif" font-size="14" lengthAdjust="spacing" textLength="353" x="404.5" y="957.2285">Mur(double x, double y, double hauteur, double largeur)</text><line style="stroke:#181818;stroke-width:1.0;stroke-dasharray:1.0,2.0;" x1="385.5" x2="533" y1="932.8105" y2="932.8105"/><text fill="#000000" font-family="sans-serif" font-size="14" lengthAdjust="spacing" textLength="82" x="533" y="938.1074">Constructeur</text><line style="stroke:#181818;stroke-width:1.0;stroke-dasharray:1.0,2.0;" x1="615" x2="762.5" y1="932.8105" y2="932.8105"/><ellipse cx="395.5" cy="994.1738" fill="#84BE84" rx="3" ry="3" style="stroke:#038048;stroke-width:1.0;"/><text fill="#000000" font-family="sans-serif" font-size="14" lengthAdjust="spacing" textLength="160" x="404.5" y="998.4707">boolean estTraversable()</text><line style="stroke:#181818;stroke-width:1.0;stroke-dasharray:1.0,2.0;" x1="385.5" x2="543" y1="974.0527" y2="974.0527"/><text fill="#000000" font-family="sans-serif" font-size="14" lengthAdjust="spacing" textLength="62" x="543" y="979.3496">M&#233;thodes</text><line style="stroke:#181818;stroke-width:1.0;stroke-dasharray:1.0,2.0;" x1="605" x2="762.5" y1="974.0527" y2="974.0527"/></g><!--class Personnage--><g id="elem_Personnage"><rect codeLine="29" fill="#F1F1F1" height="159.7266" id="Personnage" rx="2.5" ry="2.5" style="stroke:#181818;stroke-width:0.5;" width="531" x="1059.5" y="656"/><ellipse cx="1282.25" cy="672" fill="#A9DCDF" rx="11" ry="11" style="stroke:#181818;stroke-width:1.0;"/><path d="M1284.4375,673.7656 L1280.2969,673.7656 L1279.875,674.7969 L1280.2969,674.7969 Q1280.9063,674.7969 1281.1719,675.0313 Q1281.4375,675.2656 1281.4375,675.6563 Q1281.4375,676.0313 1281.1719,676.2656 Q1280.9063,676.5 1280.2969,676.5 L1278,676.5 Q1277.3906,676.5 1277.1406,676.2656 Q1276.875,676.0313 1276.875,675.6406 Q1276.875,675.2656 1277.1563,675.0313 Q1277.4219,674.7813 1278.0469,674.7969 L1280.7188,668.1406 L1279.6094,668.1406 Q1279,668.1406 1278.7344,667.9063 Q1278.4688,667.6719 1278.4688,667.2813 Q1278.4688,666.9063 1278.7344,666.6719 Q1279,666.4375 1279.6094,666.4375 L1283.2813,666.4375 L1286.6719,674.7969 Q1287.2656,674.7969 1287.4531,674.9375 Q1287.8438,675.2031 1287.8438,675.6563 Q1287.8438,676.0313 1287.5781,676.2656 Q1287.3281,676.5 1286.7188,676.5 L1284.4219,676.5 Q1283.8125,676.5 1283.5469,676.2656 Q1283.2813,676.0313 1283.2813,675.6406 Q1283.2813,675.2656 1283.5469,675.0313 Q1283.8125,674.7969 1284.4219,674.7969 L1284.8438,674.7969 L1284.4375,673.7656 Z M1283.7188,672.0625 L1282.3594,668.6875 L1280.9844,672.0625 L1283.7188,672.0625 Z " fill="#000000"/><text fill="#000000" font-family="sans-serif" font-size="14" font-style="italic" lengthAdjust="spacing" textLength="77" x="1302.75" y="677.7969">Personnage</text><line style="stroke:#181818;stroke-width:0.5;" x1="1060.5" x2="1589.5" y1="688" y2="688"/><polygon fill="none" points="1070.5,697.8105,1074.5,701.8105,1070.5,705.8105,1066.5,701.8105" style="stroke:#B38D22;stroke-width:1.0;"/><text fill="#000000" font-family="sans-serif" font-size="14" lengthAdjust="spacing" textLength="91" x="1079.5" y="707.1074">double vitesse</text><ellipse cx="1070.5" cy="744.0527" fill="#84BE84" rx="3" ry="3" style="stroke:#038048;stroke-width:1.0;"/><text fill="#000000" font-family="sans-serif" font-size="14" lengthAdjust="spacing" textLength="505" x="1079.5" y="748.3496">Personnage(double x, double y, double largeur, double hauteur, double vitesse)</text><line style="stroke:#181818;stroke-width:1.0;stroke-dasharray:1.0,2.0;" x1="1060.5" x2="1284" y1="723.9316" y2="723.9316"/><text fill="#000000" font-family="sans-serif" font-size="14" lengthAdjust="spacing" textLength="82" x="1284" y="729.2285">Constructeur</text><line style="stroke:#181818;stroke-width:1.0;stroke-dasharray:1.0,2.0;" x1="1366" x2="1589.5" y1="723.9316" y2="723.9316"/><ellipse cx="1070.5" cy="785.2949" fill="#84BE84" rx="3" ry="3" style="stroke:#038048;stroke-width:1.0;"/><text fill="#000000" font-family="sans-serif" font-size="14" lengthAdjust="spacing" textLength="304" x="1079.5" y="789.5918">void d&#233;placer(TypeMouvement typeMouvement)</text><ellipse cx="1070.5" cy="803.916" fill="#84BE84" rx="3" ry="3" style="stroke:#038048;stroke-width:1.0;"/><text fill="#000000" font-family="sans-serif" font-size="14" lengthAdjust="spacing" textLength="138" x="1079.5" y="808.2129">boolean estUnHeros()</text><line style="stroke:#181818;stroke-width:1.0;stroke-dasharray:1.0,2.0;" x1="1060.5" x2="1294" y1="765.1738" y2="765.1738"/><text fill="#000000" font-family="sans-serif" font-size="14" lengthAdjust="spacing" textLength="62" x="1294" y="770.4707">M&#233;thodes</text><line style="stroke:#181818;stroke-width:1.0;stroke-dasharray:1.0,2.0;" x1="1356" x2="1589.5" y1="765.1738" y2="765.1738"/></g><!--class TypeMouvement--><g id="elem_TypeMouvement"><rect codeLine="38" fill="#F1F1F1" height="122.4844" id="TypeMouvement" rx="2.5" ry="2.5" style="stroke:#181818;stroke-width:0.5;" width="137" x="1081.5" y="390"/><ellipse cx="1096.5" cy="406" fill="#EB937F" rx="11" ry="11" style="stroke:#181818;stroke-width:1.0;"/><path d="M1095.3594,406.7969 L1095.3594,409.2969 L1099.6875,409.2969 L1099.6875,408.375 Q1099.6875,407.7656 1099.9219,407.5 Q1100.1719,407.2344 1100.5469,407.2344 Q1100.9219,407.2344 1101.1563,407.5 Q1101.3906,407.7656 1101.3906,408.375 L1101.3906,411 L1093.3906,411 Q1092.7656,411 1092.5,410.7656 Q1092.25,410.5313 1092.25,410.1406 Q1092.25,409.7656 1092.5156,409.5313 Q1092.7813,409.2969 1093.3906,409.2969 L1093.6563,409.2969 L1093.6563,402.6406 L1093.3906,402.6406 Q1092.7656,402.6406 1092.5,402.4063 Q1092.25,402.1719 1092.25,401.7813 Q1092.25,401.4063 1092.5,401.1719 Q1092.7656,400.9375 1093.3906,400.9375 L1101.0156,400.9375 L1101.0156,403.5313 Q1101.0156,404.1406 1100.7813,404.4063 Q1100.5625,404.6563 1100.1719,404.6563 Q1099.7969,404.6563 1099.5625,404.4063 Q1099.3281,404.1406 1099.3281,403.5313 L1099.3281,402.6406 L1095.3594,402.6406 L1095.3594,405.0938 L1096.8438,405.0938 Q1096.8438,404.4375 1096.9688,404.25 Q1097.2344,403.8438 1097.7031,403.8438 Q1098.0781,403.8438 1098.3125,404.1094 Q1098.5469,404.3594 1098.5469,404.9688 L1098.5469,406.9375 Q1098.5469,407.4844 1098.4219,407.6719 Q1098.1563,408.0625 1097.7031,408.0625 Q1097.2344,408.0625 1096.9688,407.6563 Q1096.8438,407.4688 1096.8438,406.7969 L1095.3594,406.7969 Z " fill="#000000"/><text fill="#000000" font-family="sans-serif" font-size="14" lengthAdjust="spacing" textLength="105" x="1110.5" y="411.7969">TypeMouvement</text><line style="stroke:#181818;stroke-width:0.5;" x1="1082.5" x2="1217.5" y1="422" y2="422"/><text fill="#000000" font-family="sans-serif" font-size="14" lengthAdjust="spacing" textLength="42" x="1087.5" y="441.1074">RIGHT</text><text fill="#000000" font-family="sans-serif" font-size="14" lengthAdjust="spacing" textLength="35" x="1087.5" y="459.7285">LEFT</text><text fill="#000000" font-family="sans-serif" font-size="14" lengthAdjust="spacing" textLength="29" x="1087.5" y="478.3496">TOP</text><text fill="#000000" font-family="sans-serif" font-size="14" lengthAdjust="spacing" textLength="43" x="1087.5" y="496.9707">DOWN</text><line style="stroke:#181818;stroke-width:0.5;" x1="1082.5" x2="1217.5" y1="504.4844" y2="504.4844"/></g><!--class Heros--><g id="elem_Heros"><rect codeLine="45" fill="#F1F1F1" height="122.4844" id="Heros" rx="2.5" ry="2.5" style="stroke:#181818;stroke-width:0.5;" width="491" x="798.5" y="883.5"/><ellipse cx="1021.25" cy="899.5" fill="#ADD1B2" rx="11" ry="11" style="stroke:#181818;stroke-width:1.0;"/><path d="M1024.0156,895.375 Q1024.1719,895.1563 1024.3594,895.0469 Q1024.5469,894.9375 1024.7656,894.9375 Q1025.1406,894.9375 1025.375,895.2031 Q1025.6094,895.4531 1025.6094,896.0625 L1025.6094,897.5156 Q1025.6094,898.125 1025.375,898.3906 Q1025.1406,898.6563 1024.7656,898.6563 Q1024.4219,898.6563 1024.2188,898.4531 Q1024.0156,898.2656 1023.9063,897.75 Q1023.8594,897.3906 1023.6719,897.2031 Q1023.3438,896.8281 1022.7344,896.6094 Q1022.125,896.3906 1021.5,896.3906 Q1020.7344,896.3906 1020.0938,896.7188 Q1019.4688,897.0469 1018.9688,897.7969 Q1018.4844,898.5469 1018.4844,899.5781 L1018.4844,900.6719 Q1018.4844,901.9063 1019.375,902.7344 Q1020.2656,903.5469 1021.8594,903.5469 Q1022.7969,903.5469 1023.4531,903.2969 Q1023.8438,903.1406 1024.2656,902.7031 Q1024.5313,902.4375 1024.6719,902.3594 Q1024.8281,902.2813 1025.0313,902.2813 Q1025.3594,902.2813 1025.6094,902.5469 Q1025.875,902.7969 1025.875,903.1406 Q1025.875,903.4844 1025.5313,903.8906 Q1025.0313,904.4688 1024.2344,904.7969 Q1023.1563,905.25 1021.8594,905.25 Q1020.3438,905.25 1019.1406,904.625 Q1018.1563,904.125 1017.4688,903.0625 Q1016.7813,901.9844 1016.7813,900.7031 L1016.7813,899.5469 Q1016.7813,898.2188 1017.3906,897.0781 Q1018.0156,895.9219 1019.1094,895.3125 Q1020.2031,894.6875 1021.4375,894.6875 Q1022.1719,894.6875 1022.8125,894.8594 Q1023.4688,895.0156 1024.0156,895.375 Z " fill="#000000"/><text fill="#000000" font-family="sans-serif" font-size="14" lengthAdjust="spacing" textLength="37" x="1041.75" y="905.2969">Heros</text><line style="stroke:#181818;stroke-width:0.5;" x1="799.5" x2="1288.5" y1="915.5" y2="915.5"/><ellipse cx="809.5" cy="952.9316" fill="#84BE84" rx="3" ry="3" style="stroke:#038048;stroke-width:1.0;"/><text fill="#000000" font-family="sans-serif" font-size="14" lengthAdjust="spacing" textLength="465" x="818.5" y="957.2285">Heros(double x, double y, double largeur, double hauteur, double vitesse)</text><line style="stroke:#181818;stroke-width:1.0;stroke-dasharray:1.0,2.0;" x1="799.5" x2="1003" y1="932.8105" y2="932.8105"/><text fill="#000000" font-family="sans-serif" font-size="14" lengthAdjust="spacing" textLength="82" x="1003" y="938.1074">Constructeur</text><line style="stroke:#181818;stroke-width:1.0;stroke-dasharray:1.0,2.0;" x1="1085" x2="1288.5" y1="932.8105" y2="932.8105"/><ellipse cx="809.5" cy="994.1738" fill="#84BE84" rx="3" ry="3" style="stroke:#038048;stroke-width:1.0;"/><text fill="#000000" font-family="sans-serif" font-size="14" lengthAdjust="spacing" textLength="138" x="818.5" y="998.4707">boolean estUnHeros()</text><line style="stroke:#181818;stroke-width:1.0;stroke-dasharray:1.0,2.0;" x1="799.5" x2="1013" y1="974.0527" y2="974.0527"/><text fill="#000000" font-family="sans-serif" font-size="14" lengthAdjust="spacing" textLength="62" x="1013" y="979.3496">M&#233;thodes</text><line style="stroke:#181818;stroke-width:1.0;stroke-dasharray:1.0,2.0;" x1="1075" x2="1288.5" y1="974.0527" y2="974.0527"/></g><!--class Monstre--><g id="elem_Monstre"><rect codeLine="52" fill="#F1F1F1" height="81.2422" id="Monstre" rx="2.5" ry="2.5" style="stroke:#181818;stroke-width:0.5;" width="505" x="1324.5" y="904"/><ellipse cx="1546.75" cy="920" fill="#A9DCDF" rx="11" ry="11" style="stroke:#181818;stroke-width:1.0;"/><path d="M1548.9375,921.7656 L1544.7969,921.7656 L1544.375,922.7969 L1544.7969,922.7969 Q1545.4063,922.7969 1545.6719,923.0313 Q1545.9375,923.2656 1545.9375,923.6563 Q1545.9375,924.0313 1545.6719,924.2656 Q1545.4063,924.5 1544.7969,924.5 L1542.5,924.5 Q1541.8906,924.5 1541.6406,924.2656 Q1541.375,924.0313 1541.375,923.6406 Q1541.375,923.2656 1541.6563,923.0313 Q1541.9219,922.7813 1542.5469,922.7969 L1545.2188,916.1406 L1544.1094,916.1406 Q1543.5,916.1406 1543.2344,915.9063 Q1542.9688,915.6719 1542.9688,915.2813 Q1542.9688,914.9063 1543.2344,914.6719 Q1543.5,914.4375 1544.1094,914.4375 L1547.7813,914.4375 L1551.1719,922.7969 Q1551.7656,922.7969 1551.9531,922.9375 Q1552.3438,923.2031 1552.3438,923.6563 Q1552.3438,924.0313 1552.0781,924.2656 Q1551.8281,924.5 1551.2188,924.5 L1548.9219,924.5 Q1548.3125,924.5 1548.0469,924.2656 Q1547.7813,924.0313 1547.7813,923.6406 Q1547.7813,923.2656 1548.0469,923.0313 Q1548.3125,922.7969 1548.9219,922.7969 L1549.3438,922.7969 L1548.9375,921.7656 Z M1548.2188,920.0625 L1546.8594,916.6875 L1545.4844,920.0625 L1548.2188,920.0625 Z " fill="#000000"/><text fill="#000000" font-family="sans-serif" font-size="14" font-style="italic" lengthAdjust="spacing" textLength="52" x="1567.25" y="925.7969">Monstre</text><line style="stroke:#181818;stroke-width:0.5;" x1="1325.5" x2="1828.5" y1="936" y2="936"/><ellipse cx="1335.5" cy="973.4316" fill="#84BE84" rx="3" ry="3" style="stroke:#038048;stroke-width:1.0;"/><text fill="#000000" font-family="sans-serif" font-size="14" lengthAdjust="spacing" textLength="479" x="1344.5" y="977.7285">Monstre(double x, double y, double largeur, double hauteur, double vitesse)</text><line style="stroke:#181818;stroke-width:1.0;stroke-dasharray:1.0,2.0;" x1="1325.5" x2="1536" y1="953.3105" y2="953.3105"/><text fill="#000000" font-family="sans-serif" font-size="14" lengthAdjust="spacing" textLength="82" x="1536" y="958.6074">Constructeur</text><line style="stroke:#181818;stroke-width:1.0;stroke-dasharray:1.0,2.0;" x1="1618" x2="1828.5" y1="953.3105" y2="953.3105"/></g><!--class Walker--><g id="elem_Walker"><rect codeLine="57" fill="#F1F1F1" height="81.2422" id="Walker" rx="2.5" ry="2.5" style="stroke:#181818;stroke-width:0.5;" width="498" x="1328" y="1073"/><ellipse cx="1550.75" cy="1089" fill="#ADD1B2" rx="11" ry="11" style="stroke:#181818;stroke-width:1.0;"/><path d="M1553.5156,1084.875 Q1553.6719,1084.6563 1553.8594,1084.5469 Q1554.0469,1084.4375 1554.2656,1084.4375 Q1554.6406,1084.4375 1554.875,1084.7031 Q1555.1094,1084.9531 1555.1094,1085.5625 L1555.1094,1087.0156 Q1555.1094,1087.625 1554.875,1087.8906 Q1554.6406,1088.1563 1554.2656,1088.1563 Q1553.9219,1088.1563 1553.7188,1087.9531 Q1553.5156,1087.7656 1553.4063,1087.25 Q1553.3594,1086.8906 1553.1719,1086.7031 Q1552.8438,1086.3281 1552.2344,1086.1094 Q1551.625,1085.8906 1551,1085.8906 Q1550.2344,1085.8906 1549.5938,1086.2188 Q1548.9688,1086.5469 1548.4688,1087.2969 Q1547.9844,1088.0469 1547.9844,1089.0781 L1547.9844,1090.1719 Q1547.9844,1091.4063 1548.875,1092.2344 Q1549.7656,1093.0469 1551.3594,1093.0469 Q1552.2969,1093.0469 1552.9531,1092.7969 Q1553.3438,1092.6406 1553.7656,1092.2031 Q1554.0313,1091.9375 1554.1719,1091.8594 Q1554.3281,1091.7813 1554.5313,1091.7813 Q1554.8594,1091.7813 1555.1094,1092.0469 Q1555.375,1092.2969 1555.375,1092.6406 Q1555.375,1092.9844 1555.0313,1093.3906 Q1554.5313,1093.9688 1553.7344,1094.2969 Q1552.6563,1094.75 1551.3594,1094.75 Q1549.8438,1094.75 1548.6406,1094.125 Q1547.6563,1093.625 1546.9688,1092.5625 Q1546.2813,1091.4844 1546.2813,1090.2031 L1546.2813,1089.0469 Q1546.2813,1087.7188 1546.8906,1086.5781 Q1547.5156,1085.4219 1548.6094,1084.8125 Q1549.7031,1084.1875 1550.9375,1084.1875 Q1551.6719,1084.1875 1552.3125,1084.3594 Q1552.9688,1084.5156 1553.5156,1084.875 Z " fill="#000000"/><text fill="#000000" font-family="sans-serif" font-size="14" lengthAdjust="spacing" textLength="44" x="1571.25" y="1094.7969">Walker</text><line style="stroke:#181818;stroke-width:0.5;" x1="1329" x2="1825" y1="1105" y2="1105"/><ellipse cx="1339" cy="1142.4316" fill="#84BE84" rx="3" ry="3" style="stroke:#038048;stroke-width:1.0;"/><text fill="#000000" font-family="sans-serif" font-size="14" lengthAdjust="spacing" textLength="472" x="1348" y="1146.7285">Walker(double x, double y, double largeur, double hauteur, double vitesse)</text><line style="stroke:#181818;stroke-width:1.0;stroke-dasharray:1.0,2.0;" x1="1329" x2="1536" y1="1122.3105" y2="1122.3105"/><text fill="#000000" font-family="sans-serif" font-size="14" lengthAdjust="spacing" textLength="82" x="1536" y="1127.6074">Constructeur</text><line style="stroke:#181818;stroke-width:1.0;stroke-dasharray:1.0,2.0;" x1="1618" x2="1825" y1="1122.3105" y2="1122.3105"/></g><!--class Monde--><g id="elem_Monde"><rect codeLine="62" fill="#F1F1F1" height="290.0742" id="Monde" rx="2.5" ry="2.5" style="stroke:#181818;stroke-width:0.5;" width="393" x="636.5" y="306"/><ellipse cx="807.25" cy="322" fill="#ADD1B2" rx="11" ry="11" style="stroke:#181818;stroke-width:1.0;"/><path d="M810.0156,317.875 Q810.1719,317.6563 810.3594,317.5469 Q810.5469,317.4375 810.7656,317.4375 Q811.1406,317.4375 811.375,317.7031 Q811.6094,317.9531 811.6094,318.5625 L811.6094,320.0156 Q811.6094,320.625 811.375,320.8906 Q811.1406,321.1563 810.7656,321.1563 Q810.4219,321.1563 810.2188,320.9531 Q810.0156,320.7656 809.9063,320.25 Q809.8594,319.8906 809.6719,319.7031 Q809.3438,319.3281 808.7344,319.1094 Q808.125,318.8906 807.5,318.8906 Q806.7344,318.8906 806.0938,319.2188 Q805.4688,319.5469 804.9688,320.2969 Q804.4844,321.0469 804.4844,322.0781 L804.4844,323.1719 Q804.4844,324.4063 805.375,325.2344 Q806.2656,326.0469 807.8594,326.0469 Q808.7969,326.0469 809.4531,325.7969 Q809.8438,325.6406 810.2656,325.2031 Q810.5313,324.9375 810.6719,324.8594 Q810.8281,324.7813 811.0313,324.7813 Q811.3594,324.7813 811.6094,325.0469 Q811.875,325.2969 811.875,325.6406 Q811.875,325.9844 811.5313,326.3906 Q811.0313,326.9688 810.2344,327.2969 Q809.1563,327.75 807.8594,327.75 Q806.3438,327.75 805.1406,327.125 Q804.1563,326.625 803.4688,325.5625 Q802.7813,324.4844 802.7813,323.2031 L802.7813,322.0469 Q802.7813,320.7188 803.3906,319.5781 Q804.0156,318.4219 805.1094,317.8125 Q806.2031,317.1875 807.4375,317.1875 Q808.1719,317.1875 808.8125,317.3594 Q809.4688,317.5156 810.0156,317.875 Z " fill="#000000"/><text fill="#000000" font-family="sans-serif" font-size="14" lengthAdjust="spacing" textLength="43" x="827.75" y="327.7969">Monde</text><line style="stroke:#181818;stroke-width:0.5;" x1="637.5" x2="1028.5" y1="338" y2="338"/><polygon fill="none" points="647.5,347.8105,651.5,351.8105,647.5,355.8105,643.5,351.8105" style="stroke:#B38D22;stroke-width:1.0;"/><text fill="#000000" font-family="sans-serif" font-size="14" lengthAdjust="spacing" textLength="70" x="656.5" y="357.1074">int nbLigne</text><polygon fill="none" points="647.5,366.4316,651.5,370.4316,647.5,374.4316,643.5,370.4316" style="stroke:#B38D22;stroke-width:1.0;"/><text fill="#000000" font-family="sans-serif" font-size="14" lengthAdjust="spacing" textLength="56" x="656.5" y="375.7285">int nbCol</text><ellipse cx="647.5" cy="412.6738" fill="#84BE84" rx="3" ry="3" style="stroke:#038048;stroke-width:1.0;"/><text fill="#000000" font-family="sans-serif" font-size="14" lengthAdjust="spacing" textLength="53" x="656.5" y="416.9707">Monde()</text><line style="stroke:#181818;stroke-width:1.0;stroke-dasharray:1.0,2.0;" x1="637.5" x2="792" y1="392.5527" y2="392.5527"/><text fill="#000000" font-family="sans-serif" font-size="14" lengthAdjust="spacing" textLength="82" x="792" y="397.8496">Constructeur</text><line style="stroke:#181818;stroke-width:1.0;stroke-dasharray:1.0,2.0;" x1="874" x2="1028.5" y1="392.5527" y2="392.5527"/><ellipse cx="647.5" cy="453.916" fill="#84BE84" rx="3" ry="3" style="stroke:#038048;stroke-width:1.0;"/><text fill="#000000" font-family="sans-serif" font-size="14" lengthAdjust="spacing" textLength="351" x="656.5" y="458.2129">boolean collision(ElementMonde e1, ElementMonde e2)</text><ellipse cx="647.5" cy="472.5371" fill="#84BE84" rx="3" ry="3" style="stroke:#038048;stroke-width:1.0;"/><text fill="#000000" font-family="sans-serif" font-size="14" lengthAdjust="spacing" textLength="108" x="656.5" y="476.834">Heros getHeros()</text><ellipse cx="647.5" cy="491.1582" fill="#84BE84" rx="3" ry="3" style="stroke:#038048;stroke-width:1.0;"/><text fill="#000000" font-family="sans-serif" font-size="14" lengthAdjust="spacing" textLength="367" x="656.5" y="495.4551">void deplacementHeros(TypeMouvement typeMouvement)</text><ellipse cx="647.5" cy="509.7793" fill="#84BE84" rx="3" ry="3" style="stroke:#038048;stroke-width:1.0;"/><text fill="#000000" font-family="sans-serif" font-size="14" lengthAdjust="spacing" textLength="179" x="656.5" y="514.0762">void deplacementMonstres()</text><ellipse cx="647.5" cy="528.4004" fill="#84BE84" rx="3" ry="3" style="stroke:#038048;stroke-width:1.0;"/><text fill="#000000" font-family="sans-serif" font-size="14" lengthAdjust="spacing" textLength="171" x="656.5" y="532.6973">void addTerrains(Terrain t)</text><ellipse cx="647.5" cy="547.0215" fill="#84BE84" rx="3" ry="3" style="stroke:#038048;stroke-width:1.0;"/><text fill="#000000" font-family="sans-serif" font-size="14" lengthAdjust="spacing" textLength="230" x="656.5" y="551.3184">void addPersonnage(Personnage p)</text><ellipse cx="647.5" cy="565.6426" fill="#84BE84" rx="3" ry="3" style="stroke:#038048;stroke-width:1.0;"/><text fill="#000000" font-family="sans-serif" font-size="14" lengthAdjust="spacing" textLength="114" x="656.5" y="569.9395">void updateData()</text><ellipse cx="647.5" cy="584.2637" fill="#84BE84" rx="3" ry="3" style="stroke:#038048;stroke-width:1.0;"/><text fill="#000000" font-family="sans-serif" font-size="14" lengthAdjust="spacing" textLength="197" x="656.5" y="588.5605">void chargerCarte(String carte)</text><line style="stroke:#181818;stroke-width:1.0;stroke-dasharray:1.0,2.0;" x1="637.5" x2="802" y1="433.7949" y2="433.7949"/><text fill="#000000" font-family="sans-serif" font-size="14" lengthAdjust="spacing" textLength="62" x="802" y="439.0918">M&#233;thodes</text><line style="stroke:#181818;stroke-width:1.0;stroke-dasharray:1.0,2.0;" x1="864" x2="1028.5" y1="433.7949" y2="433.7949"/></g><!--class Donnees--><g id="elem_Donnees"><rect codeLine="80" fill="#F1F1F1" height="159.7266" id="Donnees" rx="2.5" ry="2.5" style="stroke:#181818;stroke-width:0.5;" width="233" x="70.5" y="371"/><ellipse cx="154.25" cy="387" fill="#ADD1B2" rx="11" ry="11" style="stroke:#181818;stroke-width:1.0;"/><path d="M157.0156,382.875 Q157.1719,382.6563 157.3594,382.5469 Q157.5469,382.4375 157.7656,382.4375 Q158.1406,382.4375 158.375,382.7031 Q158.6094,382.9531 158.6094,383.5625 L158.6094,385.0156 Q158.6094,385.625 158.375,385.8906 Q158.1406,386.1563 157.7656,386.1563 Q157.4219,386.1563 157.2188,385.9531 Q157.0156,385.7656 156.9063,385.25 Q156.8594,384.8906 156.6719,384.7031 Q156.3438,384.3281 155.7344,384.1094 Q155.125,383.8906 154.5,383.8906 Q153.7344,383.8906 153.0938,384.2188 Q152.4688,384.5469 151.9688,385.2969 Q151.4844,386.0469 151.4844,387.0781 L151.4844,388.1719 Q151.4844,389.4063 152.375,390.2344 Q153.2656,391.0469 154.8594,391.0469 Q155.7969,391.0469 156.4531,390.7969 Q156.8438,390.6406 157.2656,390.2031 Q157.5313,389.9375 157.6719,389.8594 Q157.8281,389.7813 158.0313,389.7813 Q158.3594,389.7813 158.6094,390.0469 Q158.875,390.2969 158.875,390.6406 Q158.875,390.9844 158.5313,391.3906 Q158.0313,391.9688 157.2344,392.2969 Q156.1563,392.75 154.8594,392.75 Q153.3438,392.75 152.1406,392.125 Q151.1563,391.625 150.4688,390.5625 Q149.7813,389.4844 149.7813,388.2031 L149.7813,387.0469 Q149.7813,385.7188 150.3906,384.5781 Q151.0156,383.4219 152.1094,382.8125 Q153.2031,382.1875 154.4375,382.1875 Q155.1719,382.1875 155.8125,382.3594 Q156.4688,382.5156 157.0156,382.875 Z " fill="#000000"/><text fill="#000000" font-family="sans-serif" font-size="14" lengthAdjust="spacing" textLength="57" x="174.75" y="392.7969">Donnees</text><line style="stroke:#181818;stroke-width:0.5;" x1="71.5" x2="302.5" y1="403" y2="403"/><ellipse cx="81.5" cy="417.8105" fill="none" rx="3" ry="3" style="stroke:#038048;stroke-width:1.0;"/><text fill="#000000" font-family="sans-serif" font-size="14" lengthAdjust="spacing" text-decoration="underline" textLength="127" x="90.5" y="422.1074">String GAME_TITLE</text><ellipse cx="81.5" cy="436.4316" fill="none" rx="3" ry="3" style="stroke:#038048;stroke-width:1.0;"/><text fill="#000000" font-family="sans-serif" font-size="14" lengthAdjust="spacing" text-decoration="underline" textLength="207" x="90.5" y="440.7285">int WINDOW_DEFAULT_HEIGHT</text><ellipse cx="81.5" cy="455.0527" fill="none" rx="3" ry="3" style="stroke:#038048;stroke-width:1.0;"/><text fill="#000000" font-family="sans-serif" font-size="14" lengthAdjust="spacing" text-decoration="underline" textLength="201" x="90.5" y="459.3496">int WINDOW_DEFAULT_WIDTH</text><ellipse cx="81.5" cy="473.6738" fill="none" rx="3" ry="3" style="stroke:#038048;stroke-width:1.0;"/><text fill="#000000" font-family="sans-serif" font-size="14" lengthAdjust="spacing" text-decoration="underline" textLength="129" x="90.5" y="477.9707">int WORLD_HEIGHT</text><ellipse cx="81.5" cy="492.2949" fill="none" rx="3" ry="3" style="stroke:#038048;stroke-width:1.0;"/><text fill="#000000" font-family="sans-serif" font-size="14" lengthAdjust="spacing" text-decoration="underline" textLength="123" x="90.5" y="496.5918">int WORLD_WIDTH</text><text fill="#000000" font-family="sans-serif" font-size="14" lengthAdjust="spacing" textLength="12" x="90.5" y="515.2129">...</text><line style="stroke:#181818;stroke-width:0.5;" x1="71.5" x2="302.5" y1="522.7266" y2="522.7266"/></g><!--class GestionFichier--><g id="elem_GestionFichier"><rect codeLine="89" fill="#F1F1F1" height="122.4844" id="GestionFichier" rx="2.5" ry="2.5" style="stroke:#181818;stroke-width:0.5;" width="282" x="46" y="675"/><ellipse cx="136.75" cy="691" fill="#ADD1B2" rx="11" ry="11" style="stroke:#181818;stroke-width:1.0;"/><path d="M139.5156,686.875 Q139.6719,686.6563 139.8594,686.5469 Q140.0469,686.4375 140.2656,686.4375 Q140.6406,686.4375 140.875,686.7031 Q141.1094,686.9531 141.1094,687.5625 L141.1094,689.0156 Q141.1094,689.625 140.875,689.8906 Q140.6406,690.1563 140.2656,690.1563 Q139.9219,690.1563 139.7188,689.9531 Q139.5156,689.7656 139.4063,689.25 Q139.3594,688.8906 139.1719,688.7031 Q138.8438,688.3281 138.2344,688.1094 Q137.625,687.8906 137,687.8906 Q136.2344,687.8906 135.5938,688.2188 Q134.9688,688.5469 134.4688,689.2969 Q133.9844,690.0469 133.9844,691.0781 L133.9844,692.1719 Q133.9844,693.4063 134.875,694.2344 Q135.7656,695.0469 137.3594,695.0469 Q138.2969,695.0469 138.9531,694.7969 Q139.3438,694.6406 139.7656,694.2031 Q140.0313,693.9375 140.1719,693.8594 Q140.3281,693.7813 140.5313,693.7813 Q140.8594,693.7813 141.1094,694.0469 Q141.375,694.2969 141.375,694.6406 Q141.375,694.9844 141.0313,695.3906 Q140.5313,695.9688 139.7344,696.2969 Q138.6563,696.75 137.3594,696.75 Q135.8438,696.75 134.6406,696.125 Q133.6563,695.625 132.9688,694.5625 Q132.2813,693.4844 132.2813,692.2031 L132.2813,691.0469 Q132.2813,689.7188 132.8906,688.5781 Q133.5156,687.4219 134.6094,686.8125 Q135.7031,686.1875 136.9375,686.1875 Q137.6719,686.1875 138.3125,686.3594 Q138.9688,686.5156 139.5156,686.875 Z " fill="#000000"/><text fill="#000000" font-family="sans-serif" font-size="14" lengthAdjust="spacing" textLength="92" x="157.25" y="696.7969">GestionFichier</text><line style="stroke:#181818;stroke-width:0.5;" x1="47" x2="327" y1="707" y2="707"/><ellipse cx="57" cy="744.4316" fill="#84BE84" rx="3" ry="3" style="stroke:#038048;stroke-width:1.0;"/><text fill="#000000" font-family="sans-serif" font-size="14" lengthAdjust="spacing" textLength="102" x="66" y="748.7285">GestionFichier()</text><line style="stroke:#181818;stroke-width:1.0;stroke-dasharray:1.0,2.0;" x1="47" x2="146" y1="724.3105" y2="724.3105"/><text fill="#000000" font-family="sans-serif" font-size="14" lengthAdjust="spacing" textLength="82" x="146" y="729.6074">Constructeur</text><line style="stroke:#181818;stroke-width:1.0;stroke-dasharray:1.0,2.0;" x1="228" x2="327" y1="724.3105" y2="724.3105"/><ellipse cx="57" cy="785.6738" fill="#84BE84" rx="3" ry="3" style="stroke:#038048;stroke-width:1.0;"/><text fill="#000000" font-family="sans-serif" font-size="14" lengthAdjust="spacing" textLength="256" x="66" y="789.9707">char[] lireFichierCarte(string nomFichier)</text><line style="stroke:#181818;stroke-width:1.0;stroke-dasharray:1.0,2.0;" x1="47" x2="156" y1="765.5527" y2="765.5527"/><text fill="#000000" font-family="sans-serif" font-size="14" lengthAdjust="spacing" textLength="62" x="156" y="770.8496">M&#233;thodes</text><line style="stroke:#181818;stroke-width:1.0;stroke-dasharray:1.0,2.0;" x1="218" x2="327" y1="765.5527" y2="765.5527"/></g><!--class Resources--><g id="elem_Resources"><rect codeLine="96" fill="#F1F1F1" height="137.1055" id="Resources" rx="2.5" ry="2.5" style="stroke:#181818;stroke-width:0.5;" width="271" x="51.5" y="876"/><ellipse cx="148.75" cy="892" fill="#ADD1B2" rx="11" ry="11" style="stroke:#181818;stroke-width:1.0;"/><path d="M151.5156,887.875 Q151.6719,887.6563 151.8594,887.5469 Q152.0469,887.4375 152.2656,887.4375 Q152.6406,887.4375 152.875,887.7031 Q153.1094,887.9531 153.1094,888.5625 L153.1094,890.0156 Q153.1094,890.625 152.875,890.8906 Q152.6406,891.1563 152.2656,891.1563 Q151.9219,891.1563 151.7188,890.9531 Q151.5156,890.7656 151.4063,890.25 Q151.3594,889.8906 151.1719,889.7031 Q150.8438,889.3281 150.2344,889.1094 Q149.625,888.8906 149,888.8906 Q148.2344,888.8906 147.5938,889.2188 Q146.9688,889.5469 146.4688,890.2969 Q145.9844,891.0469 145.9844,892.0781 L145.9844,893.1719 Q145.9844,894.4063 146.875,895.2344 Q147.7656,896.0469 149.3594,896.0469 Q150.2969,896.0469 150.9531,895.7969 Q151.3438,895.6406 151.7656,895.2031 Q152.0313,894.9375 152.1719,894.8594 Q152.3281,894.7813 152.5313,894.7813 Q152.8594,894.7813 153.1094,895.0469 Q153.375,895.2969 153.375,895.6406 Q153.375,895.9844 153.0313,896.3906 Q152.5313,896.9688 151.7344,897.2969 Q150.6563,897.75 149.3594,897.75 Q147.8438,897.75 146.6406,897.125 Q145.6563,896.625 144.9688,895.5625 Q144.2813,894.4844 144.2813,893.2031 L144.2813,892.0469 Q144.2813,890.7188 144.8906,889.5781 Q145.5156,888.4219 146.6094,887.8125 Q147.7031,887.1875 148.9375,887.1875 Q149.6719,887.1875 150.3125,887.3594 Q150.9688,887.5156 151.5156,887.875 Z " fill="#000000"/><text fill="#000000" font-family="sans-serif" font-size="14" lengthAdjust="spacing" textLength="68" x="169.25" y="897.7969">Resources</text><line style="stroke:#181818;stroke-width:0.5;" x1="52.5" x2="321.5" y1="908" y2="908"/><rect fill="none" height="6" style="stroke:#C82930;stroke-width:1.0;" width="6" x="59.5" y="919.8105"/><text fill="#000000" font-family="sans-serif" font-size="14" lengthAdjust="spacing" text-decoration="underline" textLength="171" x="71.5" y="927.1074">Map&lt;String, Image&gt; assets</text><ellipse cx="62.5" cy="964.0527" fill="#84BE84" rx="3" ry="3" style="stroke:#038048;stroke-width:1.0;"/><text fill="#000000" font-family="sans-serif" font-size="14" lengthAdjust="spacing" text-decoration="underline" textLength="130" x="71.5" y="968.3496">URL get(String path)</text><ellipse cx="62.5" cy="982.6738" fill="#84BE84" rx="3" ry="3" style="stroke:#038048;stroke-width:1.0;"/><text fill="#000000" font-family="sans-serif" font-size="14" lengthAdjust="spacing" text-decoration="underline" textLength="245" x="71.5" y="986.9707">InputStream getAsStream(String path)}</text><ellipse cx="62.5" cy="1001.2949" fill="#84BE84" rx="3" ry="3" style="stroke:#038048;stroke-width:1.0;"/><text fill="#000000" font-family="sans-serif" font-size="14" lengthAdjust="spacing" text-decoration="underline" textLength="176" x="71.5" y="1005.5918">Image getAsset(String path)</text><line style="stroke:#181818;stroke-width:1.0;stroke-dasharray:1.0,2.0;" x1="52.5" x2="156" y1="943.9316" y2="943.9316"/><text fill="#000000" font-family="sans-serif" font-size="14" lengthAdjust="spacing" textLength="62" x="156" y="949.2285">M&#233;thodes</text><line style="stroke:#181818;stroke-width:1.0;stroke-dasharray:1.0,2.0;" x1="218" x2="321.5" y1="943.9316" y2="943.9316"/></g><!--class Sprite--><g id="elem_Sprite"><rect codeLine="106" fill="#F1F1F1" height="48" id="Sprite" rx="2.5" ry="2.5" style="stroke:#181818;stroke-width:0.5;" width="69" x="1902.5" y="712"/><ellipse cx="1917.5" cy="728" fill="#ADD1B2" rx="11" ry="11" style="stroke:#181818;stroke-width:1.0;"/><path d="M1920.2656,723.875 Q1920.4219,723.6563 1920.6094,723.5469 Q1920.7969,723.4375 1921.0156,723.4375 Q1921.3906,723.4375 1921.625,723.7031 Q1921.8594,723.9531 1921.8594,724.5625 L1921.8594,726.0156 Q1921.8594,726.625 1921.625,726.8906 Q1921.3906,727.1563 1921.0156,727.1563 Q1920.6719,727.1563 1920.4688,726.9531 Q1920.2656,726.7656 1920.1563,726.25 Q1920.1094,725.8906 1919.9219,725.7031 Q1919.5938,725.3281 1918.9844,725.1094 Q1918.375,724.8906 1917.75,724.8906 Q1916.9844,724.8906 1916.3438,725.2188 Q1915.7188,725.5469 1915.2188,726.2969 Q1914.7344,727.0469 1914.7344,728.0781 L1914.7344,729.1719 Q1914.7344,730.4063 1915.625,731.2344 Q1916.5156,732.0469 1918.1094,732.0469 Q1919.0469,732.0469 1919.7031,731.7969 Q1920.0938,731.6406 1920.5156,731.2031 Q1920.7813,730.9375 1920.9219,730.8594 Q1921.0781,730.7813 1921.2813,730.7813 Q1921.6094,730.7813 1921.8594,731.0469 Q1922.125,731.2969 1922.125,731.6406 Q1922.125,731.9844 1921.7813,732.3906 Q1921.2813,732.9688 1920.4844,733.2969 Q1919.4063,733.75 1918.1094,733.75 Q1916.5938,733.75 1915.3906,733.125 Q1914.4063,732.625 1913.7188,731.5625 Q1913.0313,730.4844 1913.0313,729.2031 L1913.0313,728.0469 Q1913.0313,726.7188 1913.6406,725.5781 Q1914.2656,724.4219 1915.3594,723.8125 Q1916.4531,723.1875 1917.6875,723.1875 Q1918.4219,723.1875 1919.0625,723.3594 Q1919.7188,723.5156 1920.2656,723.875 Z " fill="#000000"/><text fill="#000000" font-family="sans-serif" font-size="14" lengthAdjust="spacing" textLength="37" x="1931.5" y="733.7969">Sprite</text><line style="stroke:#181818;stroke-width:0.5;" x1="1903.5" x2="1970.5" y1="744" y2="744"/><line style="stroke:#181818;stroke-width:0.5;" x1="1903.5" x2="1970.5" y1="752" y2="752"/></g><!--class GameController--><g id="elem_GameController"><rect codeLine="110" fill="#F1F1F1" height="48" id="GameController" rx="2.5" ry="2.5" style="stroke:#181818;stroke-width:0.5;" width="132" x="1786" y="165"/><ellipse cx="1801" cy="181" fill="#A9DCDF" rx="11" ry="11" style="stroke:#181818;stroke-width:1.0;"/><path d="M1803.1875,182.7656 L1799.0469,182.7656 L1798.625,183.7969 L1799.0469,183.7969 Q1799.6563,183.7969 1799.9219,184.0313 Q1800.1875,184.2656 1800.1875,184.6563 Q1800.1875,185.0313 1799.9219,185.2656 Q1799.6563,185.5 1799.0469,185.5 L1796.75,185.5 Q1796.1406,185.5 1795.8906,185.2656 Q1795.625,185.0313 1795.625,184.6406 Q1795.625,184.2656 1795.9063,184.0313 Q1796.1719,183.7813 1796.7969,183.7969 L1799.4688,177.1406 L1798.3594,177.1406 Q1797.75,177.1406 1797.4844,176.9063 Q1797.2188,176.6719 1797.2188,176.2813 Q1797.2188,175.9063 1797.4844,175.6719 Q1797.75,175.4375 1798.3594,175.4375 L1802.0313,175.4375 L1805.4219,183.7969 Q1806.0156,183.7969 1806.2031,183.9375 Q1806.5938,184.2031 1806.5938,184.6563 Q1806.5938,185.0313 1806.3281,185.2656 Q1806.0781,185.5 1805.4688,185.5 L1803.1719,185.5 Q1802.5625,185.5 1802.2969,185.2656 Q1802.0313,185.0313 1802.0313,184.6406 Q1802.0313,184.2656 1802.2969,184.0313 Q1802.5625,183.7969 1803.1719,183.7969 L1803.5938,183.7969 L1803.1875,182.7656 Z M1802.4688,181.0625 L1801.1094,177.6875 L1799.7344,181.0625 L1802.4688,181.0625 Z " fill="#000000"/><text fill="#000000" font-family="sans-serif" font-size="14" font-style="italic" lengthAdjust="spacing" textLength="100" x="1815" y="186.7969">GameController</text><line style="stroke:#181818;stroke-width:0.5;" x1="1787" x2="1917" y1="197" y2="197"/><line style="stroke:#181818;stroke-width:0.5;" x1="1787" x2="1917" y1="205" y2="205"/></g><g id="elem_N_gui"><path d="M1821.5,6 L1821.5,50.582 L2138.5,50.582 L2138.5,16 L2128.5,6 L1821.5,6 " fill="#FEFFDD" style="stroke:#181818;stroke-width:0.5;"/><path d="M2128.5,6 L2128.5,16 L2138.5,16 L2128.5,6 " fill="#FEFFDD" style="stroke:#181818;stroke-width:1.0;"/><text fill="#000000" font-family="sans-serif" font-size="13" lengthAdjust="spacing" textLength="91" x="1827.5" y="25.0283">Voir diagramme</text><text fill="#000000" font-family="sans-serif" font-size="13" font-style="italic" lengthAdjust="spacing" textLength="52" x="1922.5" y="25.0283">class-gui</text><text fill="#000000" font-family="sans-serif" font-size="13" lengthAdjust="spacing" textLength="108" x="1978.5" y="25.0283">pour en savoir plus</text><text fill="#000000" font-family="sans-serif" font-size="13" lengthAdjust="spacing" textLength="296" x="1827.5" y="42.3193">sur ces packages et les classes qu'ils contiennent.</text></g><!--link N_gui to engine--><g id="link_N_gui_engine"><path codeLine="116" d="M1976.3,51.21 C1972.66,72.575 1966.96,106.045 1962.1088,134.5288 C1961.8055,136.309 1961.5057,138.0697 1961.2098,139.8068 C1961.1728,140.024 1961.1359,140.2408 1961.099,140.4571 " fill="none" id="N_gui-engine" style="stroke:#181818;stroke-width:1.0;stroke-dasharray:7.0,7.0;"/></g><!--link N_gui to gui--><g id="link_N_gui_gui"><path codeLine="117" d="M1980.84,51.39 C1983.1,110.465 1989.555,279.17 1995.4875,434.1925 C1998.4538,511.7038 2001.2894,585.7944 2003.4047,641.0503 C2003.6691,647.9573 2003.9223,654.57 2004.163,660.8583 C2004.2232,662.4304 2004.2826,663.9822 2004.3412,665.5132 " fill="none" id="N_gui-gui" style="stroke:#181818;stroke-width:1.0;stroke-dasharray:7.0,7.0;"/></g><!--reverse link GestionFichier to Resources--><!--reverse link Donnees to GestionFichier--><!--link engine to gui--><!--link GameController to Monde--><g id="link_GameController_Monde"><path codeLine="126" d="M1785.85,191 C1620.72,194.27 1194.26,207.79 1064,261 C1036.3,272.32 1009.34,288.14 984.2,305.87 " fill="none" id="GameController-Monde" style="stroke:#181818;stroke-width:1.0;"/><text fill="#000000" font-family="sans-serif" font-size="13" lengthAdjust="spacing" textLength="7" x="985.2773" y="294.5026">1</text></g><!--reverse link ElementMonde to Personnage--><g id="link_ElementMonde_Personnage"><path codeLine="127" d="M1325,556.06 C1325,593.46 1325,619 1325,655.62 " fill="none" id="ElementMonde-backto-Personnage" style="stroke:#181818;stroke-width:1.0;"/><polygon fill="none" points="1325,538.06,1319,556.06,1331,556.06,1325,538.06" style="stroke:#181818;stroke-width:1.0;"/></g><!--reverse link Personnage to Heros--><g id="link_Personnage_Heros"><path codeLine="128" d="M1202.6557,826.9095 C1172.3257,849.1995 1154.34,862.41 1125.8,883.39 " fill="none" id="Personnage-backto-Heros" style="stroke:#181818;stroke-width:1.0;"/><polygon fill="none" points="1217.16,816.25,1199.1025,822.0747,1206.2088,831.7442,1217.16,816.25" style="stroke:#181818;stroke-width:1.0;"/></g><!--reverse link Personnage to Monstre--><g id="link_Personnage_Monstre"><path codeLine="129" d="M1435.6334,827.6578 C1472.2734,857.6778 1498.49,879.17 1528.78,903.99 " fill="none" id="Personnage-backto-Monstre" style="stroke:#181818;stroke-width:1.0;"/><polygon fill="none" points="1421.71,816.25,1431.8308,832.2989,1439.436,823.0166,1421.71,816.25" style="stroke:#181818;stroke-width:1.0;"/></g><!--reverse link Monstre to Walker--><g id="link_Monstre_Walker"><path codeLine="130" d="M1577,1003.08 C1577,1029.6 1577,1046.39 1577,1072.92 " fill="none" id="Monstre-backto-Walker" style="stroke:#181818;stroke-width:1.0;"/><polygon fill="none" points="1577,985.08,1571,1003.08,1583,1003.08,1577,985.08" style="stroke:#181818;stroke-width:1.0;"/></g><!--reverse link ElementMonde to Terrain--><g id="link_ElementMonde_Terrain"><path codeLine="132" d="M1276.6315,553.3469 C1263.3915,574.8469 1256.17,580.77 1236,596 C1164.48,650 1127.01,622.64 1042,651 C1028.44,655.52 1014.48,660.4 1000.48,665.43 " fill="none" id="ElementMonde-backto-Terrain" style="stroke:#181818;stroke-width:1.0;"/><polygon fill="none" points="1286.07,538.02,1271.5225,550.2007,1281.7404,556.4931,1286.07,538.02" style="stroke:#181818;stroke-width:1.0;"/></g><!--reverse link Terrain to Mur--><g id="link_Terrain_Mur"><path codeLine="133" d="M725.8328,818.084 C695.6428,843.024 675.77,859.44 646.64,883.5 " fill="none" id="Terrain-backto-Mur" style="stroke:#181818;stroke-width:1.0;"/><polygon fill="none" points="739.71,806.62,722.0115,813.4582,729.6541,822.7097,739.71,806.62" style="stroke:#181818;stroke-width:1.0;"/></g><!--link Monde to Personnage--><g id="link_Monde_Personnage"><path codeLine="136" d="M1029.67,575.85 C1041.24,582.74 1052.74,589.5 1064,596 C1098.68,616.01 1136.46,636.74 1172.23,655.88 " fill="none" id="Monde-Personnage" style="stroke:#181818;stroke-width:1.0;"/><text fill="#000000" font-family="sans-serif" font-size="13" lengthAdjust="spacing" textLength="5" x="1152.916" y="644.7647">*</text></g><!--link Monde to Terrain--><g id="link_Monde_Terrain"><path codeLine="137" d="M828.41,596.4 C827.65,620.38 826.89,644.26 826.22,665.26 " fill="none" id="Monde-Terrain" style="stroke:#181818;stroke-width:1.0;"/><text fill="#000000" font-family="sans-serif" font-size="13" lengthAdjust="spacing" textLength="5" x="821.1911" y="654.1263">*</text></g><!--link Monde to GestionFichier--><g id="link_Monde_GestionFichier"><path codeLine="139" d="M636.44,534.57 C553.36,569.87 455.72,611.89 368,651 C350.91,658.62 332.98,666.76 315.32,674.87 " fill="none" id="Monde-GestionFichier" style="stroke:#181818;stroke-width:1.0;"/><text fill="#000000" font-family="sans-serif" font-size="13" lengthAdjust="spacing" textLength="7" x="322.7523" y="663.8362">1</text></g><!--link ElementMonde to Sprite--><g id="link_ElementMonde_Sprite"><path codeLine="141" d="M1388.69,467.86 C1490.58,495.04 1694.19,556.84 1846,651 C1873.04,667.77 1899.23,693.23 1916.52,711.72 " fill="none" id="ElementMonde-Sprite" style="stroke:#181818;stroke-width:1.0;"/><text fill="#000000" font-family="sans-serif" font-size="13" lengthAdjust="spacing" textLength="5" x="1905.9186" y="700.7937">*</text></g><!--SRC=[lLRDRjD04BxxAKRXG09n49ohI5MJjf6I5XMN7W1LMtjmLZYxPdSTKPK-4C_1Yp5hR_oRlmEGG-oT_MRcs_bRfopyncA4gGvPYl3aUG2faosaYAm8wCSUj54iD10cJ6kO9hX2OUe8W1SGoUmXGVZH5Zos1KkM6SnKMvmm5LVYqUXC2dARXHOx6Zdnwu9OV-3bWkTj_09KYd5HKjjfoW7x6-R3alAmnNNO8ZaeJIz-_p9B6Q6ksNsGCa4c0BK955kZqenqAyxve-2woDHXdWJwVnmTnMs1VKyeAOGjZqxQrzoWrdZeA9M9VITo9zXvGkTi_mdNaaSG_VwL9Yn4rGyUKrp8R9tNBfZwQh0jAhVY4fNKLKJi0qMsWeQbJI00RcONbq6vca_FgqLm_RvydrpVNNNh8FTrk18AIlywSeUYq2gBHSuLZwZZ0lZN-3SYUCUIRtX4CnMuVyEXFH8vLPfucFDOO4js9fDZ1zqncGfbad3DfUWtXZE-7JQdDRuRD6i9OZJr35UDWtdVMDLY_wZ-QQkwZ7UiioXomvSCkt5jkfZQjAZDdhG5pDA86PmmmzfkmgLDfJfZoc3_Wr5Sn13QnQ2yFPxhbzvrPdYoQSCYfHDoYbYrvcjuqeOP7Zw3CtXnkfZU1xDWFkr2RBBlPbVKy_UJwVdfxJoulvpMviH-wDri4bpkG5xVp2VxRUM8kecHAvn6oLvGarFTdFDmoOzfdoR-G7dQ-7_w0WbNw1IALEWYSaAkd7XBBzsWbfaAQw7tgmCkM7fIX7y8inMbRWoaWqRlfLEgtzxCRU5lIY9bPZdeecOYpGn1aAqi-bGNxmsjvorgba-XeBVvw5HTdF56oNr85KsODWf5pCMEBx8BjaBAbr4q1iea5dx8Xf06eVTHSWKHPx5YgnN22H_dkZvvFtd3nv1IjCa9QBQso3J9z6UXIMPJu4XeG0C9FN9LUdxFNjg62SatHseKOKOzoWHStPDPB_-dN3ZkrTfkUjvB-2efmJHl7sLcl2hX_gSbZo8KNxBK7xSgpciLR1FhkjLpmIet5O-NXlOBnwrm-JxqtlRSL_0e7vJ5lrSREZxP_pbkJ5ElcA1kfy9wcmknk-CkARVXS9wt6O7RdDWlH2TtC3f1bsj-YbUzkhFTeDBG3WX5enLrht6D-BwrufGffYDNidy0]--></g></svg>