<?xml version="1.0" encoding="us-ascii" standalone="no"?><svg xmlns="http://www.w3.org/2000/svg" xmlns:xlink="http://www.w3.org/1999/xlink" contentStyleType="text/css" height="920px" preserveAspectRatio="none" style="width:1207px;height:920px;background:#FFFFFF;" version="1.1" viewBox="0 0 1207 920" width="1207.2px" zoomAndPan="magnify"><defs/><g><!--cluster Escape--><g id="cluster_Escape"><path d="M6.8,62.4 L48.4,62.4 A3,3 0 0 1 50.4,64.4 L56,82.0969 L1199.6,82.0969 A2,2 0 0 1 1201.6,84.0969 L1201.6,912.4 A2,2 0 0 1 1199.6,914.4 L6.8,914.4 A2,2 0 0 1 4.8,912.4 L4.8,64.4 A2,2 0 0 1 6.8,62.4 " fill="none" style="stroke:#000000;stroke-width:1.2000000000000002;"/><line style="stroke:#000000;stroke-width:1.2000000000000002;" x1="4.8" x2="56" y1="82.0969" y2="82.0969"/><text fill="#000000" font-family="sans-serif" font-size="11.2" font-weight="bold" lengthAdjust="spacing" textLength="40.8" x="8" y="76.0859">Escape</text></g><!--cluster Monde--><g id="cluster_Monde"><path d="M26,190.4 L66,190.4 A3,3 0 0 1 68,192.4 L73.6,210.0969 L910,210.0969 A2,2 0 0 1 912,212.0969 L912,893.2 A2,2 0 0 1 910,895.2 L26,895.2 A2,2 0 0 1 24,893.2 L24,192.4 A2,2 0 0 1 26,190.4 " fill="none" style="stroke:#000000;stroke-width:1.2000000000000002;"/><line style="stroke:#000000;stroke-width:1.2000000000000002;" x1="24" x2="73.6" y1="210.0969" y2="210.0969"/><text fill="#000000" font-family="sans-serif" font-size="11.2" font-weight="bold" lengthAdjust="spacing" textLength="39.2" x="27.2" y="204.0859">Monde</text></g><!--cluster Outils--><g id="cluster_Outils"><path d="M933.2,242.4 L966.8,242.4 A3,3 0 0 1 968.8,244.4 L974.4,262.0969 L1180.4,262.0969 A2,2 0 0 1 1182.4,264.0969 L1182.4,778.8 A2,2 0 0 1 1180.4,780.8 L933.2,780.8 A2,2 0 0 1 931.2,778.8 L931.2,244.4 A2,2 0 0 1 933.2,242.4 " fill="none" style="stroke:#000000;stroke-width:1.2000000000000002;"/><line style="stroke:#000000;stroke-width:1.2000000000000002;" x1="931.2" x2="974.4" y1="262.0969" y2="262.0969"/><text fill="#000000" font-family="sans-serif" font-size="11.2" font-weight="bold" lengthAdjust="spacing" textLength="32.8" x="934.4" y="256.0859">Outils</text></g><!--class Escape--><g id="elem_Escape"><rect codeLine="78" fill="#F1F1F1" height="79.8906" id="Escape" rx="2" ry="2" style="stroke:#181818;stroke-width:0.4000000000000001;" width="138.4" x="602" y="92"/><ellipse cx="649" cy="104.8" fill="#ADD1B2" rx="8.8" ry="8.8" style="stroke:#181818;stroke-width:0.8000000000000002;"/><path d="M651.2125,101.5 Q651.3375,101.325 651.4875,101.2375 Q651.6375,101.15 651.8125,101.15 Q652.1125,101.15 652.3,101.3625 Q652.4875,101.5625 652.4875,102.05 L652.4875,103.2125 Q652.4875,103.7 652.3,103.9125 Q652.1125,104.125 651.8125,104.125 Q651.5375,104.125 651.375,103.9625 Q651.2125,103.8125 651.125,103.4 Q651.0875,103.1125 650.9375,102.9625 Q650.675,102.6625 650.1875,102.4875 Q649.7,102.3125 649.2,102.3125 Q648.5875,102.3125 648.075,102.575 Q647.575,102.8375 647.175,103.4375 Q646.7875,104.0375 646.7875,104.8625 L646.7875,105.7375 Q646.7875,106.725 647.5,107.3875 Q648.2125,108.0375 649.4875,108.0375 Q650.2375,108.0375 650.7625,107.8375 Q651.075,107.7125 651.4125,107.3625 Q651.625,107.15 651.7375,107.0875 Q651.8625,107.025 652.025,107.025 Q652.2875,107.025 652.4875,107.2375 Q652.7,107.4375 652.7,107.7125 Q652.7,107.9875 652.425,108.3125 Q652.025,108.775 651.3875,109.0375 Q650.525,109.4 649.4875,109.4 Q648.275,109.4 647.3125,108.9 Q646.525,108.5 645.975,107.65 Q645.425,106.7875 645.425,105.7625 L645.425,104.8375 Q645.425,103.775 645.9125,102.8625 Q646.4125,101.9375 647.2875,101.45 Q648.1625,100.95 649.15,100.95 Q649.7375,100.95 650.25,101.0875 Q650.775,101.2125 651.2125,101.5 Z " fill="#000000"/><text fill="#000000" font-family="sans-serif" font-size="11.2" lengthAdjust="spacing" textLength="37.6" x="665.4" y="109.4375">Escape</text><line style="stroke:#181818;stroke-width:0.4000000000000001;" x1="602.8" x2="739.6" y1="117.6" y2="117.6"/><ellipse cx="610.8" cy="147.5453" fill="#84BE84" rx="2.4" ry="2.4" style="stroke:#038048;stroke-width:0.8000000000000002;"/><text fill="#000000" font-family="sans-serif" font-size="11.2" lengthAdjust="spacing" text-decoration="underline" textLength="117.6" x="618" y="150.9828">void main(String[] args)</text><ellipse cx="610.8" cy="162.4422" fill="#84BE84" rx="2.4" ry="2.4" style="stroke:#038048;stroke-width:0.8000000000000002;"/><text fill="#000000" font-family="sans-serif" font-size="11.2" lengthAdjust="spacing" textLength="115.2" x="618" y="165.8797">void start(Stage stage)</text><line style="stroke:#181818;stroke-width:0.8000000000000002;stroke-dasharray:1.0,2.0;" x1="602.8" x2="659.2" y1="131.4484" y2="131.4484"/><text fill="#000000" font-family="sans-serif" font-size="11.2" lengthAdjust="spacing" textLength="24" x="659.2" y="135.6859">Main</text><line style="stroke:#181818;stroke-width:0.8000000000000002;stroke-dasharray:1.0,2.0;" x1="683.2" x2="739.6" y1="131.4484" y2="131.4484"/></g><!--class ElementMonde--><g id="elem_ElementMonde"><rect codeLine="4" fill="#F1F1F1" height="139.4781" id="ElementMonde" rx="2" ry="2" style="stroke:#181818;stroke-width:0.4000000000000001;" width="101.6" x="385.2" y="484.8"/><ellipse cx="397.2" cy="497.6" fill="#A9DCDF" rx="8.8" ry="8.8" style="stroke:#181818;stroke-width:0.8000000000000002;"/><path d="M398.95,499.0125 L395.6375,499.0125 L395.3,499.8375 L395.6375,499.8375 Q396.125,499.8375 396.3375,500.025 Q396.55,500.2125 396.55,500.525 Q396.55,500.825 396.3375,501.0125 Q396.125,501.2 395.6375,501.2 L393.8,501.2 Q393.3125,501.2 393.1125,501.0125 Q392.9,500.825 392.9,500.5125 Q392.9,500.2125 393.125,500.025 Q393.3375,499.825 393.8375,499.8375 L395.975,494.5125 L395.0875,494.5125 Q394.6,494.5125 394.3875,494.325 Q394.175,494.1375 394.175,493.825 Q394.175,493.525 394.3875,493.3375 Q394.6,493.15 395.0875,493.15 L398.025,493.15 L400.7375,499.8375 Q401.2125,499.8375 401.3625,499.95 Q401.675,500.1625 401.675,500.525 Q401.675,500.825 401.4625,501.0125 Q401.2625,501.2 400.775,501.2 L398.9375,501.2 Q398.45,501.2 398.2375,501.0125 Q398.025,500.825 398.025,500.5125 Q398.025,500.2125 398.2375,500.025 Q398.45,499.8375 398.9375,499.8375 L399.275,499.8375 L398.95,499.0125 Z M398.375,497.65 L397.2875,494.95 L396.1875,497.65 L398.375,497.65 Z " fill="#000000"/><text fill="#000000" font-family="sans-serif" font-size="11.2" font-style="italic" lengthAdjust="spacing" textLength="76" x="408.4" y="502.2375">ElementMonde</text><line style="stroke:#181818;stroke-width:0.4000000000000001;" x1="386" x2="486" y1="510.4" y2="510.4"/><polygon fill="none" points="394,518.2484,397.2,521.4484,394,524.6484,390.8,521.4484" style="stroke:#B38D22;stroke-width:0.8000000000000002;"/><text fill="#000000" font-family="sans-serif" font-size="11.2" lengthAdjust="spacing" textLength="29.6" x="401.2" y="525.6859">float x</text><polygon fill="none" points="394,533.1453,397.2,536.3453,394,539.5453,390.8,536.3453" style="stroke:#B38D22;stroke-width:0.8000000000000002;"/><text fill="#000000" font-family="sans-serif" font-size="11.2" lengthAdjust="spacing" textLength="30.4" x="401.2" y="540.5828">float y</text><polygon fill="none" points="394,548.0422,397.2,551.2422,394,554.4422,390.8,551.2422" style="stroke:#B38D22;stroke-width:0.8000000000000002;"/><text fill="#000000" font-family="sans-serif" font-size="11.2" lengthAdjust="spacing" textLength="54.4" x="401.2" y="555.4797">int hauteur</text><polygon fill="none" points="394,562.9391,397.2,566.1391,394,569.3391,390.8,566.1391" style="stroke:#B38D22;stroke-width:0.8000000000000002;"/><text fill="#000000" font-family="sans-serif" font-size="11.2" lengthAdjust="spacing" textLength="51.2" x="401.2" y="570.3766">int largeur</text><ellipse cx="394" cy="599.9328" fill="#84BE84" rx="2.4" ry="2.4" style="stroke:#038048;stroke-width:0.8000000000000002;"/><text fill="#000000" font-family="sans-serif" font-size="11.2" lengthAdjust="spacing" textLength="42.4" x="401.2" y="603.3703">Monde()</text><text fill="#000000" font-family="sans-serif" font-size="11.2" lengthAdjust="spacing" textLength="3.2" x="401.2" y="618.2672">&#160;</text><line style="stroke:#181818;stroke-width:0.8000000000000002;stroke-dasharray:1.0,2.0;" x1="386" x2="403.2" y1="583.8359" y2="583.8359"/><text fill="#000000" font-family="sans-serif" font-size="11.2" lengthAdjust="spacing" textLength="65.6" x="403.2" y="588.0734">Constructeur</text><line style="stroke:#181818;stroke-width:0.8000000000000002;stroke-dasharray:1.0,2.0;" x1="468.8" x2="486" y1="583.8359" y2="583.8359"/></g><!--class Terrain--><g id="elem_Terrain"><rect codeLine="13" fill="#F1F1F1" height="112.8844" id="Terrain" rx="2" ry="2" style="stroke:#181818;stroke-width:0.4000000000000001;" width="250.4" x="106.8" y="498"/><ellipse cx="210.2" cy="510.8" fill="#A9DCDF" rx="8.8" ry="8.8" style="stroke:#181818;stroke-width:0.8000000000000002;"/><path d="M211.95,512.2125 L208.6375,512.2125 L208.3,513.0375 L208.6375,513.0375 Q209.125,513.0375 209.3375,513.225 Q209.55,513.4125 209.55,513.725 Q209.55,514.025 209.3375,514.2125 Q209.125,514.4 208.6375,514.4 L206.8,514.4 Q206.3125,514.4 206.1125,514.2125 Q205.9,514.025 205.9,513.7125 Q205.9,513.4125 206.125,513.225 Q206.3375,513.025 206.8375,513.0375 L208.975,507.7125 L208.0875,507.7125 Q207.6,507.7125 207.3875,507.525 Q207.175,507.3375 207.175,507.025 Q207.175,506.725 207.3875,506.5375 Q207.6,506.35 208.0875,506.35 L211.025,506.35 L213.7375,513.0375 Q214.2125,513.0375 214.3625,513.15 Q214.675,513.3625 214.675,513.725 Q214.675,514.025 214.4625,514.2125 Q214.2625,514.4 213.775,514.4 L211.9375,514.4 Q211.45,514.4 211.2375,514.2125 Q211.025,514.025 211.025,513.7125 Q211.025,513.4125 211.2375,513.225 Q211.45,513.0375 211.9375,513.0375 L212.275,513.0375 L211.95,512.2125 Z M211.375,510.85 L210.2875,508.15 L209.1875,510.85 L211.375,510.85 Z " fill="#000000"/><text fill="#000000" font-family="sans-serif" font-size="11.2" font-style="italic" lengthAdjust="spacing" textLength="36.8" x="226.6" y="515.4375">Terrain</text><line style="stroke:#181818;stroke-width:0.4000000000000001;" x1="107.6" x2="356.4" y1="523.6" y2="523.6"/><ellipse cx="115.6" cy="553.5453" fill="#84BE84" rx="2.4" ry="2.4" style="stroke:#038048;stroke-width:0.8000000000000002;"/><text fill="#000000" font-family="sans-serif" font-size="11.2" lengthAdjust="spacing" textLength="229.6" x="122.8" y="556.9828">Terrain(float x, float y, int hauteur, int largeur)</text><line style="stroke:#181818;stroke-width:0.8000000000000002;stroke-dasharray:1.0,2.0;" x1="107.6" x2="199.2" y1="537.4484" y2="537.4484"/><text fill="#000000" font-family="sans-serif" font-size="11.2" lengthAdjust="spacing" textLength="65.6" x="199.2" y="541.6859">Constructeur</text><line style="stroke:#181818;stroke-width:0.8000000000000002;stroke-dasharray:1.0,2.0;" x1="264.8" x2="356.4" y1="537.4484" y2="537.4484"/><ellipse cx="115.6" cy="586.5391" fill="#84BE84" rx="2.4" ry="2.4" style="stroke:#038048;stroke-width:0.8000000000000002;"/><text fill="#000000" font-family="sans-serif" font-size="11.2" lengthAdjust="spacing" textLength="128" x="122.8" y="589.9766">boolean estTraversable()</text><text fill="#000000" font-family="sans-serif" font-size="11.2" lengthAdjust="spacing" textLength="3.2" x="122.8" y="604.8734">&#160;</text><line style="stroke:#181818;stroke-width:0.8000000000000002;stroke-dasharray:1.0,2.0;" x1="107.6" x2="207.2" y1="570.4422" y2="570.4422"/><text fill="#000000" font-family="sans-serif" font-size="11.2" lengthAdjust="spacing" textLength="49.6" x="207.2" y="574.6797">M&#233;thodes</text><line style="stroke:#181818;stroke-width:0.8000000000000002;stroke-dasharray:1.0,2.0;" x1="256.8" x2="356.4" y1="570.4422" y2="570.4422"/></g><!--class Mur--><g id="elem_Mur"><rect codeLine="21" fill="#F1F1F1" height="97.9875" id="Mur" rx="2" ry="2" style="stroke:#181818;stroke-width:0.4000000000000001;" width="232.8" x="37.2" y="672"/><ellipse cx="140.6" cy="684.8" fill="#ADD1B2" rx="8.8" ry="8.8" style="stroke:#181818;stroke-width:0.8000000000000002;"/><path d="M142.8125,681.5 Q142.9375,681.325 143.0875,681.2375 Q143.2375,681.15 143.4125,681.15 Q143.7125,681.15 143.9,681.3625 Q144.0875,681.5625 144.0875,682.05 L144.0875,683.2125 Q144.0875,683.7 143.9,683.9125 Q143.7125,684.125 143.4125,684.125 Q143.1375,684.125 142.975,683.9625 Q142.8125,683.8125 142.725,683.4 Q142.6875,683.1125 142.5375,682.9625 Q142.275,682.6625 141.7875,682.4875 Q141.3,682.3125 140.8,682.3125 Q140.1875,682.3125 139.675,682.575 Q139.175,682.8375 138.775,683.4375 Q138.3875,684.0375 138.3875,684.8625 L138.3875,685.7375 Q138.3875,686.725 139.1,687.3875 Q139.8125,688.0375 141.0875,688.0375 Q141.8375,688.0375 142.3625,687.8375 Q142.675,687.7125 143.0125,687.3625 Q143.225,687.15 143.3375,687.0875 Q143.4625,687.025 143.625,687.025 Q143.8875,687.025 144.0875,687.2375 Q144.3,687.4375 144.3,687.7125 Q144.3,687.9875 144.025,688.3125 Q143.625,688.775 142.9875,689.0375 Q142.125,689.4 141.0875,689.4 Q139.875,689.4 138.9125,688.9 Q138.125,688.5 137.575,687.65 Q137.025,686.7875 137.025,685.7625 L137.025,684.8375 Q137.025,683.775 137.5125,682.8625 Q138.0125,681.9375 138.8875,681.45 Q139.7625,680.95 140.75,680.95 Q141.3375,680.95 141.85,681.0875 Q142.375,681.2125 142.8125,681.5 Z " fill="#000000"/><text fill="#000000" font-family="sans-serif" font-size="11.2" lengthAdjust="spacing" textLength="19.2" x="157" y="689.4375">Mur</text><line style="stroke:#181818;stroke-width:0.4000000000000001;" x1="38" x2="269.2" y1="697.6" y2="697.6"/><ellipse cx="46" cy="727.5453" fill="#84BE84" rx="2.4" ry="2.4" style="stroke:#038048;stroke-width:0.8000000000000002;"/><text fill="#000000" font-family="sans-serif" font-size="11.2" lengthAdjust="spacing" textLength="212" x="53.2" y="730.9828">Mur(float x, float y, int hauteur, int largeur)</text><line style="stroke:#181818;stroke-width:0.8000000000000002;stroke-dasharray:1.0,2.0;" x1="38" x2="120.8" y1="711.4484" y2="711.4484"/><text fill="#000000" font-family="sans-serif" font-size="11.2" lengthAdjust="spacing" textLength="65.6" x="120.8" y="715.6859">Constructeur</text><line style="stroke:#181818;stroke-width:0.8000000000000002;stroke-dasharray:1.0,2.0;" x1="186.4" x2="269.2" y1="711.4484" y2="711.4484"/><ellipse cx="46" cy="760.5391" fill="#84BE84" rx="2.4" ry="2.4" style="stroke:#038048;stroke-width:0.8000000000000002;"/><text fill="#000000" font-family="sans-serif" font-size="11.2" lengthAdjust="spacing" textLength="128" x="53.2" y="763.9766">boolean estTraversable()</text><line style="stroke:#181818;stroke-width:0.8000000000000002;stroke-dasharray:1.0,2.0;" x1="38" x2="128.8" y1="744.4422" y2="744.4422"/><text fill="#000000" font-family="sans-serif" font-size="11.2" lengthAdjust="spacing" textLength="49.6" x="128.8" y="748.6797">M&#233;thodes</text><line style="stroke:#181818;stroke-width:0.8000000000000002;stroke-dasharray:1.0,2.0;" x1="178.4" x2="269.2" y1="744.4422" y2="744.4422"/></g><!--class Personnage--><g id="elem_Personnage"><rect codeLine="29" fill="#F1F1F1" height="127.7813" id="Personnage" rx="2" ry="2" style="stroke:#181818;stroke-width:0.4000000000000001;" width="312.8" x="514.8" y="490.4"/><ellipse cx="637" cy="503.2" fill="#A9DCDF" rx="8.8" ry="8.8" style="stroke:#181818;stroke-width:0.8000000000000002;"/><path d="M638.75,504.6125 L635.4375,504.6125 L635.1,505.4375 L635.4375,505.4375 Q635.925,505.4375 636.1375,505.625 Q636.35,505.8125 636.35,506.125 Q636.35,506.425 636.1375,506.6125 Q635.925,506.8 635.4375,506.8 L633.6,506.8 Q633.1125,506.8 632.9125,506.6125 Q632.7,506.425 632.7,506.1125 Q632.7,505.8125 632.925,505.625 Q633.1375,505.425 633.6375,505.4375 L635.775,500.1125 L634.8875,500.1125 Q634.4,500.1125 634.1875,499.925 Q633.975,499.7375 633.975,499.425 Q633.975,499.125 634.1875,498.9375 Q634.4,498.75 634.8875,498.75 L637.825,498.75 L640.5375,505.4375 Q641.0125,505.4375 641.1625,505.55 Q641.475,505.7625 641.475,506.125 Q641.475,506.425 641.2625,506.6125 Q641.0625,506.8 640.575,506.8 L638.7375,506.8 Q638.25,506.8 638.0375,506.6125 Q637.825,506.425 637.825,506.1125 Q637.825,505.8125 638.0375,505.625 Q638.25,505.4375 638.7375,505.4375 L639.075,505.4375 L638.75,504.6125 Z M638.175,503.25 L637.0875,500.55 L635.9875,503.25 L638.175,503.25 Z " fill="#000000"/><text fill="#000000" font-family="sans-serif" font-size="11.2" font-style="italic" lengthAdjust="spacing" textLength="61.6" x="653.4" y="507.8375">Personnage</text><line style="stroke:#181818;stroke-width:0.4000000000000001;" x1="515.6" x2="826.8" y1="516" y2="516"/><polygon fill="none" points="523.6,523.8484,526.8,527.0484,523.6,530.2484,520.4,527.0484" style="stroke:#B38D22;stroke-width:0.8000000000000002;"/><text fill="#000000" font-family="sans-serif" font-size="11.2" lengthAdjust="spacing" textLength="60" x="530.8" y="531.2859">float vitesse</text><ellipse cx="523.6" cy="560.8422" fill="#84BE84" rx="2.4" ry="2.4" style="stroke:#038048;stroke-width:0.8000000000000002;"/><text fill="#000000" font-family="sans-serif" font-size="11.2" lengthAdjust="spacing" textLength="292" x="530.8" y="564.2797">Personnage(int x, int y, int largeur, int hauteur, int vitesse)</text><line style="stroke:#181818;stroke-width:0.8000000000000002;stroke-dasharray:1.0,2.0;" x1="515.6" x2="638.4" y1="544.7453" y2="544.7453"/><text fill="#000000" font-family="sans-serif" font-size="11.2" lengthAdjust="spacing" textLength="65.6" x="638.4" y="548.9828">Constructeur</text><line style="stroke:#181818;stroke-width:0.8000000000000002;stroke-dasharray:1.0,2.0;" x1="704" x2="826.8" y1="544.7453" y2="544.7453"/><ellipse cx="523.6" cy="593.8359" fill="#84BE84" rx="2.4" ry="2.4" style="stroke:#038048;stroke-width:0.8000000000000002;"/><text fill="#000000" font-family="sans-serif" font-size="11.2" lengthAdjust="spacing" textLength="243.2" x="530.8" y="597.2734">void d&#233;placer(TypeMouvement typeMouvement)</text><ellipse cx="523.6" cy="608.7328" fill="#84BE84" rx="2.4" ry="2.4" style="stroke:#038048;stroke-width:0.8000000000000002;"/><text fill="#000000" font-family="sans-serif" font-size="11.2" lengthAdjust="spacing" textLength="110.4" x="530.8" y="612.1703">boolean estUnHeros()</text><line style="stroke:#181818;stroke-width:0.8000000000000002;stroke-dasharray:1.0,2.0;" x1="515.6" x2="646.4" y1="577.7391" y2="577.7391"/><text fill="#000000" font-family="sans-serif" font-size="11.2" lengthAdjust="spacing" textLength="49.6" x="646.4" y="581.9766">M&#233;thodes</text><line style="stroke:#181818;stroke-width:0.8000000000000002;stroke-dasharray:1.0,2.0;" x1="696" x2="826.8" y1="577.7391" y2="577.7391"/></g><!--class TypeMouvement--><g id="elem_TypeMouvement"><rect codeLine="38" fill="#F1F1F1" height="97.9875" id="TypeMouvement" rx="2" ry="2" style="stroke:#181818;stroke-width:0.4000000000000001;" width="109.6" x="376.4" y="279.6"/><ellipse cx="388.4" cy="292.4" fill="#EB937F" rx="8.8" ry="8.8" style="stroke:#181818;stroke-width:0.8000000000000002;"/><path d="M387.4875,293.0375 L387.4875,295.0375 L390.95,295.0375 L390.95,294.3 Q390.95,293.8125 391.1375,293.6 Q391.3375,293.3875 391.6375,293.3875 Q391.9375,293.3875 392.125,293.6 Q392.3125,293.8125 392.3125,294.3 L392.3125,296.4 L385.9125,296.4 Q385.4125,296.4 385.2,296.2125 Q385,296.025 385,295.7125 Q385,295.4125 385.2125,295.225 Q385.425,295.0375 385.9125,295.0375 L386.125,295.0375 L386.125,289.7125 L385.9125,289.7125 Q385.4125,289.7125 385.2,289.525 Q385,289.3375 385,289.025 Q385,288.725 385.2,288.5375 Q385.4125,288.35 385.9125,288.35 L392.0125,288.35 L392.0125,290.425 Q392.0125,290.9125 391.825,291.125 Q391.65,291.325 391.3375,291.325 Q391.0375,291.325 390.85,291.125 Q390.6625,290.9125 390.6625,290.425 L390.6625,289.7125 L387.4875,289.7125 L387.4875,291.675 L388.675,291.675 Q388.675,291.15 388.775,291 Q388.9875,290.675 389.3625,290.675 Q389.6625,290.675 389.85,290.8875 Q390.0375,291.0875 390.0375,291.575 L390.0375,293.15 Q390.0375,293.5875 389.9375,293.7375 Q389.725,294.05 389.3625,294.05 Q388.9875,294.05 388.775,293.725 Q388.675,293.575 388.675,293.0375 L387.4875,293.0375 Z " fill="#000000"/><text fill="#000000" font-family="sans-serif" font-size="11.2" lengthAdjust="spacing" textLength="84" x="399.6" y="297.0375">TypeMouvement</text><line style="stroke:#181818;stroke-width:0.4000000000000001;" x1="377.2" x2="485.2" y1="305.2" y2="305.2"/><text fill="#000000" font-family="sans-serif" font-size="11.2" lengthAdjust="spacing" textLength="33.6" x="381.2" y="320.4859">RIGHT</text><text fill="#000000" font-family="sans-serif" font-size="11.2" lengthAdjust="spacing" textLength="28" x="381.2" y="335.3828">LEFT</text><text fill="#000000" font-family="sans-serif" font-size="11.2" lengthAdjust="spacing" textLength="23.2" x="381.2" y="350.2797">TOP</text><text fill="#000000" font-family="sans-serif" font-size="11.2" lengthAdjust="spacing" textLength="34.4" x="381.2" y="365.1766">DOWN</text><line style="stroke:#181818;stroke-width:0.4000000000000001;" x1="377.2" x2="485.2" y1="371.1875" y2="371.1875"/></g><!--class Heros--><g id="elem_Heros"><rect codeLine="45" fill="#F1F1F1" height="97.9875" id="Heros" rx="2" ry="2" style="stroke:#181818;stroke-width:0.4000000000000001;" width="280.8" x="298" y="672"/><ellipse cx="420.2" cy="684.8" fill="#ADD1B2" rx="8.8" ry="8.8" style="stroke:#181818;stroke-width:0.8000000000000002;"/><path d="M422.4125,681.5 Q422.5375,681.325 422.6875,681.2375 Q422.8375,681.15 423.0125,681.15 Q423.3125,681.15 423.5,681.3625 Q423.6875,681.5625 423.6875,682.05 L423.6875,683.2125 Q423.6875,683.7 423.5,683.9125 Q423.3125,684.125 423.0125,684.125 Q422.7375,684.125 422.575,683.9625 Q422.4125,683.8125 422.325,683.4 Q422.2875,683.1125 422.1375,682.9625 Q421.875,682.6625 421.3875,682.4875 Q420.9,682.3125 420.4,682.3125 Q419.7875,682.3125 419.275,682.575 Q418.775,682.8375 418.375,683.4375 Q417.9875,684.0375 417.9875,684.8625 L417.9875,685.7375 Q417.9875,686.725 418.7,687.3875 Q419.4125,688.0375 420.6875,688.0375 Q421.4375,688.0375 421.9625,687.8375 Q422.275,687.7125 422.6125,687.3625 Q422.825,687.15 422.9375,687.0875 Q423.0625,687.025 423.225,687.025 Q423.4875,687.025 423.6875,687.2375 Q423.9,687.4375 423.9,687.7125 Q423.9,687.9875 423.625,688.3125 Q423.225,688.775 422.5875,689.0375 Q421.725,689.4 420.6875,689.4 Q419.475,689.4 418.5125,688.9 Q417.725,688.5 417.175,687.65 Q416.625,686.7875 416.625,685.7625 L416.625,684.8375 Q416.625,683.775 417.1125,682.8625 Q417.6125,681.9375 418.4875,681.45 Q419.3625,680.95 420.35,680.95 Q420.9375,680.95 421.45,681.0875 Q421.975,681.2125 422.4125,681.5 Z " fill="#000000"/><text fill="#000000" font-family="sans-serif" font-size="11.2" lengthAdjust="spacing" textLength="29.6" x="436.6" y="689.4375">Heros</text><line style="stroke:#181818;stroke-width:0.4000000000000001;" x1="298.8" x2="578" y1="697.6" y2="697.6"/><ellipse cx="306.8" cy="727.5453" fill="#84BE84" rx="2.4" ry="2.4" style="stroke:#038048;stroke-width:0.8000000000000002;"/><text fill="#000000" font-family="sans-serif" font-size="11.2" lengthAdjust="spacing" textLength="260" x="314" y="730.9828">Heros(int x, int y, int largeur, int hauteur, int vitesse)</text><line style="stroke:#181818;stroke-width:0.8000000000000002;stroke-dasharray:1.0,2.0;" x1="298.8" x2="405.6" y1="711.4484" y2="711.4484"/><text fill="#000000" font-family="sans-serif" font-size="11.2" lengthAdjust="spacing" textLength="65.6" x="405.6" y="715.6859">Constructeur</text><line style="stroke:#181818;stroke-width:0.8000000000000002;stroke-dasharray:1.0,2.0;" x1="471.2" x2="578" y1="711.4484" y2="711.4484"/><ellipse cx="306.8" cy="760.5391" fill="#84BE84" rx="2.4" ry="2.4" style="stroke:#038048;stroke-width:0.8000000000000002;"/><text fill="#000000" font-family="sans-serif" font-size="11.2" lengthAdjust="spacing" textLength="110.4" x="314" y="763.9766">boolean estUnHeros()</text><line style="stroke:#181818;stroke-width:0.8000000000000002;stroke-dasharray:1.0,2.0;" x1="298.8" x2="413.6" y1="744.4422" y2="744.4422"/><text fill="#000000" font-family="sans-serif" font-size="11.2" lengthAdjust="spacing" textLength="49.6" x="413.6" y="748.6797">M&#233;thodes</text><line style="stroke:#181818;stroke-width:0.8000000000000002;stroke-dasharray:1.0,2.0;" x1="463.2" x2="578" y1="744.4422" y2="744.4422"/></g><!--class Monstre--><g id="elem_Monstre"><rect codeLine="52" fill="#F1F1F1" height="64.9938" id="Monstre" rx="2" ry="2" style="stroke:#181818;stroke-width:0.4000000000000001;" width="292" x="606.8" y="688.4"/><ellipse cx="728.6" cy="701.2" fill="#A9DCDF" rx="8.8" ry="8.8" style="stroke:#181818;stroke-width:0.8000000000000002;"/><path d="M730.35,702.6125 L727.0375,702.6125 L726.7,703.4375 L727.0375,703.4375 Q727.525,703.4375 727.7375,703.625 Q727.95,703.8125 727.95,704.125 Q727.95,704.425 727.7375,704.6125 Q727.525,704.8 727.0375,704.8 L725.2,704.8 Q724.7125,704.8 724.5125,704.6125 Q724.3,704.425 724.3,704.1125 Q724.3,703.8125 724.525,703.625 Q724.7375,703.425 725.2375,703.4375 L727.375,698.1125 L726.4875,698.1125 Q726,698.1125 725.7875,697.925 Q725.575,697.7375 725.575,697.425 Q725.575,697.125 725.7875,696.9375 Q726,696.75 726.4875,696.75 L729.425,696.75 L732.1375,703.4375 Q732.6125,703.4375 732.7625,703.55 Q733.075,703.7625 733.075,704.125 Q733.075,704.425 732.8625,704.6125 Q732.6625,704.8 732.175,704.8 L730.3375,704.8 Q729.85,704.8 729.6375,704.6125 Q729.425,704.425 729.425,704.1125 Q729.425,703.8125 729.6375,703.625 Q729.85,703.4375 730.3375,703.4375 L730.675,703.4375 L730.35,702.6125 Z M729.775,701.25 L728.6875,698.55 L727.5875,701.25 L729.775,701.25 Z " fill="#000000"/><text fill="#000000" font-family="sans-serif" font-size="11.2" font-style="italic" lengthAdjust="spacing" textLength="41.6" x="745" y="705.8375">Monstre</text><line style="stroke:#181818;stroke-width:0.4000000000000001;" x1="607.6" x2="898" y1="714" y2="714"/><ellipse cx="615.6" cy="743.9453" fill="#84BE84" rx="2.4" ry="2.4" style="stroke:#038048;stroke-width:0.8000000000000002;"/><text fill="#000000" font-family="sans-serif" font-size="11.2" lengthAdjust="spacing" textLength="271.2" x="622.8" y="747.3828">Monstre(int x, int y, int largeur, int hauteur, int vitesse)</text><line style="stroke:#181818;stroke-width:0.8000000000000002;stroke-dasharray:1.0,2.0;" x1="607.6" x2="720" y1="727.8484" y2="727.8484"/><text fill="#000000" font-family="sans-serif" font-size="11.2" lengthAdjust="spacing" textLength="65.6" x="720" y="732.0859">Constructeur</text><line style="stroke:#181818;stroke-width:0.8000000000000002;stroke-dasharray:1.0,2.0;" x1="785.6" x2="898" y1="727.8484" y2="727.8484"/></g><!--class Walker--><g id="elem_Walker"><rect codeLine="57" fill="#F1F1F1" height="64.9938" id="Walker" rx="2" ry="2" style="stroke:#181818;stroke-width:0.4000000000000001;" width="286.4" x="609.6" y="817.6"/><ellipse cx="731.8" cy="830.4" fill="#ADD1B2" rx="8.8" ry="8.8" style="stroke:#181818;stroke-width:0.8000000000000002;"/><path d="M734.0125,827.1 Q734.1375,826.925 734.2875,826.8375 Q734.4375,826.75 734.6125,826.75 Q734.9125,826.75 735.1,826.9625 Q735.2875,827.1625 735.2875,827.65 L735.2875,828.8125 Q735.2875,829.3 735.1,829.5125 Q734.9125,829.725 734.6125,829.725 Q734.3375,829.725 734.175,829.5625 Q734.0125,829.4125 733.925,829 Q733.8875,828.7125 733.7375,828.5625 Q733.475,828.2625 732.9875,828.0875 Q732.5,827.9125 732,827.9125 Q731.3875,827.9125 730.875,828.175 Q730.375,828.4375 729.975,829.0375 Q729.5875,829.6375 729.5875,830.4625 L729.5875,831.3375 Q729.5875,832.325 730.3,832.9875 Q731.0125,833.6375 732.2875,833.6375 Q733.0375,833.6375 733.5625,833.4375 Q733.875,833.3125 734.2125,832.9625 Q734.425,832.75 734.5375,832.6875 Q734.6625,832.625 734.825,832.625 Q735.0875,832.625 735.2875,832.8375 Q735.5,833.0375 735.5,833.3125 Q735.5,833.5875 735.225,833.9125 Q734.825,834.375 734.1875,834.6375 Q733.325,835 732.2875,835 Q731.075,835 730.1125,834.5 Q729.325,834.1 728.775,833.25 Q728.225,832.3875 728.225,831.3625 L728.225,830.4375 Q728.225,829.375 728.7125,828.4625 Q729.2125,827.5375 730.0875,827.05 Q730.9625,826.55 731.95,826.55 Q732.5375,826.55 733.05,826.6875 Q733.575,826.8125 734.0125,827.1 Z " fill="#000000"/><text fill="#000000" font-family="sans-serif" font-size="11.2" lengthAdjust="spacing" textLength="35.2" x="748.2" y="835.0375">Walker</text><line style="stroke:#181818;stroke-width:0.4000000000000001;" x1="610.4" x2="895.2" y1="843.2" y2="843.2"/><ellipse cx="618.4" cy="873.1453" fill="#84BE84" rx="2.4" ry="2.4" style="stroke:#038048;stroke-width:0.8000000000000002;"/><text fill="#000000" font-family="sans-serif" font-size="11.2" lengthAdjust="spacing" textLength="265.6" x="625.6" y="876.5828">Walker(int x, int y, int largeur, int hauteur, int vitesse)</text><line style="stroke:#181818;stroke-width:0.8000000000000002;stroke-dasharray:1.0,2.0;" x1="610.4" x2="720" y1="857.0484" y2="857.0484"/><text fill="#000000" font-family="sans-serif" font-size="11.2" lengthAdjust="spacing" textLength="65.6" x="720" y="861.2859">Constructeur</text><line style="stroke:#181818;stroke-width:0.8000000000000002;stroke-dasharray:1.0,2.0;" x1="785.6" x2="895.2" y1="857.0484" y2="857.0484"/></g><!--class Monde--><g id="elem_Monde"><rect codeLine="62" fill="#F1F1F1" height="217.1625" id="Monde" rx="2" ry="2" style="stroke:#181818;stroke-width:0.4000000000000001;" width="314.4" x="514" y="220"/><ellipse cx="650.6" cy="232.8" fill="#ADD1B2" rx="8.8" ry="8.8" style="stroke:#181818;stroke-width:0.8000000000000002;"/><path d="M652.8125,229.5 Q652.9375,229.325 653.0875,229.2375 Q653.2375,229.15 653.4125,229.15 Q653.7125,229.15 653.9,229.3625 Q654.0875,229.5625 654.0875,230.05 L654.0875,231.2125 Q654.0875,231.7 653.9,231.9125 Q653.7125,232.125 653.4125,232.125 Q653.1375,232.125 652.975,231.9625 Q652.8125,231.8125 652.725,231.4 Q652.6875,231.1125 652.5375,230.9625 Q652.275,230.6625 651.7875,230.4875 Q651.3,230.3125 650.8,230.3125 Q650.1875,230.3125 649.675,230.575 Q649.175,230.8375 648.775,231.4375 Q648.3875,232.0375 648.3875,232.8625 L648.3875,233.7375 Q648.3875,234.725 649.1,235.3875 Q649.8125,236.0375 651.0875,236.0375 Q651.8375,236.0375 652.3625,235.8375 Q652.675,235.7125 653.0125,235.3625 Q653.225,235.15 653.3375,235.0875 Q653.4625,235.025 653.625,235.025 Q653.8875,235.025 654.0875,235.2375 Q654.3,235.4375 654.3,235.7125 Q654.3,235.9875 654.025,236.3125 Q653.625,236.775 652.9875,237.0375 Q652.125,237.4 651.0875,237.4 Q649.875,237.4 648.9125,236.9 Q648.125,236.5 647.575,235.65 Q647.025,234.7875 647.025,233.7625 L647.025,232.8375 Q647.025,231.775 647.5125,230.8625 Q648.0125,229.9375 648.8875,229.45 Q649.7625,228.95 650.75,228.95 Q651.3375,228.95 651.85,229.0875 Q652.375,229.2125 652.8125,229.5 Z " fill="#000000"/><text fill="#000000" font-family="sans-serif" font-size="11.2" lengthAdjust="spacing" textLength="34.4" x="667" y="237.4375">Monde</text><line style="stroke:#181818;stroke-width:0.4000000000000001;" x1="514.8" x2="827.6" y1="245.6" y2="245.6"/><polygon fill="none" points="522.8,253.4484,526,256.6484,522.8,259.8484,519.6,256.6484" style="stroke:#B38D22;stroke-width:0.8000000000000002;"/><text fill="#000000" font-family="sans-serif" font-size="11.2" lengthAdjust="spacing" textLength="56" x="530" y="260.8859">int nbLigne</text><polygon fill="none" points="522.8,268.3453,526,271.5453,522.8,274.7453,519.6,271.5453" style="stroke:#B38D22;stroke-width:0.8000000000000002;"/><text fill="#000000" font-family="sans-serif" font-size="11.2" lengthAdjust="spacing" textLength="44.8" x="530" y="275.7828">int nbCol</text><ellipse cx="522.8" cy="305.3391" fill="#84BE84" rx="2.4" ry="2.4" style="stroke:#038048;stroke-width:0.8000000000000002;"/><text fill="#000000" font-family="sans-serif" font-size="11.2" lengthAdjust="spacing" textLength="42.4" x="530" y="308.7766">Monde()</text><line style="stroke:#181818;stroke-width:0.8000000000000002;stroke-dasharray:1.0,2.0;" x1="514.8" x2="638.4" y1="289.2422" y2="289.2422"/><text fill="#000000" font-family="sans-serif" font-size="11.2" lengthAdjust="spacing" textLength="65.6" x="638.4" y="293.4797">Constructeur</text><line style="stroke:#181818;stroke-width:0.8000000000000002;stroke-dasharray:1.0,2.0;" x1="704" x2="827.6" y1="289.2422" y2="289.2422"/><ellipse cx="522.8" cy="338.3328" fill="#84BE84" rx="2.4" ry="2.4" style="stroke:#038048;stroke-width:0.8000000000000002;"/><text fill="#000000" font-family="sans-serif" font-size="11.2" lengthAdjust="spacing" textLength="280.8" x="530" y="341.7703">boolean collision(ElementMonde e1, ElementMonde e2)</text><ellipse cx="522.8" cy="353.2297" fill="#84BE84" rx="2.4" ry="2.4" style="stroke:#038048;stroke-width:0.8000000000000002;"/><text fill="#000000" font-family="sans-serif" font-size="11.2" lengthAdjust="spacing" textLength="86.4" x="530" y="356.6672">Heros getHeros()</text><ellipse cx="522.8" cy="368.1266" fill="#84BE84" rx="2.4" ry="2.4" style="stroke:#038048;stroke-width:0.8000000000000002;"/><text fill="#000000" font-family="sans-serif" font-size="11.2" lengthAdjust="spacing" textLength="293.6" x="530" y="371.5641">void deplacementHeros(TypeMouvement typeMouvement)</text><ellipse cx="522.8" cy="383.0234" fill="#84BE84" rx="2.4" ry="2.4" style="stroke:#038048;stroke-width:0.8000000000000002;"/><text fill="#000000" font-family="sans-serif" font-size="11.2" lengthAdjust="spacing" textLength="136.8" x="530" y="386.4609">void addTerrains(Terrain t)</text><ellipse cx="522.8" cy="397.9203" fill="#84BE84" rx="2.4" ry="2.4" style="stroke:#038048;stroke-width:0.8000000000000002;"/><text fill="#000000" font-family="sans-serif" font-size="11.2" lengthAdjust="spacing" textLength="184" x="530" y="401.3578">void addPersonnage(Personnage p)</text><ellipse cx="522.8" cy="412.8172" fill="#84BE84" rx="2.4" ry="2.4" style="stroke:#038048;stroke-width:0.8000000000000002;"/><text fill="#000000" font-family="sans-serif" font-size="11.2" lengthAdjust="spacing" textLength="91.2" x="530" y="416.2547">void updateData()</text><ellipse cx="522.8" cy="427.7141" fill="#84BE84" rx="2.4" ry="2.4" style="stroke:#038048;stroke-width:0.8000000000000002;"/><text fill="#000000" font-family="sans-serif" font-size="11.2" lengthAdjust="spacing" textLength="157.6" x="530" y="431.1516">void chargerCarte(String carte)</text><line style="stroke:#181818;stroke-width:0.8000000000000002;stroke-dasharray:1.0,2.0;" x1="514.8" x2="646.4" y1="322.2359" y2="322.2359"/><text fill="#000000" font-family="sans-serif" font-size="11.2" lengthAdjust="spacing" textLength="49.6" x="646.4" y="326.4734">M&#233;thodes</text><line style="stroke:#181818;stroke-width:0.8000000000000002;stroke-dasharray:1.0,2.0;" x1="696" x2="827.6" y1="322.2359" y2="322.2359"/></g><!--class Donnees--><g id="elem_Donnees"><rect codeLine="85" fill="#F1F1F1" height="112.8844" id="Donnees" rx="2" ry="2" style="stroke:#181818;stroke-width:0.4000000000000001;" width="186.4" x="963.6" y="272"/><ellipse cx="1030.6" cy="284.8" fill="#ADD1B2" rx="8.8" ry="8.8" style="stroke:#181818;stroke-width:0.8000000000000002;"/><path d="M1032.8125,281.5 Q1032.9375,281.325 1033.0875,281.2375 Q1033.2375,281.15 1033.4125,281.15 Q1033.7125,281.15 1033.9,281.3625 Q1034.0875,281.5625 1034.0875,282.05 L1034.0875,283.2125 Q1034.0875,283.7 1033.9,283.9125 Q1033.7125,284.125 1033.4125,284.125 Q1033.1375,284.125 1032.975,283.9625 Q1032.8125,283.8125 1032.725,283.4 Q1032.6875,283.1125 1032.5375,282.9625 Q1032.275,282.6625 1031.7875,282.4875 Q1031.3,282.3125 1030.8,282.3125 Q1030.1875,282.3125 1029.675,282.575 Q1029.175,282.8375 1028.775,283.4375 Q1028.3875,284.0375 1028.3875,284.8625 L1028.3875,285.7375 Q1028.3875,286.725 1029.1,287.3875 Q1029.8125,288.0375 1031.0875,288.0375 Q1031.8375,288.0375 1032.3625,287.8375 Q1032.675,287.7125 1033.0125,287.3625 Q1033.225,287.15 1033.3375,287.0875 Q1033.4625,287.025 1033.625,287.025 Q1033.8875,287.025 1034.0875,287.2375 Q1034.3,287.4375 1034.3,287.7125 Q1034.3,287.9875 1034.025,288.3125 Q1033.625,288.775 1032.9875,289.0375 Q1032.125,289.4 1031.0875,289.4 Q1029.875,289.4 1028.9125,288.9 Q1028.125,288.5 1027.575,287.65 Q1027.025,286.7875 1027.025,285.7625 L1027.025,284.8375 Q1027.025,283.775 1027.5125,282.8625 Q1028.0125,281.9375 1028.8875,281.45 Q1029.7625,280.95 1030.75,280.95 Q1031.3375,280.95 1031.85,281.0875 Q1032.375,281.2125 1032.8125,281.5 Z " fill="#000000"/><text fill="#000000" font-family="sans-serif" font-size="11.2" lengthAdjust="spacing" textLength="45.6" x="1047" y="289.4375">Donnees</text><line style="stroke:#181818;stroke-width:0.4000000000000001;" x1="964.4" x2="1149.2" y1="297.6" y2="297.6"/><ellipse cx="972.4" cy="309.4484" fill="none" rx="2.4" ry="2.4" style="stroke:#038048;stroke-width:0.8000000000000002;"/><text fill="#000000" font-family="sans-serif" font-size="11.2" lengthAdjust="spacing" text-decoration="underline" textLength="101.6" x="979.6" y="312.8859">String GAME_TITLE</text><ellipse cx="972.4" cy="324.3453" fill="none" rx="2.4" ry="2.4" style="stroke:#038048;stroke-width:0.8000000000000002;"/><text fill="#000000" font-family="sans-serif" font-size="11.2" lengthAdjust="spacing" text-decoration="underline" textLength="165.6" x="979.6" y="327.7828">int WINDOW_DEFAULT_HEIGHT</text><ellipse cx="972.4" cy="339.2422" fill="none" rx="2.4" ry="2.4" style="stroke:#038048;stroke-width:0.8000000000000002;"/><text fill="#000000" font-family="sans-serif" font-size="11.2" lengthAdjust="spacing" text-decoration="underline" textLength="160.8" x="979.6" y="342.6797">int WINDOW_DEFAULT_WIDTH</text><ellipse cx="972.4" cy="354.1391" fill="none" rx="2.4" ry="2.4" style="stroke:#038048;stroke-width:0.8000000000000002;"/><text fill="#000000" font-family="sans-serif" font-size="11.2" lengthAdjust="spacing" text-decoration="underline" textLength="103.2" x="979.6" y="357.5766">int WORLD_HEIGHT</text><ellipse cx="972.4" cy="369.0359" fill="none" rx="2.4" ry="2.4" style="stroke:#038048;stroke-width:0.8000000000000002;"/><text fill="#000000" font-family="sans-serif" font-size="11.2" lengthAdjust="spacing" text-decoration="underline" textLength="98.4" x="979.6" y="372.4734">int WORLD_WIDTH</text><line style="stroke:#181818;stroke-width:0.4000000000000001;" x1="964.4" x2="1149.2" y1="378.4844" y2="378.4844"/></g><!--class GestionFichier--><g id="elem_GestionFichier"><rect codeLine="93" fill="#F1F1F1" height="97.9875" id="GestionFichier" rx="2" ry="2" style="stroke:#181818;stroke-width:0.4000000000000001;" width="225.6" x="944" y="505.6"/><ellipse cx="1016.6" cy="518.4" fill="#ADD1B2" rx="8.8" ry="8.8" style="stroke:#181818;stroke-width:0.8000000000000002;"/><path d="M1018.8125,515.1 Q1018.9375,514.925 1019.0875,514.8375 Q1019.2375,514.75 1019.4125,514.75 Q1019.7125,514.75 1019.9,514.9625 Q1020.0875,515.1625 1020.0875,515.65 L1020.0875,516.8125 Q1020.0875,517.3 1019.9,517.5125 Q1019.7125,517.725 1019.4125,517.725 Q1019.1375,517.725 1018.975,517.5625 Q1018.8125,517.4125 1018.725,517 Q1018.6875,516.7125 1018.5375,516.5625 Q1018.275,516.2625 1017.7875,516.0875 Q1017.3,515.9125 1016.8,515.9125 Q1016.1875,515.9125 1015.675,516.175 Q1015.175,516.4375 1014.775,517.0375 Q1014.3875,517.6375 1014.3875,518.4625 L1014.3875,519.3375 Q1014.3875,520.325 1015.1,520.9875 Q1015.8125,521.6375 1017.0875,521.6375 Q1017.8375,521.6375 1018.3625,521.4375 Q1018.675,521.3125 1019.0125,520.9625 Q1019.225,520.75 1019.3375,520.6875 Q1019.4625,520.625 1019.625,520.625 Q1019.8875,520.625 1020.0875,520.8375 Q1020.3,521.0375 1020.3,521.3125 Q1020.3,521.5875 1020.025,521.9125 Q1019.625,522.375 1018.9875,522.6375 Q1018.125,523 1017.0875,523 Q1015.875,523 1014.9125,522.5 Q1014.125,522.1 1013.575,521.25 Q1013.025,520.3875 1013.025,519.3625 L1013.025,518.4375 Q1013.025,517.375 1013.5125,516.4625 Q1014.0125,515.5375 1014.8875,515.05 Q1015.7625,514.55 1016.75,514.55 Q1017.3375,514.55 1017.85,514.6875 Q1018.375,514.8125 1018.8125,515.1 Z " fill="#000000"/><text fill="#000000" font-family="sans-serif" font-size="11.2" lengthAdjust="spacing" textLength="73.6" x="1033" y="523.0375">GestionFichier</text><line style="stroke:#181818;stroke-width:0.4000000000000001;" x1="944.8" x2="1168.8" y1="531.2" y2="531.2"/><ellipse cx="952.8" cy="561.1453" fill="#84BE84" rx="2.4" ry="2.4" style="stroke:#038048;stroke-width:0.8000000000000002;"/><text fill="#000000" font-family="sans-serif" font-size="11.2" lengthAdjust="spacing" textLength="81.6" x="960" y="564.5828">GestionFichier()</text><line style="stroke:#181818;stroke-width:0.8000000000000002;stroke-dasharray:1.0,2.0;" x1="944.8" x2="1024" y1="545.0484" y2="545.0484"/><text fill="#000000" font-family="sans-serif" font-size="11.2" lengthAdjust="spacing" textLength="65.6" x="1024" y="549.2859">Constructeur</text><line style="stroke:#181818;stroke-width:0.8000000000000002;stroke-dasharray:1.0,2.0;" x1="1089.6" x2="1168.8" y1="545.0484" y2="545.0484"/><ellipse cx="952.8" cy="594.1391" fill="#84BE84" rx="2.4" ry="2.4" style="stroke:#038048;stroke-width:0.8000000000000002;"/><text fill="#000000" font-family="sans-serif" font-size="11.2" lengthAdjust="spacing" textLength="204.8" x="960" y="597.5766">char[] lireFichierCarte(string nomFichier)</text><line style="stroke:#181818;stroke-width:0.8000000000000002;stroke-dasharray:1.0,2.0;" x1="944.8" x2="1032" y1="578.0422" y2="578.0422"/><text fill="#000000" font-family="sans-serif" font-size="11.2" lengthAdjust="spacing" textLength="49.6" x="1032" y="582.2797">M&#233;thodes</text><line style="stroke:#181818;stroke-width:0.8000000000000002;stroke-dasharray:1.0,2.0;" x1="1081.6" x2="1168.8" y1="578.0422" y2="578.0422"/></g><!--class Resources--><g id="elem_Resources"><rect codeLine="100" fill="#F1F1F1" height="94.7875" id="Resources" rx="2" ry="2" style="stroke:#181818;stroke-width:0.4000000000000001;" width="161.6" x="976" y="673.6"/><ellipse cx="1026.2" cy="686.4" fill="#ADD1B2" rx="8.8" ry="8.8" style="stroke:#181818;stroke-width:0.8000000000000002;"/><path d="M1028.4125,683.1 Q1028.5375,682.925 1028.6875,682.8375 Q1028.8375,682.75 1029.0125,682.75 Q1029.3125,682.75 1029.5,682.9625 Q1029.6875,683.1625 1029.6875,683.65 L1029.6875,684.8125 Q1029.6875,685.3 1029.5,685.5125 Q1029.3125,685.725 1029.0125,685.725 Q1028.7375,685.725 1028.575,685.5625 Q1028.4125,685.4125 1028.325,685 Q1028.2875,684.7125 1028.1375,684.5625 Q1027.875,684.2625 1027.3875,684.0875 Q1026.9,683.9125 1026.4,683.9125 Q1025.7875,683.9125 1025.275,684.175 Q1024.775,684.4375 1024.375,685.0375 Q1023.9875,685.6375 1023.9875,686.4625 L1023.9875,687.3375 Q1023.9875,688.325 1024.7,688.9875 Q1025.4125,689.6375 1026.6875,689.6375 Q1027.4375,689.6375 1027.9625,689.4375 Q1028.275,689.3125 1028.6125,688.9625 Q1028.825,688.75 1028.9375,688.6875 Q1029.0625,688.625 1029.225,688.625 Q1029.4875,688.625 1029.6875,688.8375 Q1029.9,689.0375 1029.9,689.3125 Q1029.9,689.5875 1029.625,689.9125 Q1029.225,690.375 1028.5875,690.6375 Q1027.725,691 1026.6875,691 Q1025.475,691 1024.5125,690.5 Q1023.725,690.1 1023.175,689.25 Q1022.625,688.3875 1022.625,687.3625 L1022.625,686.4375 Q1022.625,685.375 1023.1125,684.4625 Q1023.6125,683.5375 1024.4875,683.05 Q1025.3625,682.55 1026.35,682.55 Q1026.9375,682.55 1027.45,682.6875 Q1027.975,682.8125 1028.4125,683.1 Z " fill="#000000"/><text fill="#000000" font-family="sans-serif" font-size="11.2" lengthAdjust="spacing" textLength="54.4" x="1042.6" y="691.0375">Resources</text><line style="stroke:#181818;stroke-width:0.4000000000000001;" x1="976.8" x2="1136.8" y1="699.2" y2="699.2"/><rect fill="none" height="4.8" style="stroke:#C82930;stroke-width:0.8000000000000002;" width="4.8" x="982.4" y="708.6484"/><text fill="#000000" font-family="sans-serif" font-size="11.2" lengthAdjust="spacing" text-decoration="underline" textLength="136.8" x="992" y="714.4859">Map&lt;String, Image&gt; assets</text><ellipse cx="984.8" cy="744.0422" fill="#84BE84" rx="2.4" ry="2.4" style="stroke:#038048;stroke-width:0.8000000000000002;"/><text fill="#000000" font-family="sans-serif" font-size="11.2" lengthAdjust="spacing" text-decoration="underline" textLength="104" x="992" y="747.4797">URL get(String path)</text><ellipse cx="984.8" cy="758.9391" fill="#84BE84" rx="2.4" ry="2.4" style="stroke:#038048;stroke-width:0.8000000000000002;"/><text fill="#000000" font-family="sans-serif" font-size="11.2" lengthAdjust="spacing" text-decoration="underline" textLength="140.8" x="992" y="762.3766">Image getAsset(String path)</text><line style="stroke:#181818;stroke-width:0.8000000000000002;stroke-dasharray:1.0,2.0;" x1="976.8" x2="1032" y1="727.9453" y2="727.9453"/><text fill="#000000" font-family="sans-serif" font-size="11.2" lengthAdjust="spacing" textLength="49.6" x="1032" y="732.1828">M&#233;thodes</text><line style="stroke:#181818;stroke-width:0.8000000000000002;stroke-dasharray:1.0,2.0;" x1="1081.6" x2="1136.8" y1="727.9453" y2="727.9453"/></g><!--class Application--><g id="elem_Application"><rect codeLine="109" fill="#F1F1F1" height="38.4" id="Application" rx="2" ry="2" style="stroke:#181818;stroke-width:0.4000000000000001;" width="80.8" x="630.8" y="5.6"/><ellipse cx="642.8" cy="18.4" fill="#ADD1B2" rx="8.8" ry="8.8" style="stroke:#181818;stroke-width:0.8000000000000002;"/><path d="M645.0125,15.1 Q645.1375,14.925 645.2875,14.8375 Q645.4375,14.75 645.6125,14.75 Q645.9125,14.75 646.1,14.9625 Q646.2875,15.1625 646.2875,15.65 L646.2875,16.8125 Q646.2875,17.3 646.1,17.5125 Q645.9125,17.725 645.6125,17.725 Q645.3375,17.725 645.175,17.5625 Q645.0125,17.4125 644.925,17 Q644.8875,16.7125 644.7375,16.5625 Q644.475,16.2625 643.9875,16.0875 Q643.5,15.9125 643,15.9125 Q642.3875,15.9125 641.875,16.175 Q641.375,16.4375 640.975,17.0375 Q640.5875,17.6375 640.5875,18.4625 L640.5875,19.3375 Q640.5875,20.325 641.3,20.9875 Q642.0125,21.6375 643.2875,21.6375 Q644.0375,21.6375 644.5625,21.4375 Q644.875,21.3125 645.2125,20.9625 Q645.425,20.75 645.5375,20.6875 Q645.6625,20.625 645.825,20.625 Q646.0875,20.625 646.2875,20.8375 Q646.5,21.0375 646.5,21.3125 Q646.5,21.5875 646.225,21.9125 Q645.825,22.375 645.1875,22.6375 Q644.325,23 643.2875,23 Q642.075,23 641.1125,22.5 Q640.325,22.1 639.775,21.25 Q639.225,20.3875 639.225,19.3625 L639.225,18.4375 Q639.225,17.375 639.7125,16.4625 Q640.2125,15.5375 641.0875,15.05 Q641.9625,14.55 642.95,14.55 Q643.5375,14.55 644.05,14.6875 Q644.575,14.8125 645.0125,15.1 Z " fill="#000000"/><text fill="#000000" font-family="sans-serif" font-size="11.2" lengthAdjust="spacing" textLength="55.2" x="654" y="23.0375">Application</text><line style="stroke:#181818;stroke-width:0.4000000000000001;" x1="631.6" x2="710.8" y1="31.2" y2="31.2"/><line style="stroke:#181818;stroke-width:0.4000000000000001;" x1="631.6" x2="710.8" y1="37.6" y2="37.6"/></g><!--link Escape to Monde--><g id="link_Escape_Monde"><path codeLine="111" d="M671.2,172.224 C671.2,186.288 671.2,202.88 671.2,219.904 " fill="none" id="Escape-Monde" style="stroke:#181818;stroke-width:0.8000000000000002;"/><text fill="#000000" font-family="sans-serif" font-size="10.4" lengthAdjust="spacing" textLength="5.6" x="665.4381" y="210.8574">1</text></g><!--reverse link ElementMonde to Personnage--><g id="link_ElementMonde_Personnage"><path codeLine="112" d="M501.392,554.4 C510.624,554.4 505.456,554.4 514.696,554.4 " fill="none" id="ElementMonde-backto-Personnage" style="stroke:#181818;stroke-width:0.8000000000000002;"/><polygon fill="none" points="486.992,554.4,501.392,559.2,501.392,549.6,486.992,554.4" style="stroke:#181818;stroke-width:0.8000000000000002;"/></g><!--reverse link Personnage to Heros--><g id="link_Personnage_Heros"><path codeLine="113" d="M570.1025,626.7676 C545.1025,644.4636 530.088,655.096 506.528,671.776 " fill="none" id="Personnage-backto-Heros" style="stroke:#181818;stroke-width:0.8000000000000002;"/><polygon fill="none" points="581.856,618.448,567.3293,622.8498,572.8757,630.6854,581.856,618.448" style="stroke:#181818;stroke-width:0.8000000000000002;"/></g><!--reverse link Personnage to Monstre--><g id="link_Personnage_Monstre"><path codeLine="114" d="M708.9034,631.3519 C720.7274,655.2239 727.28,668.464 737.072,688.24 " fill="none" id="Personnage-backto-Monstre" style="stroke:#181818;stroke-width:0.8000000000000002;"/><polygon fill="none" points="702.512,618.448,704.6021,633.4823,713.2047,629.2214,702.512,618.448" style="stroke:#181818;stroke-width:0.8000000000000002;"/></g><!--reverse link Monstre to Walker--><g id="link_Monstre_Walker"><path codeLine="115" d="M752.8,767.872 C752.8,787.432 752.8,797.992 752.8,817.512 " fill="none" id="Monstre-backto-Walker" style="stroke:#181818;stroke-width:0.8000000000000002;"/><polygon fill="none" points="752.8,753.472,748,767.872,757.6,767.872,752.8,753.472" style="stroke:#181818;stroke-width:0.8000000000000002;"/></g><!--link Terrain to ElementMonde--><g id="link_Terrain_ElementMonde"><path codeLine="117" d="M357.504,554.4 C366.704,554.4 361.504,554.4 370.704,554.4 " fill="none" id="Terrain-to-ElementMonde" style="stroke:#181818;stroke-width:0.8000000000000002;"/><polygon fill="none" points="385.104,554.4,370.704,549.6,370.704,559.2,385.104,554.4" style="stroke:#181818;stroke-width:0.8000000000000002;"/></g><!--reverse link Terrain to Mur--><g id="link_Terrain_Mur"><path codeLine="118" d="M199.2717,623.9964 C189.8557,643.7964 185.528,652.88 176.448,671.976 " fill="none" id="Terrain-backto-Mur" style="stroke:#181818;stroke-width:0.8000000000000002;"/><polygon fill="none" points="205.456,610.992,194.9369,621.935,203.6065,626.0578,205.456,610.992" style="stroke:#181818;stroke-width:0.8000000000000002;"/></g><!--reverse link Application to Escape--><g id="link_Application_Escape"><path codeLine="119" d="M671.2,58.64 C671.2,71.84 671.2,75.64 671.2,91.976 " fill="none" id="Application-backto-Escape" style="stroke:#181818;stroke-width:0.8000000000000002;"/><polygon fill="none" points="671.2,44.24,666.4,58.64,676,58.64,671.2,44.24" style="stroke:#181818;stroke-width:0.8000000000000002;"/></g><!--link Monde to Personnage--><g id="link_Monde_Personnage"><path codeLine="122" d="M671.2,437.128 C671.2,455.32 671.2,473.656 671.2,490.232 " fill="none" id="Monde-Personnage" style="stroke:#181818;stroke-width:0.8000000000000002;"/><text fill="#000000" font-family="sans-serif" font-size="10.4" lengthAdjust="spacing" textLength="4" x="667.0156" y="481.3331">*</text></g><!--link Monde to Terrain--><g id="link_Monde_Terrain"><path codeLine="123" d="M513.768,429.784 C509.16,432.2 504.56,434.544 500,436.8 C445.232,463.864 427.28,460.568 371.2,484.8 C361.672,488.92 351.864,493.352 342.072,497.912 " fill="none" id="Monde-Terrain" style="stroke:#181818;stroke-width:0.8000000000000002;"/><text fill="#000000" font-family="sans-serif" font-size="10.4" lengthAdjust="spacing" textLength="4" x="349.2169" y="489.0157">*</text></g><!--link Monde to GestionFichier--><g id="link_Monde_GestionFichier"><path codeLine="126" d="M828.592,420.792 C878.472,449.824 931.616,480.752 974.064,505.456 " fill="none" id="Monde-GestionFichier" style="stroke:#181818;stroke-width:0.8000000000000002;"/><text fill="#000000" font-family="sans-serif" font-size="10.4" lengthAdjust="spacing" textLength="5.6" x="958.5739" y="496.6243">1</text></g><!--reverse link GestionFichier to Resources--><!--reverse link Donnees to GestionFichier--><!--link TypeMouvement to Monde--><!--SRC=[jLRDRk8m4BxxAQpkOM5BaBhd5H8gj211gTXK7AggCiaKeWOxiXrKrEq3zJdwOcl7pez3A6ZLlIJO_ZpppSmt4n8IF9CLuA48I0Al266SsAqfeo7WLxM3CLaAoKaWSH0J8V0mXWrGMKLW_0q_nOn8_59RxufrH2LUarH2ofszcF1LkTVjNZAgtAM11dQxTllS46grKRRnriJB1yv9H0jA1qrPOCioxkHKErMEdIgvTc5o-l4krom4KR6tP2m6GZ48wNEo1Ix8CgvmpLw6upJbn_afqF_dPgar9V9MeHYbMWRrycuZ2KB0iGXA2otDzCKGtZcy6oAorZ-FQCkY48SVxqbC0k0jVvV0bANRJ9DOLbVjfYpSqH5m9ieCw1VGT8CTItdW6C_7roE_M4s6L-N2dzqMlmUpnSr-lJDVnojkA7rvgew5NQlxD2C79mZK0F-Ti9EZ1OcVuOIsCBWlSbgVNXfDbvDeHQ6sTydYKsVJARK8M1n78cAqvSnHkEYuWnL-jbrvu1N8QWtBNe2i5VHLStvIIsHNIHZQOQXksV7PWAcqSsKs93LWceH4me18KcSOh7M5-2NX4bg_9O_e2WTwqIwcULOS-tt9laQsDYgPYfJDupb-5PB8A7WpTZTwYXjxzmzO-H1jL76hi5ogSqrMw6SxTvH_vMQfZEAyFuttWOeEeEnPnwlbVjsV3X_ziJyPDe6qR1RZ6pKG7WV3g_xTn7yS3PqXyZbuCHxueuFOsNmoE6OlmvHc7E5Vgs6Wr7SL1UkeqdK7rQsjktUAwZPBNL_G1LSLYICEzfAflJ3vesnZjniwSmw2fJnmIk2L0Kv9yikKeOF76rN47bQtG8gZf0eJT_E9RgPSYGcHwtOJBZElaNtjO1zkTAl86-Bz98cZWEXC8MH4tBLQzZnyTd5cbTtD6jmyKQMVl1YUfFUdvym1P7hVInDzKg9HFgptJ-myjGSMXr3UtnwFLkjzF_gVYRrYaVKOpA4J9TgFA8lrnrcLq65GxkcW8PKqLtm8VSTFJCb3JVqTIoKgvUBThwCm1FgWYFRgrsgoTx6svv4xE0kCILYlgNpeBm00]--></g></svg>