<?xml version="1.0" encoding="us-ascii" standalone="no"?><svg xmlns="http://www.w3.org/2000/svg" xmlns:xlink="http://www.w3.org/1999/xlink" contentStyleType="text/css" height="682px" preserveAspectRatio="none" style="width:890px;height:682px;background:#FFFFFF;" version="1.1" viewBox="0 0 890 682" width="890px" zoomAndPan="magnify"><defs/><g><!--cluster Escape--><g id="cluster_Escape"><path d="M8.5,6.0137 L60.5,6.0137 A3.75,3.75 0 0 1 63,8.5137 L70,30.6348 L880.5,30.6348 A2.5,2.5 0 0 1 883,33.1348 L883,672.5137 A2.5,2.5 0 0 1 880.5,675.0137 L8.5,675.0137 A2.5,2.5 0 0 1 6,672.5137 L6,8.5137 A2.5,2.5 0 0 1 8.5,6.0137 " fill="none" style="stroke:#000000;stroke-width:1.5;"/><line style="stroke:#000000;stroke-width:1.5;" x1="6" x2="70" y1="30.6348" y2="30.6348"/><text fill="#000000" font-family="sans-serif" font-size="14" font-weight="bold" lengthAdjust="spacing" textLength="51" x="10" y="23.1211">Escape</text></g><!--cluster Outils--><g id="cluster_Outils"><path d="M32.5,51.0137 L74.5,51.0137 A3.75,3.75 0 0 1 77,53.5137 L84,75.6348 L856.5,75.6348 A2.5,2.5 0 0 1 859,78.1348 L859,648.5137 A2.5,2.5 0 0 1 856.5,651.0137 L32.5,651.0137 A2.5,2.5 0 0 1 30,648.5137 L30,53.5137 A2.5,2.5 0 0 1 32.5,51.0137 " fill="none" style="stroke:#000000;stroke-width:1.5;"/><line style="stroke:#000000;stroke-width:1.5;" x1="30" x2="84" y1="75.6348" y2="75.6348"/><text fill="#000000" font-family="sans-serif" font-size="14" font-weight="bold" lengthAdjust="spacing" textLength="41" x="34" y="68.1211">Outils</text></g><!--class Donnees--><g id="elem_Donnees"><rect codeLine="3" fill="#F1F1F1" height="155.7266" id="Donnees" rx="2.5" ry="2.5" style="stroke:#181818;stroke-width:0.5;" width="266" x="46" y="136.5137"/><ellipse cx="146.25" cy="152.5137" fill="#ADD1B2" rx="11" ry="11" style="stroke:#181818;stroke-width:1.0;"/><path d="M149.0156,148.3887 Q149.1719,148.1699 149.3594,148.0605 Q149.5469,147.9512 149.7656,147.9512 Q150.1406,147.9512 150.375,148.2168 Q150.6094,148.4668 150.6094,149.0762 L150.6094,150.5293 Q150.6094,151.1387 150.375,151.4043 Q150.1406,151.6699 149.7656,151.6699 Q149.4219,151.6699 149.2188,151.4668 Q149.0156,151.2793 148.9063,150.7637 Q148.8594,150.4043 148.6719,150.2168 Q148.3438,149.8418 147.7344,149.623 Q147.125,149.4043 146.5,149.4043 Q145.7344,149.4043 145.0938,149.7324 Q144.4688,150.0605 143.9688,150.8105 Q143.4844,151.5605 143.4844,152.5918 L143.4844,153.6855 Q143.4844,154.9199 144.375,155.748 Q145.2656,156.5605 146.8594,156.5605 Q147.7969,156.5605 148.4531,156.3105 Q148.8438,156.1543 149.2656,155.7168 Q149.5313,155.4512 149.6719,155.373 Q149.8281,155.2949 150.0313,155.2949 Q150.3594,155.2949 150.6094,155.5605 Q150.875,155.8105 150.875,156.1543 Q150.875,156.498 150.5313,156.9043 Q150.0313,157.4824 149.2344,157.8105 Q148.1563,158.2637 146.8594,158.2637 Q145.3438,158.2637 144.1406,157.6387 Q143.1563,157.1387 142.4688,156.0762 Q141.7813,154.998 141.7813,153.7168 L141.7813,152.5605 Q141.7813,151.2324 142.3906,150.0918 Q143.0156,148.9355 144.1094,148.3262 Q145.2031,147.7012 146.4375,147.7012 Q147.1719,147.7012 147.8125,147.873 Q148.4688,148.0293 149.0156,148.3887 Z " fill="#000000"/><text fill="#000000" font-family="sans-serif" font-size="14" lengthAdjust="spacing" textLength="57" x="166.75" y="158.3105">Donnees</text><line style="stroke:#181818;stroke-width:0.5;" x1="47" x2="311" y1="168.5137" y2="168.5137"/><ellipse cx="57" cy="183.3242" fill="none" rx="3" ry="3" style="stroke:#038048;stroke-width:1.0;"/><text fill="#000000" font-family="sans-serif" font-size="14" lengthAdjust="spacing" text-decoration="underline" textLength="170" x="66" y="187.6211">String APPDATA_FOLDER</text><ellipse cx="57" cy="201.9453" fill="none" rx="3" ry="3" style="stroke:#038048;stroke-width:1.0;"/><text fill="#000000" font-family="sans-serif" font-size="14" lengthAdjust="spacing" text-decoration="underline" textLength="103" x="66" y="206.2422">boolean DEBUG</text><ellipse cx="57" cy="220.5664" fill="none" rx="3" ry="3" style="stroke:#038048;stroke-width:1.0;"/><text fill="#000000" font-family="sans-serif" font-size="14" lengthAdjust="spacing" text-decoration="underline" textLength="240" x="66" y="224.8633">Set&lt;Locale&gt; SUPPORTED_LOCALES</text><text fill="#000000" font-family="sans-serif" font-size="14" lengthAdjust="spacing" textLength="12" x="66" y="243.4844">...</text><rect fill="#F24D5C" height="6" style="stroke:#C82930;stroke-width:1.0;" width="6" x="54" y="277.4297"/><text fill="#000000" font-family="sans-serif" font-size="14" lengthAdjust="spacing" textLength="67" x="66" y="284.7266">Donnees()</text><line style="stroke:#181818;stroke-width:1.0;stroke-dasharray:1.0,2.0;" x1="47" x2="138" y1="260.3086" y2="260.3086"/><text fill="#000000" font-family="sans-serif" font-size="14" lengthAdjust="spacing" textLength="82" x="138" y="265.6055">Constructeur</text><line style="stroke:#181818;stroke-width:1.0;stroke-dasharray:1.0,2.0;" x1="220" x2="311" y1="260.3086" y2="260.3086"/></g><!--class Resources--><g id="elem_Resources"><rect codeLine="12" fill="#F1F1F1" height="252.832" id="Resources" rx="2.5" ry="2.5" style="stroke:#181818;stroke-width:0.5;" width="279" x="347.5" y="88.0137"/><ellipse cx="448.75" cy="104.0137" fill="#ADD1B2" rx="11" ry="11" style="stroke:#181818;stroke-width:1.0;"/><path d="M451.5156,99.8887 Q451.6719,99.6699 451.8594,99.5605 Q452.0469,99.4512 452.2656,99.4512 Q452.6406,99.4512 452.875,99.7168 Q453.1094,99.9668 453.1094,100.5762 L453.1094,102.0293 Q453.1094,102.6387 452.875,102.9043 Q452.6406,103.1699 452.2656,103.1699 Q451.9219,103.1699 451.7188,102.9668 Q451.5156,102.7793 451.4063,102.2637 Q451.3594,101.9043 451.1719,101.7168 Q450.8438,101.3418 450.2344,101.123 Q449.625,100.9043 449,100.9043 Q448.2344,100.9043 447.5938,101.2324 Q446.9688,101.5605 446.4688,102.3105 Q445.9844,103.0605 445.9844,104.0918 L445.9844,105.1855 Q445.9844,106.4199 446.875,107.248 Q447.7656,108.0605 449.3594,108.0605 Q450.2969,108.0605 450.9531,107.8105 Q451.3438,107.6543 451.7656,107.2168 Q452.0313,106.9512 452.1719,106.873 Q452.3281,106.7949 452.5313,106.7949 Q452.8594,106.7949 453.1094,107.0605 Q453.375,107.3105 453.375,107.6543 Q453.375,107.998 453.0313,108.4043 Q452.5313,108.9824 451.7344,109.3105 Q450.6563,109.7637 449.3594,109.7637 Q447.8438,109.7637 446.6406,109.1387 Q445.6563,108.6387 444.9688,107.5762 Q444.2813,106.498 444.2813,105.2168 L444.2813,104.0605 Q444.2813,102.7324 444.8906,101.5918 Q445.5156,100.4355 446.6094,99.8262 Q447.7031,99.2012 448.9375,99.2012 Q449.6719,99.2012 450.3125,99.373 Q450.9688,99.5293 451.5156,99.8887 Z " fill="#000000"/><text fill="#000000" font-family="sans-serif" font-size="14" lengthAdjust="spacing" textLength="68" x="469.25" y="109.8105">Resources</text><line style="stroke:#181818;stroke-width:0.5;" x1="348.5" x2="625.5" y1="120.0137" y2="120.0137"/><rect fill="none" height="6" style="stroke:#C82930;stroke-width:1.0;" width="6" x="355.5" y="131.8242"/><text fill="#000000" font-family="sans-serif" font-size="14" lengthAdjust="spacing" text-decoration="underline" textLength="171" x="367.5" y="139.1211">Map&lt;String, Image&gt; assets</text><rect fill="#F24D5C" height="6" style="stroke:#C82930;stroke-width:1.0;" width="6" x="355.5" y="173.0664"/><text fill="#000000" font-family="sans-serif" font-size="14" lengthAdjust="spacing" textLength="78" x="367.5" y="180.3633">Resources()</text><line style="stroke:#181818;stroke-width:1.0;stroke-dasharray:1.0,2.0;" x1="348.5" x2="446" y1="155.9453" y2="155.9453"/><text fill="#000000" font-family="sans-serif" font-size="14" lengthAdjust="spacing" textLength="82" x="446" y="161.2422">Constructeur</text><line style="stroke:#181818;stroke-width:1.0;stroke-dasharray:1.0,2.0;" x1="528" x2="625.5" y1="155.9453" y2="155.9453"/><ellipse cx="358.5" cy="217.3086" fill="#84BE84" rx="3" ry="3" style="stroke:#038048;stroke-width:1.0;"/><text fill="#000000" font-family="sans-serif" font-size="14" lengthAdjust="spacing" text-decoration="underline" textLength="98" x="367.5" y="221.6055">URL get(String)</text><ellipse cx="358.5" cy="235.9297" fill="#84BE84" rx="3" ry="3" style="stroke:#038048;stroke-width:1.0;"/><text fill="#000000" font-family="sans-serif" font-size="14" lengthAdjust="spacing" text-decoration="underline" textLength="208" x="367.5" y="240.2266">InputStream getAsStream(String)</text><ellipse cx="358.5" cy="254.5508" fill="#84BE84" rx="3" ry="3" style="stroke:#038048;stroke-width:1.0;"/><text fill="#000000" font-family="sans-serif" font-size="14" lengthAdjust="spacing" text-decoration="underline" textLength="144" x="367.5" y="258.8477">Image getAsset(String)</text><ellipse cx="358.5" cy="273.1719" fill="#84BE84" rx="3" ry="3" style="stroke:#038048;stroke-width:1.0;"/><text fill="#000000" font-family="sans-serif" font-size="14" lengthAdjust="spacing" text-decoration="underline" textLength="253" x="367.5" y="277.4688">ResourceBundle getI18NBundle(Locale)</text><ellipse cx="358.5" cy="291.793" fill="#84BE84" rx="3" ry="3" style="stroke:#038048;stroke-width:1.0;"/><text fill="#000000" font-family="sans-serif" font-size="14" lengthAdjust="spacing" text-decoration="underline" textLength="211" x="367.5" y="296.0898">ResourceBundle getI18NBundle()</text><ellipse cx="358.5" cy="310.4141" fill="#84BE84" rx="3" ry="3" style="stroke:#038048;stroke-width:1.0;"/><text fill="#000000" font-family="sans-serif" font-size="14" lengthAdjust="spacing" text-decoration="underline" textLength="223" x="367.5" y="314.7109">String getI18NString(String, Locale)</text><ellipse cx="358.5" cy="329.0352" fill="#84BE84" rx="3" ry="3" style="stroke:#038048;stroke-width:1.0;"/><text fill="#000000" font-family="sans-serif" font-size="14" lengthAdjust="spacing" text-decoration="underline" textLength="173" x="367.5" y="333.332">String getI18NString(String)</text><line style="stroke:#181818;stroke-width:1.0;stroke-dasharray:1.0,2.0;" x1="348.5" x2="456" y1="197.1875" y2="197.1875"/><text fill="#000000" font-family="sans-serif" font-size="14" lengthAdjust="spacing" textLength="62" x="456" y="202.4844">M&#233;thodes</text><line style="stroke:#181818;stroke-width:1.0;stroke-dasharray:1.0,2.0;" x1="518" x2="625.5" y1="197.1875" y2="197.1875"/></g><!--class FabriqueId--><g id="elem_FabriqueId"><rect codeLine="26" fill="#F1F1F1" height="178.3477" id="FabriqueId" rx="2.5" ry="2.5" style="stroke:#181818;stroke-width:0.5;" width="181" x="661.5" y="125.5137"/><ellipse cx="713.75" cy="141.5137" fill="#ADD1B2" rx="11" ry="11" style="stroke:#181818;stroke-width:1.0;"/><path d="M716.5156,137.3887 Q716.6719,137.1699 716.8594,137.0605 Q717.0469,136.9512 717.2656,136.9512 Q717.6406,136.9512 717.875,137.2168 Q718.1094,137.4668 718.1094,138.0762 L718.1094,139.5293 Q718.1094,140.1387 717.875,140.4043 Q717.6406,140.6699 717.2656,140.6699 Q716.9219,140.6699 716.7188,140.4668 Q716.5156,140.2793 716.4063,139.7637 Q716.3594,139.4043 716.1719,139.2168 Q715.8438,138.8418 715.2344,138.623 Q714.625,138.4043 714,138.4043 Q713.2344,138.4043 712.5938,138.7324 Q711.9688,139.0605 711.4688,139.8105 Q710.9844,140.5605 710.9844,141.5918 L710.9844,142.6855 Q710.9844,143.9199 711.875,144.748 Q712.7656,145.5605 714.3594,145.5605 Q715.2969,145.5605 715.9531,145.3105 Q716.3438,145.1543 716.7656,144.7168 Q717.0313,144.4512 717.1719,144.373 Q717.3281,144.2949 717.5313,144.2949 Q717.8594,144.2949 718.1094,144.5605 Q718.375,144.8105 718.375,145.1543 Q718.375,145.498 718.0313,145.9043 Q717.5313,146.4824 716.7344,146.8105 Q715.6563,147.2637 714.3594,147.2637 Q712.8438,147.2637 711.6406,146.6387 Q710.6563,146.1387 709.9688,145.0762 Q709.2813,143.998 709.2813,142.7168 L709.2813,141.5605 Q709.2813,140.2324 709.8906,139.0918 Q710.5156,137.9355 711.6094,137.3262 Q712.7031,136.7012 713.9375,136.7012 Q714.6719,136.7012 715.3125,136.873 Q715.9688,137.0293 716.5156,137.3887 Z " fill="#000000"/><text fill="#000000" font-family="sans-serif" font-size="14" lengthAdjust="spacing" textLength="68" x="734.25" y="147.3105">FabriqueId</text><line style="stroke:#181818;stroke-width:0.5;" x1="662.5" x2="841.5" y1="157.5137" y2="157.5137"/><rect fill="none" height="6" style="stroke:#C82930;stroke-width:1.0;" width="6" x="669.5" y="169.3242"/><text fill="#000000" font-family="sans-serif" font-size="14" lengthAdjust="spacing" text-decoration="underline" textLength="125" x="681.5" y="176.6211">FabriqueId instance</text><rect fill="none" height="6" style="stroke:#C82930;stroke-width:1.0;" width="6" x="669.5" y="187.9453"/><text fill="#000000" font-family="sans-serif" font-size="14" lengthAdjust="spacing" textLength="30" x="681.5" y="195.2422">int id</text><rect fill="#F24D5C" height="6" style="stroke:#C82930;stroke-width:1.0;" width="6" x="669.5" y="229.1875"/><text fill="#000000" font-family="sans-serif" font-size="14" lengthAdjust="spacing" textLength="78" x="681.5" y="236.4844">FabriqueId()</text><line style="stroke:#181818;stroke-width:1.0;stroke-dasharray:1.0,2.0;" x1="662.5" x2="711" y1="212.0664" y2="212.0664"/><text fill="#000000" font-family="sans-serif" font-size="14" lengthAdjust="spacing" textLength="82" x="711" y="217.3633">Constructeur</text><line style="stroke:#181818;stroke-width:1.0;stroke-dasharray:1.0,2.0;" x1="793" x2="841.5" y1="212.0664" y2="212.0664"/><ellipse cx="672.5" cy="273.4297" fill="#84BE84" rx="3" ry="3" style="stroke:#038048;stroke-width:1.0;"/><text fill="#000000" font-family="sans-serif" font-size="14" lengthAdjust="spacing" text-decoration="underline" textLength="155" x="681.5" y="277.7266">FabriqueId getInstance()</text><ellipse cx="672.5" cy="292.0508" fill="#84BE84" rx="3" ry="3" style="stroke:#038048;stroke-width:1.0;"/><text fill="#000000" font-family="sans-serif" font-size="14" lengthAdjust="spacing" textLength="60" x="681.5" y="296.3477">int getId()</text><line style="stroke:#181818;stroke-width:1.0;stroke-dasharray:1.0,2.0;" x1="662.5" x2="721" y1="253.3086" y2="253.3086"/><text fill="#000000" font-family="sans-serif" font-size="14" lengthAdjust="spacing" textLength="62" x="721" y="258.6055">M&#233;thodes</text><line style="stroke:#181818;stroke-width:1.0;stroke-dasharray:1.0,2.0;" x1="783" x2="841.5" y1="253.3086" y2="253.3086"/></g><!--class ErrorBehavior--><g id="elem_ErrorBehavior"><rect codeLine="37" fill="#F1F1F1" height="99.8633" id="ErrorBehavior" rx="2.5" ry="2.5" style="stroke:#181818;stroke-width:0.5;" width="215" x="71.5" y="468.0137"/><ellipse cx="130.75" cy="484.0137" fill="#ADD1B2" rx="11" ry="11" style="stroke:#181818;stroke-width:1.0;"/><path d="M133.5156,479.8887 Q133.6719,479.6699 133.8594,479.5605 Q134.0469,479.4512 134.2656,479.4512 Q134.6406,479.4512 134.875,479.7168 Q135.1094,479.9668 135.1094,480.5762 L135.1094,482.0293 Q135.1094,482.6387 134.875,482.9043 Q134.6406,483.1699 134.2656,483.1699 Q133.9219,483.1699 133.7188,482.9668 Q133.5156,482.7793 133.4063,482.2637 Q133.3594,481.9043 133.1719,481.7168 Q132.8438,481.3418 132.2344,481.123 Q131.625,480.9043 131,480.9043 Q130.2344,480.9043 129.5938,481.2324 Q128.9688,481.5605 128.4688,482.3105 Q127.9844,483.0605 127.9844,484.0918 L127.9844,485.1855 Q127.9844,486.4199 128.875,487.248 Q129.7656,488.0605 131.3594,488.0605 Q132.2969,488.0605 132.9531,487.8105 Q133.3438,487.6543 133.7656,487.2168 Q134.0313,486.9512 134.1719,486.873 Q134.3281,486.7949 134.5313,486.7949 Q134.8594,486.7949 135.1094,487.0605 Q135.375,487.3105 135.375,487.6543 Q135.375,487.998 135.0313,488.4043 Q134.5313,488.9824 133.7344,489.3105 Q132.6563,489.7637 131.3594,489.7637 Q129.8438,489.7637 128.6406,489.1387 Q127.6563,488.6387 126.9688,487.5762 Q126.2813,486.498 126.2813,485.2168 L126.2813,484.0605 Q126.2813,482.7324 126.8906,481.5918 Q127.5156,480.4355 128.6094,479.8262 Q129.7031,479.2012 130.9375,479.2012 Q131.6719,479.2012 132.3125,479.373 Q132.9688,479.5293 133.5156,479.8887 Z " fill="#000000"/><text fill="#000000" font-family="sans-serif" font-size="14" lengthAdjust="spacing" textLength="88" x="151.25" y="489.8105">ErrorBehavior</text><line style="stroke:#181818;stroke-width:0.5;" x1="72.5" x2="285.5" y1="500.0137" y2="500.0137"/><ellipse cx="82.5" cy="537.4453" fill="#84BE84" rx="3" ry="3" style="stroke:#038048;stroke-width:1.0;"/><text fill="#000000" font-family="sans-serif" font-size="14" lengthAdjust="spacing" text-decoration="underline" textLength="189" x="91.5" y="541.7422">void handle(Exception, String)</text><ellipse cx="82.5" cy="556.0664" fill="#84BE84" rx="3" ry="3" style="stroke:#038048;stroke-width:1.0;"/><text fill="#000000" font-family="sans-serif" font-size="14" lengthAdjust="spacing" text-decoration="underline" textLength="181" x="91.5" y="560.3633">void crash(Exception, String)</text><line style="stroke:#181818;stroke-width:1.0;stroke-dasharray:1.0,2.0;" x1="72.5" x2="148" y1="517.3242" y2="517.3242"/><text fill="#000000" font-family="sans-serif" font-size="14" lengthAdjust="spacing" textLength="62" x="148" y="522.6211">M&#233;thodes</text><line style="stroke:#181818;stroke-width:1.0;stroke-dasharray:1.0,2.0;" x1="210" x2="285.5" y1="517.3242" y2="517.3242"/></g><!--class FileManager--><g id="elem_FileManager"><rect codeLine="43" fill="#F1F1F1" height="234.2109" id="FileManager" rx="2.5" ry="2.5" style="stroke:#181818;stroke-width:0.5;" width="388" x="322" y="401.0137"/><ellipse cx="472.25" cy="417.0137" fill="#ADD1B2" rx="11" ry="11" style="stroke:#181818;stroke-width:1.0;"/><path d="M475.0156,412.8887 Q475.1719,412.6699 475.3594,412.5605 Q475.5469,412.4512 475.7656,412.4512 Q476.1406,412.4512 476.375,412.7168 Q476.6094,412.9668 476.6094,413.5762 L476.6094,415.0293 Q476.6094,415.6387 476.375,415.9043 Q476.1406,416.1699 475.7656,416.1699 Q475.4219,416.1699 475.2188,415.9668 Q475.0156,415.7793 474.9063,415.2637 Q474.8594,414.9043 474.6719,414.7168 Q474.3438,414.3418 473.7344,414.123 Q473.125,413.9043 472.5,413.9043 Q471.7344,413.9043 471.0938,414.2324 Q470.4688,414.5605 469.9688,415.3105 Q469.4844,416.0605 469.4844,417.0918 L469.4844,418.1855 Q469.4844,419.4199 470.375,420.248 Q471.2656,421.0605 472.8594,421.0605 Q473.7969,421.0605 474.4531,420.8105 Q474.8438,420.6543 475.2656,420.2168 Q475.5313,419.9512 475.6719,419.873 Q475.8281,419.7949 476.0313,419.7949 Q476.3594,419.7949 476.6094,420.0605 Q476.875,420.3105 476.875,420.6543 Q476.875,420.998 476.5313,421.4043 Q476.0313,421.9824 475.2344,422.3105 Q474.1563,422.7637 472.8594,422.7637 Q471.3438,422.7637 470.1406,422.1387 Q469.1563,421.6387 468.4688,420.5762 Q467.7813,419.498 467.7813,418.2168 L467.7813,417.0605 Q467.7813,415.7324 468.3906,414.5918 Q469.0156,413.4355 470.1094,412.8262 Q471.2031,412.2012 472.4375,412.2012 Q473.1719,412.2012 473.8125,412.373 Q474.4688,412.5293 475.0156,412.8887 Z " fill="#000000"/><text fill="#000000" font-family="sans-serif" font-size="14" lengthAdjust="spacing" textLength="79" x="492.75" y="422.8105">FileManager</text><line style="stroke:#181818;stroke-width:0.5;" x1="323" x2="709" y1="433.0137" y2="433.0137"/><line style="stroke:#181818;stroke-width:0.5;" x1="323" x2="709" y1="441.0137" y2="441.0137"/><ellipse cx="333" cy="455.8242" fill="#84BE84" rx="3" ry="3" style="stroke:#038048;stroke-width:1.0;"/><text fill="#000000" font-family="sans-serif" font-size="14" lengthAdjust="spacing" text-decoration="underline" textLength="141" x="342" y="460.1211">boolean delete(String)</text><ellipse cx="333" cy="474.4453" fill="#84BE84" rx="3" ry="3" style="stroke:#038048;stroke-width:1.0;"/><text fill="#000000" font-family="sans-serif" font-size="14" lengthAdjust="spacing" text-decoration="underline" textLength="274" x="342" y="478.7422">boolean write(JSONObject, String, boolean)</text><ellipse cx="333" cy="493.0664" fill="#84BE84" rx="3" ry="3" style="stroke:#038048;stroke-width:1.0;"/><text fill="#000000" font-family="sans-serif" font-size="14" lengthAdjust="spacing" text-decoration="underline" textLength="238" x="342" y="497.3633">JSONObject readFile(String, boolean)</text><ellipse cx="333" cy="511.6875" fill="#84BE84" rx="3" ry="3" style="stroke:#038048;stroke-width:1.0;"/><text fill="#000000" font-family="sans-serif" font-size="14" lengthAdjust="spacing" text-decoration="underline" textLength="360" x="342" y="515.9844">Map&lt;String, JSONObject&gt; readDirectory(String, boolean)</text><ellipse cx="333" cy="530.3086" fill="#84BE84" rx="3" ry="3" style="stroke:#038048;stroke-width:1.0;"/><text fill="#000000" font-family="sans-serif" font-size="14" lengthAdjust="spacing" text-decoration="underline" textLength="240" x="342" y="534.6055">JSONObject readResourceFile(String)</text><ellipse cx="333" cy="548.9297" fill="#84BE84" rx="3" ry="3" style="stroke:#038048;stroke-width:1.0;"/><text fill="#000000" font-family="sans-serif" font-size="14" lengthAdjust="spacing" text-decoration="underline" textLength="362" x="342" y="553.2266">Map&lt;String, JSONObject&gt; readResourceDirectory(String)</text><rect fill="#F24D5C" height="6" style="stroke:#C82930;stroke-width:1.0;" width="6" x="330" y="564.5508"/><text fill="#000000" font-family="sans-serif" font-size="14" lengthAdjust="spacing" text-decoration="underline" textLength="213" x="342" y="571.8477">boolean writeString(String, String)</text><rect fill="#F24D5C" height="6" style="stroke:#C82930;stroke-width:1.0;" width="6" x="330" y="583.1719"/><text fill="#000000" font-family="sans-serif" font-size="14" lengthAdjust="spacing" text-decoration="underline" textLength="154" x="342" y="590.4688">String readString(String)</text><rect fill="#F24D5C" height="6" style="stroke:#C82930;stroke-width:1.0;" width="6" x="330" y="601.793"/><text fill="#000000" font-family="sans-serif" font-size="14" lengthAdjust="spacing" text-decoration="underline" textLength="228" x="342" y="609.0898">JSONObject readJSONString(String)</text><rect fill="#F24D5C" height="6" style="stroke:#C82930;stroke-width:1.0;" width="6" x="330" y="620.4141"/><text fill="#000000" font-family="sans-serif" font-size="14" lengthAdjust="spacing" text-decoration="underline" textLength="164" x="342" y="627.7109">SecretKey getSecretKey()</text></g><!--SRC=[dLJBRk8m5DttAxmCAaNgRXOLKcZIYcbe42bhP9mhS9lQ6TlfJ5NnGVCTysDZunY2KGZ5YoZNFkVwt9TBJDxm2b0i2Iu1VLqXlSfwCwqKBMIzQHOfi9Geuem1DFVDkaPVKc55oGPbIb2sGk5q6eKluU8XJQ9urWPUSbu0PYYAH_F7Le-WxX9ES053bCsdqtJs4aUB9BqFapWx80q60y- -vqmgKH45bV0ERrmiGM-tlxdomfs1v9KWHm7VxELDS7bdW-wZyRjEtH1f9YZv7IcxUnfYB6toxwzQynoansaaQ3vBq0fKO5Nqsc1ZLbPAOm2_6tWexNydpSHa2RBx4XV8g69viQMDRtyyMokmLRoCs-jek1fjhS0LfEF64zmJJV60buB-gc2SjtT50qDrtJ4Zu44fKuZctscIlSzBkgIXoCHRYphAgv5bplF3iV1I40l1nGZM-8DouMNXB3KVdEPeZRUbZVyGA1Nbh8ywkclB8WBBzIdISS5e0HFCT1-BzeVBlKKv5A2WgyyT-hUW6lmpIv_JvIiGvTJq7QBLmvw3z1ZcHcDmBhVvvkpz3BUE8YhqFnUVmOLAt1Ws55qanFdn1VNQPkOWfzuWTr3hGJRNjaonH_1YDkPvn0o80FK4dsPATiR1iDZlvZy0]--></g></svg>