<?xml version="1.0" encoding="us-ascii" standalone="no"?><svg xmlns="http://www.w3.org/2000/svg" xmlns:xlink="http://www.w3.org/1999/xlink" contentStyleType="text/css" height="1233px" preserveAspectRatio="none" style="width:2168px;height:1233px;background:#FFFFFF;" version="1.1" viewBox="0 0 2168 1233" width="2168px" zoomAndPan="magnify"><defs/><g><!--cluster engine--><g id="cluster_engine"><path d="M1546.5,290.74 L1596.5,290.74 A3.75,3.75 0 0 1 1599,293.24 L1606,315.3611 L2158.5,315.3611 A2.5,2.5 0 0 1 2161,317.8611 L2161,484.24 A2.5,2.5 0 0 1 2158.5,486.74 L1546.5,486.74 A2.5,2.5 0 0 1 1544,484.24 L1544,293.24 A2.5,2.5 0 0 1 1546.5,290.74 " fill="none" style="stroke:#000000;stroke-width:1.5;"/><line style="stroke:#000000;stroke-width:1.5;" x1="1544" x2="1606" y1="315.3611" y2="315.3611"/><text fill="#000000" font-family="sans-serif" font-size="14" font-weight="bold" lengthAdjust="spacing" textLength="49" x="1548" y="307.8474">engine</text></g><!--cluster cli--><g id="cluster_cli"><path d="M1553.5,42.24 L1570.5,42.24 A3.75,3.75 0 0 1 1573,44.74 L1580,66.8611 L2074.5,66.8611 A2.5,2.5 0 0 1 2077,69.3611 L2077,217.74 A2.5,2.5 0 0 1 2074.5,220.24 L1553.5,220.24 A2.5,2.5 0 0 1 1551,217.74 L1551,44.74 A2.5,2.5 0 0 1 1553.5,42.24 " fill="none" style="stroke:#000000;stroke-width:1.5;"/><line style="stroke:#000000;stroke-width:1.5;" x1="1551" x2="1580" y1="66.8611" y2="66.8611"/><text fill="#000000" font-family="sans-serif" font-size="14" font-weight="bold" lengthAdjust="spacing" textLength="16" x="1555" y="59.3474">cli</text></g><!--cluster gui--><g id="cluster_gui"><path d="M8.5,253.24 L31.5,253.24 A3.75,3.75 0 0 1 34,255.74 L41,277.8611 L1517.5,277.8611 A2.5,2.5 0 0 1 1520,280.3611 L1520,1223.74 A2.5,2.5 0 0 1 1517.5,1226.24 L8.5,1226.24 A2.5,2.5 0 0 1 6,1223.74 L6,255.74 A2.5,2.5 0 0 1 8.5,253.24 " fill="none" style="stroke:#000000;stroke-width:1.5;"/><line style="stroke:#000000;stroke-width:1.5;" x1="6" x2="41" y1="277.8611" y2="277.8611"/><text fill="#000000" font-family="sans-serif" font-size="14" font-weight="bold" lengthAdjust="spacing" textLength="22" x="10" y="270.3474">gui</text></g><!--cluster views--><g id="cluster_views"><path d="M32.5,555.24 L74.5,555.24 A3.75,3.75 0 0 1 77,557.74 L84,579.8611 L1493.5,579.8611 A2.5,2.5 0 0 1 1496,582.3611 L1496,786.74 A2.5,2.5 0 0 1 1493.5,789.24 L32.5,789.24 A2.5,2.5 0 0 1 30,786.74 L30,557.74 A2.5,2.5 0 0 1 32.5,555.24 " fill="none" style="stroke:#000000;stroke-width:1.5;"/><line style="stroke:#000000;stroke-width:1.5;" x1="30" x2="84" y1="579.8611" y2="579.8611"/><text fill="#000000" font-family="sans-serif" font-size="14" font-weight="bold" lengthAdjust="spacing" textLength="41" x="34" y="572.3474">views</text></g><!--cluster engine--><g id="cluster_engine"><path d="M1294.5,840.24 L1344.5,840.24 A3.75,3.75 0 0 1 1347,842.74 L1354,864.8611 L1493.5,864.8611 A2.5,2.5 0 0 1 1496,867.3611 L1496,1199.74 A2.5,2.5 0 0 1 1493.5,1202.24 L1294.5,1202.24 A2.5,2.5 0 0 1 1292,1199.74 L1292,842.74 A2.5,2.5 0 0 1 1294.5,840.24 " fill="none" style="stroke:#000000;stroke-width:1.5;"/><line style="stroke:#000000;stroke-width:1.5;" x1="1292" x2="1354" y1="864.8611" y2="864.8611"/><text fill="#000000" font-family="sans-serif" font-size="14" font-weight="bold" lengthAdjust="spacing" textLength="49" x="1296" y="857.3474">engine</text></g><!--class GameController--><g id="elem_GameController"><rect codeLine="3" fill="#F1F1F1" height="85.2422" id="GameController" rx="2.5" ry="2.5" style="stroke:#181818;stroke-width:0.5;" width="140" x="2005" y="367.24"/><ellipse cx="2023.6" cy="383.24" fill="#A9DCDF" rx="11" ry="11" style="stroke:#181818;stroke-width:1.0;"/><path d="M2025.7875,385.0056 L2021.6469,385.0056 L2021.225,386.0369 L2021.6469,386.0369 Q2022.2563,386.0369 2022.5219,386.2713 Q2022.7875,386.5056 2022.7875,386.8963 Q2022.7875,387.2713 2022.5219,387.5056 Q2022.2563,387.74 2021.6469,387.74 L2019.35,387.74 Q2018.7406,387.74 2018.4906,387.5056 Q2018.225,387.2713 2018.225,386.8806 Q2018.225,386.5056 2018.5063,386.2713 Q2018.7719,386.0213 2019.3969,386.0369 L2022.0688,379.3806 L2020.9594,379.3806 Q2020.35,379.3806 2020.0844,379.1463 Q2019.8188,378.9119 2019.8188,378.5213 Q2019.8188,378.1463 2020.0844,377.9119 Q2020.35,377.6775 2020.9594,377.6775 L2024.6313,377.6775 L2028.0219,386.0369 Q2028.6156,386.0369 2028.8031,386.1775 Q2029.1938,386.4431 2029.1938,386.8963 Q2029.1938,387.2713 2028.9281,387.5056 Q2028.6781,387.74 2028.0688,387.74 L2025.7719,387.74 Q2025.1625,387.74 2024.8969,387.5056 Q2024.6313,387.2713 2024.6313,386.8806 Q2024.6313,386.5056 2024.8969,386.2713 Q2025.1625,386.0369 2025.7719,386.0369 L2026.1938,386.0369 L2025.7875,385.0056 Z M2025.0688,383.3025 L2023.7094,379.9275 L2022.3344,383.3025 L2025.0688,383.3025 Z " fill="#000000"/><text fill="#000000" font-family="sans-serif" font-size="14" font-style="italic" lengthAdjust="spacing" textLength="100" x="2038.4" y="389.0369">GameController</text><line style="stroke:#181818;stroke-width:0.5;" x1="2006" x2="2144" y1="399.24" y2="399.24"/><polygon fill="none" points="2016,409.0505,2020,413.0505,2016,417.0505,2012,413.0505" style="stroke:#B38D22;stroke-width:1.0;"/><text fill="#000000" font-family="sans-serif" font-size="14" lengthAdjust="spacing" textLength="90" x="2025" y="418.3474">Monde monde</text><line style="stroke:#181818;stroke-width:1.0;" x1="2006" x2="2144" y1="425.8611" y2="425.8611"/><ellipse cx="2016" cy="440.6716" fill="#84BE84" rx="3" ry="3" style="stroke:#038048;stroke-width:1.0;"/><text fill="#000000" font-family="sans-serif" font-size="14" font-style="italic" lengthAdjust="spacing" textLength="114" x="2025" y="444.9685">update(long): void</text></g><!--class Engine--><g id="elem_Engine"><rect codeLine="9" fill="#F1F1F1" height="122.4844" id="Engine" rx="2.5" ry="2.5" style="stroke:#181818;stroke-width:0.5;" width="158" x="1745" y="348.74"/><ellipse cx="1797.75" cy="364.74" fill="#A9DCDF" rx="11" ry="11" style="stroke:#181818;stroke-width:1.0;"/><path d="M1799.9375,366.5056 L1795.7969,366.5056 L1795.375,367.5369 L1795.7969,367.5369 Q1796.4063,367.5369 1796.6719,367.7713 Q1796.9375,368.0056 1796.9375,368.3963 Q1796.9375,368.7713 1796.6719,369.0056 Q1796.4063,369.24 1795.7969,369.24 L1793.5,369.24 Q1792.8906,369.24 1792.6406,369.0056 Q1792.375,368.7713 1792.375,368.3806 Q1792.375,368.0056 1792.6563,367.7713 Q1792.9219,367.5213 1793.5469,367.5369 L1796.2188,360.8806 L1795.1094,360.8806 Q1794.5,360.8806 1794.2344,360.6463 Q1793.9688,360.4119 1793.9688,360.0213 Q1793.9688,359.6463 1794.2344,359.4119 Q1794.5,359.1775 1795.1094,359.1775 L1798.7813,359.1775 L1802.1719,367.5369 Q1802.7656,367.5369 1802.9531,367.6775 Q1803.3438,367.9431 1803.3438,368.3963 Q1803.3438,368.7713 1803.0781,369.0056 Q1802.8281,369.24 1802.2188,369.24 L1799.9219,369.24 Q1799.3125,369.24 1799.0469,369.0056 Q1798.7813,368.7713 1798.7813,368.3806 Q1798.7813,368.0056 1799.0469,367.7713 Q1799.3125,367.5369 1799.9219,367.5369 L1800.3438,367.5369 L1799.9375,366.5056 Z M1799.2188,364.8025 L1797.8594,361.4275 L1796.4844,364.8025 L1799.2188,364.8025 Z " fill="#000000"/><text fill="#000000" font-family="sans-serif" font-size="14" font-style="italic" lengthAdjust="spacing" textLength="44" x="1818.25" y="370.5369">Engine</text><line style="stroke:#181818;stroke-width:0.5;" x1="1746" x2="1902" y1="380.74" y2="380.74"/><line style="stroke:#181818;stroke-width:0.5;" x1="1746" x2="1902" y1="388.74" y2="388.74"/><ellipse cx="1756" cy="403.5505" fill="#84BE84" rx="3" ry="3" style="stroke:#038048;stroke-width:1.0;"/><text fill="#000000" font-family="sans-serif" font-size="14" lengthAdjust="spacing" textLength="132" x="1765" y="407.8474">Engine(ui, controller)</text><ellipse cx="1756" cy="422.1716" fill="#84BE84" rx="3" ry="3" style="stroke:#038048;stroke-width:1.0;"/><text fill="#000000" font-family="sans-serif" font-size="14" font-style="italic" lengthAdjust="spacing" textLength="71" x="1765" y="426.4685">start(): void</text><ellipse cx="1756" cy="440.7927" fill="#84BE84" rx="3" ry="3" style="stroke:#038048;stroke-width:1.0;"/><text fill="#000000" font-family="sans-serif" font-size="14" font-style="italic" lengthAdjust="spacing" textLength="70" x="1765" y="445.0896">stop(): void</text><ellipse cx="1756" cy="459.4138" fill="#84BE84" rx="3" ry="3" style="stroke:#038048;stroke-width:1.0;"/><text fill="#000000" font-family="sans-serif" font-size="14" font-style="italic" lengthAdjust="spacing" textLength="92" x="1765" y="463.7107">tick(long): void</text></g><!--class GameInterface--><g id="elem_GameInterface"><rect codeLine="16" fill="#F1F1F1" height="66.6211" id="GameInterface" rx="2.5" ry="2.5" style="stroke:#181818;stroke-width:0.5;" width="126" x="1560" y="376.24"/><ellipse cx="1575" cy="392.24" fill="#B4A7E5" rx="11" ry="11" style="stroke:#181818;stroke-width:1.0;"/><path d="M1575.9531,388.8806 L1575.9531,395.5369 L1577.6719,395.5369 Q1578.2813,395.5369 1578.5469,395.7713 Q1578.8125,396.0056 1578.8125,396.3963 Q1578.8125,396.7713 1578.5469,397.0056 Q1578.2813,397.24 1577.6719,397.24 L1572.5313,397.24 Q1571.9219,397.24 1571.6563,397.0056 Q1571.3906,396.7713 1571.3906,396.3806 Q1571.3906,396.0056 1571.6563,395.7713 Q1571.9219,395.5369 1572.5313,395.5369 L1574.25,395.5369 L1574.25,388.8806 L1572.5313,388.8806 Q1571.9219,388.8806 1571.6563,388.6463 Q1571.3906,388.4119 1571.3906,388.0213 Q1571.3906,387.6463 1571.6563,387.4119 Q1571.9219,387.1775 1572.5313,387.1775 L1577.6719,387.1775 Q1578.2813,387.1775 1578.5469,387.4119 Q1578.8125,387.6463 1578.8125,388.0213 Q1578.8125,388.4119 1578.5469,388.6463 Q1578.2813,388.8806 1577.6719,388.8806 L1575.9531,388.8806 Z " fill="#000000"/><text fill="#000000" font-family="sans-serif" font-size="14" font-style="italic" lengthAdjust="spacing" textLength="94" x="1589" y="398.0369">GameInterface</text><line style="stroke:#181818;stroke-width:0.5;" x1="1561" x2="1685" y1="408.24" y2="408.24"/><line style="stroke:#181818;stroke-width:0.5;" x1="1561" x2="1685" y1="416.24" y2="416.24"/><ellipse cx="1571" cy="431.0505" fill="#84BE84" rx="3" ry="3" style="stroke:#038048;stroke-width:1.0;"/><text fill="#000000" font-family="sans-serif" font-size="14" lengthAdjust="spacing" textLength="86" x="1580" y="435.3474">render(): void</text></g><!--class CLIController--><g id="elem_CLIController"><rect codeLine="22" fill="#F1F1F1" height="103.8633" id="CLIController" rx="2.5" ry="2.5" style="stroke:#181818;stroke-width:0.5;" width="141" x="1919.5" y="100.24"/><ellipse cx="1946.2" cy="116.24" fill="#ADD1B2" rx="11" ry="11" style="stroke:#181818;stroke-width:1.0;"/><path d="M1948.9656,112.115 Q1949.1219,111.8963 1949.3094,111.7869 Q1949.4969,111.6775 1949.7156,111.6775 Q1950.0906,111.6775 1950.325,111.9431 Q1950.5594,112.1931 1950.5594,112.8025 L1950.5594,114.2556 Q1950.5594,114.865 1950.325,115.1306 Q1950.0906,115.3963 1949.7156,115.3963 Q1949.3719,115.3963 1949.1688,115.1931 Q1948.9656,115.0056 1948.8563,114.49 Q1948.8094,114.1306 1948.6219,113.9431 Q1948.2938,113.5681 1947.6844,113.3494 Q1947.075,113.1306 1946.45,113.1306 Q1945.6844,113.1306 1945.0438,113.4588 Q1944.4188,113.7869 1943.9188,114.5369 Q1943.4344,115.2869 1943.4344,116.3181 L1943.4344,117.4119 Q1943.4344,118.6463 1944.325,119.4744 Q1945.2156,120.2869 1946.8094,120.2869 Q1947.7469,120.2869 1948.4031,120.0369 Q1948.7938,119.8806 1949.2156,119.4431 Q1949.4813,119.1775 1949.6219,119.0994 Q1949.7781,119.0213 1949.9813,119.0213 Q1950.3094,119.0213 1950.5594,119.2869 Q1950.825,119.5369 1950.825,119.8806 Q1950.825,120.2244 1950.4813,120.6306 Q1949.9813,121.2088 1949.1844,121.5369 Q1948.1063,121.99 1946.8094,121.99 Q1945.2938,121.99 1944.0906,121.365 Q1943.1063,120.865 1942.4188,119.8025 Q1941.7313,118.7244 1941.7313,117.4431 L1941.7313,116.2869 Q1941.7313,114.9588 1942.3406,113.8181 Q1942.9656,112.6619 1944.0594,112.0525 Q1945.1531,111.4275 1946.3875,111.4275 Q1947.1219,111.4275 1947.7625,111.5994 Q1948.4188,111.7556 1948.9656,112.115 Z " fill="#000000"/><text fill="#000000" font-family="sans-serif" font-size="14" lengthAdjust="spacing" textLength="83" x="1962.8" y="122.0369">CLIController</text><line style="stroke:#181818;stroke-width:0.5;" x1="1920.5" x2="2059.5" y1="132.24" y2="132.24"/><line style="stroke:#181818;stroke-width:0.5;" x1="1920.5" x2="2059.5" y1="140.24" y2="140.24"/><ellipse cx="1930.5" cy="155.0505" fill="#84BE84" rx="3" ry="3" style="stroke:#038048;stroke-width:1.0;"/><text fill="#000000" font-family="sans-serif" font-size="14" lengthAdjust="spacing" textLength="72" x="1939.5" y="159.3474">start(): void</text><ellipse cx="1930.5" cy="173.6716" fill="#84BE84" rx="3" ry="3" style="stroke:#038048;stroke-width:1.0;"/><text fill="#000000" font-family="sans-serif" font-size="14" lengthAdjust="spacing" textLength="71" x="1939.5" y="177.9685">stop(): void</text><ellipse cx="1930.5" cy="192.2927" fill="#84BE84" rx="3" ry="3" style="stroke:#038048;stroke-width:1.0;"/><text fill="#000000" font-family="sans-serif" font-size="14" lengthAdjust="spacing" textLength="115" x="1939.5" y="196.5896">update(long): void</text></g><!--class CLIEngine--><g id="elem_CLIEngine"><rect codeLine="28" fill="#F1F1F1" height="103.8633" id="CLIEngine" rx="2.5" ry="2.5" style="stroke:#181818;stroke-width:0.5;" width="118" x="1766" y="100.24"/><ellipse cx="1790.45" cy="116.24" fill="#ADD1B2" rx="11" ry="11" style="stroke:#181818;stroke-width:1.0;"/><path d="M1793.2156,112.115 Q1793.3719,111.8963 1793.5594,111.7869 Q1793.7469,111.6775 1793.9656,111.6775 Q1794.3406,111.6775 1794.575,111.9431 Q1794.8094,112.1931 1794.8094,112.8025 L1794.8094,114.2556 Q1794.8094,114.865 1794.575,115.1306 Q1794.3406,115.3963 1793.9656,115.3963 Q1793.6219,115.3963 1793.4188,115.1931 Q1793.2156,115.0056 1793.1063,114.49 Q1793.0594,114.1306 1792.8719,113.9431 Q1792.5438,113.5681 1791.9344,113.3494 Q1791.325,113.1306 1790.7,113.1306 Q1789.9344,113.1306 1789.2938,113.4588 Q1788.6688,113.7869 1788.1688,114.5369 Q1787.6844,115.2869 1787.6844,116.3181 L1787.6844,117.4119 Q1787.6844,118.6463 1788.575,119.4744 Q1789.4656,120.2869 1791.0594,120.2869 Q1791.9969,120.2869 1792.6531,120.0369 Q1793.0438,119.8806 1793.4656,119.4431 Q1793.7313,119.1775 1793.8719,119.0994 Q1794.0281,119.0213 1794.2313,119.0213 Q1794.5594,119.0213 1794.8094,119.2869 Q1795.075,119.5369 1795.075,119.8806 Q1795.075,120.2244 1794.7313,120.6306 Q1794.2313,121.2088 1793.4344,121.5369 Q1792.3563,121.99 1791.0594,121.99 Q1789.5438,121.99 1788.3406,121.365 Q1787.3563,120.865 1786.6688,119.8025 Q1785.9813,118.7244 1785.9813,117.4431 L1785.9813,116.2869 Q1785.9813,114.9588 1786.5906,113.8181 Q1787.2156,112.6619 1788.3094,112.0525 Q1789.4031,111.4275 1790.6375,111.4275 Q1791.3719,111.4275 1792.0125,111.5994 Q1792.6688,111.7556 1793.2156,112.115 Z " fill="#000000"/><text fill="#000000" font-family="sans-serif" font-size="14" lengthAdjust="spacing" textLength="65" x="1806.55" y="122.0369">CLIEngine</text><line style="stroke:#181818;stroke-width:0.5;" x1="1767" x2="1883" y1="132.24" y2="132.24"/><line style="stroke:#181818;stroke-width:0.5;" x1="1767" x2="1883" y1="140.24" y2="140.24"/><ellipse cx="1777" cy="155.0505" fill="#84BE84" rx="3" ry="3" style="stroke:#038048;stroke-width:1.0;"/><text fill="#000000" font-family="sans-serif" font-size="14" lengthAdjust="spacing" textLength="72" x="1786" y="159.3474">start(): void</text><ellipse cx="1777" cy="173.6716" fill="#84BE84" rx="3" ry="3" style="stroke:#038048;stroke-width:1.0;"/><text fill="#000000" font-family="sans-serif" font-size="14" lengthAdjust="spacing" textLength="71" x="1786" y="177.9685">stop(): void</text><ellipse cx="1777" cy="192.2927" fill="#84BE84" rx="3" ry="3" style="stroke:#038048;stroke-width:1.0;"/><text fill="#000000" font-family="sans-serif" font-size="14" lengthAdjust="spacing" textLength="92" x="1786" y="196.5896">tick(long): void</text></g><!--class CLI--><g id="elem_CLI"><rect codeLine="34" fill="#F1F1F1" height="66.6211" id="CLI" rx="2.5" ry="2.5" style="stroke:#181818;stroke-width:0.5;" width="112" x="1567" y="118.74"/><ellipse cx="1608.55" cy="134.74" fill="#ADD1B2" rx="11" ry="11" style="stroke:#181818;stroke-width:1.0;"/><path d="M1611.3156,130.615 Q1611.4719,130.3963 1611.6594,130.2869 Q1611.8469,130.1775 1612.0656,130.1775 Q1612.4406,130.1775 1612.675,130.4431 Q1612.9094,130.6931 1612.9094,131.3025 L1612.9094,132.7556 Q1612.9094,133.365 1612.675,133.6306 Q1612.4406,133.8963 1612.0656,133.8963 Q1611.7219,133.8963 1611.5188,133.6931 Q1611.3156,133.5056 1611.2063,132.99 Q1611.1594,132.6306 1610.9719,132.4431 Q1610.6438,132.0681 1610.0344,131.8494 Q1609.425,131.6306 1608.8,131.6306 Q1608.0344,131.6306 1607.3938,131.9588 Q1606.7688,132.2869 1606.2688,133.0369 Q1605.7844,133.7869 1605.7844,134.8181 L1605.7844,135.9119 Q1605.7844,137.1463 1606.675,137.9744 Q1607.5656,138.7869 1609.1594,138.7869 Q1610.0969,138.7869 1610.7531,138.5369 Q1611.1438,138.3806 1611.5656,137.9431 Q1611.8313,137.6775 1611.9719,137.5994 Q1612.1281,137.5213 1612.3313,137.5213 Q1612.6594,137.5213 1612.9094,137.7869 Q1613.175,138.0369 1613.175,138.3806 Q1613.175,138.7244 1612.8313,139.1306 Q1612.3313,139.7088 1611.5344,140.0369 Q1610.4563,140.49 1609.1594,140.49 Q1607.6438,140.49 1606.4406,139.865 Q1605.4563,139.365 1604.7688,138.3025 Q1604.0813,137.2244 1604.0813,135.9431 L1604.0813,134.7869 Q1604.0813,133.4588 1604.6906,132.3181 Q1605.3156,131.1619 1606.4094,130.5525 Q1607.5031,129.9275 1608.7375,129.9275 Q1609.4719,129.9275 1610.1125,130.0994 Q1610.7688,130.2556 1611.3156,130.615 Z " fill="#000000"/><text fill="#000000" font-family="sans-serif" font-size="14" lengthAdjust="spacing" textLength="21" x="1628.45" y="140.5369">CLI</text><line style="stroke:#181818;stroke-width:0.5;" x1="1568" x2="1678" y1="150.74" y2="150.74"/><line style="stroke:#181818;stroke-width:0.5;" x1="1568" x2="1678" y1="158.74" y2="158.74"/><ellipse cx="1578" cy="173.5505" fill="#84BE84" rx="3" ry="3" style="stroke:#038048;stroke-width:1.0;"/><text fill="#000000" font-family="sans-serif" font-size="14" lengthAdjust="spacing" textLength="86" x="1587" y="177.8474">render(): void</text></g><!--class View--><g id="elem_View"><rect codeLine="40" fill="#F1F1F1" height="178.3477" id="View" rx="2.5" ry="2.5" style="stroke:#181818;stroke-width:0.5;" width="230" x="875" y="320.74"/><ellipse cx="971.25" cy="336.74" fill="#A9DCDF" rx="11" ry="11" style="stroke:#181818;stroke-width:1.0;"/><path d="M973.4375,338.5056 L969.2969,338.5056 L968.875,339.5369 L969.2969,339.5369 Q969.9063,339.5369 970.1719,339.7713 Q970.4375,340.0056 970.4375,340.3963 Q970.4375,340.7713 970.1719,341.0056 Q969.9063,341.24 969.2969,341.24 L967,341.24 Q966.3906,341.24 966.1406,341.0056 Q965.875,340.7713 965.875,340.3806 Q965.875,340.0056 966.1563,339.7713 Q966.4219,339.5213 967.0469,339.5369 L969.7188,332.8806 L968.6094,332.8806 Q968,332.8806 967.7344,332.6463 Q967.4688,332.4119 967.4688,332.0213 Q967.4688,331.6463 967.7344,331.4119 Q968,331.1775 968.6094,331.1775 L972.2813,331.1775 L975.6719,339.5369 Q976.2656,339.5369 976.4531,339.6775 Q976.8438,339.9431 976.8438,340.3963 Q976.8438,340.7713 976.5781,341.0056 Q976.3281,341.24 975.7188,341.24 L973.4219,341.24 Q972.8125,341.24 972.5469,341.0056 Q972.2813,340.7713 972.2813,340.3806 Q972.2813,340.0056 972.5469,339.7713 Q972.8125,339.5369 973.4219,339.5369 L973.8438,339.5369 L973.4375,338.5056 Z M972.7188,336.8025 L971.3594,333.4275 L969.9844,336.8025 L972.7188,336.8025 Z " fill="#000000"/><text fill="#000000" font-family="sans-serif" font-size="14" font-style="italic" lengthAdjust="spacing" textLength="29" x="991.75" y="342.5369">View</text><line style="stroke:#181818;stroke-width:0.5;" x1="876" x2="1104" y1="352.74" y2="352.74"/><polygon fill="none" points="886,362.5505,890,366.5505,886,370.5505,882,366.5505" style="stroke:#B38D22;stroke-width:1.0;"/><text fill="#000000" font-family="sans-serif" font-size="14" lengthAdjust="spacing" textLength="71" x="895" y="371.8474">Parent root</text><line style="stroke:#181818;stroke-width:1.0;" x1="876" x2="1104" y1="379.3611" y2="379.3611"/><ellipse cx="886" cy="394.1716" fill="#84BE84" rx="3" ry="3" style="stroke:#038048;stroke-width:1.0;"/><text fill="#000000" font-family="sans-serif" font-size="14" lengthAdjust="spacing" textLength="110" x="895" y="398.4685">getRoot(): Parent</text><ellipse cx="886" cy="412.7927" fill="#84BE84" rx="3" ry="3" style="stroke:#038048;stroke-width:1.0;"/><text fill="#000000" font-family="sans-serif" font-size="14" lengthAdjust="spacing" textLength="160" x="895" y="417.0896">enableRootEvents(): void</text><ellipse cx="886" cy="431.4138" fill="#84BE84" rx="3" ry="3" style="stroke:#038048;stroke-width:1.0;"/><text fill="#000000" font-family="sans-serif" font-size="14" lengthAdjust="spacing" textLength="107" x="895" y="435.7107">onViewInit(): void</text><ellipse cx="886" cy="450.0349" fill="#84BE84" rx="3" ry="3" style="stroke:#038048;stroke-width:1.0;"/><text fill="#000000" font-family="sans-serif" font-size="14" lengthAdjust="spacing" textLength="151" x="895" y="454.3318">onViewDisplayed(): void</text><ellipse cx="886" cy="468.656" fill="#84BE84" rx="3" ry="3" style="stroke:#038048;stroke-width:1.0;"/><text fill="#000000" font-family="sans-serif" font-size="14" lengthAdjust="spacing" textLength="196" x="895" y="472.9529">onKeyPressed(KeyEvent): void</text><ellipse cx="886" cy="487.2771" fill="#84BE84" rx="3" ry="3" style="stroke:#038048;stroke-width:1.0;"/><text fill="#000000" font-family="sans-serif" font-size="14" lengthAdjust="spacing" textLength="204" x="895" y="491.574">onKeyReleased(KeyEvent): void</text></g><!--class ViewController--><g id="elem_ViewController"><rect codeLine="51" fill="#F1F1F1" height="48" id="ViewController" rx="2.5" ry="2.5" style="stroke:#181818;stroke-width:0.5;" width="123" x="381.5" y="385.74"/><ellipse cx="396.5" cy="401.74" fill="#A9DCDF" rx="11" ry="11" style="stroke:#181818;stroke-width:1.0;"/><path d="M398.6875,403.5056 L394.5469,403.5056 L394.125,404.5369 L394.5469,404.5369 Q395.1563,404.5369 395.4219,404.7713 Q395.6875,405.0056 395.6875,405.3963 Q395.6875,405.7713 395.4219,406.0056 Q395.1563,406.24 394.5469,406.24 L392.25,406.24 Q391.6406,406.24 391.3906,406.0056 Q391.125,405.7713 391.125,405.3806 Q391.125,405.0056 391.4063,404.7713 Q391.6719,404.5213 392.2969,404.5369 L394.9688,397.8806 L393.8594,397.8806 Q393.25,397.8806 392.9844,397.6463 Q392.7188,397.4119 392.7188,397.0213 Q392.7188,396.6463 392.9844,396.4119 Q393.25,396.1775 393.8594,396.1775 L397.5313,396.1775 L400.9219,404.5369 Q401.5156,404.5369 401.7031,404.6775 Q402.0938,404.9431 402.0938,405.3963 Q402.0938,405.7713 401.8281,406.0056 Q401.5781,406.24 400.9688,406.24 L398.6719,406.24 Q398.0625,406.24 397.7969,406.0056 Q397.5313,405.7713 397.5313,405.3806 Q397.5313,405.0056 397.7969,404.7713 Q398.0625,404.5369 398.6719,404.5369 L399.0938,404.5369 L398.6875,403.5056 Z M397.9688,401.8025 L396.6094,398.4275 L395.2344,401.8025 L397.9688,401.8025 Z " fill="#000000"/><text fill="#000000" font-family="sans-serif" font-size="14" font-style="italic" lengthAdjust="spacing" textLength="91" x="410.5" y="407.5369">ViewController</text><line style="stroke:#181818;stroke-width:0.5;" x1="382.5" x2="503.5" y1="417.74" y2="417.74"/><line style="stroke:#181818;stroke-width:0.5;" x1="382.5" x2="503.5" y1="425.74" y2="425.74"/></g><!--class VIEWS--><g id="elem_VIEWS"><rect codeLine="53" fill="#F1F1F1" height="103.8633" id="VIEWS" rx="2.5" ry="2.5" style="stroke:#181818;stroke-width:0.5;" width="80" x="261" y="357.74"/><ellipse cx="278.25" cy="373.74" fill="#EB937F" rx="11" ry="11" style="stroke:#181818;stroke-width:1.0;"/><path d="M277.1094,374.5369 L277.1094,377.0369 L281.4375,377.0369 L281.4375,376.115 Q281.4375,375.5056 281.6719,375.24 Q281.9219,374.9744 282.2969,374.9744 Q282.6719,374.9744 282.9063,375.24 Q283.1406,375.5056 283.1406,376.115 L283.1406,378.74 L275.1406,378.74 Q274.5156,378.74 274.25,378.5056 Q274,378.2713 274,377.8806 Q274,377.5056 274.2656,377.2713 Q274.5313,377.0369 275.1406,377.0369 L275.4063,377.0369 L275.4063,370.3806 L275.1406,370.3806 Q274.5156,370.3806 274.25,370.1463 Q274,369.9119 274,369.5213 Q274,369.1463 274.25,368.9119 Q274.5156,368.6775 275.1406,368.6775 L282.7656,368.6775 L282.7656,371.2713 Q282.7656,371.8806 282.5313,372.1463 Q282.3125,372.3963 281.9219,372.3963 Q281.5469,372.3963 281.3125,372.1463 Q281.0781,371.8806 281.0781,371.2713 L281.0781,370.3806 L277.1094,370.3806 L277.1094,372.8338 L278.5938,372.8338 Q278.5938,372.1775 278.7188,371.99 Q278.9844,371.5838 279.4531,371.5838 Q279.8281,371.5838 280.0625,371.8494 Q280.2969,372.0994 280.2969,372.7088 L280.2969,374.6775 Q280.2969,375.2244 280.1719,375.4119 Q279.9063,375.8025 279.4531,375.8025 Q278.9844,375.8025 278.7188,375.3963 Q278.5938,375.2088 278.5938,374.5369 L277.1094,374.5369 Z " fill="#000000"/><text fill="#000000" font-family="sans-serif" font-size="14" lengthAdjust="spacing" textLength="43" x="292.75" y="379.5369">VIEWS</text><line style="stroke:#181818;stroke-width:0.5;" x1="262" x2="340" y1="389.74" y2="389.74"/><text fill="#000000" font-family="sans-serif" font-size="14" lengthAdjust="spacing" textLength="40" x="267" y="408.8474">HOME</text><text fill="#000000" font-family="sans-serif" font-size="14" lengthAdjust="spacing" textLength="40" x="267" y="427.4685">GAME</text><text fill="#000000" font-family="sans-serif" font-size="14" lengthAdjust="spacing" textLength="68" x="267" y="446.0896">SETTINGS</text><line style="stroke:#181818;stroke-width:0.5;" x1="262" x2="340" y1="453.6033" y2="453.6033"/></g><!--class ViewManager--><g id="elem_ViewManager"><rect codeLine="59" fill="#F1F1F1" height="196.9688" id="ViewManager" rx="2.5" ry="2.5" style="stroke:#181818;stroke-width:0.5;" width="227" x="1184.5" y="311.24"/><ellipse cx="1251.25" cy="327.24" fill="#ADD1B2" rx="11" ry="11" style="stroke:#181818;stroke-width:1.0;"/><path d="M1254.0156,323.115 Q1254.1719,322.8963 1254.3594,322.7869 Q1254.5469,322.6775 1254.7656,322.6775 Q1255.1406,322.6775 1255.375,322.9431 Q1255.6094,323.1931 1255.6094,323.8025 L1255.6094,325.2556 Q1255.6094,325.865 1255.375,326.1306 Q1255.1406,326.3963 1254.7656,326.3963 Q1254.4219,326.3963 1254.2188,326.1931 Q1254.0156,326.0056 1253.9063,325.49 Q1253.8594,325.1306 1253.6719,324.9431 Q1253.3438,324.5681 1252.7344,324.3494 Q1252.125,324.1306 1251.5,324.1306 Q1250.7344,324.1306 1250.0938,324.4588 Q1249.4688,324.7869 1248.9688,325.5369 Q1248.4844,326.2869 1248.4844,327.3181 L1248.4844,328.4119 Q1248.4844,329.6463 1249.375,330.4744 Q1250.2656,331.2869 1251.8594,331.2869 Q1252.7969,331.2869 1253.4531,331.0369 Q1253.8438,330.8806 1254.2656,330.4431 Q1254.5313,330.1775 1254.6719,330.0994 Q1254.8281,330.0213 1255.0313,330.0213 Q1255.3594,330.0213 1255.6094,330.2869 Q1255.875,330.5369 1255.875,330.8806 Q1255.875,331.2244 1255.5313,331.6306 Q1255.0313,332.2088 1254.2344,332.5369 Q1253.1563,332.99 1251.8594,332.99 Q1250.3438,332.99 1249.1406,332.365 Q1248.1563,331.865 1247.4688,330.8025 Q1246.7813,329.7244 1246.7813,328.4431 L1246.7813,327.2869 Q1246.7813,325.9588 1247.3906,324.8181 Q1248.0156,323.6619 1249.1094,323.0525 Q1250.2031,322.4275 1251.4375,322.4275 Q1252.1719,322.4275 1252.8125,322.5994 Q1253.4688,322.7556 1254.0156,323.115 Z " fill="#000000"/><text fill="#000000" font-family="sans-serif" font-size="14" lengthAdjust="spacing" textLength="85" x="1271.75" y="333.0369">ViewManager</text><line style="stroke:#181818;stroke-width:0.5;" x1="1185.5" x2="1410.5" y1="343.24" y2="343.24"/><rect fill="none" height="6" style="stroke:#C82930;stroke-width:1.0;" width="6" x="1192.5" y="355.0505"/><text fill="#000000" font-family="sans-serif" font-size="14" lengthAdjust="spacing" text-decoration="underline" textLength="146" x="1204.5" y="362.3474">instance: ViewManager</text><rect fill="none" height="6" style="stroke:#C82930;stroke-width:1.0;" width="6" x="1192.5" y="373.6716"/><text fill="#000000" font-family="sans-serif" font-size="14" lengthAdjust="spacing" textLength="80" x="1204.5" y="380.9685">stage: Stage</text><line style="stroke:#181818;stroke-width:1.0;" x1="1185.5" x2="1410.5" y1="388.4822" y2="388.4822"/><rect fill="#F24D5C" height="6" style="stroke:#C82930;stroke-width:1.0;" width="6" x="1192.5" y="400.2927"/><text fill="#000000" font-family="sans-serif" font-size="14" lengthAdjust="spacing" textLength="95" x="1204.5" y="407.5896">ViewManager()</text><ellipse cx="1195.5" cy="421.9138" fill="#84BE84" rx="3" ry="3" style="stroke:#038048;stroke-width:1.0;"/><text fill="#000000" font-family="sans-serif" font-size="14" lengthAdjust="spacing" text-decoration="underline" textLength="176" x="1204.5" y="426.2107">getInstance(): ViewManager</text><ellipse cx="1195.5" cy="440.5349" fill="#84BE84" rx="3" ry="3" style="stroke:#038048;stroke-width:1.0;"/><text fill="#000000" font-family="sans-serif" font-size="14" lengthAdjust="spacing" textLength="137" x="1204.5" y="444.8318">setStage(Stage): void</text><ellipse cx="1195.5" cy="459.156" fill="#84BE84" rx="3" ry="3" style="stroke:#038048;stroke-width:1.0;"/><text fill="#000000" font-family="sans-serif" font-size="14" lengthAdjust="spacing" textLength="201" x="1204.5" y="463.4529">registerView(VIEWS, View): void</text><ellipse cx="1195.5" cy="477.7771" fill="#84BE84" rx="3" ry="3" style="stroke:#038048;stroke-width:1.0;"/><text fill="#000000" font-family="sans-serif" font-size="14" lengthAdjust="spacing" textLength="158" x="1204.5" y="482.074">navigateTo(VIEWS): void</text><ellipse cx="1195.5" cy="496.3982" fill="#84BE84" rx="3" ry="3" style="stroke:#038048;stroke-width:1.0;"/><text fill="#000000" font-family="sans-serif" font-size="14" lengthAdjust="spacing" textLength="67" x="1204.5" y="500.6951">quit(): void</text></g><!--class Sprite--><g id="elem_Sprite"><rect codeLine="116" fill="#F1F1F1" height="85.2422" id="Sprite" rx="2.5" ry="2.5" style="stroke:#181818;stroke-width:0.5;" width="89" x="127.5" y="367.24"/><ellipse cx="151.5" cy="383.24" fill="#ADD1B2" rx="11" ry="11" style="stroke:#181818;stroke-width:1.0;"/><path d="M154.2656,379.115 Q154.4219,378.8963 154.6094,378.7869 Q154.7969,378.6775 155.0156,378.6775 Q155.3906,378.6775 155.625,378.9431 Q155.8594,379.1931 155.8594,379.8025 L155.8594,381.2556 Q155.8594,381.865 155.625,382.1306 Q155.3906,382.3963 155.0156,382.3963 Q154.6719,382.3963 154.4688,382.1931 Q154.2656,382.0056 154.1563,381.49 Q154.1094,381.1306 153.9219,380.9431 Q153.5938,380.5681 152.9844,380.3494 Q152.375,380.1306 151.75,380.1306 Q150.9844,380.1306 150.3438,380.4588 Q149.7188,380.7869 149.2188,381.5369 Q148.7344,382.2869 148.7344,383.3181 L148.7344,384.4119 Q148.7344,385.6463 149.625,386.4744 Q150.5156,387.2869 152.1094,387.2869 Q153.0469,387.2869 153.7031,387.0369 Q154.0938,386.8806 154.5156,386.4431 Q154.7813,386.1775 154.9219,386.0994 Q155.0781,386.0213 155.2813,386.0213 Q155.6094,386.0213 155.8594,386.2869 Q156.125,386.5369 156.125,386.8806 Q156.125,387.2244 155.7813,387.6306 Q155.2813,388.2088 154.4844,388.5369 Q153.4063,388.99 152.1094,388.99 Q150.5938,388.99 149.3906,388.365 Q148.4063,387.865 147.7188,386.8025 Q147.0313,385.7244 147.0313,384.4431 L147.0313,383.2869 Q147.0313,381.9588 147.6406,380.8181 Q148.2656,379.6619 149.3594,379.0525 Q150.4531,378.4275 151.6875,378.4275 Q152.4219,378.4275 153.0625,378.5994 Q153.7188,378.7556 154.2656,379.115 Z " fill="#000000"/><text fill="#000000" font-family="sans-serif" font-size="14" lengthAdjust="spacing" textLength="37" x="167.5" y="389.0369">Sprite</text><line style="stroke:#181818;stroke-width:0.5;" x1="128.5" x2="215.5" y1="399.24" y2="399.24"/><rect fill="none" height="6" style="stroke:#C82930;stroke-width:1.0;" width="6" x="135.5" y="411.0505"/><text fill="#000000" font-family="sans-serif" font-size="14" lengthAdjust="spacing" textLength="57" x="147.5" y="418.3474">String uri</text><line style="stroke:#181818;stroke-width:0.5;" x1="128.5" x2="215.5" y1="425.8611" y2="425.8611"/><ellipse cx="138.5" cy="440.6716" fill="#84BE84" rx="3" ry="3" style="stroke:#038048;stroke-width:1.0;"/><text fill="#000000" font-family="sans-serif" font-size="14" lengthAdjust="spacing" textLength="63" x="147.5" y="444.9685">Sprite(uri)</text></g><!--class HomeViewController--><g id="elem_HomeViewController"><rect codeLine="72" fill="#F1F1F1" height="103.8633" id="HomeViewController" rx="2.5" ry="2.5" style="stroke:#181818;stroke-width:0.5;" width="167" x="46.5" y="641.24"/><ellipse cx="65.1" cy="657.24" fill="#ADD1B2" rx="11" ry="11" style="stroke:#181818;stroke-width:1.0;"/><path d="M67.8656,653.115 Q68.0219,652.8963 68.2094,652.7869 Q68.3969,652.6775 68.6156,652.6775 Q68.9906,652.6775 69.225,652.9431 Q69.4594,653.1931 69.4594,653.8025 L69.4594,655.2556 Q69.4594,655.865 69.225,656.1306 Q68.9906,656.3963 68.6156,656.3963 Q68.2719,656.3963 68.0688,656.1931 Q67.8656,656.0056 67.7563,655.49 Q67.7094,655.1306 67.5219,654.9431 Q67.1938,654.5681 66.5844,654.3494 Q65.975,654.1306 65.35,654.1306 Q64.5844,654.1306 63.9437,654.4588 Q63.3187,654.7869 62.8187,655.5369 Q62.3344,656.2869 62.3344,657.3181 L62.3344,658.4119 Q62.3344,659.6463 63.225,660.4744 Q64.1156,661.2869 65.7094,661.2869 Q66.6469,661.2869 67.3031,661.0369 Q67.6938,660.8806 68.1156,660.4431 Q68.3813,660.1775 68.5219,660.0994 Q68.6781,660.0213 68.8813,660.0213 Q69.2094,660.0213 69.4594,660.2869 Q69.725,660.5369 69.725,660.8806 Q69.725,661.2244 69.3813,661.6306 Q68.8813,662.2088 68.0844,662.5369 Q67.0063,662.99 65.7094,662.99 Q64.1938,662.99 62.9906,662.365 Q62.0062,661.865 61.3187,660.8025 Q60.6312,659.7244 60.6312,658.4431 L60.6312,657.2869 Q60.6312,655.9588 61.2406,654.8181 Q61.8656,653.6619 62.9594,653.0525 Q64.0531,652.4275 65.2875,652.4275 Q66.0219,652.4275 66.6625,652.5994 Q67.3188,652.7556 67.8656,653.115 Z " fill="#000000"/><text fill="#000000" font-family="sans-serif" font-size="14" lengthAdjust="spacing" textLength="127" x="79.9" y="663.0369">HomeViewController</text><line style="stroke:#181818;stroke-width:0.5;" x1="47.5" x2="212.5" y1="673.24" y2="673.24"/><line style="stroke:#181818;stroke-width:0.5;" x1="47.5" x2="212.5" y1="681.24" y2="681.24"/><rect fill="#F24D5C" height="6" style="stroke:#C82930;stroke-width:1.0;" width="6" x="54.5" y="693.0505"/><text fill="#000000" font-family="sans-serif" font-size="14" lengthAdjust="spacing" textLength="120" x="66.5" y="700.3474">onClickStart(): void</text><rect fill="#F24D5C" height="6" style="stroke:#C82930;stroke-width:1.0;" width="6" x="54.5" y="711.6716"/><text fill="#000000" font-family="sans-serif" font-size="14" lengthAdjust="spacing" textLength="141" x="66.5" y="718.9685">onClickSettings(): void</text><rect fill="#F24D5C" height="6" style="stroke:#C82930;stroke-width:1.0;" width="6" x="54.5" y="730.2927"/><text fill="#000000" font-family="sans-serif" font-size="14" lengthAdjust="spacing" textLength="116" x="66.5" y="737.5896">onClickQuit(): void</text></g><!--class GameViewController--><g id="elem_GameViewController"><rect codeLine="78" fill="#F1F1F1" height="159.7266" id="GameViewController" rx="2.5" ry="2.5" style="stroke:#181818;stroke-width:0.5;" width="188" x="249" y="613.24"/><ellipse cx="276.15" cy="629.24" fill="#ADD1B2" rx="11" ry="11" style="stroke:#181818;stroke-width:1.0;"/><path d="M278.9156,625.115 Q279.0719,624.8963 279.2594,624.7869 Q279.4469,624.6775 279.6656,624.6775 Q280.0406,624.6775 280.275,624.9431 Q280.5094,625.1931 280.5094,625.8025 L280.5094,627.2556 Q280.5094,627.865 280.275,628.1306 Q280.0406,628.3963 279.6656,628.3963 Q279.3219,628.3963 279.1188,628.1931 Q278.9156,628.0056 278.8063,627.49 Q278.7594,627.1306 278.5719,626.9431 Q278.2438,626.5681 277.6344,626.3494 Q277.025,626.1306 276.4,626.1306 Q275.6344,626.1306 274.9938,626.4588 Q274.3688,626.7869 273.8688,627.5369 Q273.3844,628.2869 273.3844,629.3181 L273.3844,630.4119 Q273.3844,631.6463 274.275,632.4744 Q275.1656,633.2869 276.7594,633.2869 Q277.6969,633.2869 278.3531,633.0369 Q278.7438,632.8806 279.1656,632.4431 Q279.4313,632.1775 279.5719,632.0994 Q279.7281,632.0213 279.9313,632.0213 Q280.2594,632.0213 280.5094,632.2869 Q280.775,632.5369 280.775,632.8806 Q280.775,633.2244 280.4313,633.6306 Q279.9313,634.2088 279.1344,634.5369 Q278.0563,634.99 276.7594,634.99 Q275.2438,634.99 274.0406,634.365 Q273.0563,633.865 272.3688,632.8025 Q271.6813,631.7244 271.6813,630.4431 L271.6813,629.2869 Q271.6813,627.9588 272.2906,626.8181 Q272.9156,625.6619 274.0094,625.0525 Q275.1031,624.4275 276.3375,624.4275 Q277.0719,624.4275 277.7125,624.5994 Q278.3688,624.7556 278.9156,625.115 Z " fill="#000000"/><text fill="#000000" font-family="sans-serif" font-size="14" lengthAdjust="spacing" textLength="129" x="292.85" y="635.0369">GameViewController</text><line style="stroke:#181818;stroke-width:0.5;" x1="250" x2="436" y1="645.24" y2="645.24"/><rect fill="none" height="6" style="stroke:#C82930;stroke-width:1.0;" width="6" x="257" y="657.0505"/><text fill="#000000" font-family="sans-serif" font-size="14" lengthAdjust="spacing" textLength="108" x="269" y="664.3474">pane: StackPane</text><rect fill="none" height="6" style="stroke:#C82930;stroke-width:1.0;" width="6" x="257" y="675.6716"/><text fill="#000000" font-family="sans-serif" font-size="14" lengthAdjust="spacing" textLength="101" x="269" y="682.9685">canvas: Canvas</text><rect fill="none" height="6" style="stroke:#C82930;stroke-width:1.0;" width="6" x="257" y="694.2927"/><text fill="#000000" font-family="sans-serif" font-size="14" lengthAdjust="spacing" textLength="102" x="269" y="701.5896">overlay: Canvas</text><line style="stroke:#181818;stroke-width:1.0;" x1="250" x2="436" y1="709.1033" y2="709.1033"/><ellipse cx="260" cy="723.9138" fill="#84BE84" rx="3" ry="3" style="stroke:#038048;stroke-width:1.0;"/><text fill="#000000" font-family="sans-serif" font-size="14" lengthAdjust="spacing" textLength="139" x="269" y="728.2107">getPane(): StackPane</text><ellipse cx="260" cy="742.5349" fill="#84BE84" rx="3" ry="3" style="stroke:#038048;stroke-width:1.0;"/><text fill="#000000" font-family="sans-serif" font-size="14" lengthAdjust="spacing" textLength="162" x="269" y="746.8318">getGameBoard(): Canvas</text><ellipse cx="260" cy="761.156" fill="#84BE84" rx="3" ry="3" style="stroke:#038048;stroke-width:1.0;"/><text fill="#000000" font-family="sans-serif" font-size="14" lengthAdjust="spacing" textLength="135" x="269" y="765.4529">getOverlay(): Canvas</text></g><!--class SettingsViewController--><g id="elem_SettingsViewController"><rect codeLine="88" fill="#F1F1F1" height="122.4844" id="SettingsViewController" rx="2.5" ry="2.5" style="stroke:#181818;stroke-width:0.5;" width="271" x="472.5" y="632.24"/><ellipse cx="532.75" cy="648.24" fill="#ADD1B2" rx="11" ry="11" style="stroke:#181818;stroke-width:1.0;"/><path d="M535.5156,644.115 Q535.6719,643.8963 535.8594,643.7869 Q536.0469,643.6775 536.2656,643.6775 Q536.6406,643.6775 536.875,643.9431 Q537.1094,644.1931 537.1094,644.8025 L537.1094,646.2556 Q537.1094,646.865 536.875,647.1306 Q536.6406,647.3963 536.2656,647.3963 Q535.9219,647.3963 535.7188,647.1931 Q535.5156,647.0056 535.4063,646.49 Q535.3594,646.1306 535.1719,645.9431 Q534.8438,645.5681 534.2344,645.3494 Q533.625,645.1306 533,645.1306 Q532.2344,645.1306 531.5938,645.4588 Q530.9688,645.7869 530.4688,646.5369 Q529.9844,647.2869 529.9844,648.3181 L529.9844,649.4119 Q529.9844,650.6463 530.875,651.4744 Q531.7656,652.2869 533.3594,652.2869 Q534.2969,652.2869 534.9531,652.0369 Q535.3438,651.8806 535.7656,651.4431 Q536.0313,651.1775 536.1719,651.0994 Q536.3281,651.0213 536.5313,651.0213 Q536.8594,651.0213 537.1094,651.2869 Q537.375,651.5369 537.375,651.8806 Q537.375,652.2244 537.0313,652.6306 Q536.5313,653.2088 535.7344,653.5369 Q534.6563,653.99 533.3594,653.99 Q531.8438,653.99 530.6406,653.365 Q529.6563,652.865 528.9688,651.8025 Q528.2813,650.7244 528.2813,649.4431 L528.2813,648.2869 Q528.2813,646.9588 528.8906,645.8181 Q529.5156,644.6619 530.6094,644.0525 Q531.7031,643.4275 532.9375,643.4275 Q533.6719,643.4275 534.3125,643.5994 Q534.9688,643.7556 535.5156,644.115 Z " fill="#000000"/><text fill="#000000" font-family="sans-serif" font-size="14" lengthAdjust="spacing" textLength="142" x="553.25" y="654.0369">SettingsViewController</text><line style="stroke:#181818;stroke-width:0.5;" x1="473.5" x2="742.5" y1="664.24" y2="664.24"/><rect fill="none" height="6" style="stroke:#C82930;stroke-width:1.0;" width="6" x="480.5" y="676.0505"/><text fill="#000000" font-family="sans-serif" font-size="14" lengthAdjust="spacing" textLength="197" x="492.5" y="683.3474">fullScreenCheckBox: CheckBox</text><line style="stroke:#181818;stroke-width:1.0;" x1="473.5" x2="742.5" y1="690.8611" y2="690.8611"/><ellipse cx="483.5" cy="705.6716" fill="#84BE84" rx="3" ry="3" style="stroke:#038048;stroke-width:1.0;"/><text fill="#000000" font-family="sans-serif" font-size="14" lengthAdjust="spacing" textLength="245" x="492.5" y="709.9685">setFullScreenCheckBox(boolean): void</text><rect fill="#F24D5C" height="6" style="stroke:#C82930;stroke-width:1.0;" width="6" x="480.5" y="721.2927"/><text fill="#000000" font-family="sans-serif" font-size="14" lengthAdjust="spacing" textLength="172" x="492.5" y="728.5896">onFullScreenToggle(): void</text><rect fill="#F24D5C" height="6" style="stroke:#C82930;stroke-width:1.0;" width="6" x="480.5" y="739.9138"/><text fill="#000000" font-family="sans-serif" font-size="14" lengthAdjust="spacing" textLength="121" x="492.5" y="747.2107">onClickBack(): void</text></g><!--class HomeView--><g id="elem_HomeView"><rect codeLine="96" fill="#F1F1F1" height="85.2422" id="HomeView" rx="2.5" ry="2.5" style="stroke:#181818;stroke-width:0.5;" width="222" x="779" y="650.74"/><ellipse cx="853.25" cy="666.74" fill="#ADD1B2" rx="11" ry="11" style="stroke:#181818;stroke-width:1.0;"/><path d="M856.0156,662.615 Q856.1719,662.3963 856.3594,662.2869 Q856.5469,662.1775 856.7656,662.1775 Q857.1406,662.1775 857.375,662.4431 Q857.6094,662.6931 857.6094,663.3025 L857.6094,664.7556 Q857.6094,665.365 857.375,665.6306 Q857.1406,665.8963 856.7656,665.8963 Q856.4219,665.8963 856.2188,665.6931 Q856.0156,665.5056 855.9063,664.99 Q855.8594,664.6306 855.6719,664.4431 Q855.3438,664.0681 854.7344,663.8494 Q854.125,663.6306 853.5,663.6306 Q852.7344,663.6306 852.0938,663.9588 Q851.4688,664.2869 850.9688,665.0369 Q850.4844,665.7869 850.4844,666.8181 L850.4844,667.9119 Q850.4844,669.1463 851.375,669.9744 Q852.2656,670.7869 853.8594,670.7869 Q854.7969,670.7869 855.4531,670.5369 Q855.8438,670.3806 856.2656,669.9431 Q856.5313,669.6775 856.6719,669.5994 Q856.8281,669.5213 857.0313,669.5213 Q857.3594,669.5213 857.6094,669.7869 Q857.875,670.0369 857.875,670.3806 Q857.875,670.7244 857.5313,671.1306 Q857.0313,671.7088 856.2344,672.0369 Q855.1563,672.49 853.8594,672.49 Q852.3438,672.49 851.1406,671.865 Q850.1563,671.365 849.4688,670.3025 Q848.7813,669.2244 848.7813,667.9431 L848.7813,666.7869 Q848.7813,665.4588 849.3906,664.3181 Q850.0156,663.1619 851.1094,662.5525 Q852.2031,661.9275 853.4375,661.9275 Q854.1719,661.9275 854.8125,662.0994 Q855.4688,662.2556 856.0156,662.615 Z " fill="#000000"/><text fill="#000000" font-family="sans-serif" font-size="14" lengthAdjust="spacing" textLength="65" x="873.75" y="672.5369">HomeView</text><line style="stroke:#181818;stroke-width:0.5;" x1="780" x2="1000" y1="682.74" y2="682.74"/><line style="stroke:#181818;stroke-width:0.5;" x1="780" x2="1000" y1="690.74" y2="690.74"/><ellipse cx="790" cy="705.5505" fill="#84BE84" rx="3" ry="3" style="stroke:#038048;stroke-width:1.0;"/><text fill="#000000" font-family="sans-serif" font-size="14" lengthAdjust="spacing" textLength="75" x="799" y="709.8474">HomeView()</text><ellipse cx="790" cy="724.1716" fill="#84BE84" rx="3" ry="3" style="stroke:#038048;stroke-width:1.0;"/><text fill="#000000" font-family="sans-serif" font-size="14" lengthAdjust="spacing" textLength="196" x="799" y="728.4685">onKeyPressed(KeyEvent): void</text></g><!--class GameView--><g id="elem_GameView"><rect codeLine="101" fill="#F1F1F1" height="159.7266" id="GameView" rx="2.5" ry="2.5" style="stroke:#181818;stroke-width:0.5;" width="275" x="1204.5" y="613.24"/><ellipse cx="1304.25" cy="629.24" fill="#ADD1B2" rx="11" ry="11" style="stroke:#181818;stroke-width:1.0;"/><path d="M1307.0156,625.115 Q1307.1719,624.8963 1307.3594,624.7869 Q1307.5469,624.6775 1307.7656,624.6775 Q1308.1406,624.6775 1308.375,624.9431 Q1308.6094,625.1931 1308.6094,625.8025 L1308.6094,627.2556 Q1308.6094,627.865 1308.375,628.1306 Q1308.1406,628.3963 1307.7656,628.3963 Q1307.4219,628.3963 1307.2188,628.1931 Q1307.0156,628.0056 1306.9063,627.49 Q1306.8594,627.1306 1306.6719,626.9431 Q1306.3438,626.5681 1305.7344,626.3494 Q1305.125,626.1306 1304.5,626.1306 Q1303.7344,626.1306 1303.0938,626.4588 Q1302.4688,626.7869 1301.9688,627.5369 Q1301.4844,628.2869 1301.4844,629.3181 L1301.4844,630.4119 Q1301.4844,631.6463 1302.375,632.4744 Q1303.2656,633.2869 1304.8594,633.2869 Q1305.7969,633.2869 1306.4531,633.0369 Q1306.8438,632.8806 1307.2656,632.4431 Q1307.5313,632.1775 1307.6719,632.0994 Q1307.8281,632.0213 1308.0313,632.0213 Q1308.3594,632.0213 1308.6094,632.2869 Q1308.875,632.5369 1308.875,632.8806 Q1308.875,633.2244 1308.5313,633.6306 Q1308.0313,634.2088 1307.2344,634.5369 Q1306.1563,634.99 1304.8594,634.99 Q1303.3438,634.99 1302.1406,634.365 Q1301.1563,633.865 1300.4688,632.8025 Q1299.7813,631.7244 1299.7813,630.4431 L1299.7813,629.2869 Q1299.7813,627.9588 1300.3906,626.8181 Q1301.0156,625.6619 1302.1094,625.0525 Q1303.2031,624.4275 1304.4375,624.4275 Q1305.1719,624.4275 1305.8125,624.5994 Q1306.4688,624.7556 1307.0156,625.115 Z " fill="#000000"/><text fill="#000000" font-family="sans-serif" font-size="14" lengthAdjust="spacing" textLength="67" x="1324.75" y="635.0369">GameView</text><line style="stroke:#181818;stroke-width:0.5;" x1="1205.5" x2="1478.5" y1="645.24" y2="645.24"/><line style="stroke:#181818;stroke-width:0.5;" x1="1205.5" x2="1478.5" y1="653.24" y2="653.24"/><ellipse cx="1215.5" cy="668.0505" fill="#84BE84" rx="3" ry="3" style="stroke:#038048;stroke-width:1.0;"/><text fill="#000000" font-family="sans-serif" font-size="14" lengthAdjust="spacing" textLength="77" x="1224.5" y="672.3474">GameView()</text><ellipse cx="1215.5" cy="686.6716" fill="#84BE84" rx="3" ry="3" style="stroke:#038048;stroke-width:1.0;"/><text fill="#000000" font-family="sans-serif" font-size="14" lengthAdjust="spacing" textLength="151" x="1224.5" y="690.9685">onViewDisplayed(): void</text><ellipse cx="1215.5" cy="705.2927" fill="#84BE84" rx="3" ry="3" style="stroke:#038048;stroke-width:1.0;"/><text fill="#000000" font-family="sans-serif" font-size="14" lengthAdjust="spacing" textLength="86" x="1224.5" y="709.5896">render(): void</text><rect fill="#F24D5C" height="6" style="stroke:#C82930;stroke-width:1.0;" width="6" x="1212.5" y="720.9138"/><text fill="#000000" font-family="sans-serif" font-size="14" lengthAdjust="spacing" textLength="249" x="1224.5" y="728.2107">drawGameBoard(Canvas, double): void</text><rect fill="#F24D5C" height="6" style="stroke:#C82930;stroke-width:1.0;" width="6" x="1212.5" y="739.5349"/><text fill="#000000" font-family="sans-serif" font-size="14" lengthAdjust="spacing" textLength="171" x="1224.5" y="746.8318">drawOverlay(Canvas): void</text><rect fill="#F24D5C" height="6" style="stroke:#C82930;stroke-width:1.0;" width="6" x="1212.5" y="758.156"/><text fill="#000000" font-family="sans-serif" font-size="14" lengthAdjust="spacing" textLength="171" x="1224.5" y="765.4529">clearCanvas(Canvas): void</text></g><!--class SettingsView--><g id="elem_SettingsView"><rect codeLine="110" fill="#F1F1F1" height="85.2422" id="SettingsView" rx="2.5" ry="2.5" style="stroke:#181818;stroke-width:0.5;" width="133" x="1036.5" y="650.74"/><ellipse cx="1060.95" cy="666.74" fill="#ADD1B2" rx="11" ry="11" style="stroke:#181818;stroke-width:1.0;"/><path d="M1063.7156,662.615 Q1063.8719,662.3963 1064.0594,662.2869 Q1064.2469,662.1775 1064.4656,662.1775 Q1064.8406,662.1775 1065.075,662.4431 Q1065.3094,662.6931 1065.3094,663.3025 L1065.3094,664.7556 Q1065.3094,665.365 1065.075,665.6306 Q1064.8406,665.8963 1064.4656,665.8963 Q1064.1219,665.8963 1063.9188,665.6931 Q1063.7156,665.5056 1063.6063,664.99 Q1063.5594,664.6306 1063.3719,664.4431 Q1063.0438,664.0681 1062.4344,663.8494 Q1061.825,663.6306 1061.2,663.6306 Q1060.4344,663.6306 1059.7938,663.9588 Q1059.1688,664.2869 1058.6688,665.0369 Q1058.1844,665.7869 1058.1844,666.8181 L1058.1844,667.9119 Q1058.1844,669.1463 1059.075,669.9744 Q1059.9656,670.7869 1061.5594,670.7869 Q1062.4969,670.7869 1063.1531,670.5369 Q1063.5438,670.3806 1063.9656,669.9431 Q1064.2313,669.6775 1064.3719,669.5994 Q1064.5281,669.5213 1064.7313,669.5213 Q1065.0594,669.5213 1065.3094,669.7869 Q1065.575,670.0369 1065.575,670.3806 Q1065.575,670.7244 1065.2313,671.1306 Q1064.7313,671.7088 1063.9344,672.0369 Q1062.8563,672.49 1061.5594,672.49 Q1060.0438,672.49 1058.8406,671.865 Q1057.8563,671.365 1057.1688,670.3025 Q1056.4813,669.2244 1056.4813,667.9431 L1056.4813,666.7869 Q1056.4813,665.4588 1057.0906,664.3181 Q1057.7156,663.1619 1058.8094,662.5525 Q1059.9031,661.9275 1061.1375,661.9275 Q1061.8719,661.9275 1062.5125,662.0994 Q1063.1688,662.2556 1063.7156,662.615 Z " fill="#000000"/><text fill="#000000" font-family="sans-serif" font-size="14" lengthAdjust="spacing" textLength="80" x="1077.05" y="672.5369">SettingsView</text><line style="stroke:#181818;stroke-width:0.5;" x1="1037.5" x2="1168.5" y1="682.74" y2="682.74"/><line style="stroke:#181818;stroke-width:0.5;" x1="1037.5" x2="1168.5" y1="690.74" y2="690.74"/><ellipse cx="1047.5" cy="705.5505" fill="#84BE84" rx="3" ry="3" style="stroke:#038048;stroke-width:1.0;"/><text fill="#000000" font-family="sans-serif" font-size="14" lengthAdjust="spacing" textLength="90" x="1056.5" y="709.8474">SettingsView()</text><ellipse cx="1047.5" cy="724.1716" fill="#84BE84" rx="3" ry="3" style="stroke:#038048;stroke-width:1.0;"/><text fill="#000000" font-family="sans-serif" font-size="14" lengthAdjust="spacing" textLength="107" x="1056.5" y="728.4685">onViewInit(): void</text></g><!--class GUIController--><g id="elem_GUIController"><rect codeLine="122" fill="#F1F1F1" height="66.6211" id="GUIController" rx="2.5" ry="2.5" style="stroke:#181818;stroke-width:0.5;" width="141" x="1323.5" y="1119.24"/><ellipse cx="1349.3" cy="1135.24" fill="#ADD1B2" rx="11" ry="11" style="stroke:#181818;stroke-width:1.0;"/><path d="M1352.0656,1131.115 Q1352.2219,1130.8963 1352.4094,1130.7869 Q1352.5969,1130.6775 1352.8156,1130.6775 Q1353.1906,1130.6775 1353.425,1130.9431 Q1353.6594,1131.1931 1353.6594,1131.8025 L1353.6594,1133.2556 Q1353.6594,1133.865 1353.425,1134.1306 Q1353.1906,1134.3963 1352.8156,1134.3963 Q1352.4719,1134.3963 1352.2688,1134.1931 Q1352.0656,1134.0056 1351.9563,1133.49 Q1351.9094,1133.1306 1351.7219,1132.9431 Q1351.3938,1132.5681 1350.7844,1132.3494 Q1350.175,1132.1306 1349.55,1132.1306 Q1348.7844,1132.1306 1348.1438,1132.4588 Q1347.5188,1132.7869 1347.0188,1133.5369 Q1346.5344,1134.2869 1346.5344,1135.3181 L1346.5344,1136.4119 Q1346.5344,1137.6463 1347.425,1138.4744 Q1348.3156,1139.2869 1349.9094,1139.2869 Q1350.8469,1139.2869 1351.5031,1139.0369 Q1351.8938,1138.8806 1352.3156,1138.4431 Q1352.5813,1138.1775 1352.7219,1138.0994 Q1352.8781,1138.0213 1353.0813,1138.0213 Q1353.4094,1138.0213 1353.6594,1138.2869 Q1353.925,1138.5369 1353.925,1138.8806 Q1353.925,1139.2244 1353.5813,1139.6306 Q1353.0813,1140.2088 1352.2844,1140.5369 Q1351.2063,1140.99 1349.9094,1140.99 Q1348.3938,1140.99 1347.1906,1140.365 Q1346.2063,1139.865 1345.5188,1138.8025 Q1344.8313,1137.7244 1344.8313,1136.4431 L1344.8313,1135.2869 Q1344.8313,1133.9588 1345.4406,1132.8181 Q1346.0656,1131.6619 1347.1594,1131.0525 Q1348.2531,1130.4275 1349.4875,1130.4275 Q1350.2219,1130.4275 1350.8625,1130.5994 Q1351.5188,1130.7556 1352.0656,1131.115 Z " fill="#000000"/><text fill="#000000" font-family="sans-serif" font-size="14" lengthAdjust="spacing" textLength="85" x="1365.7" y="1141.0369">GUIController</text><line style="stroke:#181818;stroke-width:0.5;" x1="1324.5" x2="1463.5" y1="1151.24" y2="1151.24"/><line style="stroke:#181818;stroke-width:0.5;" x1="1324.5" x2="1463.5" y1="1159.24" y2="1159.24"/><ellipse cx="1334.5" cy="1174.0505" fill="#84BE84" rx="3" ry="3" style="stroke:#038048;stroke-width:1.0;"/><text fill="#000000" font-family="sans-serif" font-size="14" lengthAdjust="spacing" textLength="115" x="1343.5" y="1178.3474">update(long): void</text></g><!--class GUIEngine--><g id="elem_GUIEngine"><rect codeLine="126" fill="#F1F1F1" height="159.7266" id="GUIEngine" rx="2.5" ry="2.5" style="stroke:#181818;stroke-width:0.5;" width="171" x="1308.5" y="898.24"/><ellipse cx="1356.25" cy="914.24" fill="#ADD1B2" rx="11" ry="11" style="stroke:#181818;stroke-width:1.0;"/><path d="M1359.0156,910.115 Q1359.1719,909.8963 1359.3594,909.7869 Q1359.5469,909.6775 1359.7656,909.6775 Q1360.1406,909.6775 1360.375,909.9431 Q1360.6094,910.1931 1360.6094,910.8025 L1360.6094,912.2556 Q1360.6094,912.865 1360.375,913.1306 Q1360.1406,913.3963 1359.7656,913.3963 Q1359.4219,913.3963 1359.2188,913.1931 Q1359.0156,913.0056 1358.9063,912.49 Q1358.8594,912.1306 1358.6719,911.9431 Q1358.3438,911.5681 1357.7344,911.3494 Q1357.125,911.1306 1356.5,911.1306 Q1355.7344,911.1306 1355.0938,911.4588 Q1354.4688,911.7869 1353.9688,912.5369 Q1353.4844,913.2869 1353.4844,914.3181 L1353.4844,915.4119 Q1353.4844,916.6463 1354.375,917.4744 Q1355.2656,918.2869 1356.8594,918.2869 Q1357.7969,918.2869 1358.4531,918.0369 Q1358.8438,917.8806 1359.2656,917.4431 Q1359.5313,917.1775 1359.6719,917.0994 Q1359.8281,917.0213 1360.0313,917.0213 Q1360.3594,917.0213 1360.6094,917.2869 Q1360.875,917.5369 1360.875,917.8806 Q1360.875,918.2244 1360.5313,918.6306 Q1360.0313,919.2088 1359.2344,919.5369 Q1358.1563,919.99 1356.8594,919.99 Q1355.3438,919.99 1354.1406,919.365 Q1353.1563,918.865 1352.4688,917.8025 Q1351.7813,916.7244 1351.7813,915.4431 L1351.7813,914.2869 Q1351.7813,912.9588 1352.3906,911.8181 Q1353.0156,910.6619 1354.1094,910.0525 Q1355.2031,909.4275 1356.4375,909.4275 Q1357.1719,909.4275 1357.8125,909.5994 Q1358.4688,909.7556 1359.0156,910.115 Z " fill="#000000"/><text fill="#000000" font-family="sans-serif" font-size="14" lengthAdjust="spacing" textLength="67" x="1376.75" y="920.0369">GUIEngine</text><line style="stroke:#181818;stroke-width:0.5;" x1="1309.5" x2="1478.5" y1="930.24" y2="930.24"/><rect fill="none" height="6" style="stroke:#C82930;stroke-width:1.0;" width="6" x="1316.5" y="942.0505"/><text fill="#000000" font-family="sans-serif" font-size="14" lengthAdjust="spacing" textLength="133" x="1328.5" y="949.3474">AnimationTimer timer</text><line style="stroke:#181818;stroke-width:1.0;" x1="1309.5" x2="1478.5" y1="956.8611" y2="956.8611"/><ellipse cx="1319.5" cy="971.6716" fill="#84BE84" rx="3" ry="3" style="stroke:#038048;stroke-width:1.0;"/><text fill="#000000" font-family="sans-serif" font-size="14" lengthAdjust="spacing" textLength="92" x="1328.5" y="975.9685">tick(long): void</text><ellipse cx="1319.5" cy="990.2927" fill="#84BE84" rx="3" ry="3" style="stroke:#038048;stroke-width:1.0;"/><text fill="#000000" font-family="sans-serif" font-size="14" lengthAdjust="spacing" textLength="72" x="1328.5" y="994.5896">start(): void</text><ellipse cx="1319.5" cy="1008.9138" fill="#84BE84" rx="3" ry="3" style="stroke:#038048;stroke-width:1.0;"/><text fill="#000000" font-family="sans-serif" font-size="14" lengthAdjust="spacing" textLength="71" x="1328.5" y="1013.2107">stop(): void</text><ellipse cx="1319.5" cy="1027.5349" fill="#84BE84" rx="3" ry="3" style="stroke:#038048;stroke-width:1.0;"/><text fill="#000000" font-family="sans-serif" font-size="14" lengthAdjust="spacing" textLength="145" x="1328.5" y="1031.8318">getComputedFPS(): int</text><ellipse cx="1319.5" cy="1046.156" fill="#84BE84" rx="3" ry="3" style="stroke:#038048;stroke-width:1.0;"/><text fill="#000000" font-family="sans-serif" font-size="14" lengthAdjust="spacing" textLength="80" x="1328.5" y="1050.4529">getFPS(): int</text></g><!--link GameInterface to Engine--><g id="link_GameInterface_Engine"><path codeLine="139" d="M1686.05,409.74 C1704.7,409.74 1725.36,409.74 1744.89,409.74 " fill="none" id="GameInterface-Engine" style="stroke:#181818;stroke-width:1.0;"/><polygon fill="none" points="1709.5,392.8855,1713.5,396.8855,1709.5,400.8855,1705.5,396.8855" style="stroke:#B38D22;stroke-width:1.0;"/><text fill="#000000" font-family="sans-serif" font-size="13" lengthAdjust="spacing" textLength="10" x="1716.5" y="402.7683">ui</text><text fill="#000000" font-family="sans-serif" font-size="13" lengthAdjust="spacing" textLength="7" x="1694.1608" y="405.7732">1</text></g><!--link Engine to GameController--><g id="link_Engine_GameController"><path codeLine="140" d="M1903.07,409.74 C1935.69,409.74 1973.18,409.74 2004.81,409.74 " fill="none" id="Engine-GameController" style="stroke:#181818;stroke-width:1.0;"/><polygon fill="none" points="1926.5,392.8855,1930.5,396.8855,1926.5,400.8855,1922.5,396.8855" style="stroke:#B38D22;stroke-width:1.0;"/><text fill="#000000" font-family="sans-serif" font-size="13" lengthAdjust="spacing" textLength="53" x="1933.5" y="402.7683">controller</text><text fill="#000000" font-family="sans-serif" font-size="13" lengthAdjust="spacing" textLength="7" x="1990.2107" y="405.8943">1</text></g><!--link CLIController to GameController--><g id="link_CLIController_GameController"><path codeLine="143" d="M2007,204.33 C2022.89,252.1 2040.6494,305.4699 2055.4394,349.9399 " fill="none" id="CLIController-to-GameController" style="stroke:#181818;stroke-width:1.0;"/><polygon fill="none" points="2061.12,367.02,2061.1328,348.0463,2049.746,351.8334,2061.12,367.02" style="stroke:#181818;stroke-width:1.0;"/></g><!--link CLIEngine to Engine--><g id="link_CLIEngine_Engine"><path codeLine="144" d="M1824.8,204.33 C1824.64,245.83 1824.4798,286.4701 1824.3098,330.3001 " fill="none" id="CLIEngine-to-Engine" style="stroke:#181818;stroke-width:1.0;"/><polygon fill="none" points="1824.24,348.3,1830.3098,330.3234,1818.3099,330.2769,1824.24,348.3" style="stroke:#181818;stroke-width:1.0;"/></g><!--link CLI to GameInterface--><g id="link_CLI_GameInterface"><path codeLine="145" d="M1623,185.86 C1623,234.83 1623,308.82 1623,357.91 " fill="none" id="CLI-to-GameInterface" style="stroke:#181818;stroke-width:1.0;stroke-dasharray:7.0,7.0;"/><polygon fill="none" points="1623,375.91,1629,357.91,1617,357.91,1623,375.91" style="stroke:#181818;stroke-width:1.0;"/></g><!--link CLI to CLIController--><g id="link_CLI_CLIController"><path codeLine="146" d="M1647.64,118.5 C1670.37,90.48 1706.9,52.67 1749,36.24 C1812.35,11.52 1841.1,6 1902,36.24 C1929.17,49.73 1950.2,76.06 1964.88,100.23 " fill="none" id="CLI-CLIController" style="stroke:#181818;stroke-width:1.0;"/><rect fill="none" height="6" style="stroke:#C82930;stroke-width:1.0;" width="6" x="1768.5" y="14.3855"/><text fill="#000000" font-family="sans-serif" font-size="13" lengthAdjust="spacing" textLength="53" x="1778.5" y="22.2683">controller</text><text fill="#000000" font-family="sans-serif" font-size="13" lengthAdjust="spacing" textLength="7" x="1954.0342" y="89.156">1</text></g><!--link CLI to CLIEngine--><g id="link_CLI_CLIEngine"><path codeLine="147" d="M1679,152.24 C1705.97,152.24 1738.32,152.24 1765.71,152.24 " fill="none" id="CLI-CLIEngine" style="stroke:#181818;stroke-width:1.0;"/><rect fill="none" height="6" style="stroke:#C82930;stroke-width:1.0;" width="6" x="1699.5" y="137.3855"/><text fill="#000000" font-family="sans-serif" font-size="13" lengthAdjust="spacing" textLength="38" x="1709.5" y="145.2683">engine</text><text fill="#000000" font-family="sans-serif" font-size="13" lengthAdjust="spacing" textLength="7" x="1751.0575" y="148.2584">1</text></g><!--reverse link GameController to GUIController--><g id="link_GameController_GUIController"><path codeLine="150" d="M2029.0471,466.06 C1941.6071,570.84 1713.99,839.44 1497,1058.24 C1476.25,1079.16 1451.89,1101.38 1432.07,1118.9 " fill="none" id="GameController-backto-GUIController" style="stroke:#181818;stroke-width:1.0;"/><polygon fill="none" points="2040.58,452.24,2024.4404,462.2157,2033.6537,469.9043,2040.58,452.24" style="stroke:#181818;stroke-width:1.0;"/></g><!--reverse link Engine to GUIEngine--><g id="link_Engine_GUIEngine"><path codeLine="151" d="M1767.5072,485.1675 C1689.4772,587.9675 1541.27,783.22 1454.22,897.9 " fill="none" id="Engine-backto-GUIEngine" style="stroke:#181818;stroke-width:1.0;"/><polygon fill="none" points="1778.39,470.83,1762.728,481.5399,1772.2863,488.7951,1778.39,470.83" style="stroke:#181818;stroke-width:1.0;"/></g><!--reverse link GameInterface to GameView--><g id="link_GameInterface_GameView"><path codeLine="152" d="M1577.7729,456.0487 C1536.6029,497.2887 1476.99,557.01 1420.94,613.16 " fill="none" id="GameInterface-backto-GameView" style="stroke:#181818;stroke-width:1.0;stroke-dasharray:7.0,7.0;"/><polygon fill="none" points="1590.49,443.31,1573.5267,451.8097,1582.0191,460.2878,1590.49,443.31" style="stroke:#181818;stroke-width:1.0;"/></g><!--link GameView to GUIController--><g id="link_GameView_GUIController"><path codeLine="153" d="M1258.34,773.39 C1244.28,791.28 1231.75,811.24 1224,832.24 C1189.21,926.47 1172.88,971.78 1224,1058.24 C1245.52,1094.63 1286.79,1117.81 1323.28,1131.99 " fill="none" id="GameView-GUIController" style="stroke:#181818;stroke-width:1.0;"/><rect fill="none" height="6" style="stroke:#C82930;stroke-width:1.0;" width="6" x="1227" y="975.8855"/><text fill="#000000" font-family="sans-serif" font-size="13" lengthAdjust="spacing" textLength="53" x="1237" y="983.7683">controller</text><text fill="#000000" font-family="sans-serif" font-size="13" lengthAdjust="spacing" textLength="7" x="1308.6261" y="1126.0365">1</text></g><!--link GameView to GUIEngine--><g id="link_GameView_GUIEngine"><path codeLine="154" d="M1356.55,773.45 C1363.7,812.36 1372.3,859.14 1379.45,898.05 " fill="none" id="GameView-GUIEngine" style="stroke:#181818;stroke-width:1.0;"/><rect fill="none" height="6" style="stroke:#C82930;stroke-width:1.0;" width="6" x="1367" y="812.3855"/><text fill="#000000" font-family="sans-serif" font-size="13" lengthAdjust="spacing" textLength="38" x="1377" y="820.2683">engine</text><text fill="#000000" font-family="sans-serif" font-size="13" lengthAdjust="spacing" textLength="7" x="1370.786" y="886.9282">1</text></g><!--link GUIEngine to GUIController--><!--link ViewController to View--><g id="link_ViewController_View"><path codeLine="157" d="M504.68,409.74 C594.3,409.74 762.1,409.74 874.96,409.74 " fill="none" id="ViewController-View" style="stroke:#181818;stroke-width:1.0;"/><polygon fill="none" points="662.25,392.8855,666.25,396.8855,662.25,400.8855,658.25,396.8855" style="stroke:#B38D22;stroke-width:1.0;"/><text fill="#000000" font-family="sans-serif" font-size="13" lengthAdjust="spacing" textLength="53" x="669.25" y="402.7683">controller</text><text fill="#000000" font-family="sans-serif" font-size="13" lengthAdjust="spacing" textLength="7" x="512.6238" y="405.7501">1</text></g><!--link View to ViewManager--><g id="link_View_ViewManager"><path codeLine="158" d="M1105.13,409.74 C1131.01,409.74 1158.47,409.74 1184.29,409.74 " fill="none" id="View-ViewManager" style="stroke:#181818;stroke-width:1.0;"/><rect fill="none" height="6" style="stroke:#C82930;stroke-width:1.0;" width="6" x="1125.25" y="394.8855"/><text fill="#000000" font-family="sans-serif" font-size="13" lengthAdjust="spacing" textLength="31" x="1135.25" y="402.7683">views</text><text fill="#000000" font-family="sans-serif" font-size="13" lengthAdjust="spacing" textLength="5" x="1113.0333" y="406.1953">*</text></g><!--reverse link ViewController to HomeViewController--><g id="link_ViewController_HomeViewController"><path codeLine="161" d="M418.7527,448.715 C403.9227,470.855 388.74,488.81 359,508.24 C309.57,540.54 279.79,512.56 232,547.24 C198.75,571.38 172.44,609.77 154.87,640.99 " fill="none" id="ViewController-backto-HomeViewController" style="stroke:#181818;stroke-width:1.0;"/><polygon fill="none" points="428.77,433.76,413.7677,445.3759,423.7377,452.0542,428.77,433.76" style="stroke:#181818;stroke-width:1.0;"/></g><!--reverse link View to HomeView--><g id="link_View_HomeView"><path codeLine="162" d="M952.6063,516.0022 C934.6263,566.6322 918.91,610.86 904.78,650.62 " fill="none" id="View-backto-HomeView" style="stroke:#181818;stroke-width:1.0;"/><polygon fill="none" points="958.63,499.04,946.9522,513.9943,958.2604,518.0101,958.63,499.04" style="stroke:#181818;stroke-width:1.0;"/></g><!--reverse link ViewController to GameViewController--><g id="link_ViewController_GameViewController"><path codeLine="163" d="M428.794,450.7413 C415.034,489.4713 392.67,552.41 371.08,613.19 " fill="none" id="ViewController-backto-GameViewController" style="stroke:#181818;stroke-width:1.0;"/><polygon fill="none" points="434.82,433.78,423.1402,448.7327,434.4478,452.75,434.82,433.78" style="stroke:#181818;stroke-width:1.0;"/></g><!--reverse link View to GameView--><g id="link_View_GameView"><path codeLine="164" d="M1119.8523,496.5992 C1147.2723,515.7292 1161.26,526.47 1187,547.24 C1212.23,567.6 1238.44,591.1 1261.96,613.17 " fill="none" id="View-backto-GameView" style="stroke:#181818;stroke-width:1.0;"/><polygon fill="none" points="1105.09,486.3,1116.4193,501.52,1123.2854,491.6784,1105.09,486.3" style="stroke:#181818;stroke-width:1.0;"/></g><!--reverse link ViewController to SettingsViewController--><g id="link_ViewController_SettingsViewController"><path codeLine="165" d="M465.6041,449.3079 C490.7741,492.2379 536.49,570.23 572.81,632.21 " fill="none" id="ViewController-backto-SettingsViewController" style="stroke:#181818;stroke-width:1.0;"/><polygon fill="none" points="456.5,433.78,460.4281,452.3426,470.78,446.2732,456.5,433.78" style="stroke:#181818;stroke-width:1.0;"/></g><!--reverse link View to SettingsView--><g id="link_View_SettingsView"><path codeLine="166" d="M1032.1472,515.7437 C1052.4772,566.3737 1070.33,610.86 1086.29,650.62 " fill="none" id="View-backto-SettingsView" style="stroke:#181818;stroke-width:1.0;"/><polygon fill="none" points="1025.44,499.04,1026.5793,517.9794,1037.7151,513.508,1025.44,499.04" style="stroke:#181818;stroke-width:1.0;"/></g><!--SRC=[bLPBSzCm4BxxLsZWW4lhpd3DWHaQGib0eTGf71WEghrrDNKa8yifJCb_PsKficpBxZG7n_P- -z2t3sz5itjQ005UC0xaCIBuepUraZHJ92jfNPDpkeMbu4gAiWHfCVhtabm8dWFPwgjxcoJkzfWy7cpjILFbL45S2buSBSXEiBp5xQEGpvKVZp5bNiKDEo6PY-OexAjMLAhOTnE0Y6eUeLXsFnKkumhaBSsWPMVjdlo09I0jCkvhetvbESzAPl7cpClFwo3DnvF7cJZ3FDFEMO3ZPpgQOyYvUHOdHSF2HVYTmKElz2ufsb942g72fLU0kaAXzcMmdWmulIb1YrSxbDI1imckNQuvKvF2zwokIleNyY3Y4_ozb53NACRRriy4x0fAe5EuS7zeztwnM1JmPak-hrS_Ke-hZrylLkxX_9ttaAusc_MNytISDst_Wd9CYL-92Nd42i6ixx41y8vdiF2X7X2b1GfJ_HVAJ-BhnRqsFhZ01Awj5qrmo0zM9gZMHznUnmHBA5YDtQcruvQPazRI6CdfZXNODnjXS6F4xsPG39QoG_7kq6xjqMMe_2YsC4oNWnWg15-Ms4ffiFlw452AyQAUHtrh0bLhW-q2qvFhYS0goaqIi_jBl1r8Cyftj5wGPVi_36K74fiZB4rwZsslQliwvh2p5g83FXDKjlqMCDk2lXg_0SY8W0EPJv1msvHbcaa0lho3xFvC_47Jzcx-M5YS7qRAyOqGsEzyAeETnaOKHGdpgJv3jfvEzQ461sSxTWAl0vynloPBQkJd80ZucP-aav-DZebSqeUkD4pIJqWk6Xpnqng7EZ7uC2x3F4a3cC3DrjI81LyumKJmWxCV3-Yqaan1RpQdIg9nqaZcpIo3Y_7bKMXamN07i7cyNaysnEH-4Qw8w_6UOS9znzaM1xtW6xP59qfVvzifk6uyjRpCB31kPYp5jceKv1ykKmrYtgxWC07PljjVNbac8tlOf8HRbRnuysAm7ovmSscOGqbMt7KmZtADwxPSRH-tnQY_8IQvUE39lxS3tQXRxHp2F6i9ETNlJgsM2wmLUU7qFIrqB_GS3B3MdyPP7Z1YtEMYVY4bJHM8joiHAxVHkc5osbJZW9qqCVnTpmGyneu3zgBG3FsyOtaE_5VIjnn5nevBx-3RCSYRlqPPdTT6ftNTBWoMAliGs1OiA_st3kYBey0dFQpTCU9fJtmFmnPwWywtyXy0]--></g></svg>