<?xml version="1.0" encoding="us-ascii" standalone="no"?><svg xmlns="http://www.w3.org/2000/svg" xmlns:xlink="http://www.w3.org/1999/xlink" contentStyleType="text/css" height="1031.2px" preserveAspectRatio="none" style="width:1734px;height:1031px;background:#FFFFFF;" version="1.1" viewBox="0 0 1734 1031" width="1734.4px" zoomAndPan="magnify"><defs/><g><!--cluster engine--><g id="cluster_engine"><path d="M1237.2,254.992 L1277.2,254.992 A3,3 0 0 1 1279.2,256.992 L1284.8,274.6889 L1726.8,274.6889 A2,2 0 0 1 1728.8,276.6889 L1728.8,409.792 A2,2 0 0 1 1726.8,411.792 L1237.2,411.792 A2,2 0 0 1 1235.2,409.792 L1235.2,256.992 A2,2 0 0 1 1237.2,254.992 " fill="none" style="stroke:#000000;stroke-width:1.2000000000000002;"/><line style="stroke:#000000;stroke-width:1.2000000000000002;" x1="1235.2" x2="1284.8" y1="274.6889" y2="274.6889"/><text fill="#000000" font-family="sans-serif" font-size="11.2" font-weight="bold" lengthAdjust="spacing" textLength="39.2" x="1238.4" y="268.6779">engine</text></g><!--cluster cli--><g id="cluster_cli"><path d="M1242.8,33.792 L1256.4,33.792 A3,3 0 0 1 1258.4,35.792 L1264,53.4889 L1659.6,53.4889 A2,2 0 0 1 1661.6,55.4889 L1661.6,174.192 A2,2 0 0 1 1659.6,176.192 L1242.8,176.192 A2,2 0 0 1 1240.8,174.192 L1240.8,35.792 A2,2 0 0 1 1242.8,33.792 " fill="none" style="stroke:#000000;stroke-width:1.2000000000000002;"/><line style="stroke:#000000;stroke-width:1.2000000000000002;" x1="1240.8" x2="1264" y1="53.4889" y2="53.4889"/><text fill="#000000" font-family="sans-serif" font-size="11.2" font-weight="bold" lengthAdjust="spacing" textLength="12.8" x="1244" y="47.4779">cli</text></g><!--cluster gui--><g id="cluster_gui"><path d="M6.8,202.592 L25.2,202.592 A3,3 0 0 1 27.2,204.592 L32.8,222.2889 L1214,222.2889 A2,2 0 0 1 1216,224.2889 L1216,1023.792 A2,2 0 0 1 1214,1025.792 L6.8,1025.792 A2,2 0 0 1 4.8,1023.792 L4.8,204.592 A2,2 0 0 1 6.8,202.592 " fill="none" style="stroke:#000000;stroke-width:1.2000000000000002;"/><line style="stroke:#000000;stroke-width:1.2000000000000002;" x1="4.8" x2="32.8" y1="222.2889" y2="222.2889"/><text fill="#000000" font-family="sans-serif" font-size="11.2" font-weight="bold" lengthAdjust="spacing" textLength="17.6" x="8" y="216.2779">gui</text></g><!--cluster views--><g id="cluster_views"><path d="M26,488.992 L59.6,488.992 A3,3 0 0 1 61.6,490.992 L67.2,508.6889 L1194.8,508.6889 A2,2 0 0 1 1196.8,510.6889 L1196.8,674.192 A2,2 0 0 1 1194.8,676.192 L26,676.192 A2,2 0 0 1 24,674.192 L24,490.992 A2,2 0 0 1 26,488.992 " fill="none" style="stroke:#000000;stroke-width:1.2000000000000002;"/><line style="stroke:#000000;stroke-width:1.2000000000000002;" x1="24" x2="67.2" y1="508.6889" y2="508.6889"/><text fill="#000000" font-family="sans-serif" font-size="11.2" font-weight="bold" lengthAdjust="spacing" textLength="32.8" x="27.2" y="502.6779">views</text></g><!--cluster engine--><g id="cluster_engine"><path d="M1035.6,716.992 L1075.6,716.992 A3,3 0 0 1 1077.6,718.992 L1083.2,736.6889 L1194.8,736.6889 A2,2 0 0 1 1196.8,738.6889 L1196.8,1004.592 A2,2 0 0 1 1194.8,1006.592 L1035.6,1006.592 A2,2 0 0 1 1033.6,1004.592 L1033.6,718.992 A2,2 0 0 1 1035.6,716.992 " fill="none" style="stroke:#000000;stroke-width:1.2000000000000002;"/><line style="stroke:#000000;stroke-width:1.2000000000000002;" x1="1033.6" x2="1083.2" y1="736.6889" y2="736.6889"/><text fill="#000000" font-family="sans-serif" font-size="11.2" font-weight="bold" lengthAdjust="spacing" textLength="39.2" x="1036.8" y="730.6779">engine</text></g><!--class GameController--><g id="elem_GameController"><rect codeLine="3" fill="#F1F1F1" height="68.1938" id="GameController" rx="2" ry="2" style="stroke:#181818;stroke-width:0.4000000000000001;" width="112" x="1604" y="316.192"/><ellipse cx="1618.88" cy="328.992" fill="#A9DCDF" rx="8.8" ry="8.8" style="stroke:#181818;stroke-width:0.8000000000000002;"/><path d="M1620.63,330.4045 L1617.3175,330.4045 L1616.98,331.2295 L1617.3175,331.2295 Q1617.805,331.2295 1618.0175,331.417 Q1618.23,331.6045 1618.23,331.917 Q1618.23,332.217 1618.0175,332.4045 Q1617.805,332.592 1617.3175,332.592 L1615.48,332.592 Q1614.9925,332.592 1614.7925,332.4045 Q1614.58,332.217 1614.58,331.9045 Q1614.58,331.6045 1614.805,331.417 Q1615.0175,331.217 1615.5175,331.2295 L1617.655,325.9045 L1616.7675,325.9045 Q1616.28,325.9045 1616.0675,325.717 Q1615.855,325.5295 1615.855,325.217 Q1615.855,324.917 1616.0675,324.7295 Q1616.28,324.542 1616.7675,324.542 L1619.705,324.542 L1622.4175,331.2295 Q1622.8925,331.2295 1623.0425,331.342 Q1623.355,331.5545 1623.355,331.917 Q1623.355,332.217 1623.1425,332.4045 Q1622.9425,332.592 1622.455,332.592 L1620.6175,332.592 Q1620.13,332.592 1619.9175,332.4045 Q1619.705,332.217 1619.705,331.9045 Q1619.705,331.6045 1619.9175,331.417 Q1620.13,331.2295 1620.6175,331.2295 L1620.955,331.2295 L1620.63,330.4045 Z M1620.055,329.042 L1618.9675,326.342 L1617.8675,329.042 L1620.055,329.042 Z " fill="#000000"/><text fill="#000000" font-family="sans-serif" font-size="11.2" font-style="italic" lengthAdjust="spacing" textLength="80" x="1630.72" y="333.6295">GameController</text><line style="stroke:#181818;stroke-width:0.4000000000000001;" x1="1604.8" x2="1715.2" y1="341.792" y2="341.792"/><polygon fill="none" points="1612.8,349.6404,1616,352.8404,1612.8,356.0404,1609.6,352.8404" style="stroke:#B38D22;stroke-width:0.8000000000000002;"/><text fill="#000000" font-family="sans-serif" font-size="11.2" lengthAdjust="spacing" textLength="72" x="1620" y="357.0779">Monde monde</text><line style="stroke:#181818;stroke-width:0.8000000000000002;" x1="1604.8" x2="1715.2" y1="363.0889" y2="363.0889"/><ellipse cx="1612.8" cy="374.9373" fill="#84BE84" rx="2.4" ry="2.4" style="stroke:#038048;stroke-width:0.8000000000000002;"/><text fill="#000000" font-family="sans-serif" font-size="11.2" font-style="italic" lengthAdjust="spacing" textLength="91.2" x="1620" y="378.3748">update(long): void</text></g><!--class Engine--><g id="elem_Engine"><rect codeLine="9" fill="#F1F1F1" height="97.9875" id="Engine" rx="2" ry="2" style="stroke:#181818;stroke-width:0.4000000000000001;" width="126.4" x="1396" y="301.392"/><ellipse cx="1438.2" cy="314.192" fill="#A9DCDF" rx="8.8" ry="8.8" style="stroke:#181818;stroke-width:0.8000000000000002;"/><path d="M1439.95,315.6045 L1436.6375,315.6045 L1436.3,316.4295 L1436.6375,316.4295 Q1437.125,316.4295 1437.3375,316.617 Q1437.55,316.8045 1437.55,317.117 Q1437.55,317.417 1437.3375,317.6045 Q1437.125,317.792 1436.6375,317.792 L1434.8,317.792 Q1434.3125,317.792 1434.1125,317.6045 Q1433.9,317.417 1433.9,317.1045 Q1433.9,316.8045 1434.125,316.617 Q1434.3375,316.417 1434.8375,316.4295 L1436.975,311.1045 L1436.0875,311.1045 Q1435.6,311.1045 1435.3875,310.917 Q1435.175,310.7295 1435.175,310.417 Q1435.175,310.117 1435.3875,309.9295 Q1435.6,309.742 1436.0875,309.742 L1439.025,309.742 L1441.7375,316.4295 Q1442.2125,316.4295 1442.3625,316.542 Q1442.675,316.7545 1442.675,317.117 Q1442.675,317.417 1442.4625,317.6045 Q1442.2625,317.792 1441.775,317.792 L1439.9375,317.792 Q1439.45,317.792 1439.2375,317.6045 Q1439.025,317.417 1439.025,317.1045 Q1439.025,316.8045 1439.2375,316.617 Q1439.45,316.4295 1439.9375,316.4295 L1440.275,316.4295 L1439.95,315.6045 Z M1439.375,314.242 L1438.2875,311.542 L1437.1875,314.242 L1439.375,314.242 Z " fill="#000000"/><text fill="#000000" font-family="sans-serif" font-size="11.2" font-style="italic" lengthAdjust="spacing" textLength="35.2" x="1454.6" y="318.8295">Engine</text><line style="stroke:#181818;stroke-width:0.4000000000000001;" x1="1396.8" x2="1521.6" y1="326.992" y2="326.992"/><line style="stroke:#181818;stroke-width:0.4000000000000001;" x1="1396.8" x2="1521.6" y1="333.392" y2="333.392"/><ellipse cx="1404.8" cy="345.2404" fill="#84BE84" rx="2.4" ry="2.4" style="stroke:#038048;stroke-width:0.8000000000000002;"/><text fill="#000000" font-family="sans-serif" font-size="11.2" lengthAdjust="spacing" textLength="105.6" x="1412" y="348.6779">Engine(ui, controller)</text><ellipse cx="1404.8" cy="360.1373" fill="#84BE84" rx="2.4" ry="2.4" style="stroke:#038048;stroke-width:0.8000000000000002;"/><text fill="#000000" font-family="sans-serif" font-size="11.2" font-style="italic" lengthAdjust="spacing" textLength="56.8" x="1412" y="363.5748">start(): void</text><ellipse cx="1404.8" cy="375.0342" fill="#84BE84" rx="2.4" ry="2.4" style="stroke:#038048;stroke-width:0.8000000000000002;"/><text fill="#000000" font-family="sans-serif" font-size="11.2" font-style="italic" lengthAdjust="spacing" textLength="56" x="1412" y="378.4717">stop(): void</text><ellipse cx="1404.8" cy="389.9311" fill="#84BE84" rx="2.4" ry="2.4" style="stroke:#038048;stroke-width:0.8000000000000002;"/><text fill="#000000" font-family="sans-serif" font-size="11.2" font-style="italic" lengthAdjust="spacing" textLength="73.6" x="1412" y="393.3686">tick(long): void</text></g><!--class GameInterface--><g id="elem_GameInterface"><rect codeLine="16" fill="#F1F1F1" height="53.2969" id="GameInterface" rx="2" ry="2" style="stroke:#181818;stroke-width:0.4000000000000001;" width="100.8" x="1248" y="323.392"/><ellipse cx="1260" cy="336.192" fill="#B4A7E5" rx="8.8" ry="8.8" style="stroke:#181818;stroke-width:0.8000000000000002;"/><path d="M1260.7625,333.5045 L1260.7625,338.8295 L1262.1375,338.8295 Q1262.625,338.8295 1262.8375,339.017 Q1263.05,339.2045 1263.05,339.517 Q1263.05,339.817 1262.8375,340.0045 Q1262.625,340.192 1262.1375,340.192 L1258.025,340.192 Q1257.5375,340.192 1257.325,340.0045 Q1257.1125,339.817 1257.1125,339.5045 Q1257.1125,339.2045 1257.325,339.017 Q1257.5375,338.8295 1258.025,338.8295 L1259.4,338.8295 L1259.4,333.5045 L1258.025,333.5045 Q1257.5375,333.5045 1257.325,333.317 Q1257.1125,333.1295 1257.1125,332.817 Q1257.1125,332.517 1257.325,332.3295 Q1257.5375,332.142 1258.025,332.142 L1262.1375,332.142 Q1262.625,332.142 1262.8375,332.3295 Q1263.05,332.517 1263.05,332.817 Q1263.05,333.1295 1262.8375,333.317 Q1262.625,333.5045 1262.1375,333.5045 L1260.7625,333.5045 Z " fill="#000000"/><text fill="#000000" font-family="sans-serif" font-size="11.2" font-style="italic" lengthAdjust="spacing" textLength="75.2" x="1271.2" y="340.8295">GameInterface</text><line style="stroke:#181818;stroke-width:0.4000000000000001;" x1="1248.8" x2="1348" y1="348.992" y2="348.992"/><line style="stroke:#181818;stroke-width:0.4000000000000001;" x1="1248.8" x2="1348" y1="355.392" y2="355.392"/><ellipse cx="1256.8" cy="367.2404" fill="#84BE84" rx="2.4" ry="2.4" style="stroke:#038048;stroke-width:0.8000000000000002;"/><text fill="#000000" font-family="sans-serif" font-size="11.2" lengthAdjust="spacing" textLength="68.8" x="1264" y="370.6779">render(): void</text></g><!--class CLIController--><g id="elem_CLIController"><rect codeLine="22" fill="#F1F1F1" height="83.0906" id="CLIController" rx="2" ry="2" style="stroke:#181818;stroke-width:0.4000000000000001;" width="112.8" x="1535.6" y="80.192"/><ellipse cx="1556.96" cy="92.992" fill="#ADD1B2" rx="8.8" ry="8.8" style="stroke:#181818;stroke-width:0.8000000000000002;"/><path d="M1559.1725,89.692 Q1559.2975,89.517 1559.4475,89.4295 Q1559.5975,89.342 1559.7725,89.342 Q1560.0725,89.342 1560.26,89.5545 Q1560.4475,89.7545 1560.4475,90.242 L1560.4475,91.4045 Q1560.4475,91.892 1560.26,92.1045 Q1560.0725,92.317 1559.7725,92.317 Q1559.4975,92.317 1559.335,92.1545 Q1559.1725,92.0045 1559.085,91.592 Q1559.0475,91.3045 1558.8975,91.1545 Q1558.635,90.8545 1558.1475,90.6795 Q1557.66,90.5045 1557.16,90.5045 Q1556.5475,90.5045 1556.035,90.767 Q1555.535,91.0295 1555.135,91.6295 Q1554.7475,92.2295 1554.7475,93.0545 L1554.7475,93.9295 Q1554.7475,94.917 1555.46,95.5795 Q1556.1725,96.2295 1557.4475,96.2295 Q1558.1975,96.2295 1558.7225,96.0295 Q1559.035,95.9045 1559.3725,95.5545 Q1559.585,95.342 1559.6975,95.2795 Q1559.8225,95.217 1559.985,95.217 Q1560.2475,95.217 1560.4475,95.4295 Q1560.66,95.6295 1560.66,95.9045 Q1560.66,96.1795 1560.385,96.5045 Q1559.985,96.967 1559.3475,97.2295 Q1558.485,97.592 1557.4475,97.592 Q1556.235,97.592 1555.2725,97.092 Q1554.485,96.692 1553.935,95.842 Q1553.385,94.9795 1553.385,93.9545 L1553.385,93.0295 Q1553.385,91.967 1553.8725,91.0545 Q1554.3725,90.1295 1555.2475,89.642 Q1556.1225,89.142 1557.11,89.142 Q1557.6975,89.142 1558.21,89.2795 Q1558.735,89.4045 1559.1725,89.692 Z " fill="#000000"/><text fill="#000000" font-family="sans-serif" font-size="11.2" lengthAdjust="spacing" textLength="66.4" x="1570.24" y="97.6295">CLIController</text><line style="stroke:#181818;stroke-width:0.4000000000000001;" x1="1536.4" x2="1647.6" y1="105.792" y2="105.792"/><line style="stroke:#181818;stroke-width:0.4000000000000001;" x1="1536.4" x2="1647.6" y1="112.192" y2="112.192"/><ellipse cx="1544.4" cy="124.0404" fill="#84BE84" rx="2.4" ry="2.4" style="stroke:#038048;stroke-width:0.8000000000000002;"/><text fill="#000000" font-family="sans-serif" font-size="11.2" lengthAdjust="spacing" textLength="57.6" x="1551.6" y="127.4779">start(): void</text><ellipse cx="1544.4" cy="138.9373" fill="#84BE84" rx="2.4" ry="2.4" style="stroke:#038048;stroke-width:0.8000000000000002;"/><text fill="#000000" font-family="sans-serif" font-size="11.2" lengthAdjust="spacing" textLength="56.8" x="1551.6" y="142.3748">stop(): void</text><ellipse cx="1544.4" cy="153.8342" fill="#84BE84" rx="2.4" ry="2.4" style="stroke:#038048;stroke-width:0.8000000000000002;"/><text fill="#000000" font-family="sans-serif" font-size="11.2" lengthAdjust="spacing" textLength="92" x="1551.6" y="157.2717">update(long): void</text></g><!--class CLIEngine--><g id="elem_CLIEngine"><rect codeLine="28" fill="#F1F1F1" height="83.0906" id="CLIEngine" rx="2" ry="2" style="stroke:#181818;stroke-width:0.4000000000000001;" width="94.4" x="1412.8" y="80.192"/><ellipse cx="1432.36" cy="92.992" fill="#ADD1B2" rx="8.8" ry="8.8" style="stroke:#181818;stroke-width:0.8000000000000002;"/><path d="M1434.5725,89.692 Q1434.6975,89.517 1434.8475,89.4295 Q1434.9975,89.342 1435.1725,89.342 Q1435.4725,89.342 1435.66,89.5545 Q1435.8475,89.7545 1435.8475,90.242 L1435.8475,91.4045 Q1435.8475,91.892 1435.66,92.1045 Q1435.4725,92.317 1435.1725,92.317 Q1434.8975,92.317 1434.735,92.1545 Q1434.5725,92.0045 1434.485,91.592 Q1434.4475,91.3045 1434.2975,91.1545 Q1434.035,90.8545 1433.5475,90.6795 Q1433.06,90.5045 1432.56,90.5045 Q1431.9475,90.5045 1431.435,90.767 Q1430.935,91.0295 1430.535,91.6295 Q1430.1475,92.2295 1430.1475,93.0545 L1430.1475,93.9295 Q1430.1475,94.917 1430.86,95.5795 Q1431.5725,96.2295 1432.8475,96.2295 Q1433.5975,96.2295 1434.1225,96.0295 Q1434.435,95.9045 1434.7725,95.5545 Q1434.985,95.342 1435.0975,95.2795 Q1435.2225,95.217 1435.385,95.217 Q1435.6475,95.217 1435.8475,95.4295 Q1436.06,95.6295 1436.06,95.9045 Q1436.06,96.1795 1435.785,96.5045 Q1435.385,96.967 1434.7475,97.2295 Q1433.885,97.592 1432.8475,97.592 Q1431.635,97.592 1430.6725,97.092 Q1429.885,96.692 1429.335,95.842 Q1428.785,94.9795 1428.785,93.9545 L1428.785,93.0295 Q1428.785,91.967 1429.2725,91.0545 Q1429.7725,90.1295 1430.6475,89.642 Q1431.5225,89.142 1432.51,89.142 Q1433.0975,89.142 1433.61,89.2795 Q1434.135,89.4045 1434.5725,89.692 Z " fill="#000000"/><text fill="#000000" font-family="sans-serif" font-size="11.2" lengthAdjust="spacing" textLength="52" x="1445.24" y="97.6295">CLIEngine</text><line style="stroke:#181818;stroke-width:0.4000000000000001;" x1="1413.6" x2="1506.4" y1="105.792" y2="105.792"/><line style="stroke:#181818;stroke-width:0.4000000000000001;" x1="1413.6" x2="1506.4" y1="112.192" y2="112.192"/><ellipse cx="1421.6" cy="124.0404" fill="#84BE84" rx="2.4" ry="2.4" style="stroke:#038048;stroke-width:0.8000000000000002;"/><text fill="#000000" font-family="sans-serif" font-size="11.2" lengthAdjust="spacing" textLength="57.6" x="1428.8" y="127.4779">start(): void</text><ellipse cx="1421.6" cy="138.9373" fill="#84BE84" rx="2.4" ry="2.4" style="stroke:#038048;stroke-width:0.8000000000000002;"/><text fill="#000000" font-family="sans-serif" font-size="11.2" lengthAdjust="spacing" textLength="56.8" x="1428.8" y="142.3748">stop(): void</text><ellipse cx="1421.6" cy="153.8342" fill="#84BE84" rx="2.4" ry="2.4" style="stroke:#038048;stroke-width:0.8000000000000002;"/><text fill="#000000" font-family="sans-serif" font-size="11.2" lengthAdjust="spacing" textLength="73.6" x="1428.8" y="157.2717">tick(long): void</text></g><!--class CLI--><g id="elem_CLI"><rect codeLine="34" fill="#F1F1F1" height="53.2969" id="CLI" rx="2" ry="2" style="stroke:#181818;stroke-width:0.4000000000000001;" width="89.6" x="1253.6" y="94.992"/><ellipse cx="1286.84" cy="107.792" fill="#ADD1B2" rx="8.8" ry="8.8" style="stroke:#181818;stroke-width:0.8000000000000002;"/><path d="M1289.0525,104.492 Q1289.1775,104.317 1289.3275,104.2295 Q1289.4775,104.142 1289.6525,104.142 Q1289.9525,104.142 1290.14,104.3545 Q1290.3275,104.5545 1290.3275,105.042 L1290.3275,106.2045 Q1290.3275,106.692 1290.14,106.9045 Q1289.9525,107.117 1289.6525,107.117 Q1289.3775,107.117 1289.215,106.9545 Q1289.0525,106.8045 1288.965,106.392 Q1288.9275,106.1045 1288.7775,105.9545 Q1288.515,105.6545 1288.0275,105.4795 Q1287.54,105.3045 1287.04,105.3045 Q1286.4275,105.3045 1285.915,105.567 Q1285.415,105.8295 1285.015,106.4295 Q1284.6275,107.0295 1284.6275,107.8545 L1284.6275,108.7295 Q1284.6275,109.717 1285.34,110.3795 Q1286.0525,111.0295 1287.3275,111.0295 Q1288.0775,111.0295 1288.6025,110.8295 Q1288.915,110.7045 1289.2525,110.3545 Q1289.465,110.142 1289.5775,110.0795 Q1289.7025,110.017 1289.865,110.017 Q1290.1275,110.017 1290.3275,110.2295 Q1290.54,110.4295 1290.54,110.7045 Q1290.54,110.9795 1290.265,111.3045 Q1289.865,111.767 1289.2275,112.0295 Q1288.365,112.392 1287.3275,112.392 Q1286.115,112.392 1285.1525,111.892 Q1284.365,111.492 1283.815,110.642 Q1283.265,109.7795 1283.265,108.7545 L1283.265,107.8295 Q1283.265,106.767 1283.7525,105.8545 Q1284.2525,104.9295 1285.1275,104.442 Q1286.0025,103.942 1286.99,103.942 Q1287.5775,103.942 1288.09,104.0795 Q1288.615,104.2045 1289.0525,104.492 Z " fill="#000000"/><text fill="#000000" font-family="sans-serif" font-size="11.2" lengthAdjust="spacing" textLength="16.8" x="1302.76" y="112.4295">CLI</text><line style="stroke:#181818;stroke-width:0.4000000000000001;" x1="1254.4" x2="1342.4" y1="120.592" y2="120.592"/><line style="stroke:#181818;stroke-width:0.4000000000000001;" x1="1254.4" x2="1342.4" y1="126.992" y2="126.992"/><ellipse cx="1262.4" cy="138.8404" fill="#84BE84" rx="2.4" ry="2.4" style="stroke:#038048;stroke-width:0.8000000000000002;"/><text fill="#000000" font-family="sans-serif" font-size="11.2" lengthAdjust="spacing" textLength="68.8" x="1269.6" y="142.2779">render(): void</text></g><!--class View--><g id="elem_View"><rect codeLine="40" fill="#F1F1F1" height="142.6781" id="View" rx="2" ry="2" style="stroke:#181818;stroke-width:0.4000000000000001;" width="184" x="700" y="278.992"/><ellipse cx="777" cy="291.792" fill="#A9DCDF" rx="8.8" ry="8.8" style="stroke:#181818;stroke-width:0.8000000000000002;"/><path d="M778.75,293.2045 L775.4375,293.2045 L775.1,294.0295 L775.4375,294.0295 Q775.925,294.0295 776.1375,294.217 Q776.35,294.4045 776.35,294.717 Q776.35,295.017 776.1375,295.2045 Q775.925,295.392 775.4375,295.392 L773.6,295.392 Q773.1125,295.392 772.9125,295.2045 Q772.7,295.017 772.7,294.7045 Q772.7,294.4045 772.925,294.217 Q773.1375,294.017 773.6375,294.0295 L775.775,288.7045 L774.8875,288.7045 Q774.4,288.7045 774.1875,288.517 Q773.975,288.3295 773.975,288.017 Q773.975,287.717 774.1875,287.5295 Q774.4,287.342 774.8875,287.342 L777.825,287.342 L780.5375,294.0295 Q781.0125,294.0295 781.1625,294.142 Q781.475,294.3545 781.475,294.717 Q781.475,295.017 781.2625,295.2045 Q781.0625,295.392 780.575,295.392 L778.7375,295.392 Q778.25,295.392 778.0375,295.2045 Q777.825,295.017 777.825,294.7045 Q777.825,294.4045 778.0375,294.217 Q778.25,294.0295 778.7375,294.0295 L779.075,294.0295 L778.75,293.2045 Z M778.175,291.842 L777.0875,289.142 L775.9875,291.842 L778.175,291.842 Z " fill="#000000"/><text fill="#000000" font-family="sans-serif" font-size="11.2" font-style="italic" lengthAdjust="spacing" textLength="23.2" x="793.4" y="296.4295">View</text><line style="stroke:#181818;stroke-width:0.4000000000000001;" x1="700.8" x2="883.2" y1="304.592" y2="304.592"/><polygon fill="none" points="708.8,312.4404,712,315.6404,708.8,318.8404,705.6,315.6404" style="stroke:#B38D22;stroke-width:0.8000000000000002;"/><text fill="#000000" font-family="sans-serif" font-size="11.2" lengthAdjust="spacing" textLength="56.8" x="716" y="319.8779">Parent root</text><line style="stroke:#181818;stroke-width:0.8000000000000002;" x1="700.8" x2="883.2" y1="325.8889" y2="325.8889"/><ellipse cx="708.8" cy="337.7373" fill="#84BE84" rx="2.4" ry="2.4" style="stroke:#038048;stroke-width:0.8000000000000002;"/><text fill="#000000" font-family="sans-serif" font-size="11.2" lengthAdjust="spacing" textLength="88" x="716" y="341.1748">getRoot(): Parent</text><ellipse cx="708.8" cy="352.6342" fill="#84BE84" rx="2.4" ry="2.4" style="stroke:#038048;stroke-width:0.8000000000000002;"/><text fill="#000000" font-family="sans-serif" font-size="11.2" lengthAdjust="spacing" textLength="128" x="716" y="356.0717">enableRootEvents(): void</text><ellipse cx="708.8" cy="367.5311" fill="#84BE84" rx="2.4" ry="2.4" style="stroke:#038048;stroke-width:0.8000000000000002;"/><text fill="#000000" font-family="sans-serif" font-size="11.2" lengthAdjust="spacing" textLength="85.6" x="716" y="370.9686">onViewInit(): void</text><ellipse cx="708.8" cy="382.4279" fill="#84BE84" rx="2.4" ry="2.4" style="stroke:#038048;stroke-width:0.8000000000000002;"/><text fill="#000000" font-family="sans-serif" font-size="11.2" lengthAdjust="spacing" textLength="120.8" x="716" y="385.8654">onViewDisplayed(): void</text><ellipse cx="708.8" cy="397.3248" fill="#84BE84" rx="2.4" ry="2.4" style="stroke:#038048;stroke-width:0.8000000000000002;"/><text fill="#000000" font-family="sans-serif" font-size="11.2" lengthAdjust="spacing" textLength="156.8" x="716" y="400.7623">onKeyPressed(KeyEvent): void</text><ellipse cx="708.8" cy="412.2217" fill="#84BE84" rx="2.4" ry="2.4" style="stroke:#038048;stroke-width:0.8000000000000002;"/><text fill="#000000" font-family="sans-serif" font-size="11.2" lengthAdjust="spacing" textLength="163.2" x="716" y="415.6592">onKeyReleased(KeyEvent): void</text></g><!--class ViewController--><g id="elem_ViewController"><rect codeLine="51" fill="#F1F1F1" height="38.4" id="ViewController" rx="2" ry="2" style="stroke:#181818;stroke-width:0.4000000000000001;" width="98.4" x="305.2" y="330.992"/><ellipse cx="317.2" cy="343.792" fill="#A9DCDF" rx="8.8" ry="8.8" style="stroke:#181818;stroke-width:0.8000000000000002;"/><path d="M318.95,345.2045 L315.6375,345.2045 L315.3,346.0295 L315.6375,346.0295 Q316.125,346.0295 316.3375,346.217 Q316.55,346.4045 316.55,346.717 Q316.55,347.017 316.3375,347.2045 Q316.125,347.392 315.6375,347.392 L313.8,347.392 Q313.3125,347.392 313.1125,347.2045 Q312.9,347.017 312.9,346.7045 Q312.9,346.4045 313.125,346.217 Q313.3375,346.017 313.8375,346.0295 L315.975,340.7045 L315.0875,340.7045 Q314.6,340.7045 314.3875,340.517 Q314.175,340.3295 314.175,340.017 Q314.175,339.717 314.3875,339.5295 Q314.6,339.342 315.0875,339.342 L318.025,339.342 L320.7375,346.0295 Q321.2125,346.0295 321.3625,346.142 Q321.675,346.3545 321.675,346.717 Q321.675,347.017 321.4625,347.2045 Q321.2625,347.392 320.775,347.392 L318.9375,347.392 Q318.45,347.392 318.2375,347.2045 Q318.025,347.017 318.025,346.7045 Q318.025,346.4045 318.2375,346.217 Q318.45,346.0295 318.9375,346.0295 L319.275,346.0295 L318.95,345.2045 Z M318.375,343.842 L317.2875,341.142 L316.1875,343.842 L318.375,343.842 Z " fill="#000000"/><text fill="#000000" font-family="sans-serif" font-size="11.2" font-style="italic" lengthAdjust="spacing" textLength="72.8" x="328.4" y="348.4295">ViewController</text><line style="stroke:#181818;stroke-width:0.4000000000000001;" x1="306" x2="402.8" y1="356.592" y2="356.592"/><line style="stroke:#181818;stroke-width:0.4000000000000001;" x1="306" x2="402.8" y1="362.992" y2="362.992"/></g><!--class VIEWS--><g id="elem_VIEWS"><rect codeLine="53" fill="#F1F1F1" height="83.0906" id="VIEWS" rx="2" ry="2" style="stroke:#181818;stroke-width:0.4000000000000001;" width="64" x="208.8" y="308.592"/><ellipse cx="222.6" cy="321.392" fill="#EB937F" rx="8.8" ry="8.8" style="stroke:#181818;stroke-width:0.8000000000000002;"/><path d="M221.6875,322.0295 L221.6875,324.0295 L225.15,324.0295 L225.15,323.292 Q225.15,322.8045 225.3375,322.592 Q225.5375,322.3795 225.8375,322.3795 Q226.1375,322.3795 226.325,322.592 Q226.5125,322.8045 226.5125,323.292 L226.5125,325.392 L220.1125,325.392 Q219.6125,325.392 219.4,325.2045 Q219.2,325.017 219.2,324.7045 Q219.2,324.4045 219.4125,324.217 Q219.625,324.0295 220.1125,324.0295 L220.325,324.0295 L220.325,318.7045 L220.1125,318.7045 Q219.6125,318.7045 219.4,318.517 Q219.2,318.3295 219.2,318.017 Q219.2,317.717 219.4,317.5295 Q219.6125,317.342 220.1125,317.342 L226.2125,317.342 L226.2125,319.417 Q226.2125,319.9045 226.025,320.117 Q225.85,320.317 225.5375,320.317 Q225.2375,320.317 225.05,320.117 Q224.8625,319.9045 224.8625,319.417 L224.8625,318.7045 L221.6875,318.7045 L221.6875,320.667 L222.875,320.667 Q222.875,320.142 222.975,319.992 Q223.1875,319.667 223.5625,319.667 Q223.8625,319.667 224.05,319.8795 Q224.2375,320.0795 224.2375,320.567 L224.2375,322.142 Q224.2375,322.5795 224.1375,322.7295 Q223.925,323.042 223.5625,323.042 Q223.1875,323.042 222.975,322.717 Q222.875,322.567 222.875,322.0295 L221.6875,322.0295 Z " fill="#000000"/><text fill="#000000" font-family="sans-serif" font-size="11.2" lengthAdjust="spacing" textLength="34.4" x="234.2" y="326.0295">VIEWS</text><line style="stroke:#181818;stroke-width:0.4000000000000001;" x1="209.6" x2="272" y1="334.192" y2="334.192"/><text fill="#000000" font-family="sans-serif" font-size="11.2" lengthAdjust="spacing" textLength="32" x="213.6" y="349.4779">HOME</text><text fill="#000000" font-family="sans-serif" font-size="11.2" lengthAdjust="spacing" textLength="32" x="213.6" y="364.3748">GAME</text><text fill="#000000" font-family="sans-serif" font-size="11.2" lengthAdjust="spacing" textLength="54.4" x="213.6" y="379.2717">SETTINGS</text><line style="stroke:#181818;stroke-width:0.4000000000000001;" x1="209.6" x2="272" y1="385.2826" y2="385.2826"/></g><!--class ViewManager--><g id="elem_ViewManager"><rect codeLine="59" fill="#F1F1F1" height="202.2656" id="ViewManager" rx="2" ry="2" style="stroke:#181818;stroke-width:0.4000000000000001;" width="181.6" x="947.6" y="248.992"/><ellipse cx="1001" cy="261.792" fill="#ADD1B2" rx="8.8" ry="8.8" style="stroke:#181818;stroke-width:0.8000000000000002;"/><path d="M1003.2125,258.492 Q1003.3375,258.317 1003.4875,258.2295 Q1003.6375,258.142 1003.8125,258.142 Q1004.1125,258.142 1004.3,258.3545 Q1004.4875,258.5545 1004.4875,259.042 L1004.4875,260.2045 Q1004.4875,260.692 1004.3,260.9045 Q1004.1125,261.117 1003.8125,261.117 Q1003.5375,261.117 1003.375,260.9545 Q1003.2125,260.8045 1003.125,260.392 Q1003.0875,260.1045 1002.9375,259.9545 Q1002.675,259.6545 1002.1875,259.4795 Q1001.7,259.3045 1001.2,259.3045 Q1000.5875,259.3045 1000.075,259.567 Q999.575,259.8295 999.175,260.4295 Q998.7875,261.0295 998.7875,261.8545 L998.7875,262.7295 Q998.7875,263.717 999.5,264.3795 Q1000.2125,265.0295 1001.4875,265.0295 Q1002.2375,265.0295 1002.7625,264.8295 Q1003.075,264.7045 1003.4125,264.3545 Q1003.625,264.142 1003.7375,264.0795 Q1003.8625,264.017 1004.025,264.017 Q1004.2875,264.017 1004.4875,264.2295 Q1004.7,264.4295 1004.7,264.7045 Q1004.7,264.9795 1004.425,265.3045 Q1004.025,265.767 1003.3875,266.0295 Q1002.525,266.392 1001.4875,266.392 Q1000.275,266.392 999.3125,265.892 Q998.525,265.492 997.975,264.642 Q997.425,263.7795 997.425,262.7545 L997.425,261.8295 Q997.425,260.767 997.9125,259.8545 Q998.4125,258.9295 999.2875,258.442 Q1000.1625,257.942 1001.15,257.942 Q1001.7375,257.942 1002.25,258.0795 Q1002.775,258.2045 1003.2125,258.492 Z " fill="#000000"/><text fill="#000000" font-family="sans-serif" font-size="11.2" lengthAdjust="spacing" textLength="68" x="1017.4" y="266.4295">ViewManager</text><line style="stroke:#181818;stroke-width:0.4000000000000001;" x1="948.4" x2="1128.4" y1="274.592" y2="274.592"/><rect fill="none" height="4.8" style="stroke:#C82930;stroke-width:0.8000000000000002;" width="4.8" x="954" y="284.0404"/><text fill="#000000" font-family="sans-serif" font-size="11.2" lengthAdjust="spacing" text-decoration="underline" textLength="116.8" x="963.6" y="289.8779">instance: ViewManager</text><rect fill="none" height="4.8" style="stroke:#C82930;stroke-width:0.8000000000000002;" width="4.8" x="954" y="298.9373"/><text fill="#000000" font-family="sans-serif" font-size="11.2" lengthAdjust="spacing" textLength="64" x="963.6" y="304.7748">stage: Stage</text><line style="stroke:#181818;stroke-width:0.8000000000000002;" x1="948.4" x2="1128.4" y1="310.7858" y2="310.7858"/><rect fill="#F24D5C" height="4.8" style="stroke:#C82930;stroke-width:0.8000000000000002;" width="4.8" x="954" y="320.2342"/><text fill="#000000" font-family="sans-serif" font-size="11.2" lengthAdjust="spacing" textLength="76" x="963.6" y="326.0717">ViewManager()</text><ellipse cx="956.4" cy="337.5311" fill="#84BE84" rx="2.4" ry="2.4" style="stroke:#038048;stroke-width:0.8000000000000002;"/><text fill="#000000" font-family="sans-serif" font-size="11.2" lengthAdjust="spacing" text-decoration="underline" textLength="140.8" x="963.6" y="340.9686">getInstance(): ViewManager</text><ellipse cx="956.4" cy="352.4279" fill="#84BE84" rx="2.4" ry="2.4" style="stroke:#038048;stroke-width:0.8000000000000002;"/><text fill="#000000" font-family="sans-serif" font-size="11.2" lengthAdjust="spacing" textLength="109.6" x="963.6" y="355.8654">setStage(Stage): void</text><ellipse cx="956.4" cy="367.3248" fill="#84BE84" rx="2.4" ry="2.4" style="stroke:#038048;stroke-width:0.8000000000000002;"/><text fill="#000000" font-family="sans-serif" font-size="11.2" lengthAdjust="spacing" textLength="160.8" x="963.6" y="370.7623">registerView(VIEWS, View): void</text><ellipse cx="956.4" cy="382.2217" fill="#84BE84" rx="2.4" ry="2.4" style="stroke:#038048;stroke-width:0.8000000000000002;"/><text fill="#000000" font-family="sans-serif" font-size="11.2" lengthAdjust="spacing" textLength="126.4" x="963.6" y="385.6592">navigateTo(VIEWS): void</text><ellipse cx="956.4" cy="397.1186" fill="#84BE84" rx="2.4" ry="2.4" style="stroke:#038048;stroke-width:0.8000000000000002;"/><text fill="#000000" font-family="sans-serif" font-size="11.2" lengthAdjust="spacing" textLength="145.6" x="963.6" y="400.5561">setFullScreen(boolean): void</text><ellipse cx="956.4" cy="412.0154" fill="#84BE84" rx="2.4" ry="2.4" style="stroke:#038048;stroke-width:0.8000000000000002;"/><text fill="#000000" font-family="sans-serif" font-size="11.2" lengthAdjust="spacing" textLength="101.6" x="963.6" y="415.4529">setTitle(String): void</text><ellipse cx="956.4" cy="426.9123" fill="#84BE84" rx="2.4" ry="2.4" style="stroke:#038048;stroke-width:0.8000000000000002;"/><text fill="#000000" font-family="sans-serif" font-size="11.2" lengthAdjust="spacing" textLength="103.2" x="963.6" y="430.3498">applySettings(): void</text><ellipse cx="956.4" cy="441.8092" fill="#84BE84" rx="2.4" ry="2.4" style="stroke:#038048;stroke-width:0.8000000000000002;"/><text fill="#000000" font-family="sans-serif" font-size="11.2" lengthAdjust="spacing" textLength="53.6" x="963.6" y="445.2467">quit(): void</text></g><!--class Sprite--><g id="elem_Sprite"><rect codeLine="118" fill="#F1F1F1" height="68.1938" id="Sprite" rx="2" ry="2" style="stroke:#181818;stroke-width:0.4000000000000001;" width="71.2" x="102" y="316.192"/><ellipse cx="121.2" cy="328.992" fill="#ADD1B2" rx="8.8" ry="8.8" style="stroke:#181818;stroke-width:0.8000000000000002;"/><path d="M123.4125,325.692 Q123.5375,325.517 123.6875,325.4295 Q123.8375,325.342 124.0125,325.342 Q124.3125,325.342 124.5,325.5545 Q124.6875,325.7545 124.6875,326.242 L124.6875,327.4045 Q124.6875,327.892 124.5,328.1045 Q124.3125,328.317 124.0125,328.317 Q123.7375,328.317 123.575,328.1545 Q123.4125,328.0045 123.325,327.592 Q123.2875,327.3045 123.1375,327.1545 Q122.875,326.8545 122.3875,326.6795 Q121.9,326.5045 121.4,326.5045 Q120.7875,326.5045 120.275,326.767 Q119.775,327.0295 119.375,327.6295 Q118.9875,328.2295 118.9875,329.0545 L118.9875,329.9295 Q118.9875,330.917 119.7,331.5795 Q120.4125,332.2295 121.6875,332.2295 Q122.4375,332.2295 122.9625,332.0295 Q123.275,331.9045 123.6125,331.5545 Q123.825,331.342 123.9375,331.2795 Q124.0625,331.217 124.225,331.217 Q124.4875,331.217 124.6875,331.4295 Q124.9,331.6295 124.9,331.9045 Q124.9,332.1795 124.625,332.5045 Q124.225,332.967 123.5875,333.2295 Q122.725,333.592 121.6875,333.592 Q120.475,333.592 119.5125,333.092 Q118.725,332.692 118.175,331.842 Q117.625,330.9795 117.625,329.9545 L117.625,329.0295 Q117.625,327.967 118.1125,327.0545 Q118.6125,326.1295 119.4875,325.642 Q120.3625,325.142 121.35,325.142 Q121.9375,325.142 122.45,325.2795 Q122.975,325.4045 123.4125,325.692 Z " fill="#000000"/><text fill="#000000" font-family="sans-serif" font-size="11.2" lengthAdjust="spacing" textLength="29.6" x="134" y="333.6295">Sprite</text><line style="stroke:#181818;stroke-width:0.4000000000000001;" x1="102.8" x2="172.4" y1="341.792" y2="341.792"/><rect fill="none" height="4.8" style="stroke:#C82930;stroke-width:0.8000000000000002;" width="4.8" x="108.4" y="351.2404"/><text fill="#000000" font-family="sans-serif" font-size="11.2" lengthAdjust="spacing" textLength="45.6" x="118" y="357.0779">String uri</text><line style="stroke:#181818;stroke-width:0.4000000000000001;" x1="102.8" x2="172.4" y1="363.0889" y2="363.0889"/><ellipse cx="110.8" cy="374.9373" fill="#84BE84" rx="2.4" ry="2.4" style="stroke:#038048;stroke-width:0.8000000000000002;"/><text fill="#000000" font-family="sans-serif" font-size="11.2" lengthAdjust="spacing" textLength="50.4" x="118" y="378.3748">Sprite(uri)</text></g><!--class HomeViewController--><g id="elem_HomeViewController"><rect codeLine="75" fill="#F1F1F1" height="83.0906" id="HomeViewController" rx="2" ry="2" style="stroke:#181818;stroke-width:0.4000000000000001;" width="133.6" x="37.2" y="557.792"/><ellipse cx="52.08" cy="570.592" fill="#ADD1B2" rx="8.8" ry="8.8" style="stroke:#181818;stroke-width:0.8000000000000002;"/><path d="M54.2925,567.292 Q54.4175,567.117 54.5675,567.0295 Q54.7175,566.942 54.8925,566.942 Q55.1925,566.942 55.38,567.1545 Q55.5675,567.3545 55.5675,567.842 L55.5675,569.0045 Q55.5675,569.492 55.38,569.7045 Q55.1925,569.917 54.8925,569.917 Q54.6175,569.917 54.455,569.7545 Q54.2925,569.6045 54.205,569.192 Q54.1675,568.9045 54.0175,568.7545 Q53.755,568.4545 53.2675,568.2795 Q52.78,568.1045 52.28,568.1045 Q51.6675,568.1045 51.155,568.367 Q50.655,568.6295 50.255,569.2295 Q49.8675,569.8295 49.8675,570.6545 L49.8675,571.5295 Q49.8675,572.517 50.58,573.1795 Q51.2925,573.8295 52.5675,573.8295 Q53.3175,573.8295 53.8425,573.6295 Q54.155,573.5045 54.4925,573.1545 Q54.705,572.942 54.8175,572.8795 Q54.9425,572.817 55.105,572.817 Q55.3675,572.817 55.5675,573.0295 Q55.78,573.2295 55.78,573.5045 Q55.78,573.7795 55.505,574.1045 Q55.105,574.567 54.4675,574.8295 Q53.605,575.192 52.5675,575.192 Q51.355,575.192 50.3925,574.692 Q49.605,574.292 49.055,573.442 Q48.505,572.5795 48.505,571.5545 L48.505,570.6295 Q48.505,569.567 48.9925,568.6545 Q49.4925,567.7295 50.3675,567.242 Q51.2425,566.742 52.23,566.742 Q52.8175,566.742 53.33,566.8795 Q53.855,567.0045 54.2925,567.292 Z " fill="#000000"/><text fill="#000000" font-family="sans-serif" font-size="11.2" lengthAdjust="spacing" textLength="101.6" x="63.92" y="575.2295">HomeViewController</text><line style="stroke:#181818;stroke-width:0.4000000000000001;" x1="38" x2="170" y1="583.392" y2="583.392"/><line style="stroke:#181818;stroke-width:0.4000000000000001;" x1="38" x2="170" y1="589.792" y2="589.792"/><rect fill="#F24D5C" height="4.8" style="stroke:#C82930;stroke-width:0.8000000000000002;" width="4.8" x="43.6" y="599.2404"/><text fill="#000000" font-family="sans-serif" font-size="11.2" lengthAdjust="spacing" textLength="96" x="53.2" y="605.0779">onClickStart(): void</text><rect fill="#F24D5C" height="4.8" style="stroke:#C82930;stroke-width:0.8000000000000002;" width="4.8" x="43.6" y="614.1373"/><text fill="#000000" font-family="sans-serif" font-size="11.2" lengthAdjust="spacing" textLength="112.8" x="53.2" y="619.9748">onClickSettings(): void</text><rect fill="#F24D5C" height="4.8" style="stroke:#C82930;stroke-width:0.8000000000000002;" width="4.8" x="43.6" y="629.0342"/><text fill="#000000" font-family="sans-serif" font-size="11.2" lengthAdjust="spacing" textLength="92.8" x="53.2" y="634.8717">onClickQuit(): void</text></g><!--class GameViewController--><g id="elem_GameViewController"><rect codeLine="81" fill="#F1F1F1" height="127.7813" id="GameViewController" rx="2" ry="2" style="stroke:#181818;stroke-width:0.4000000000000001;" width="150.4" x="199.2" y="535.392"/><ellipse cx="220.92" cy="548.192" fill="#ADD1B2" rx="8.8" ry="8.8" style="stroke:#181818;stroke-width:0.8000000000000002;"/><path d="M223.1325,544.892 Q223.2575,544.717 223.4075,544.6295 Q223.5575,544.542 223.7325,544.542 Q224.0325,544.542 224.22,544.7545 Q224.4075,544.9545 224.4075,545.442 L224.4075,546.6045 Q224.4075,547.092 224.22,547.3045 Q224.0325,547.517 223.7325,547.517 Q223.4575,547.517 223.295,547.3545 Q223.1325,547.2045 223.045,546.792 Q223.0075,546.5045 222.8575,546.3545 Q222.595,546.0545 222.1075,545.8795 Q221.62,545.7045 221.12,545.7045 Q220.5075,545.7045 219.995,545.967 Q219.495,546.2295 219.095,546.8295 Q218.7075,547.4295 218.7075,548.2545 L218.7075,549.1295 Q218.7075,550.117 219.42,550.7795 Q220.1325,551.4295 221.4075,551.4295 Q222.1575,551.4295 222.6825,551.2295 Q222.995,551.1045 223.3325,550.7545 Q223.545,550.542 223.6575,550.4795 Q223.7825,550.417 223.945,550.417 Q224.2075,550.417 224.4075,550.6295 Q224.62,550.8295 224.62,551.1045 Q224.62,551.3795 224.345,551.7045 Q223.945,552.167 223.3075,552.4295 Q222.445,552.792 221.4075,552.792 Q220.195,552.792 219.2325,552.292 Q218.445,551.892 217.895,551.042 Q217.345,550.1795 217.345,549.1545 L217.345,548.2295 Q217.345,547.167 217.8325,546.2545 Q218.3325,545.3295 219.2075,544.842 Q220.0825,544.342 221.07,544.342 Q221.6575,544.342 222.17,544.4795 Q222.695,544.6045 223.1325,544.892 Z " fill="#000000"/><text fill="#000000" font-family="sans-serif" font-size="11.2" lengthAdjust="spacing" textLength="103.2" x="234.28" y="552.8295">GameViewController</text><line style="stroke:#181818;stroke-width:0.4000000000000001;" x1="200" x2="348.8" y1="560.992" y2="560.992"/><rect fill="none" height="4.8" style="stroke:#C82930;stroke-width:0.8000000000000002;" width="4.8" x="205.6" y="570.4404"/><text fill="#000000" font-family="sans-serif" font-size="11.2" lengthAdjust="spacing" textLength="86.4" x="215.2" y="576.2779">pane: StackPane</text><rect fill="none" height="4.8" style="stroke:#C82930;stroke-width:0.8000000000000002;" width="4.8" x="205.6" y="585.3373"/><text fill="#000000" font-family="sans-serif" font-size="11.2" lengthAdjust="spacing" textLength="80.8" x="215.2" y="591.1748">canvas: Canvas</text><rect fill="none" height="4.8" style="stroke:#C82930;stroke-width:0.8000000000000002;" width="4.8" x="205.6" y="600.2342"/><text fill="#000000" font-family="sans-serif" font-size="11.2" lengthAdjust="spacing" textLength="81.6" x="215.2" y="606.0717">overlay: Canvas</text><line style="stroke:#181818;stroke-width:0.8000000000000002;" x1="200" x2="348.8" y1="612.0826" y2="612.0826"/><ellipse cx="208" cy="623.9311" fill="#84BE84" rx="2.4" ry="2.4" style="stroke:#038048;stroke-width:0.8000000000000002;"/><text fill="#000000" font-family="sans-serif" font-size="11.2" lengthAdjust="spacing" textLength="111.2" x="215.2" y="627.3686">getPane(): StackPane</text><ellipse cx="208" cy="638.8279" fill="#84BE84" rx="2.4" ry="2.4" style="stroke:#038048;stroke-width:0.8000000000000002;"/><text fill="#000000" font-family="sans-serif" font-size="11.2" lengthAdjust="spacing" textLength="129.6" x="215.2" y="642.2654">getGameBoard(): Canvas</text><ellipse cx="208" cy="653.7248" fill="#84BE84" rx="2.4" ry="2.4" style="stroke:#038048;stroke-width:0.8000000000000002;"/><text fill="#000000" font-family="sans-serif" font-size="11.2" lengthAdjust="spacing" textLength="108" x="215.2" y="657.1623">getOverlay(): Canvas</text></g><!--class SettingsViewController--><g id="elem_SettingsViewController"><rect codeLine="91" fill="#F1F1F1" height="97.9875" id="SettingsViewController" rx="2" ry="2" style="stroke:#181818;stroke-width:0.4000000000000001;" width="216.8" x="378" y="550.592"/><ellipse cx="426.2" cy="563.392" fill="#ADD1B2" rx="8.8" ry="8.8" style="stroke:#181818;stroke-width:0.8000000000000002;"/><path d="M428.4125,560.092 Q428.5375,559.917 428.6875,559.8295 Q428.8375,559.742 429.0125,559.742 Q429.3125,559.742 429.5,559.9545 Q429.6875,560.1545 429.6875,560.642 L429.6875,561.8045 Q429.6875,562.292 429.5,562.5045 Q429.3125,562.717 429.0125,562.717 Q428.7375,562.717 428.575,562.5545 Q428.4125,562.4045 428.325,561.992 Q428.2875,561.7045 428.1375,561.5545 Q427.875,561.2545 427.3875,561.0795 Q426.9,560.9045 426.4,560.9045 Q425.7875,560.9045 425.275,561.167 Q424.775,561.4295 424.375,562.0295 Q423.9875,562.6295 423.9875,563.4545 L423.9875,564.3295 Q423.9875,565.317 424.7,565.9795 Q425.4125,566.6295 426.6875,566.6295 Q427.4375,566.6295 427.9625,566.4295 Q428.275,566.3045 428.6125,565.9545 Q428.825,565.742 428.9375,565.6795 Q429.0625,565.617 429.225,565.617 Q429.4875,565.617 429.6875,565.8295 Q429.9,566.0295 429.9,566.3045 Q429.9,566.5795 429.625,566.9045 Q429.225,567.367 428.5875,567.6295 Q427.725,567.992 426.6875,567.992 Q425.475,567.992 424.5125,567.492 Q423.725,567.092 423.175,566.242 Q422.625,565.3795 422.625,564.3545 L422.625,563.4295 Q422.625,562.367 423.1125,561.4545 Q423.6125,560.5295 424.4875,560.042 Q425.3625,559.542 426.35,559.542 Q426.9375,559.542 427.45,559.6795 Q427.975,559.8045 428.4125,560.092 Z " fill="#000000"/><text fill="#000000" font-family="sans-serif" font-size="11.2" lengthAdjust="spacing" textLength="113.6" x="442.6" y="568.0295">SettingsViewController</text><line style="stroke:#181818;stroke-width:0.4000000000000001;" x1="378.8" x2="594" y1="576.192" y2="576.192"/><rect fill="none" height="4.8" style="stroke:#C82930;stroke-width:0.8000000000000002;" width="4.8" x="384.4" y="585.6404"/><text fill="#000000" font-family="sans-serif" font-size="11.2" lengthAdjust="spacing" textLength="157.6" x="394" y="591.4779">fullScreenCheckBox: CheckBox</text><line style="stroke:#181818;stroke-width:0.8000000000000002;" x1="378.8" x2="594" y1="597.4889" y2="597.4889"/><ellipse cx="386.8" cy="609.3373" fill="#84BE84" rx="2.4" ry="2.4" style="stroke:#038048;stroke-width:0.8000000000000002;"/><text fill="#000000" font-family="sans-serif" font-size="11.2" lengthAdjust="spacing" textLength="196" x="394" y="612.7748">setFullScreenCheckBox(boolean): void</text><rect fill="#F24D5C" height="4.8" style="stroke:#C82930;stroke-width:0.8000000000000002;" width="4.8" x="384.4" y="621.8342"/><text fill="#000000" font-family="sans-serif" font-size="11.2" lengthAdjust="spacing" textLength="137.6" x="394" y="627.6717">onFullScreenToggle(): void</text><rect fill="#F24D5C" height="4.8" style="stroke:#C82930;stroke-width:0.8000000000000002;" width="4.8" x="384.4" y="636.7311"/><text fill="#000000" font-family="sans-serif" font-size="11.2" lengthAdjust="spacing" textLength="96.8" x="394" y="642.5686">onClickBack(): void</text></g><!--class HomeView--><g id="elem_HomeView"><rect codeLine="99" fill="#F1F1F1" height="68.1938" id="HomeView" rx="2" ry="2" style="stroke:#181818;stroke-width:0.4000000000000001;" width="177.6" x="623.2" y="565.392"/><ellipse cx="682.6" cy="578.192" fill="#ADD1B2" rx="8.8" ry="8.8" style="stroke:#181818;stroke-width:0.8000000000000002;"/><path d="M684.8125,574.892 Q684.9375,574.717 685.0875,574.6295 Q685.2375,574.542 685.4125,574.542 Q685.7125,574.542 685.9,574.7545 Q686.0875,574.9545 686.0875,575.442 L686.0875,576.6045 Q686.0875,577.092 685.9,577.3045 Q685.7125,577.517 685.4125,577.517 Q685.1375,577.517 684.975,577.3545 Q684.8125,577.2045 684.725,576.792 Q684.6875,576.5045 684.5375,576.3545 Q684.275,576.0545 683.7875,575.8795 Q683.3,575.7045 682.8,575.7045 Q682.1875,575.7045 681.675,575.967 Q681.175,576.2295 680.775,576.8295 Q680.3875,577.4295 680.3875,578.2545 L680.3875,579.1295 Q680.3875,580.117 681.1,580.7795 Q681.8125,581.4295 683.0875,581.4295 Q683.8375,581.4295 684.3625,581.2295 Q684.675,581.1045 685.0125,580.7545 Q685.225,580.542 685.3375,580.4795 Q685.4625,580.417 685.625,580.417 Q685.8875,580.417 686.0875,580.6295 Q686.3,580.8295 686.3,581.1045 Q686.3,581.3795 686.025,581.7045 Q685.625,582.167 684.9875,582.4295 Q684.125,582.792 683.0875,582.792 Q681.875,582.792 680.9125,582.292 Q680.125,581.892 679.575,581.042 Q679.025,580.1795 679.025,579.1545 L679.025,578.2295 Q679.025,577.167 679.5125,576.2545 Q680.0125,575.3295 680.8875,574.842 Q681.7625,574.342 682.75,574.342 Q683.3375,574.342 683.85,574.4795 Q684.375,574.6045 684.8125,574.892 Z " fill="#000000"/><text fill="#000000" font-family="sans-serif" font-size="11.2" lengthAdjust="spacing" textLength="52" x="699" y="582.8295">HomeView</text><line style="stroke:#181818;stroke-width:0.4000000000000001;" x1="624" x2="800" y1="590.992" y2="590.992"/><line style="stroke:#181818;stroke-width:0.4000000000000001;" x1="624" x2="800" y1="597.392" y2="597.392"/><ellipse cx="632" cy="609.2404" fill="#84BE84" rx="2.4" ry="2.4" style="stroke:#038048;stroke-width:0.8000000000000002;"/><text fill="#000000" font-family="sans-serif" font-size="11.2" lengthAdjust="spacing" textLength="60" x="639.2" y="612.6779">HomeView()</text><ellipse cx="632" cy="624.1373" fill="#84BE84" rx="2.4" ry="2.4" style="stroke:#038048;stroke-width:0.8000000000000002;"/><text fill="#000000" font-family="sans-serif" font-size="11.2" lengthAdjust="spacing" textLength="156.8" x="639.2" y="627.5748">onKeyPressed(KeyEvent): void</text></g><!--class GameView--><g id="elem_GameView"><rect codeLine="104" fill="#F1F1F1" height="112.8844" id="GameView" rx="2" ry="2" style="stroke:#181818;stroke-width:0.4000000000000001;" width="220" x="963.6" y="542.992"/><ellipse cx="1043.4" cy="555.792" fill="#ADD1B2" rx="8.8" ry="8.8" style="stroke:#181818;stroke-width:0.8000000000000002;"/><path d="M1045.6125,552.492 Q1045.7375,552.317 1045.8875,552.2295 Q1046.0375,552.142 1046.2125,552.142 Q1046.5125,552.142 1046.7,552.3545 Q1046.8875,552.5545 1046.8875,553.042 L1046.8875,554.2045 Q1046.8875,554.692 1046.7,554.9045 Q1046.5125,555.117 1046.2125,555.117 Q1045.9375,555.117 1045.775,554.9545 Q1045.6125,554.8045 1045.525,554.392 Q1045.4875,554.1045 1045.3375,553.9545 Q1045.075,553.6545 1044.5875,553.4795 Q1044.1,553.3045 1043.6,553.3045 Q1042.9875,553.3045 1042.475,553.567 Q1041.975,553.8295 1041.575,554.4295 Q1041.1875,555.0295 1041.1875,555.8545 L1041.1875,556.7295 Q1041.1875,557.717 1041.9,558.3795 Q1042.6125,559.0295 1043.8875,559.0295 Q1044.6375,559.0295 1045.1625,558.8295 Q1045.475,558.7045 1045.8125,558.3545 Q1046.025,558.142 1046.1375,558.0795 Q1046.2625,558.017 1046.425,558.017 Q1046.6875,558.017 1046.8875,558.2295 Q1047.1,558.4295 1047.1,558.7045 Q1047.1,558.9795 1046.825,559.3045 Q1046.425,559.767 1045.7875,560.0295 Q1044.925,560.392 1043.8875,560.392 Q1042.675,560.392 1041.7125,559.892 Q1040.925,559.492 1040.375,558.642 Q1039.825,557.7795 1039.825,556.7545 L1039.825,555.8295 Q1039.825,554.767 1040.3125,553.8545 Q1040.8125,552.9295 1041.6875,552.442 Q1042.5625,551.942 1043.55,551.942 Q1044.1375,551.942 1044.65,552.0795 Q1045.175,552.2045 1045.6125,552.492 Z " fill="#000000"/><text fill="#000000" font-family="sans-serif" font-size="11.2" lengthAdjust="spacing" textLength="53.6" x="1059.8" y="560.4295">GameView</text><line style="stroke:#181818;stroke-width:0.4000000000000001;" x1="964.4" x2="1182.8" y1="568.592" y2="568.592"/><line style="stroke:#181818;stroke-width:0.4000000000000001;" x1="964.4" x2="1182.8" y1="574.992" y2="574.992"/><ellipse cx="972.4" cy="586.8404" fill="#84BE84" rx="2.4" ry="2.4" style="stroke:#038048;stroke-width:0.8000000000000002;"/><text fill="#000000" font-family="sans-serif" font-size="11.2" lengthAdjust="spacing" textLength="61.6" x="979.6" y="590.2779">GameView()</text><ellipse cx="972.4" cy="601.7373" fill="#84BE84" rx="2.4" ry="2.4" style="stroke:#038048;stroke-width:0.8000000000000002;"/><text fill="#000000" font-family="sans-serif" font-size="11.2" lengthAdjust="spacing" textLength="120.8" x="979.6" y="605.1748">onViewDisplayed(): void</text><ellipse cx="972.4" cy="616.6342" fill="#84BE84" rx="2.4" ry="2.4" style="stroke:#038048;stroke-width:0.8000000000000002;"/><text fill="#000000" font-family="sans-serif" font-size="11.2" lengthAdjust="spacing" textLength="68.8" x="979.6" y="620.0717">render(): void</text><rect fill="#F24D5C" height="4.8" style="stroke:#C82930;stroke-width:0.8000000000000002;" width="4.8" x="970" y="629.1311"/><text fill="#000000" font-family="sans-serif" font-size="11.2" lengthAdjust="spacing" textLength="199.2" x="979.6" y="634.9686">drawGameBoard(Canvas, double): void</text><rect fill="#F24D5C" height="4.8" style="stroke:#C82930;stroke-width:0.8000000000000002;" width="4.8" x="970" y="644.0279"/><text fill="#000000" font-family="sans-serif" font-size="11.2" lengthAdjust="spacing" textLength="136.8" x="979.6" y="649.8654">drawOverlay(Canvas): void</text></g><!--class SettingsView--><g id="elem_SettingsView"><rect codeLine="112" fill="#F1F1F1" height="68.1938" id="SettingsView" rx="2" ry="2" style="stroke:#181818;stroke-width:0.4000000000000001;" width="106.4" x="829.2" y="565.392"/><ellipse cx="848.76" cy="578.192" fill="#ADD1B2" rx="8.8" ry="8.8" style="stroke:#181818;stroke-width:0.8000000000000002;"/><path d="M850.9725,574.892 Q851.0975,574.717 851.2475,574.6295 Q851.3975,574.542 851.5725,574.542 Q851.8725,574.542 852.06,574.7545 Q852.2475,574.9545 852.2475,575.442 L852.2475,576.6045 Q852.2475,577.092 852.06,577.3045 Q851.8725,577.517 851.5725,577.517 Q851.2975,577.517 851.135,577.3545 Q850.9725,577.2045 850.885,576.792 Q850.8475,576.5045 850.6975,576.3545 Q850.435,576.0545 849.9475,575.8795 Q849.46,575.7045 848.96,575.7045 Q848.3475,575.7045 847.835,575.967 Q847.335,576.2295 846.935,576.8295 Q846.5475,577.4295 846.5475,578.2545 L846.5475,579.1295 Q846.5475,580.117 847.26,580.7795 Q847.9725,581.4295 849.2475,581.4295 Q849.9975,581.4295 850.5225,581.2295 Q850.835,581.1045 851.1725,580.7545 Q851.385,580.542 851.4975,580.4795 Q851.6225,580.417 851.785,580.417 Q852.0475,580.417 852.2475,580.6295 Q852.46,580.8295 852.46,581.1045 Q852.46,581.3795 852.185,581.7045 Q851.785,582.167 851.1475,582.4295 Q850.285,582.792 849.2475,582.792 Q848.035,582.792 847.0725,582.292 Q846.285,581.892 845.735,581.042 Q845.185,580.1795 845.185,579.1545 L845.185,578.2295 Q845.185,577.167 845.6725,576.2545 Q846.1725,575.3295 847.0475,574.842 Q847.9225,574.342 848.91,574.342 Q849.4975,574.342 850.01,574.4795 Q850.535,574.6045 850.9725,574.892 Z " fill="#000000"/><text fill="#000000" font-family="sans-serif" font-size="11.2" lengthAdjust="spacing" textLength="64" x="861.64" y="582.8295">SettingsView</text><line style="stroke:#181818;stroke-width:0.4000000000000001;" x1="830" x2="934.8" y1="590.992" y2="590.992"/><line style="stroke:#181818;stroke-width:0.4000000000000001;" x1="830" x2="934.8" y1="597.392" y2="597.392"/><ellipse cx="838" cy="609.2404" fill="#84BE84" rx="2.4" ry="2.4" style="stroke:#038048;stroke-width:0.8000000000000002;"/><text fill="#000000" font-family="sans-serif" font-size="11.2" lengthAdjust="spacing" textLength="72" x="845.2" y="612.6779">SettingsView()</text><ellipse cx="838" cy="624.1373" fill="#84BE84" rx="2.4" ry="2.4" style="stroke:#038048;stroke-width:0.8000000000000002;"/><text fill="#000000" font-family="sans-serif" font-size="11.2" lengthAdjust="spacing" textLength="85.6" x="845.2" y="627.5748">onViewInit(): void</text></g><!--class GUIController--><g id="elem_GUIController"><rect codeLine="124" fill="#F1F1F1" height="53.2969" id="GUIController" rx="2" ry="2" style="stroke:#181818;stroke-width:0.4000000000000001;" width="112.8" x="1058.8" y="940.192"/><ellipse cx="1079.44" cy="952.992" fill="#ADD1B2" rx="8.8" ry="8.8" style="stroke:#181818;stroke-width:0.8000000000000002;"/><path d="M1081.6525,949.692 Q1081.7775,949.517 1081.9275,949.4295 Q1082.0775,949.342 1082.2525,949.342 Q1082.5525,949.342 1082.74,949.5545 Q1082.9275,949.7545 1082.9275,950.242 L1082.9275,951.4045 Q1082.9275,951.892 1082.74,952.1045 Q1082.5525,952.317 1082.2525,952.317 Q1081.9775,952.317 1081.815,952.1545 Q1081.6525,952.0045 1081.565,951.592 Q1081.5275,951.3045 1081.3775,951.1545 Q1081.115,950.8545 1080.6275,950.6795 Q1080.14,950.5045 1079.64,950.5045 Q1079.0275,950.5045 1078.515,950.767 Q1078.015,951.0295 1077.615,951.6295 Q1077.2275,952.2295 1077.2275,953.0545 L1077.2275,953.9295 Q1077.2275,954.917 1077.94,955.5795 Q1078.6525,956.2295 1079.9275,956.2295 Q1080.6775,956.2295 1081.2025,956.0295 Q1081.515,955.9045 1081.8525,955.5545 Q1082.065,955.342 1082.1775,955.2795 Q1082.3025,955.217 1082.465,955.217 Q1082.7275,955.217 1082.9275,955.4295 Q1083.14,955.6295 1083.14,955.9045 Q1083.14,956.1795 1082.865,956.5045 Q1082.465,956.967 1081.8275,957.2295 Q1080.965,957.592 1079.9275,957.592 Q1078.715,957.592 1077.7525,957.092 Q1076.965,956.692 1076.415,955.842 Q1075.865,954.9795 1075.865,953.9545 L1075.865,953.0295 Q1075.865,951.967 1076.3525,951.0545 Q1076.8525,950.1295 1077.7275,949.642 Q1078.6025,949.142 1079.59,949.142 Q1080.1775,949.142 1080.69,949.2795 Q1081.215,949.4045 1081.6525,949.692 Z " fill="#000000"/><text fill="#000000" font-family="sans-serif" font-size="11.2" lengthAdjust="spacing" textLength="68" x="1092.56" y="957.6295">GUIController</text><line style="stroke:#181818;stroke-width:0.4000000000000001;" x1="1059.6" x2="1170.8" y1="965.792" y2="965.792"/><line style="stroke:#181818;stroke-width:0.4000000000000001;" x1="1059.6" x2="1170.8" y1="972.192" y2="972.192"/><ellipse cx="1067.6" cy="984.0404" fill="#84BE84" rx="2.4" ry="2.4" style="stroke:#038048;stroke-width:0.8000000000000002;"/><text fill="#000000" font-family="sans-serif" font-size="11.2" lengthAdjust="spacing" textLength="92" x="1074.8" y="987.4779">update(long): void</text></g><!--class GUIEngine--><g id="elem_GUIEngine"><rect codeLine="128" fill="#F1F1F1" height="127.7813" id="GUIEngine" rx="2" ry="2" style="stroke:#181818;stroke-width:0.4000000000000001;" width="136.8" x="1046.8" y="763.392"/><ellipse cx="1085" cy="776.192" fill="#ADD1B2" rx="8.8" ry="8.8" style="stroke:#181818;stroke-width:0.8000000000000002;"/><path d="M1087.2125,772.892 Q1087.3375,772.717 1087.4875,772.6295 Q1087.6375,772.542 1087.8125,772.542 Q1088.1125,772.542 1088.3,772.7545 Q1088.4875,772.9545 1088.4875,773.442 L1088.4875,774.6045 Q1088.4875,775.092 1088.3,775.3045 Q1088.1125,775.517 1087.8125,775.517 Q1087.5375,775.517 1087.375,775.3545 Q1087.2125,775.2045 1087.125,774.792 Q1087.0875,774.5045 1086.9375,774.3545 Q1086.675,774.0545 1086.1875,773.8795 Q1085.7,773.7045 1085.2,773.7045 Q1084.5875,773.7045 1084.075,773.967 Q1083.575,774.2295 1083.175,774.8295 Q1082.7875,775.4295 1082.7875,776.2545 L1082.7875,777.1295 Q1082.7875,778.117 1083.5,778.7795 Q1084.2125,779.4295 1085.4875,779.4295 Q1086.2375,779.4295 1086.7625,779.2295 Q1087.075,779.1045 1087.4125,778.7545 Q1087.625,778.542 1087.7375,778.4795 Q1087.8625,778.417 1088.025,778.417 Q1088.2875,778.417 1088.4875,778.6295 Q1088.7,778.8295 1088.7,779.1045 Q1088.7,779.3795 1088.425,779.7045 Q1088.025,780.167 1087.3875,780.4295 Q1086.525,780.792 1085.4875,780.792 Q1084.275,780.792 1083.3125,780.292 Q1082.525,779.892 1081.975,779.042 Q1081.425,778.1795 1081.425,777.1545 L1081.425,776.2295 Q1081.425,775.167 1081.9125,774.2545 Q1082.4125,773.3295 1083.2875,772.842 Q1084.1625,772.342 1085.15,772.342 Q1085.7375,772.342 1086.25,772.4795 Q1086.775,772.6045 1087.2125,772.892 Z " fill="#000000"/><text fill="#000000" font-family="sans-serif" font-size="11.2" lengthAdjust="spacing" textLength="53.6" x="1101.4" y="780.8295">GUIEngine</text><line style="stroke:#181818;stroke-width:0.4000000000000001;" x1="1047.6" x2="1182.8" y1="788.992" y2="788.992"/><rect fill="none" height="4.8" style="stroke:#C82930;stroke-width:0.8000000000000002;" width="4.8" x="1053.2" y="798.4404"/><text fill="#000000" font-family="sans-serif" font-size="11.2" lengthAdjust="spacing" textLength="106.4" x="1062.8" y="804.2779">AnimationTimer timer</text><line style="stroke:#181818;stroke-width:0.8000000000000002;" x1="1047.6" x2="1182.8" y1="810.2889" y2="810.2889"/><ellipse cx="1055.6" cy="822.1373" fill="#84BE84" rx="2.4" ry="2.4" style="stroke:#038048;stroke-width:0.8000000000000002;"/><text fill="#000000" font-family="sans-serif" font-size="11.2" lengthAdjust="spacing" textLength="73.6" x="1062.8" y="825.5748">tick(long): void</text><ellipse cx="1055.6" cy="837.0342" fill="#84BE84" rx="2.4" ry="2.4" style="stroke:#038048;stroke-width:0.8000000000000002;"/><text fill="#000000" font-family="sans-serif" font-size="11.2" lengthAdjust="spacing" textLength="57.6" x="1062.8" y="840.4717">start(): void</text><ellipse cx="1055.6" cy="851.9311" fill="#84BE84" rx="2.4" ry="2.4" style="stroke:#038048;stroke-width:0.8000000000000002;"/><text fill="#000000" font-family="sans-serif" font-size="11.2" lengthAdjust="spacing" textLength="56.8" x="1062.8" y="855.3686">stop(): void</text><ellipse cx="1055.6" cy="866.8279" fill="#84BE84" rx="2.4" ry="2.4" style="stroke:#038048;stroke-width:0.8000000000000002;"/><text fill="#000000" font-family="sans-serif" font-size="11.2" lengthAdjust="spacing" textLength="116" x="1062.8" y="870.2654">getComputedFPS(): int</text><ellipse cx="1055.6" cy="881.7248" fill="#84BE84" rx="2.4" ry="2.4" style="stroke:#038048;stroke-width:0.8000000000000002;"/><text fill="#000000" font-family="sans-serif" font-size="11.2" lengthAdjust="spacing" textLength="64" x="1062.8" y="885.1623">getFPS(): int</text></g><!--link GameInterface to Engine--><g id="link_GameInterface_Engine"><path codeLine="141" d="M1348.84,350.192 C1363.76,350.192 1380.288,350.192 1395.912,350.192 " fill="none" id="GameInterface-Engine" style="stroke:#181818;stroke-width:0.8000000000000002;"/><polygon fill="none" points="1367.6,336.7084,1370.8,339.9084,1367.6,343.1084,1364.4,339.9084" style="stroke:#B38D22;stroke-width:0.8000000000000002;"/><text fill="#000000" font-family="sans-serif" font-size="10.4" lengthAdjust="spacing" textLength="8" x="1373.2" y="344.6147">ui</text><text fill="#000000" font-family="sans-serif" font-size="10.4" lengthAdjust="spacing" textLength="5.6" x="1355.3286" y="347.0186">1</text></g><!--link Engine to GameController--><g id="link_Engine_GameController"><path codeLine="142" d="M1522.456,350.192 C1548.552,350.192 1578.544,350.192 1603.848,350.192 " fill="none" id="Engine-GameController" style="stroke:#181818;stroke-width:0.8000000000000002;"/><polygon fill="none" points="1541.2,336.7084,1544.4,339.9084,1541.2,343.1084,1538,339.9084" style="stroke:#B38D22;stroke-width:0.8000000000000002;"/><text fill="#000000" font-family="sans-serif" font-size="10.4" lengthAdjust="spacing" textLength="42.4" x="1546.8" y="344.6147">controller</text><text fill="#000000" font-family="sans-serif" font-size="10.4" lengthAdjust="spacing" textLength="5.6" x="1592.1686" y="347.1154">1</text></g><!--link CLIController to GameController--><g id="link_CLIController_GameController"><path codeLine="145" d="M1604.232,163.4 C1617.312,207.016 1633.6629,261.5591 1645.8309,302.1271 " fill="none" id="CLIController-to-GameController" style="stroke:#181818;stroke-width:0.8000000000000002;"/><polygon fill="none" points="1649.968,315.92,1650.4286,300.7481,1641.2333,303.5061,1649.968,315.92" style="stroke:#181818;stroke-width:0.8000000000000002;"/></g><!--link CLIEngine to Engine--><g id="link_CLIEngine_Engine"><path codeLine="146" d="M1459.856,163.4 C1459.72,202.104 1459.5626,245.8801 1459.4186,286.8401 " fill="none" id="CLIEngine-to-Engine" style="stroke:#181818;stroke-width:0.8000000000000002;"/><polygon fill="none" points="1459.368,301.24,1464.2186,286.857,1454.6187,286.8232,1459.368,301.24" style="stroke:#181818;stroke-width:0.8000000000000002;"/></g><!--link CLI to GameInterface--><g id="link_CLI_GameInterface"><path codeLine="147" d="M1298.4,148.608 C1298.4,192.24 1298.4,265.264 1298.4,308.928 " fill="none" id="CLI-to-GameInterface" style="stroke:#181818;stroke-width:0.8000000000000002;stroke-dasharray:7.0,7.0;"/><polygon fill="none" points="1298.4,323.328,1303.2,308.928,1293.6,308.928,1298.4,323.328" style="stroke:#181818;stroke-width:0.8000000000000002;"/></g><!--link CLI to CLIController--><g id="link_CLI_CLIController"><path codeLine="148" d="M1318.112,94.8 C1336.296,72.384 1365.52,42.136 1399.2,28.992 C1449.88,9.216 1472.88,4.8 1521.6,28.992 C1543.336,39.784 1560.16,60.848 1571.904,80.184 " fill="none" id="CLI-CLIController" style="stroke:#181818;stroke-width:0.8000000000000002;"/><rect fill="none" height="4.8" style="stroke:#C82930;stroke-width:0.8000000000000002;" width="4.8" x="1414.8" y="11.5084"/><text fill="#000000" font-family="sans-serif" font-size="10.4" lengthAdjust="spacing" textLength="42.4" x="1422.8" y="17.8147">controller</text><text fill="#000000" font-family="sans-serif" font-size="10.4" lengthAdjust="spacing" textLength="5.6" x="1563.2274" y="71.3248">1</text></g><!--link CLI to CLIEngine--><g id="link_CLI_CLIEngine"><path codeLine="149" d="M1343.2,121.792 C1364.776,121.792 1390.656,121.792 1412.568,121.792 " fill="none" id="CLI-CLIEngine" style="stroke:#181818;stroke-width:0.8000000000000002;"/><rect fill="none" height="4.8" style="stroke:#C82930;stroke-width:0.8000000000000002;" width="4.8" x="1359.6" y="109.9084"/><text fill="#000000" font-family="sans-serif" font-size="10.4" lengthAdjust="spacing" textLength="30.4" x="1367.6" y="116.2147">engine</text><text fill="#000000" font-family="sans-serif" font-size="10.4" lengthAdjust="spacing" textLength="5.6" x="1400.846" y="118.6068">1</text></g><!--reverse link GameController to GUIController--><g id="link_GameController_GUIController"><path codeLine="152" d="M1625.0924,395.5241 C1556.8524,482.0761 1374.592,709.136 1197.6,891.392 C1181.176,908.304 1161.696,926.08 1145.8,940.064 " fill="none" id="GameController-backto-GUIController" style="stroke:#181818;stroke-width:0.8000000000000002;"/><polygon fill="none" points="1634.008,384.216,1621.3231,392.5522,1628.8618,398.4959,1634.008,384.216" style="stroke:#181818;stroke-width:0.8000000000000002;"/></g><!--reverse link Engine to GUIEngine--><g id="link_Engine_GUIEngine"><path codeLine="153" d="M1415.8811,410.8841 C1353.3691,497.3161 1230.704,666.896 1161.024,763.24 " fill="none" id="Engine-backto-GUIEngine" style="stroke:#181818;stroke-width:0.8000000000000002;"/><polygon fill="none" points="1424.32,399.216,1411.9917,408.0711,1419.7704,413.6971,1424.32,399.216" style="stroke:#181818;stroke-width:0.8000000000000002;"/></g><!--reverse link GameInterface to GameView--><g id="link_GameInterface_GameView"><path codeLine="154" d="M1269.0051,388.3346 C1252.6611,408.8866 1237.904,426.816 1216,451.392 C1188.44,482.312 1156.472,515.576 1129.816,542.648 " fill="none" id="GameInterface-backto-GameView" style="stroke:#181818;stroke-width:0.8000000000000002;stroke-dasharray:7.0,7.0;"/><polygon fill="none" points="1277.968,377.064,1265.2482,385.3469,1272.7619,391.3222,1277.968,377.064" style="stroke:#181818;stroke-width:0.8000000000000002;"/></g><!--link GameView to GUIController--><g id="link_GameView_GUIController"><path codeLine="155" d="M1012.96,655.824 C999.224,672 986.536,690.72 979.2,710.592 C951.368,785.976 938.304,822.224 979.2,891.392 C996.416,920.504 1029.432,939.048 1058.624,950.392 " fill="none" id="GameView-GUIController" style="stroke:#181818;stroke-width:0.8000000000000002;"/><rect fill="none" height="4.8" style="stroke:#C82930;stroke-width:0.8000000000000002;" width="4.8" x="981.6" y="825.5084"/><text fill="#000000" font-family="sans-serif" font-size="10.4" lengthAdjust="spacing" textLength="42.4" x="989.6" y="831.8147">controller</text><text fill="#000000" font-family="sans-serif" font-size="10.4" lengthAdjust="spacing" textLength="5.6" x="1046.9009" y="945.6292">1</text></g><!--link GameView to GUIEngine--><g id="link_GameView_GUIEngine"><path codeLine="156" d="M1083.832,655.864 C1089.808,688.4 1097.376,729.568 1103.576,763.328 " fill="none" id="GameView-GUIEngine" style="stroke:#181818;stroke-width:0.8000000000000002;"/><rect fill="none" height="4.8" style="stroke:#C82930;stroke-width:0.8000000000000002;" width="4.8" x="1093.6" y="694.7084"/><text fill="#000000" font-family="sans-serif" font-size="10.4" lengthAdjust="spacing" textLength="30.4" x="1101.6" y="701.0147">engine</text><text fill="#000000" font-family="sans-serif" font-size="10.4" lengthAdjust="spacing" textLength="5.6" x="1096.6463" y="754.4387">1</text></g><!--link GUIEngine to GUIController--><!--link ViewController to View--><g id="link_ViewController_View"><path codeLine="159" d="M403.744,350.192 C475.44,350.192 609.68,350.192 699.968,350.192 " fill="none" id="ViewController-View" style="stroke:#181818;stroke-width:0.8000000000000002;"/><polygon fill="none" points="529.8,336.7084,533,339.9084,529.8,343.1084,526.6,339.9084" style="stroke:#B38D22;stroke-width:0.8000000000000002;"/><text fill="#000000" font-family="sans-serif" font-size="10.4" lengthAdjust="spacing" textLength="42.4" x="535.4" y="344.6147">controller</text><text fill="#000000" font-family="sans-serif" font-size="10.4" lengthAdjust="spacing" textLength="5.6" x="410.0991" y="347.0001">1</text></g><!--link View to ViewManager--><g id="link_View_ViewManager"><path codeLine="160" d="M884.104,350.192 C904.808,350.192 926.776,350.192 947.432,350.192 " fill="none" id="View-ViewManager" style="stroke:#181818;stroke-width:0.8000000000000002;"/><rect fill="none" height="4.8" style="stroke:#C82930;stroke-width:0.8000000000000002;" width="4.8" x="900.2" y="338.3084"/><text fill="#000000" font-family="sans-serif" font-size="10.4" lengthAdjust="spacing" textLength="24.8" x="908.2" y="344.6147">views</text><text fill="#000000" font-family="sans-serif" font-size="10.4" lengthAdjust="spacing" textLength="4" x="890.4266" y="347.3563">*</text></g><!--reverse link ViewController to HomeViewController--><g id="link_ViewController_HomeViewController"><path codeLine="163" d="M340.638,382.8685 C330.318,405.4845 315.984,429.992 287.2,451.392 C249.296,479.584 223.832,454.848 185.6,482.592 C159,501.904 137.952,532.616 123.896,557.592 " fill="none" id="ViewController-backto-HomeViewController" style="stroke:#181818;stroke-width:0.8000000000000002;"/><polygon fill="none" points="346.616,369.768,336.2712,380.8759,345.0049,384.8612,346.616,369.768" style="stroke:#181818;stroke-width:0.8000000000000002;"/></g><!--reverse link View to HomeView--><g id="link_View_HomeView"><path codeLine="164" d="M764.7567,435.3185 C749.5167,482.4865 734.592,528.672 722.76,565.28 " fill="none" id="View-backto-HomeView" style="stroke:#181818;stroke-width:0.8000000000000002;"/><polygon fill="none" points="769.184,421.616,760.1892,433.8428,769.3242,436.7943,769.184,421.616" style="stroke:#181818;stroke-width:0.8000000000000002;"/></g><!--reverse link ViewController to GameViewController--><g id="link_ViewController_GameViewController"><path codeLine="165" d="M344.0271,383.102 C332.8511,417.678 312.688,480.096 294.904,535.136 " fill="none" id="ViewController-backto-GameViewController" style="stroke:#181818;stroke-width:0.8000000000000002;"/><polygon fill="none" points="348.456,369.4,339.4598,381.6257,348.5944,384.5783,348.456,369.4" style="stroke:#181818;stroke-width:0.8000000000000002;"/></g><!--reverse link View to GameView--><g id="link_View_GameView"><path codeLine="166" d="M889.2703,430.7243 C912.6623,450.2523 926.768,462.408 949.6,482.592 C971.352,501.824 994.728,523.432 1015.248,542.736 " fill="none" id="View-backto-GameView" style="stroke:#181818;stroke-width:0.8000000000000002;"/><polygon fill="none" points="878.216,421.496,886.1942,434.4091,892.3464,427.0395,878.216,421.496" style="stroke:#181818;stroke-width:0.8000000000000002;"/></g><!--reverse link ViewController to SettingsViewController--><g id="link_ViewController_SettingsViewController"><path codeLine="167" d="M370.9902,382.1071 C391.2142,420.0431 431.328,495.288 460.784,550.544 " fill="none" id="ViewController-backto-SettingsViewController" style="stroke:#181818;stroke-width:0.8000000000000002;"/><polygon fill="none" points="364.216,369.4,366.7546,384.3652,375.2259,379.849,364.216,369.4" style="stroke:#181818;stroke-width:0.8000000000000002;"/></g><!--reverse link View to SettingsView--><g id="link_View_SettingsView"><path codeLine="168" d="M822.7233,435.1424 C839.9473,482.3104 856.872,528.672 870.24,565.28 " fill="none" id="View-backto-SettingsView" style="stroke:#181818;stroke-width:0.8000000000000002;"/><polygon fill="none" points="817.784,421.616,818.2145,436.7888,827.2321,433.4959,817.784,421.616" style="stroke:#181818;stroke-width:0.8000000000000002;"/></g><!--SRC=[bLPDSvmu4BtpArJPm-ArSLMkSqXLF9auKxlUE66S758voD36AZCI4MAyBcV- -xQG4084Bi-14VHJT-lrXxgYsGCjW00l60Vo717yqTjQIPefafMqhiabtSDQS2L5MOAq6FtxWrm9dWFPwwVxcYHkUKgUErr7qbGvLH2NWXSdAt8GB6znnoXaS-FxOrIPJt73paZcl3a9sweLbIhspGGWebf6A9OzpBdBk09vHpDesTcwDzzX2KYBZ8UxSNzbESzAPl7cpEj_ja6QJsUFCtE6PQQTiG37hpIqn90pyofEYeQ5a_0RWyT1wbrJrAM854A5Kwy0zHM5sfR1UZBWzBO4BTuSK587pYQuDhdbJCqAFx2wAkaJv474t_1qBQ6kKOpBriuCx2kKGETmuVhGvlraiIZWpPvyssw-fnvNdpvVRTpBvNll9TtiTjj_BzDftBJ-Ayen97uc9kGPCmIZViG2m1NFOEL3FI1A2nIc-YyKdyJV5m_Ak3E10TnQAvhWa1tCJ52jZRXzJWcMKB0QgrFlZbjcpbfDKoId1rPWtUo4mGMg0DJ7fYpJJ0Bm-5O831iFmdPCbTeboOQrOG2qgigd59H2QIZrVZMZfBEXwOhaWFxNNbXCo3w9FOpJma4CvOAlIopPD5ZbGyYSTmFKboPG7TRPtZ7T8LzmhABS94lsS8tBaJIZ_43h5Lct_sDN3Y2n2CFIPF3QzWIjN_iSDjP2jCCNWigshWDgMz1dOpS0cH3GaVa22NSkjzRta3rSYFzGjLqj7skGcDsMkGJj8jZls8cYA64vr1V8rikXxd9mTBPJ9_0g_HLzSZQb9dOwGS3ESiUUlPvw9d997_lKC44_8xbey2gPtz7bYS5FJzQj5d9cSafVE7FIuCLrd3Rwj99CmQ37cxP56icydcHmCNuy2RKa6CyIDautszc4dvrJmX6_cSuhnjttdEtnmX1yn_PeHEddSha4nvQNXg25GSZrXBNOLus2_EDrga7CcpaS9Y0xzdFGdvR9o1usAU5E9M_UlXdDcIkSW1hcK98LzptCerpZ-cbPwyUfCnfEcaak7ddo-zreRzIFY0vXthM4dEjlvtQNSwmLUUuCBQrqCnyO666jFOspFA37E1D6mqHAcYhWRvyYLcwzTStYlAcc3ZjfOlYxMN1uYfqwx7cX6Vfnp_8S-Czag3cAZ1uNtj7TC8gRFuxPFN-PFQtfTY2mLDcNm3HWMHb-TK1V70MkxF3kdX5lzynz5zOmQ7I-bly1]--></g></svg>