<?xml version="1.0" encoding="us-ascii" standalone="no"?><svg xmlns="http://www.w3.org/2000/svg" xmlns:xlink="http://www.w3.org/1999/xlink" contentStyleType="text/css" height="1522px" preserveAspectRatio="none" style="width:2619px;height:1522px;background:#FFFFFF;" version="1.1" viewBox="0 0 2619 1522" width="2619px" zoomAndPan="magnify"><defs/><g><!--cluster Escape--><g id="cluster_Escape"><path d="M8.5,67 L60.5,67 A3.75,3.75 0 0 1 63,69.5 L70,91.6211 L2518.5,91.6211 A2.5,2.5 0 0 1 2521,94.1211 L2521,1512.5 A2.5,2.5 0 0 1 2518.5,1515 L8.5,1515 A2.5,2.5 0 0 1 6,1512.5 L6,69.5 A2.5,2.5 0 0 1 8.5,67 " fill="none" style="stroke:#000000;stroke-width:1.5;"/><line style="stroke:#000000;stroke-width:1.5;" x1="6" x2="70" y1="91.6211" y2="91.6211"/><text fill="#000000" font-family="sans-serif" font-size="14" font-weight="bold" lengthAdjust="spacing" textLength="51" x="10" y="84.1074">Escape</text></g><!--cluster Monde--><g id="cluster_Monde"><path d="M904.5,282 L954.5,282 A3.75,3.75 0 0 1 957,284.5 L964,306.6211 L2317.5,306.6211 A2.5,2.5 0 0 1 2320,309.1211 L2320,1488.5 A2.5,2.5 0 0 1 2317.5,1491 L904.5,1491 A2.5,2.5 0 0 1 902,1488.5 L902,284.5 A2.5,2.5 0 0 1 904.5,282 " fill="none" style="stroke:#000000;stroke-width:1.5;"/><line style="stroke:#000000;stroke-width:1.5;" x1="902" x2="964" y1="306.6211" y2="306.6211"/><text fill="#000000" font-family="sans-serif" font-size="14" font-weight="bold" lengthAdjust="spacing" textLength="49" x="906" y="299.1074">Monde</text></g><!--cluster Outils--><g id="cluster_Outils"><path d="M528.5,412.5 L570.5,412.5 A3.75,3.75 0 0 1 573,415 L580,437.1211 L875.5,437.1211 A2.5,2.5 0 0 1 878,439.6211 L878,1328.5 A2.5,2.5 0 0 1 875.5,1331 L528.5,1331 A2.5,2.5 0 0 1 526,1328.5 L526,415 A2.5,2.5 0 0 1 528.5,412.5 " fill="none" style="stroke:#000000;stroke-width:1.5;"/><line style="stroke:#000000;stroke-width:1.5;" x1="526" x2="580" y1="437.1211" y2="437.1211"/><text fill="#000000" font-family="sans-serif" font-size="14" font-weight="bold" lengthAdjust="spacing" textLength="41" x="530" y="429.6074">Outils</text></g><!--cluster gui--><g id="cluster_gui"><path d="M2354.5,847.5 L2377.5,847.5 A3.75,3.75 0 0 1 2380,850 L2387,872.1211 L2486.5,872.1211 A2.5,2.5 0 0 1 2489,874.6211 L2489,962 A2.5,2.5 0 0 1 2486.5,964.5 L2354.5,964.5 A2.5,2.5 0 0 1 2352,962 L2352,850 A2.5,2.5 0 0 1 2354.5,847.5 " fill="none" style="stroke:#000000;stroke-width:1.5;"/><line style="stroke:#000000;stroke-width:1.5;" x1="2352" x2="2387" y1="872.1211" y2="872.1211"/><text fill="#000000" font-family="sans-serif" font-size="14" font-weight="bold" lengthAdjust="spacing" textLength="22" x="2356" y="864.6074">gui</text></g><!--cluster engine--><g id="cluster_engine"><path d="M2238.5,120 L2288.5,120 A3.75,3.75 0 0 1 2291,122.5 L2298,144.6211 L2432.5,144.6211 A2.5,2.5 0 0 1 2435,147.1211 L2435,234.5 A2.5,2.5 0 0 1 2432.5,237 L2238.5,237 A2.5,2.5 0 0 1 2236,234.5 L2236,122.5 A2.5,2.5 0 0 1 2238.5,120 " fill="none" style="stroke:#000000;stroke-width:1.5;"/><line style="stroke:#000000;stroke-width:1.5;" x1="2236" x2="2298" y1="144.6211" y2="144.6211"/><text fill="#000000" font-family="sans-serif" font-size="14" font-weight="bold" lengthAdjust="spacing" textLength="49" x="2240" y="137.1074">engine</text></g><!--class Settings--><g id="elem_Settings"><rect codeLine="137" fill="#F1F1F1" height="122.4844" id="Settings" rx="2.5" ry="2.5" style="stroke:#181818;stroke-width:0.5;" width="215" x="158.5" y="128"/><ellipse cx="236.25" cy="144" fill="#ADD1B2" rx="11" ry="11" style="stroke:#181818;stroke-width:1.0;"/><path d="M239.0156,139.875 Q239.1719,139.6563 239.3594,139.5469 Q239.5469,139.4375 239.7656,139.4375 Q240.1406,139.4375 240.375,139.7031 Q240.6094,139.9531 240.6094,140.5625 L240.6094,142.0156 Q240.6094,142.625 240.375,142.8906 Q240.1406,143.1563 239.7656,143.1563 Q239.4219,143.1563 239.2188,142.9531 Q239.0156,142.7656 238.9063,142.25 Q238.8594,141.8906 238.6719,141.7031 Q238.3438,141.3281 237.7344,141.1094 Q237.125,140.8906 236.5,140.8906 Q235.7344,140.8906 235.0938,141.2188 Q234.4688,141.5469 233.9688,142.2969 Q233.4844,143.0469 233.4844,144.0781 L233.4844,145.1719 Q233.4844,146.4063 234.375,147.2344 Q235.2656,148.0469 236.8594,148.0469 Q237.7969,148.0469 238.4531,147.7969 Q238.8438,147.6406 239.2656,147.2031 Q239.5313,146.9375 239.6719,146.8594 Q239.8281,146.7813 240.0313,146.7813 Q240.3594,146.7813 240.6094,147.0469 Q240.875,147.2969 240.875,147.6406 Q240.875,147.9844 240.5313,148.3906 Q240.0313,148.9688 239.2344,149.2969 Q238.1563,149.75 236.8594,149.75 Q235.3438,149.75 234.1406,149.125 Q233.1563,148.625 232.4688,147.5625 Q231.7813,146.4844 231.7813,145.2031 L231.7813,144.0469 Q231.7813,142.7188 232.3906,141.5781 Q233.0156,140.4219 234.1094,139.8125 Q235.2031,139.1875 236.4375,139.1875 Q237.1719,139.1875 237.8125,139.3594 Q238.4688,139.5156 239.0156,139.875 Z " fill="#000000"/><text fill="#000000" font-family="sans-serif" font-size="14" lengthAdjust="spacing" textLength="51" x="256.75" y="149.7969">Settings</text><line style="stroke:#181818;stroke-width:0.5;" x1="159.5" x2="372.5" y1="160" y2="160"/><rect fill="none" height="6" style="stroke:#C82930;stroke-width:1.0;" width="6" x="166.5" y="171.8105"/><text fill="#000000" font-family="sans-serif" font-size="14" lengthAdjust="spacing" text-decoration="underline" textLength="180" x="178.5" y="179.1074">PropertyChangeSupport pcs</text><ellipse cx="169.5" cy="193.4316" fill="none" rx="3" ry="3" style="stroke:#038048;stroke-width:1.0;"/><text fill="#000000" font-family="sans-serif" font-size="14" lengthAdjust="spacing" text-decoration="underline" textLength="189" x="178.5" y="197.7285">Property&lt;Boolean&gt; fullScreen</text><ellipse cx="169.5" cy="212.0527" fill="none" rx="3" ry="3" style="stroke:#038048;stroke-width:1.0;"/><text fill="#000000" font-family="sans-serif" font-size="14" lengthAdjust="spacing" text-decoration="underline" textLength="182" x="178.5" y="216.3496">Property&lt;Boolean&gt; showFps</text><ellipse cx="169.5" cy="230.6738" fill="none" rx="3" ry="3" style="stroke:#038048;stroke-width:1.0;"/><text fill="#000000" font-family="sans-serif" font-size="14" lengthAdjust="spacing" text-decoration="underline" textLength="153" x="178.5" y="234.9707">Property&lt;Locale&gt; locale</text><line style="stroke:#181818;stroke-width:0.5;" x1="159.5" x2="372.5" y1="242.4844" y2="242.4844"/></g><!--class Property--><g id="elem_Property"><rect codeLine="144" fill="#F1F1F1" height="420.4219" id="Property" rx="2.5" ry="2.5" style="stroke:#181818;stroke-width:0.5;" width="487" x="22.5" y="310"/><ellipse cx="218.25" cy="326" fill="#ADD1B2" rx="11" ry="11" style="stroke:#181818;stroke-width:1.0;"/><path d="M221.0156,321.875 Q221.1719,321.6563 221.3594,321.5469 Q221.5469,321.4375 221.7656,321.4375 Q222.1406,321.4375 222.375,321.7031 Q222.6094,321.9531 222.6094,322.5625 L222.6094,324.0156 Q222.6094,324.625 222.375,324.8906 Q222.1406,325.1563 221.7656,325.1563 Q221.4219,325.1563 221.2188,324.9531 Q221.0156,324.7656 220.9063,324.25 Q220.8594,323.8906 220.6719,323.7031 Q220.3438,323.3281 219.7344,323.1094 Q219.125,322.8906 218.5,322.8906 Q217.7344,322.8906 217.0938,323.2188 Q216.4688,323.5469 215.9688,324.2969 Q215.4844,325.0469 215.4844,326.0781 L215.4844,327.1719 Q215.4844,328.4063 216.375,329.2344 Q217.2656,330.0469 218.8594,330.0469 Q219.7969,330.0469 220.4531,329.7969 Q220.8438,329.6406 221.2656,329.2031 Q221.5313,328.9375 221.6719,328.8594 Q221.8281,328.7813 222.0313,328.7813 Q222.3594,328.7813 222.6094,329.0469 Q222.875,329.2969 222.875,329.6406 Q222.875,329.9844 222.5313,330.3906 Q222.0313,330.9688 221.2344,331.2969 Q220.1563,331.75 218.8594,331.75 Q217.3438,331.75 216.1406,331.125 Q215.1563,330.625 214.4688,329.5625 Q213.7813,328.4844 213.7813,327.2031 L213.7813,326.0469 Q213.7813,324.7188 214.3906,323.5781 Q215.0156,322.4219 216.1094,321.8125 Q217.2031,321.1875 218.4375,321.1875 Q219.1719,321.1875 219.8125,321.3594 Q220.4688,321.5156 221.0156,321.875 Z " fill="#000000"/><text fill="#000000" font-family="sans-serif" font-size="14" lengthAdjust="spacing" textLength="83" x="238.75" y="331.7969">Property &lt;T&gt;</text><line style="stroke:#181818;stroke-width:0.5;" x1="23.5" x2="508.5" y1="342" y2="342"/><rect fill="none" height="6" style="stroke:#C82930;stroke-width:1.0;" width="6" x="30.5" y="353.8105"/><text fill="#000000" font-family="sans-serif" font-size="14" lengthAdjust="spacing" textLength="47" x="42.5" y="361.1074">T value</text><rect fill="none" height="6" style="stroke:#C82930;stroke-width:1.0;" width="6" x="30.5" y="372.4316"/><text fill="#000000" font-family="sans-serif" font-size="14" lengthAdjust="spacing" textLength="76" x="42.5" y="379.7285">String name</text><rect fill="none" height="6" style="stroke:#C82930;stroke-width:1.0;" width="6" x="30.5" y="391.0527"/><text fill="#000000" font-family="sans-serif" font-size="14" lengthAdjust="spacing" textLength="461" x="42.5" y="398.3496">Map&lt;MyPropertyChangeListener&lt;T&gt;, PropertyChangeListener&gt; listeners</text><rect fill="none" height="6" style="stroke:#C82930;stroke-width:1.0;" width="6" x="30.5" y="409.6738"/><text fill="#000000" font-family="sans-serif" font-size="14" lengthAdjust="spacing" textLength="180" x="42.5" y="416.9707">PropertyChangeSupport pcs</text><rect fill="none" height="6" style="stroke:#C82930;stroke-width:1.0;" width="6" x="30.5" y="428.2949"/><text fill="#000000" font-family="sans-serif" font-size="14" lengthAdjust="spacing" textLength="74" x="42.5" y="435.5918">boolean log</text><ellipse cx="33.5" cy="472.5371" fill="#84BE84" rx="3" ry="3" style="stroke:#038048;stroke-width:1.0;"/><text fill="#000000" font-family="sans-serif" font-size="14" lengthAdjust="spacing" textLength="424" x="42.5" y="476.834">Property(PropertyChangeSupport, String, T, Getter&lt;T&gt;, Setter&lt;T&gt;)</text><ellipse cx="33.5" cy="491.1582" fill="#84BE84" rx="3" ry="3" style="stroke:#038048;stroke-width:1.0;"/><text fill="#000000" font-family="sans-serif" font-size="14" lengthAdjust="spacing" textLength="217" x="42.5" y="495.4551">Property(T, Getter&lt;T&gt;, Setter&lt;T&gt;)</text><ellipse cx="33.5" cy="509.7793" fill="#84BE84" rx="3" ry="3" style="stroke:#038048;stroke-width:1.0;"/><text fill="#000000" font-family="sans-serif" font-size="14" lengthAdjust="spacing" textLength="280" x="42.5" y="514.0762">Property(PropertyChangeSupport, String, T)</text><ellipse cx="33.5" cy="528.4004" fill="#84BE84" rx="3" ry="3" style="stroke:#038048;stroke-width:1.0;"/><text fill="#000000" font-family="sans-serif" font-size="14" lengthAdjust="spacing" textLength="73" x="42.5" y="532.6973">Property(T)</text><line style="stroke:#181818;stroke-width:1.0;stroke-dasharray:1.0,2.0;" x1="23.5" x2="225" y1="452.416" y2="452.416"/><text fill="#000000" font-family="sans-serif" font-size="14" lengthAdjust="spacing" textLength="82" x="225" y="457.7129">Constructeur</text><line style="stroke:#181818;stroke-width:1.0;stroke-dasharray:1.0,2.0;" x1="307" x2="508.5" y1="452.416" y2="452.416"/><ellipse cx="33.5" cy="569.6426" fill="#84BE84" rx="3" ry="3" style="stroke:#038048;stroke-width:1.0;"/><text fill="#000000" font-family="sans-serif" font-size="14" lengthAdjust="spacing" textLength="43" x="42.5" y="573.9395">T get()</text><ellipse cx="33.5" cy="588.2637" fill="#84BE84" rx="3" ry="3" style="stroke:#038048;stroke-width:1.0;"/><text fill="#000000" font-family="sans-serif" font-size="14" lengthAdjust="spacing" textLength="68" x="42.5" y="592.5605">void set(T)</text><ellipse cx="33.5" cy="606.8848" fill="#84BE84" rx="3" ry="3" style="stroke:#038048;stroke-width:1.0;"/><text fill="#000000" font-family="sans-serif" font-size="14" lengthAdjust="spacing" textLength="299" x="42.5" y="611.1816">void subscribe(MyPropertyChangeListener&lt;T&gt;)</text><ellipse cx="33.5" cy="625.5059" fill="#84BE84" rx="3" ry="3" style="stroke:#038048;stroke-width:1.0;"/><text fill="#000000" font-family="sans-serif" font-size="14" lengthAdjust="spacing" textLength="315" x="42.5" y="629.8027">void unsubscribe(MyPropertyChangeListener&lt;T&gt;)</text><ellipse cx="33.5" cy="644.127" fill="#84BE84" rx="3" ry="3" style="stroke:#038048;stroke-width:1.0;"/><text fill="#000000" font-family="sans-serif" font-size="14" lengthAdjust="spacing" textLength="132" x="42.5" y="648.4238">void unsubscribeAll()</text><ellipse cx="33.5" cy="662.748" fill="#84BE84" rx="3" ry="3" style="stroke:#038048;stroke-width:1.0;"/><text fill="#000000" font-family="sans-serif" font-size="14" lengthAdjust="spacing" textLength="97" x="42.5" y="667.0449">void forceFire()</text><ellipse cx="33.5" cy="681.3691" fill="#84BE84" rx="3" ry="3" style="stroke:#038048;stroke-width:1.0;"/><text fill="#000000" font-family="sans-serif" font-size="14" lengthAdjust="spacing" textLength="187" x="42.5" y="685.666">Property&lt;T&gt; setLog(boolean)</text><rect fill="#F24D5C" height="6" style="stroke:#C82930;stroke-width:1.0;" width="6" x="30.5" y="696.9902"/><text fill="#000000" font-family="sans-serif" font-size="14" lengthAdjust="spacing" textLength="69" x="42.5" y="704.2871">void fire(T)</text><rect fill="#F24D5C" height="6" style="stroke:#C82930;stroke-width:1.0;" width="6" x="30.5" y="715.6113"/><text fill="#000000" font-family="sans-serif" font-size="14" lengthAdjust="spacing" textLength="96" x="42.5" y="722.9082">void log(String)</text><line style="stroke:#181818;stroke-width:1.0;stroke-dasharray:1.0,2.0;" x1="23.5" x2="235" y1="549.5215" y2="549.5215"/><text fill="#000000" font-family="sans-serif" font-size="14" lengthAdjust="spacing" textLength="62" x="235" y="554.8184">M&#233;thodes</text><line style="stroke:#181818;stroke-width:1.0;stroke-dasharray:1.0,2.0;" x1="297" x2="508.5" y1="549.5215" y2="549.5215"/></g><!--class Getter--><g id="elem_Getter"><rect codeLine="167" fill="#F1F1F1" height="66.6211" id="Getter" rx="2.5" ry="2.5" style="stroke:#181818;stroke-width:0.5;" width="105" x="282.5" y="883"/><ellipse cx="297.5" cy="899" fill="#B4A7E5" rx="11" ry="11" style="stroke:#181818;stroke-width:1.0;"/><path d="M298.4531,895.6406 L298.4531,902.2969 L300.1719,902.2969 Q300.7813,902.2969 301.0469,902.5313 Q301.3125,902.7656 301.3125,903.1563 Q301.3125,903.5313 301.0469,903.7656 Q300.7813,904 300.1719,904 L295.0313,904 Q294.4219,904 294.1563,903.7656 Q293.8906,903.5313 293.8906,903.1406 Q293.8906,902.7656 294.1563,902.5313 Q294.4219,902.2969 295.0313,902.2969 L296.75,902.2969 L296.75,895.6406 L295.0313,895.6406 Q294.4219,895.6406 294.1563,895.4063 Q293.8906,895.1719 293.8906,894.7813 Q293.8906,894.4063 294.1563,894.1719 Q294.4219,893.9375 295.0313,893.9375 L300.1719,893.9375 Q300.7813,893.9375 301.0469,894.1719 Q301.3125,894.4063 301.3125,894.7813 Q301.3125,895.1719 301.0469,895.4063 Q300.7813,895.6406 300.1719,895.6406 L298.4531,895.6406 Z " fill="#000000"/><text fill="#000000" font-family="sans-serif" font-size="14" font-style="italic" lengthAdjust="spacing" textLength="69" x="311.5" y="904.7969">Getter &lt;T&gt;</text><line style="stroke:#181818;stroke-width:0.5;" x1="283.5" x2="386.5" y1="915" y2="915"/><line style="stroke:#181818;stroke-width:0.5;" x1="283.5" x2="386.5" y1="923" y2="923"/><text fill="#000000" font-family="sans-serif" font-size="14" lengthAdjust="spacing" textLength="52" x="288.5" y="942.1074">T get(T)</text></g><!--class Setter--><g id="elem_Setter"><rect codeLine="171" fill="#F1F1F1" height="66.6211" id="Setter" rx="2.5" ry="2.5" style="stroke:#181818;stroke-width:0.5;" width="103" x="144.5" y="883"/><ellipse cx="159.5" cy="899" fill="#B4A7E5" rx="11" ry="11" style="stroke:#181818;stroke-width:1.0;"/><path d="M160.4531,895.6406 L160.4531,902.2969 L162.1719,902.2969 Q162.7813,902.2969 163.0469,902.5313 Q163.3125,902.7656 163.3125,903.1563 Q163.3125,903.5313 163.0469,903.7656 Q162.7813,904 162.1719,904 L157.0313,904 Q156.4219,904 156.1563,903.7656 Q155.8906,903.5313 155.8906,903.1406 Q155.8906,902.7656 156.1563,902.5313 Q156.4219,902.2969 157.0313,902.2969 L158.75,902.2969 L158.75,895.6406 L157.0313,895.6406 Q156.4219,895.6406 156.1563,895.4063 Q155.8906,895.1719 155.8906,894.7813 Q155.8906,894.4063 156.1563,894.1719 Q156.4219,893.9375 157.0313,893.9375 L162.1719,893.9375 Q162.7813,893.9375 163.0469,894.1719 Q163.3125,894.4063 163.3125,894.7813 Q163.3125,895.1719 163.0469,895.4063 Q162.7813,895.6406 162.1719,895.6406 L160.4531,895.6406 Z " fill="#000000"/><text fill="#000000" font-family="sans-serif" font-size="14" font-style="italic" lengthAdjust="spacing" textLength="67" x="173.5" y="904.7969">Setter &lt;T&gt;</text><line style="stroke:#181818;stroke-width:0.5;" x1="145.5" x2="246.5" y1="915" y2="915"/><line style="stroke:#181818;stroke-width:0.5;" x1="145.5" x2="246.5" y1="923" y2="923"/><text fill="#000000" font-family="sans-serif" font-size="14" lengthAdjust="spacing" textLength="51" x="150.5" y="942.1074">T set(T)</text></g><!--class ElementMonde--><g id="elem_ElementMonde"><rect codeLine="4" fill="#F1F1F1" height="327.3164" id="ElementMonde" rx="2.5" ry="2.5" style="stroke:#181818;stroke-width:0.5;" width="153" x="1798.5" y="356.5"/><ellipse cx="1825.2" cy="372.5" fill="#A9DCDF" rx="11" ry="11" style="stroke:#181818;stroke-width:1.0;"/><path d="M1827.3875,374.2656 L1823.2469,374.2656 L1822.825,375.2969 L1823.2469,375.2969 Q1823.8563,375.2969 1824.1219,375.5313 Q1824.3875,375.7656 1824.3875,376.1563 Q1824.3875,376.5313 1824.1219,376.7656 Q1823.8563,377 1823.2469,377 L1820.95,377 Q1820.3406,377 1820.0906,376.7656 Q1819.825,376.5313 1819.825,376.1406 Q1819.825,375.7656 1820.1063,375.5313 Q1820.3719,375.2813 1820.9969,375.2969 L1823.6688,368.6406 L1822.5594,368.6406 Q1821.95,368.6406 1821.6844,368.4063 Q1821.4188,368.1719 1821.4188,367.7813 Q1821.4188,367.4063 1821.6844,367.1719 Q1821.95,366.9375 1822.5594,366.9375 L1826.2313,366.9375 L1829.6219,375.2969 Q1830.2156,375.2969 1830.4031,375.4375 Q1830.7938,375.7031 1830.7938,376.1563 Q1830.7938,376.5313 1830.5281,376.7656 Q1830.2781,377 1829.6688,377 L1827.3719,377 Q1826.7625,377 1826.4969,376.7656 Q1826.2313,376.5313 1826.2313,376.1406 Q1826.2313,375.7656 1826.4969,375.5313 Q1826.7625,375.2969 1827.3719,375.2969 L1827.7938,375.2969 L1827.3875,374.2656 Z M1826.6688,372.5625 L1825.3094,369.1875 L1823.9344,372.5625 L1826.6688,372.5625 Z " fill="#000000"/><text fill="#000000" font-family="sans-serif" font-size="14" font-style="italic" lengthAdjust="spacing" textLength="95" x="1841.8" y="378.2969">ElementMonde</text><line style="stroke:#181818;stroke-width:0.5;" x1="1799.5" x2="1950.5" y1="388.5" y2="388.5"/><polygon fill="none" points="1809.5,398.3105,1813.5,402.3105,1809.5,406.3105,1805.5,402.3105" style="stroke:#B38D22;stroke-width:1.0;"/><text fill="#000000" font-family="sans-serif" font-size="14" lengthAdjust="spacing" textLength="53" x="1818.5" y="407.6074">double x</text><polygon fill="none" points="1809.5,416.9316,1813.5,420.9316,1809.5,424.9316,1805.5,420.9316" style="stroke:#B38D22;stroke-width:1.0;"/><text fill="#000000" font-family="sans-serif" font-size="14" lengthAdjust="spacing" textLength="54" x="1818.5" y="426.2285">double y</text><polygon fill="none" points="1809.5,435.5527,1813.5,439.5527,1809.5,443.5527,1805.5,439.5527" style="stroke:#B38D22;stroke-width:1.0;"/><text fill="#000000" font-family="sans-serif" font-size="14" lengthAdjust="spacing" textLength="96" x="1818.5" y="444.8496">double hauteur</text><polygon fill="none" points="1809.5,454.1738,1813.5,458.1738,1809.5,462.1738,1805.5,458.1738" style="stroke:#B38D22;stroke-width:1.0;"/><text fill="#000000" font-family="sans-serif" font-size="14" lengthAdjust="spacing" textLength="92" x="1818.5" y="463.4707">double largeur</text><ellipse cx="1809.5" cy="500.416" fill="#84BE84" rx="3" ry="3" style="stroke:#038048;stroke-width:1.0;"/><text fill="#000000" font-family="sans-serif" font-size="14" lengthAdjust="spacing" textLength="53" x="1818.5" y="504.7129">Monde()</text><line style="stroke:#181818;stroke-width:1.0;stroke-dasharray:1.0,2.0;" x1="1799.5" x2="1834" y1="480.2949" y2="480.2949"/><text fill="#000000" font-family="sans-serif" font-size="14" lengthAdjust="spacing" textLength="82" x="1834" y="485.5918">Constructeur</text><line style="stroke:#181818;stroke-width:1.0;stroke-dasharray:1.0,2.0;" x1="1916" x2="1950.5" y1="480.2949" y2="480.2949"/><ellipse cx="1809.5" cy="541.6582" fill="#84BE84" rx="3" ry="3" style="stroke:#038048;stroke-width:1.0;"/><text fill="#000000" font-family="sans-serif" font-size="14" lengthAdjust="spacing" textLength="85" x="1818.5" y="545.9551">double getX()</text><ellipse cx="1809.5" cy="560.2793" fill="#84BE84" rx="3" ry="3" style="stroke:#038048;stroke-width:1.0;"/><text fill="#000000" font-family="sans-serif" font-size="14" lengthAdjust="spacing" textLength="120" x="1818.5" y="564.5762">void setX(double x)</text><ellipse cx="1809.5" cy="578.9004" fill="#84BE84" rx="3" ry="3" style="stroke:#038048;stroke-width:1.0;"/><text fill="#000000" font-family="sans-serif" font-size="14" lengthAdjust="spacing" textLength="86" x="1818.5" y="583.1973">double getY()</text><ellipse cx="1809.5" cy="597.5215" fill="#84BE84" rx="3" ry="3" style="stroke:#038048;stroke-width:1.0;"/><text fill="#000000" font-family="sans-serif" font-size="14" lengthAdjust="spacing" textLength="122" x="1818.5" y="601.8184">void setY(double y)</text><ellipse cx="1809.5" cy="616.1426" fill="#84BE84" rx="3" ry="3" style="stroke:#038048;stroke-width:1.0;"/><text fill="#000000" font-family="sans-serif" font-size="14" lengthAdjust="spacing" textLength="127" x="1818.5" y="620.4395">double getHauteur()</text><ellipse cx="1809.5" cy="634.7637" fill="#84BE84" rx="3" ry="3" style="stroke:#038048;stroke-width:1.0;"/><text fill="#000000" font-family="sans-serif" font-size="14" lengthAdjust="spacing" textLength="127" x="1818.5" y="639.0605">double getLargeur()</text><ellipse cx="1809.5" cy="653.3848" fill="#84BE84" rx="3" ry="3" style="stroke:#038048;stroke-width:1.0;"/><text fill="#000000" font-family="sans-serif" font-size="14" lengthAdjust="spacing" textLength="100" x="1818.5" y="657.6816">String toString()</text><text fill="#000000" font-family="sans-serif" font-size="14" lengthAdjust="spacing" textLength="4" x="1818.5" y="676.3027">&#160;</text><line style="stroke:#181818;stroke-width:1.0;stroke-dasharray:1.0,2.0;" x1="1799.5" x2="1844" y1="521.5371" y2="521.5371"/><text fill="#000000" font-family="sans-serif" font-size="14" lengthAdjust="spacing" textLength="62" x="1844" y="526.834">M&#233;thodes</text><line style="stroke:#181818;stroke-width:1.0;stroke-dasharray:1.0,2.0;" x1="1906" x2="1950.5" y1="521.5371" y2="521.5371"/></g><!--class Terrain--><g id="elem_Terrain"><rect codeLine="21" fill="#F1F1F1" height="141.1055" id="Terrain" rx="2.5" ry="2.5" style="stroke:#181818;stroke-width:0.5;" width="401" x="1135.5" y="846"/><ellipse cx="1308.75" cy="862" fill="#A9DCDF" rx="11" ry="11" style="stroke:#181818;stroke-width:1.0;"/><path d="M1310.9375,863.7656 L1306.7969,863.7656 L1306.375,864.7969 L1306.7969,864.7969 Q1307.4063,864.7969 1307.6719,865.0313 Q1307.9375,865.2656 1307.9375,865.6563 Q1307.9375,866.0313 1307.6719,866.2656 Q1307.4063,866.5 1306.7969,866.5 L1304.5,866.5 Q1303.8906,866.5 1303.6406,866.2656 Q1303.375,866.0313 1303.375,865.6406 Q1303.375,865.2656 1303.6563,865.0313 Q1303.9219,864.7813 1304.5469,864.7969 L1307.2188,858.1406 L1306.1094,858.1406 Q1305.5,858.1406 1305.2344,857.9063 Q1304.9688,857.6719 1304.9688,857.2813 Q1304.9688,856.9063 1305.2344,856.6719 Q1305.5,856.4375 1306.1094,856.4375 L1309.7813,856.4375 L1313.1719,864.7969 Q1313.7656,864.7969 1313.9531,864.9375 Q1314.3438,865.2031 1314.3438,865.6563 Q1314.3438,866.0313 1314.0781,866.2656 Q1313.8281,866.5 1313.2188,866.5 L1310.9219,866.5 Q1310.3125,866.5 1310.0469,866.2656 Q1309.7813,866.0313 1309.7813,865.6406 Q1309.7813,865.2656 1310.0469,865.0313 Q1310.3125,864.7969 1310.9219,864.7969 L1311.3438,864.7969 L1310.9375,863.7656 Z M1310.2188,862.0625 L1308.8594,858.6875 L1307.4844,862.0625 L1310.2188,862.0625 Z " fill="#000000"/><text fill="#000000" font-family="sans-serif" font-size="14" font-style="italic" lengthAdjust="spacing" textLength="46" x="1329.25" y="867.7969">Terrain</text><line style="stroke:#181818;stroke-width:0.5;" x1="1136.5" x2="1535.5" y1="878" y2="878"/><ellipse cx="1146.5" cy="915.4316" fill="#84BE84" rx="3" ry="3" style="stroke:#038048;stroke-width:1.0;"/><text fill="#000000" font-family="sans-serif" font-size="14" lengthAdjust="spacing" textLength="375" x="1155.5" y="919.7285">Terrain(double x, double y, double hauteur, double largeur)</text><line style="stroke:#181818;stroke-width:1.0;stroke-dasharray:1.0,2.0;" x1="1136.5" x2="1295" y1="895.3105" y2="895.3105"/><text fill="#000000" font-family="sans-serif" font-size="14" lengthAdjust="spacing" textLength="82" x="1295" y="900.6074">Constructeur</text><line style="stroke:#181818;stroke-width:1.0;stroke-dasharray:1.0,2.0;" x1="1377" x2="1535.5" y1="895.3105" y2="895.3105"/><ellipse cx="1146.5" cy="956.6738" fill="#84BE84" rx="3" ry="3" style="stroke:#038048;stroke-width:1.0;"/><text fill="#000000" font-family="sans-serif" font-size="14" lengthAdjust="spacing" textLength="160" x="1155.5" y="960.9707">boolean estTraversable()</text><text fill="#000000" font-family="sans-serif" font-size="14" lengthAdjust="spacing" textLength="4" x="1155.5" y="979.5918">&#160;</text><line style="stroke:#181818;stroke-width:1.0;stroke-dasharray:1.0,2.0;" x1="1136.5" x2="1305" y1="936.5527" y2="936.5527"/><text fill="#000000" font-family="sans-serif" font-size="14" lengthAdjust="spacing" textLength="62" x="1305" y="941.8496">M&#233;thodes</text><line style="stroke:#181818;stroke-width:1.0;stroke-dasharray:1.0,2.0;" x1="1367" x2="1535.5" y1="936.5527" y2="936.5527"/></g><!--class Mur--><g id="elem_Mur"><rect codeLine="29" fill="#F1F1F1" height="122.4844" id="Mur" rx="2.5" ry="2.5" style="stroke:#181818;stroke-width:0.5;" width="379" x="918.5" y="1148"/><ellipse cx="1091.75" cy="1164" fill="#ADD1B2" rx="11" ry="11" style="stroke:#181818;stroke-width:1.0;"/><path d="M1094.5156,1159.875 Q1094.6719,1159.6563 1094.8594,1159.5469 Q1095.0469,1159.4375 1095.2656,1159.4375 Q1095.6406,1159.4375 1095.875,1159.7031 Q1096.1094,1159.9531 1096.1094,1160.5625 L1096.1094,1162.0156 Q1096.1094,1162.625 1095.875,1162.8906 Q1095.6406,1163.1563 1095.2656,1163.1563 Q1094.9219,1163.1563 1094.7188,1162.9531 Q1094.5156,1162.7656 1094.4063,1162.25 Q1094.3594,1161.8906 1094.1719,1161.7031 Q1093.8438,1161.3281 1093.2344,1161.1094 Q1092.625,1160.8906 1092,1160.8906 Q1091.2344,1160.8906 1090.5938,1161.2188 Q1089.9688,1161.5469 1089.4688,1162.2969 Q1088.9844,1163.0469 1088.9844,1164.0781 L1088.9844,1165.1719 Q1088.9844,1166.4063 1089.875,1167.2344 Q1090.7656,1168.0469 1092.3594,1168.0469 Q1093.2969,1168.0469 1093.9531,1167.7969 Q1094.3438,1167.6406 1094.7656,1167.2031 Q1095.0313,1166.9375 1095.1719,1166.8594 Q1095.3281,1166.7813 1095.5313,1166.7813 Q1095.8594,1166.7813 1096.1094,1167.0469 Q1096.375,1167.2969 1096.375,1167.6406 Q1096.375,1167.9844 1096.0313,1168.3906 Q1095.5313,1168.9688 1094.7344,1169.2969 Q1093.6563,1169.75 1092.3594,1169.75 Q1090.8438,1169.75 1089.6406,1169.125 Q1088.6563,1168.625 1087.9688,1167.5625 Q1087.2813,1166.4844 1087.2813,1165.2031 L1087.2813,1164.0469 Q1087.2813,1162.7188 1087.8906,1161.5781 Q1088.5156,1160.4219 1089.6094,1159.8125 Q1090.7031,1159.1875 1091.9375,1159.1875 Q1092.6719,1159.1875 1093.3125,1159.3594 Q1093.9688,1159.5156 1094.5156,1159.875 Z " fill="#000000"/><text fill="#000000" font-family="sans-serif" font-size="14" lengthAdjust="spacing" textLength="24" x="1112.25" y="1169.7969">Mur</text><line style="stroke:#181818;stroke-width:0.5;" x1="919.5" x2="1296.5" y1="1180" y2="1180"/><ellipse cx="929.5" cy="1217.4316" fill="#84BE84" rx="3" ry="3" style="stroke:#038048;stroke-width:1.0;"/><text fill="#000000" font-family="sans-serif" font-size="14" lengthAdjust="spacing" textLength="353" x="938.5" y="1221.7285">Mur(double x, double y, double hauteur, double largeur)</text><line style="stroke:#181818;stroke-width:1.0;stroke-dasharray:1.0,2.0;" x1="919.5" x2="1067" y1="1197.3105" y2="1197.3105"/><text fill="#000000" font-family="sans-serif" font-size="14" lengthAdjust="spacing" textLength="82" x="1067" y="1202.6074">Constructeur</text><line style="stroke:#181818;stroke-width:1.0;stroke-dasharray:1.0,2.0;" x1="1149" x2="1296.5" y1="1197.3105" y2="1197.3105"/><ellipse cx="929.5" cy="1258.6738" fill="#84BE84" rx="3" ry="3" style="stroke:#038048;stroke-width:1.0;"/><text fill="#000000" font-family="sans-serif" font-size="14" lengthAdjust="spacing" textLength="160" x="938.5" y="1262.9707">boolean estTraversable()</text><line style="stroke:#181818;stroke-width:1.0;stroke-dasharray:1.0,2.0;" x1="919.5" x2="1077" y1="1238.5527" y2="1238.5527"/><text fill="#000000" font-family="sans-serif" font-size="14" lengthAdjust="spacing" textLength="62" x="1077" y="1243.8496">M&#233;thodes</text><line style="stroke:#181818;stroke-width:1.0;stroke-dasharray:1.0,2.0;" x1="1139" x2="1296.5" y1="1238.5527" y2="1238.5527"/></g><!--class Personnage--><g id="elem_Personnage"><rect codeLine="37" fill="#F1F1F1" height="252.832" id="Personnage" rx="2.5" ry="2.5" style="stroke:#181818;stroke-width:0.5;" width="569" x="1580.5" y="790"/><ellipse cx="1822.25" cy="806" fill="#A9DCDF" rx="11" ry="11" style="stroke:#181818;stroke-width:1.0;"/><path d="M1824.4375,807.7656 L1820.2969,807.7656 L1819.875,808.7969 L1820.2969,808.7969 Q1820.9063,808.7969 1821.1719,809.0313 Q1821.4375,809.2656 1821.4375,809.6563 Q1821.4375,810.0313 1821.1719,810.2656 Q1820.9063,810.5 1820.2969,810.5 L1818,810.5 Q1817.3906,810.5 1817.1406,810.2656 Q1816.875,810.0313 1816.875,809.6406 Q1816.875,809.2656 1817.1563,809.0313 Q1817.4219,808.7813 1818.0469,808.7969 L1820.7188,802.1406 L1819.6094,802.1406 Q1819,802.1406 1818.7344,801.9063 Q1818.4688,801.6719 1818.4688,801.2813 Q1818.4688,800.9063 1818.7344,800.6719 Q1819,800.4375 1819.6094,800.4375 L1823.2813,800.4375 L1826.6719,808.7969 Q1827.2656,808.7969 1827.4531,808.9375 Q1827.8438,809.2031 1827.8438,809.6563 Q1827.8438,810.0313 1827.5781,810.2656 Q1827.3281,810.5 1826.7188,810.5 L1824.4219,810.5 Q1823.8125,810.5 1823.5469,810.2656 Q1823.2813,810.0313 1823.2813,809.6406 Q1823.2813,809.2656 1823.5469,809.0313 Q1823.8125,808.7969 1824.4219,808.7969 L1824.8438,808.7969 L1824.4375,807.7656 Z M1823.7188,806.0625 L1822.3594,802.6875 L1820.9844,806.0625 L1823.7188,806.0625 Z " fill="#000000"/><text fill="#000000" font-family="sans-serif" font-size="14" font-style="italic" lengthAdjust="spacing" textLength="77" x="1842.75" y="811.7969">Personnage</text><line style="stroke:#181818;stroke-width:0.5;" x1="1581.5" x2="2148.5" y1="822" y2="822"/><polygon fill="none" points="1591.5,831.8105,1595.5,835.8105,1591.5,839.8105,1587.5,835.8105" style="stroke:#B38D22;stroke-width:1.0;"/><text fill="#000000" font-family="sans-serif" font-size="14" lengthAdjust="spacing" textLength="91" x="1600.5" y="841.1074">double vitesse</text><rect fill="none" height="6" style="stroke:#C82930;stroke-width:1.0;" width="6" x="1588.5" y="852.4316"/><text fill="#000000" font-family="sans-serif" font-size="14" lengthAdjust="spacing" textLength="30" x="1600.5" y="859.7285">int id</text><ellipse cx="1591.5" cy="896.6738" fill="#84BE84" rx="3" ry="3" style="stroke:#038048;stroke-width:1.0;"/><text fill="#000000" font-family="sans-serif" font-size="14" lengthAdjust="spacing" textLength="505" x="1600.5" y="900.9707">Personnage(double x, double y, double largeur, double hauteur, double vitesse)</text><ellipse cx="1591.5" cy="915.2949" fill="#84BE84" rx="3" ry="3" style="stroke:#038048;stroke-width:1.0;"/><text fill="#000000" font-family="sans-serif" font-size="14" lengthAdjust="spacing" textLength="543" x="1600.5" y="919.5918">Personnage(double x, double y, double hauteur, double largeur, double vitesse, int id)</text><line style="stroke:#181818;stroke-width:1.0;stroke-dasharray:1.0,2.0;" x1="1581.5" x2="1824" y1="876.5527" y2="876.5527"/><text fill="#000000" font-family="sans-serif" font-size="14" lengthAdjust="spacing" textLength="82" x="1824" y="881.8496">Constructeur</text><line style="stroke:#181818;stroke-width:1.0;stroke-dasharray:1.0,2.0;" x1="1906" x2="2148.5" y1="876.5527" y2="876.5527"/><ellipse cx="1591.5" cy="956.5371" fill="#84BE84" rx="3" ry="3" style="stroke:#038048;stroke-width:1.0;"/><text fill="#000000" font-family="sans-serif" font-size="14" lengthAdjust="spacing" textLength="421" x="1600.5" y="960.834">void d&#233;placer(TypeMouvement typeMouvement, double deltaTime)</text><ellipse cx="1591.5" cy="975.1582" fill="#84BE84" rx="3" ry="3" style="stroke:#038048;stroke-width:1.0;"/><text fill="#000000" font-family="sans-serif" font-size="14" lengthAdjust="spacing" textLength="138" x="1600.5" y="979.4551">boolean estUnHeros()</text><ellipse cx="1591.5" cy="993.7793" fill="#84BE84" rx="3" ry="3" style="stroke:#038048;stroke-width:1.0;"/><text fill="#000000" font-family="sans-serif" font-size="14" lengthAdjust="spacing" textLength="60" x="1600.5" y="998.0762">int getId()</text><ellipse cx="1591.5" cy="1012.4004" fill="#84BE84" rx="3" ry="3" style="stroke:#038048;stroke-width:1.0;"/><text fill="#000000" font-family="sans-serif" font-size="14" lengthAdjust="spacing" textLength="123" x="1600.5" y="1016.6973">double getVitesse()</text><ellipse cx="1591.5" cy="1031.0215" fill="#84BE84" rx="3" ry="3" style="stroke:#038048;stroke-width:1.0;"/><text fill="#000000" font-family="sans-serif" font-size="14" lengthAdjust="spacing" textLength="100" x="1600.5" y="1035.3184">String toString()</text><line style="stroke:#181818;stroke-width:1.0;stroke-dasharray:1.0,2.0;" x1="1581.5" x2="1834" y1="936.416" y2="936.416"/><text fill="#000000" font-family="sans-serif" font-size="14" lengthAdjust="spacing" textLength="62" x="1834" y="941.7129">M&#233;thodes</text><line style="stroke:#181818;stroke-width:1.0;stroke-dasharray:1.0,2.0;" x1="1896" x2="2148.5" y1="936.416" y2="936.416"/></g><!--class TypeMouvement--><g id="elem_TypeMouvement"><rect codeLine="51" fill="#F1F1F1" height="122.4844" id="TypeMouvement" rx="2.5" ry="2.5" style="stroke:#181818;stroke-width:0.5;" width="137" x="1626.5" y="459"/><ellipse cx="1641.5" cy="475" fill="#EB937F" rx="11" ry="11" style="stroke:#181818;stroke-width:1.0;"/><path d="M1640.3594,475.7969 L1640.3594,478.2969 L1644.6875,478.2969 L1644.6875,477.375 Q1644.6875,476.7656 1644.9219,476.5 Q1645.1719,476.2344 1645.5469,476.2344 Q1645.9219,476.2344 1646.1563,476.5 Q1646.3906,476.7656 1646.3906,477.375 L1646.3906,480 L1638.3906,480 Q1637.7656,480 1637.5,479.7656 Q1637.25,479.5313 1637.25,479.1406 Q1637.25,478.7656 1637.5156,478.5313 Q1637.7813,478.2969 1638.3906,478.2969 L1638.6563,478.2969 L1638.6563,471.6406 L1638.3906,471.6406 Q1637.7656,471.6406 1637.5,471.4063 Q1637.25,471.1719 1637.25,470.7813 Q1637.25,470.4063 1637.5,470.1719 Q1637.7656,469.9375 1638.3906,469.9375 L1646.0156,469.9375 L1646.0156,472.5313 Q1646.0156,473.1406 1645.7813,473.4063 Q1645.5625,473.6563 1645.1719,473.6563 Q1644.7969,473.6563 1644.5625,473.4063 Q1644.3281,473.1406 1644.3281,472.5313 L1644.3281,471.6406 L1640.3594,471.6406 L1640.3594,474.0938 L1641.8438,474.0938 Q1641.8438,473.4375 1641.9688,473.25 Q1642.2344,472.8438 1642.7031,472.8438 Q1643.0781,472.8438 1643.3125,473.1094 Q1643.5469,473.3594 1643.5469,473.9688 L1643.5469,475.9375 Q1643.5469,476.4844 1643.4219,476.6719 Q1643.1563,477.0625 1642.7031,477.0625 Q1642.2344,477.0625 1641.9688,476.6563 Q1641.8438,476.4688 1641.8438,475.7969 L1640.3594,475.7969 Z " fill="#000000"/><text fill="#000000" font-family="sans-serif" font-size="14" lengthAdjust="spacing" textLength="105" x="1655.5" y="480.7969">TypeMouvement</text><line style="stroke:#181818;stroke-width:0.5;" x1="1627.5" x2="1762.5" y1="491" y2="491"/><text fill="#000000" font-family="sans-serif" font-size="14" lengthAdjust="spacing" textLength="42" x="1632.5" y="510.1074">RIGHT</text><text fill="#000000" font-family="sans-serif" font-size="14" lengthAdjust="spacing" textLength="35" x="1632.5" y="528.7285">LEFT</text><text fill="#000000" font-family="sans-serif" font-size="14" lengthAdjust="spacing" textLength="18" x="1632.5" y="547.3496">UP</text><text fill="#000000" font-family="sans-serif" font-size="14" lengthAdjust="spacing" textLength="43" x="1632.5" y="565.9707">DOWN</text><line style="stroke:#181818;stroke-width:0.5;" x1="1627.5" x2="1762.5" y1="573.4844" y2="573.4844"/></g><!--class Heros--><g id="elem_Heros"><rect codeLine="58" fill="#F1F1F1" height="122.4844" id="Heros" rx="2.5" ry="2.5" style="stroke:#181818;stroke-width:0.5;" width="392" x="1333" y="1148"/><ellipse cx="1506.25" cy="1164" fill="#ADD1B2" rx="11" ry="11" style="stroke:#181818;stroke-width:1.0;"/><path d="M1509.0156,1159.875 Q1509.1719,1159.6563 1509.3594,1159.5469 Q1509.5469,1159.4375 1509.7656,1159.4375 Q1510.1406,1159.4375 1510.375,1159.7031 Q1510.6094,1159.9531 1510.6094,1160.5625 L1510.6094,1162.0156 Q1510.6094,1162.625 1510.375,1162.8906 Q1510.1406,1163.1563 1509.7656,1163.1563 Q1509.4219,1163.1563 1509.2188,1162.9531 Q1509.0156,1162.7656 1508.9063,1162.25 Q1508.8594,1161.8906 1508.6719,1161.7031 Q1508.3438,1161.3281 1507.7344,1161.1094 Q1507.125,1160.8906 1506.5,1160.8906 Q1505.7344,1160.8906 1505.0938,1161.2188 Q1504.4688,1161.5469 1503.9688,1162.2969 Q1503.4844,1163.0469 1503.4844,1164.0781 L1503.4844,1165.1719 Q1503.4844,1166.4063 1504.375,1167.2344 Q1505.2656,1168.0469 1506.8594,1168.0469 Q1507.7969,1168.0469 1508.4531,1167.7969 Q1508.8438,1167.6406 1509.2656,1167.2031 Q1509.5313,1166.9375 1509.6719,1166.8594 Q1509.8281,1166.7813 1510.0313,1166.7813 Q1510.3594,1166.7813 1510.6094,1167.0469 Q1510.875,1167.2969 1510.875,1167.6406 Q1510.875,1167.9844 1510.5313,1168.3906 Q1510.0313,1168.9688 1509.2344,1169.2969 Q1508.1563,1169.75 1506.8594,1169.75 Q1505.3438,1169.75 1504.1406,1169.125 Q1503.1563,1168.625 1502.4688,1167.5625 Q1501.7813,1166.4844 1501.7813,1165.2031 L1501.7813,1164.0469 Q1501.7813,1162.7188 1502.3906,1161.5781 Q1503.0156,1160.4219 1504.1094,1159.8125 Q1505.2031,1159.1875 1506.4375,1159.1875 Q1507.1719,1159.1875 1507.8125,1159.3594 Q1508.4688,1159.5156 1509.0156,1159.875 Z " fill="#000000"/><text fill="#000000" font-family="sans-serif" font-size="14" lengthAdjust="spacing" textLength="37" x="1526.75" y="1169.7969">Heros</text><line style="stroke:#181818;stroke-width:0.5;" x1="1334" x2="1724" y1="1180" y2="1180"/><ellipse cx="1344" cy="1217.4316" fill="#84BE84" rx="3" ry="3" style="stroke:#038048;stroke-width:1.0;"/><text fill="#000000" font-family="sans-serif" font-size="14" lengthAdjust="spacing" textLength="366" x="1353" y="1221.7285">Heros(double x, double y, double largeur, double hauteur)</text><line style="stroke:#181818;stroke-width:1.0;stroke-dasharray:1.0,2.0;" x1="1334" x2="1488" y1="1197.3105" y2="1197.3105"/><text fill="#000000" font-family="sans-serif" font-size="14" lengthAdjust="spacing" textLength="82" x="1488" y="1202.6074">Constructeur</text><line style="stroke:#181818;stroke-width:1.0;stroke-dasharray:1.0,2.0;" x1="1570" x2="1724" y1="1197.3105" y2="1197.3105"/><ellipse cx="1344" cy="1258.6738" fill="#84BE84" rx="3" ry="3" style="stroke:#038048;stroke-width:1.0;"/><text fill="#000000" font-family="sans-serif" font-size="14" lengthAdjust="spacing" textLength="138" x="1353" y="1262.9707">boolean estUnHeros()</text><line style="stroke:#181818;stroke-width:1.0;stroke-dasharray:1.0,2.0;" x1="1334" x2="1498" y1="1238.5527" y2="1238.5527"/><text fill="#000000" font-family="sans-serif" font-size="14" lengthAdjust="spacing" textLength="62" x="1498" y="1243.8496">M&#233;thodes</text><line style="stroke:#181818;stroke-width:1.0;stroke-dasharray:1.0,2.0;" x1="1560" x2="1724" y1="1238.5527" y2="1238.5527"/></g><!--class Monstre--><g id="elem_Monstre"><rect codeLine="65" fill="#F1F1F1" height="81.2422" id="Monstre" rx="2.5" ry="2.5" style="stroke:#181818;stroke-width:0.5;" width="543" x="1760.5" y="1168.5"/><ellipse cx="2001.75" cy="1184.5" fill="#A9DCDF" rx="11" ry="11" style="stroke:#181818;stroke-width:1.0;"/><path d="M2003.9375,1186.2656 L1999.7969,1186.2656 L1999.375,1187.2969 L1999.7969,1187.2969 Q2000.4063,1187.2969 2000.6719,1187.5313 Q2000.9375,1187.7656 2000.9375,1188.1563 Q2000.9375,1188.5313 2000.6719,1188.7656 Q2000.4063,1189 1999.7969,1189 L1997.5,1189 Q1996.8906,1189 1996.6406,1188.7656 Q1996.375,1188.5313 1996.375,1188.1406 Q1996.375,1187.7656 1996.6563,1187.5313 Q1996.9219,1187.2813 1997.5469,1187.2969 L2000.2188,1180.6406 L1999.1094,1180.6406 Q1998.5,1180.6406 1998.2344,1180.4063 Q1997.9688,1180.1719 1997.9688,1179.7813 Q1997.9688,1179.4063 1998.2344,1179.1719 Q1998.5,1178.9375 1999.1094,1178.9375 L2002.7813,1178.9375 L2006.1719,1187.2969 Q2006.7656,1187.2969 2006.9531,1187.4375 Q2007.3438,1187.7031 2007.3438,1188.1563 Q2007.3438,1188.5313 2007.0781,1188.7656 Q2006.8281,1189 2006.2188,1189 L2003.9219,1189 Q2003.3125,1189 2003.0469,1188.7656 Q2002.7813,1188.5313 2002.7813,1188.1406 Q2002.7813,1187.7656 2003.0469,1187.5313 Q2003.3125,1187.2969 2003.9219,1187.2969 L2004.3438,1187.2969 L2003.9375,1186.2656 Z M2003.2188,1184.5625 L2001.8594,1181.1875 L2000.4844,1184.5625 L2003.2188,1184.5625 Z " fill="#000000"/><text fill="#000000" font-family="sans-serif" font-size="14" font-style="italic" lengthAdjust="spacing" textLength="52" x="2022.25" y="1190.2969">Monstre</text><line style="stroke:#181818;stroke-width:0.5;" x1="1761.5" x2="2302.5" y1="1200.5" y2="1200.5"/><ellipse cx="1771.5" cy="1237.9316" fill="#84BE84" rx="3" ry="3" style="stroke:#038048;stroke-width:1.0;"/><text fill="#000000" font-family="sans-serif" font-size="14" lengthAdjust="spacing" textLength="517" x="1780.5" y="1242.2285">Monstre(double x, double y, double largeur, double hauteur, double vitesse, int id)</text><line style="stroke:#181818;stroke-width:1.0;stroke-dasharray:1.0,2.0;" x1="1761.5" x2="1991" y1="1217.8105" y2="1217.8105"/><text fill="#000000" font-family="sans-serif" font-size="14" lengthAdjust="spacing" textLength="82" x="1991" y="1223.1074">Constructeur</text><line style="stroke:#181818;stroke-width:1.0;stroke-dasharray:1.0,2.0;" x1="2073" x2="2302.5" y1="1217.8105" y2="1217.8105"/></g><!--class Walker--><g id="elem_Walker"><rect codeLine="70" fill="#F1F1F1" height="99.8633" id="Walker" rx="2.5" ry="2.5" style="stroke:#181818;stroke-width:0.5;" width="399" x="1832.5" y="1375"/><ellipse cx="2005.75" cy="1391" fill="#ADD1B2" rx="11" ry="11" style="stroke:#181818;stroke-width:1.0;"/><path d="M2008.5156,1386.875 Q2008.6719,1386.6563 2008.8594,1386.5469 Q2009.0469,1386.4375 2009.2656,1386.4375 Q2009.6406,1386.4375 2009.875,1386.7031 Q2010.1094,1386.9531 2010.1094,1387.5625 L2010.1094,1389.0156 Q2010.1094,1389.625 2009.875,1389.8906 Q2009.6406,1390.1563 2009.2656,1390.1563 Q2008.9219,1390.1563 2008.7188,1389.9531 Q2008.5156,1389.7656 2008.4063,1389.25 Q2008.3594,1388.8906 2008.1719,1388.7031 Q2007.8438,1388.3281 2007.2344,1388.1094 Q2006.625,1387.8906 2006,1387.8906 Q2005.2344,1387.8906 2004.5938,1388.2188 Q2003.9688,1388.5469 2003.4688,1389.2969 Q2002.9844,1390.0469 2002.9844,1391.0781 L2002.9844,1392.1719 Q2002.9844,1393.4063 2003.875,1394.2344 Q2004.7656,1395.0469 2006.3594,1395.0469 Q2007.2969,1395.0469 2007.9531,1394.7969 Q2008.3438,1394.6406 2008.7656,1394.2031 Q2009.0313,1393.9375 2009.1719,1393.8594 Q2009.3281,1393.7813 2009.5313,1393.7813 Q2009.8594,1393.7813 2010.1094,1394.0469 Q2010.375,1394.2969 2010.375,1394.6406 Q2010.375,1394.9844 2010.0313,1395.3906 Q2009.5313,1395.9688 2008.7344,1396.2969 Q2007.6563,1396.75 2006.3594,1396.75 Q2004.8438,1396.75 2003.6406,1396.125 Q2002.6563,1395.625 2001.9688,1394.5625 Q2001.2813,1393.4844 2001.2813,1392.2031 L2001.2813,1391.0469 Q2001.2813,1389.7188 2001.8906,1388.5781 Q2002.5156,1387.4219 2003.6094,1386.8125 Q2004.7031,1386.1875 2005.9375,1386.1875 Q2006.6719,1386.1875 2007.3125,1386.3594 Q2007.9688,1386.5156 2008.5156,1386.875 Z " fill="#000000"/><text fill="#000000" font-family="sans-serif" font-size="14" lengthAdjust="spacing" textLength="44" x="2026.25" y="1396.7969">Walker</text><line style="stroke:#181818;stroke-width:0.5;" x1="1833.5" x2="2230.5" y1="1407" y2="1407"/><ellipse cx="1843.5" cy="1444.4316" fill="#84BE84" rx="3" ry="3" style="stroke:#038048;stroke-width:1.0;"/><text fill="#000000" font-family="sans-serif" font-size="14" lengthAdjust="spacing" textLength="373" x="1852.5" y="1448.7285">Walker(double x, double y, double largeur, double hauteur)</text><ellipse cx="1843.5" cy="1463.0527" fill="#84BE84" rx="3" ry="3" style="stroke:#038048;stroke-width:1.0;"/><text fill="#000000" font-family="sans-serif" font-size="14" lengthAdjust="spacing" textLength="373" x="1852.5" y="1467.3496">Walker(double x, double y, double hauteur, double largeur)</text><line style="stroke:#181818;stroke-width:1.0;stroke-dasharray:1.0,2.0;" x1="1833.5" x2="1991" y1="1424.3105" y2="1424.3105"/><text fill="#000000" font-family="sans-serif" font-size="14" lengthAdjust="spacing" textLength="82" x="1991" y="1429.6074">Constructeur</text><line style="stroke:#181818;stroke-width:1.0;stroke-dasharray:1.0,2.0;" x1="2073" x2="2230.5" y1="1424.3105" y2="1424.3105"/></g><!--class Monde--><g id="elem_Monde"><rect codeLine="76" fill="#F1F1F1" height="401.8008" id="Monde" rx="2.5" ry="2.5" style="stroke:#181818;stroke-width:0.5;" width="510" x="1081" y="319"/><ellipse cx="1310.25" cy="335" fill="#ADD1B2" rx="11" ry="11" style="stroke:#181818;stroke-width:1.0;"/><path d="M1313.0156,330.875 Q1313.1719,330.6563 1313.3594,330.5469 Q1313.5469,330.4375 1313.7656,330.4375 Q1314.1406,330.4375 1314.375,330.7031 Q1314.6094,330.9531 1314.6094,331.5625 L1314.6094,333.0156 Q1314.6094,333.625 1314.375,333.8906 Q1314.1406,334.1563 1313.7656,334.1563 Q1313.4219,334.1563 1313.2188,333.9531 Q1313.0156,333.7656 1312.9063,333.25 Q1312.8594,332.8906 1312.6719,332.7031 Q1312.3438,332.3281 1311.7344,332.1094 Q1311.125,331.8906 1310.5,331.8906 Q1309.7344,331.8906 1309.0938,332.2188 Q1308.4688,332.5469 1307.9688,333.2969 Q1307.4844,334.0469 1307.4844,335.0781 L1307.4844,336.1719 Q1307.4844,337.4063 1308.375,338.2344 Q1309.2656,339.0469 1310.8594,339.0469 Q1311.7969,339.0469 1312.4531,338.7969 Q1312.8438,338.6406 1313.2656,338.2031 Q1313.5313,337.9375 1313.6719,337.8594 Q1313.8281,337.7813 1314.0313,337.7813 Q1314.3594,337.7813 1314.6094,338.0469 Q1314.875,338.2969 1314.875,338.6406 Q1314.875,338.9844 1314.5313,339.3906 Q1314.0313,339.9688 1313.2344,340.2969 Q1312.1563,340.75 1310.8594,340.75 Q1309.3438,340.75 1308.1406,340.125 Q1307.1563,339.625 1306.4688,338.5625 Q1305.7813,337.4844 1305.7813,336.2031 L1305.7813,335.0469 Q1305.7813,333.7188 1306.3906,332.5781 Q1307.0156,331.4219 1308.1094,330.8125 Q1309.2031,330.1875 1310.4375,330.1875 Q1311.1719,330.1875 1311.8125,330.3594 Q1312.4688,330.5156 1313.0156,330.875 Z " fill="#000000"/><text fill="#000000" font-family="sans-serif" font-size="14" lengthAdjust="spacing" textLength="43" x="1330.75" y="340.7969">Monde</text><line style="stroke:#181818;stroke-width:0.5;" x1="1082" x2="1590" y1="351" y2="351"/><polygon fill="none" points="1092,360.8105,1096,364.8105,1092,368.8105,1088,364.8105" style="stroke:#B38D22;stroke-width:1.0;"/><text fill="#000000" font-family="sans-serif" font-size="14" lengthAdjust="spacing" textLength="70" x="1101" y="370.1074">int nbLigne</text><polygon fill="none" points="1092,379.4316,1096,383.4316,1092,387.4316,1088,383.4316" style="stroke:#B38D22;stroke-width:1.0;"/><text fill="#000000" font-family="sans-serif" font-size="14" lengthAdjust="spacing" textLength="56" x="1101" y="388.7285">int nbCol</text><ellipse cx="1092" cy="425.6738" fill="#84BE84" rx="3" ry="3" style="stroke:#038048;stroke-width:1.0;"/><text fill="#000000" font-family="sans-serif" font-size="14" lengthAdjust="spacing" textLength="53" x="1101" y="429.9707">Monde()</text><line style="stroke:#181818;stroke-width:1.0;stroke-dasharray:1.0,2.0;" x1="1082" x2="1295" y1="405.5527" y2="405.5527"/><text fill="#000000" font-family="sans-serif" font-size="14" lengthAdjust="spacing" textLength="82" x="1295" y="410.8496">Constructeur</text><line style="stroke:#181818;stroke-width:1.0;stroke-dasharray:1.0,2.0;" x1="1377" x2="1590" y1="405.5527" y2="405.5527"/><ellipse cx="1092" cy="466.916" fill="#84BE84" rx="3" ry="3" style="stroke:#038048;stroke-width:1.0;"/><text fill="#000000" font-family="sans-serif" font-size="14" lengthAdjust="spacing" textLength="351" x="1101" y="471.2129">boolean collision(ElementMonde e1, ElementMonde e2)</text><ellipse cx="1092" cy="485.5371" fill="#84BE84" rx="3" ry="3" style="stroke:#038048;stroke-width:1.0;"/><text fill="#000000" font-family="sans-serif" font-size="14" lengthAdjust="spacing" textLength="108" x="1101" y="489.834">Heros getHeros()</text><ellipse cx="1092" cy="504.1582" fill="#84BE84" rx="3" ry="3" style="stroke:#038048;stroke-width:1.0;"/><text fill="#000000" font-family="sans-serif" font-size="14" lengthAdjust="spacing" textLength="484" x="1101" y="508.4551">void deplacementHeros(TypeMouvement typeMouvement, double deltaTime)</text><ellipse cx="1092" cy="522.7793" fill="#84BE84" rx="3" ry="3" style="stroke:#038048;stroke-width:1.0;"/><text fill="#000000" font-family="sans-serif" font-size="14" lengthAdjust="spacing" textLength="179" x="1101" y="527.0762">void deplacementMonstres()</text><ellipse cx="1092" cy="541.4004" fill="#84BE84" rx="3" ry="3" style="stroke:#038048;stroke-width:1.0;"/><text fill="#000000" font-family="sans-serif" font-size="14" lengthAdjust="spacing" textLength="171" x="1101" y="545.6973">void addTerrains(Terrain t)</text><ellipse cx="1092" cy="560.0215" fill="#84BE84" rx="3" ry="3" style="stroke:#038048;stroke-width:1.0;"/><text fill="#000000" font-family="sans-serif" font-size="14" lengthAdjust="spacing" textLength="230" x="1101" y="564.3184">void addPersonnage(Personnage p)</text><ellipse cx="1092" cy="578.6426" fill="#84BE84" rx="3" ry="3" style="stroke:#038048;stroke-width:1.0;"/><text fill="#000000" font-family="sans-serif" font-size="14" lengthAdjust="spacing" textLength="114" x="1101" y="582.9395">void updateData()</text><ellipse cx="1092" cy="597.2637" fill="#84BE84" rx="3" ry="3" style="stroke:#038048;stroke-width:1.0;"/><text fill="#000000" font-family="sans-serif" font-size="14" lengthAdjust="spacing" textLength="197" x="1101" y="601.5605">void chargerCarte(String carte)</text><ellipse cx="1092" cy="615.8848" fill="#84BE84" rx="3" ry="3" style="stroke:#038048;stroke-width:1.0;"/><text fill="#000000" font-family="sans-serif" font-size="14" lengthAdjust="spacing" textLength="423" x="1101" y="620.1816">boolean collisionAvec(Personnage pers, boolean checkAvecHeros)</text><ellipse cx="1092" cy="634.5059" fill="#84BE84" rx="3" ry="3" style="stroke:#038048;stroke-width:1.0;"/><text fill="#000000" font-family="sans-serif" font-size="14" lengthAdjust="spacing" text-decoration="underline" textLength="260" x="1101" y="638.8027">int intLePlusProche(int value, int multiple)</text><ellipse cx="1092" cy="653.127" fill="#84BE84" rx="3" ry="3" style="stroke:#038048;stroke-width:1.0;"/><text fill="#000000" font-family="sans-serif" font-size="14" lengthAdjust="spacing" textLength="355" x="1101" y="657.4238">void deplacementMonstre(Monstre m, double deltaTime)</text><ellipse cx="1092" cy="671.748" fill="#84BE84" rx="3" ry="3" style="stroke:#038048;stroke-width:1.0;"/><text fill="#000000" font-family="sans-serif" font-size="14" lengthAdjust="spacing" textLength="423" x="1101" y="676.0449">Graph&lt;Point2D, DefaultEdge&gt; grapheAlternatif(Monstre m, int pas)</text><ellipse cx="1092" cy="690.3691" fill="#84BE84" rx="3" ry="3" style="stroke:#038048;stroke-width:1.0;"/><text fill="#000000" font-family="sans-serif" font-size="14" lengthAdjust="spacing" textLength="288" x="1101" y="694.666">boolean collisionAvecTerrains(Personnage p)</text><ellipse cx="1092" cy="708.9902" fill="#84BE84" rx="3" ry="3" style="stroke:#038048;stroke-width:1.0;"/><text fill="#000000" font-family="sans-serif" font-size="14" lengthAdjust="spacing" textLength="288" x="1101" y="713.2871">void deplacementMonstres(double deltaTime)</text><line style="stroke:#181818;stroke-width:1.0;stroke-dasharray:1.0,2.0;" x1="1082" x2="1305" y1="446.7949" y2="446.7949"/><text fill="#000000" font-family="sans-serif" font-size="14" lengthAdjust="spacing" textLength="62" x="1305" y="452.0918">M&#233;thodes</text><line style="stroke:#181818;stroke-width:1.0;stroke-dasharray:1.0,2.0;" x1="1367" x2="1590" y1="446.7949" y2="446.7949"/></g><!--class Donnees--><g id="elem_Donnees"><rect codeLine="100" fill="#F1F1F1" height="141.1055" id="Donnees" rx="2.5" ry="2.5" style="stroke:#181818;stroke-width:0.5;" width="233" x="594.5" y="449.5"/><ellipse cx="678.25" cy="465.5" fill="#ADD1B2" rx="11" ry="11" style="stroke:#181818;stroke-width:1.0;"/><path d="M681.0156,461.375 Q681.1719,461.1563 681.3594,461.0469 Q681.5469,460.9375 681.7656,460.9375 Q682.1406,460.9375 682.375,461.2031 Q682.6094,461.4531 682.6094,462.0625 L682.6094,463.5156 Q682.6094,464.125 682.375,464.3906 Q682.1406,464.6563 681.7656,464.6563 Q681.4219,464.6563 681.2188,464.4531 Q681.0156,464.2656 680.9063,463.75 Q680.8594,463.3906 680.6719,463.2031 Q680.3438,462.8281 679.7344,462.6094 Q679.125,462.3906 678.5,462.3906 Q677.7344,462.3906 677.0938,462.7188 Q676.4688,463.0469 675.9688,463.7969 Q675.4844,464.5469 675.4844,465.5781 L675.4844,466.6719 Q675.4844,467.9063 676.375,468.7344 Q677.2656,469.5469 678.8594,469.5469 Q679.7969,469.5469 680.4531,469.2969 Q680.8438,469.1406 681.2656,468.7031 Q681.5313,468.4375 681.6719,468.3594 Q681.8281,468.2813 682.0313,468.2813 Q682.3594,468.2813 682.6094,468.5469 Q682.875,468.7969 682.875,469.1406 Q682.875,469.4844 682.5313,469.8906 Q682.0313,470.4688 681.2344,470.7969 Q680.1563,471.25 678.8594,471.25 Q677.3438,471.25 676.1406,470.625 Q675.1563,470.125 674.4688,469.0625 Q673.7813,467.9844 673.7813,466.7031 L673.7813,465.5469 Q673.7813,464.2188 674.3906,463.0781 Q675.0156,461.9219 676.1094,461.3125 Q677.2031,460.6875 678.4375,460.6875 Q679.1719,460.6875 679.8125,460.8594 Q680.4688,461.0156 681.0156,461.375 Z " fill="#000000"/><text fill="#000000" font-family="sans-serif" font-size="14" lengthAdjust="spacing" textLength="57" x="698.75" y="471.2969">Donnees</text><line style="stroke:#181818;stroke-width:0.5;" x1="595.5" x2="826.5" y1="481.5" y2="481.5"/><ellipse cx="605.5" cy="496.3105" fill="none" rx="3" ry="3" style="stroke:#038048;stroke-width:1.0;"/><text fill="#000000" font-family="sans-serif" font-size="14" lengthAdjust="spacing" text-decoration="underline" textLength="207" x="614.5" y="500.6074">int WINDOW_DEFAULT_HEIGHT</text><ellipse cx="605.5" cy="514.9316" fill="none" rx="3" ry="3" style="stroke:#038048;stroke-width:1.0;"/><text fill="#000000" font-family="sans-serif" font-size="14" lengthAdjust="spacing" text-decoration="underline" textLength="201" x="614.5" y="519.2285">int WINDOW_DEFAULT_WIDTH</text><ellipse cx="605.5" cy="533.5527" fill="none" rx="3" ry="3" style="stroke:#038048;stroke-width:1.0;"/><text fill="#000000" font-family="sans-serif" font-size="14" lengthAdjust="spacing" text-decoration="underline" textLength="129" x="614.5" y="537.8496">int WORLD_HEIGHT</text><ellipse cx="605.5" cy="552.1738" fill="none" rx="3" ry="3" style="stroke:#038048;stroke-width:1.0;"/><text fill="#000000" font-family="sans-serif" font-size="14" lengthAdjust="spacing" text-decoration="underline" textLength="123" x="614.5" y="556.4707">int WORLD_WIDTH</text><text fill="#000000" font-family="sans-serif" font-size="14" lengthAdjust="spacing" textLength="12" x="614.5" y="575.0918">...</text><line style="stroke:#181818;stroke-width:0.5;" x1="595.5" x2="826.5" y1="582.6055" y2="582.6055"/></g><!--class GestionFichier--><g id="elem_GestionFichier"><rect codeLine="108" fill="#F1F1F1" height="122.4844" id="GestionFichier" rx="2.5" ry="2.5" style="stroke:#181818;stroke-width:0.5;" width="282" x="570" y="855.5"/><ellipse cx="660.75" cy="871.5" fill="#ADD1B2" rx="11" ry="11" style="stroke:#181818;stroke-width:1.0;"/><path d="M663.5156,867.375 Q663.6719,867.1563 663.8594,867.0469 Q664.0469,866.9375 664.2656,866.9375 Q664.6406,866.9375 664.875,867.2031 Q665.1094,867.4531 665.1094,868.0625 L665.1094,869.5156 Q665.1094,870.125 664.875,870.3906 Q664.6406,870.6563 664.2656,870.6563 Q663.9219,870.6563 663.7188,870.4531 Q663.5156,870.2656 663.4063,869.75 Q663.3594,869.3906 663.1719,869.2031 Q662.8438,868.8281 662.2344,868.6094 Q661.625,868.3906 661,868.3906 Q660.2344,868.3906 659.5938,868.7188 Q658.9688,869.0469 658.4688,869.7969 Q657.9844,870.5469 657.9844,871.5781 L657.9844,872.6719 Q657.9844,873.9063 658.875,874.7344 Q659.7656,875.5469 661.3594,875.5469 Q662.2969,875.5469 662.9531,875.2969 Q663.3438,875.1406 663.7656,874.7031 Q664.0313,874.4375 664.1719,874.3594 Q664.3281,874.2813 664.5313,874.2813 Q664.8594,874.2813 665.1094,874.5469 Q665.375,874.7969 665.375,875.1406 Q665.375,875.4844 665.0313,875.8906 Q664.5313,876.4688 663.7344,876.7969 Q662.6563,877.25 661.3594,877.25 Q659.8438,877.25 658.6406,876.625 Q657.6563,876.125 656.9688,875.0625 Q656.2813,873.9844 656.2813,872.7031 L656.2813,871.5469 Q656.2813,870.2188 656.8906,869.0781 Q657.5156,867.9219 658.6094,867.3125 Q659.7031,866.6875 660.9375,866.6875 Q661.6719,866.6875 662.3125,866.8594 Q662.9688,867.0156 663.5156,867.375 Z " fill="#000000"/><text fill="#000000" font-family="sans-serif" font-size="14" lengthAdjust="spacing" textLength="92" x="681.25" y="877.2969">GestionFichier</text><line style="stroke:#181818;stroke-width:0.5;" x1="571" x2="851" y1="887.5" y2="887.5"/><ellipse cx="581" cy="924.9316" fill="#84BE84" rx="3" ry="3" style="stroke:#038048;stroke-width:1.0;"/><text fill="#000000" font-family="sans-serif" font-size="14" lengthAdjust="spacing" textLength="102" x="590" y="929.2285">GestionFichier()</text><line style="stroke:#181818;stroke-width:1.0;stroke-dasharray:1.0,2.0;" x1="571" x2="670" y1="904.8105" y2="904.8105"/><text fill="#000000" font-family="sans-serif" font-size="14" lengthAdjust="spacing" textLength="82" x="670" y="910.1074">Constructeur</text><line style="stroke:#181818;stroke-width:1.0;stroke-dasharray:1.0,2.0;" x1="752" x2="851" y1="904.8105" y2="904.8105"/><ellipse cx="581" cy="966.1738" fill="#84BE84" rx="3" ry="3" style="stroke:#038048;stroke-width:1.0;"/><text fill="#000000" font-family="sans-serif" font-size="14" lengthAdjust="spacing" textLength="256" x="590" y="970.4707">char[] lireFichierCarte(string nomFichier)</text><line style="stroke:#181818;stroke-width:1.0;stroke-dasharray:1.0,2.0;" x1="571" x2="680" y1="946.0527" y2="946.0527"/><text fill="#000000" font-family="sans-serif" font-size="14" lengthAdjust="spacing" textLength="62" x="680" y="951.3496">M&#233;thodes</text><line style="stroke:#181818;stroke-width:1.0;stroke-dasharray:1.0,2.0;" x1="742" x2="851" y1="946.0527" y2="946.0527"/></g><!--class Resources--><g id="elem_Resources"><rect codeLine="115" fill="#F1F1F1" height="211.5898" id="Resources" rx="2.5" ry="2.5" style="stroke:#181818;stroke-width:0.5;" width="320" x="542" y="1103"/><ellipse cx="663.75" cy="1119" fill="#ADD1B2" rx="11" ry="11" style="stroke:#181818;stroke-width:1.0;"/><path d="M666.5156,1114.875 Q666.6719,1114.6563 666.8594,1114.5469 Q667.0469,1114.4375 667.2656,1114.4375 Q667.6406,1114.4375 667.875,1114.7031 Q668.1094,1114.9531 668.1094,1115.5625 L668.1094,1117.0156 Q668.1094,1117.625 667.875,1117.8906 Q667.6406,1118.1563 667.2656,1118.1563 Q666.9219,1118.1563 666.7188,1117.9531 Q666.5156,1117.7656 666.4063,1117.25 Q666.3594,1116.8906 666.1719,1116.7031 Q665.8438,1116.3281 665.2344,1116.1094 Q664.625,1115.8906 664,1115.8906 Q663.2344,1115.8906 662.5938,1116.2188 Q661.9688,1116.5469 661.4688,1117.2969 Q660.9844,1118.0469 660.9844,1119.0781 L660.9844,1120.1719 Q660.9844,1121.4063 661.875,1122.2344 Q662.7656,1123.0469 664.3594,1123.0469 Q665.2969,1123.0469 665.9531,1122.7969 Q666.3438,1122.6406 666.7656,1122.2031 Q667.0313,1121.9375 667.1719,1121.8594 Q667.3281,1121.7813 667.5313,1121.7813 Q667.8594,1121.7813 668.1094,1122.0469 Q668.375,1122.2969 668.375,1122.6406 Q668.375,1122.9844 668.0313,1123.3906 Q667.5313,1123.9688 666.7344,1124.2969 Q665.6563,1124.75 664.3594,1124.75 Q662.8438,1124.75 661.6406,1124.125 Q660.6563,1123.625 659.9688,1122.5625 Q659.2813,1121.4844 659.2813,1120.2031 L659.2813,1119.0469 Q659.2813,1117.7188 659.8906,1116.5781 Q660.5156,1115.4219 661.6094,1114.8125 Q662.7031,1114.1875 663.9375,1114.1875 Q664.6719,1114.1875 665.3125,1114.3594 Q665.9688,1114.5156 666.5156,1114.875 Z " fill="#000000"/><text fill="#000000" font-family="sans-serif" font-size="14" lengthAdjust="spacing" textLength="68" x="684.25" y="1124.7969">Resources</text><line style="stroke:#181818;stroke-width:0.5;" x1="543" x2="861" y1="1135" y2="1135"/><rect fill="none" height="6" style="stroke:#C82930;stroke-width:1.0;" width="6" x="550" y="1146.8105"/><text fill="#000000" font-family="sans-serif" font-size="14" lengthAdjust="spacing" text-decoration="underline" textLength="171" x="562" y="1154.1074">Map&lt;String, Image&gt; assets</text><ellipse cx="553" cy="1191.0527" fill="#84BE84" rx="3" ry="3" style="stroke:#038048;stroke-width:1.0;"/><text fill="#000000" font-family="sans-serif" font-size="14" lengthAdjust="spacing" text-decoration="underline" textLength="130" x="562" y="1195.3496">URL get(String path)</text><ellipse cx="553" cy="1209.6738" fill="#84BE84" rx="3" ry="3" style="stroke:#038048;stroke-width:1.0;"/><text fill="#000000" font-family="sans-serif" font-size="14" lengthAdjust="spacing" text-decoration="underline" textLength="245" x="562" y="1213.9707">InputStream getAsStream(String path)}</text><ellipse cx="553" cy="1228.2949" fill="#84BE84" rx="3" ry="3" style="stroke:#038048;stroke-width:1.0;"/><text fill="#000000" font-family="sans-serif" font-size="14" lengthAdjust="spacing" text-decoration="underline" textLength="176" x="562" y="1232.5918">Image getAsset(String path)</text><ellipse cx="553" cy="1246.916" fill="#84BE84" rx="3" ry="3" style="stroke:#038048;stroke-width:1.0;"/><text fill="#000000" font-family="sans-serif" font-size="14" lengthAdjust="spacing" text-decoration="underline" textLength="294" x="562" y="1251.2129">ResourceBundle getI18NBundle(Locale locale)</text><ellipse cx="553" cy="1265.5371" fill="#84BE84" rx="3" ry="3" style="stroke:#038048;stroke-width:1.0;"/><text fill="#000000" font-family="sans-serif" font-size="14" lengthAdjust="spacing" text-decoration="underline" textLength="211" x="562" y="1269.834">ResourceBundle getI18NBundle()</text><ellipse cx="553" cy="1284.1582" fill="#84BE84" rx="3" ry="3" style="stroke:#038048;stroke-width:1.0;"/><text fill="#000000" font-family="sans-serif" font-size="14" lengthAdjust="spacing" text-decoration="underline" textLength="290" x="562" y="1288.4551">String getI18NString(String key, Locale locale)</text><ellipse cx="553" cy="1302.7793" fill="#84BE84" rx="3" ry="3" style="stroke:#038048;stroke-width:1.0;"/><text fill="#000000" font-family="sans-serif" font-size="14" lengthAdjust="spacing" text-decoration="underline" textLength="199" x="562" y="1307.0762">String getI18NString(String key)</text><line style="stroke:#181818;stroke-width:1.0;stroke-dasharray:1.0,2.0;" x1="543" x2="671" y1="1170.9316" y2="1170.9316"/><text fill="#000000" font-family="sans-serif" font-size="14" lengthAdjust="spacing" textLength="62" x="671" y="1176.2285">M&#233;thodes</text><line style="stroke:#181818;stroke-width:1.0;stroke-dasharray:1.0,2.0;" x1="733" x2="861" y1="1170.9316" y2="1170.9316"/></g><!--class Sprite--><g id="elem_Sprite"><rect codeLine="129" fill="#F1F1F1" height="48" id="Sprite" rx="2.5" ry="2.5" style="stroke:#181818;stroke-width:0.5;" width="69" x="2376.5" y="892.5"/><ellipse cx="2391.5" cy="908.5" fill="#ADD1B2" rx="11" ry="11" style="stroke:#181818;stroke-width:1.0;"/><path d="M2394.2656,904.375 Q2394.4219,904.1563 2394.6094,904.0469 Q2394.7969,903.9375 2395.0156,903.9375 Q2395.3906,903.9375 2395.625,904.2031 Q2395.8594,904.4531 2395.8594,905.0625 L2395.8594,906.5156 Q2395.8594,907.125 2395.625,907.3906 Q2395.3906,907.6563 2395.0156,907.6563 Q2394.6719,907.6563 2394.4688,907.4531 Q2394.2656,907.2656 2394.1563,906.75 Q2394.1094,906.3906 2393.9219,906.2031 Q2393.5938,905.8281 2392.9844,905.6094 Q2392.375,905.3906 2391.75,905.3906 Q2390.9844,905.3906 2390.3438,905.7188 Q2389.7188,906.0469 2389.2188,906.7969 Q2388.7344,907.5469 2388.7344,908.5781 L2388.7344,909.6719 Q2388.7344,910.9063 2389.625,911.7344 Q2390.5156,912.5469 2392.1094,912.5469 Q2393.0469,912.5469 2393.7031,912.2969 Q2394.0938,912.1406 2394.5156,911.7031 Q2394.7813,911.4375 2394.9219,911.3594 Q2395.0781,911.2813 2395.2813,911.2813 Q2395.6094,911.2813 2395.8594,911.5469 Q2396.125,911.7969 2396.125,912.1406 Q2396.125,912.4844 2395.7813,912.8906 Q2395.2813,913.4688 2394.4844,913.7969 Q2393.4063,914.25 2392.1094,914.25 Q2390.5938,914.25 2389.3906,913.625 Q2388.4063,913.125 2387.7188,912.0625 Q2387.0313,910.9844 2387.0313,909.7031 L2387.0313,908.5469 Q2387.0313,907.2188 2387.6406,906.0781 Q2388.2656,904.9219 2389.3594,904.3125 Q2390.4531,903.6875 2391.6875,903.6875 Q2392.4219,903.6875 2393.0625,903.8594 Q2393.7188,904.0156 2394.2656,904.375 Z " fill="#000000"/><text fill="#000000" font-family="sans-serif" font-size="14" lengthAdjust="spacing" textLength="37" x="2405.5" y="914.2969">Sprite</text><line style="stroke:#181818;stroke-width:0.5;" x1="2377.5" x2="2444.5" y1="924.5" y2="924.5"/><line style="stroke:#181818;stroke-width:0.5;" x1="2377.5" x2="2444.5" y1="932.5" y2="932.5"/></g><!--class GameController--><g id="elem_GameController"><rect codeLine="133" fill="#F1F1F1" height="48" id="GameController" rx="2.5" ry="2.5" style="stroke:#181818;stroke-width:0.5;" width="132" x="2260" y="165"/><ellipse cx="2275" cy="181" fill="#A9DCDF" rx="11" ry="11" style="stroke:#181818;stroke-width:1.0;"/><path d="M2277.1875,182.7656 L2273.0469,182.7656 L2272.625,183.7969 L2273.0469,183.7969 Q2273.6563,183.7969 2273.9219,184.0313 Q2274.1875,184.2656 2274.1875,184.6563 Q2274.1875,185.0313 2273.9219,185.2656 Q2273.6563,185.5 2273.0469,185.5 L2270.75,185.5 Q2270.1406,185.5 2269.8906,185.2656 Q2269.625,185.0313 2269.625,184.6406 Q2269.625,184.2656 2269.9063,184.0313 Q2270.1719,183.7813 2270.7969,183.7969 L2273.4688,177.1406 L2272.3594,177.1406 Q2271.75,177.1406 2271.4844,176.9063 Q2271.2188,176.6719 2271.2188,176.2813 Q2271.2188,175.9063 2271.4844,175.6719 Q2271.75,175.4375 2272.3594,175.4375 L2276.0313,175.4375 L2279.4219,183.7969 Q2280.0156,183.7969 2280.2031,183.9375 Q2280.5938,184.2031 2280.5938,184.6563 Q2280.5938,185.0313 2280.3281,185.2656 Q2280.0781,185.5 2279.4688,185.5 L2277.1719,185.5 Q2276.5625,185.5 2276.2969,185.2656 Q2276.0313,185.0313 2276.0313,184.6406 Q2276.0313,184.2656 2276.2969,184.0313 Q2276.5625,183.7969 2277.1719,183.7969 L2277.5938,183.7969 L2277.1875,182.7656 Z M2276.4688,181.0625 L2275.1094,177.6875 L2273.7344,181.0625 L2276.4688,181.0625 Z " fill="#000000"/><text fill="#000000" font-family="sans-serif" font-size="14" font-style="italic" lengthAdjust="spacing" textLength="100" x="2289" y="186.7969">GameController</text><line style="stroke:#181818;stroke-width:0.5;" x1="2261" x2="2391" y1="197" y2="197"/><line style="stroke:#181818;stroke-width:0.5;" x1="2261" x2="2391" y1="205" y2="205"/></g><g id="elem_N_gui"><path d="M2295.5,6 L2295.5,50.582 L2612.5,50.582 L2612.5,16 L2602.5,6 L2295.5,6 " fill="#FEFFDD" style="stroke:#181818;stroke-width:0.5;"/><path d="M2602.5,6 L2602.5,16 L2612.5,16 L2602.5,6 " fill="#FEFFDD" style="stroke:#181818;stroke-width:1.0;"/><text fill="#000000" font-family="sans-serif" font-size="13" lengthAdjust="spacing" textLength="91" x="2301.5" y="25.0283">Voir diagramme</text><text fill="#000000" font-family="sans-serif" font-size="13" font-style="italic" lengthAdjust="spacing" textLength="52" x="2396.5" y="25.0283">class-gui</text><text fill="#000000" font-family="sans-serif" font-size="13" lengthAdjust="spacing" textLength="108" x="2452.5" y="25.0283">pour en savoir plus</text><text fill="#000000" font-family="sans-serif" font-size="13" lengthAdjust="spacing" textLength="296" x="2301.5" y="42.3193">sur ces packages et les classes qu'ils contiennent.</text></g><!--link N_gui to engine--><g id="link_N_gui_engine"><path codeLine="177" d="M2450.3,51.21 C2446.66,72.575 2440.96,106.045 2436.1088,134.5288 C2435.8055,136.309 2435.5057,138.0697 2435.2098,139.8068 C2435.1728,140.024 2435.1359,140.2408 2435.099,140.4571 " fill="none" id="N_gui-engine" style="stroke:#181818;stroke-width:1.0;stroke-dasharray:7.0,7.0;"/></g><!--link N_gui to gui--><g id="link_N_gui_gui"><path codeLine="178" d="M2454.67,51.4 C2456.73,119.085 2463.225,332.2775 2469.2488,529.9488 C2472.2606,628.7844 2475.1547,723.7397 2477.3177,794.6861 C2477.8584,812.4227 2478.3534,828.6587 2478.7932,843.0797 C2478.8207,843.981 2478.848,844.8753 2478.875,845.7623 " fill="none" id="N_gui-gui" style="stroke:#181818;stroke-width:1.0;stroke-dasharray:7.0,7.0;"/></g><!--reverse link GestionFichier to Resources--><!--reverse link Donnees to GestionFichier--><!--link engine to gui--><!--link GameController to Monde--><g id="link_GameController_Monde"><path codeLine="187" d="M2307.87,213.08 C2295.09,227.44 2276.63,244.7 2256,253 C2122.55,306.71 1742.49,220.39 1609,274 C1580.78,285.33 1553.59,300.96 1528.03,318.89 " fill="none" id="GameController-Monde" style="stroke:#181818;stroke-width:1.0;"/><text fill="#000000" font-family="sans-serif" font-size="13" lengthAdjust="spacing" textLength="7" x="1528.3945" y="307.74">1</text></g><!--reverse link ElementMonde to Personnage--><g id="link_ElementMonde_Personnage"><path codeLine="188" d="M1870.4181,701.7343 C1869.5281,737.1743 1869.04,756.16 1868.18,789.9 " fill="none" id="ElementMonde-backto-Personnage" style="stroke:#181818;stroke-width:1.0;"/><polygon fill="none" points="1870.87,683.74,1864.42,701.5837,1876.4162,701.885,1870.87,683.74" style="stroke:#181818;stroke-width:1.0;"/></g><!--reverse link Personnage to Heros--><g id="link_Personnage_Heros"><path codeLine="189" d="M1705.9638,1055.0028 C1663.9338,1091.3428 1633.59,1117.57 1598.5,1147.91 " fill="none" id="Personnage-backto-Heros" style="stroke:#181818;stroke-width:1.0;"/><polygon fill="none" points="1719.58,1043.23,1702.0395,1050.4641,1709.8881,1059.5416,1719.58,1043.23" style="stroke:#181818;stroke-width:1.0;"/></g><!--reverse link Personnage to Monstre--><g id="link_Personnage_Monstre"><path codeLine="190" d="M1946.2496,1058.836 C1972.1596,1103.916 1990.58,1135.95 2009.2,1168.34 " fill="none" id="Personnage-backto-Monstre" style="stroke:#181818;stroke-width:1.0;"/><polygon fill="none" points="1937.28,1043.23,1941.0476,1061.8258,1951.4516,1055.8461,1937.28,1043.23" style="stroke:#181818;stroke-width:1.0;"/></g><!--reverse link Monstre to Walker--><g id="link_Monstre_Walker"><path codeLine="191" d="M2032,1267.5 C2032,1302.89 2032,1336.92 2032,1374.96 " fill="none" id="Monstre-backto-Walker" style="stroke:#181818;stroke-width:1.0;"/><polygon fill="none" points="2032,1249.5,2026,1267.5,2038,1267.5,2032,1249.5" style="stroke:#181818;stroke-width:1.0;"/></g><!--reverse link ElementMonde to Terrain--><g id="link_ElementMonde_Terrain"><path codeLine="193" d="M1810.4632,698.7872 C1799.5832,716.1272 1796.26,716.93 1781,730 C1704.68,795.38 1656.07,752.09 1563,790 C1524.84,805.54 1484.96,826.01 1449.46,845.89 " fill="none" id="ElementMonde-backto-Terrain" style="stroke:#181818;stroke-width:1.0;"/><polygon fill="none" points="1820.03,683.54,1805.3808,695.5982,1815.5455,701.9761,1820.03,683.54" style="stroke:#181818;stroke-width:1.0;"/></g><!--reverse link Terrain to Mur--><g id="link_Terrain_Mur"><path codeLine="194" d="M1270.2774,1001.2401 C1231.8074,1050.2601 1191.93,1101.06 1155.22,1147.84 " fill="none" id="Terrain-backto-Mur" style="stroke:#181818;stroke-width:1.0;"/><polygon fill="none" points="1281.39,987.08,1265.5573,997.5359,1274.9974,1004.9444,1281.39,987.08" style="stroke:#181818;stroke-width:1.0;"/></g><!--link Monde to Personnage--><g id="link_Monde_Personnage"><path codeLine="197" d="M1591.24,716.73 C1597.21,721.2 1603.14,725.63 1609,730 C1635.19,749.51 1663.03,769.97 1690.35,789.89 " fill="none" id="Monde-Personnage" style="stroke:#181818;stroke-width:1.0;"/><text fill="#000000" font-family="sans-serif" font-size="13" lengthAdjust="spacing" textLength="5" x="1674.5549" y="778.699">*</text></g><!--link Monde to Terrain--><g id="link_Monde_Terrain"><path codeLine="198" d="M1336,721.14 C1336,765.96 1336,810.58 1336,845.75 " fill="none" id="Monde-Terrain" style="stroke:#181818;stroke-width:1.0;"/><text fill="#000000" font-family="sans-serif" font-size="13" lengthAdjust="spacing" textLength="5" x="1330.7422" y="834.6152">*</text></g><!--link Monde to GestionFichier--><g id="link_Monde_GestionFichier"><path codeLine="200" d="M1080.85,677.59 C1021.93,714.18 959.63,753.22 902,790 C869.06,811.03 833.19,834.45 801.52,855.32 " fill="none" id="Monde-GestionFichier" style="stroke:#181818;stroke-width:1.0;"/><text fill="#000000" font-family="sans-serif" font-size="13" lengthAdjust="spacing" textLength="7" x="804.5817" y="844.2804">1</text></g><!--link ElementMonde to Sprite--><g id="link_ElementMonde_Sprite"><path codeLine="202" d="M1951.61,555.52 C2045.53,600.34 2206.21,685.35 2320,790 C2353.28,820.61 2382.07,865.09 2397.93,892.06 " fill="none" id="ElementMonde-Sprite" style="stroke:#181818;stroke-width:1.0;"/><text fill="#000000" font-family="sans-serif" font-size="13" lengthAdjust="spacing" textLength="5" x="2389.1348" y="881.0947">*</text></g><!--link Settings to Property--><g id="link_Settings_Property"><path codeLine="205" d="M266,250.34 C266,267.97 266,288.3 266,309.73 " fill="none" id="Settings-Property" style="stroke:#181818;stroke-width:1.0;"/></g><!--link Property to Getter--><g id="link_Property_Getter"><path codeLine="206" d="M302.57,730.09 C313,789.72 323.18,847.91 329.27,882.74 " fill="none" id="Property-Getter" style="stroke:#181818;stroke-width:1.0;"/><text fill="#000000" font-family="sans-serif" font-size="13" lengthAdjust="spacing" textLength="7" x="320.5105" y="871.7764">1</text></g><!--link Property to Setter--><g id="link_Property_Setter"><path codeLine="207" d="M228.9,730.09 C218.32,789.72 207.99,847.91 201.81,882.74 " fill="none" id="Property-Setter" style="stroke:#181818;stroke-width:1.0;"/><text fill="#000000" font-family="sans-serif" font-size="13" lengthAdjust="spacing" textLength="7" x="195.2503" y="871.7764">1</text></g><!--SRC=[lLZRRjiu47tNLn3PXzeRsulqQHyC0scSYm4x3MAbsQ9R1BGqaOd8f9Qat0sw-Q1-HtziXo9rjNp9jjWyHEBmp70ud3b3EQ714us0dAk09a2-UXuXYPFD10-DYE0VNIWjQQ1945Ebo7aCA-2wYY3a5nAAT143-RifU6uAbZJLaCgcEAOoAiM3mPdWk6mQ6EnWuCJ7rh5Eju3Dld_JIn62gc2SnGZq7mNocAm52uaoijpLRel6nnQDZxd6Svl6bTrFfsrkQZTLcPjhoNX4jB0lE9DDlRH5sWSfAUD5aBS6nG6BZVMAuFSQKUyrmhqxa0iXOg2SWDA-f6kGYg9kwNFsiBxEKhdVJmJzVpuw5zi2UuCemRb9z8q4NZCDIe4JzmdZch1mtyvAYxisw3QqTSDkxUuhpMw9MzDip-rbTpopf0-_VqjY6e3i-Cy9p4IwpcgUwEgei1z2hAdFLXN7AwTonwz02bMf0UC65iSaRAsP3zRRdJLJIJ_WwOhKlCoFb93RoUMLNuocvnVbuEwcU1s_lx_UJEZCwVqfRVVs-ZC_EAdhuNjfpUTPvXiSK80M-1Doj9vCjSZTq_W93c03Y_k1s1rYOYUdr1ciqT3C_lXYoY8E3TcPY7z6cyeFEH1np1GJl5DhhN3Ig_TQUDkjfrtMVHgrPSiNikergdR-FrPnqvXBdutrQ1Yw5eHBkQQbDp4LDgimSD80fab8DOoffirbWgKvF7b6fOQE8uN03BhROtgwXg2s6hxsIjWIWYS3oS9KclcgDDKiUB59plKKRk9KtKY12XqZMzCuTJMmIcFDadX_s3fvcQvsnVnIqcGvl15e-ksuHyRmI761yp224OdC79p66YH7_nwh5eqh2LLxGb4Squu3Q3lmTd_DhUMbUcrydseMvwnfosgCgm2KJDe8xlta6ldtONn-SNetzH-kpYkKlHjwFndxLrkGxs-duzssCaJLnC1LPeqJBf60CN8NB5YoGoYjZjzJ_oQTFtqcCPFW56ncAvlPNAoSk8MiRa69L0QLkFRB3SveChJbqIEJ5JMPWpgWrKvt2lMxswbXbhp24ggNBPKnuKcg4G9qPT2dohxNj5vQr8m_La7jNIFVvRkKX_PoC3dv_TgEEbCHK4FesUEroYruvuh3kQk64pu1TfHz2-uniALaefJLwcMUIEomJHJmYF4j7sINT0MOZrfYeHT9MgpZh8BMw4UUBfLaGL93JjJFPqlA8vYdII8aCabWa-Lu4pXyPubbH1xJE9u74e3lnwgb-7AHR3TgWpjoqQqxVvIZoD0VaIDCvaAls8zlATcDNDGvHiP9J4tCdkkRdJAbWOD4gptIFeKEkJVb3EsELx-WtLX4tbQkE2xCT5hjzKXUltuFIKLhv-GyV-qspHoAsxVSfk6kryuP-DcPqKIkaNyjT_ow95seGB85jh_juQzffFo7T4xZkExJeq0Mk42MxJGtPz89FPwAgEEEhUjEqIeQ7RycmbDr9TtDSnJR2SX7R9Zao9v0cQLkR7FKHijlqvitzEPrFLNgeION6bK-22P9o2XU2LOh84CsocgbZtGo_8sDI8BSXwn155qRP8BNbpynHfAOdk5OHH7G9CP7fehFlz8tfdq7I2OCi6rpFSZykNv0irxs7nF1aL4vDfEUzyO66c_OpoBLNjcX-f-MB0o1VqwJ_gZH8hr6XwrZtTt1S-nNJ4eMBJNEsuKR_DVlawEJ8_UhrY2xEjl_NkNEqqVx_ungzslFtgdTJ8dryalMvepxqd4J3kTv-HMuRH7pEucJEnZkODFNR1U_7bKNsmug36s1O3GQKVTg7nRzlh7Yb36c0zU3y4YLwnjUqK3w9GLw1GkZXMmHaxPDgKrcp_iN]--></g></svg>