<?xml version="1.0" encoding="us-ascii" standalone="no"?><svg xmlns="http://www.w3.org/2000/svg" xmlns:xlink="http://www.w3.org/1999/xlink" contentStyleType="text/css" height="462px" preserveAspectRatio="none" style="width:821px;height:462px;background:#FFFFFF;" version="1.1" viewBox="0 0 821 462" width="821.6px" zoomAndPan="magnify"><defs/><g><!--cluster Escape--><g id="cluster_Escape"><path d="M3.4,31.2 L24.2,31.2 A1.5,1.5 0 0 1 25.2,32.2 L28,41.0484 L817.8,41.0484 A1,1 0 0 1 818.8,42.0484 L818.8,458.2 A1,1 0 0 1 817.8,459.2 L3.4,459.2 A1,1 0 0 1 2.4,458.2 L2.4,32.2 A1,1 0 0 1 3.4,31.2 " fill="none" style="stroke:#000000;stroke-width:0.6000000000000001;"/><line style="stroke:#000000;stroke-width:0.6000000000000001;" x1="2.4" x2="28" y1="41.0484" y2="41.0484"/><text fill="#000000" font-family="sans-serif" font-size="5.6" font-weight="bold" lengthAdjust="spacing" textLength="20.4" x="4" y="38.043">Escape</text></g><!--cluster Monde--><g id="cluster_Monde"><path d="M83.8,95.2 L103.8,95.2 A1.5,1.5 0 0 1 104.8,96.2 L107.6,105.0484 L673,105.0484 A1,1 0 0 1 674,106.0484 L674,448.6 A1,1 0 0 1 673,449.6 L83.8,449.6 A1,1 0 0 1 82.8,448.6 L82.8,96.2 A1,1 0 0 1 83.8,95.2 " fill="none" style="stroke:#000000;stroke-width:0.6000000000000001;"/><line style="stroke:#000000;stroke-width:0.6000000000000001;" x1="82.8" x2="107.6" y1="105.0484" y2="105.0484"/><text fill="#000000" font-family="sans-serif" font-size="5.6" font-weight="bold" lengthAdjust="spacing" textLength="19.6" x="84.4" y="102.043">Monde</text></g><!--cluster Outils--><g id="cluster_Outils"><path d="M684.6,121.2 L701.4,121.2 A1.5,1.5 0 0 1 702.4,122.2 L705.2,131.0484 L808.2,131.0484 A1,1 0 0 1 809.2,132.0484 L809.2,391.4 A1,1 0 0 1 808.2,392.4 L684.6,392.4 A1,1 0 0 1 683.6,391.4 L683.6,122.2 A1,1 0 0 1 684.6,121.2 " fill="none" style="stroke:#000000;stroke-width:0.6000000000000001;"/><line style="stroke:#000000;stroke-width:0.6000000000000001;" x1="683.6" x2="705.2" y1="131.0484" y2="131.0484"/><text fill="#000000" font-family="sans-serif" font-size="5.6" font-weight="bold" lengthAdjust="spacing" textLength="16.4" x="685.2" y="128.043">Outils</text></g><!--cluster gui--><g id="cluster_gui"><path d="M16.2,254.4 L25.4,254.4 A1.5,1.5 0 0 1 26.4,255.4 L29.2,264.2484 L69,264.2484 A1,1 0 0 1 70,265.2484 L70,300.2 A1,1 0 0 1 69,301.2 L16.2,301.2 A1,1 0 0 1 15.2,300.2 L15.2,255.4 A1,1 0 0 1 16.2,254.4 " fill="none" style="stroke:#000000;stroke-width:0.6000000000000001;"/><line style="stroke:#000000;stroke-width:0.6000000000000001;" x1="15.2" x2="29.2" y1="264.2484" y2="264.2484"/><text fill="#000000" font-family="sans-serif" font-size="5.6" font-weight="bold" lengthAdjust="spacing" textLength="8.8" x="16.8" y="261.243">gui</text></g><!--class Escape--><g id="elem_Escape"><rect codeLine="79" fill="#F1F1F1" height="39.9453" id="Escape" rx="1" ry="1" style="stroke:#181818;stroke-width:0.20000000000000004;" width="69.2" x="137.8" y="46"/><ellipse cx="161.3" cy="52.4" fill="#ADD1B2" rx="4.4" ry="4.4" style="stroke:#181818;stroke-width:0.4000000000000001;"/><path d="M162.4063,50.75 Q162.4688,50.6625 162.5438,50.6188 Q162.6188,50.575 162.7063,50.575 Q162.8563,50.575 162.95,50.6813 Q163.0438,50.7813 163.0438,51.025 L163.0438,51.6063 Q163.0438,51.85 162.95,51.9563 Q162.8563,52.0625 162.7063,52.0625 Q162.5688,52.0625 162.4875,51.9813 Q162.4063,51.9063 162.3625,51.7 Q162.3438,51.5563 162.2688,51.4813 Q162.1375,51.3313 161.8938,51.2438 Q161.65,51.1563 161.4,51.1563 Q161.0938,51.1563 160.8375,51.2875 Q160.5875,51.4188 160.3875,51.7188 Q160.1938,52.0188 160.1938,52.4313 L160.1938,52.8688 Q160.1938,53.3625 160.55,53.6938 Q160.9063,54.0188 161.5438,54.0188 Q161.9188,54.0188 162.1813,53.9188 Q162.3375,53.8563 162.5063,53.6813 Q162.6125,53.575 162.6688,53.5438 Q162.7313,53.5125 162.8125,53.5125 Q162.9438,53.5125 163.0438,53.6188 Q163.15,53.7188 163.15,53.8563 Q163.15,53.9938 163.0125,54.1563 Q162.8125,54.3875 162.4938,54.5188 Q162.0625,54.7 161.5438,54.7 Q160.9375,54.7 160.4563,54.45 Q160.0625,54.25 159.7875,53.825 Q159.5125,53.3938 159.5125,52.8813 L159.5125,52.4188 Q159.5125,51.8875 159.7563,51.4313 Q160.0063,50.9688 160.4438,50.725 Q160.8813,50.475 161.375,50.475 Q161.6688,50.475 161.925,50.5438 Q162.1875,50.6063 162.4063,50.75 Z " fill="#000000"/><text fill="#000000" font-family="sans-serif" font-size="5.6" lengthAdjust="spacing" textLength="18.8" x="169.5" y="54.7188">Escape</text><line style="stroke:#181818;stroke-width:0.20000000000000004;" x1="138.2" x2="206.6" y1="58.8" y2="58.8"/><ellipse cx="142.2" cy="73.7727" fill="#84BE84" rx="1.2" ry="1.2" style="stroke:#038048;stroke-width:0.4000000000000001;"/><text fill="#000000" font-family="sans-serif" font-size="5.6" lengthAdjust="spacing" text-decoration="underline" textLength="58.8" x="145.8" y="75.4914">void main(String[] args)</text><ellipse cx="142.2" cy="81.2211" fill="#84BE84" rx="1.2" ry="1.2" style="stroke:#038048;stroke-width:0.4000000000000001;"/><text fill="#000000" font-family="sans-serif" font-size="5.6" lengthAdjust="spacing" textLength="57.6" x="145.8" y="82.9398">void start(Stage stage)</text><line style="stroke:#181818;stroke-width:0.4000000000000001;stroke-dasharray:1.0,2.0;" x1="138.2" x2="166.4" y1="65.7242" y2="65.7242"/><text fill="#000000" font-family="sans-serif" font-size="5.6" lengthAdjust="spacing" textLength="12" x="166.4" y="67.843">Main</text><line style="stroke:#181818;stroke-width:0.4000000000000001;stroke-dasharray:1.0,2.0;" x1="178.4" x2="206.6" y1="65.7242" y2="65.7242"/></g><!--class ElementMonde--><g id="elem_ElementMonde"><rect codeLine="4" fill="#F1F1F1" height="69.7391" id="ElementMonde" rx="1" ry="1" style="stroke:#181818;stroke-width:0.20000000000000004;" width="50.8" x="158.2" y="133.2"/><ellipse cx="164.2" cy="139.6" fill="#A9DCDF" rx="4.4" ry="4.4" style="stroke:#181818;stroke-width:0.4000000000000001;"/><path d="M165.075,140.3063 L163.4188,140.3063 L163.25,140.7188 L163.4188,140.7188 Q163.6625,140.7188 163.7688,140.8125 Q163.875,140.9063 163.875,141.0625 Q163.875,141.2125 163.7688,141.3063 Q163.6625,141.4 163.4188,141.4 L162.5,141.4 Q162.2563,141.4 162.1563,141.3063 Q162.05,141.2125 162.05,141.0563 Q162.05,140.9063 162.1625,140.8125 Q162.2688,140.7125 162.5188,140.7188 L163.5875,138.0563 L163.1438,138.0563 Q162.9,138.0563 162.7938,137.9625 Q162.6875,137.8688 162.6875,137.7125 Q162.6875,137.5625 162.7938,137.4688 Q162.9,137.375 163.1438,137.375 L164.6125,137.375 L165.9688,140.7188 Q166.2063,140.7188 166.2813,140.775 Q166.4375,140.8813 166.4375,141.0625 Q166.4375,141.2125 166.3313,141.3063 Q166.2313,141.4 165.9875,141.4 L165.0688,141.4 Q164.825,141.4 164.7188,141.3063 Q164.6125,141.2125 164.6125,141.0563 Q164.6125,140.9063 164.7188,140.8125 Q164.825,140.7188 165.0688,140.7188 L165.2375,140.7188 L165.075,140.3063 Z M164.7875,139.625 L164.2438,138.275 L163.6938,139.625 L164.7875,139.625 Z " fill="#000000"/><text fill="#000000" font-family="sans-serif" font-size="5.6" font-style="italic" lengthAdjust="spacing" textLength="38" x="169.8" y="141.9188">ElementMonde</text><line style="stroke:#181818;stroke-width:0.20000000000000004;" x1="158.6" x2="208.6" y1="146" y2="146"/><polygon fill="none" points="162.6,149.9242,164.2,151.5242,162.6,153.1242,161,151.5242" style="stroke:#B38D22;stroke-width:0.4000000000000001;"/><text fill="#000000" font-family="sans-serif" font-size="5.6" lengthAdjust="spacing" textLength="21.2" x="166.2" y="153.643">double x</text><polygon fill="none" points="162.6,157.3727,164.2,158.9727,162.6,160.5727,161,158.9727" style="stroke:#B38D22;stroke-width:0.4000000000000001;"/><text fill="#000000" font-family="sans-serif" font-size="5.6" lengthAdjust="spacing" textLength="21.6" x="166.2" y="161.0914">double y</text><polygon fill="none" points="162.6,164.8211,164.2,166.4211,162.6,168.0211,161,166.4211" style="stroke:#B38D22;stroke-width:0.4000000000000001;"/><text fill="#000000" font-family="sans-serif" font-size="5.6" lengthAdjust="spacing" textLength="38.4" x="166.2" y="168.5398">double hauteur</text><polygon fill="none" points="162.6,172.2695,164.2,173.8695,162.6,175.4695,161,173.8695" style="stroke:#B38D22;stroke-width:0.4000000000000001;"/><text fill="#000000" font-family="sans-serif" font-size="5.6" lengthAdjust="spacing" textLength="36.8" x="166.2" y="175.9883">double largeur</text><ellipse cx="162.6" cy="190.7664" fill="#84BE84" rx="1.2" ry="1.2" style="stroke:#038048;stroke-width:0.4000000000000001;"/><text fill="#000000" font-family="sans-serif" font-size="5.6" lengthAdjust="spacing" textLength="21.2" x="166.2" y="192.4852">Monde()</text><text fill="#000000" font-family="sans-serif" font-size="5.6" lengthAdjust="spacing" textLength="1.6" x="166.2" y="199.9336">&#160;</text><line style="stroke:#181818;stroke-width:0.4000000000000001;stroke-dasharray:1.0,2.0;" x1="158.6" x2="167.2" y1="182.718" y2="182.718"/><text fill="#000000" font-family="sans-serif" font-size="5.6" lengthAdjust="spacing" textLength="32.8" x="167.2" y="184.8367">Constructeur</text><line style="stroke:#181818;stroke-width:0.4000000000000001;stroke-dasharray:1.0,2.0;" x1="200" x2="208.6" y1="182.718" y2="182.718"/></g><!--class Terrain--><g id="elem_Terrain"><rect codeLine="13" fill="#F1F1F1" height="56.4422" id="Terrain" rx="1" ry="1" style="stroke:#181818;stroke-width:0.20000000000000004;" width="160.4" x="89.4" y="253.8"/><ellipse cx="158.7" cy="260.2" fill="#A9DCDF" rx="4.4" ry="4.4" style="stroke:#181818;stroke-width:0.4000000000000001;"/><path d="M159.575,260.9063 L157.9188,260.9063 L157.75,261.3188 L157.9188,261.3188 Q158.1625,261.3188 158.2688,261.4125 Q158.375,261.5063 158.375,261.6625 Q158.375,261.8125 158.2688,261.9063 Q158.1625,262 157.9188,262 L157,262 Q156.7563,262 156.6563,261.9063 Q156.55,261.8125 156.55,261.6563 Q156.55,261.5063 156.6625,261.4125 Q156.7688,261.3125 157.0188,261.3188 L158.0875,258.6563 L157.6438,258.6563 Q157.4,258.6563 157.2938,258.5625 Q157.1875,258.4688 157.1875,258.3125 Q157.1875,258.1625 157.2938,258.0688 Q157.4,257.975 157.6438,257.975 L159.1125,257.975 L160.4688,261.3188 Q160.7063,261.3188 160.7813,261.375 Q160.9375,261.4813 160.9375,261.6625 Q160.9375,261.8125 160.8313,261.9063 Q160.7313,262 160.4875,262 L159.5688,262 Q159.325,262 159.2188,261.9063 Q159.1125,261.8125 159.1125,261.6563 Q159.1125,261.5063 159.2188,261.4125 Q159.325,261.3188 159.5688,261.3188 L159.7375,261.3188 L159.575,260.9063 Z M159.2875,260.225 L158.7438,258.875 L158.1938,260.225 L159.2875,260.225 Z " fill="#000000"/><text fill="#000000" font-family="sans-serif" font-size="5.6" font-style="italic" lengthAdjust="spacing" textLength="18.4" x="166.9" y="262.5188">Terrain</text><line style="stroke:#181818;stroke-width:0.20000000000000004;" x1="89.8" x2="249.4" y1="266.6" y2="266.6"/><ellipse cx="93.8" cy="281.5727" fill="#84BE84" rx="1.2" ry="1.2" style="stroke:#038048;stroke-width:0.4000000000000001;"/><text fill="#000000" font-family="sans-serif" font-size="5.6" lengthAdjust="spacing" textLength="150" x="97.4" y="283.2914">Terrain(double x, double y, double hauteur, double largeur)</text><line style="stroke:#181818;stroke-width:0.4000000000000001;stroke-dasharray:1.0,2.0;" x1="89.8" x2="153.2" y1="273.5242" y2="273.5242"/><text fill="#000000" font-family="sans-serif" font-size="5.6" lengthAdjust="spacing" textLength="32.8" x="153.2" y="275.643">Constructeur</text><line style="stroke:#181818;stroke-width:0.4000000000000001;stroke-dasharray:1.0,2.0;" x1="186" x2="249.4" y1="273.5242" y2="273.5242"/><ellipse cx="93.8" cy="298.0695" fill="#84BE84" rx="1.2" ry="1.2" style="stroke:#038048;stroke-width:0.4000000000000001;"/><text fill="#000000" font-family="sans-serif" font-size="5.6" lengthAdjust="spacing" textLength="64" x="97.4" y="299.7883">boolean estTraversable()</text><text fill="#000000" font-family="sans-serif" font-size="5.6" lengthAdjust="spacing" textLength="1.6" x="97.4" y="307.2367">&#160;</text><line style="stroke:#181818;stroke-width:0.4000000000000001;stroke-dasharray:1.0,2.0;" x1="89.8" x2="157.2" y1="290.0211" y2="290.0211"/><text fill="#000000" font-family="sans-serif" font-size="5.6" lengthAdjust="spacing" textLength="24.8" x="157.2" y="292.1398">M&#233;thodes</text><line style="stroke:#181818;stroke-width:0.4000000000000001;stroke-dasharray:1.0,2.0;" x1="182" x2="249.4" y1="290.0211" y2="290.0211"/></g><!--class Mur--><g id="elem_Mur"><rect codeLine="21" fill="#F1F1F1" height="48.9938" id="Mur" rx="1" ry="1" style="stroke:#181818;stroke-width:0.20000000000000004;" width="151.6" x="89.4" y="338"/><ellipse cx="158.7" cy="344.4" fill="#ADD1B2" rx="4.4" ry="4.4" style="stroke:#181818;stroke-width:0.4000000000000001;"/><path d="M159.8063,342.75 Q159.8688,342.6625 159.9438,342.6188 Q160.0188,342.575 160.1063,342.575 Q160.2563,342.575 160.35,342.6813 Q160.4438,342.7813 160.4438,343.025 L160.4438,343.6063 Q160.4438,343.85 160.35,343.9563 Q160.2563,344.0625 160.1063,344.0625 Q159.9688,344.0625 159.8875,343.9813 Q159.8063,343.9063 159.7625,343.7 Q159.7438,343.5563 159.6688,343.4813 Q159.5375,343.3313 159.2938,343.2438 Q159.05,343.1563 158.8,343.1563 Q158.4938,343.1563 158.2375,343.2875 Q157.9875,343.4188 157.7875,343.7188 Q157.5938,344.0188 157.5938,344.4313 L157.5938,344.8688 Q157.5938,345.3625 157.95,345.6938 Q158.3063,346.0188 158.9438,346.0188 Q159.3188,346.0188 159.5813,345.9188 Q159.7375,345.8563 159.9063,345.6813 Q160.0125,345.575 160.0688,345.5438 Q160.1313,345.5125 160.2125,345.5125 Q160.3438,345.5125 160.4438,345.6188 Q160.55,345.7188 160.55,345.8563 Q160.55,345.9938 160.4125,346.1563 Q160.2125,346.3875 159.8938,346.5188 Q159.4625,346.7 158.9438,346.7 Q158.3375,346.7 157.8563,346.45 Q157.4625,346.25 157.1875,345.825 Q156.9125,345.3938 156.9125,344.8813 L156.9125,344.4188 Q156.9125,343.8875 157.1563,343.4313 Q157.4063,342.9688 157.8438,342.725 Q158.2813,342.475 158.775,342.475 Q159.0688,342.475 159.325,342.5438 Q159.5875,342.6063 159.8063,342.75 Z " fill="#000000"/><text fill="#000000" font-family="sans-serif" font-size="5.6" lengthAdjust="spacing" textLength="9.6" x="166.9" y="346.7188">Mur</text><line style="stroke:#181818;stroke-width:0.20000000000000004;" x1="89.8" x2="240.6" y1="350.8" y2="350.8"/><ellipse cx="93.8" cy="365.7727" fill="#84BE84" rx="1.2" ry="1.2" style="stroke:#038048;stroke-width:0.4000000000000001;"/><text fill="#000000" font-family="sans-serif" font-size="5.6" lengthAdjust="spacing" textLength="141.2" x="97.4" y="367.4914">Mur(double x, double y, double hauteur, double largeur)</text><line style="stroke:#181818;stroke-width:0.4000000000000001;stroke-dasharray:1.0,2.0;" x1="89.8" x2="148.8" y1="357.7242" y2="357.7242"/><text fill="#000000" font-family="sans-serif" font-size="5.6" lengthAdjust="spacing" textLength="32.8" x="148.8" y="359.843">Constructeur</text><line style="stroke:#181818;stroke-width:0.4000000000000001;stroke-dasharray:1.0,2.0;" x1="181.6" x2="240.6" y1="357.7242" y2="357.7242"/><ellipse cx="93.8" cy="382.2695" fill="#84BE84" rx="1.2" ry="1.2" style="stroke:#038048;stroke-width:0.4000000000000001;"/><text fill="#000000" font-family="sans-serif" font-size="5.6" lengthAdjust="spacing" textLength="64" x="97.4" y="383.9883">boolean estTraversable()</text><line style="stroke:#181818;stroke-width:0.4000000000000001;stroke-dasharray:1.0,2.0;" x1="89.8" x2="152.8" y1="374.2211" y2="374.2211"/><text fill="#000000" font-family="sans-serif" font-size="5.6" lengthAdjust="spacing" textLength="24.8" x="152.8" y="376.3398">M&#233;thodes</text><line style="stroke:#181818;stroke-width:0.4000000000000001;stroke-dasharray:1.0,2.0;" x1="177.6" x2="240.6" y1="374.2211" y2="374.2211"/></g><!--class Personnage--><g id="elem_Personnage"><rect codeLine="29" fill="#F1F1F1" height="63.8906" id="Personnage" rx="1" ry="1" style="stroke:#181818;stroke-width:0.20000000000000004;" width="212.4" x="263.8" y="250"/><ellipse cx="352.9" cy="256.4" fill="#A9DCDF" rx="4.4" ry="4.4" style="stroke:#181818;stroke-width:0.4000000000000001;"/><path d="M353.775,257.1063 L352.1188,257.1063 L351.95,257.5188 L352.1188,257.5188 Q352.3625,257.5188 352.4688,257.6125 Q352.575,257.7063 352.575,257.8625 Q352.575,258.0125 352.4688,258.1063 Q352.3625,258.2 352.1188,258.2 L351.2,258.2 Q350.9563,258.2 350.8563,258.1063 Q350.75,258.0125 350.75,257.8563 Q350.75,257.7063 350.8625,257.6125 Q350.9688,257.5125 351.2188,257.5188 L352.2875,254.8563 L351.8438,254.8563 Q351.6,254.8563 351.4938,254.7625 Q351.3875,254.6688 351.3875,254.5125 Q351.3875,254.3625 351.4938,254.2688 Q351.6,254.175 351.8438,254.175 L353.3125,254.175 L354.6688,257.5188 Q354.9063,257.5188 354.9813,257.575 Q355.1375,257.6813 355.1375,257.8625 Q355.1375,258.0125 355.0313,258.1063 Q354.9313,258.2 354.6875,258.2 L353.7688,258.2 Q353.525,258.2 353.4188,258.1063 Q353.3125,258.0125 353.3125,257.8563 Q353.3125,257.7063 353.4188,257.6125 Q353.525,257.5188 353.7688,257.5188 L353.9375,257.5188 L353.775,257.1063 Z M353.4875,256.425 L352.9438,255.075 L352.3938,256.425 L353.4875,256.425 Z " fill="#000000"/><text fill="#000000" font-family="sans-serif" font-size="5.6" font-style="italic" lengthAdjust="spacing" textLength="30.8" x="361.1" y="258.7188">Personnage</text><line style="stroke:#181818;stroke-width:0.20000000000000004;" x1="264.2" x2="475.8" y1="262.8" y2="262.8"/><polygon fill="none" points="268.2,266.7242,269.8,268.3242,268.2,269.9242,266.6,268.3242" style="stroke:#B38D22;stroke-width:0.4000000000000001;"/><text fill="#000000" font-family="sans-serif" font-size="5.6" lengthAdjust="spacing" textLength="36.4" x="271.8" y="270.443">double vitesse</text><ellipse cx="268.2" cy="285.2211" fill="#84BE84" rx="1.2" ry="1.2" style="stroke:#038048;stroke-width:0.4000000000000001;"/><text fill="#000000" font-family="sans-serif" font-size="5.6" lengthAdjust="spacing" textLength="202" x="271.8" y="286.9398">Personnage(double x, double y, double largeur, double hauteur, double vitesse)</text><line style="stroke:#181818;stroke-width:0.4000000000000001;stroke-dasharray:1.0,2.0;" x1="264.2" x2="353.6" y1="277.1727" y2="277.1727"/><text fill="#000000" font-family="sans-serif" font-size="5.6" lengthAdjust="spacing" textLength="32.8" x="353.6" y="279.2914">Constructeur</text><line style="stroke:#181818;stroke-width:0.4000000000000001;stroke-dasharray:1.0,2.0;" x1="386.4" x2="475.8" y1="277.1727" y2="277.1727"/><ellipse cx="268.2" cy="301.718" fill="#84BE84" rx="1.2" ry="1.2" style="stroke:#038048;stroke-width:0.4000000000000001;"/><text fill="#000000" font-family="sans-serif" font-size="5.6" lengthAdjust="spacing" textLength="121.6" x="271.8" y="303.4367">void d&#233;placer(TypeMouvement typeMouvement)</text><ellipse cx="268.2" cy="309.1664" fill="#84BE84" rx="1.2" ry="1.2" style="stroke:#038048;stroke-width:0.4000000000000001;"/><text fill="#000000" font-family="sans-serif" font-size="5.6" lengthAdjust="spacing" textLength="55.2" x="271.8" y="310.8852">boolean estUnHeros()</text><line style="stroke:#181818;stroke-width:0.4000000000000001;stroke-dasharray:1.0,2.0;" x1="264.2" x2="357.6" y1="293.6695" y2="293.6695"/><text fill="#000000" font-family="sans-serif" font-size="5.6" lengthAdjust="spacing" textLength="24.8" x="357.6" y="295.7883">M&#233;thodes</text><line style="stroke:#181818;stroke-width:0.4000000000000001;stroke-dasharray:1.0,2.0;" x1="382.4" x2="475.8" y1="293.6695" y2="293.6695"/></g><!--class TypeMouvement--><g id="elem_TypeMouvement"><rect codeLine="38" fill="#F1F1F1" height="48.9938" id="TypeMouvement" rx="1" ry="1" style="stroke:#181818;stroke-width:0.20000000000000004;" width="54.8" x="89.4" y="143.6"/><ellipse cx="95.4" cy="150" fill="#EB937F" rx="4.4" ry="4.4" style="stroke:#181818;stroke-width:0.4000000000000001;"/><path d="M94.9438,150.3188 L94.9438,151.3188 L96.675,151.3188 L96.675,150.95 Q96.675,150.7063 96.7688,150.6 Q96.8688,150.4938 97.0188,150.4938 Q97.1688,150.4938 97.2625,150.6 Q97.3563,150.7063 97.3563,150.95 L97.3563,152 L94.1563,152 Q93.9063,152 93.8,151.9063 Q93.7,151.8125 93.7,151.6563 Q93.7,151.5063 93.8063,151.4125 Q93.9125,151.3188 94.1563,151.3188 L94.2625,151.3188 L94.2625,148.6563 L94.1563,148.6563 Q93.9063,148.6563 93.8,148.5625 Q93.7,148.4688 93.7,148.3125 Q93.7,148.1625 93.8,148.0688 Q93.9063,147.975 94.1563,147.975 L97.2063,147.975 L97.2063,149.0125 Q97.2063,149.2563 97.1125,149.3625 Q97.025,149.4625 96.8688,149.4625 Q96.7188,149.4625 96.625,149.3625 Q96.5313,149.2563 96.5313,149.0125 L96.5313,148.6563 L94.9438,148.6563 L94.9438,149.6375 L95.5375,149.6375 Q95.5375,149.375 95.5875,149.3 Q95.6938,149.1375 95.8813,149.1375 Q96.0313,149.1375 96.125,149.2438 Q96.2188,149.3438 96.2188,149.5875 L96.2188,150.375 Q96.2188,150.5938 96.1688,150.6688 Q96.0625,150.825 95.8813,150.825 Q95.6938,150.825 95.5875,150.6625 Q95.5375,150.5875 95.5375,150.3188 L94.9438,150.3188 Z " fill="#000000"/><text fill="#000000" font-family="sans-serif" font-size="5.6" lengthAdjust="spacing" textLength="42" x="101" y="152.3188">TypeMouvement</text><line style="stroke:#181818;stroke-width:0.20000000000000004;" x1="89.8" x2="143.8" y1="156.4" y2="156.4"/><text fill="#000000" font-family="sans-serif" font-size="5.6" lengthAdjust="spacing" textLength="16.8" x="91.8" y="164.043">RIGHT</text><text fill="#000000" font-family="sans-serif" font-size="5.6" lengthAdjust="spacing" textLength="14" x="91.8" y="171.4914">LEFT</text><text fill="#000000" font-family="sans-serif" font-size="5.6" lengthAdjust="spacing" textLength="11.6" x="91.8" y="178.9398">TOP</text><text fill="#000000" font-family="sans-serif" font-size="5.6" lengthAdjust="spacing" textLength="17.2" x="91.8" y="186.3883">DOWN</text><line style="stroke:#181818;stroke-width:0.20000000000000004;" x1="89.8" x2="143.8" y1="189.3938" y2="189.3938"/></g><!--class Heros--><g id="elem_Heros"><rect codeLine="45" fill="#F1F1F1" height="48.9938" id="Heros" rx="1" ry="1" style="stroke:#181818;stroke-width:0.20000000000000004;" width="196.4" x="471" y="338"/><ellipse cx="560.1" cy="344.4" fill="#ADD1B2" rx="4.4" ry="4.4" style="stroke:#181818;stroke-width:0.4000000000000001;"/><path d="M561.2063,342.75 Q561.2688,342.6625 561.3438,342.6188 Q561.4188,342.575 561.5063,342.575 Q561.6563,342.575 561.75,342.6813 Q561.8438,342.7813 561.8438,343.025 L561.8438,343.6063 Q561.8438,343.85 561.75,343.9563 Q561.6563,344.0625 561.5063,344.0625 Q561.3688,344.0625 561.2875,343.9813 Q561.2063,343.9063 561.1625,343.7 Q561.1438,343.5563 561.0688,343.4813 Q560.9375,343.3313 560.6938,343.2438 Q560.45,343.1563 560.2,343.1563 Q559.8938,343.1563 559.6375,343.2875 Q559.3875,343.4188 559.1875,343.7188 Q558.9938,344.0188 558.9938,344.4313 L558.9938,344.8688 Q558.9938,345.3625 559.35,345.6938 Q559.7063,346.0188 560.3438,346.0188 Q560.7188,346.0188 560.9813,345.9188 Q561.1375,345.8563 561.3063,345.6813 Q561.4125,345.575 561.4688,345.5438 Q561.5313,345.5125 561.6125,345.5125 Q561.7438,345.5125 561.8438,345.6188 Q561.95,345.7188 561.95,345.8563 Q561.95,345.9938 561.8125,346.1563 Q561.6125,346.3875 561.2938,346.5188 Q560.8625,346.7 560.3438,346.7 Q559.7375,346.7 559.2563,346.45 Q558.8625,346.25 558.5875,345.825 Q558.3125,345.3938 558.3125,344.8813 L558.3125,344.4188 Q558.3125,343.8875 558.5563,343.4313 Q558.8063,342.9688 559.2438,342.725 Q559.6813,342.475 560.175,342.475 Q560.4688,342.475 560.725,342.5438 Q560.9875,342.6063 561.2063,342.75 Z " fill="#000000"/><text fill="#000000" font-family="sans-serif" font-size="5.6" lengthAdjust="spacing" textLength="14.8" x="568.3" y="346.7188">Heros</text><line style="stroke:#181818;stroke-width:0.20000000000000004;" x1="471.4" x2="667" y1="350.8" y2="350.8"/><ellipse cx="475.4" cy="365.7727" fill="#84BE84" rx="1.2" ry="1.2" style="stroke:#038048;stroke-width:0.4000000000000001;"/><text fill="#000000" font-family="sans-serif" font-size="5.6" lengthAdjust="spacing" textLength="186" x="479" y="367.4914">Heros(double x, double y, double largeur, double hauteur, double vitesse)</text><line style="stroke:#181818;stroke-width:0.4000000000000001;stroke-dasharray:1.0,2.0;" x1="471.4" x2="552.8" y1="357.7242" y2="357.7242"/><text fill="#000000" font-family="sans-serif" font-size="5.6" lengthAdjust="spacing" textLength="32.8" x="552.8" y="359.843">Constructeur</text><line style="stroke:#181818;stroke-width:0.4000000000000001;stroke-dasharray:1.0,2.0;" x1="585.6" x2="667" y1="357.7242" y2="357.7242"/><ellipse cx="475.4" cy="382.2695" fill="#84BE84" rx="1.2" ry="1.2" style="stroke:#038048;stroke-width:0.4000000000000001;"/><text fill="#000000" font-family="sans-serif" font-size="5.6" lengthAdjust="spacing" textLength="55.2" x="479" y="383.9883">boolean estUnHeros()</text><line style="stroke:#181818;stroke-width:0.4000000000000001;stroke-dasharray:1.0,2.0;" x1="471.4" x2="556.8" y1="374.2211" y2="374.2211"/><text fill="#000000" font-family="sans-serif" font-size="5.6" lengthAdjust="spacing" textLength="24.8" x="556.8" y="376.3398">M&#233;thodes</text><line style="stroke:#181818;stroke-width:0.4000000000000001;stroke-dasharray:1.0,2.0;" x1="581.6" x2="667" y1="374.2211" y2="374.2211"/></g><!--class Monstre--><g id="elem_Monstre"><rect codeLine="52" fill="#F1F1F1" height="32.4969" id="Monstre" rx="1" ry="1" style="stroke:#181818;stroke-width:0.20000000000000004;" width="202" x="255" y="346.2"/><ellipse cx="343.9" cy="352.6" fill="#A9DCDF" rx="4.4" ry="4.4" style="stroke:#181818;stroke-width:0.4000000000000001;"/><path d="M344.775,353.3063 L343.1188,353.3063 L342.95,353.7188 L343.1188,353.7188 Q343.3625,353.7188 343.4688,353.8125 Q343.575,353.9063 343.575,354.0625 Q343.575,354.2125 343.4688,354.3063 Q343.3625,354.4 343.1188,354.4 L342.2,354.4 Q341.9563,354.4 341.8563,354.3063 Q341.75,354.2125 341.75,354.0563 Q341.75,353.9063 341.8625,353.8125 Q341.9688,353.7125 342.2188,353.7188 L343.2875,351.0563 L342.8438,351.0563 Q342.6,351.0563 342.4938,350.9625 Q342.3875,350.8688 342.3875,350.7125 Q342.3875,350.5625 342.4938,350.4688 Q342.6,350.375 342.8438,350.375 L344.3125,350.375 L345.6688,353.7188 Q345.9063,353.7188 345.9813,353.775 Q346.1375,353.8813 346.1375,354.0625 Q346.1375,354.2125 346.0313,354.3063 Q345.9313,354.4 345.6875,354.4 L344.7688,354.4 Q344.525,354.4 344.4188,354.3063 Q344.3125,354.2125 344.3125,354.0563 Q344.3125,353.9063 344.4188,353.8125 Q344.525,353.7188 344.7688,353.7188 L344.9375,353.7188 L344.775,353.3063 Z M344.4875,352.625 L343.9438,351.275 L343.3938,352.625 L344.4875,352.625 Z " fill="#000000"/><text fill="#000000" font-family="sans-serif" font-size="5.6" font-style="italic" lengthAdjust="spacing" textLength="20.8" x="352.1" y="354.9188">Monstre</text><line style="stroke:#181818;stroke-width:0.20000000000000004;" x1="255.4" x2="456.6" y1="359" y2="359"/><ellipse cx="259.4" cy="373.9727" fill="#84BE84" rx="1.2" ry="1.2" style="stroke:#038048;stroke-width:0.4000000000000001;"/><text fill="#000000" font-family="sans-serif" font-size="5.6" lengthAdjust="spacing" textLength="191.6" x="263" y="375.6914">Monstre(double x, double y, double largeur, double hauteur, double vitesse)</text><line style="stroke:#181818;stroke-width:0.4000000000000001;stroke-dasharray:1.0,2.0;" x1="255.4" x2="339.6" y1="365.9242" y2="365.9242"/><text fill="#000000" font-family="sans-serif" font-size="5.6" lengthAdjust="spacing" textLength="32.8" x="339.6" y="368.043">Constructeur</text><line style="stroke:#181818;stroke-width:0.4000000000000001;stroke-dasharray:1.0,2.0;" x1="372.4" x2="456.6" y1="365.9242" y2="365.9242"/></g><!--class Walker--><g id="elem_Walker"><rect codeLine="57" fill="#F1F1F1" height="32.4969" id="Walker" rx="1" ry="1" style="stroke:#181818;stroke-width:0.20000000000000004;" width="199.2" x="256.4" y="410.8"/><ellipse cx="345.5" cy="417.2" fill="#ADD1B2" rx="4.4" ry="4.4" style="stroke:#181818;stroke-width:0.4000000000000001;"/><path d="M346.6063,415.55 Q346.6688,415.4625 346.7438,415.4188 Q346.8188,415.375 346.9063,415.375 Q347.0563,415.375 347.15,415.4813 Q347.2438,415.5813 347.2438,415.825 L347.2438,416.4063 Q347.2438,416.65 347.15,416.7563 Q347.0563,416.8625 346.9063,416.8625 Q346.7688,416.8625 346.6875,416.7813 Q346.6063,416.7063 346.5625,416.5 Q346.5438,416.3563 346.4688,416.2813 Q346.3375,416.1313 346.0938,416.0438 Q345.85,415.9563 345.6,415.9563 Q345.2938,415.9563 345.0375,416.0875 Q344.7875,416.2188 344.5875,416.5188 Q344.3938,416.8188 344.3938,417.2313 L344.3938,417.6688 Q344.3938,418.1625 344.75,418.4938 Q345.1063,418.8188 345.7438,418.8188 Q346.1188,418.8188 346.3813,418.7188 Q346.5375,418.6563 346.7063,418.4813 Q346.8125,418.375 346.8688,418.3438 Q346.9313,418.3125 347.0125,418.3125 Q347.1438,418.3125 347.2438,418.4188 Q347.35,418.5188 347.35,418.6563 Q347.35,418.7938 347.2125,418.9563 Q347.0125,419.1875 346.6938,419.3188 Q346.2625,419.5 345.7438,419.5 Q345.1375,419.5 344.6563,419.25 Q344.2625,419.05 343.9875,418.625 Q343.7125,418.1938 343.7125,417.6813 L343.7125,417.2188 Q343.7125,416.6875 343.9563,416.2313 Q344.2063,415.7688 344.6438,415.525 Q345.0813,415.275 345.575,415.275 Q345.8688,415.275 346.125,415.3438 Q346.3875,415.4063 346.6063,415.55 Z " fill="#000000"/><text fill="#000000" font-family="sans-serif" font-size="5.6" lengthAdjust="spacing" textLength="17.6" x="353.7" y="419.5188">Walker</text><line style="stroke:#181818;stroke-width:0.20000000000000004;" x1="256.8" x2="455.2" y1="423.6" y2="423.6"/><ellipse cx="260.8" cy="438.5727" fill="#84BE84" rx="1.2" ry="1.2" style="stroke:#038048;stroke-width:0.4000000000000001;"/><text fill="#000000" font-family="sans-serif" font-size="5.6" lengthAdjust="spacing" textLength="188.8" x="264.4" y="440.2914">Walker(double x, double y, double largeur, double hauteur, double vitesse)</text><line style="stroke:#181818;stroke-width:0.4000000000000001;stroke-dasharray:1.0,2.0;" x1="256.8" x2="339.6" y1="430.5242" y2="430.5242"/><text fill="#000000" font-family="sans-serif" font-size="5.6" lengthAdjust="spacing" textLength="32.8" x="339.6" y="432.643">Constructeur</text><line style="stroke:#181818;stroke-width:0.4000000000000001;stroke-dasharray:1.0,2.0;" x1="372.4" x2="455.2" y1="430.5242" y2="430.5242"/></g><!--class Monde--><g id="elem_Monde"><rect codeLine="62" fill="#F1F1F1" height="116.0297" id="Monde" rx="1" ry="1" style="stroke:#181818;stroke-width:0.20000000000000004;" width="157.2" x="257" y="110"/><ellipse cx="325.3" cy="116.4" fill="#ADD1B2" rx="4.4" ry="4.4" style="stroke:#181818;stroke-width:0.4000000000000001;"/><path d="M326.4063,114.75 Q326.4688,114.6625 326.5438,114.6188 Q326.6188,114.575 326.7063,114.575 Q326.8563,114.575 326.95,114.6813 Q327.0438,114.7813 327.0438,115.025 L327.0438,115.6063 Q327.0438,115.85 326.95,115.9563 Q326.8563,116.0625 326.7063,116.0625 Q326.5688,116.0625 326.4875,115.9813 Q326.4063,115.9063 326.3625,115.7 Q326.3438,115.5563 326.2688,115.4813 Q326.1375,115.3313 325.8938,115.2438 Q325.65,115.1563 325.4,115.1563 Q325.0938,115.1563 324.8375,115.2875 Q324.5875,115.4188 324.3875,115.7188 Q324.1938,116.0188 324.1938,116.4313 L324.1938,116.8688 Q324.1938,117.3625 324.55,117.6938 Q324.9063,118.0188 325.5438,118.0188 Q325.9188,118.0188 326.1813,117.9188 Q326.3375,117.8563 326.5063,117.6813 Q326.6125,117.575 326.6688,117.5438 Q326.7313,117.5125 326.8125,117.5125 Q326.9438,117.5125 327.0438,117.6188 Q327.15,117.7188 327.15,117.8563 Q327.15,117.9938 327.0125,118.1563 Q326.8125,118.3875 326.4938,118.5188 Q326.0625,118.7 325.5438,118.7 Q324.9375,118.7 324.4563,118.45 Q324.0625,118.25 323.7875,117.825 Q323.5125,117.3938 323.5125,116.8813 L323.5125,116.4188 Q323.5125,115.8875 323.7563,115.4313 Q324.0063,114.9688 324.4438,114.725 Q324.8813,114.475 325.375,114.475 Q325.6688,114.475 325.925,114.5438 Q326.1875,114.6063 326.4063,114.75 Z " fill="#000000"/><text fill="#000000" font-family="sans-serif" font-size="5.6" lengthAdjust="spacing" textLength="17.2" x="333.5" y="118.7188">Monde</text><line style="stroke:#181818;stroke-width:0.20000000000000004;" x1="257.4" x2="413.8" y1="122.8" y2="122.8"/><polygon fill="none" points="261.4,126.7242,263,128.3242,261.4,129.9242,259.8,128.3242" style="stroke:#B38D22;stroke-width:0.4000000000000001;"/><text fill="#000000" font-family="sans-serif" font-size="5.6" lengthAdjust="spacing" textLength="28" x="265" y="130.443">int nbLigne</text><polygon fill="none" points="261.4,134.1727,263,135.7727,261.4,137.3727,259.8,135.7727" style="stroke:#B38D22;stroke-width:0.4000000000000001;"/><text fill="#000000" font-family="sans-serif" font-size="5.6" lengthAdjust="spacing" textLength="22.4" x="265" y="137.8914">int nbCol</text><ellipse cx="261.4" cy="152.6695" fill="#84BE84" rx="1.2" ry="1.2" style="stroke:#038048;stroke-width:0.4000000000000001;"/><text fill="#000000" font-family="sans-serif" font-size="5.6" lengthAdjust="spacing" textLength="21.2" x="265" y="154.3883">Monde()</text><line style="stroke:#181818;stroke-width:0.4000000000000001;stroke-dasharray:1.0,2.0;" x1="257.4" x2="319.2" y1="144.6211" y2="144.6211"/><text fill="#000000" font-family="sans-serif" font-size="5.6" lengthAdjust="spacing" textLength="32.8" x="319.2" y="146.7398">Constructeur</text><line style="stroke:#181818;stroke-width:0.4000000000000001;stroke-dasharray:1.0,2.0;" x1="352" x2="413.8" y1="144.6211" y2="144.6211"/><ellipse cx="261.4" cy="169.1664" fill="#84BE84" rx="1.2" ry="1.2" style="stroke:#038048;stroke-width:0.4000000000000001;"/><text fill="#000000" font-family="sans-serif" font-size="5.6" lengthAdjust="spacing" textLength="140.4" x="265" y="170.8852">boolean collision(ElementMonde e1, ElementMonde e2)</text><ellipse cx="261.4" cy="176.6148" fill="#84BE84" rx="1.2" ry="1.2" style="stroke:#038048;stroke-width:0.4000000000000001;"/><text fill="#000000" font-family="sans-serif" font-size="5.6" lengthAdjust="spacing" textLength="43.2" x="265" y="178.3336">Heros getHeros()</text><ellipse cx="261.4" cy="184.0633" fill="#84BE84" rx="1.2" ry="1.2" style="stroke:#038048;stroke-width:0.4000000000000001;"/><text fill="#000000" font-family="sans-serif" font-size="5.6" lengthAdjust="spacing" textLength="146.8" x="265" y="185.782">void deplacementHeros(TypeMouvement typeMouvement)</text><ellipse cx="261.4" cy="191.5117" fill="#84BE84" rx="1.2" ry="1.2" style="stroke:#038048;stroke-width:0.4000000000000001;"/><text fill="#000000" font-family="sans-serif" font-size="5.6" lengthAdjust="spacing" textLength="71.6" x="265" y="193.2305">void deplacementMonstres()</text><ellipse cx="261.4" cy="198.9602" fill="#84BE84" rx="1.2" ry="1.2" style="stroke:#038048;stroke-width:0.4000000000000001;"/><text fill="#000000" font-family="sans-serif" font-size="5.6" lengthAdjust="spacing" textLength="68.4" x="265" y="200.6789">void addTerrains(Terrain t)</text><ellipse cx="261.4" cy="206.4086" fill="#84BE84" rx="1.2" ry="1.2" style="stroke:#038048;stroke-width:0.4000000000000001;"/><text fill="#000000" font-family="sans-serif" font-size="5.6" lengthAdjust="spacing" textLength="92" x="265" y="208.1273">void addPersonnage(Personnage p)</text><ellipse cx="261.4" cy="213.857" fill="#84BE84" rx="1.2" ry="1.2" style="stroke:#038048;stroke-width:0.4000000000000001;"/><text fill="#000000" font-family="sans-serif" font-size="5.6" lengthAdjust="spacing" textLength="45.6" x="265" y="215.5758">void updateData()</text><ellipse cx="261.4" cy="221.3055" fill="#84BE84" rx="1.2" ry="1.2" style="stroke:#038048;stroke-width:0.4000000000000001;"/><text fill="#000000" font-family="sans-serif" font-size="5.6" lengthAdjust="spacing" textLength="78.8" x="265" y="223.0242">void chargerCarte(String carte)</text><line style="stroke:#181818;stroke-width:0.4000000000000001;stroke-dasharray:1.0,2.0;" x1="257.4" x2="323.2" y1="161.118" y2="161.118"/><text fill="#000000" font-family="sans-serif" font-size="5.6" lengthAdjust="spacing" textLength="24.8" x="323.2" y="163.2367">M&#233;thodes</text><line style="stroke:#181818;stroke-width:0.4000000000000001;stroke-dasharray:1.0,2.0;" x1="348" x2="413.8" y1="161.118" y2="161.118"/></g><!--class Donnees--><g id="elem_Donnees"><rect codeLine="86" fill="#F1F1F1" height="63.8906" id="Donnees" rx="1" ry="1" style="stroke:#181818;stroke-width:0.20000000000000004;" width="93.2" x="699.8" y="136"/><ellipse cx="733.3" cy="142.4" fill="#ADD1B2" rx="4.4" ry="4.4" style="stroke:#181818;stroke-width:0.4000000000000001;"/><path d="M734.4063,140.75 Q734.4688,140.6625 734.5438,140.6188 Q734.6188,140.575 734.7063,140.575 Q734.8563,140.575 734.95,140.6813 Q735.0438,140.7813 735.0438,141.025 L735.0438,141.6063 Q735.0438,141.85 734.95,141.9563 Q734.8563,142.0625 734.7063,142.0625 Q734.5688,142.0625 734.4875,141.9813 Q734.4063,141.9063 734.3625,141.7 Q734.3438,141.5563 734.2688,141.4813 Q734.1375,141.3313 733.8938,141.2438 Q733.65,141.1563 733.4,141.1563 Q733.0938,141.1563 732.8375,141.2875 Q732.5875,141.4188 732.3875,141.7188 Q732.1938,142.0188 732.1938,142.4313 L732.1938,142.8688 Q732.1938,143.3625 732.55,143.6938 Q732.9063,144.0188 733.5438,144.0188 Q733.9188,144.0188 734.1813,143.9188 Q734.3375,143.8563 734.5063,143.6813 Q734.6125,143.575 734.6688,143.5438 Q734.7313,143.5125 734.8125,143.5125 Q734.9438,143.5125 735.0438,143.6188 Q735.15,143.7188 735.15,143.8563 Q735.15,143.9938 735.0125,144.1563 Q734.8125,144.3875 734.4938,144.5188 Q734.0625,144.7 733.5438,144.7 Q732.9375,144.7 732.4563,144.45 Q732.0625,144.25 731.7875,143.825 Q731.5125,143.3938 731.5125,142.8813 L731.5125,142.4188 Q731.5125,141.8875 731.7563,141.4313 Q732.0063,140.9688 732.4438,140.725 Q732.8813,140.475 733.375,140.475 Q733.6688,140.475 733.925,140.5438 Q734.1875,140.6063 734.4063,140.75 Z " fill="#000000"/><text fill="#000000" font-family="sans-serif" font-size="5.6" lengthAdjust="spacing" textLength="22.8" x="741.5" y="144.7188">Donnees</text><line style="stroke:#181818;stroke-width:0.20000000000000004;" x1="700.2" x2="792.6" y1="148.8" y2="148.8"/><ellipse cx="704.2" cy="154.7242" fill="none" rx="1.2" ry="1.2" style="stroke:#038048;stroke-width:0.4000000000000001;"/><text fill="#000000" font-family="sans-serif" font-size="5.6" lengthAdjust="spacing" text-decoration="underline" textLength="50.8" x="707.8" y="156.443">String GAME_TITLE</text><ellipse cx="704.2" cy="162.1727" fill="none" rx="1.2" ry="1.2" style="stroke:#038048;stroke-width:0.4000000000000001;"/><text fill="#000000" font-family="sans-serif" font-size="5.6" lengthAdjust="spacing" text-decoration="underline" textLength="82.8" x="707.8" y="163.8914">int WINDOW_DEFAULT_HEIGHT</text><ellipse cx="704.2" cy="169.6211" fill="none" rx="1.2" ry="1.2" style="stroke:#038048;stroke-width:0.4000000000000001;"/><text fill="#000000" font-family="sans-serif" font-size="5.6" lengthAdjust="spacing" text-decoration="underline" textLength="80.4" x="707.8" y="171.3398">int WINDOW_DEFAULT_WIDTH</text><ellipse cx="704.2" cy="177.0695" fill="none" rx="1.2" ry="1.2" style="stroke:#038048;stroke-width:0.4000000000000001;"/><text fill="#000000" font-family="sans-serif" font-size="5.6" lengthAdjust="spacing" text-decoration="underline" textLength="51.6" x="707.8" y="178.7883">int WORLD_HEIGHT</text><ellipse cx="704.2" cy="184.518" fill="none" rx="1.2" ry="1.2" style="stroke:#038048;stroke-width:0.4000000000000001;"/><text fill="#000000" font-family="sans-serif" font-size="5.6" lengthAdjust="spacing" text-decoration="underline" textLength="49.2" x="707.8" y="186.2367">int WORLD_WIDTH</text><text fill="#000000" font-family="sans-serif" font-size="5.6" lengthAdjust="spacing" textLength="4.8" x="707.8" y="193.6852">...</text><line style="stroke:#181818;stroke-width:0.20000000000000004;" x1="700.2" x2="792.6" y1="196.6906" y2="196.6906"/></g><!--class GestionFichier--><g id="elem_GestionFichier"><rect codeLine="95" fill="#F1F1F1" height="48.9938" id="GestionFichier" rx="1" ry="1" style="stroke:#181818;stroke-width:0.20000000000000004;" width="112.8" x="690" y="257.6"/><ellipse cx="726.3" cy="264" fill="#ADD1B2" rx="4.4" ry="4.4" style="stroke:#181818;stroke-width:0.4000000000000001;"/><path d="M727.4063,262.35 Q727.4688,262.2625 727.5438,262.2188 Q727.6188,262.175 727.7063,262.175 Q727.8563,262.175 727.95,262.2813 Q728.0438,262.3813 728.0438,262.625 L728.0438,263.2063 Q728.0438,263.45 727.95,263.5563 Q727.8563,263.6625 727.7063,263.6625 Q727.5688,263.6625 727.4875,263.5813 Q727.4063,263.5063 727.3625,263.3 Q727.3438,263.1563 727.2688,263.0813 Q727.1375,262.9313 726.8938,262.8438 Q726.65,262.7563 726.4,262.7563 Q726.0938,262.7563 725.8375,262.8875 Q725.5875,263.0188 725.3875,263.3188 Q725.1938,263.6188 725.1938,264.0313 L725.1938,264.4688 Q725.1938,264.9625 725.55,265.2938 Q725.9063,265.6188 726.5438,265.6188 Q726.9188,265.6188 727.1813,265.5188 Q727.3375,265.4563 727.5063,265.2813 Q727.6125,265.175 727.6688,265.1438 Q727.7313,265.1125 727.8125,265.1125 Q727.9438,265.1125 728.0438,265.2188 Q728.15,265.3188 728.15,265.4563 Q728.15,265.5938 728.0125,265.7563 Q727.8125,265.9875 727.4938,266.1188 Q727.0625,266.3 726.5438,266.3 Q725.9375,266.3 725.4563,266.05 Q725.0625,265.85 724.7875,265.425 Q724.5125,264.9938 724.5125,264.4813 L724.5125,264.0188 Q724.5125,263.4875 724.7563,263.0313 Q725.0063,262.5688 725.4438,262.325 Q725.8813,262.075 726.375,262.075 Q726.6688,262.075 726.925,262.1438 Q727.1875,262.2063 727.4063,262.35 Z " fill="#000000"/><text fill="#000000" font-family="sans-serif" font-size="5.6" lengthAdjust="spacing" textLength="36.8" x="734.5" y="266.3188">GestionFichier</text><line style="stroke:#181818;stroke-width:0.20000000000000004;" x1="690.4" x2="802.4" y1="270.4" y2="270.4"/><ellipse cx="694.4" cy="285.3727" fill="#84BE84" rx="1.2" ry="1.2" style="stroke:#038048;stroke-width:0.4000000000000001;"/><text fill="#000000" font-family="sans-serif" font-size="5.6" lengthAdjust="spacing" textLength="40.8" x="698" y="287.0914">GestionFichier()</text><line style="stroke:#181818;stroke-width:0.4000000000000001;stroke-dasharray:1.0,2.0;" x1="690.4" x2="730" y1="277.3242" y2="277.3242"/><text fill="#000000" font-family="sans-serif" font-size="5.6" lengthAdjust="spacing" textLength="32.8" x="730" y="279.443">Constructeur</text><line style="stroke:#181818;stroke-width:0.4000000000000001;stroke-dasharray:1.0,2.0;" x1="762.8" x2="802.4" y1="277.3242" y2="277.3242"/><ellipse cx="694.4" cy="301.8695" fill="#84BE84" rx="1.2" ry="1.2" style="stroke:#038048;stroke-width:0.4000000000000001;"/><text fill="#000000" font-family="sans-serif" font-size="5.6" lengthAdjust="spacing" textLength="102.4" x="698" y="303.5883">char[] lireFichierCarte(string nomFichier)</text><line style="stroke:#181818;stroke-width:0.4000000000000001;stroke-dasharray:1.0,2.0;" x1="690.4" x2="734" y1="293.8211" y2="293.8211"/><text fill="#000000" font-family="sans-serif" font-size="5.6" lengthAdjust="spacing" textLength="24.8" x="734" y="295.9398">M&#233;thodes</text><line style="stroke:#181818;stroke-width:0.4000000000000001;stroke-dasharray:1.0,2.0;" x1="758.8" x2="802.4" y1="293.8211" y2="293.8211"/></g><!--class Resources--><g id="elem_Resources"><rect codeLine="102" fill="#F1F1F1" height="47.3938" id="Resources" rx="1" ry="1" style="stroke:#181818;stroke-width:0.20000000000000004;" width="80.8" x="706" y="338.8"/><ellipse cx="731.1" cy="345.2" fill="#ADD1B2" rx="4.4" ry="4.4" style="stroke:#181818;stroke-width:0.4000000000000001;"/><path d="M732.2063,343.55 Q732.2688,343.4625 732.3438,343.4188 Q732.4188,343.375 732.5063,343.375 Q732.6563,343.375 732.75,343.4813 Q732.8438,343.5813 732.8438,343.825 L732.8438,344.4063 Q732.8438,344.65 732.75,344.7563 Q732.6563,344.8625 732.5063,344.8625 Q732.3688,344.8625 732.2875,344.7813 Q732.2063,344.7063 732.1625,344.5 Q732.1438,344.3563 732.0688,344.2813 Q731.9375,344.1313 731.6938,344.0438 Q731.45,343.9563 731.2,343.9563 Q730.8938,343.9563 730.6375,344.0875 Q730.3875,344.2188 730.1875,344.5188 Q729.9938,344.8188 729.9938,345.2313 L729.9938,345.6688 Q729.9938,346.1625 730.35,346.4938 Q730.7063,346.8188 731.3438,346.8188 Q731.7188,346.8188 731.9813,346.7188 Q732.1375,346.6563 732.3063,346.4813 Q732.4125,346.375 732.4688,346.3438 Q732.5313,346.3125 732.6125,346.3125 Q732.7438,346.3125 732.8438,346.4188 Q732.95,346.5188 732.95,346.6563 Q732.95,346.7938 732.8125,346.9563 Q732.6125,347.1875 732.2938,347.3188 Q731.8625,347.5 731.3438,347.5 Q730.7375,347.5 730.2563,347.25 Q729.8625,347.05 729.5875,346.625 Q729.3125,346.1938 729.3125,345.6813 L729.3125,345.2188 Q729.3125,344.6875 729.5563,344.2313 Q729.8063,343.7688 730.2438,343.525 Q730.6813,343.275 731.175,343.275 Q731.4688,343.275 731.725,343.3438 Q731.9875,343.4063 732.2063,343.55 Z " fill="#000000"/><text fill="#000000" font-family="sans-serif" font-size="5.6" lengthAdjust="spacing" textLength="27.2" x="739.3" y="347.5188">Resources</text><line style="stroke:#181818;stroke-width:0.20000000000000004;" x1="706.4" x2="786.4" y1="351.6" y2="351.6"/><rect fill="none" height="2.4" style="stroke:#C82930;stroke-width:0.4000000000000001;" width="2.4" x="709.2" y="356.3242"/><text fill="#000000" font-family="sans-serif" font-size="5.6" lengthAdjust="spacing" text-decoration="underline" textLength="68.4" x="714" y="359.243">Map&lt;String, Image&gt; assets</text><ellipse cx="710.4" cy="374.0211" fill="#84BE84" rx="1.2" ry="1.2" style="stroke:#038048;stroke-width:0.4000000000000001;"/><text fill="#000000" font-family="sans-serif" font-size="5.6" lengthAdjust="spacing" text-decoration="underline" textLength="52" x="714" y="375.7398">URL get(String path)</text><ellipse cx="710.4" cy="381.4695" fill="#84BE84" rx="1.2" ry="1.2" style="stroke:#038048;stroke-width:0.4000000000000001;"/><text fill="#000000" font-family="sans-serif" font-size="5.6" lengthAdjust="spacing" text-decoration="underline" textLength="70.4" x="714" y="383.1883">Image getAsset(String path)</text><line style="stroke:#181818;stroke-width:0.4000000000000001;stroke-dasharray:1.0,2.0;" x1="706.4" x2="734" y1="365.9727" y2="365.9727"/><text fill="#000000" font-family="sans-serif" font-size="5.6" lengthAdjust="spacing" textLength="24.8" x="734" y="368.0914">M&#233;thodes</text><line style="stroke:#181818;stroke-width:0.4000000000000001;stroke-dasharray:1.0,2.0;" x1="758.8" x2="786.4" y1="365.9727" y2="365.9727"/></g><!--class Sprite--><g id="elem_Sprite"><rect codeLine="111" fill="#F1F1F1" height="19.2" id="Sprite" rx="1" ry="1" style="stroke:#181818;stroke-width:0.20000000000000004;" width="27.6" x="32.6" y="272.4"/><ellipse cx="38.6" cy="278.8" fill="#ADD1B2" rx="4.4" ry="4.4" style="stroke:#181818;stroke-width:0.4000000000000001;"/><path d="M39.7063,277.15 Q39.7688,277.0625 39.8438,277.0188 Q39.9188,276.975 40.0063,276.975 Q40.1563,276.975 40.25,277.0813 Q40.3438,277.1813 40.3438,277.425 L40.3438,278.0063 Q40.3438,278.25 40.25,278.3563 Q40.1563,278.4625 40.0063,278.4625 Q39.8688,278.4625 39.7875,278.3813 Q39.7063,278.3063 39.6625,278.1 Q39.6438,277.9563 39.5688,277.8813 Q39.4375,277.7313 39.1938,277.6438 Q38.95,277.5563 38.7,277.5563 Q38.3938,277.5563 38.1375,277.6875 Q37.8875,277.8188 37.6875,278.1188 Q37.4938,278.4188 37.4938,278.8313 L37.4938,279.2688 Q37.4938,279.7625 37.85,280.0938 Q38.2063,280.4188 38.8438,280.4188 Q39.2188,280.4188 39.4813,280.3188 Q39.6375,280.2563 39.8063,280.0813 Q39.9125,279.975 39.9688,279.9438 Q40.0313,279.9125 40.1125,279.9125 Q40.2438,279.9125 40.3438,280.0188 Q40.45,280.1188 40.45,280.2563 Q40.45,280.3938 40.3125,280.5563 Q40.1125,280.7875 39.7938,280.9188 Q39.3625,281.1 38.8438,281.1 Q38.2375,281.1 37.7563,280.85 Q37.3625,280.65 37.0875,280.225 Q36.8125,279.7938 36.8125,279.2813 L36.8125,278.8188 Q36.8125,278.2875 37.0563,277.8313 Q37.3063,277.3688 37.7438,277.125 Q38.1813,276.875 38.675,276.875 Q38.9688,276.875 39.225,276.9438 Q39.4875,277.0063 39.7063,277.15 Z " fill="#000000"/><text fill="#000000" font-family="sans-serif" font-size="5.6" lengthAdjust="spacing" textLength="14.8" x="44.2" y="281.1188">Sprite</text><line style="stroke:#181818;stroke-width:0.20000000000000004;" x1="33" x2="59.8" y1="285.2" y2="285.2"/><line style="stroke:#181818;stroke-width:0.20000000000000004;" x1="33" x2="59.8" y1="288.4" y2="288.4"/></g><!--class Application--><g id="elem_Application"><rect codeLine="115" fill="#F1F1F1" height="19.2" id="Application" rx="1" ry="1" style="stroke:#181818;stroke-width:0.20000000000000004;" width="40.4" x="152.2" y="2.8"/><ellipse cx="158.2" cy="9.2" fill="#ADD1B2" rx="4.4" ry="4.4" style="stroke:#181818;stroke-width:0.4000000000000001;"/><path d="M159.3063,7.55 Q159.3688,7.4625 159.4438,7.4188 Q159.5188,7.375 159.6063,7.375 Q159.7563,7.375 159.85,7.4813 Q159.9438,7.5813 159.9438,7.825 L159.9438,8.4063 Q159.9438,8.65 159.85,8.7563 Q159.7563,8.8625 159.6063,8.8625 Q159.4688,8.8625 159.3875,8.7813 Q159.3063,8.7063 159.2625,8.5 Q159.2438,8.3563 159.1688,8.2813 Q159.0375,8.1313 158.7938,8.0438 Q158.55,7.9563 158.3,7.9563 Q157.9938,7.9563 157.7375,8.0875 Q157.4875,8.2188 157.2875,8.5188 Q157.0938,8.8188 157.0938,9.2313 L157.0938,9.6688 Q157.0938,10.1625 157.45,10.4938 Q157.8063,10.8188 158.4438,10.8188 Q158.8188,10.8188 159.0813,10.7188 Q159.2375,10.6563 159.4063,10.4813 Q159.5125,10.375 159.5688,10.3438 Q159.6313,10.3125 159.7125,10.3125 Q159.8438,10.3125 159.9438,10.4188 Q160.05,10.5188 160.05,10.6563 Q160.05,10.7938 159.9125,10.9563 Q159.7125,11.1875 159.3938,11.3188 Q158.9625,11.5 158.4438,11.5 Q157.8375,11.5 157.3563,11.25 Q156.9625,11.05 156.6875,10.625 Q156.4125,10.1938 156.4125,9.6813 L156.4125,9.2188 Q156.4125,8.6875 156.6563,8.2313 Q156.9063,7.7688 157.3438,7.525 Q157.7813,7.275 158.275,7.275 Q158.5688,7.275 158.825,7.3438 Q159.0875,7.4063 159.3063,7.55 Z " fill="#000000"/><text fill="#000000" font-family="sans-serif" font-size="5.6" lengthAdjust="spacing" textLength="27.6" x="163.8" y="11.5188">Application</text><line style="stroke:#181818;stroke-width:0.20000000000000004;" x1="152.6" x2="192.2" y1="15.6" y2="15.6"/><line style="stroke:#181818;stroke-width:0.20000000000000004;" x1="152.6" x2="192.2" y1="18.8" y2="18.8"/></g><!--link Escape to gui--><!--reverse link GestionFichier to Resources--><!--reverse link Donnees to GestionFichier--><!--link TypeMouvement to ElementMonde--><!--link Escape to Monde--><g id="link_Escape_Monde"><path codeLine="125" d="M206.148,86.068 C209.484,88.056 212.816,90.06 216,92 C229.268,100.084 243.28,108.792 256.86,117.316 " fill="none" id="Escape-Monde" style="stroke:#181818;stroke-width:0.4000000000000001;"/><text fill="#000000" font-family="sans-serif" font-size="5.2" lengthAdjust="spacing" textLength="2.8" x="250.9295" y="114.0164">1</text></g><!--reverse link ElementMonde to Personnage--><g id="link_ElementMonde_Personnage"><path codeLine="126" d="M214.3649,198.3358 C226.1969,209.1758 235.52,216.632 250,226 C263.448,234.7 278.476,242.784 293.224,249.948 " fill="none" id="ElementMonde-backto-Personnage" style="stroke:#181818;stroke-width:0.4000000000000001;"/><polygon fill="none" points="209.056,193.472,212.7436,200.1054,215.9861,196.5661,209.056,193.472" style="stroke:#181818;stroke-width:0.4000000000000001;"/></g><!--reverse link Personnage to Heros--><g id="link_Personnage_Heros"><path codeLine="127" d="M455.846,316.7035 C475.818,324.6835 490.256,330.452 509.12,337.992 " fill="none" id="Personnage-backto-Heros" style="stroke:#181818;stroke-width:0.4000000000000001;"/><polygon fill="none" points="449.16,314.032,454.9556,318.9322,456.7365,314.4748,449.16,314.032" style="stroke:#181818;stroke-width:0.4000000000000001;"/></g><!--reverse link Personnage to Monstre--><g id="link_Personnage_Monstre"><path codeLine="128" d="M363.1788,321.1788 C361.2388,332.1908 360.4,336.98 358.788,346.152 " fill="none" id="Personnage-backto-Monstre" style="stroke:#181818;stroke-width:0.4000000000000001;"/><polygon fill="none" points="364.428,314.088,360.8152,320.7624,365.5424,321.5952,364.428,314.088" style="stroke:#181818;stroke-width:0.4000000000000001;"/></g><!--reverse link Monstre to Walker--><g id="link_Monstre_Walker"><path codeLine="129" d="M356,385.936 C356,395.716 356,400.996 356,410.756 " fill="none" id="Monstre-backto-Walker" style="stroke:#181818;stroke-width:0.4000000000000001;"/><polygon fill="none" points="356,378.736,353.6,385.936,358.4,385.936,356,378.736" style="stroke:#181818;stroke-width:0.4000000000000001;"/></g><!--reverse link ElementMonde to Terrain--><g id="link_ElementMonde_Terrain"><path codeLine="131" d="M178.46,209.9695 C176.44,226.2975 174.944,238.404 173.04,253.788 " fill="none" id="ElementMonde-backto-Terrain" style="stroke:#181818;stroke-width:0.4000000000000001;"/><polygon fill="none" points="179.344,202.824,176.0782,209.6749,180.8418,210.2642,179.344,202.824" style="stroke:#181818;stroke-width:0.4000000000000001;"/></g><!--reverse link Terrain to Mur--><g id="link_Terrain_Mur"><path codeLine="132" d="M167.6643,317.4291 C167.1683,326.4411 167.016,329.164 166.532,337.884 " fill="none" id="Terrain-backto-Mur" style="stroke:#181818;stroke-width:0.4000000000000001;"/><polygon fill="none" points="168.06,310.24,165.268,317.2972,170.0607,317.561,168.06,310.24" style="stroke:#181818;stroke-width:0.4000000000000001;"/></g><!--reverse link Application to Escape--><g id="link_Application_Escape"><path codeLine="133" d="M172.4,29.32 C172.4,35.92 172.4,37.82 172.4,45.988 " fill="none" id="Application-backto-Escape" style="stroke:#181818;stroke-width:0.4000000000000001;"/><polygon fill="none" points="172.4,22.12,170,29.32,174.8,29.32,172.4,22.12" style="stroke:#181818;stroke-width:0.4000000000000001;"/></g><!--link Monde to Personnage--><g id="link_Monde_Personnage"><path codeLine="136" d="M353.152,226.16 C355.636,234.336 358.112,242.48 360.368,249.908 " fill="none" id="Monde-Personnage" style="stroke:#181818;stroke-width:0.4000000000000001;"/><text fill="#000000" font-family="sans-serif" font-size="5.2" lengthAdjust="spacing" textLength="2" x="357.3879" y="245.4578">*</text></g><!--link Monde to Terrain--><g id="link_Monde_Terrain"><path codeLine="137" d="M256.976,222.016 C240.884,232.988 224.576,244.112 210.472,253.728 " fill="none" id="Monde-Terrain" style="stroke:#181818;stroke-width:0.4000000000000001;"/><text fill="#000000" font-family="sans-serif" font-size="5.2" lengthAdjust="spacing" textLength="2" x="212.5838" y="249.277">*</text></g><!--link Monde to GestionFichier--><g id="link_Monde_GestionFichier"><path codeLine="139" d="M414.328,182.204 C483.744,195.48 587.08,217.96 674,248 C681.924,250.74 690.144,254.06 698.084,257.536 " fill="none" id="Monde-GestionFichier" style="stroke:#181818;stroke-width:0.4000000000000001;"/><text fill="#000000" font-family="sans-serif" font-size="5.2" lengthAdjust="spacing" textLength="2.8" x="689.5356" y="253.1211">1</text></g><!--link ElementMonde to Sprite--><g id="link_ElementMonde_Sprite"><path codeLine="141" d="M169.656,202.908 C164.864,211.408 158.752,219.832 151.2,226 C126.464,246.2 110.38,231.904 82.8,248 C71.732,254.46 61.216,264.78 54.36,272.284 " fill="none" id="ElementMonde-Sprite" style="stroke:#181818;stroke-width:0.4000000000000001;"/><text fill="#000000" font-family="sans-serif" font-size="5.2" lengthAdjust="spacing" textLength="2" x="54.0565" y="267.9125">*</text></g><!--SRC=[lLRDRk8m4BxdAQpkOSaM8dNFgqgeq884fQAfE5HLPP9Pi1hYo7RGLjq-K9-ZBrOxTdviGk6mNGw1Z3_FVFDFXgCdl08qv17E0Bru7aAPaKrf6YiHaX-yv8BXIA0emPoZOG8RI4KJWT0t5DDycG3wumgUNS4Qvm9oveeJp5QrE0WkQ2hDvf721e4HdsfY7Tyh1Azj_49W39EqehPNbG5sIkRTYdBNuTfrIFgLwkdxcrZJ67X3xvBI172AW8kGuIqmZkNTcdFnfRbEStQOfmJzFuw6ObjWRoIAfgagZvsqRua0pk6GAxMAppmo7kprq1ZxtCCj9J6Atz-o14V0Ek5p1bEQRulQHQBvvhT5vIuT0QEyZeZwWZJV84jJ6GY4vkEhKLYzJOQNzKiukwb-3sQBwzqwA6mThWHDwQiZToWAJbbC2wvmH1rhu3_ZRqLmWPCdEAAPDEvhEBWZaSXAIvSJiah1aLtGvDX1Tqoc8feaX1EQTgpX36TTUrh3Jz-k9RG2qSnmtJXGz8swgi-FwX_tgiduZdOSnsRuIiLcN8jTJ6DQD6PFvW3pBCO21bXWrqoqLgba5vW9wDmAHj8LYjIBNssF8dzchvLhqCHRaZAXFaKlN611ebUjTwEsXjPt_u2a3Uvx3RCIouGyLsIvUlgbeNAxpd91ahBVjVM1z0wWdW6MLSFzgZyTFeRZS39i0wdAMeolvO1v70ml-tUJy74qj8RIv-35U12Ezc9dyydWaBu2Owi9J0YjFhcIaqKMwoM9rgJHitkRGLcoxrIPRkyCTK4bNsOd8GpC9Lq7NCSofHiZRcdaEN2QiyXAHwzsTegpNpebNJJUo8IU8taB13z8gb9nDv-etYkhCiDYxRVX2lKAsLS6Tk6lRccjScBLrMt6vBmgK1AdPVqiIqY4LJpbfl-EVbFfgvnxppGNdcw3m7H3xtvDuXZIXzwvQP10Ml3g05M0F9CGEqkUasWRQohUioTBXM5ajHRAQcE0IROElHuwEJifcHKO_VGQ0wCdpVrr5EdfPqvgh5SkizqJis3CWS5vNZc-seoeVtT6Rc0kVNrevsFNcSBD7oTDDlj1fQLz41ak9qkUjIDwFQMbpdLWAkW3]--></g></svg>