<?xml version="1.0" encoding="us-ascii" standalone="no"?><svg xmlns="http://www.w3.org/2000/svg" xmlns:xlink="http://www.w3.org/1999/xlink" contentStyleType="text/css" height="990.4px" preserveAspectRatio="none" style="width:1637px;height:990px;background:#FFFFFF;" version="1.1" viewBox="0 0 1637 990" width="1637.6px" zoomAndPan="magnify"><defs/><g><!--cluster Escape--><g id="cluster_Escape"><path d="M6.8,53.6 L48.4,53.6 A3,3 0 0 1 50.4,55.6 L56,73.2969 L1557.2,73.2969 A2,2 0 0 1 1559.2,75.2969 L1559.2,982.8 A2,2 0 0 1 1557.2,984.8 L6.8,984.8 A2,2 0 0 1 4.8,982.8 L4.8,55.6 A2,2 0 0 1 6.8,53.6 " fill="none" style="stroke:#000000;stroke-width:1.2000000000000002;"/><line style="stroke:#000000;stroke-width:1.2000000000000002;" x1="4.8" x2="56" y1="73.2969" y2="73.2969"/><text fill="#000000" font-family="sans-serif" font-size="11.2" font-weight="bold" lengthAdjust="spacing" textLength="40.8" x="8" y="67.2859">Escape</text></g><!--cluster Monde--><g id="cluster_Monde"><path d="M296.4,215.2 L336.4,215.2 A3,3 0 0 1 338.4,217.2 L344,234.8969 L1396.4,234.8969 A2,2 0 0 1 1398.4,236.8969 L1398.4,963.6 A2,2 0 0 1 1396.4,965.6 L296.4,965.6 A2,2 0 0 1 294.4,963.6 L294.4,217.2 A2,2 0 0 1 296.4,215.2 " fill="none" style="stroke:#000000;stroke-width:1.2000000000000002;"/><line style="stroke:#000000;stroke-width:1.2000000000000002;" x1="294.4" x2="344" y1="234.8969" y2="234.8969"/><text fill="#000000" font-family="sans-serif" font-size="11.2" font-weight="bold" lengthAdjust="spacing" textLength="39.2" x="297.6" y="228.8859">Monde</text></g><!--cluster Outils--><g id="cluster_Outils"><path d="M26,274.8 L59.6,274.8 A3,3 0 0 1 61.6,276.8 L67.2,294.4969 L273.2,294.4969 A2,2 0 0 1 275.2,296.4969 L275.2,850.8 A2,2 0 0 1 273.2,852.8 L26,852.8 A2,2 0 0 1 24,850.8 L24,276.8 A2,2 0 0 1 26,274.8 " fill="none" style="stroke:#000000;stroke-width:1.2000000000000002;"/><line style="stroke:#000000;stroke-width:1.2000000000000002;" x1="24" x2="67.2" y1="294.4969" y2="294.4969"/><text fill="#000000" font-family="sans-serif" font-size="11.2" font-weight="bold" lengthAdjust="spacing" textLength="32.8" x="27.2" y="288.4859">Outils</text></g><!--cluster gui--><g id="cluster_gui"><path d="M1426,533.6 L1444.4,533.6 A3,3 0 0 1 1446.4,535.6 L1452,553.2969 L1531.6,553.2969 A2,2 0 0 1 1533.6,555.2969 L1533.6,625.2 A2,2 0 0 1 1531.6,627.2 L1426,627.2 A2,2 0 0 1 1424,625.2 L1424,535.6 A2,2 0 0 1 1426,533.6 " fill="none" style="stroke:#000000;stroke-width:1.2000000000000002;"/><line style="stroke:#000000;stroke-width:1.2000000000000002;" x1="1424" x2="1452" y1="553.2969" y2="553.2969"/><text fill="#000000" font-family="sans-serif" font-size="11.2" font-weight="bold" lengthAdjust="spacing" textLength="17.6" x="1427.2" y="547.2859">gui</text></g><!--cluster engine--><g id="cluster_engine"><path d="M1333.2,96 L1373.2,96 A3,3 0 0 1 1375.2,98 L1380.8,115.6969 L1488.4,115.6969 A2,2 0 0 1 1490.4,117.6969 L1490.4,187.6 A2,2 0 0 1 1488.4,189.6 L1333.2,189.6 A2,2 0 0 1 1331.2,187.6 L1331.2,98 A2,2 0 0 1 1333.2,96 " fill="none" style="stroke:#000000;stroke-width:1.2000000000000002;"/><line style="stroke:#000000;stroke-width:1.2000000000000002;" x1="1331.2" x2="1380.8" y1="115.6969" y2="115.6969"/><text fill="#000000" font-family="sans-serif" font-size="11.2" font-weight="bold" lengthAdjust="spacing" textLength="39.2" x="1334.4" y="109.6859">engine</text></g><!--class Settings--><g id="elem_Settings"><rect codeLine="115" fill="#F1F1F1" height="83.0906" id="Settings" rx="2" ry="2" style="stroke:#181818;stroke-width:0.4000000000000001;" width="115.2" x="607.2" y="109.6"/><ellipse cx="641.16" cy="122.4" fill="#ADD1B2" rx="8.8" ry="8.8" style="stroke:#181818;stroke-width:0.8000000000000002;"/><path d="M643.3725,119.1 Q643.4975,118.925 643.6475,118.8375 Q643.7975,118.75 643.9725,118.75 Q644.2725,118.75 644.46,118.9625 Q644.6475,119.1625 644.6475,119.65 L644.6475,120.8125 Q644.6475,121.3 644.46,121.5125 Q644.2725,121.725 643.9725,121.725 Q643.6975,121.725 643.535,121.5625 Q643.3725,121.4125 643.285,121 Q643.2475,120.7125 643.0975,120.5625 Q642.835,120.2625 642.3475,120.0875 Q641.86,119.9125 641.36,119.9125 Q640.7475,119.9125 640.235,120.175 Q639.735,120.4375 639.335,121.0375 Q638.9475,121.6375 638.9475,122.4625 L638.9475,123.3375 Q638.9475,124.325 639.66,124.9875 Q640.3725,125.6375 641.6475,125.6375 Q642.3975,125.6375 642.9225,125.4375 Q643.235,125.3125 643.5725,124.9625 Q643.785,124.75 643.8975,124.6875 Q644.0225,124.625 644.185,124.625 Q644.4475,124.625 644.6475,124.8375 Q644.86,125.0375 644.86,125.3125 Q644.86,125.5875 644.585,125.9125 Q644.185,126.375 643.5475,126.6375 Q642.685,127 641.6475,127 Q640.435,127 639.4725,126.5 Q638.685,126.1 638.135,125.25 Q637.585,124.3875 637.585,123.3625 L637.585,122.4375 Q637.585,121.375 638.0725,120.4625 Q638.5725,119.5375 639.4475,119.05 Q640.3225,118.55 641.31,118.55 Q641.8975,118.55 642.41,118.6875 Q642.935,118.8125 643.3725,119.1 Z " fill="#000000"/><text fill="#000000" font-family="sans-serif" font-size="11.2" lengthAdjust="spacing" textLength="40.8" x="657.24" y="127.0375">Settings</text><line style="stroke:#181818;stroke-width:0.4000000000000001;" x1="608" x2="721.6" y1="135.2" y2="135.2"/><ellipse cx="616" cy="147.0484" fill="none" rx="2.4" ry="2.4" style="stroke:#038048;stroke-width:0.8000000000000002;"/><text fill="#000000" font-family="sans-serif" font-size="11.2" lengthAdjust="spacing" text-decoration="underline" textLength="94.4" x="623.2" y="150.4859">boolean fullScreen</text><ellipse cx="616" cy="161.9453" fill="none" rx="2.4" ry="2.4" style="stroke:#038048;stroke-width:0.8000000000000002;"/><text fill="#000000" font-family="sans-serif" font-size="11.2" lengthAdjust="spacing" text-decoration="underline" textLength="88.8" x="623.2" y="165.3828">boolean showFps</text><ellipse cx="616" cy="176.8422" fill="none" rx="2.4" ry="2.4" style="stroke:#038048;stroke-width:0.8000000000000002;"/><text fill="#000000" font-family="sans-serif" font-size="11.2" lengthAdjust="spacing" text-decoration="underline" textLength="66.4" x="623.2" y="180.2797">Locale locale</text><line style="stroke:#181818;stroke-width:0.4000000000000001;" x1="608" x2="721.6" y1="186.2906" y2="186.2906"/></g><!--class ElementMonde--><g id="elem_ElementMonde"><rect codeLine="4" fill="#F1F1F1" height="139.4781" id="ElementMonde" rx="2" ry="2" style="stroke:#181818;stroke-width:0.4000000000000001;" width="101.6" x="1011.6" y="291.2"/><ellipse cx="1023.6" cy="304" fill="#A9DCDF" rx="8.8" ry="8.8" style="stroke:#181818;stroke-width:0.8000000000000002;"/><path d="M1025.35,305.4125 L1022.0375,305.4125 L1021.7,306.2375 L1022.0375,306.2375 Q1022.525,306.2375 1022.7375,306.425 Q1022.95,306.6125 1022.95,306.925 Q1022.95,307.225 1022.7375,307.4125 Q1022.525,307.6 1022.0375,307.6 L1020.2,307.6 Q1019.7125,307.6 1019.5125,307.4125 Q1019.3,307.225 1019.3,306.9125 Q1019.3,306.6125 1019.525,306.425 Q1019.7375,306.225 1020.2375,306.2375 L1022.375,300.9125 L1021.4875,300.9125 Q1021,300.9125 1020.7875,300.725 Q1020.575,300.5375 1020.575,300.225 Q1020.575,299.925 1020.7875,299.7375 Q1021,299.55 1021.4875,299.55 L1024.425,299.55 L1027.1375,306.2375 Q1027.6125,306.2375 1027.7625,306.35 Q1028.075,306.5625 1028.075,306.925 Q1028.075,307.225 1027.8625,307.4125 Q1027.6625,307.6 1027.175,307.6 L1025.3375,307.6 Q1024.85,307.6 1024.6375,307.4125 Q1024.425,307.225 1024.425,306.9125 Q1024.425,306.6125 1024.6375,306.425 Q1024.85,306.2375 1025.3375,306.2375 L1025.675,306.2375 L1025.35,305.4125 Z M1024.775,304.05 L1023.6875,301.35 L1022.5875,304.05 L1024.775,304.05 Z " fill="#000000"/><text fill="#000000" font-family="sans-serif" font-size="11.2" font-style="italic" lengthAdjust="spacing" textLength="76" x="1034.8" y="308.6375">ElementMonde</text><line style="stroke:#181818;stroke-width:0.4000000000000001;" x1="1012.4" x2="1112.4" y1="316.8" y2="316.8"/><polygon fill="none" points="1020.4,324.6484,1023.6,327.8484,1020.4,331.0484,1017.2,327.8484" style="stroke:#B38D22;stroke-width:0.8000000000000002;"/><text fill="#000000" font-family="sans-serif" font-size="11.2" lengthAdjust="spacing" textLength="42.4" x="1027.6" y="332.0859">double x</text><polygon fill="none" points="1020.4,339.5453,1023.6,342.7453,1020.4,345.9453,1017.2,342.7453" style="stroke:#B38D22;stroke-width:0.8000000000000002;"/><text fill="#000000" font-family="sans-serif" font-size="11.2" lengthAdjust="spacing" textLength="43.2" x="1027.6" y="346.9828">double y</text><polygon fill="none" points="1020.4,354.4422,1023.6,357.6422,1020.4,360.8422,1017.2,357.6422" style="stroke:#B38D22;stroke-width:0.8000000000000002;"/><text fill="#000000" font-family="sans-serif" font-size="11.2" lengthAdjust="spacing" textLength="76.8" x="1027.6" y="361.8797">double hauteur</text><polygon fill="none" points="1020.4,369.3391,1023.6,372.5391,1020.4,375.7391,1017.2,372.5391" style="stroke:#B38D22;stroke-width:0.8000000000000002;"/><text fill="#000000" font-family="sans-serif" font-size="11.2" lengthAdjust="spacing" textLength="73.6" x="1027.6" y="376.7766">double largeur</text><ellipse cx="1020.4" cy="406.3328" fill="#84BE84" rx="2.4" ry="2.4" style="stroke:#038048;stroke-width:0.8000000000000002;"/><text fill="#000000" font-family="sans-serif" font-size="11.2" lengthAdjust="spacing" textLength="42.4" x="1027.6" y="409.7703">Monde()</text><text fill="#000000" font-family="sans-serif" font-size="11.2" lengthAdjust="spacing" textLength="3.2" x="1027.6" y="424.6672">&#160;</text><line style="stroke:#181818;stroke-width:0.8000000000000002;stroke-dasharray:1.0,2.0;" x1="1012.4" x2="1029.6" y1="390.2359" y2="390.2359"/><text fill="#000000" font-family="sans-serif" font-size="11.2" lengthAdjust="spacing" textLength="65.6" x="1029.6" y="394.4734">Constructeur</text><line style="stroke:#181818;stroke-width:0.8000000000000002;stroke-dasharray:1.0,2.0;" x1="1095.2" x2="1112.4" y1="390.2359" y2="390.2359"/></g><!--class Terrain--><g id="elem_Terrain"><rect codeLine="13" fill="#F1F1F1" height="112.8844" id="Terrain" rx="2" ry="2" style="stroke:#181818;stroke-width:0.4000000000000001;" width="320.8" x="481.2" y="532.4"/><ellipse cx="619.8" cy="545.2" fill="#A9DCDF" rx="8.8" ry="8.8" style="stroke:#181818;stroke-width:0.8000000000000002;"/><path d="M621.55,546.6125 L618.2375,546.6125 L617.9,547.4375 L618.2375,547.4375 Q618.725,547.4375 618.9375,547.625 Q619.15,547.8125 619.15,548.125 Q619.15,548.425 618.9375,548.6125 Q618.725,548.8 618.2375,548.8 L616.4,548.8 Q615.9125,548.8 615.7125,548.6125 Q615.5,548.425 615.5,548.1125 Q615.5,547.8125 615.725,547.625 Q615.9375,547.425 616.4375,547.4375 L618.575,542.1125 L617.6875,542.1125 Q617.2,542.1125 616.9875,541.925 Q616.775,541.7375 616.775,541.425 Q616.775,541.125 616.9875,540.9375 Q617.2,540.75 617.6875,540.75 L620.625,540.75 L623.3375,547.4375 Q623.8125,547.4375 623.9625,547.55 Q624.275,547.7625 624.275,548.125 Q624.275,548.425 624.0625,548.6125 Q623.8625,548.8 623.375,548.8 L621.5375,548.8 Q621.05,548.8 620.8375,548.6125 Q620.625,548.425 620.625,548.1125 Q620.625,547.8125 620.8375,547.625 Q621.05,547.4375 621.5375,547.4375 L621.875,547.4375 L621.55,546.6125 Z M620.975,545.25 L619.8875,542.55 L618.7875,545.25 L620.975,545.25 Z " fill="#000000"/><text fill="#000000" font-family="sans-serif" font-size="11.2" font-style="italic" lengthAdjust="spacing" textLength="36.8" x="636.2" y="549.8375">Terrain</text><line style="stroke:#181818;stroke-width:0.4000000000000001;" x1="482" x2="801.2" y1="558" y2="558"/><ellipse cx="490" cy="587.9453" fill="#84BE84" rx="2.4" ry="2.4" style="stroke:#038048;stroke-width:0.8000000000000002;"/><text fill="#000000" font-family="sans-serif" font-size="11.2" lengthAdjust="spacing" textLength="300" x="497.2" y="591.3828">Terrain(double x, double y, double hauteur, double largeur)</text><line style="stroke:#181818;stroke-width:0.8000000000000002;stroke-dasharray:1.0,2.0;" x1="482" x2="608.8" y1="571.8484" y2="571.8484"/><text fill="#000000" font-family="sans-serif" font-size="11.2" lengthAdjust="spacing" textLength="65.6" x="608.8" y="576.0859">Constructeur</text><line style="stroke:#181818;stroke-width:0.8000000000000002;stroke-dasharray:1.0,2.0;" x1="674.4" x2="801.2" y1="571.8484" y2="571.8484"/><ellipse cx="490" cy="620.9391" fill="#84BE84" rx="2.4" ry="2.4" style="stroke:#038048;stroke-width:0.8000000000000002;"/><text fill="#000000" font-family="sans-serif" font-size="11.2" lengthAdjust="spacing" textLength="128" x="497.2" y="624.3766">boolean estTraversable()</text><text fill="#000000" font-family="sans-serif" font-size="11.2" lengthAdjust="spacing" textLength="3.2" x="497.2" y="639.2734">&#160;</text><line style="stroke:#181818;stroke-width:0.8000000000000002;stroke-dasharray:1.0,2.0;" x1="482" x2="616.8" y1="604.8422" y2="604.8422"/><text fill="#000000" font-family="sans-serif" font-size="11.2" lengthAdjust="spacing" textLength="49.6" x="616.8" y="609.0797">M&#233;thodes</text><line style="stroke:#181818;stroke-width:0.8000000000000002;stroke-dasharray:1.0,2.0;" x1="666.4" x2="801.2" y1="604.8422" y2="604.8422"/></g><!--class Mur--><g id="elem_Mur"><rect codeLine="21" fill="#F1F1F1" height="97.9875" id="Mur" rx="2" ry="2" style="stroke:#181818;stroke-width:0.4000000000000001;" width="303.2" x="307.6" y="721.6"/><ellipse cx="446.2" cy="734.4" fill="#ADD1B2" rx="8.8" ry="8.8" style="stroke:#181818;stroke-width:0.8000000000000002;"/><path d="M448.4125,731.1 Q448.5375,730.925 448.6875,730.8375 Q448.8375,730.75 449.0125,730.75 Q449.3125,730.75 449.5,730.9625 Q449.6875,731.1625 449.6875,731.65 L449.6875,732.8125 Q449.6875,733.3 449.5,733.5125 Q449.3125,733.725 449.0125,733.725 Q448.7375,733.725 448.575,733.5625 Q448.4125,733.4125 448.325,733 Q448.2875,732.7125 448.1375,732.5625 Q447.875,732.2625 447.3875,732.0875 Q446.9,731.9125 446.4,731.9125 Q445.7875,731.9125 445.275,732.175 Q444.775,732.4375 444.375,733.0375 Q443.9875,733.6375 443.9875,734.4625 L443.9875,735.3375 Q443.9875,736.325 444.7,736.9875 Q445.4125,737.6375 446.6875,737.6375 Q447.4375,737.6375 447.9625,737.4375 Q448.275,737.3125 448.6125,736.9625 Q448.825,736.75 448.9375,736.6875 Q449.0625,736.625 449.225,736.625 Q449.4875,736.625 449.6875,736.8375 Q449.9,737.0375 449.9,737.3125 Q449.9,737.5875 449.625,737.9125 Q449.225,738.375 448.5875,738.6375 Q447.725,739 446.6875,739 Q445.475,739 444.5125,738.5 Q443.725,738.1 443.175,737.25 Q442.625,736.3875 442.625,735.3625 L442.625,734.4375 Q442.625,733.375 443.1125,732.4625 Q443.6125,731.5375 444.4875,731.05 Q445.3625,730.55 446.35,730.55 Q446.9375,730.55 447.45,730.6875 Q447.975,730.8125 448.4125,731.1 Z " fill="#000000"/><text fill="#000000" font-family="sans-serif" font-size="11.2" lengthAdjust="spacing" textLength="19.2" x="462.6" y="739.0375">Mur</text><line style="stroke:#181818;stroke-width:0.4000000000000001;" x1="308.4" x2="610" y1="747.2" y2="747.2"/><ellipse cx="316.4" cy="777.1453" fill="#84BE84" rx="2.4" ry="2.4" style="stroke:#038048;stroke-width:0.8000000000000002;"/><text fill="#000000" font-family="sans-serif" font-size="11.2" lengthAdjust="spacing" textLength="282.4" x="323.6" y="780.5828">Mur(double x, double y, double hauteur, double largeur)</text><line style="stroke:#181818;stroke-width:0.8000000000000002;stroke-dasharray:1.0,2.0;" x1="308.4" x2="426.4" y1="761.0484" y2="761.0484"/><text fill="#000000" font-family="sans-serif" font-size="11.2" lengthAdjust="spacing" textLength="65.6" x="426.4" y="765.2859">Constructeur</text><line style="stroke:#181818;stroke-width:0.8000000000000002;stroke-dasharray:1.0,2.0;" x1="492" x2="610" y1="761.0484" y2="761.0484"/><ellipse cx="316.4" cy="810.1391" fill="#84BE84" rx="2.4" ry="2.4" style="stroke:#038048;stroke-width:0.8000000000000002;"/><text fill="#000000" font-family="sans-serif" font-size="11.2" lengthAdjust="spacing" textLength="128" x="323.6" y="813.5766">boolean estTraversable()</text><line style="stroke:#181818;stroke-width:0.8000000000000002;stroke-dasharray:1.0,2.0;" x1="308.4" x2="434.4" y1="794.0422" y2="794.0422"/><text fill="#000000" font-family="sans-serif" font-size="11.2" lengthAdjust="spacing" textLength="49.6" x="434.4" y="798.2797">M&#233;thodes</text><line style="stroke:#181818;stroke-width:0.8000000000000002;stroke-dasharray:1.0,2.0;" x1="484" x2="610" y1="794.0422" y2="794.0422"/></g><!--class Personnage--><g id="elem_Personnage"><rect codeLine="29" fill="#F1F1F1" height="127.7813" id="Personnage" rx="2" ry="2" style="stroke:#181818;stroke-width:0.4000000000000001;" width="424.8" x="839.6" y="524.8"/><ellipse cx="1017.8" cy="537.6" fill="#A9DCDF" rx="8.8" ry="8.8" style="stroke:#181818;stroke-width:0.8000000000000002;"/><path d="M1019.55,539.0125 L1016.2375,539.0125 L1015.9,539.8375 L1016.2375,539.8375 Q1016.725,539.8375 1016.9375,540.025 Q1017.15,540.2125 1017.15,540.525 Q1017.15,540.825 1016.9375,541.0125 Q1016.725,541.2 1016.2375,541.2 L1014.4,541.2 Q1013.9125,541.2 1013.7125,541.0125 Q1013.5,540.825 1013.5,540.5125 Q1013.5,540.2125 1013.725,540.025 Q1013.9375,539.825 1014.4375,539.8375 L1016.575,534.5125 L1015.6875,534.5125 Q1015.2,534.5125 1014.9875,534.325 Q1014.775,534.1375 1014.775,533.825 Q1014.775,533.525 1014.9875,533.3375 Q1015.2,533.15 1015.6875,533.15 L1018.625,533.15 L1021.3375,539.8375 Q1021.8125,539.8375 1021.9625,539.95 Q1022.275,540.1625 1022.275,540.525 Q1022.275,540.825 1022.0625,541.0125 Q1021.8625,541.2 1021.375,541.2 L1019.5375,541.2 Q1019.05,541.2 1018.8375,541.0125 Q1018.625,540.825 1018.625,540.5125 Q1018.625,540.2125 1018.8375,540.025 Q1019.05,539.8375 1019.5375,539.8375 L1019.875,539.8375 L1019.55,539.0125 Z M1018.975,537.65 L1017.8875,534.95 L1016.7875,537.65 L1018.975,537.65 Z " fill="#000000"/><text fill="#000000" font-family="sans-serif" font-size="11.2" font-style="italic" lengthAdjust="spacing" textLength="61.6" x="1034.2" y="542.2375">Personnage</text><line style="stroke:#181818;stroke-width:0.4000000000000001;" x1="840.4" x2="1263.6" y1="550.4" y2="550.4"/><polygon fill="none" points="848.4,558.2484,851.6,561.4484,848.4,564.6484,845.2,561.4484" style="stroke:#B38D22;stroke-width:0.8000000000000002;"/><text fill="#000000" font-family="sans-serif" font-size="11.2" lengthAdjust="spacing" textLength="72.8" x="855.6" y="565.6859">double vitesse</text><ellipse cx="848.4" cy="595.2422" fill="#84BE84" rx="2.4" ry="2.4" style="stroke:#038048;stroke-width:0.8000000000000002;"/><text fill="#000000" font-family="sans-serif" font-size="11.2" lengthAdjust="spacing" textLength="404" x="855.6" y="598.6797">Personnage(double x, double y, double largeur, double hauteur, double vitesse)</text><line style="stroke:#181818;stroke-width:0.8000000000000002;stroke-dasharray:1.0,2.0;" x1="840.4" x2="1019.2" y1="579.1453" y2="579.1453"/><text fill="#000000" font-family="sans-serif" font-size="11.2" lengthAdjust="spacing" textLength="65.6" x="1019.2" y="583.3828">Constructeur</text><line style="stroke:#181818;stroke-width:0.8000000000000002;stroke-dasharray:1.0,2.0;" x1="1084.8" x2="1263.6" y1="579.1453" y2="579.1453"/><ellipse cx="848.4" cy="628.2359" fill="#84BE84" rx="2.4" ry="2.4" style="stroke:#038048;stroke-width:0.8000000000000002;"/><text fill="#000000" font-family="sans-serif" font-size="11.2" lengthAdjust="spacing" textLength="336.8" x="855.6" y="631.6734">void d&#233;placer(TypeMouvement typeMouvement, double deltaTime)</text><ellipse cx="848.4" cy="643.1328" fill="#84BE84" rx="2.4" ry="2.4" style="stroke:#038048;stroke-width:0.8000000000000002;"/><text fill="#000000" font-family="sans-serif" font-size="11.2" lengthAdjust="spacing" textLength="110.4" x="855.6" y="646.5703">boolean estUnHeros()</text><line style="stroke:#181818;stroke-width:0.8000000000000002;stroke-dasharray:1.0,2.0;" x1="840.4" x2="1027.2" y1="612.1391" y2="612.1391"/><text fill="#000000" font-family="sans-serif" font-size="11.2" lengthAdjust="spacing" textLength="49.6" x="1027.2" y="616.3766">M&#233;thodes</text><line style="stroke:#181818;stroke-width:0.8000000000000002;stroke-dasharray:1.0,2.0;" x1="1076.8" x2="1263.6" y1="612.1391" y2="612.1391"/></g><!--class TypeMouvement--><g id="elem_TypeMouvement"><rect codeLine="38" fill="#F1F1F1" height="97.9875" id="TypeMouvement" rx="2" ry="2" style="stroke:#181818;stroke-width:0.4000000000000001;" width="109.6" x="874" y="312"/><ellipse cx="886" cy="324.8" fill="#EB937F" rx="8.8" ry="8.8" style="stroke:#181818;stroke-width:0.8000000000000002;"/><path d="M885.0875,325.4375 L885.0875,327.4375 L888.55,327.4375 L888.55,326.7 Q888.55,326.2125 888.7375,326 Q888.9375,325.7875 889.2375,325.7875 Q889.5375,325.7875 889.725,326 Q889.9125,326.2125 889.9125,326.7 L889.9125,328.8 L883.5125,328.8 Q883.0125,328.8 882.8,328.6125 Q882.6,328.425 882.6,328.1125 Q882.6,327.8125 882.8125,327.625 Q883.025,327.4375 883.5125,327.4375 L883.725,327.4375 L883.725,322.1125 L883.5125,322.1125 Q883.0125,322.1125 882.8,321.925 Q882.6,321.7375 882.6,321.425 Q882.6,321.125 882.8,320.9375 Q883.0125,320.75 883.5125,320.75 L889.6125,320.75 L889.6125,322.825 Q889.6125,323.3125 889.425,323.525 Q889.25,323.725 888.9375,323.725 Q888.6375,323.725 888.45,323.525 Q888.2625,323.3125 888.2625,322.825 L888.2625,322.1125 L885.0875,322.1125 L885.0875,324.075 L886.275,324.075 Q886.275,323.55 886.375,323.4 Q886.5875,323.075 886.9625,323.075 Q887.2625,323.075 887.45,323.2875 Q887.6375,323.4875 887.6375,323.975 L887.6375,325.55 Q887.6375,325.9875 887.5375,326.1375 Q887.325,326.45 886.9625,326.45 Q886.5875,326.45 886.375,326.125 Q886.275,325.975 886.275,325.4375 L885.0875,325.4375 Z " fill="#000000"/><text fill="#000000" font-family="sans-serif" font-size="11.2" lengthAdjust="spacing" textLength="84" x="897.2" y="329.4375">TypeMouvement</text><line style="stroke:#181818;stroke-width:0.4000000000000001;" x1="874.8" x2="982.8" y1="337.6" y2="337.6"/><text fill="#000000" font-family="sans-serif" font-size="11.2" lengthAdjust="spacing" textLength="33.6" x="878.8" y="352.8859">RIGHT</text><text fill="#000000" font-family="sans-serif" font-size="11.2" lengthAdjust="spacing" textLength="28" x="878.8" y="367.7828">LEFT</text><text fill="#000000" font-family="sans-serif" font-size="11.2" lengthAdjust="spacing" textLength="23.2" x="878.8" y="382.6797">TOP</text><text fill="#000000" font-family="sans-serif" font-size="11.2" lengthAdjust="spacing" textLength="34.4" x="878.8" y="397.5766">DOWN</text><line style="stroke:#181818;stroke-width:0.4000000000000001;" x1="874.8" x2="982.8" y1="403.5875" y2="403.5875"/></g><!--class Heros--><g id="elem_Heros"><rect codeLine="45" fill="#F1F1F1" height="97.9875" id="Heros" rx="2" ry="2" style="stroke:#181818;stroke-width:0.4000000000000001;" width="313.6" x="639.2" y="721.6"/><ellipse cx="777.8" cy="734.4" fill="#ADD1B2" rx="8.8" ry="8.8" style="stroke:#181818;stroke-width:0.8000000000000002;"/><path d="M780.0125,731.1 Q780.1375,730.925 780.2875,730.8375 Q780.4375,730.75 780.6125,730.75 Q780.9125,730.75 781.1,730.9625 Q781.2875,731.1625 781.2875,731.65 L781.2875,732.8125 Q781.2875,733.3 781.1,733.5125 Q780.9125,733.725 780.6125,733.725 Q780.3375,733.725 780.175,733.5625 Q780.0125,733.4125 779.925,733 Q779.8875,732.7125 779.7375,732.5625 Q779.475,732.2625 778.9875,732.0875 Q778.5,731.9125 778,731.9125 Q777.3875,731.9125 776.875,732.175 Q776.375,732.4375 775.975,733.0375 Q775.5875,733.6375 775.5875,734.4625 L775.5875,735.3375 Q775.5875,736.325 776.3,736.9875 Q777.0125,737.6375 778.2875,737.6375 Q779.0375,737.6375 779.5625,737.4375 Q779.875,737.3125 780.2125,736.9625 Q780.425,736.75 780.5375,736.6875 Q780.6625,736.625 780.825,736.625 Q781.0875,736.625 781.2875,736.8375 Q781.5,737.0375 781.5,737.3125 Q781.5,737.5875 781.225,737.9125 Q780.825,738.375 780.1875,738.6375 Q779.325,739 778.2875,739 Q777.075,739 776.1125,738.5 Q775.325,738.1 774.775,737.25 Q774.225,736.3875 774.225,735.3625 L774.225,734.4375 Q774.225,733.375 774.7125,732.4625 Q775.2125,731.5375 776.0875,731.05 Q776.9625,730.55 777.95,730.55 Q778.5375,730.55 779.05,730.6875 Q779.575,730.8125 780.0125,731.1 Z " fill="#000000"/><text fill="#000000" font-family="sans-serif" font-size="11.2" lengthAdjust="spacing" textLength="29.6" x="794.2" y="739.0375">Heros</text><line style="stroke:#181818;stroke-width:0.4000000000000001;" x1="640" x2="952" y1="747.2" y2="747.2"/><ellipse cx="648" cy="777.1453" fill="#84BE84" rx="2.4" ry="2.4" style="stroke:#038048;stroke-width:0.8000000000000002;"/><text fill="#000000" font-family="sans-serif" font-size="11.2" lengthAdjust="spacing" textLength="292.8" x="655.2" y="780.5828">Heros(double x, double y, double largeur, double hauteur)</text><line style="stroke:#181818;stroke-width:0.8000000000000002;stroke-dasharray:1.0,2.0;" x1="640" x2="763.2" y1="761.0484" y2="761.0484"/><text fill="#000000" font-family="sans-serif" font-size="11.2" lengthAdjust="spacing" textLength="65.6" x="763.2" y="765.2859">Constructeur</text><line style="stroke:#181818;stroke-width:0.8000000000000002;stroke-dasharray:1.0,2.0;" x1="828.8" x2="952" y1="761.0484" y2="761.0484"/><ellipse cx="648" cy="810.1391" fill="#84BE84" rx="2.4" ry="2.4" style="stroke:#038048;stroke-width:0.8000000000000002;"/><text fill="#000000" font-family="sans-serif" font-size="11.2" lengthAdjust="spacing" textLength="110.4" x="655.2" y="813.5766">boolean estUnHeros()</text><line style="stroke:#181818;stroke-width:0.8000000000000002;stroke-dasharray:1.0,2.0;" x1="640" x2="771.2" y1="794.0422" y2="794.0422"/><text fill="#000000" font-family="sans-serif" font-size="11.2" lengthAdjust="spacing" textLength="49.6" x="771.2" y="798.2797">M&#233;thodes</text><line style="stroke:#181818;stroke-width:0.8000000000000002;stroke-dasharray:1.0,2.0;" x1="820.8" x2="952" y1="794.0422" y2="794.0422"/></g><!--class Monstre--><g id="elem_Monstre"><rect codeLine="52" fill="#F1F1F1" height="64.9938" id="Monstre" rx="2" ry="2" style="stroke:#181818;stroke-width:0.4000000000000001;" width="404" x="981.2" y="738"/><ellipse cx="1159" cy="750.8" fill="#A9DCDF" rx="8.8" ry="8.8" style="stroke:#181818;stroke-width:0.8000000000000002;"/><path d="M1160.75,752.2125 L1157.4375,752.2125 L1157.1,753.0375 L1157.4375,753.0375 Q1157.925,753.0375 1158.1375,753.225 Q1158.35,753.4125 1158.35,753.725 Q1158.35,754.025 1158.1375,754.2125 Q1157.925,754.4 1157.4375,754.4 L1155.6,754.4 Q1155.1125,754.4 1154.9125,754.2125 Q1154.7,754.025 1154.7,753.7125 Q1154.7,753.4125 1154.925,753.225 Q1155.1375,753.025 1155.6375,753.0375 L1157.775,747.7125 L1156.8875,747.7125 Q1156.4,747.7125 1156.1875,747.525 Q1155.975,747.3375 1155.975,747.025 Q1155.975,746.725 1156.1875,746.5375 Q1156.4,746.35 1156.8875,746.35 L1159.825,746.35 L1162.5375,753.0375 Q1163.0125,753.0375 1163.1625,753.15 Q1163.475,753.3625 1163.475,753.725 Q1163.475,754.025 1163.2625,754.2125 Q1163.0625,754.4 1162.575,754.4 L1160.7375,754.4 Q1160.25,754.4 1160.0375,754.2125 Q1159.825,754.025 1159.825,753.7125 Q1159.825,753.4125 1160.0375,753.225 Q1160.25,753.0375 1160.7375,753.0375 L1161.075,753.0375 L1160.75,752.2125 Z M1160.175,750.85 L1159.0875,748.15 L1157.9875,750.85 L1160.175,750.85 Z " fill="#000000"/><text fill="#000000" font-family="sans-serif" font-size="11.2" font-style="italic" lengthAdjust="spacing" textLength="41.6" x="1175.4" y="755.4375">Monstre</text><line style="stroke:#181818;stroke-width:0.4000000000000001;" x1="982" x2="1384.4" y1="763.6" y2="763.6"/><ellipse cx="990" cy="793.5453" fill="#84BE84" rx="2.4" ry="2.4" style="stroke:#038048;stroke-width:0.8000000000000002;"/><text fill="#000000" font-family="sans-serif" font-size="11.2" lengthAdjust="spacing" textLength="383.2" x="997.2" y="796.9828">Monstre(double x, double y, double largeur, double hauteur, double vitesse)</text><line style="stroke:#181818;stroke-width:0.8000000000000002;stroke-dasharray:1.0,2.0;" x1="982" x2="1150.4" y1="777.4484" y2="777.4484"/><text fill="#000000" font-family="sans-serif" font-size="11.2" lengthAdjust="spacing" textLength="65.6" x="1150.4" y="781.6859">Constructeur</text><line style="stroke:#181818;stroke-width:0.8000000000000002;stroke-dasharray:1.0,2.0;" x1="1216" x2="1384.4" y1="777.4484" y2="777.4484"/></g><!--class Walker--><g id="elem_Walker"><rect codeLine="57" fill="#F1F1F1" height="64.9938" id="Walker" rx="2" ry="2" style="stroke:#181818;stroke-width:0.4000000000000001;" width="319.2" x="1023.6" y="888"/><ellipse cx="1162.2" cy="900.8" fill="#ADD1B2" rx="8.8" ry="8.8" style="stroke:#181818;stroke-width:0.8000000000000002;"/><path d="M1164.4125,897.5 Q1164.5375,897.325 1164.6875,897.2375 Q1164.8375,897.15 1165.0125,897.15 Q1165.3125,897.15 1165.5,897.3625 Q1165.6875,897.5625 1165.6875,898.05 L1165.6875,899.2125 Q1165.6875,899.7 1165.5,899.9125 Q1165.3125,900.125 1165.0125,900.125 Q1164.7375,900.125 1164.575,899.9625 Q1164.4125,899.8125 1164.325,899.4 Q1164.2875,899.1125 1164.1375,898.9625 Q1163.875,898.6625 1163.3875,898.4875 Q1162.9,898.3125 1162.4,898.3125 Q1161.7875,898.3125 1161.275,898.575 Q1160.775,898.8375 1160.375,899.4375 Q1159.9875,900.0375 1159.9875,900.8625 L1159.9875,901.7375 Q1159.9875,902.725 1160.7,903.3875 Q1161.4125,904.0375 1162.6875,904.0375 Q1163.4375,904.0375 1163.9625,903.8375 Q1164.275,903.7125 1164.6125,903.3625 Q1164.825,903.15 1164.9375,903.0875 Q1165.0625,903.025 1165.225,903.025 Q1165.4875,903.025 1165.6875,903.2375 Q1165.9,903.4375 1165.9,903.7125 Q1165.9,903.9875 1165.625,904.3125 Q1165.225,904.775 1164.5875,905.0375 Q1163.725,905.4 1162.6875,905.4 Q1161.475,905.4 1160.5125,904.9 Q1159.725,904.5 1159.175,903.65 Q1158.625,902.7875 1158.625,901.7625 L1158.625,900.8375 Q1158.625,899.775 1159.1125,898.8625 Q1159.6125,897.9375 1160.4875,897.45 Q1161.3625,896.95 1162.35,896.95 Q1162.9375,896.95 1163.45,897.0875 Q1163.975,897.2125 1164.4125,897.5 Z " fill="#000000"/><text fill="#000000" font-family="sans-serif" font-size="11.2" lengthAdjust="spacing" textLength="35.2" x="1178.6" y="905.4375">Walker</text><line style="stroke:#181818;stroke-width:0.4000000000000001;" x1="1024.4" x2="1342" y1="913.6" y2="913.6"/><ellipse cx="1032.4" cy="943.5453" fill="#84BE84" rx="2.4" ry="2.4" style="stroke:#038048;stroke-width:0.8000000000000002;"/><text fill="#000000" font-family="sans-serif" font-size="11.2" lengthAdjust="spacing" textLength="298.4" x="1039.6" y="946.9828">Walker(double x, double y, double largeur, double hauteur)</text><line style="stroke:#181818;stroke-width:0.8000000000000002;stroke-dasharray:1.0,2.0;" x1="1024.4" x2="1150.4" y1="927.4484" y2="927.4484"/><text fill="#000000" font-family="sans-serif" font-size="11.2" lengthAdjust="spacing" textLength="65.6" x="1150.4" y="931.6859">Constructeur</text><line style="stroke:#181818;stroke-width:0.8000000000000002;stroke-dasharray:1.0,2.0;" x1="1216" x2="1342" y1="927.4484" y2="927.4484"/></g><!--class Monde--><g id="elem_Monde"><rect codeLine="62" fill="#F1F1F1" height="232.0594" id="Monde" rx="2" ry="2" style="stroke:#181818;stroke-width:0.4000000000000001;" width="408" x="437.6" y="244.8"/><ellipse cx="621" cy="257.6" fill="#ADD1B2" rx="8.8" ry="8.8" style="stroke:#181818;stroke-width:0.8000000000000002;"/><path d="M623.2125,254.3 Q623.3375,254.125 623.4875,254.0375 Q623.6375,253.95 623.8125,253.95 Q624.1125,253.95 624.3,254.1625 Q624.4875,254.3625 624.4875,254.85 L624.4875,256.0125 Q624.4875,256.5 624.3,256.7125 Q624.1125,256.925 623.8125,256.925 Q623.5375,256.925 623.375,256.7625 Q623.2125,256.6125 623.125,256.2 Q623.0875,255.9125 622.9375,255.7625 Q622.675,255.4625 622.1875,255.2875 Q621.7,255.1125 621.2,255.1125 Q620.5875,255.1125 620.075,255.375 Q619.575,255.6375 619.175,256.2375 Q618.7875,256.8375 618.7875,257.6625 L618.7875,258.5375 Q618.7875,259.525 619.5,260.1875 Q620.2125,260.8375 621.4875,260.8375 Q622.2375,260.8375 622.7625,260.6375 Q623.075,260.5125 623.4125,260.1625 Q623.625,259.95 623.7375,259.8875 Q623.8625,259.825 624.025,259.825 Q624.2875,259.825 624.4875,260.0375 Q624.7,260.2375 624.7,260.5125 Q624.7,260.7875 624.425,261.1125 Q624.025,261.575 623.3875,261.8375 Q622.525,262.2 621.4875,262.2 Q620.275,262.2 619.3125,261.7 Q618.525,261.3 617.975,260.45 Q617.425,259.5875 617.425,258.5625 L617.425,257.6375 Q617.425,256.575 617.9125,255.6625 Q618.4125,254.7375 619.2875,254.25 Q620.1625,253.75 621.15,253.75 Q621.7375,253.75 622.25,253.8875 Q622.775,254.0125 623.2125,254.3 Z " fill="#000000"/><text fill="#000000" font-family="sans-serif" font-size="11.2" lengthAdjust="spacing" textLength="34.4" x="637.4" y="262.2375">Monde</text><line style="stroke:#181818;stroke-width:0.4000000000000001;" x1="438.4" x2="844.8" y1="270.4" y2="270.4"/><polygon fill="none" points="446.4,278.2484,449.6,281.4484,446.4,284.6484,443.2,281.4484" style="stroke:#B38D22;stroke-width:0.8000000000000002;"/><text fill="#000000" font-family="sans-serif" font-size="11.2" lengthAdjust="spacing" textLength="56" x="453.6" y="285.6859">int nbLigne</text><polygon fill="none" points="446.4,293.1453,449.6,296.3453,446.4,299.5453,443.2,296.3453" style="stroke:#B38D22;stroke-width:0.8000000000000002;"/><text fill="#000000" font-family="sans-serif" font-size="11.2" lengthAdjust="spacing" textLength="44.8" x="453.6" y="300.5828">int nbCol</text><ellipse cx="446.4" cy="330.1391" fill="#84BE84" rx="2.4" ry="2.4" style="stroke:#038048;stroke-width:0.8000000000000002;"/><text fill="#000000" font-family="sans-serif" font-size="11.2" lengthAdjust="spacing" textLength="42.4" x="453.6" y="333.5766">Monde()</text><line style="stroke:#181818;stroke-width:0.8000000000000002;stroke-dasharray:1.0,2.0;" x1="438.4" x2="608.8" y1="314.0422" y2="314.0422"/><text fill="#000000" font-family="sans-serif" font-size="11.2" lengthAdjust="spacing" textLength="65.6" x="608.8" y="318.2797">Constructeur</text><line style="stroke:#181818;stroke-width:0.8000000000000002;stroke-dasharray:1.0,2.0;" x1="674.4" x2="844.8" y1="314.0422" y2="314.0422"/><ellipse cx="446.4" cy="363.1328" fill="#84BE84" rx="2.4" ry="2.4" style="stroke:#038048;stroke-width:0.8000000000000002;"/><text fill="#000000" font-family="sans-serif" font-size="11.2" lengthAdjust="spacing" textLength="280.8" x="453.6" y="366.5703">boolean collision(ElementMonde e1, ElementMonde e2)</text><ellipse cx="446.4" cy="378.0297" fill="#84BE84" rx="2.4" ry="2.4" style="stroke:#038048;stroke-width:0.8000000000000002;"/><text fill="#000000" font-family="sans-serif" font-size="11.2" lengthAdjust="spacing" textLength="86.4" x="453.6" y="381.4672">Heros getHeros()</text><ellipse cx="446.4" cy="392.9266" fill="#84BE84" rx="2.4" ry="2.4" style="stroke:#038048;stroke-width:0.8000000000000002;"/><text fill="#000000" font-family="sans-serif" font-size="11.2" lengthAdjust="spacing" textLength="387.2" x="453.6" y="396.3641">void deplacementHeros(TypeMouvement typeMouvement, double deltaTime)</text><ellipse cx="446.4" cy="407.8234" fill="#84BE84" rx="2.4" ry="2.4" style="stroke:#038048;stroke-width:0.8000000000000002;"/><text fill="#000000" font-family="sans-serif" font-size="11.2" lengthAdjust="spacing" textLength="143.2" x="453.6" y="411.2609">void deplacementMonstres()</text><ellipse cx="446.4" cy="422.7203" fill="#84BE84" rx="2.4" ry="2.4" style="stroke:#038048;stroke-width:0.8000000000000002;"/><text fill="#000000" font-family="sans-serif" font-size="11.2" lengthAdjust="spacing" textLength="136.8" x="453.6" y="426.1578">void addTerrains(Terrain t)</text><ellipse cx="446.4" cy="437.6172" fill="#84BE84" rx="2.4" ry="2.4" style="stroke:#038048;stroke-width:0.8000000000000002;"/><text fill="#000000" font-family="sans-serif" font-size="11.2" lengthAdjust="spacing" textLength="184" x="453.6" y="441.0547">void addPersonnage(Personnage p)</text><ellipse cx="446.4" cy="452.5141" fill="#84BE84" rx="2.4" ry="2.4" style="stroke:#038048;stroke-width:0.8000000000000002;"/><text fill="#000000" font-family="sans-serif" font-size="11.2" lengthAdjust="spacing" textLength="91.2" x="453.6" y="455.9516">void updateData()</text><ellipse cx="446.4" cy="467.4109" fill="#84BE84" rx="2.4" ry="2.4" style="stroke:#038048;stroke-width:0.8000000000000002;"/><text fill="#000000" font-family="sans-serif" font-size="11.2" lengthAdjust="spacing" textLength="157.6" x="453.6" y="470.8484">void chargerCarte(String carte)</text><line style="stroke:#181818;stroke-width:0.8000000000000002;stroke-dasharray:1.0,2.0;" x1="438.4" x2="616.8" y1="347.0359" y2="347.0359"/><text fill="#000000" font-family="sans-serif" font-size="11.2" lengthAdjust="spacing" textLength="49.6" x="616.8" y="351.2734">M&#233;thodes</text><line style="stroke:#181818;stroke-width:0.8000000000000002;stroke-dasharray:1.0,2.0;" x1="666.4" x2="844.8" y1="347.0359" y2="347.0359"/></g><!--class Donnees--><g id="elem_Donnees"><rect codeLine="80" fill="#F1F1F1" height="112.8844" id="Donnees" rx="2" ry="2" style="stroke:#181818;stroke-width:0.4000000000000001;" width="186.4" x="56.4" y="304.4"/><ellipse cx="123.4" cy="317.2" fill="#ADD1B2" rx="8.8" ry="8.8" style="stroke:#181818;stroke-width:0.8000000000000002;"/><path d="M125.6125,313.9 Q125.7375,313.725 125.8875,313.6375 Q126.0375,313.55 126.2125,313.55 Q126.5125,313.55 126.7,313.7625 Q126.8875,313.9625 126.8875,314.45 L126.8875,315.6125 Q126.8875,316.1 126.7,316.3125 Q126.5125,316.525 126.2125,316.525 Q125.9375,316.525 125.775,316.3625 Q125.6125,316.2125 125.525,315.8 Q125.4875,315.5125 125.3375,315.3625 Q125.075,315.0625 124.5875,314.8875 Q124.1,314.7125 123.6,314.7125 Q122.9875,314.7125 122.475,314.975 Q121.975,315.2375 121.575,315.8375 Q121.1875,316.4375 121.1875,317.2625 L121.1875,318.1375 Q121.1875,319.125 121.9,319.7875 Q122.6125,320.4375 123.8875,320.4375 Q124.6375,320.4375 125.1625,320.2375 Q125.475,320.1125 125.8125,319.7625 Q126.025,319.55 126.1375,319.4875 Q126.2625,319.425 126.425,319.425 Q126.6875,319.425 126.8875,319.6375 Q127.1,319.8375 127.1,320.1125 Q127.1,320.3875 126.825,320.7125 Q126.425,321.175 125.7875,321.4375 Q124.925,321.8 123.8875,321.8 Q122.675,321.8 121.7125,321.3 Q120.925,320.9 120.375,320.05 Q119.825,319.1875 119.825,318.1625 L119.825,317.2375 Q119.825,316.175 120.3125,315.2625 Q120.8125,314.3375 121.6875,313.85 Q122.5625,313.35 123.55,313.35 Q124.1375,313.35 124.65,313.4875 Q125.175,313.6125 125.6125,313.9 Z " fill="#000000"/><text fill="#000000" font-family="sans-serif" font-size="11.2" lengthAdjust="spacing" textLength="45.6" x="139.8" y="321.8375">Donnees</text><line style="stroke:#181818;stroke-width:0.4000000000000001;" x1="57.2" x2="242" y1="330" y2="330"/><ellipse cx="65.2" cy="341.8484" fill="none" rx="2.4" ry="2.4" style="stroke:#038048;stroke-width:0.8000000000000002;"/><text fill="#000000" font-family="sans-serif" font-size="11.2" lengthAdjust="spacing" text-decoration="underline" textLength="165.6" x="72.4" y="345.2859">int WINDOW_DEFAULT_HEIGHT</text><ellipse cx="65.2" cy="356.7453" fill="none" rx="2.4" ry="2.4" style="stroke:#038048;stroke-width:0.8000000000000002;"/><text fill="#000000" font-family="sans-serif" font-size="11.2" lengthAdjust="spacing" text-decoration="underline" textLength="160.8" x="72.4" y="360.1828">int WINDOW_DEFAULT_WIDTH</text><ellipse cx="65.2" cy="371.6422" fill="none" rx="2.4" ry="2.4" style="stroke:#038048;stroke-width:0.8000000000000002;"/><text fill="#000000" font-family="sans-serif" font-size="11.2" lengthAdjust="spacing" text-decoration="underline" textLength="103.2" x="72.4" y="375.0797">int WORLD_HEIGHT</text><ellipse cx="65.2" cy="386.5391" fill="none" rx="2.4" ry="2.4" style="stroke:#038048;stroke-width:0.8000000000000002;"/><text fill="#000000" font-family="sans-serif" font-size="11.2" lengthAdjust="spacing" text-decoration="underline" textLength="98.4" x="72.4" y="389.9766">int WORLD_WIDTH</text><text fill="#000000" font-family="sans-serif" font-size="11.2" lengthAdjust="spacing" textLength="9.6" x="72.4" y="404.8734">...</text><line style="stroke:#181818;stroke-width:0.4000000000000001;" x1="57.2" x2="242" y1="410.8844" y2="410.8844"/></g><!--class GestionFichier--><g id="elem_GestionFichier"><rect codeLine="88" fill="#F1F1F1" height="97.9875" id="GestionFichier" rx="2" ry="2" style="stroke:#181818;stroke-width:0.4000000000000001;" width="225.6" x="36.8" y="540"/><ellipse cx="109.4" cy="552.8" fill="#ADD1B2" rx="8.8" ry="8.8" style="stroke:#181818;stroke-width:0.8000000000000002;"/><path d="M111.6125,549.5 Q111.7375,549.325 111.8875,549.2375 Q112.0375,549.15 112.2125,549.15 Q112.5125,549.15 112.7,549.3625 Q112.8875,549.5625 112.8875,550.05 L112.8875,551.2125 Q112.8875,551.7 112.7,551.9125 Q112.5125,552.125 112.2125,552.125 Q111.9375,552.125 111.775,551.9625 Q111.6125,551.8125 111.525,551.4 Q111.4875,551.1125 111.3375,550.9625 Q111.075,550.6625 110.5875,550.4875 Q110.1,550.3125 109.6,550.3125 Q108.9875,550.3125 108.475,550.575 Q107.975,550.8375 107.575,551.4375 Q107.1875,552.0375 107.1875,552.8625 L107.1875,553.7375 Q107.1875,554.725 107.9,555.3875 Q108.6125,556.0375 109.8875,556.0375 Q110.6375,556.0375 111.1625,555.8375 Q111.475,555.7125 111.8125,555.3625 Q112.025,555.15 112.1375,555.0875 Q112.2625,555.025 112.425,555.025 Q112.6875,555.025 112.8875,555.2375 Q113.1,555.4375 113.1,555.7125 Q113.1,555.9875 112.825,556.3125 Q112.425,556.775 111.7875,557.0375 Q110.925,557.4 109.8875,557.4 Q108.675,557.4 107.7125,556.9 Q106.925,556.5 106.375,555.65 Q105.825,554.7875 105.825,553.7625 L105.825,552.8375 Q105.825,551.775 106.3125,550.8625 Q106.8125,549.9375 107.6875,549.45 Q108.5625,548.95 109.55,548.95 Q110.1375,548.95 110.65,549.0875 Q111.175,549.2125 111.6125,549.5 Z " fill="#000000"/><text fill="#000000" font-family="sans-serif" font-size="11.2" lengthAdjust="spacing" textLength="73.6" x="125.8" y="557.4375">GestionFichier</text><line style="stroke:#181818;stroke-width:0.4000000000000001;" x1="37.6" x2="261.6" y1="565.6" y2="565.6"/><ellipse cx="45.6" cy="595.5453" fill="#84BE84" rx="2.4" ry="2.4" style="stroke:#038048;stroke-width:0.8000000000000002;"/><text fill="#000000" font-family="sans-serif" font-size="11.2" lengthAdjust="spacing" textLength="81.6" x="52.8" y="598.9828">GestionFichier()</text><line style="stroke:#181818;stroke-width:0.8000000000000002;stroke-dasharray:1.0,2.0;" x1="37.6" x2="116.8" y1="579.4484" y2="579.4484"/><text fill="#000000" font-family="sans-serif" font-size="11.2" lengthAdjust="spacing" textLength="65.6" x="116.8" y="583.6859">Constructeur</text><line style="stroke:#181818;stroke-width:0.8000000000000002;stroke-dasharray:1.0,2.0;" x1="182.4" x2="261.6" y1="579.4484" y2="579.4484"/><ellipse cx="45.6" cy="628.5391" fill="#84BE84" rx="2.4" ry="2.4" style="stroke:#038048;stroke-width:0.8000000000000002;"/><text fill="#000000" font-family="sans-serif" font-size="11.2" lengthAdjust="spacing" textLength="204.8" x="52.8" y="631.9766">char[] lireFichierCarte(string nomFichier)</text><line style="stroke:#181818;stroke-width:0.8000000000000002;stroke-dasharray:1.0,2.0;" x1="37.6" x2="124.8" y1="612.4422" y2="612.4422"/><text fill="#000000" font-family="sans-serif" font-size="11.2" lengthAdjust="spacing" textLength="49.6" x="124.8" y="616.6797">M&#233;thodes</text><line style="stroke:#181818;stroke-width:0.8000000000000002;stroke-dasharray:1.0,2.0;" x1="174.4" x2="261.6" y1="612.4422" y2="612.4422"/></g><!--class Resources--><g id="elem_Resources"><rect codeLine="95" fill="#F1F1F1" height="139.4781" id="Resources" rx="2" ry="2" style="stroke:#181818;stroke-width:0.4000000000000001;" width="216.8" x="41.2" y="700.8"/><ellipse cx="119" cy="713.6" fill="#ADD1B2" rx="8.8" ry="8.8" style="stroke:#181818;stroke-width:0.8000000000000002;"/><path d="M121.2125,710.3 Q121.3375,710.125 121.4875,710.0375 Q121.6375,709.95 121.8125,709.95 Q122.1125,709.95 122.3,710.1625 Q122.4875,710.3625 122.4875,710.85 L122.4875,712.0125 Q122.4875,712.5 122.3,712.7125 Q122.1125,712.925 121.8125,712.925 Q121.5375,712.925 121.375,712.7625 Q121.2125,712.6125 121.125,712.2 Q121.0875,711.9125 120.9375,711.7625 Q120.675,711.4625 120.1875,711.2875 Q119.7,711.1125 119.2,711.1125 Q118.5875,711.1125 118.075,711.375 Q117.575,711.6375 117.175,712.2375 Q116.7875,712.8375 116.7875,713.6625 L116.7875,714.5375 Q116.7875,715.525 117.5,716.1875 Q118.2125,716.8375 119.4875,716.8375 Q120.2375,716.8375 120.7625,716.6375 Q121.075,716.5125 121.4125,716.1625 Q121.625,715.95 121.7375,715.8875 Q121.8625,715.825 122.025,715.825 Q122.2875,715.825 122.4875,716.0375 Q122.7,716.2375 122.7,716.5125 Q122.7,716.7875 122.425,717.1125 Q122.025,717.575 121.3875,717.8375 Q120.525,718.2 119.4875,718.2 Q118.275,718.2 117.3125,717.7 Q116.525,717.3 115.975,716.45 Q115.425,715.5875 115.425,714.5625 L115.425,713.6375 Q115.425,712.575 115.9125,711.6625 Q116.4125,710.7375 117.2875,710.25 Q118.1625,709.75 119.15,709.75 Q119.7375,709.75 120.25,709.8875 Q120.775,710.0125 121.2125,710.3 Z " fill="#000000"/><text fill="#000000" font-family="sans-serif" font-size="11.2" lengthAdjust="spacing" textLength="54.4" x="135.4" y="718.2375">Resources</text><line style="stroke:#181818;stroke-width:0.4000000000000001;" x1="42" x2="257.2" y1="726.4" y2="726.4"/><rect fill="none" height="4.8" style="stroke:#C82930;stroke-width:0.8000000000000002;" width="4.8" x="47.6" y="735.8484"/><text fill="#000000" font-family="sans-serif" font-size="11.2" lengthAdjust="spacing" text-decoration="underline" textLength="136.8" x="57.2" y="741.6859">Map&lt;String, Image&gt; assets</text><ellipse cx="50" cy="771.2422" fill="#84BE84" rx="2.4" ry="2.4" style="stroke:#038048;stroke-width:0.8000000000000002;"/><text fill="#000000" font-family="sans-serif" font-size="11.2" lengthAdjust="spacing" text-decoration="underline" textLength="104" x="57.2" y="774.6797">URL get(String path)</text><ellipse cx="50" cy="786.1391" fill="#84BE84" rx="2.4" ry="2.4" style="stroke:#038048;stroke-width:0.8000000000000002;"/><text fill="#000000" font-family="sans-serif" font-size="11.2" lengthAdjust="spacing" text-decoration="underline" textLength="196" x="57.2" y="789.5766">InputStream getAsStream(String path)}</text><ellipse cx="50" cy="801.0359" fill="#84BE84" rx="2.4" ry="2.4" style="stroke:#038048;stroke-width:0.8000000000000002;"/><text fill="#000000" font-family="sans-serif" font-size="11.2" lengthAdjust="spacing" text-decoration="underline" textLength="140.8" x="57.2" y="804.4734">Image getAsset(String path)</text><ellipse cx="50" cy="815.9328" fill="#84BE84" rx="2.4" ry="2.4" style="stroke:#038048;stroke-width:0.8000000000000002;"/><text fill="#000000" font-family="sans-serif" font-size="11.2" lengthAdjust="spacing" text-decoration="underline" textLength="168.8" x="57.2" y="819.3703">ResourceBundle getI18NBundle()</text><ellipse cx="50" cy="830.8297" fill="#84BE84" rx="2.4" ry="2.4" style="stroke:#038048;stroke-width:0.8000000000000002;"/><text fill="#000000" font-family="sans-serif" font-size="11.2" lengthAdjust="spacing" text-decoration="underline" textLength="159.2" x="57.2" y="834.2672">String getI18NString(String key)</text><line style="stroke:#181818;stroke-width:0.8000000000000002;stroke-dasharray:1.0,2.0;" x1="42" x2="124.8" y1="755.1453" y2="755.1453"/><text fill="#000000" font-family="sans-serif" font-size="11.2" lengthAdjust="spacing" textLength="49.6" x="124.8" y="759.3828">M&#233;thodes</text><line style="stroke:#181818;stroke-width:0.8000000000000002;stroke-dasharray:1.0,2.0;" x1="174.4" x2="257.2" y1="755.1453" y2="755.1453"/></g><!--class Sprite--><g id="elem_Sprite"><rect codeLine="107" fill="#F1F1F1" height="38.4" id="Sprite" rx="2" ry="2" style="stroke:#181818;stroke-width:0.4000000000000001;" width="55.2" x="1443.6" y="569.6"/><ellipse cx="1455.6" cy="582.4" fill="#ADD1B2" rx="8.8" ry="8.8" style="stroke:#181818;stroke-width:0.8000000000000002;"/><path d="M1457.8125,579.1 Q1457.9375,578.925 1458.0875,578.8375 Q1458.2375,578.75 1458.4125,578.75 Q1458.7125,578.75 1458.9,578.9625 Q1459.0875,579.1625 1459.0875,579.65 L1459.0875,580.8125 Q1459.0875,581.3 1458.9,581.5125 Q1458.7125,581.725 1458.4125,581.725 Q1458.1375,581.725 1457.975,581.5625 Q1457.8125,581.4125 1457.725,581 Q1457.6875,580.7125 1457.5375,580.5625 Q1457.275,580.2625 1456.7875,580.0875 Q1456.3,579.9125 1455.8,579.9125 Q1455.1875,579.9125 1454.675,580.175 Q1454.175,580.4375 1453.775,581.0375 Q1453.3875,581.6375 1453.3875,582.4625 L1453.3875,583.3375 Q1453.3875,584.325 1454.1,584.9875 Q1454.8125,585.6375 1456.0875,585.6375 Q1456.8375,585.6375 1457.3625,585.4375 Q1457.675,585.3125 1458.0125,584.9625 Q1458.225,584.75 1458.3375,584.6875 Q1458.4625,584.625 1458.625,584.625 Q1458.8875,584.625 1459.0875,584.8375 Q1459.3,585.0375 1459.3,585.3125 Q1459.3,585.5875 1459.025,585.9125 Q1458.625,586.375 1457.9875,586.6375 Q1457.125,587 1456.0875,587 Q1454.875,587 1453.9125,586.5 Q1453.125,586.1 1452.575,585.25 Q1452.025,584.3875 1452.025,583.3625 L1452.025,582.4375 Q1452.025,581.375 1452.5125,580.4625 Q1453.0125,579.5375 1453.8875,579.05 Q1454.7625,578.55 1455.75,578.55 Q1456.3375,578.55 1456.85,578.6875 Q1457.375,578.8125 1457.8125,579.1 Z " fill="#000000"/><text fill="#000000" font-family="sans-serif" font-size="11.2" lengthAdjust="spacing" textLength="29.6" x="1466.8" y="587.0375">Sprite</text><line style="stroke:#181818;stroke-width:0.4000000000000001;" x1="1444.4" x2="1498" y1="595.2" y2="595.2"/><line style="stroke:#181818;stroke-width:0.4000000000000001;" x1="1444.4" x2="1498" y1="601.6" y2="601.6"/></g><!--class GameController--><g id="elem_GameController"><rect codeLine="111" fill="#F1F1F1" height="38.4" id="GameController" rx="2" ry="2" style="stroke:#181818;stroke-width:0.4000000000000001;" width="105.6" x="1350.4" y="132"/><ellipse cx="1362.4" cy="144.8" fill="#A9DCDF" rx="8.8" ry="8.8" style="stroke:#181818;stroke-width:0.8000000000000002;"/><path d="M1364.15,146.2125 L1360.8375,146.2125 L1360.5,147.0375 L1360.8375,147.0375 Q1361.325,147.0375 1361.5375,147.225 Q1361.75,147.4125 1361.75,147.725 Q1361.75,148.025 1361.5375,148.2125 Q1361.325,148.4 1360.8375,148.4 L1359,148.4 Q1358.5125,148.4 1358.3125,148.2125 Q1358.1,148.025 1358.1,147.7125 Q1358.1,147.4125 1358.325,147.225 Q1358.5375,147.025 1359.0375,147.0375 L1361.175,141.7125 L1360.2875,141.7125 Q1359.8,141.7125 1359.5875,141.525 Q1359.375,141.3375 1359.375,141.025 Q1359.375,140.725 1359.5875,140.5375 Q1359.8,140.35 1360.2875,140.35 L1363.225,140.35 L1365.9375,147.0375 Q1366.4125,147.0375 1366.5625,147.15 Q1366.875,147.3625 1366.875,147.725 Q1366.875,148.025 1366.6625,148.2125 Q1366.4625,148.4 1365.975,148.4 L1364.1375,148.4 Q1363.65,148.4 1363.4375,148.2125 Q1363.225,148.025 1363.225,147.7125 Q1363.225,147.4125 1363.4375,147.225 Q1363.65,147.0375 1364.1375,147.0375 L1364.475,147.0375 L1364.15,146.2125 Z M1363.575,144.85 L1362.4875,142.15 L1361.3875,144.85 L1363.575,144.85 Z " fill="#000000"/><text fill="#000000" font-family="sans-serif" font-size="11.2" font-style="italic" lengthAdjust="spacing" textLength="80" x="1373.6" y="149.4375">GameController</text><line style="stroke:#181818;stroke-width:0.4000000000000001;" x1="1351.2" x2="1455.2" y1="157.6" y2="157.6"/><line style="stroke:#181818;stroke-width:0.4000000000000001;" x1="1351.2" x2="1455.2" y1="164" y2="164"/></g><g id="elem_N_gui"><path d="M1378.8,4.8 L1378.8,40.4656 L1632.4,40.4656 L1632.4,12.8 L1624.4,4.8 L1378.8,4.8 " fill="#FEFFDD" style="stroke:#181818;stroke-width:0.4000000000000001;"/><path d="M1624.4,4.8 L1624.4,12.8 L1632.4,12.8 L1624.4,4.8 " fill="#FEFFDD" style="stroke:#181818;stroke-width:0.8000000000000002;"/><text fill="#000000" font-family="sans-serif" font-size="10.4" lengthAdjust="spacing" textLength="72.8" x="1383.6" y="20.0227">Voir diagramme</text><text fill="#000000" font-family="sans-serif" font-size="10.4" font-style="italic" lengthAdjust="spacing" textLength="41.6" x="1459.6" y="20.0227">class-gui</text><text fill="#000000" font-family="sans-serif" font-size="10.4" lengthAdjust="spacing" textLength="86.4" x="1504.4" y="20.0227">pour en savoir plus</text><text fill="#000000" font-family="sans-serif" font-size="10.4" lengthAdjust="spacing" textLength="236.8" x="1383.6" y="33.8555">sur ces packages et les classes qu'ils contiennent.</text></g><!--link N_gui to engine--><g id="link_N_gui_engine"><path codeLine="123" d="M1502.64,40.968 C1499.728,58.06 1495.168,84.836 1491.287,107.623 C1491.0444,109.0472 1490.8045,110.4558 1490.5678,111.8455 C1490.5383,112.0192 1490.5087,112.1926 1490.4792,112.3657 " fill="none" id="N_gui-engine" style="stroke:#181818;stroke-width:0.8000000000000002;stroke-dasharray:7.0,7.0;"/></g><!--link N_gui to gui--><g id="link_N_gui_gui"><path codeLine="124" d="M1506.272,41.112 C1508.08,88.372 1513.244,223.336 1517.99,347.354 C1520.363,409.363 1522.6315,468.6355 1524.3238,512.8403 C1524.5353,518.3658 1524.7378,523.656 1524.9304,528.6866 C1524.9786,529.9443 1525.0261,531.1857 1525.073,532.4106 " fill="none" id="N_gui-gui" style="stroke:#181818;stroke-width:0.8000000000000002;stroke-dasharray:7.0,7.0;"/></g><!--reverse link GestionFichier to Resources--><!--reverse link Donnees to GestionFichier--><!--link engine to gui--><!--link GameController to Monde--><g id="link_GameController_Monde"><path codeLine="133" d="M1388.744,170.568 C1378.536,182.096 1363.768,195.92 1347.2,202.4 C1321.992,212.264 885.784,200.56 860,208.8 C833.64,217.224 807.648,230.008 783.28,244.64 " fill="none" id="GameController-Monde" style="stroke:#181818;stroke-width:0.8000000000000002;"/><text fill="#000000" font-family="sans-serif" font-size="10.4" lengthAdjust="spacing" textLength="5.6" x="784.841" y="235.927">1</text></g><!--reverse link ElementMonde to Personnage--><g id="link_ElementMonde_Personnage"><path codeLine="134" d="M1058.5785,444.8328 C1057.2025,474.7528 1056.264,495.2 1054.92,524.496 " fill="none" id="ElementMonde-backto-Personnage" style="stroke:#181818;stroke-width:0.8000000000000002;"/><polygon fill="none" points="1059.24,430.448,1053.7835,444.6123,1063.3734,445.0533,1059.24,430.448" style="stroke:#181818;stroke-width:0.8000000000000002;"/></g><!--reverse link Personnage to Heros--><g id="link_Personnage_Heros"><path codeLine="135" d="M950.3247,661.091 C918.1967,683.683 894.328,700.464 864.312,721.568 " fill="none" id="Personnage-backto-Heros" style="stroke:#181818;stroke-width:0.8000000000000002;"/><polygon fill="none" points="962.104,652.808,947.5637,657.1646,953.0857,665.0175,962.104,652.808" style="stroke:#181818;stroke-width:0.8000000000000002;"/></g><!--reverse link Personnage to Monstre--><g id="link_Personnage_Monstre"><path codeLine="136" d="M1106.5538,664.445 C1127.5218,693.213 1142.936,714.368 1160.064,737.864 " fill="none" id="Personnage-backto-Monstre" style="stroke:#181818;stroke-width:0.8000000000000002;"/><polygon fill="none" points="1098.072,652.808,1102.6748,667.2722,1110.4328,661.6177,1098.072,652.808" style="stroke:#181818;stroke-width:0.8000000000000002;"/></g><!--reverse link Monstre to Walker--><g id="link_Monstre_Walker"><path codeLine="137" d="M1183.2,817.432 C1183.2,842.472 1183.2,862.792 1183.2,887.816 " fill="none" id="Monstre-backto-Walker" style="stroke:#181818;stroke-width:0.8000000000000002;"/><polygon fill="none" points="1183.2,803.032,1178.4,817.432,1188,817.432,1183.2,803.032" style="stroke:#181818;stroke-width:0.8000000000000002;"/></g><!--reverse link ElementMonde to Terrain--><g id="link_ElementMonde_Terrain"><path codeLine="139" d="M1028.3026,443.2055 C1018.6706,460.4135 1013.256,464.784 997.6,476.8 C935,524.832 900.976,497.456 825.6,520.8 C813.984,524.4 802.024,528.296 790.048,532.352 " fill="none" id="ElementMonde-backto-Terrain" style="stroke:#181818;stroke-width:0.8000000000000002;"/><polygon fill="none" points="1035.336,430.64,1024.1141,440.861,1032.4911,445.5499,1035.336,430.64" style="stroke:#181818;stroke-width:0.8000000000000002;"/></g><!--reverse link Terrain to Mur--><g id="link_Terrain_Mur"><path codeLine="140" d="M574.8875,655.4357 C550.1995,679.8037 531.76,698 508.008,721.432 " fill="none" id="Terrain-backto-Mur" style="stroke:#181818;stroke-width:0.8000000000000002;"/><polygon fill="none" points="585.136,645.32,571.5156,652.0195,578.2594,658.8519,585.136,645.32" style="stroke:#181818;stroke-width:0.8000000000000002;"/></g><!--link Monde to Personnage--><g id="link_Monde_Personnage"><path codeLine="143" d="M845.896,474.304 C877.352,491.656 908.832,509.024 937.384,524.776 " fill="none" id="Monde-Personnage" style="stroke:#181818;stroke-width:0.8000000000000002;"/><text fill="#000000" font-family="sans-serif" font-size="10.4" lengthAdjust="spacing" textLength="4" x="922.6335" y="515.8904">*</text></g><!--link Monde to Terrain--><g id="link_Monde_Terrain"><path codeLine="144" d="M641.6,477.12 C641.6,496.304 641.6,515.408 641.6,532.208 " fill="none" id="Monde-Terrain" style="stroke:#181818;stroke-width:0.8000000000000002;"/><text fill="#000000" font-family="sans-serif" font-size="10.4" lengthAdjust="spacing" textLength="4" x="637.3938" y="523.301">*</text></g><!--link Monde to GestionFichier--><g id="link_Monde_GestionFichier"><path codeLine="146" d="M437.512,454.992 C390.488,476.56 340.688,499.448 294.4,520.8 C281.064,526.952 267.04,533.44 253.192,539.856 " fill="none" id="Monde-GestionFichier" style="stroke:#181818;stroke-width:0.8000000000000002;"/><text fill="#000000" font-family="sans-serif" font-size="10.4" lengthAdjust="spacing" textLength="5.6" x="259.2461" y="531.0243">1</text></g><!--link ElementMonde to Sprite--><g id="link_ElementMonde_Sprite"><path codeLine="148" d="M1113.328,380.12 C1181.448,406.112 1304.52,457.4 1398.4,520.8 C1419.352,534.952 1440.248,555.008 1454.24,569.52 " fill="none" id="ElementMonde-Sprite" style="stroke:#181818;stroke-width:0.8000000000000002;"/><text fill="#000000" font-family="sans-serif" font-size="10.4" lengthAdjust="spacing" textLength="4" x="1445.3815" y="560.4895">*</text></g><!--SRC=[lLRBRjiu5DthAmXtKNjgkSYikWWCT68dCM0dHU8qYquHCDAjJ8GYDNnu9cZpGVsE_jXSYTJJpoa6zS8IBm_lyznBPJHweWcGgOve1kHh412IUTb2YZWN4VpHHsqKZGo9EDMQJ3ca84mJGSWh4alxo87yqnKyTmKhQWrOrHLpgf9QF1gTIO5cRPHZHoClVkCSwm-2Gl2opRybA4MPg5pRgSe3-wNdmyhbOSVNOSV9GQLwyUExMSaOT4FlevGSg22WpLBHDIXDyMpjS_5mlYwiEkmdWdwTZzx5ROdzW2WfH4wFZRAlcG6juL0ejOfz4Va8TaReZUsFS2rPJE8VtpDE8r3zvNC62sdN1NU9QQuglJ5mGvSihJItydGdBa59NUSeVu2mAMdfBbD3oCtiud9PhURJytgnlFvGlK-kxwyscL7OEimDvz9_p-NHxDWQTOSOYy8tE8B93lY_rRwLiNlAd-28TdAudyvPktyxGv0XjyJZd2K2Eh8poOyTRSTK9fASCysawBV6CPmCs_CPVX-qkK8ICCsArgq2HQVaHzt-JtPCLvcl-OOz6iT-0ACfFxBD9gOnCHhp9-i0RHPJ0nDgQDTCjCgBgSweCj2_DOg9X4JvOb3T82_DY-_Q6iRBndD5dg1HWBePtv2lsb33efUYjlUpAspXXydq_FtTVFbmEMsq_Nxe_MoolDo1lBwPJ_RhAX1D5IFFanP3Bx27aIRdB5gnOxgZZJ_0nZovdpuJpXJu0oxFskLPoDIBjxJE3MXfLTJ8QrW7kA3PgIlMaCnIhCkOu1amUgyxrV6xctdEyxBU6JMhmIPg9Z9h408qpT7ljNjldNhPSYptnntG1ssKKVvXHSoBKxEJTrTkrT-2zzeypgrA4q_ml8EqYMKjnjvc2iTa5mKYOMB7Hzq5JG4POHJEbOecpWuXGQKNZ45Fof8r_2xdqXVB-Msa0CGkX5x9lyyptTsUouZcexTu57RHTo4DaDv7oHI96KqKJLCWfsnSU1DYrATlsPXac64CZcYwpf4Pj_fFeL6Mayi7hmaOml5H7CNdN_PrtkSHnim0-rkOKGyvHguUK6rG_2FBVCxgTRuP1A_95ub5nOlYMLeJr5GEFwrO78FuRBDmtEcbeDEARQmVCe4lKhMfMB8okEyCTyeKXgHtqlCVyADYuhl_e34hGzJ_RTow5W9t5VYT6XkKD_dcZhzT_OR71K4vkRSPoJzklTp3C89DNuieVkirZUq6LOfsG30RdQm7hVim37Cj_Z3cTEHRvLy0]--></g></svg>