<?xml version="1.0" encoding="us-ascii" standalone="no"?><svg xmlns="http://www.w3.org/2000/svg" xmlns:xlink="http://www.w3.org/1999/xlink" contentStyleType="text/css" height="760.8px" preserveAspectRatio="none" style="width:1020px;height:760px;background:#FFFFFF;" version="1.1" viewBox="0 0 1020 760" width="1020px" zoomAndPan="magnify"><defs/><g><!--cluster engine--><g id="cluster_engine"><path d="M647.1,217.0576 L677.1,217.0576 A2.25,2.25 0 0 1 678.6,218.5576 L682.8,231.8303 L1014.3,231.8303 A1.5,1.5 0 0 1 1015.8,233.3303 L1015.8,333.1576 A1.5,1.5 0 0 1 1014.3,334.6576 L647.1,334.6576 A1.5,1.5 0 0 1 645.6,333.1576 L645.6,218.5576 A1.5,1.5 0 0 1 647.1,217.0576 " fill="none" style="stroke:#000000;stroke-width:0.8999999999999999;"/><line style="stroke:#000000;stroke-width:0.8999999999999999;" x1="645.6" x2="682.8" y1="231.8303" y2="231.8303"/><text fill="#000000" font-family="sans-serif" font-size="8.4" font-weight="bold" lengthAdjust="spacing" textLength="29.4" x="648" y="227.3221">engine</text></g><!--cluster cli--><g id="cluster_cli"><path d="M651.3,52.9576 L661.5,52.9576 A2.25,2.25 0 0 1 663,54.4576 L667.2,67.7303 L963.9,67.7303 A1.5,1.5 0 0 1 965.4,69.2303 L965.4,158.2576 A1.5,1.5 0 0 1 963.9,159.7576 L651.3,159.7576 A1.5,1.5 0 0 1 649.8,158.2576 L649.8,54.4576 A1.5,1.5 0 0 1 651.3,52.9576 " fill="none" style="stroke:#000000;stroke-width:0.8999999999999999;"/><line style="stroke:#000000;stroke-width:0.8999999999999999;" x1="649.8" x2="667.2" y1="67.7303" y2="67.7303"/><text fill="#000000" font-family="sans-serif" font-size="8.4" font-weight="bold" lengthAdjust="spacing" textLength="9.6" x="652.2" y="63.2221">cli</text></g><!--cluster gui--><g id="cluster_gui"><path d="M5.1,25.0576 L18.9,25.0576 A2.25,2.25 0 0 1 20.4,26.5576 L24.6,39.8303 L629.7,39.8303 A1.5,1.5 0 0 1 631.2,41.3303 L631.2,755.5576 A1.5,1.5 0 0 1 629.7,757.0576 L5.1,757.0576 A1.5,1.5 0 0 1 3.6,755.5576 L3.6,26.5576 A1.5,1.5 0 0 1 5.1,25.0576 " fill="none" style="stroke:#000000;stroke-width:0.8999999999999999;"/><line style="stroke:#000000;stroke-width:0.8999999999999999;" x1="3.6" x2="24.6" y1="39.8303" y2="39.8303"/><text fill="#000000" font-family="sans-serif" font-size="8.4" font-weight="bold" lengthAdjust="spacing" textLength="13.2" x="6" y="35.3221">gui</text></g><!--cluster views--><g id="cluster_views"><path d="M19.5,354.4576 L44.7,354.4576 A2.25,2.25 0 0 1 46.2,355.9576 L50.4,369.2303 L615.3,369.2303 A1.5,1.5 0 0 1 616.8,370.7303 L616.8,493.3576 A1.5,1.5 0 0 1 615.3,494.8576 L19.5,494.8576 A1.5,1.5 0 0 1 18,493.3576 L18,355.9576 A1.5,1.5 0 0 1 19.5,354.4576 " fill="none" style="stroke:#000000;stroke-width:0.8999999999999999;"/><line style="stroke:#000000;stroke-width:0.8999999999999999;" x1="18" x2="50.4" y1="369.2303" y2="369.2303"/><text fill="#000000" font-family="sans-serif" font-size="8.4" font-weight="bold" lengthAdjust="spacing" textLength="24.6" x="20.4" y="364.7221">views</text></g><!--cluster engine--><g id="cluster_engine"><path d="M495.9,525.4576 L525.9,525.4576 A2.25,2.25 0 0 1 527.4,526.9576 L531.6,540.2303 L615.3,540.2303 A1.5,1.5 0 0 1 616.8,541.7303 L616.8,741.1576 A1.5,1.5 0 0 1 615.3,742.6576 L495.9,742.6576 A1.5,1.5 0 0 1 494.4,741.1576 L494.4,526.9576 A1.5,1.5 0 0 1 495.9,525.4576 " fill="none" style="stroke:#000000;stroke-width:0.8999999999999999;"/><line style="stroke:#000000;stroke-width:0.8999999999999999;" x1="494.4" x2="531.6" y1="540.2303" y2="540.2303"/><text fill="#000000" font-family="sans-serif" font-size="8.4" font-weight="bold" lengthAdjust="spacing" textLength="29.4" x="496.8" y="535.7221">engine</text></g><!--class GameController--><g id="elem_GameController"><rect codeLine="3" fill="#F1F1F1" height="51.1453" id="GameController" rx="1.5" ry="1.5" style="stroke:#181818;stroke-width:0.3;" width="84" x="922.2" y="262.9576"/><ellipse cx="933.36" cy="272.5576" fill="#A9DCDF" rx="6.6" ry="6.6" style="stroke:#181818;stroke-width:0.6;"/><path d="M934.6725,273.617 L932.1881,273.617 L931.935,274.2357 L932.1881,274.2357 Q932.5537,274.2357 932.7131,274.3764 Q932.8725,274.517 932.8725,274.7514 Q932.8725,274.9764 932.7131,275.117 Q932.5537,275.2576 932.1881,275.2576 L930.81,275.2576 Q930.4444,275.2576 930.2944,275.117 Q930.135,274.9764 930.135,274.742 Q930.135,274.517 930.3037,274.3764 Q930.4631,274.2264 930.8381,274.2357 L932.4412,270.242 L931.7756,270.242 Q931.41,270.242 931.2506,270.1014 Q931.0913,269.9607 931.0913,269.7264 Q931.0913,269.5014 931.2506,269.3607 Q931.41,269.2201 931.7756,269.2201 L933.9787,269.2201 L936.0131,274.2357 Q936.3694,274.2357 936.4819,274.3201 Q936.7163,274.4795 936.7163,274.7514 Q936.7163,274.9764 936.5569,275.117 Q936.4069,275.2576 936.0412,275.2576 L934.6631,275.2576 Q934.2975,275.2576 934.1381,275.117 Q933.9787,274.9764 933.9787,274.742 Q933.9787,274.517 934.1381,274.3764 Q934.2975,274.2357 934.6631,274.2357 L934.9162,274.2357 L934.6725,273.617 Z M934.2412,272.5951 L933.4256,270.5701 L932.6006,272.5951 L934.2412,272.5951 Z " fill="#000000"/><text fill="#000000" font-family="sans-serif" font-size="8.4" font-style="italic" lengthAdjust="spacing" textLength="60" x="942.24" y="276.0357">GameController</text><line style="stroke:#181818;stroke-width:0.3;" x1="922.8" x2="1005.6" y1="282.1576" y2="282.1576"/><polygon fill="none" points="928.8,288.0439,931.2,290.4439,928.8,292.8439,926.4,290.4439" style="stroke:#B38D22;stroke-width:0.6;"/><text fill="#000000" font-family="sans-serif" font-size="8.4" lengthAdjust="spacing" textLength="54" x="934.2" y="293.6221">Monde monde</text><line style="stroke:#181818;stroke-width:0.6;" x1="922.8" x2="1005.6" y1="298.1303" y2="298.1303"/><ellipse cx="928.8" cy="307.0166" fill="#84BE84" rx="1.8" ry="1.8" style="stroke:#038048;stroke-width:0.6;"/><text fill="#000000" font-family="sans-serif" font-size="8.4" font-style="italic" lengthAdjust="spacing" textLength="68.4" x="934.2" y="309.5947">update(long): void</text></g><!--class Engine--><g id="elem_Engine"><rect codeLine="9" fill="#F1F1F1" height="73.4906" id="Engine" rx="1.5" ry="1.5" style="stroke:#181818;stroke-width:0.3;" width="94.8" x="766.2" y="251.8576"/><ellipse cx="797.85" cy="261.4576" fill="#A9DCDF" rx="6.6" ry="6.6" style="stroke:#181818;stroke-width:0.6;"/><path d="M799.1625,262.517 L796.6781,262.517 L796.425,263.1357 L796.6781,263.1357 Q797.0437,263.1357 797.2031,263.2764 Q797.3625,263.417 797.3625,263.6514 Q797.3625,263.8764 797.2031,264.017 Q797.0437,264.1576 796.6781,264.1576 L795.3,264.1576 Q794.9344,264.1576 794.7844,264.017 Q794.625,263.8764 794.625,263.642 Q794.625,263.417 794.7937,263.2764 Q794.9531,263.1264 795.3281,263.1357 L796.9313,259.142 L796.2656,259.142 Q795.9,259.142 795.7406,259.0014 Q795.5813,258.8607 795.5813,258.6264 Q795.5813,258.4014 795.7406,258.2607 Q795.9,258.1201 796.2656,258.1201 L798.4688,258.1201 L800.5031,263.1357 Q800.8594,263.1357 800.9719,263.2201 Q801.2063,263.3795 801.2063,263.6514 Q801.2063,263.8764 801.0469,264.017 Q800.8969,264.1576 800.5313,264.1576 L799.1531,264.1576 Q798.7875,264.1576 798.6281,264.017 Q798.4688,263.8764 798.4688,263.642 Q798.4688,263.417 798.6281,263.2764 Q798.7875,263.1357 799.1531,263.1357 L799.4063,263.1357 L799.1625,262.517 Z M798.7312,261.4951 L797.9156,259.4701 L797.0906,261.4951 L798.7312,261.4951 Z " fill="#000000"/><text fill="#000000" font-family="sans-serif" font-size="8.4" font-style="italic" lengthAdjust="spacing" textLength="26.4" x="810.15" y="264.9357">Engine</text><line style="stroke:#181818;stroke-width:0.3;" x1="766.8" x2="860.4" y1="271.0576" y2="271.0576"/><line style="stroke:#181818;stroke-width:0.3;" x1="766.8" x2="860.4" y1="275.8576" y2="275.8576"/><ellipse cx="772.8" cy="284.7439" fill="#84BE84" rx="1.8" ry="1.8" style="stroke:#038048;stroke-width:0.6;"/><text fill="#000000" font-family="sans-serif" font-size="8.4" lengthAdjust="spacing" textLength="79.2" x="778.2" y="287.3221">Engine(ui, controller)</text><ellipse cx="772.8" cy="295.9166" fill="#84BE84" rx="1.8" ry="1.8" style="stroke:#038048;stroke-width:0.6;"/><text fill="#000000" font-family="sans-serif" font-size="8.4" font-style="italic" lengthAdjust="spacing" textLength="42.6" x="778.2" y="298.4947">start(): void</text><ellipse cx="772.8" cy="307.0893" fill="#84BE84" rx="1.8" ry="1.8" style="stroke:#038048;stroke-width:0.6;"/><text fill="#000000" font-family="sans-serif" font-size="8.4" font-style="italic" lengthAdjust="spacing" textLength="42" x="778.2" y="309.6674">stop(): void</text><ellipse cx="772.8" cy="318.2619" fill="#84BE84" rx="1.8" ry="1.8" style="stroke:#038048;stroke-width:0.6;"/><text fill="#000000" font-family="sans-serif" font-size="8.4" font-style="italic" lengthAdjust="spacing" textLength="55.2" x="778.2" y="320.84">tick(long): void</text></g><!--class GameInterface--><g id="elem_GameInterface"><rect codeLine="16" fill="#F1F1F1" height="39.9727" id="GameInterface" rx="1.5" ry="1.5" style="stroke:#181818;stroke-width:0.3;" width="75.6" x="655.2" y="268.3576"/><ellipse cx="664.2" cy="277.9576" fill="#B4A7E5" rx="6.6" ry="6.6" style="stroke:#181818;stroke-width:0.6;"/><path d="M664.7719,275.942 L664.7719,279.9357 L665.8031,279.9357 Q666.1687,279.9357 666.3281,280.0764 Q666.4875,280.217 666.4875,280.4514 Q666.4875,280.6764 666.3281,280.817 Q666.1687,280.9576 665.8031,280.9576 L662.7188,280.9576 Q662.3531,280.9576 662.1938,280.817 Q662.0344,280.6764 662.0344,280.442 Q662.0344,280.217 662.1938,280.0764 Q662.3531,279.9357 662.7188,279.9357 L663.75,279.9357 L663.75,275.942 L662.7188,275.942 Q662.3531,275.942 662.1938,275.8014 Q662.0344,275.6607 662.0344,275.4264 Q662.0344,275.2014 662.1938,275.0607 Q662.3531,274.9201 662.7188,274.9201 L665.8031,274.9201 Q666.1687,274.9201 666.3281,275.0607 Q666.4875,275.2014 666.4875,275.4264 Q666.4875,275.6607 666.3281,275.8014 Q666.1687,275.942 665.8031,275.942 L664.7719,275.942 Z " fill="#000000"/><text fill="#000000" font-family="sans-serif" font-size="8.4" font-style="italic" lengthAdjust="spacing" textLength="56.4" x="672.6" y="281.4357">GameInterface</text><line style="stroke:#181818;stroke-width:0.3;" x1="655.8" x2="730.2" y1="287.5576" y2="287.5576"/><line style="stroke:#181818;stroke-width:0.3;" x1="655.8" x2="730.2" y1="292.3576" y2="292.3576"/><ellipse cx="661.8" cy="301.2439" fill="#84BE84" rx="1.8" ry="1.8" style="stroke:#038048;stroke-width:0.6;"/><text fill="#000000" font-family="sans-serif" font-size="8.4" lengthAdjust="spacing" textLength="51.6" x="667.2" y="303.8221">render(): void</text></g><!--class CLIController--><g id="elem_CLIController"><rect codeLine="22" fill="#F1F1F1" height="62.318" id="CLIController" rx="1.5" ry="1.5" style="stroke:#181818;stroke-width:0.3;" width="84.6" x="870.9" y="87.7576"/><ellipse cx="886.92" cy="97.3576" fill="#ADD1B2" rx="6.6" ry="6.6" style="stroke:#181818;stroke-width:0.6;"/><path d="M888.5794,94.8826 Q888.6731,94.7514 888.7856,94.6857 Q888.8981,94.6201 889.0294,94.6201 Q889.2544,94.6201 889.395,94.7795 Q889.5356,94.9295 889.5356,95.2951 L889.5356,96.167 Q889.5356,96.5326 889.395,96.692 Q889.2544,96.8514 889.0294,96.8514 Q888.8231,96.8514 888.7013,96.7295 Q888.5794,96.617 888.5138,96.3076 Q888.4856,96.092 888.3731,95.9795 Q888.1763,95.7545 887.8106,95.6232 Q887.445,95.492 887.07,95.492 Q886.6106,95.492 886.2263,95.6889 Q885.8513,95.8857 885.5513,96.3357 Q885.2606,96.7857 885.2606,97.4045 L885.2606,98.0607 Q885.2606,98.8014 885.795,99.2982 Q886.3294,99.7857 887.2856,99.7857 Q887.8481,99.7857 888.2419,99.6357 Q888.4763,99.542 888.7294,99.2795 Q888.8888,99.1201 888.9731,99.0732 Q889.0669,99.0264 889.1888,99.0264 Q889.3856,99.0264 889.5356,99.1857 Q889.695,99.3357 889.695,99.542 Q889.695,99.7482 889.4888,99.992 Q889.1888,100.3389 888.7106,100.5357 Q888.0638,100.8076 887.2856,100.8076 Q886.3763,100.8076 885.6544,100.4326 Q885.0638,100.1326 884.6513,99.4951 Q884.2388,98.8482 884.2388,98.0795 L884.2388,97.3857 Q884.2388,96.5889 884.6044,95.9045 Q884.9794,95.2107 885.6356,94.8451 Q886.2919,94.4701 887.0325,94.4701 Q887.4731,94.4701 887.8575,94.5732 Q888.2513,94.667 888.5794,94.8826 Z " fill="#000000"/><text fill="#000000" font-family="sans-serif" font-size="8.4" lengthAdjust="spacing" textLength="49.8" x="896.88" y="100.8357">CLIController</text><line style="stroke:#181818;stroke-width:0.3;" x1="871.5" x2="954.9" y1="106.9576" y2="106.9576"/><line style="stroke:#181818;stroke-width:0.3;" x1="871.5" x2="954.9" y1="111.7576" y2="111.7576"/><ellipse cx="877.5" cy="120.6439" fill="#84BE84" rx="1.8" ry="1.8" style="stroke:#038048;stroke-width:0.6;"/><text fill="#000000" font-family="sans-serif" font-size="8.4" lengthAdjust="spacing" textLength="43.2" x="882.9" y="123.2221">start(): void</text><ellipse cx="877.5" cy="131.8166" fill="#84BE84" rx="1.8" ry="1.8" style="stroke:#038048;stroke-width:0.6;"/><text fill="#000000" font-family="sans-serif" font-size="8.4" lengthAdjust="spacing" textLength="42.6" x="882.9" y="134.3947">stop(): void</text><ellipse cx="877.5" cy="142.9893" fill="#84BE84" rx="1.8" ry="1.8" style="stroke:#038048;stroke-width:0.6;"/><text fill="#000000" font-family="sans-serif" font-size="8.4" lengthAdjust="spacing" textLength="69" x="882.9" y="145.5674">update(long): void</text></g><!--class CLIEngine--><g id="elem_CLIEngine"><rect codeLine="28" fill="#F1F1F1" height="62.318" id="CLIEngine" rx="1.5" ry="1.5" style="stroke:#181818;stroke-width:0.3;" width="70.8" x="778.8" y="87.7576"/><ellipse cx="793.47" cy="97.3576" fill="#ADD1B2" rx="6.6" ry="6.6" style="stroke:#181818;stroke-width:0.6;"/><path d="M795.1294,94.8826 Q795.2231,94.7514 795.3356,94.6857 Q795.4481,94.6201 795.5794,94.6201 Q795.8044,94.6201 795.945,94.7795 Q796.0856,94.9295 796.0856,95.2951 L796.0856,96.167 Q796.0856,96.5326 795.945,96.692 Q795.8044,96.8514 795.5794,96.8514 Q795.3731,96.8514 795.2513,96.7295 Q795.1294,96.617 795.0638,96.3076 Q795.0356,96.092 794.9231,95.9795 Q794.7263,95.7545 794.3606,95.6232 Q793.995,95.492 793.62,95.492 Q793.1606,95.492 792.7763,95.6889 Q792.4013,95.8857 792.1013,96.3357 Q791.8106,96.7857 791.8106,97.4045 L791.8106,98.0607 Q791.8106,98.8014 792.345,99.2982 Q792.8794,99.7857 793.8356,99.7857 Q794.3981,99.7857 794.7919,99.6357 Q795.0263,99.542 795.2794,99.2795 Q795.4388,99.1201 795.5231,99.0732 Q795.6169,99.0264 795.7388,99.0264 Q795.9356,99.0264 796.0856,99.1857 Q796.245,99.3357 796.245,99.542 Q796.245,99.7482 796.0388,99.992 Q795.7388,100.3389 795.2606,100.5357 Q794.6138,100.8076 793.8356,100.8076 Q792.9263,100.8076 792.2044,100.4326 Q791.6138,100.1326 791.2013,99.4951 Q790.7888,98.8482 790.7888,98.0795 L790.7888,97.3857 Q790.7888,96.5889 791.1544,95.9045 Q791.5294,95.2107 792.1856,94.8451 Q792.8419,94.4701 793.5825,94.4701 Q794.0231,94.4701 794.4075,94.5732 Q794.8013,94.667 795.1294,94.8826 Z " fill="#000000"/><text fill="#000000" font-family="sans-serif" font-size="8.4" lengthAdjust="spacing" textLength="39" x="803.13" y="100.8357">CLIEngine</text><line style="stroke:#181818;stroke-width:0.3;" x1="779.4" x2="849" y1="106.9576" y2="106.9576"/><line style="stroke:#181818;stroke-width:0.3;" x1="779.4" x2="849" y1="111.7576" y2="111.7576"/><ellipse cx="785.4" cy="120.6439" fill="#84BE84" rx="1.8" ry="1.8" style="stroke:#038048;stroke-width:0.6;"/><text fill="#000000" font-family="sans-serif" font-size="8.4" lengthAdjust="spacing" textLength="43.2" x="790.8" y="123.2221">start(): void</text><ellipse cx="785.4" cy="131.8166" fill="#84BE84" rx="1.8" ry="1.8" style="stroke:#038048;stroke-width:0.6;"/><text fill="#000000" font-family="sans-serif" font-size="8.4" lengthAdjust="spacing" textLength="42.6" x="790.8" y="134.3947">stop(): void</text><ellipse cx="785.4" cy="142.9893" fill="#84BE84" rx="1.8" ry="1.8" style="stroke:#038048;stroke-width:0.6;"/><text fill="#000000" font-family="sans-serif" font-size="8.4" lengthAdjust="spacing" textLength="55.2" x="790.8" y="145.5674">tick(long): void</text></g><!--class CLI--><g id="elem_CLI"><rect codeLine="34" fill="#F1F1F1" height="39.9727" id="CLI" rx="1.5" ry="1.5" style="stroke:#181818;stroke-width:0.3;" width="67.2" x="659.4" y="98.8576"/><ellipse cx="684.33" cy="108.4576" fill="#ADD1B2" rx="6.6" ry="6.6" style="stroke:#181818;stroke-width:0.6;"/><path d="M685.9894,105.9826 Q686.0831,105.8514 686.1956,105.7857 Q686.3081,105.7201 686.4394,105.7201 Q686.6644,105.7201 686.805,105.8795 Q686.9456,106.0295 686.9456,106.3951 L686.9456,107.267 Q686.9456,107.6326 686.805,107.792 Q686.6644,107.9514 686.4394,107.9514 Q686.2331,107.9514 686.1112,107.8295 Q685.9894,107.717 685.9237,107.4076 Q685.8956,107.192 685.7831,107.0795 Q685.5863,106.8545 685.2206,106.7232 Q684.855,106.592 684.48,106.592 Q684.0206,106.592 683.6362,106.7889 Q683.2612,106.9857 682.9613,107.4357 Q682.6706,107.8857 682.6706,108.5045 L682.6706,109.1607 Q682.6706,109.9014 683.205,110.3982 Q683.7394,110.8857 684.6956,110.8857 Q685.2581,110.8857 685.6519,110.7357 Q685.8862,110.642 686.1394,110.3795 Q686.2987,110.2201 686.3831,110.1732 Q686.4769,110.1264 686.5988,110.1264 Q686.7956,110.1264 686.9456,110.2857 Q687.105,110.4357 687.105,110.642 Q687.105,110.8482 686.8988,111.092 Q686.5988,111.4389 686.1206,111.6357 Q685.4738,111.9076 684.6956,111.9076 Q683.7863,111.9076 683.0644,111.5326 Q682.4738,111.2326 682.0613,110.5951 Q681.6488,109.9482 681.6488,109.1795 L681.6488,108.4857 Q681.6488,107.6889 682.0144,107.0045 Q682.3894,106.3107 683.0456,105.9451 Q683.7019,105.5701 684.4425,105.5701 Q684.8831,105.5701 685.2675,105.6732 Q685.6613,105.767 685.9894,105.9826 Z " fill="#000000"/><text fill="#000000" font-family="sans-serif" font-size="8.4" lengthAdjust="spacing" textLength="12.6" x="696.27" y="111.9357">CLI</text><line style="stroke:#181818;stroke-width:0.3;" x1="660" x2="726" y1="118.0576" y2="118.0576"/><line style="stroke:#181818;stroke-width:0.3;" x1="660" x2="726" y1="122.8576" y2="122.8576"/><ellipse cx="666" cy="131.7439" fill="#84BE84" rx="1.8" ry="1.8" style="stroke:#038048;stroke-width:0.6;"/><text fill="#000000" font-family="sans-serif" font-size="8.4" lengthAdjust="spacing" textLength="51.6" x="671.4" y="134.3221">render(): void</text></g><!--class View--><g id="elem_View"><rect codeLine="40" fill="#F1F1F1" height="107.0086" id="View" rx="1.5" ry="1.5" style="stroke:#181818;stroke-width:0.3;" width="138" x="337.8" y="65.5576"/><ellipse cx="395.55" cy="75.1576" fill="#A9DCDF" rx="6.6" ry="6.6" style="stroke:#181818;stroke-width:0.6;"/><path d="M396.8625,76.217 L394.3781,76.217 L394.125,76.8357 L394.3781,76.8357 Q394.7438,76.8357 394.9031,76.9764 Q395.0625,77.117 395.0625,77.3514 Q395.0625,77.5764 394.9031,77.717 Q394.7438,77.8576 394.3781,77.8576 L393,77.8576 Q392.6344,77.8576 392.4844,77.717 Q392.325,77.5764 392.325,77.342 Q392.325,77.117 392.4938,76.9764 Q392.6531,76.8264 393.0281,76.8357 L394.6312,72.842 L393.9656,72.842 Q393.6,72.842 393.4406,72.7014 Q393.2813,72.5607 393.2813,72.3264 Q393.2813,72.1014 393.4406,71.9607 Q393.6,71.8201 393.9656,71.8201 L396.1688,71.8201 L398.2031,76.8357 Q398.5594,76.8357 398.6719,76.9201 Q398.9063,77.0795 398.9063,77.3514 Q398.9063,77.5764 398.7469,77.717 Q398.5969,77.8576 398.2313,77.8576 L396.8531,77.8576 Q396.4875,77.8576 396.3281,77.717 Q396.1688,77.5764 396.1688,77.342 Q396.1688,77.117 396.3281,76.9764 Q396.4875,76.8357 396.8531,76.8357 L397.1063,76.8357 L396.8625,76.217 Z M396.4313,75.1951 L395.6156,73.1701 L394.7906,75.1951 L396.4313,75.1951 Z " fill="#000000"/><text fill="#000000" font-family="sans-serif" font-size="8.4" font-style="italic" lengthAdjust="spacing" textLength="17.4" x="407.85" y="78.6357">View</text><line style="stroke:#181818;stroke-width:0.3;" x1="338.4" x2="475.2" y1="84.7576" y2="84.7576"/><polygon fill="none" points="344.4,90.6439,346.8,93.0439,344.4,95.4439,342,93.0439" style="stroke:#B38D22;stroke-width:0.6;"/><text fill="#000000" font-family="sans-serif" font-size="8.4" lengthAdjust="spacing" textLength="42.6" x="349.8" y="96.2221">Parent root</text><line style="stroke:#181818;stroke-width:0.6;" x1="338.4" x2="475.2" y1="100.7303" y2="100.7303"/><ellipse cx="344.4" cy="109.6166" fill="#84BE84" rx="1.8" ry="1.8" style="stroke:#038048;stroke-width:0.6;"/><text fill="#000000" font-family="sans-serif" font-size="8.4" lengthAdjust="spacing" textLength="66" x="349.8" y="112.1947">getRoot(): Parent</text><ellipse cx="344.4" cy="120.7893" fill="#84BE84" rx="1.8" ry="1.8" style="stroke:#038048;stroke-width:0.6;"/><text fill="#000000" font-family="sans-serif" font-size="8.4" lengthAdjust="spacing" textLength="96" x="349.8" y="123.3674">enableRootEvents(): void</text><ellipse cx="344.4" cy="131.9619" fill="#84BE84" rx="1.8" ry="1.8" style="stroke:#038048;stroke-width:0.6;"/><text fill="#000000" font-family="sans-serif" font-size="8.4" lengthAdjust="spacing" textLength="64.2" x="349.8" y="134.54">onViewInit(): void</text><ellipse cx="344.4" cy="143.1346" fill="#84BE84" rx="1.8" ry="1.8" style="stroke:#038048;stroke-width:0.6;"/><text fill="#000000" font-family="sans-serif" font-size="8.4" lengthAdjust="spacing" textLength="90.6" x="349.8" y="145.7127">onViewDisplayed(): void</text><ellipse cx="344.4" cy="154.3072" fill="#84BE84" rx="1.8" ry="1.8" style="stroke:#038048;stroke-width:0.6;"/><text fill="#000000" font-family="sans-serif" font-size="8.4" lengthAdjust="spacing" textLength="117.6" x="349.8" y="156.8854">onKeyPressed(KeyEvent): void</text><ellipse cx="344.4" cy="165.4799" fill="#84BE84" rx="1.8" ry="1.8" style="stroke:#038048;stroke-width:0.6;"/><text fill="#000000" font-family="sans-serif" font-size="8.4" lengthAdjust="spacing" textLength="122.4" x="349.8" y="168.058">onKeyReleased(KeyEvent): void</text></g><!--class ViewController--><g id="elem_ViewController"><rect codeLine="51" fill="#F1F1F1" height="28.8" id="ViewController" rx="1.5" ry="1.5" style="stroke:#181818;stroke-width:0.3;" width="73.8" x="189.9" y="274.0576"/><ellipse cx="198.9" cy="283.6576" fill="#A9DCDF" rx="6.6" ry="6.6" style="stroke:#181818;stroke-width:0.6;"/><path d="M200.2125,284.717 L197.7281,284.717 L197.475,285.3357 L197.7281,285.3357 Q198.0938,285.3357 198.2531,285.4764 Q198.4125,285.617 198.4125,285.8514 Q198.4125,286.0764 198.2531,286.217 Q198.0938,286.3576 197.7281,286.3576 L196.35,286.3576 Q195.9844,286.3576 195.8344,286.217 Q195.675,286.0764 195.675,285.842 Q195.675,285.617 195.8438,285.4764 Q196.0031,285.3264 196.3781,285.3357 L197.9813,281.342 L197.3156,281.342 Q196.95,281.342 196.7906,281.2014 Q196.6313,281.0607 196.6313,280.8264 Q196.6313,280.6014 196.7906,280.4607 Q196.95,280.3201 197.3156,280.3201 L199.5187,280.3201 L201.5531,285.3357 Q201.9094,285.3357 202.0219,285.4201 Q202.2563,285.5795 202.2563,285.8514 Q202.2563,286.0764 202.0969,286.217 Q201.9469,286.3576 201.5812,286.3576 L200.2031,286.3576 Q199.8375,286.3576 199.6781,286.217 Q199.5187,286.0764 199.5187,285.842 Q199.5187,285.617 199.6781,285.4764 Q199.8375,285.3357 200.2031,285.3357 L200.4562,285.3357 L200.2125,284.717 Z M199.7813,283.6951 L198.9656,281.6701 L198.1406,283.6951 L199.7813,283.6951 Z " fill="#000000"/><text fill="#000000" font-family="sans-serif" font-size="8.4" font-style="italic" lengthAdjust="spacing" textLength="54.6" x="207.3" y="287.1357">ViewController</text><line style="stroke:#181818;stroke-width:0.3;" x1="190.5" x2="263.1" y1="293.2576" y2="293.2576"/><line style="stroke:#181818;stroke-width:0.3;" x1="190.5" x2="263.1" y1="298.0576" y2="298.0576"/></g><!--class VIEWS--><g id="elem_VIEWS"><rect codeLine="53" fill="#F1F1F1" height="51.1453" id="VIEWS" rx="1.5" ry="1.5" style="stroke:#181818;stroke-width:0.3;" width="45" x="87.9" y="93.4576"/><ellipse cx="96.9" cy="103.0576" fill="#EB937F" rx="6.6" ry="6.6" style="stroke:#181818;stroke-width:0.6;"/><path d="M96.2156,103.5357 L96.2156,105.0357 L98.8125,105.0357 L98.8125,104.4826 Q98.8125,104.117 98.9531,103.9576 Q99.1031,103.7982 99.3281,103.7982 Q99.5531,103.7982 99.6938,103.9576 Q99.8344,104.117 99.8344,104.4826 L99.8344,106.0576 L95.0344,106.0576 Q94.6594,106.0576 94.5,105.917 Q94.35,105.7764 94.35,105.542 Q94.35,105.317 94.5094,105.1764 Q94.6688,105.0357 95.0344,105.0357 L95.1938,105.0357 L95.1938,101.042 L95.0344,101.042 Q94.6594,101.042 94.5,100.9014 Q94.35,100.7607 94.35,100.5264 Q94.35,100.3014 94.5,100.1607 Q94.6594,100.0201 95.0344,100.0201 L99.6094,100.0201 L99.6094,101.5764 Q99.6094,101.942 99.4688,102.1014 Q99.3375,102.2514 99.1031,102.2514 Q98.8781,102.2514 98.7375,102.1014 Q98.5969,101.942 98.5969,101.5764 L98.5969,101.042 L96.2156,101.042 L96.2156,102.5139 L97.1063,102.5139 Q97.1063,102.1201 97.1812,102.0076 Q97.3406,101.7639 97.6219,101.7639 Q97.8469,101.7639 97.9875,101.9232 Q98.1281,102.0732 98.1281,102.4389 L98.1281,103.6201 Q98.1281,103.9482 98.0531,104.0607 Q97.8938,104.2951 97.6219,104.2951 Q97.3406,104.2951 97.1812,104.0514 Q97.1063,103.9389 97.1063,103.5357 L96.2156,103.5357 Z " fill="#000000"/><text fill="#000000" font-family="sans-serif" font-size="8.4" lengthAdjust="spacing" textLength="25.8" x="105.3" y="106.5357">VIEWS</text><line style="stroke:#181818;stroke-width:0.3;" x1="88.5" x2="132.3" y1="112.6576" y2="112.6576"/><text fill="#000000" font-family="sans-serif" font-size="8.4" lengthAdjust="spacing" textLength="24" x="91.5" y="124.1221">HOME</text><text fill="#000000" font-family="sans-serif" font-size="8.4" lengthAdjust="spacing" textLength="24" x="91.5" y="135.2947">GAME</text><line style="stroke:#181818;stroke-width:0.3;" x1="88.5" x2="132.3" y1="139.8029" y2="139.8029"/></g><!--class ViewManager--><g id="elem_ViewManager"><rect codeLine="58" fill="#F1F1F1" height="118.1812" id="ViewManager" rx="1.5" ry="1.5" style="stroke:#181818;stroke-width:0.3;" width="136.2" x="153.9" y="59.8576"/><ellipse cx="193.95" cy="69.4576" fill="#ADD1B2" rx="6.6" ry="6.6" style="stroke:#181818;stroke-width:0.6;"/><path d="M195.6094,66.9826 Q195.7031,66.8514 195.8156,66.7857 Q195.9281,66.7201 196.0594,66.7201 Q196.2844,66.7201 196.425,66.8795 Q196.5656,67.0295 196.5656,67.3951 L196.5656,68.267 Q196.5656,68.6326 196.425,68.792 Q196.2844,68.9514 196.0594,68.9514 Q195.8531,68.9514 195.7313,68.8295 Q195.6094,68.717 195.5438,68.4076 Q195.5156,68.192 195.4031,68.0795 Q195.2062,67.8545 194.8406,67.7232 Q194.475,67.592 194.1,67.592 Q193.6406,67.592 193.2563,67.7889 Q192.8813,67.9857 192.5812,68.4357 Q192.2906,68.8857 192.2906,69.5045 L192.2906,70.1607 Q192.2906,70.9014 192.825,71.3982 Q193.3594,71.8857 194.3156,71.8857 Q194.8781,71.8857 195.2719,71.7357 Q195.5063,71.642 195.7594,71.3795 Q195.9188,71.2201 196.0031,71.1732 Q196.0969,71.1264 196.2188,71.1264 Q196.4156,71.1264 196.5656,71.2857 Q196.725,71.4357 196.725,71.642 Q196.725,71.8482 196.5187,72.092 Q196.2188,72.4389 195.7406,72.6357 Q195.0938,72.9076 194.3156,72.9076 Q193.4063,72.9076 192.6844,72.5326 Q192.0938,72.2326 191.6813,71.5951 Q191.2687,70.9482 191.2687,70.1795 L191.2687,69.4857 Q191.2687,68.6889 191.6344,68.0045 Q192.0094,67.3107 192.6656,66.9451 Q193.3219,66.5701 194.0625,66.5701 Q194.5031,66.5701 194.8875,66.6732 Q195.2813,66.767 195.6094,66.9826 Z " fill="#000000"/><text fill="#000000" font-family="sans-serif" font-size="8.4" lengthAdjust="spacing" textLength="51" x="206.25" y="72.9357">ViewManager</text><line style="stroke:#181818;stroke-width:0.3;" x1="154.5" x2="289.5" y1="79.0576" y2="79.0576"/><rect fill="none" height="3.6" style="stroke:#C82930;stroke-width:0.6;" width="3.6" x="158.7" y="86.1439"/><text fill="#000000" font-family="sans-serif" font-size="8.4" lengthAdjust="spacing" text-decoration="underline" textLength="87.6" x="165.9" y="90.5221">instance: ViewManager</text><rect fill="none" height="3.6" style="stroke:#C82930;stroke-width:0.6;" width="3.6" x="158.7" y="97.3166"/><text fill="#000000" font-family="sans-serif" font-size="8.4" lengthAdjust="spacing" textLength="48" x="165.9" y="101.6947">stage: Stage</text><line style="stroke:#181818;stroke-width:0.6;" x1="154.5" x2="289.5" y1="106.2029" y2="106.2029"/><rect fill="#F24D5C" height="3.6" style="stroke:#C82930;stroke-width:0.6;" width="3.6" x="158.7" y="113.2893"/><text fill="#000000" font-family="sans-serif" font-size="8.4" lengthAdjust="spacing" textLength="57" x="165.9" y="117.6674">ViewManager()</text><ellipse cx="160.5" cy="126.2619" fill="#84BE84" rx="1.8" ry="1.8" style="stroke:#038048;stroke-width:0.6;"/><text fill="#000000" font-family="sans-serif" font-size="8.4" lengthAdjust="spacing" text-decoration="underline" textLength="105.6" x="165.9" y="128.84">getInstance(): ViewManager</text><ellipse cx="160.5" cy="137.4346" fill="#84BE84" rx="1.8" ry="1.8" style="stroke:#038048;stroke-width:0.6;"/><text fill="#000000" font-family="sans-serif" font-size="8.4" lengthAdjust="spacing" textLength="82.2" x="165.9" y="140.0127">setStage(Stage): void</text><ellipse cx="160.5" cy="148.6072" fill="#84BE84" rx="1.8" ry="1.8" style="stroke:#038048;stroke-width:0.6;"/><text fill="#000000" font-family="sans-serif" font-size="8.4" lengthAdjust="spacing" textLength="120.6" x="165.9" y="151.1854">registerView(VIEWS, View): void</text><ellipse cx="160.5" cy="159.7799" fill="#84BE84" rx="1.8" ry="1.8" style="stroke:#038048;stroke-width:0.6;"/><text fill="#000000" font-family="sans-serif" font-size="8.4" lengthAdjust="spacing" textLength="94.8" x="165.9" y="162.358">navigateTo(VIEWS): void</text><ellipse cx="160.5" cy="170.9525" fill="#84BE84" rx="1.8" ry="1.8" style="stroke:#038048;stroke-width:0.6;"/><text fill="#000000" font-family="sans-serif" font-size="8.4" lengthAdjust="spacing" textLength="109.2" x="165.9" y="173.5307">setFullScreen(boolean): void</text></g><!--class Sprite--><g id="elem_Sprite"><rect codeLine="101" fill="#F1F1F1" height="51.1453" id="Sprite" rx="1.5" ry="1.5" style="stroke:#181818;stroke-width:0.3;" width="53.4" x="13.5" y="93.4576"/><ellipse cx="27.9" cy="103.0576" fill="#ADD1B2" rx="6.6" ry="6.6" style="stroke:#181818;stroke-width:0.6;"/><path d="M29.5594,100.5826 Q29.6531,100.4514 29.7656,100.3857 Q29.8781,100.3201 30.0094,100.3201 Q30.2344,100.3201 30.375,100.4795 Q30.5156,100.6295 30.5156,100.9951 L30.5156,101.867 Q30.5156,102.2326 30.375,102.392 Q30.2344,102.5514 30.0094,102.5514 Q29.8031,102.5514 29.6813,102.4295 Q29.5594,102.317 29.4938,102.0076 Q29.4656,101.792 29.3531,101.6795 Q29.1563,101.4545 28.7906,101.3232 Q28.425,101.192 28.05,101.192 Q27.5906,101.192 27.2063,101.3889 Q26.8313,101.5857 26.5313,102.0357 Q26.2406,102.4857 26.2406,103.1045 L26.2406,103.7607 Q26.2406,104.5014 26.775,104.9982 Q27.3094,105.4857 28.2656,105.4857 Q28.8281,105.4857 29.2219,105.3357 Q29.4562,105.242 29.7094,104.9795 Q29.8688,104.8201 29.9531,104.7732 Q30.0469,104.7264 30.1688,104.7264 Q30.3656,104.7264 30.5156,104.8857 Q30.675,105.0357 30.675,105.242 Q30.675,105.4482 30.4688,105.692 Q30.1688,106.0389 29.6906,106.2357 Q29.0438,106.5076 28.2656,106.5076 Q27.3563,106.5076 26.6344,106.1326 Q26.0438,105.8326 25.6312,105.1951 Q25.2188,104.5482 25.2188,103.7795 L25.2188,103.0857 Q25.2188,102.2889 25.5844,101.6045 Q25.9594,100.9107 26.6156,100.5451 Q27.2719,100.1701 28.0125,100.1701 Q28.4531,100.1701 28.8375,100.2732 Q29.2313,100.367 29.5594,100.5826 Z " fill="#000000"/><text fill="#000000" font-family="sans-serif" font-size="8.4" lengthAdjust="spacing" textLength="22.2" x="37.5" y="106.5357">Sprite</text><line style="stroke:#181818;stroke-width:0.3;" x1="14.1" x2="66.3" y1="112.6576" y2="112.6576"/><rect fill="none" height="3.6" style="stroke:#C82930;stroke-width:0.6;" width="3.6" x="18.3" y="119.7439"/><text fill="#000000" font-family="sans-serif" font-size="8.4" lengthAdjust="spacing" textLength="34.2" x="25.5" y="124.1221">String uri</text><line style="stroke:#181818;stroke-width:0.3;" x1="14.1" x2="66.3" y1="128.6303" y2="128.6303"/><ellipse cx="20.1" cy="137.5166" fill="#84BE84" rx="1.8" ry="1.8" style="stroke:#038048;stroke-width:0.6;"/><text fill="#000000" font-family="sans-serif" font-size="8.4" lengthAdjust="spacing" textLength="37.8" x="25.5" y="140.0947">Sprite(uri)</text></g><!--class HomeViewController--><g id="elem_HomeViewController"><rect codeLine="71" fill="#F1F1F1" height="95.8359" id="HomeViewController" rx="1.5" ry="1.5" style="stroke:#181818;stroke-width:0.3;" width="162.6" x="145.5" y="389.2576"/><ellipse cx="186.15" cy="398.8576" fill="#ADD1B2" rx="6.6" ry="6.6" style="stroke:#181818;stroke-width:0.6;"/><path d="M187.8094,396.3826 Q187.9031,396.2514 188.0156,396.1857 Q188.1281,396.1201 188.2594,396.1201 Q188.4844,396.1201 188.625,396.2795 Q188.7656,396.4295 188.7656,396.7951 L188.7656,397.667 Q188.7656,398.0326 188.625,398.192 Q188.4844,398.3514 188.2594,398.3514 Q188.0531,398.3514 187.9313,398.2295 Q187.8094,398.117 187.7438,397.8076 Q187.7156,397.592 187.6031,397.4795 Q187.4063,397.2545 187.0406,397.1232 Q186.675,396.992 186.3,396.992 Q185.8406,396.992 185.4562,397.1889 Q185.0812,397.3857 184.7813,397.8357 Q184.4906,398.2857 184.4906,398.9045 L184.4906,399.5607 Q184.4906,400.3014 185.025,400.7982 Q185.5594,401.2857 186.5156,401.2857 Q187.0781,401.2857 187.4719,401.1357 Q187.7062,401.042 187.9594,400.7795 Q188.1188,400.6201 188.2031,400.5732 Q188.2969,400.5264 188.4188,400.5264 Q188.6156,400.5264 188.7656,400.6857 Q188.925,400.8357 188.925,401.042 Q188.925,401.2482 188.7188,401.492 Q188.4188,401.8389 187.9406,402.0357 Q187.2938,402.3076 186.5156,402.3076 Q185.6063,402.3076 184.8844,401.9326 Q184.2938,401.6326 183.8813,400.9951 Q183.4688,400.3482 183.4688,399.5795 L183.4688,398.8857 Q183.4688,398.0889 183.8344,397.4045 Q184.2094,396.7107 184.8656,396.3451 Q185.5219,395.9701 186.2625,395.9701 Q186.7031,395.9701 187.0875,396.0732 Q187.4813,396.167 187.8094,396.3826 Z " fill="#000000"/><text fill="#000000" font-family="sans-serif" font-size="8.4" lengthAdjust="spacing" textLength="76.2" x="198.45" y="402.3357">HomeViewController</text><line style="stroke:#181818;stroke-width:0.3;" x1="146.1" x2="307.5" y1="408.4576" y2="408.4576"/><rect fill="none" height="3.6" style="stroke:#C82930;stroke-width:0.6;" width="3.6" x="150.3" y="415.5439"/><text fill="#000000" font-family="sans-serif" font-size="8.4" lengthAdjust="spacing" textLength="64.2" x="157.5" y="419.9221">gameTitle: String</text><rect fill="none" height="3.6" style="stroke:#C82930;stroke-width:0.6;" width="3.6" x="150.3" y="426.7166"/><text fill="#000000" font-family="sans-serif" font-size="8.4" lengthAdjust="spacing" textLength="118.2" x="157.5" y="431.0947">fullScreenCheckBox: CheckBox</text><line style="stroke:#181818;stroke-width:0.6;" x1="146.1" x2="307.5" y1="435.6029" y2="435.6029"/><polygon fill="#FFFF44" points="152.1,441.4893,154.5,443.8893,152.1,446.2893,149.7,443.8893" style="stroke:#B38D22;stroke-width:0.6;"/><text fill="#000000" font-family="sans-serif" font-size="8.4" lengthAdjust="spacing" textLength="78.6" x="157.5" y="447.0674">onButtonClick(): void</text><polygon fill="#FFFF44" points="152.1,452.6619,154.5,455.0619,152.1,457.4619,149.7,455.0619" style="stroke:#B38D22;stroke-width:0.6;"/><text fill="#000000" font-family="sans-serif" font-size="8.4" lengthAdjust="spacing" textLength="103.2" x="157.5" y="458.24">onFullScreenToggle(): void</text><ellipse cx="152.1" cy="466.8346" fill="#84BE84" rx="1.8" ry="1.8" style="stroke:#038048;stroke-width:0.6;"/><text fill="#000000" font-family="sans-serif" font-size="8.4" lengthAdjust="spacing" textLength="99" x="157.5" y="469.4127">setGameTitle(String): void</text><ellipse cx="152.1" cy="478.0072" fill="#84BE84" rx="1.8" ry="1.8" style="stroke:#038048;stroke-width:0.6;"/><text fill="#000000" font-family="sans-serif" font-size="8.4" lengthAdjust="spacing" textLength="147" x="157.5" y="480.5854">setFullScreenCheckBox(boolean): void</text></g><!--class GameViewController--><g id="elem_GameViewController"><rect codeLine="81" fill="#F1F1F1" height="51.1453" id="GameViewController" rx="1.5" ry="1.5" style="stroke:#181818;stroke-width:0.3;" width="96.6" x="27.9" y="411.7576"/><ellipse cx="36.9" cy="421.3576" fill="#ADD1B2" rx="6.6" ry="6.6" style="stroke:#181818;stroke-width:0.6;"/><path d="M38.5594,418.8826 Q38.6531,418.7514 38.7656,418.6857 Q38.8781,418.6201 39.0094,418.6201 Q39.2344,418.6201 39.375,418.7795 Q39.5156,418.9295 39.5156,419.2951 L39.5156,420.167 Q39.5156,420.5326 39.375,420.692 Q39.2344,420.8514 39.0094,420.8514 Q38.8031,420.8514 38.6813,420.7295 Q38.5594,420.617 38.4938,420.3076 Q38.4656,420.092 38.3531,419.9795 Q38.1563,419.7545 37.7906,419.6232 Q37.425,419.492 37.05,419.492 Q36.5906,419.492 36.2063,419.6889 Q35.8313,419.8857 35.5313,420.3357 Q35.2406,420.7857 35.2406,421.4045 L35.2406,422.0607 Q35.2406,422.8014 35.775,423.2982 Q36.3094,423.7857 37.2656,423.7857 Q37.8281,423.7857 38.2219,423.6357 Q38.4563,423.542 38.7094,423.2795 Q38.8688,423.1201 38.9531,423.0732 Q39.0469,423.0264 39.1687,423.0264 Q39.3656,423.0264 39.5156,423.1857 Q39.675,423.3357 39.675,423.542 Q39.675,423.7482 39.4688,423.992 Q39.1687,424.3389 38.6906,424.5357 Q38.0437,424.8076 37.2656,424.8076 Q36.3562,424.8076 35.6344,424.4326 Q35.0437,424.1326 34.6313,423.4951 Q34.2188,422.8482 34.2188,422.0795 L34.2188,421.3857 Q34.2188,420.5889 34.5844,419.9045 Q34.9594,419.2107 35.6156,418.8451 Q36.2719,418.4701 37.0125,418.4701 Q37.4531,418.4701 37.8375,418.5732 Q38.2312,418.667 38.5594,418.8826 Z " fill="#000000"/><text fill="#000000" font-family="sans-serif" font-size="8.4" lengthAdjust="spacing" textLength="77.4" x="45.3" y="424.8357">GameViewController</text><line style="stroke:#181818;stroke-width:0.3;" x1="28.5" x2="123.9" y1="430.9576" y2="430.9576"/><rect fill="none" height="3.6" style="stroke:#C82930;stroke-width:0.6;" width="3.6" x="32.7" y="438.0439"/><text fill="#000000" font-family="sans-serif" font-size="8.4" lengthAdjust="spacing" textLength="60.6" x="39.9" y="442.4221">canvas: Canvas</text><line style="stroke:#181818;stroke-width:0.6;" x1="28.5" x2="123.9" y1="446.9303" y2="446.9303"/><ellipse cx="34.5" cy="455.8166" fill="#84BE84" rx="1.8" ry="1.8" style="stroke:#038048;stroke-width:0.6;"/><text fill="#000000" font-family="sans-serif" font-size="8.4" lengthAdjust="spacing" textLength="80.4" x="39.9" y="458.3947">getCanvas(): Canvas</text></g><!--class HomeView--><g id="elem_HomeView"><rect codeLine="87" fill="#F1F1F1" height="62.318" id="HomeView" rx="1.5" ry="1.5" style="stroke:#181818;stroke-width:0.3;" width="133.2" x="329.4" y="406.0576"/><ellipse cx="373.95" cy="415.6576" fill="#ADD1B2" rx="6.6" ry="6.6" style="stroke:#181818;stroke-width:0.6;"/><path d="M375.6094,413.1826 Q375.7031,413.0514 375.8156,412.9857 Q375.9281,412.9201 376.0594,412.9201 Q376.2844,412.9201 376.425,413.0795 Q376.5656,413.2295 376.5656,413.5951 L376.5656,414.467 Q376.5656,414.8326 376.425,414.992 Q376.2844,415.1514 376.0594,415.1514 Q375.8531,415.1514 375.7313,415.0295 Q375.6094,414.917 375.5438,414.6076 Q375.5156,414.392 375.4031,414.2795 Q375.2063,414.0545 374.8406,413.9232 Q374.475,413.792 374.1,413.792 Q373.6406,413.792 373.2562,413.9889 Q372.8812,414.1857 372.5813,414.6357 Q372.2906,415.0857 372.2906,415.7045 L372.2906,416.3607 Q372.2906,417.1014 372.825,417.5982 Q373.3594,418.0857 374.3156,418.0857 Q374.8781,418.0857 375.2719,417.9357 Q375.5062,417.842 375.7594,417.5795 Q375.9188,417.4201 376.0031,417.3732 Q376.0969,417.3264 376.2188,417.3264 Q376.4156,417.3264 376.5656,417.4857 Q376.725,417.6357 376.725,417.842 Q376.725,418.0482 376.5188,418.292 Q376.2188,418.6389 375.7406,418.8357 Q375.0938,419.1076 374.3156,419.1076 Q373.4063,419.1076 372.6844,418.7326 Q372.0938,418.4326 371.6813,417.7951 Q371.2688,417.1482 371.2688,416.3795 L371.2688,415.6857 Q371.2688,414.8889 371.6344,414.2045 Q372.0094,413.5107 372.6656,413.1451 Q373.3219,412.7701 374.0625,412.7701 Q374.5031,412.7701 374.8875,412.8732 Q375.2813,412.967 375.6094,413.1826 Z " fill="#000000"/><text fill="#000000" font-family="sans-serif" font-size="8.4" lengthAdjust="spacing" textLength="39" x="386.25" y="419.1357">HomeView</text><line style="stroke:#181818;stroke-width:0.3;" x1="330" x2="462" y1="425.2576" y2="425.2576"/><line style="stroke:#181818;stroke-width:0.3;" x1="330" x2="462" y1="430.0576" y2="430.0576"/><ellipse cx="336" cy="438.9439" fill="#84BE84" rx="1.8" ry="1.8" style="stroke:#038048;stroke-width:0.6;"/><text fill="#000000" font-family="sans-serif" font-size="8.4" lengthAdjust="spacing" textLength="45" x="341.4" y="441.5221">HomeView()</text><ellipse cx="336" cy="450.1166" fill="#84BE84" rx="1.8" ry="1.8" style="stroke:#038048;stroke-width:0.6;"/><text fill="#000000" font-family="sans-serif" font-size="8.4" lengthAdjust="spacing" textLength="64.2" x="341.4" y="452.6947">onViewInit(): void</text><ellipse cx="336" cy="461.2893" fill="#84BE84" rx="1.8" ry="1.8" style="stroke:#038048;stroke-width:0.6;"/><text fill="#000000" font-family="sans-serif" font-size="8.4" lengthAdjust="spacing" textLength="117.6" x="341.4" y="463.8674">onKeyPressed(KeyEvent): void</text></g><!--class GameView--><g id="elem_GameView"><rect codeLine="93" fill="#F1F1F1" height="73.4906" id="GameView" rx="1.5" ry="1.5" style="stroke:#181818;stroke-width:0.3;" width="123" x="483.9" y="400.6576"/><ellipse cx="522.75" cy="410.2576" fill="#ADD1B2" rx="6.6" ry="6.6" style="stroke:#181818;stroke-width:0.6;"/><path d="M524.4094,407.7826 Q524.5031,407.6514 524.6156,407.5857 Q524.7281,407.5201 524.8594,407.5201 Q525.0844,407.5201 525.225,407.6795 Q525.3656,407.8295 525.3656,408.1951 L525.3656,409.067 Q525.3656,409.4326 525.225,409.592 Q525.0844,409.7514 524.8594,409.7514 Q524.6531,409.7514 524.5313,409.6295 Q524.4094,409.517 524.3438,409.2076 Q524.3156,408.992 524.2031,408.8795 Q524.0063,408.6545 523.6406,408.5232 Q523.275,408.392 522.9,408.392 Q522.4406,408.392 522.0563,408.5889 Q521.6813,408.7857 521.3813,409.2357 Q521.0906,409.6857 521.0906,410.3045 L521.0906,410.9607 Q521.0906,411.7014 521.625,412.1982 Q522.1594,412.6857 523.1156,412.6857 Q523.6781,412.6857 524.0719,412.5357 Q524.3063,412.442 524.5594,412.1795 Q524.7188,412.0201 524.8031,411.9732 Q524.8969,411.9264 525.0188,411.9264 Q525.2156,411.9264 525.3656,412.0857 Q525.525,412.2357 525.525,412.442 Q525.525,412.6482 525.3188,412.892 Q525.0188,413.2389 524.5406,413.4357 Q523.8938,413.7076 523.1156,413.7076 Q522.2063,413.7076 521.4844,413.3326 Q520.8938,413.0326 520.4812,412.3951 Q520.0688,411.7482 520.0688,410.9795 L520.0688,410.2857 Q520.0688,409.4889 520.4344,408.8045 Q520.8094,408.1107 521.4656,407.7451 Q522.1219,407.3701 522.8625,407.3701 Q523.3031,407.3701 523.6875,407.4732 Q524.0813,407.567 524.4094,407.7826 Z " fill="#000000"/><text fill="#000000" font-family="sans-serif" font-size="8.4" lengthAdjust="spacing" textLength="40.2" x="535.05" y="413.7357">GameView</text><line style="stroke:#181818;stroke-width:0.3;" x1="484.5" x2="606.3" y1="419.8576" y2="419.8576"/><line style="stroke:#181818;stroke-width:0.3;" x1="484.5" x2="606.3" y1="424.6576" y2="424.6576"/><ellipse cx="490.5" cy="433.5439" fill="#84BE84" rx="1.8" ry="1.8" style="stroke:#038048;stroke-width:0.6;"/><text fill="#000000" font-family="sans-serif" font-size="8.4" lengthAdjust="spacing" textLength="46.2" x="495.9" y="436.1221">GameView()</text><ellipse cx="490.5" cy="444.7166" fill="#84BE84" rx="1.8" ry="1.8" style="stroke:#038048;stroke-width:0.6;"/><text fill="#000000" font-family="sans-serif" font-size="8.4" lengthAdjust="spacing" textLength="90.6" x="495.9" y="447.2947">onViewDisplayed(): void</text><rect fill="#F24D5C" height="3.6" style="stroke:#C82930;stroke-width:0.6;" width="3.6" x="488.7" y="454.0893"/><text fill="#000000" font-family="sans-serif" font-size="8.4" lengthAdjust="spacing" textLength="107.4" x="495.9" y="458.4674">draw(Canvas, Number): void</text><ellipse cx="490.5" cy="467.0619" fill="#84BE84" rx="1.8" ry="1.8" style="stroke:#038048;stroke-width:0.6;"/><text fill="#000000" font-family="sans-serif" font-size="8.4" lengthAdjust="spacing" textLength="51.6" x="495.9" y="469.64">render(): void</text></g><!--class GUIController--><g id="elem_GUIController"><rect codeLine="107" fill="#F1F1F1" height="39.9727" id="GUIController" rx="1.5" ry="1.5" style="stroke:#181818;stroke-width:0.3;" width="84.6" x="513.3" y="692.8576"/><ellipse cx="528.78" cy="702.4576" fill="#ADD1B2" rx="6.6" ry="6.6" style="stroke:#181818;stroke-width:0.6;"/><path d="M530.4394,699.9826 Q530.5331,699.8514 530.6456,699.7857 Q530.7581,699.7201 530.8894,699.7201 Q531.1144,699.7201 531.255,699.8795 Q531.3956,700.0295 531.3956,700.3951 L531.3956,701.267 Q531.3956,701.6326 531.255,701.792 Q531.1144,701.9514 530.8894,701.9514 Q530.6831,701.9514 530.5613,701.8295 Q530.4394,701.717 530.3738,701.4076 Q530.3456,701.192 530.2331,701.0795 Q530.0363,700.8545 529.6706,700.7232 Q529.305,700.592 528.93,700.592 Q528.4706,700.592 528.0863,700.7889 Q527.7113,700.9857 527.4113,701.4357 Q527.1206,701.8857 527.1206,702.5045 L527.1206,703.1607 Q527.1206,703.9014 527.655,704.3982 Q528.1894,704.8857 529.1456,704.8857 Q529.7081,704.8857 530.1019,704.7357 Q530.3363,704.642 530.5894,704.3795 Q530.7488,704.2201 530.8331,704.1732 Q530.9269,704.1264 531.0487,704.1264 Q531.2456,704.1264 531.3956,704.2857 Q531.555,704.4357 531.555,704.642 Q531.555,704.8482 531.3488,705.092 Q531.0487,705.4389 530.5706,705.6357 Q529.9237,705.9076 529.1456,705.9076 Q528.2362,705.9076 527.5144,705.5326 Q526.9237,705.2326 526.5112,704.5951 Q526.0988,703.9482 526.0988,703.1795 L526.0988,702.4857 Q526.0988,701.6889 526.4644,701.0045 Q526.8394,700.3107 527.4956,699.9451 Q528.1519,699.5701 528.8925,699.5701 Q529.3331,699.5701 529.7175,699.6732 Q530.1112,699.767 530.4394,699.9826 Z " fill="#000000"/><text fill="#000000" font-family="sans-serif" font-size="8.4" lengthAdjust="spacing" textLength="51" x="538.62" y="705.9357">GUIController</text><line style="stroke:#181818;stroke-width:0.3;" x1="513.9" x2="597.3" y1="712.0576" y2="712.0576"/><line style="stroke:#181818;stroke-width:0.3;" x1="513.9" x2="597.3" y1="716.8576" y2="716.8576"/><ellipse cx="519.9" cy="725.7439" fill="#84BE84" rx="1.8" ry="1.8" style="stroke:#038048;stroke-width:0.6;"/><text fill="#000000" font-family="sans-serif" font-size="8.4" lengthAdjust="spacing" textLength="69" x="525.3" y="728.3221">update(long): void</text></g><!--class GUIEngine--><g id="elem_GUIEngine"><rect codeLine="111" fill="#F1F1F1" height="95.8359" id="GUIEngine" rx="1.5" ry="1.5" style="stroke:#181818;stroke-width:0.3;" width="102.6" x="504.3" y="560.2576"/><ellipse cx="532.95" cy="569.8576" fill="#ADD1B2" rx="6.6" ry="6.6" style="stroke:#181818;stroke-width:0.6;"/><path d="M534.6094,567.3826 Q534.7031,567.2514 534.8156,567.1857 Q534.9281,567.1201 535.0594,567.1201 Q535.2844,567.1201 535.425,567.2795 Q535.5656,567.4295 535.5656,567.7951 L535.5656,568.667 Q535.5656,569.0326 535.425,569.192 Q535.2844,569.3514 535.0594,569.3514 Q534.8531,569.3514 534.7312,569.2295 Q534.6094,569.117 534.5437,568.8076 Q534.5156,568.592 534.4031,568.4795 Q534.2063,568.2545 533.8406,568.1232 Q533.475,567.992 533.1,567.992 Q532.6406,567.992 532.2563,568.1889 Q531.8813,568.3857 531.5813,568.8357 Q531.2906,569.2857 531.2906,569.9045 L531.2906,570.5607 Q531.2906,571.3014 531.825,571.7982 Q532.3594,572.2857 533.3156,572.2857 Q533.8781,572.2857 534.2719,572.1357 Q534.5063,572.042 534.7594,571.7795 Q534.9187,571.6201 535.0031,571.5732 Q535.0969,571.5264 535.2188,571.5264 Q535.4156,571.5264 535.5656,571.6857 Q535.725,571.8357 535.725,572.042 Q535.725,572.2482 535.5188,572.492 Q535.2188,572.8389 534.7406,573.0357 Q534.0938,573.3076 533.3156,573.3076 Q532.4063,573.3076 531.6844,572.9326 Q531.0938,572.6326 530.6813,571.9951 Q530.2688,571.3482 530.2688,570.5795 L530.2688,569.8857 Q530.2688,569.0889 530.6344,568.4045 Q531.0094,567.7107 531.6656,567.3451 Q532.3219,566.9701 533.0625,566.9701 Q533.5031,566.9701 533.8875,567.0732 Q534.2813,567.167 534.6094,567.3826 Z " fill="#000000"/><text fill="#000000" font-family="sans-serif" font-size="8.4" lengthAdjust="spacing" textLength="40.2" x="545.25" y="573.3357">GUIEngine</text><line style="stroke:#181818;stroke-width:0.3;" x1="504.9" x2="606.3" y1="579.4576" y2="579.4576"/><rect fill="none" height="3.6" style="stroke:#C82930;stroke-width:0.6;" width="3.6" x="509.1" y="586.5439"/><text fill="#000000" font-family="sans-serif" font-size="8.4" lengthAdjust="spacing" textLength="79.8" x="516.3" y="590.9221">AnimationTimer timer</text><line style="stroke:#181818;stroke-width:0.6;" x1="504.9" x2="606.3" y1="595.4303" y2="595.4303"/><ellipse cx="510.9" cy="604.3166" fill="#84BE84" rx="1.8" ry="1.8" style="stroke:#038048;stroke-width:0.6;"/><text fill="#000000" font-family="sans-serif" font-size="8.4" lengthAdjust="spacing" textLength="55.2" x="516.3" y="606.8947">tick(long): void</text><ellipse cx="510.9" cy="615.4893" fill="#84BE84" rx="1.8" ry="1.8" style="stroke:#038048;stroke-width:0.6;"/><text fill="#000000" font-family="sans-serif" font-size="8.4" lengthAdjust="spacing" textLength="43.2" x="516.3" y="618.0674">start(): void</text><ellipse cx="510.9" cy="626.6619" fill="#84BE84" rx="1.8" ry="1.8" style="stroke:#038048;stroke-width:0.6;"/><text fill="#000000" font-family="sans-serif" font-size="8.4" lengthAdjust="spacing" textLength="42.6" x="516.3" y="629.24">stop(): void</text><ellipse cx="510.9" cy="637.8346" fill="#84BE84" rx="1.8" ry="1.8" style="stroke:#038048;stroke-width:0.6;"/><text fill="#000000" font-family="sans-serif" font-size="8.4" lengthAdjust="spacing" textLength="87" x="516.3" y="640.4127">getComputedFPS(): int</text><ellipse cx="510.9" cy="649.0072" fill="#84BE84" rx="1.8" ry="1.8" style="stroke:#038048;stroke-width:0.6;"/><text fill="#000000" font-family="sans-serif" font-size="8.4" lengthAdjust="spacing" textLength="48" x="516.3" y="651.5854">getFPS(): int</text></g><!--link GameInterface to Engine--><g id="link_GameInterface_Engine"><path codeLine="124" d="M730.83,288.4576 C742.02,288.4576 754.416,288.4576 766.134,288.4576 " fill="none" id="GameInterface-Engine" style="stroke:#181818;stroke-width:0.6;"/><polygon fill="none" points="744.9,278.3449,747.3,280.7449,744.9,283.1449,742.5,280.7449" style="stroke:#B38D22;stroke-width:0.6;"/><text fill="#000000" font-family="sans-serif" font-size="7.8" lengthAdjust="spacing" textLength="6" x="749.1" y="284.2746">ui</text><text fill="#000000" font-family="sans-serif" font-size="7.8" lengthAdjust="spacing" textLength="4.2" x="735.6965" y="286.0775">1</text></g><!--link Engine to GameController--><g id="link_Engine_GameController"><path codeLine="125" d="M861.042,288.4576 C880.614,288.4576 903.108,288.4576 922.086,288.4576 " fill="none" id="Engine-GameController" style="stroke:#181818;stroke-width:0.6;"/><polygon fill="none" points="875.1,278.3449,877.5,280.7449,875.1,283.1449,872.7,280.7449" style="stroke:#B38D22;stroke-width:0.6;"/><text fill="#000000" font-family="sans-serif" font-size="7.8" lengthAdjust="spacing" textLength="31.8" x="879.3" y="284.2746">controller</text><text fill="#000000" font-family="sans-serif" font-size="7.8" lengthAdjust="spacing" textLength="4.2" x="913.3264" y="286.1502">1</text></g><!--link CLIController to GameController--><g id="link_CLIController_GameController"><path codeLine="128" d="M922.494,150.2296 C932.292,182.5636 944.4062,222.5377 953.4962,252.5377 " fill="none" id="CLIController-to-GameController" style="stroke:#181818;stroke-width:0.6;"/><polygon fill="none" points="956.628,262.8736,956.9415,251.4937,950.0509,253.5816,956.628,262.8736" style="stroke:#181818;stroke-width:0.6;"/></g><!--link CLIEngine to Engine--><g id="link_CLIEngine_Engine"><path codeLine="129" d="M814.092,150.2296 C813.99,178.8616 813.8726,210.7997 813.7646,241.0397 " fill="none" id="CLIEngine-to-Engine" style="stroke:#181818;stroke-width:0.6;"/><polygon fill="none" points="813.726,251.8396,817.3645,241.0525,810.1646,241.0268,813.726,251.8396" style="stroke:#181818;stroke-width:0.6;"/></g><!--link CLI to GameInterface--><g id="link_CLI_GameInterface"><path codeLine="130" d="M693,139.1956 C693,171.6256 693,225.1996 693,257.5456 " fill="none" id="CLI-to-GameInterface" style="stroke:#181818;stroke-width:0.6;stroke-dasharray:7.0,7.0;"/><polygon fill="none" points="693,268.3456,696.6,257.5456,689.4,257.5456,693,268.3456" style="stroke:#181818;stroke-width:0.6;"/></g><!--link CLI to CLIController--><g id="link_CLI_CLIController"><path codeLine="131" d="M702.948,98.8456 C715.056,76.9276 737.754,43.0636 768.6,28.6576 C805.566,11.3956 825.012,8.3536 860.4,28.6576 C882.372,41.2636 896.076,66.9436 904.002,87.7096 " fill="none" id="CLI-CLIController" style="stroke:#181818;stroke-width:0.6;"/><polygon fill="none" points="782.1,7.1449,784.5,9.5449,782.1,11.9449,779.7,9.5449" style="stroke:#B38D22;stroke-width:0.6;"/><text fill="#000000" font-family="sans-serif" font-size="7.8" lengthAdjust="spacing" textLength="31.8" x="786.3" y="13.0746">controller</text><text fill="#000000" font-family="sans-serif" font-size="7.8" lengthAdjust="spacing" textLength="4.2" x="898.2838" y="81.0596">1</text></g><!--link CLI to CLIEngine--><g id="link_CLI_CLIEngine"><path codeLine="132" d="M726.6,118.9576 C742.782,118.9576 762.192,118.9576 778.626,118.9576 " fill="none" id="CLI-CLIEngine" style="stroke:#181818;stroke-width:0.6;"/><polygon fill="none" points="740.7,108.8449,743.1,111.2449,740.7,113.6449,738.3,111.2449" style="stroke:#B38D22;stroke-width:0.6;"/><text fill="#000000" font-family="sans-serif" font-size="7.8" lengthAdjust="spacing" textLength="22.8" x="744.9" y="114.7746">engine</text><text fill="#000000" font-family="sans-serif" font-size="7.8" lengthAdjust="spacing" textLength="4.2" x="769.8345" y="116.5687">1</text></g><!--reverse link GameController to GUIController--><g id="link_GameController_GUIController"><path codeLine="135" d="M934.4816,322.2076 C880.1636,382.5676 744.192,531.9436 617.4,656.2576 C604.674,668.7376 589.908,682.1716 578.004,692.7676 " fill="none" id="GameController-backto-GUIController" style="stroke:#181818;stroke-width:0.6;"/><polygon fill="none" points="941.706,314.1796,931.8056,319.7995,937.1576,324.6157,941.706,314.1796" style="stroke:#181818;stroke-width:0.6;"/></g><!--reverse link Engine to GUIEngine--><g id="link_Engine_GUIEngine"><path codeLine="136" d="M777.5832,333.5346 C730.8792,391.2066 646.188,495.7876 594.174,560.0236 " fill="none" id="Engine-backto-GUIEngine" style="stroke:#181818;stroke-width:0.6;"/><polygon fill="none" points="784.38,325.1416,774.7855,331.269,780.3808,335.8003,784.38,325.1416" style="stroke:#181818;stroke-width:0.6;"/></g><!--reverse link GameInterface to GameView--><g id="link_GameInterface_GameView"><path codeLine="137" d="M665.7612,316.2964 C642.3972,339.6604 610.506,371.5516 581.544,400.5136 " fill="none" id="GameInterface-backto-GameView" style="stroke:#181818;stroke-width:0.6;stroke-dasharray:7.0,7.0;"/><polygon fill="none" points="673.398,308.6596,663.2157,313.7508,668.3068,318.842,673.398,308.6596" style="stroke:#181818;stroke-width:0.6;"/></g><!--link GameView to GUIController--><g id="link_GameView_GUIController"><path codeLine="138" d="M502.374,473.8816 C479.88,493.1956 456.426,514.3096 453.6,520.6576 C429.108,575.7256 422.928,604.3816 453.6,656.2576 C466.512,678.0916 491.274,691.9996 513.168,700.5076 " fill="none" id="GameView-GUIController" style="stroke:#181818;stroke-width:0.6;"/><polygon fill="none" points="457.2,605.6449,459.6,608.0449,457.2,610.4449,454.8,608.0449" style="stroke:#B38D22;stroke-width:0.6;"/><text fill="#000000" font-family="sans-serif" font-size="7.8" lengthAdjust="spacing" textLength="31.8" x="461.4" y="611.5746">controller</text><text fill="#000000" font-family="sans-serif" font-size="7.8" lengthAdjust="spacing" textLength="4.2" x="504.3756" y="696.9355">1</text></g><!--link GameView to GUIEngine--><g id="link_GameView_GUIEngine"><path codeLine="139" d="M547.566,473.8696 C549.072,499.0336 551.106,532.8916 552.75,560.2516 " fill="none" id="GameView-GUIEngine" style="stroke:#181818;stroke-width:0.6;"/><polygon fill="none" points="553.8,507.5449,556.2,509.9449,553.8,512.3449,551.4,509.9449" style="stroke:#B38D22;stroke-width:0.6;"/><text fill="#000000" font-family="sans-serif" font-size="7.8" lengthAdjust="spacing" textLength="22.8" x="558" y="513.4746">engine</text><text fill="#000000" font-family="sans-serif" font-size="7.8" lengthAdjust="spacing" textLength="4.2" x="548.0782" y="553.4231">1</text></g><!--link GUIEngine to GUIController--><!--link View to ViewController--><g id="link_View_ViewController"><path codeLine="142" d="M350.094,172.5796 C312.174,208.0336 265.068,252.0736 241.572,274.0456 " fill="none" id="View-ViewController" style="stroke:#181818;stroke-width:0.6;"/><polygon fill="none" points="325.8,199.1449,328.2,201.5449,325.8,203.9449,323.4,201.5449" style="stroke:#B38D22;stroke-width:0.6;"/><text fill="#000000" font-family="sans-serif" font-size="7.8" lengthAdjust="spacing" textLength="31.8" x="330" y="205.0746">controller</text><text fill="#000000" font-family="sans-serif" font-size="7.8" lengthAdjust="spacing" textLength="4.2" x="240.6192" y="267.285">1</text></g><!--link ViewManager to View--><g id="link_ViewManager_View"><path codeLine="143" d="M290.286,118.9576 C305.76,118.9576 322.206,118.9576 337.71,118.9576 " fill="none" id="ViewManager-View" style="stroke:#181818;stroke-width:0.6;"/><rect fill="none" height="3.6" style="stroke:#C82930;stroke-width:0.6;" width="3.6" x="302.25" y="110.0449"/><text fill="#000000" font-family="sans-serif" font-size="7.8" lengthAdjust="spacing" textLength="18.6" x="308.25" y="114.7746">views</text><text fill="#000000" font-family="sans-serif" font-size="7.8" lengthAdjust="spacing" textLength="3" x="329.9672" y="116.8308">*</text></g><!--reverse link ViewController to HomeViewController--><g id="link_ViewController_HomeViewController"><path codeLine="146" d="M226.8,313.7416 C226.8,333.3376 226.8,359.2516 226.8,389.2576 " fill="none" id="ViewController-backto-HomeViewController" style="stroke:#181818;stroke-width:0.6;"/><polygon fill="none" points="226.8,302.9416,223.2,313.7416,230.4,313.7416,226.8,302.9416" style="stroke:#181818;stroke-width:0.6;"/></g><!--reverse link View to HomeView--><g id="link_View_HomeView"><path codeLine="147" d="M404.6325,183.2474 C402.3585,250.0334 398.886,351.9196 397.044,405.9556 " fill="none" id="View-backto-HomeView" style="stroke:#181818;stroke-width:0.6;"/><polygon fill="none" points="405,172.4536,401.0346,183.1249,408.2304,183.3699,405,172.4536" style="stroke:#181818;stroke-width:0.6;"/></g><!--reverse link ViewController to GameViewController--><g id="link_ViewController_GameViewController"><path codeLine="148" d="M190.6644,308.2449 C171.1884,319.2069 154.344,330.5176 135,349.6576 C116.4,368.0536 100.176,393.1636 89.508,411.6796 " fill="none" id="ViewController-backto-GameViewController" style="stroke:#181818;stroke-width:0.6;"/><polygon fill="none" points="200.076,302.9476,188.8986,305.1077,192.4301,311.3821,200.076,302.9476" style="stroke:#181818;stroke-width:0.6;"/></g><!--reverse link View to GameView--><g id="link_View_GameView"><path codeLine="149" d="M434.2435,182.3496 C462.5095,247.0176 505.266,344.8276 529.662,400.6516 " fill="none" id="View-backto-GameView" style="stroke:#181818;stroke-width:0.6;"/><polygon fill="none" points="429.918,172.4536,430.9448,183.7914,437.5421,180.9078,429.918,172.4536" style="stroke:#181818;stroke-width:0.6;"/></g><!--SRC=[bLP1Jzim5BxdLrXmM1W4QTSU9a5NeDhOq5hOOTh198zWaTgHuvGXrl- -vzXndCGfeeSqpllix_FdPp-ND7sYEH3WEUD0NYE2FtfVAKbJHTA2LXMvf1kO2wwaA0gG5gD_X-HQy0p8HZ_TroHnhyVajHrhH-eoemhYGl3yQ4QsWcKDRXU5E1U-7ZEK-HJNx8IaJirHcAjILAhOfmb0HBaVeLZwD2MNSGNoWQRGkBDqBL-m1BH5nltUsB-qdgS5itWpv_ctPT3cuydfJCnXlzEEBE3nEudsEUHetkL9NhDm4junUEwbtWt5iHIHGgXmwkMWVc9GSnci5mDExmlGuSKM8rLWRe9hoYLdQZBuXLLbGLyW2oA-mikDXAh2CBusF1Emdr00dSA5zuUczvF5ee3N6tAtNFnQULvT_RXUkCRbcMtqbaaFTqqvhe2VU0bvnOJ0HTvXlkCRJs7cGpqWHdCChlHVQ3aIlr_SsxKj1QxNqh9eFqCyc8YW6ewuUOxzb92p2ZUZxXqtHfmq8usHd6vPZjjaBGmkaFIWBkgYMAKIWCVtGk0gyS3IjBcxHPxAiyzOUoKsC5mj1p7Mv7Y4h9ag6WCbu_aW_k1Kp1yXVJeNVsUaVUj3arxp4DFhl5PAy7cXT-fmYYscc-LQv7a1GM3ZnsMhD3P29u4N8yaX0pqJEyCqnnk6fPHlQOKcDF_xB6YE0GFJinfq676tYpLWF7O1BtNVF2RUSH1CcZ0IqWOcX4mVISQvJDBdsBXmGhxNctiieK7PWOFQ21sT7QjICWMzOyCa1wabyxQJmSNuyIYqUs1OZQmHjyl9H9YiT65BRySLpyWzuso3Pv3WQxP14gMV-vCgMFZUAgDxIccNgc9JrWgoYvkL1Z6lQZbC8BRhAka7wsHa9viKyA2IWqy7WvlA3BT-pHnAilonWtcMQrnttzBZuxqbwjzLaamyy-JVvq7VgBjaE8HfwmWvrTzERIydh0bvSlfC0pLZhENJEEi3AiPRHTHFfAGk0tgx5B5ngzRjnjEw70jsqSJuTxj7y1Wx5kofq0xzVcHP1lnFqXyvYhnn1kVbWDIlxid1HmD7K69AbdN8DWBrofhH_-g0VZWA7DxXtfqHNk__]--></g></svg>