<?xml version="1.0" encoding="us-ascii" standalone="no"?><svg xmlns="http://www.w3.org/2000/svg" xmlns:xlink="http://www.w3.org/1999/xlink" contentStyleType="text/css" height="585px" preserveAspectRatio="none" style="width:1023px;height:585px;background:#FFFFFF;" version="1.1" viewBox="0 0 1023 585" width="1023.5px" zoomAndPan="magnify"><defs/><g><!--cluster Escape--><g id="cluster_Escape"><path d="M4.25,32.5 L30.25,32.5 A1.875,1.875 0 0 1 31.5,33.75 L35,44.3047 L973.25,44.3047 A1.25,1.25 0 0 1 974.5,45.5547 L974.5,580.25 A1.25,1.25 0 0 1 973.25,581.5 L4.25,581.5 A1.25,1.25 0 0 1 3,580.25 L3,33.75 A1.25,1.25 0 0 1 4.25,32.5 " fill="none" style="stroke:#000000;stroke-width:0.75;"/><line style="stroke:#000000;stroke-width:0.75;" x1="3" x2="35" y1="44.3047" y2="44.3047"/><text fill="#000000" font-family="sans-serif" font-size="7" font-weight="bold" lengthAdjust="spacing" textLength="25.5" x="5" y="40.7666">Escape</text></g><!--cluster Monde--><g id="cluster_Monde"><path d="M185.25,132.5 L210.25,132.5 A1.875,1.875 0 0 1 211.5,133.75 L215,144.3047 L872.75,144.3047 A1.25,1.25 0 0 1 874,145.5547 L874,568.25 A1.25,1.25 0 0 1 872.75,569.5 L185.25,569.5 A1.25,1.25 0 0 1 184,568.25 L184,133.75 A1.25,1.25 0 0 1 185.25,132.5 " fill="none" style="stroke:#000000;stroke-width:0.75;"/><line style="stroke:#000000;stroke-width:0.75;" x1="184" x2="215" y1="144.3047" y2="144.3047"/><text fill="#000000" font-family="sans-serif" font-size="7" font-weight="bold" lengthAdjust="spacing" textLength="24.5" x="186" y="140.7666">Monde</text></g><!--cluster Outils--><g id="cluster_Outils"><path d="M16.25,163.25 L37.25,163.25 A1.875,1.875 0 0 1 38.5,164.5 L42,175.0547 L170.75,175.0547 A1.25,1.25 0 0 1 172,176.3047 L172,498.75 A1.25,1.25 0 0 1 170.75,500 L16.25,500 A1.25,1.25 0 0 1 15,498.75 L15,164.5 A1.25,1.25 0 0 1 16.25,163.25 " fill="none" style="stroke:#000000;stroke-width:0.75;"/><line style="stroke:#000000;stroke-width:0.75;" x1="15" x2="42" y1="175.0547" y2="175.0547"/><text fill="#000000" font-family="sans-serif" font-size="7" font-weight="bold" lengthAdjust="spacing" textLength="20.5" x="17" y="171.5166">Outils</text></g><!--cluster gui--><g id="cluster_gui"><path d="M891.25,323.5 L902.75,323.5 A1.875,1.875 0 0 1 904,324.75 L907.5,335.3047 L957.25,335.3047 A1.25,1.25 0 0 1 958.5,336.5547 L958.5,380.25 A1.25,1.25 0 0 1 957.25,381.5 L891.25,381.5 A1.25,1.25 0 0 1 890,380.25 L890,324.75 A1.25,1.25 0 0 1 891.25,323.5 " fill="none" style="stroke:#000000;stroke-width:0.75;"/><line style="stroke:#000000;stroke-width:0.75;" x1="890" x2="907.5" y1="335.3047" y2="335.3047"/><text fill="#000000" font-family="sans-serif" font-size="7" font-weight="bold" lengthAdjust="spacing" textLength="11" x="892" y="331.7666">gui</text></g><!--cluster engine--><g id="cluster_engine"><path d="M833.25,58.5 L858.25,58.5 A1.875,1.875 0 0 1 859.5,59.75 L863,70.3047 L930.25,70.3047 A1.25,1.25 0 0 1 931.5,71.5547 L931.5,115.25 A1.25,1.25 0 0 1 930.25,116.5 L833.25,116.5 A1.25,1.25 0 0 1 832,115.25 L832,59.75 A1.25,1.25 0 0 1 833.25,58.5 " fill="none" style="stroke:#000000;stroke-width:0.75;"/><line style="stroke:#000000;stroke-width:0.75;" x1="832" x2="863" y1="70.3047" y2="70.3047"/><text fill="#000000" font-family="sans-serif" font-size="7" font-weight="bold" lengthAdjust="spacing" textLength="24.5" x="834" y="66.7666">engine</text></g><!--class ElementMonde--><g id="elem_ElementMonde"><rect codeLine="4" fill="#F1F1F1" height="83.6328" id="ElementMonde" rx="1.25" ry="1.25" style="stroke:#181818;stroke-width:0.25;" width="63.5" x="632.25" y="178"/><ellipse cx="639.75" cy="186" fill="#A9DCDF" rx="5.5" ry="5.5" style="stroke:#181818;stroke-width:0.5;"/><path d="M640.625,186.75 L638.9766,186.75 L638.7578,187.25 L638.7578,187.25 L638.9922,187.25 L639.25,187.5625 L639.25,187.75 L639.25,187.9375 L638.9922,188.25 L638.7578,188.25 L637.8125,188.25 L637.5078,188.25 L637.25,187.9375 L637.25,187.75 L637.25,187.5625 L637.5078,187.25 L637.8125,187.25 L638.9688,184.25 L638.5313,184.25 L638.0078,184.25 L637.75,183.9375 L637.75,183.75 L637.75,183.5625 L638.0078,183.25 L638.5313,183.25 L640.3672,183.25 L641.7109,187.25 L641.9922,187.25 L641.9922,187.25 L642.25,187.5625 L642.25,187.75 L642.25,187.9375 L641.9922,188.25 L641.7109,188.25 L640.7656,188.25 L640.5078,188.25 L640.25,187.9375 L640.25,187.75 L640.25,187.5625 L640.5078,187.25 L640.7656,187.25 L640.7656,187.25 L640.625,186.75 Z M640.3516,185.75 L639.75,183.9609 L639.2344,185.75 L640.3516,185.75 Z " fill="#000000"/><text fill="#000000" font-family="sans-serif" font-size="7" font-style="italic" lengthAdjust="spacing" textLength="47.5" x="646.75" y="188.8643">ElementMonde</text><line style="stroke:#181818;stroke-width:0.25;" x1="632.75" x2="695.25" y1="194" y2="194"/><polygon fill="none" points="637.75,198.6523,639.75,200.6523,637.75,202.6523,635.75,200.6523" style="stroke:#B38D22;stroke-width:0.5;"/><text fill="#000000" font-family="sans-serif" font-size="7" lengthAdjust="spacing" textLength="26.5" x="642.25" y="203.2666">double x</text><polygon fill="none" points="637.75,207.457,639.75,209.457,637.75,211.457,635.75,209.457" style="stroke:#B38D22;stroke-width:0.5;"/><text fill="#000000" font-family="sans-serif" font-size="7" lengthAdjust="spacing" textLength="27" x="642.25" y="212.0713">double y</text><polygon fill="none" points="637.75,216.2617,639.75,218.2617,637.75,220.2617,635.75,218.2617" style="stroke:#B38D22;stroke-width:0.5;"/><text fill="#000000" font-family="sans-serif" font-size="7" lengthAdjust="spacing" textLength="48" x="642.25" y="220.876">double hauteur</text><polygon fill="none" points="637.75,225.0664,639.75,227.0664,637.75,229.0664,635.75,227.0664" style="stroke:#B38D22;stroke-width:0.5;"/><text fill="#000000" font-family="sans-serif" font-size="7" lengthAdjust="spacing" textLength="46" x="642.25" y="229.6807">double largeur</text><ellipse cx="637.75" cy="247.1758" fill="#84BE84" rx="1.5" ry="1.5" style="stroke:#038048;stroke-width:0.5;"/><text fill="#000000" font-family="sans-serif" font-size="7" lengthAdjust="spacing" textLength="26.5" x="642.25" y="249.29">Monde()</text><text fill="#000000" font-family="sans-serif" font-size="7" lengthAdjust="spacing" textLength="2" x="642.25" y="258.0947">&#160;</text><line style="stroke:#181818;stroke-width:0.5;stroke-dasharray:1.0,2.0;" x1="632.75" x2="643.5" y1="237.6211" y2="237.6211"/><text fill="#000000" font-family="sans-serif" font-size="7" lengthAdjust="spacing" textLength="41" x="643.5" y="240.2354">Constructeur</text><line style="stroke:#181818;stroke-width:0.5;stroke-dasharray:1.0,2.0;" x1="684.5" x2="695.25" y1="237.6211" y2="237.6211"/></g><!--class Terrain--><g id="elem_Terrain"><rect codeLine="13" fill="#F1F1F1" height="68.0234" id="Terrain" rx="1.25" ry="1.25" style="stroke:#181818;stroke-width:0.25;" width="200.5" x="300.75" y="323.5"/><ellipse cx="387.375" cy="331.5" fill="#A9DCDF" rx="5.5" ry="5.5" style="stroke:#181818;stroke-width:0.5;"/><path d="M388.25,332.25 L386.6016,332.25 L386.3828,332.75 L386.3828,332.75 L386.6172,332.75 L386.875,333.0625 L386.875,333.25 L386.875,333.4375 L386.6172,333.75 L386.3828,333.75 L385.4375,333.75 L385.1328,333.75 L384.875,333.4375 L384.875,333.25 L384.875,333.0625 L385.1328,332.75 L385.4375,332.75 L386.5938,329.75 L386.1563,329.75 L385.6328,329.75 L385.375,329.4375 L385.375,329.25 L385.375,329.0625 L385.6328,328.75 L386.1563,328.75 L387.9922,328.75 L389.3359,332.75 L389.6172,332.75 L389.6172,332.75 L389.875,333.0625 L389.875,333.25 L389.875,333.4375 L389.6172,333.75 L389.3359,333.75 L388.3906,333.75 L388.1328,333.75 L387.875,333.4375 L387.875,333.25 L387.875,333.0625 L388.1328,332.75 L388.3906,332.75 L388.3906,332.75 L388.25,332.25 Z M387.9766,331.25 L387.375,329.4609 L386.8594,331.25 L387.9766,331.25 Z " fill="#000000"/><text fill="#000000" font-family="sans-serif" font-size="7" font-style="italic" lengthAdjust="spacing" textLength="23" x="397.625" y="334.3643">Terrain</text><line style="stroke:#181818;stroke-width:0.25;" x1="301.25" x2="500.75" y1="339.5" y2="339.5"/><ellipse cx="306.25" cy="357.457" fill="#84BE84" rx="1.5" ry="1.5" style="stroke:#038048;stroke-width:0.5;"/><text fill="#000000" font-family="sans-serif" font-size="7" lengthAdjust="spacing" textLength="187.5" x="310.75" y="359.5713">Terrain(double x, double y, double hauteur, double largeur)</text><line style="stroke:#181818;stroke-width:0.5;stroke-dasharray:1.0,2.0;" x1="301.25" x2="380.5" y1="347.9023" y2="347.9023"/><text fill="#000000" font-family="sans-serif" font-size="7" lengthAdjust="spacing" textLength="41" x="380.5" y="350.5166">Constructeur</text><line style="stroke:#181818;stroke-width:0.5;stroke-dasharray:1.0,2.0;" x1="421.5" x2="500.75" y1="347.9023" y2="347.9023"/><ellipse cx="306.25" cy="377.0664" fill="#84BE84" rx="1.5" ry="1.5" style="stroke:#038048;stroke-width:0.5;"/><text fill="#000000" font-family="sans-serif" font-size="7" lengthAdjust="spacing" textLength="80" x="310.75" y="379.1807">boolean estTraversable()</text><text fill="#000000" font-family="sans-serif" font-size="7" lengthAdjust="spacing" textLength="2" x="310.75" y="387.9854">&#160;</text><line style="stroke:#181818;stroke-width:0.5;stroke-dasharray:1.0,2.0;" x1="301.25" x2="385.5" y1="367.5117" y2="367.5117"/><text fill="#000000" font-family="sans-serif" font-size="7" lengthAdjust="spacing" textLength="31" x="385.5" y="370.126">M&#233;thodes</text><line style="stroke:#181818;stroke-width:0.5;stroke-dasharray:1.0,2.0;" x1="416.5" x2="500.75" y1="367.5117" y2="367.5117"/></g><!--class Mur--><g id="elem_Mur"><rect codeLine="21" fill="#F1F1F1" height="59.2188" id="Mur" rx="1.25" ry="1.25" style="stroke:#181818;stroke-width:0.25;" width="189.5" x="192.25" y="429.5"/><ellipse cx="278.875" cy="437.5" fill="#ADD1B2" rx="5.5" ry="5.5" style="stroke:#181818;stroke-width:0.5;"/><path d="M279.875,435.75 Q279.9766,435.5 280.0938,435.375 Q280.2109,435.25 280.3438,435.25 Q280.5781,435.25 280.7266,435.3906 Q280.875,435.5313 280.875,435.8594 L280.875,436.6406 Q280.875,436.9688 280.7344,437.1094 Q280.5938,437.25 280.375,437.25 Q280.1797,437.25 280.0547,437.1641 Q279.9297,437.0781 279.875,436.8516 Q279.8516,436.6953 279.7656,436.6094 Q279.6094,436.4453 279.3281,436.3516 Q279.0469,436.25 278.7656,436.25 Q278.4141,436.25 278.1172,436.3906 Q277.8281,436.5313 277.6016,436.8438 Q277.375,437.1563 277.375,437.5859 L277.375,438.0469 Q277.375,438.5625 277.7969,438.9063 Q278.2188,439.25 278.9688,439.25 Q279.4141,439.25 279.7266,439.1484 Q279.9063,439.0938 280.1094,438.9141 Q280.2422,438.8125 280.3125,438.7813 Q280.3828,438.75 280.4688,438.75 Q280.6328,438.75 280.75,438.8828 Q280.875,439.0078 280.875,439.1875 Q280.875,439.3594 280.7031,439.5625 Q280.4531,439.8594 280.0547,440.0234 Q279.5313,440.25 278.8906,440.25 Q278.1406,440.25 277.5391,439.9531 Q277.0547,439.7188 276.7109,439.2109 Q276.375,438.7031 276.375,438.1016 L276.375,437.5547 Q276.375,436.9297 276.6719,436.3828 Q276.9766,435.8359 277.5,435.5469 Q278.0313,435.25 278.625,435.25 Q278.9844,435.25 279.2969,435.375 Q279.6094,435.5 279.875,435.75 Z " fill="#000000"/><text fill="#000000" font-family="sans-serif" font-size="7" lengthAdjust="spacing" textLength="12" x="289.125" y="440.3643">Mur</text><line style="stroke:#181818;stroke-width:0.25;" x1="192.75" x2="381.25" y1="445.5" y2="445.5"/><ellipse cx="197.75" cy="463.457" fill="#84BE84" rx="1.5" ry="1.5" style="stroke:#038048;stroke-width:0.5;"/><text fill="#000000" font-family="sans-serif" font-size="7" lengthAdjust="spacing" textLength="176.5" x="202.25" y="465.5713">Mur(double x, double y, double hauteur, double largeur)</text><line style="stroke:#181818;stroke-width:0.5;stroke-dasharray:1.0,2.0;" x1="192.75" x2="266.5" y1="453.9023" y2="453.9023"/><text fill="#000000" font-family="sans-serif" font-size="7" lengthAdjust="spacing" textLength="41" x="266.5" y="456.5166">Constructeur</text><line style="stroke:#181818;stroke-width:0.5;stroke-dasharray:1.0,2.0;" x1="307.5" x2="381.25" y1="453.9023" y2="453.9023"/><ellipse cx="197.75" cy="483.0664" fill="#84BE84" rx="1.5" ry="1.5" style="stroke:#038048;stroke-width:0.5;"/><text fill="#000000" font-family="sans-serif" font-size="7" lengthAdjust="spacing" textLength="80" x="202.25" y="485.1807">boolean estTraversable()</text><line style="stroke:#181818;stroke-width:0.5;stroke-dasharray:1.0,2.0;" x1="192.75" x2="271.5" y1="473.5117" y2="473.5117"/><text fill="#000000" font-family="sans-serif" font-size="7" lengthAdjust="spacing" textLength="31" x="271.5" y="476.126">M&#233;thodes</text><line style="stroke:#181818;stroke-width:0.5;stroke-dasharray:1.0,2.0;" x1="302.5" x2="381.25" y1="473.5117" y2="473.5117"/></g><!--class Personnage--><g id="elem_Personnage"><rect codeLine="29" fill="#F1F1F1" height="76.8281" id="Personnage" rx="1.25" ry="1.25" style="stroke:#181818;stroke-width:0.25;" width="265.5" x="524.75" y="319"/><ellipse cx="636.125" cy="327" fill="#A9DCDF" rx="5.5" ry="5.5" style="stroke:#181818;stroke-width:0.5;"/><path d="M637,327.75 L635.3516,327.75 L635.1328,328.25 L635.1328,328.25 L635.3672,328.25 L635.625,328.5625 L635.625,328.75 L635.625,328.9375 L635.3672,329.25 L635.1328,329.25 L634.1875,329.25 L633.8828,329.25 L633.625,328.9375 L633.625,328.75 L633.625,328.5625 L633.8828,328.25 L634.1875,328.25 L635.3438,325.25 L634.9063,325.25 L634.3828,325.25 L634.125,324.9375 L634.125,324.75 L634.125,324.5625 L634.3828,324.25 L634.9063,324.25 L636.7422,324.25 L638.0859,328.25 L638.3672,328.25 L638.3672,328.25 L638.625,328.5625 L638.625,328.75 L638.625,328.9375 L638.3672,329.25 L638.0859,329.25 L637.1406,329.25 L636.8828,329.25 L636.625,328.9375 L636.625,328.75 L636.625,328.5625 L636.8828,328.25 L637.1406,328.25 L637.1406,328.25 L637,327.75 Z M636.7266,326.75 L636.125,324.9609 L635.6094,326.75 L636.7266,326.75 Z " fill="#000000"/><text fill="#000000" font-family="sans-serif" font-size="7" font-style="italic" lengthAdjust="spacing" textLength="38.5" x="646.375" y="329.8643">Personnage</text><line style="stroke:#181818;stroke-width:0.25;" x1="525.25" x2="789.75" y1="335" y2="335"/><polygon fill="none" points="530.25,339.6523,532.25,341.6523,530.25,343.6523,528.25,341.6523" style="stroke:#B38D22;stroke-width:0.5;"/><text fill="#000000" font-family="sans-serif" font-size="7" lengthAdjust="spacing" textLength="45.5" x="534.75" y="344.2666">double vitesse</text><ellipse cx="530.25" cy="361.7617" fill="#84BE84" rx="1.5" ry="1.5" style="stroke:#038048;stroke-width:0.5;"/><text fill="#000000" font-family="sans-serif" font-size="7" lengthAdjust="spacing" textLength="252.5" x="534.75" y="363.876">Personnage(double x, double y, double largeur, double hauteur, double vitesse)</text><line style="stroke:#181818;stroke-width:0.5;stroke-dasharray:1.0,2.0;" x1="525.25" x2="637" y1="352.207" y2="352.207"/><text fill="#000000" font-family="sans-serif" font-size="7" lengthAdjust="spacing" textLength="41" x="637" y="354.8213">Constructeur</text><line style="stroke:#181818;stroke-width:0.5;stroke-dasharray:1.0,2.0;" x1="678" x2="789.75" y1="352.207" y2="352.207"/><ellipse cx="530.25" cy="381.3711" fill="#84BE84" rx="1.5" ry="1.5" style="stroke:#038048;stroke-width:0.5;"/><text fill="#000000" font-family="sans-serif" font-size="7" lengthAdjust="spacing" textLength="210.5" x="534.75" y="383.4854">void d&#233;placer(TypeMouvement typeMouvement, double deltaTime)</text><ellipse cx="530.25" cy="390.1758" fill="#84BE84" rx="1.5" ry="1.5" style="stroke:#038048;stroke-width:0.5;"/><text fill="#000000" font-family="sans-serif" font-size="7" lengthAdjust="spacing" textLength="69" x="534.75" y="392.29">boolean estUnHeros()</text><line style="stroke:#181818;stroke-width:0.5;stroke-dasharray:1.0,2.0;" x1="525.25" x2="642" y1="371.8164" y2="371.8164"/><text fill="#000000" font-family="sans-serif" font-size="7" lengthAdjust="spacing" textLength="31" x="642" y="374.4307">M&#233;thodes</text><line style="stroke:#181818;stroke-width:0.5;stroke-dasharray:1.0,2.0;" x1="673" x2="789.75" y1="371.8164" y2="371.8164"/></g><!--class TypeMouvement--><g id="elem_TypeMouvement"><rect codeLine="38" fill="#F1F1F1" height="59.2188" id="TypeMouvement" rx="1.25" ry="1.25" style="stroke:#181818;stroke-width:0.25;" width="68.5" x="546.25" y="190.25"/><ellipse cx="553.75" cy="198.25" fill="#EB937F" rx="5.5" ry="5.5" style="stroke:#181818;stroke-width:0.5;"/><path d="M553,198.75 L553,199.75 L555,199.75 L555,199.25 L555,199.0078 L555.3125,198.75 L555.5,198.75 L555.6875,198.75 L556,199.0078 L556,199.25 L556,200.75 L552,200.75 L551.7578,200.75 L551.5,200.4375 L551.5,200.25 L551.5,200.0625 L551.7578,199.75 L552,199.75 L552,199.75 L552,196.75 L552,196.75 L551.7578,196.75 L551.5,196.4375 L551.5,196.25 L551.5,196.0625 L551.7578,195.75 L552,195.75 L556,195.75 L556,197.25 L556,197.4922 L555.6875,197.75 L555.5,197.75 L555.3125,197.75 L555,197.4922 L555,197.25 L555,196.75 L553,196.75 L553,197.75 L553.5,197.75 L553.5,197.5078 L553.5,197.5078 L553.8125,197.25 L554,197.25 L554.1875,197.25 L554.5,197.5078 L554.5,197.75 L554.5,198.75 L554.5,198.9922 L554.1875,199.25 L554.1875,199.25 L554,199.25 L553.8125,199.25 L553.5,198.9922 L553.5,198.9922 L553.5,198.75 L553,198.75 Z " fill="#000000"/><text fill="#000000" font-family="sans-serif" font-size="7" lengthAdjust="spacing" textLength="52.5" x="560.75" y="201.1143">TypeMouvement</text><line style="stroke:#181818;stroke-width:0.25;" x1="546.75" x2="614.25" y1="206.25" y2="206.25"/><text fill="#000000" font-family="sans-serif" font-size="7" lengthAdjust="spacing" textLength="21" x="549.25" y="215.5166">RIGHT</text><text fill="#000000" font-family="sans-serif" font-size="7" lengthAdjust="spacing" textLength="17.5" x="549.25" y="224.3213">LEFT</text><text fill="#000000" font-family="sans-serif" font-size="7" lengthAdjust="spacing" textLength="14.5" x="549.25" y="233.126">TOP</text><text fill="#000000" font-family="sans-serif" font-size="7" lengthAdjust="spacing" textLength="21.5" x="549.25" y="241.9307">DOWN</text><line style="stroke:#181818;stroke-width:0.25;" x1="546.75" x2="614.25" y1="245.4688" y2="245.4688"/></g><!--class Heros--><g id="elem_Heros"><rect codeLine="45" fill="#F1F1F1" height="59.2188" id="Heros" rx="1.25" ry="1.25" style="stroke:#181818;stroke-width:0.25;" width="196" x="399.5" y="429.5"/><ellipse cx="486.125" cy="437.5" fill="#ADD1B2" rx="5.5" ry="5.5" style="stroke:#181818;stroke-width:0.5;"/><path d="M487.125,435.75 Q487.2266,435.5 487.3438,435.375 Q487.4609,435.25 487.5938,435.25 Q487.8281,435.25 487.9766,435.3906 Q488.125,435.5313 488.125,435.8594 L488.125,436.6406 Q488.125,436.9688 487.9844,437.1094 Q487.8438,437.25 487.625,437.25 Q487.4297,437.25 487.3047,437.1641 Q487.1797,437.0781 487.125,436.8516 Q487.1016,436.6953 487.0156,436.6094 Q486.8594,436.4453 486.5781,436.3516 Q486.2969,436.25 486.0156,436.25 Q485.6641,436.25 485.3672,436.3906 Q485.0781,436.5313 484.8516,436.8438 Q484.625,437.1563 484.625,437.5859 L484.625,438.0469 Q484.625,438.5625 485.0469,438.9063 Q485.4688,439.25 486.2188,439.25 Q486.6641,439.25 486.9766,439.1484 Q487.1563,439.0938 487.3594,438.9141 Q487.4922,438.8125 487.5625,438.7813 Q487.6328,438.75 487.7188,438.75 Q487.8828,438.75 488,438.8828 Q488.125,439.0078 488.125,439.1875 Q488.125,439.3594 487.9531,439.5625 Q487.7031,439.8594 487.3047,440.0234 Q486.7813,440.25 486.1406,440.25 Q485.3906,440.25 484.7891,439.9531 Q484.3047,439.7188 483.9609,439.2109 Q483.625,438.7031 483.625,438.1016 L483.625,437.5547 Q483.625,436.9297 483.9219,436.3828 Q484.2266,435.8359 484.75,435.5469 Q485.2813,435.25 485.875,435.25 Q486.2344,435.25 486.5469,435.375 Q486.8594,435.5 487.125,435.75 Z " fill="#000000"/><text fill="#000000" font-family="sans-serif" font-size="7" lengthAdjust="spacing" textLength="18.5" x="496.375" y="440.3643">Heros</text><line style="stroke:#181818;stroke-width:0.25;" x1="400" x2="595" y1="445.5" y2="445.5"/><ellipse cx="405" cy="463.457" fill="#84BE84" rx="1.5" ry="1.5" style="stroke:#038048;stroke-width:0.5;"/><text fill="#000000" font-family="sans-serif" font-size="7" lengthAdjust="spacing" textLength="183" x="409.5" y="465.5713">Heros(double x, double y, double largeur, double hauteur)</text><line style="stroke:#181818;stroke-width:0.5;stroke-dasharray:1.0,2.0;" x1="400" x2="477" y1="453.9023" y2="453.9023"/><text fill="#000000" font-family="sans-serif" font-size="7" lengthAdjust="spacing" textLength="41" x="477" y="456.5166">Constructeur</text><line style="stroke:#181818;stroke-width:0.5;stroke-dasharray:1.0,2.0;" x1="518" x2="595" y1="453.9023" y2="453.9023"/><ellipse cx="405" cy="483.0664" fill="#84BE84" rx="1.5" ry="1.5" style="stroke:#038048;stroke-width:0.5;"/><text fill="#000000" font-family="sans-serif" font-size="7" lengthAdjust="spacing" textLength="69" x="409.5" y="485.1807">boolean estUnHeros()</text><line style="stroke:#181818;stroke-width:0.5;stroke-dasharray:1.0,2.0;" x1="400" x2="482" y1="473.5117" y2="473.5117"/><text fill="#000000" font-family="sans-serif" font-size="7" lengthAdjust="spacing" textLength="31" x="482" y="476.126">M&#233;thodes</text><line style="stroke:#181818;stroke-width:0.5;stroke-dasharray:1.0,2.0;" x1="513" x2="595" y1="473.5117" y2="473.5117"/></g><!--class Monstre--><g id="elem_Monstre"><rect codeLine="52" fill="#F1F1F1" height="39.6094" id="Monstre" rx="1.25" ry="1.25" style="stroke:#181818;stroke-width:0.25;" width="252.5" x="613.25" y="439.25"/><ellipse cx="724.375" cy="447.25" fill="#A9DCDF" rx="5.5" ry="5.5" style="stroke:#181818;stroke-width:0.5;"/><path d="M725.25,448 L723.6016,448 L723.3828,448.5 L723.3828,448.5 L723.6172,448.5 L723.875,448.8125 L723.875,449 L723.875,449.1875 L723.6172,449.5 L723.3828,449.5 L722.4375,449.5 L722.1328,449.5 L721.875,449.1875 L721.875,449 L721.875,448.8125 L722.1328,448.5 L722.4375,448.5 L723.5938,445.5 L723.1563,445.5 L722.6328,445.5 L722.375,445.1875 L722.375,445 L722.375,444.8125 L722.6328,444.5 L723.1563,444.5 L724.9922,444.5 L726.3359,448.5 L726.6172,448.5 L726.6172,448.5 L726.875,448.8125 L726.875,449 L726.875,449.1875 L726.6172,449.5 L726.3359,449.5 L725.3906,449.5 L725.1328,449.5 L724.875,449.1875 L724.875,449 L724.875,448.8125 L725.1328,448.5 L725.3906,448.5 L725.3906,448.5 L725.25,448 Z M724.9766,447 L724.375,445.2109 L723.8594,447 L724.9766,447 Z " fill="#000000"/><text fill="#000000" font-family="sans-serif" font-size="7" font-style="italic" lengthAdjust="spacing" textLength="26" x="734.625" y="450.1143">Monstre</text><line style="stroke:#181818;stroke-width:0.25;" x1="613.75" x2="865.25" y1="455.25" y2="455.25"/><ellipse cx="618.75" cy="473.207" fill="#84BE84" rx="1.5" ry="1.5" style="stroke:#038048;stroke-width:0.5;"/><text fill="#000000" font-family="sans-serif" font-size="7" lengthAdjust="spacing" textLength="239.5" x="623.25" y="475.3213">Monstre(double x, double y, double largeur, double hauteur, double vitesse)</text><line style="stroke:#181818;stroke-width:0.5;stroke-dasharray:1.0,2.0;" x1="613.75" x2="719" y1="463.6523" y2="463.6523"/><text fill="#000000" font-family="sans-serif" font-size="7" lengthAdjust="spacing" textLength="41" x="719" y="466.2666">Constructeur</text><line style="stroke:#181818;stroke-width:0.5;stroke-dasharray:1.0,2.0;" x1="760" x2="865.25" y1="463.6523" y2="463.6523"/></g><!--class Walker--><g id="elem_Walker"><rect codeLine="57" fill="#F1F1F1" height="39.6094" id="Walker" rx="1.25" ry="1.25" style="stroke:#181818;stroke-width:0.25;" width="199.5" x="639.75" y="522"/><ellipse cx="726.375" cy="530" fill="#ADD1B2" rx="5.5" ry="5.5" style="stroke:#181818;stroke-width:0.5;"/><path d="M727.375,528.25 Q727.4766,528 727.5938,527.875 Q727.7109,527.75 727.8438,527.75 Q728.0781,527.75 728.2266,527.8906 Q728.375,528.0313 728.375,528.3594 L728.375,529.1406 Q728.375,529.4688 728.2344,529.6094 Q728.0938,529.75 727.875,529.75 Q727.6797,529.75 727.5547,529.6641 Q727.4297,529.5781 727.375,529.3516 Q727.3516,529.1953 727.2656,529.1094 Q727.1094,528.9453 726.8281,528.8516 Q726.5469,528.75 726.2656,528.75 Q725.9141,528.75 725.6172,528.8906 Q725.3281,529.0313 725.1016,529.3438 Q724.875,529.6563 724.875,530.0859 L724.875,530.5469 Q724.875,531.0625 725.2969,531.4063 Q725.7188,531.75 726.4688,531.75 Q726.9141,531.75 727.2266,531.6484 Q727.4063,531.5938 727.6094,531.4141 Q727.7422,531.3125 727.8125,531.2813 Q727.8828,531.25 727.9688,531.25 Q728.1328,531.25 728.25,531.3828 Q728.375,531.5078 728.375,531.6875 Q728.375,531.8594 728.2031,532.0625 Q727.9531,532.3594 727.5547,532.5234 Q727.0313,532.75 726.3906,532.75 Q725.6406,532.75 725.0391,532.4531 Q724.5547,532.2188 724.2109,531.7109 Q723.875,531.2031 723.875,530.6016 L723.875,530.0547 Q723.875,529.4297 724.1719,528.8828 Q724.4766,528.3359 725,528.0469 Q725.5313,527.75 726.125,527.75 Q726.4844,527.75 726.7969,527.875 Q727.1094,528 727.375,528.25 Z " fill="#000000"/><text fill="#000000" font-family="sans-serif" font-size="7" lengthAdjust="spacing" textLength="22" x="736.625" y="532.8643">Walker</text><line style="stroke:#181818;stroke-width:0.25;" x1="640.25" x2="838.75" y1="538" y2="538"/><ellipse cx="645.25" cy="555.957" fill="#84BE84" rx="1.5" ry="1.5" style="stroke:#038048;stroke-width:0.5;"/><text fill="#000000" font-family="sans-serif" font-size="7" lengthAdjust="spacing" textLength="186.5" x="649.75" y="558.0713">Walker(double x, double y, double largeur, double hauteur)</text><line style="stroke:#181818;stroke-width:0.5;stroke-dasharray:1.0,2.0;" x1="640.25" x2="719" y1="546.4023" y2="546.4023"/><text fill="#000000" font-family="sans-serif" font-size="7" lengthAdjust="spacing" textLength="41" x="719" y="549.0166">Constructeur</text><line style="stroke:#181818;stroke-width:0.5;stroke-dasharray:1.0,2.0;" x1="760" x2="838.75" y1="546.4023" y2="546.4023"/></g><!--class Monde--><g id="elem_Monde"><rect codeLine="62" fill="#F1F1F1" height="138.4609" id="Monde" rx="1.25" ry="1.25" style="stroke:#181818;stroke-width:0.25;" width="255" x="273.5" y="150.5"/><ellipse cx="388.125" cy="158.5" fill="#ADD1B2" rx="5.5" ry="5.5" style="stroke:#181818;stroke-width:0.5;"/><path d="M389.125,156.75 Q389.2266,156.5 389.3438,156.375 Q389.4609,156.25 389.5938,156.25 Q389.8281,156.25 389.9766,156.3906 Q390.125,156.5313 390.125,156.8594 L390.125,157.6406 Q390.125,157.9688 389.9844,158.1094 Q389.8438,158.25 389.625,158.25 Q389.4297,158.25 389.3047,158.1641 Q389.1797,158.0781 389.125,157.8516 Q389.1016,157.6953 389.0156,157.6094 Q388.8594,157.4453 388.5781,157.3516 Q388.2969,157.25 388.0156,157.25 Q387.6641,157.25 387.3672,157.3906 Q387.0781,157.5313 386.8516,157.8438 Q386.625,158.1563 386.625,158.5859 L386.625,159.0469 Q386.625,159.5625 387.0469,159.9063 Q387.4688,160.25 388.2188,160.25 Q388.6641,160.25 388.9766,160.1484 Q389.1563,160.0938 389.3594,159.9141 Q389.4922,159.8125 389.5625,159.7813 Q389.6328,159.75 389.7188,159.75 Q389.8828,159.75 390,159.8828 Q390.125,160.0078 390.125,160.1875 Q390.125,160.3594 389.9531,160.5625 Q389.7031,160.8594 389.3047,161.0234 Q388.7813,161.25 388.1406,161.25 Q387.3906,161.25 386.7891,160.9531 Q386.3047,160.7188 385.9609,160.2109 Q385.625,159.7031 385.625,159.1016 L385.625,158.5547 Q385.625,157.9297 385.9219,157.3828 Q386.2266,156.8359 386.75,156.5469 Q387.2813,156.25 387.875,156.25 Q388.2344,156.25 388.5469,156.375 Q388.8594,156.5 389.125,156.75 Z " fill="#000000"/><text fill="#000000" font-family="sans-serif" font-size="7" lengthAdjust="spacing" textLength="21.5" x="398.375" y="161.3643">Monde</text><line style="stroke:#181818;stroke-width:0.25;" x1="274" x2="528" y1="166.5" y2="166.5"/><polygon fill="none" points="279,171.1523,281,173.1523,279,175.1523,277,173.1523" style="stroke:#B38D22;stroke-width:0.5;"/><text fill="#000000" font-family="sans-serif" font-size="7" lengthAdjust="spacing" textLength="35" x="283.5" y="175.7666">int nbLigne</text><polygon fill="none" points="279,179.957,281,181.957,279,183.957,277,181.957" style="stroke:#B38D22;stroke-width:0.5;"/><text fill="#000000" font-family="sans-serif" font-size="7" lengthAdjust="spacing" textLength="28" x="283.5" y="184.5713">int nbCol</text><ellipse cx="279" cy="202.0664" fill="#84BE84" rx="1.5" ry="1.5" style="stroke:#038048;stroke-width:0.5;"/><text fill="#000000" font-family="sans-serif" font-size="7" lengthAdjust="spacing" textLength="26.5" x="283.5" y="204.1807">Monde()</text><line style="stroke:#181818;stroke-width:0.5;stroke-dasharray:1.0,2.0;" x1="274" x2="380.5" y1="192.5117" y2="192.5117"/><text fill="#000000" font-family="sans-serif" font-size="7" lengthAdjust="spacing" textLength="41" x="380.5" y="195.126">Constructeur</text><line style="stroke:#181818;stroke-width:0.5;stroke-dasharray:1.0,2.0;" x1="421.5" x2="528" y1="192.5117" y2="192.5117"/><ellipse cx="279" cy="221.6758" fill="#84BE84" rx="1.5" ry="1.5" style="stroke:#038048;stroke-width:0.5;"/><text fill="#000000" font-family="sans-serif" font-size="7" lengthAdjust="spacing" textLength="175.5" x="283.5" y="223.79">boolean collision(ElementMonde e1, ElementMonde e2)</text><ellipse cx="279" cy="230.4805" fill="#84BE84" rx="1.5" ry="1.5" style="stroke:#038048;stroke-width:0.5;"/><text fill="#000000" font-family="sans-serif" font-size="7" lengthAdjust="spacing" textLength="54" x="283.5" y="232.5947">Heros getHeros()</text><ellipse cx="279" cy="239.2852" fill="#84BE84" rx="1.5" ry="1.5" style="stroke:#038048;stroke-width:0.5;"/><text fill="#000000" font-family="sans-serif" font-size="7" lengthAdjust="spacing" textLength="242" x="283.5" y="241.3994">void deplacementHeros(TypeMouvement typeMouvement, double deltaTime)</text><ellipse cx="279" cy="248.0898" fill="#84BE84" rx="1.5" ry="1.5" style="stroke:#038048;stroke-width:0.5;"/><text fill="#000000" font-family="sans-serif" font-size="7" lengthAdjust="spacing" textLength="89.5" x="283.5" y="250.2041">void deplacementMonstres()</text><ellipse cx="279" cy="256.8945" fill="#84BE84" rx="1.5" ry="1.5" style="stroke:#038048;stroke-width:0.5;"/><text fill="#000000" font-family="sans-serif" font-size="7" lengthAdjust="spacing" textLength="85.5" x="283.5" y="259.0088">void addTerrains(Terrain t)</text><ellipse cx="279" cy="265.6992" fill="#84BE84" rx="1.5" ry="1.5" style="stroke:#038048;stroke-width:0.5;"/><text fill="#000000" font-family="sans-serif" font-size="7" lengthAdjust="spacing" textLength="115" x="283.5" y="267.8135">void addPersonnage(Personnage p)</text><ellipse cx="279" cy="274.5039" fill="#84BE84" rx="1.5" ry="1.5" style="stroke:#038048;stroke-width:0.5;"/><text fill="#000000" font-family="sans-serif" font-size="7" lengthAdjust="spacing" textLength="57" x="283.5" y="276.6182">void updateData()</text><ellipse cx="279" cy="283.3086" fill="#84BE84" rx="1.5" ry="1.5" style="stroke:#038048;stroke-width:0.5;"/><text fill="#000000" font-family="sans-serif" font-size="7" lengthAdjust="spacing" textLength="98.5" x="283.5" y="285.4229">void chargerCarte(String carte)</text><line style="stroke:#181818;stroke-width:0.5;stroke-dasharray:1.0,2.0;" x1="274" x2="385.5" y1="212.1211" y2="212.1211"/><text fill="#000000" font-family="sans-serif" font-size="7" lengthAdjust="spacing" textLength="31" x="385.5" y="214.7354">M&#233;thodes</text><line style="stroke:#181818;stroke-width:0.5;stroke-dasharray:1.0,2.0;" x1="416.5" x2="528" y1="212.1211" y2="212.1211"/></g><!--class Donnees--><g id="elem_Donnees"><rect codeLine="80" fill="#F1F1F1" height="76.8281" id="Donnees" rx="1.25" ry="1.25" style="stroke:#181818;stroke-width:0.25;" width="116.5" x="35.25" y="181.25"/><ellipse cx="77.125" cy="189.25" fill="#ADD1B2" rx="5.5" ry="5.5" style="stroke:#181818;stroke-width:0.5;"/><path d="M78.125,187.5 Q78.2266,187.25 78.3438,187.125 Q78.4609,187 78.5938,187 Q78.8281,187 78.9766,187.1406 Q79.125,187.2813 79.125,187.6094 L79.125,188.3906 Q79.125,188.7188 78.9844,188.8594 Q78.8438,189 78.625,189 Q78.4297,189 78.3047,188.9141 Q78.1797,188.8281 78.125,188.6016 Q78.1016,188.4453 78.0156,188.3594 Q77.8594,188.1953 77.5781,188.1016 Q77.2969,188 77.0156,188 Q76.6641,188 76.3672,188.1406 Q76.0781,188.2813 75.8516,188.5938 Q75.625,188.9063 75.625,189.3359 L75.625,189.7969 Q75.625,190.3125 76.0469,190.6563 Q76.4688,191 77.2188,191 Q77.6641,191 77.9766,190.8984 Q78.1563,190.8438 78.3594,190.6641 Q78.4922,190.5625 78.5625,190.5313 Q78.6328,190.5 78.7188,190.5 Q78.8828,190.5 79,190.6328 Q79.125,190.7578 79.125,190.9375 Q79.125,191.1094 78.9531,191.3125 Q78.7031,191.6094 78.3047,191.7734 Q77.7813,192 77.1406,192 Q76.3906,192 75.7891,191.7031 Q75.3047,191.4688 74.9609,190.9609 Q74.625,190.4531 74.625,189.8516 L74.625,189.3047 Q74.625,188.6797 74.9219,188.1328 Q75.2266,187.5859 75.75,187.2969 Q76.2813,187 76.875,187 Q77.2344,187 77.5469,187.125 Q77.8594,187.25 78.125,187.5 Z " fill="#000000"/><text fill="#000000" font-family="sans-serif" font-size="7" lengthAdjust="spacing" textLength="28.5" x="87.375" y="192.1143">Donnees</text><line style="stroke:#181818;stroke-width:0.25;" x1="35.75" x2="151.25" y1="197.25" y2="197.25"/><ellipse cx="40.75" cy="204.4023" fill="none" rx="1.5" ry="1.5" style="stroke:#038048;stroke-width:0.5;"/><text fill="#000000" font-family="sans-serif" font-size="7" lengthAdjust="spacing" text-decoration="underline" textLength="63.5" x="45.25" y="206.5166">String GAME_TITLE</text><ellipse cx="40.75" cy="213.207" fill="none" rx="1.5" ry="1.5" style="stroke:#038048;stroke-width:0.5;"/><text fill="#000000" font-family="sans-serif" font-size="7" lengthAdjust="spacing" text-decoration="underline" textLength="103.5" x="45.25" y="215.3213">int WINDOW_DEFAULT_HEIGHT</text><ellipse cx="40.75" cy="222.0117" fill="none" rx="1.5" ry="1.5" style="stroke:#038048;stroke-width:0.5;"/><text fill="#000000" font-family="sans-serif" font-size="7" lengthAdjust="spacing" text-decoration="underline" textLength="100.5" x="45.25" y="224.126">int WINDOW_DEFAULT_WIDTH</text><ellipse cx="40.75" cy="230.8164" fill="none" rx="1.5" ry="1.5" style="stroke:#038048;stroke-width:0.5;"/><text fill="#000000" font-family="sans-serif" font-size="7" lengthAdjust="spacing" text-decoration="underline" textLength="64.5" x="45.25" y="232.9307">int WORLD_HEIGHT</text><ellipse cx="40.75" cy="239.6211" fill="none" rx="1.5" ry="1.5" style="stroke:#038048;stroke-width:0.5;"/><text fill="#000000" font-family="sans-serif" font-size="7" lengthAdjust="spacing" text-decoration="underline" textLength="61.5" x="45.25" y="241.7354">int WORLD_WIDTH</text><text fill="#000000" font-family="sans-serif" font-size="7" lengthAdjust="spacing" textLength="6" x="45.25" y="250.54">...</text><line style="stroke:#181818;stroke-width:0.25;" x1="35.75" x2="151.25" y1="254.0781" y2="254.0781"/></g><!--class GestionFichier--><g id="elem_GestionFichier"><rect codeLine="89" fill="#F1F1F1" height="59.2188" id="GestionFichier" rx="1.25" ry="1.25" style="stroke:#181818;stroke-width:0.25;" width="141" x="23" y="328"/><ellipse cx="68.375" cy="336" fill="#ADD1B2" rx="5.5" ry="5.5" style="stroke:#181818;stroke-width:0.5;"/><path d="M69.375,334.25 Q69.4766,334 69.5938,333.875 Q69.7109,333.75 69.8438,333.75 Q70.0781,333.75 70.2266,333.8906 Q70.375,334.0313 70.375,334.3594 L70.375,335.1406 Q70.375,335.4688 70.2344,335.6094 Q70.0938,335.75 69.875,335.75 Q69.6797,335.75 69.5547,335.6641 Q69.4297,335.5781 69.375,335.3516 Q69.3516,335.1953 69.2656,335.1094 Q69.1094,334.9453 68.8281,334.8516 Q68.5469,334.75 68.2656,334.75 Q67.9141,334.75 67.6172,334.8906 Q67.3281,335.0313 67.1016,335.3438 Q66.875,335.6563 66.875,336.0859 L66.875,336.5469 Q66.875,337.0625 67.2969,337.4063 Q67.7188,337.75 68.4688,337.75 Q68.9141,337.75 69.2266,337.6484 Q69.4063,337.5938 69.6094,337.4141 Q69.7422,337.3125 69.8125,337.2813 Q69.8828,337.25 69.9688,337.25 Q70.1328,337.25 70.25,337.3828 Q70.375,337.5078 70.375,337.6875 Q70.375,337.8594 70.2031,338.0625 Q69.9531,338.3594 69.5547,338.5234 Q69.0313,338.75 68.3906,338.75 Q67.6406,338.75 67.0391,338.4531 Q66.5547,338.2188 66.2109,337.7109 Q65.875,337.2031 65.875,336.6016 L65.875,336.0547 Q65.875,335.4297 66.1719,334.8828 Q66.4766,334.3359 67,334.0469 Q67.5313,333.75 68.125,333.75 Q68.4844,333.75 68.7969,333.875 Q69.1094,334 69.375,334.25 Z " fill="#000000"/><text fill="#000000" font-family="sans-serif" font-size="7" lengthAdjust="spacing" textLength="46" x="78.625" y="338.8643">GestionFichier</text><line style="stroke:#181818;stroke-width:0.25;" x1="23.5" x2="163.5" y1="344" y2="344"/><ellipse cx="28.5" cy="361.957" fill="#84BE84" rx="1.5" ry="1.5" style="stroke:#038048;stroke-width:0.5;"/><text fill="#000000" font-family="sans-serif" font-size="7" lengthAdjust="spacing" textLength="51" x="33" y="364.0713">GestionFichier()</text><line style="stroke:#181818;stroke-width:0.5;stroke-dasharray:1.0,2.0;" x1="23.5" x2="73" y1="352.4023" y2="352.4023"/><text fill="#000000" font-family="sans-serif" font-size="7" lengthAdjust="spacing" textLength="41" x="73" y="355.0166">Constructeur</text><line style="stroke:#181818;stroke-width:0.5;stroke-dasharray:1.0,2.0;" x1="114" x2="163.5" y1="352.4023" y2="352.4023"/><ellipse cx="28.5" cy="381.5664" fill="#84BE84" rx="1.5" ry="1.5" style="stroke:#038048;stroke-width:0.5;"/><text fill="#000000" font-family="sans-serif" font-size="7" lengthAdjust="spacing" textLength="128" x="33" y="383.6807">char[] lireFichierCarte(string nomFichier)</text><line style="stroke:#181818;stroke-width:0.5;stroke-dasharray:1.0,2.0;" x1="23.5" x2="78" y1="372.0117" y2="372.0117"/><text fill="#000000" font-family="sans-serif" font-size="7" lengthAdjust="spacing" textLength="31" x="78" y="374.626">M&#233;thodes</text><line style="stroke:#181818;stroke-width:0.5;stroke-dasharray:1.0,2.0;" x1="109" x2="163.5" y1="372.0117" y2="372.0117"/></g><!--class Resources--><g id="elem_Resources"><rect codeLine="96" fill="#F1F1F1" height="66.0234" id="Resources" rx="1.25" ry="1.25" style="stroke:#181818;stroke-width:0.25;" width="135.5" x="25.75" y="426"/><ellipse cx="74.375" cy="434" fill="#ADD1B2" rx="5.5" ry="5.5" style="stroke:#181818;stroke-width:0.5;"/><path d="M75.375,432.25 Q75.4766,432 75.5938,431.875 Q75.7109,431.75 75.8438,431.75 Q76.0781,431.75 76.2266,431.8906 Q76.375,432.0313 76.375,432.3594 L76.375,433.1406 Q76.375,433.4688 76.2344,433.6094 Q76.0938,433.75 75.875,433.75 Q75.6797,433.75 75.5547,433.6641 Q75.4297,433.5781 75.375,433.3516 Q75.3516,433.1953 75.2656,433.1094 Q75.1094,432.9453 74.8281,432.8516 Q74.5469,432.75 74.2656,432.75 Q73.9141,432.75 73.6172,432.8906 Q73.3281,433.0313 73.1016,433.3438 Q72.875,433.6563 72.875,434.0859 L72.875,434.5469 Q72.875,435.0625 73.2969,435.4063 Q73.7188,435.75 74.4688,435.75 Q74.9141,435.75 75.2266,435.6484 Q75.4063,435.5938 75.6094,435.4141 Q75.7422,435.3125 75.8125,435.2813 Q75.8828,435.25 75.9688,435.25 Q76.1328,435.25 76.25,435.3828 Q76.375,435.5078 76.375,435.6875 Q76.375,435.8594 76.2031,436.0625 Q75.9531,436.3594 75.5547,436.5234 Q75.0313,436.75 74.3906,436.75 Q73.6406,436.75 73.0391,436.4531 Q72.5547,436.2188 72.2109,435.7109 Q71.875,435.2031 71.875,434.6016 L71.875,434.0547 Q71.875,433.4297 72.1719,432.8828 Q72.4766,432.3359 73,432.0469 Q73.5313,431.75 74.125,431.75 Q74.4844,431.75 74.7969,431.875 Q75.1094,432 75.375,432.25 Z " fill="#000000"/><text fill="#000000" font-family="sans-serif" font-size="7" lengthAdjust="spacing" textLength="34" x="84.625" y="436.8643">Resources</text><line style="stroke:#181818;stroke-width:0.25;" x1="26.25" x2="160.75" y1="442" y2="442"/><rect fill="none" height="3" style="stroke:#C82930;stroke-width:0.5;" width="3" x="29.75" y="447.6523"/><text fill="#000000" font-family="sans-serif" font-size="7" lengthAdjust="spacing" text-decoration="underline" textLength="85.5" x="35.75" y="451.2666">Map&lt;String, Image&gt; assets</text><ellipse cx="31.25" cy="468.7617" fill="#84BE84" rx="1.5" ry="1.5" style="stroke:#038048;stroke-width:0.5;"/><text fill="#000000" font-family="sans-serif" font-size="7" lengthAdjust="spacing" text-decoration="underline" textLength="65" x="35.75" y="470.876">URL get(String path)</text><ellipse cx="31.25" cy="477.5664" fill="#84BE84" rx="1.5" ry="1.5" style="stroke:#038048;stroke-width:0.5;"/><text fill="#000000" font-family="sans-serif" font-size="7" lengthAdjust="spacing" text-decoration="underline" textLength="122.5" x="35.75" y="479.6807">InputStream getAsStream(String path)}</text><ellipse cx="31.25" cy="486.3711" fill="#84BE84" rx="1.5" ry="1.5" style="stroke:#038048;stroke-width:0.5;"/><text fill="#000000" font-family="sans-serif" font-size="7" lengthAdjust="spacing" text-decoration="underline" textLength="88" x="35.75" y="488.4854">Image getAsset(String path)</text><line style="stroke:#181818;stroke-width:0.5;stroke-dasharray:1.0,2.0;" x1="26.25" x2="78" y1="459.207" y2="459.207"/><text fill="#000000" font-family="sans-serif" font-size="7" lengthAdjust="spacing" textLength="31" x="78" y="461.8213">M&#233;thodes</text><line style="stroke:#181818;stroke-width:0.5;stroke-dasharray:1.0,2.0;" x1="109" x2="160.75" y1="459.207" y2="459.207"/></g><!--class Sprite--><g id="elem_Sprite"><rect codeLine="106" fill="#F1F1F1" height="24" id="Sprite" rx="1.25" ry="1.25" style="stroke:#181818;stroke-width:0.25;" width="34.5" x="902.25" y="345.5"/><ellipse cx="909.75" cy="353.5" fill="#ADD1B2" rx="5.5" ry="5.5" style="stroke:#181818;stroke-width:0.5;"/><path d="M910.75,351.75 Q910.8516,351.5 910.9688,351.375 Q911.0859,351.25 911.2188,351.25 Q911.4531,351.25 911.6016,351.3906 Q911.75,351.5313 911.75,351.8594 L911.75,352.6406 Q911.75,352.9688 911.6094,353.1094 Q911.4688,353.25 911.25,353.25 Q911.0547,353.25 910.9297,353.1641 Q910.8047,353.0781 910.75,352.8516 Q910.7266,352.6953 910.6406,352.6094 Q910.4844,352.4453 910.2031,352.3516 Q909.9219,352.25 909.6406,352.25 Q909.2891,352.25 908.9922,352.3906 Q908.7031,352.5313 908.4766,352.8438 Q908.25,353.1563 908.25,353.5859 L908.25,354.0469 Q908.25,354.5625 908.6719,354.9063 Q909.0938,355.25 909.8438,355.25 Q910.2891,355.25 910.6016,355.1484 Q910.7813,355.0938 910.9844,354.9141 Q911.1172,354.8125 911.1875,354.7813 Q911.2578,354.75 911.3438,354.75 Q911.5078,354.75 911.625,354.8828 Q911.75,355.0078 911.75,355.1875 Q911.75,355.3594 911.5781,355.5625 Q911.3281,355.8594 910.9297,356.0234 Q910.4063,356.25 909.7656,356.25 Q909.0156,356.25 908.4141,355.9531 Q907.9297,355.7188 907.5859,355.2109 Q907.25,354.7031 907.25,354.1016 L907.25,353.5547 Q907.25,352.9297 907.5469,352.3828 Q907.8516,351.8359 908.375,351.5469 Q908.9063,351.25 909.5,351.25 Q909.8594,351.25 910.1719,351.375 Q910.4844,351.5 910.75,351.75 Z " fill="#000000"/><text fill="#000000" font-family="sans-serif" font-size="7" lengthAdjust="spacing" textLength="18.5" x="916.75" y="356.3643">Sprite</text><line style="stroke:#181818;stroke-width:0.25;" x1="902.75" x2="936.25" y1="361.5" y2="361.5"/><line style="stroke:#181818;stroke-width:0.25;" x1="902.75" x2="936.25" y1="365.5" y2="365.5"/></g><!--class GameController--><g id="elem_GameController"><rect codeLine="110" fill="#F1F1F1" height="24" id="GameController" rx="1.25" ry="1.25" style="stroke:#181818;stroke-width:0.25;" width="66" x="844" y="80.5"/><ellipse cx="851.5" cy="88.5" fill="#A9DCDF" rx="5.5" ry="5.5" style="stroke:#181818;stroke-width:0.5;"/><path d="M852.375,89.25 L850.7266,89.25 L850.5078,89.75 L850.5078,89.75 L850.7422,89.75 L851,90.0625 L851,90.25 L851,90.4375 L850.7422,90.75 L850.5078,90.75 L849.5625,90.75 L849.2578,90.75 L849,90.4375 L849,90.25 L849,90.0625 L849.2578,89.75 L849.5625,89.75 L850.7188,86.75 L850.2813,86.75 L849.7578,86.75 L849.5,86.4375 L849.5,86.25 L849.5,86.0625 L849.7578,85.75 L850.2813,85.75 L852.1172,85.75 L853.4609,89.75 L853.7422,89.75 L853.7422,89.75 L854,90.0625 L854,90.25 L854,90.4375 L853.7422,90.75 L853.4609,90.75 L852.5156,90.75 L852.2578,90.75 L852,90.4375 L852,90.25 L852,90.0625 L852.2578,89.75 L852.5156,89.75 L852.5156,89.75 L852.375,89.25 Z M852.1016,88.25 L851.5,86.4609 L850.9844,88.25 L852.1016,88.25 Z " fill="#000000"/><text fill="#000000" font-family="sans-serif" font-size="7" font-style="italic" lengthAdjust="spacing" textLength="50" x="858.5" y="91.3643">GameController</text><line style="stroke:#181818;stroke-width:0.25;" x1="844.5" x2="909.5" y1="96.5" y2="96.5"/><line style="stroke:#181818;stroke-width:0.25;" x1="844.5" x2="909.5" y1="100.5" y2="100.5"/></g><g id="elem_N_gui"><path d="M861.75,3 L861.75,24.3516 L1020.25,24.3516 L1020.25,8 L1015.25,3 L861.75,3 " fill="#FEFFDD" style="stroke:#181818;stroke-width:0.25;"/><path d="M1015.25,3 L1015.25,8 L1020.25,8 L1015.25,3 " fill="#FEFFDD" style="stroke:#181818;stroke-width:0.5;"/><text fill="#000000" font-family="sans-serif" font-size="6.5" lengthAdjust="spacing" textLength="45.5" x="864.75" y="12.2476">Voir diagramme</text><text fill="#000000" font-family="sans-serif" font-size="6.5" font-style="italic" lengthAdjust="spacing" textLength="26" x="912.25" y="12.2476">class-gui</text><text fill="#000000" font-family="sans-serif" font-size="6.5" lengthAdjust="spacing" textLength="54" x="940.25" y="12.2476">pour en savoir plus</text><text fill="#000000" font-family="sans-serif" font-size="6.5" lengthAdjust="spacing" textLength="148" x="864.75" y="20.4233">sur ces packages et les classes qu'ils contiennent.</text></g><!--link N_gui to engine--><g id="link_N_gui_engine"><path codeLine="116" d="M939.205,24.575 C937.3975,34.985 934.5338,51.4813 932.0913,65.5506 C931.9386,66.43 931.7876,67.2998 931.6386,68.1581 C931.6013,68.3727 931.5642,68.5865 931.5272,68.7996 " fill="none" id="N_gui-engine" style="stroke:#181818;stroke-width:0.5;stroke-dasharray:7.0,7.0;"/></g><!--link N_gui to gui--><g id="link_N_gui_gui"><path codeLine="117" d="M941.405,24.51 C942.52,52.8 945.7513,134.85 948.725,210.3575 C950.2119,248.1113 951.6344,284.2294 952.6958,311.1741 C952.8285,314.5421 952.9555,317.7669 953.0763,320.8336 C953.1065,321.6003 953.1363,322.3571 953.1657,323.1037 " fill="none" id="N_gui-gui" style="stroke:#181818;stroke-width:0.5;stroke-dasharray:7.0,7.0;"/></g><!--reverse link GestionFichier to Resources--><!--reverse link Donnees to GestionFichier--><!--link engine to gui--><!--link GameController to Monde--><g id="link_GameController_Monde"><path codeLine="126" d="M843.93,94.445 C769.99,98 593.4,108.38 537.5,128.5 C521.97,134.09 506.47,141.805 491.785,150.395 " fill="none" id="GameController-Monde" style="stroke:#181818;stroke-width:0.5;"/><text fill="#000000" font-family="sans-serif" font-size="6.5" lengthAdjust="spacing" textLength="3.5" x="493.1541" y="145.1368">1</text></g><!--reverse link ElementMonde to Personnage--><g id="link_ElementMonde_Personnage"><path codeLine="127" d="M661.555,271.695 C660.81,287.31 660.01,304.185 659.315,318.775 " fill="none" id="ElementMonde-backto-Personnage" style="stroke:#181818;stroke-width:0.5;"/><polygon fill="none" points="658.06,271.475,662.03,261.65,665.055,271.805,658.06,271.475" style="stroke:#181818;stroke-width:0.5;"/></g><!--reverse link Personnage to Heros--><g id="link_Personnage_Heros"><path codeLine="128" d="M588.245,401.5 C573.19,410.955 557.625,420.735 543.725,429.465 " fill="none" id="Personnage-backto-Heros" style="stroke:#181818;stroke-width:0.5;"/><polygon fill="none" points="586.455,398.495,596.785,396.14,590.175,404.42,586.455,398.495" style="stroke:#181818;stroke-width:0.5;"/></g><!--reverse link Personnage to Monstre--><g id="link_Personnage_Monstre"><path codeLine="129" d="M695.035,404.005 C705.165,416.42 715.58,429.185 723.785,439.235 " fill="none" id="Personnage-backto-Monstre" style="stroke:#181818;stroke-width:0.5;"/><polygon fill="none" points="692.23,406.1,688.62,396.14,697.65,401.675,692.23,406.1" style="stroke:#181818;stroke-width:0.5;"/></g><!--reverse link Monstre to Walker--><g id="link_Monstre_Walker"><path codeLine="130" d="M739.5,488.905 C739.5,499.87 739.5,512.035 739.5,521.875 " fill="none" id="Monstre-backto-Walker" style="stroke:#181818;stroke-width:0.5;"/><polygon fill="none" points="736,488.875,739.5,478.875,743,488.875,736,488.875" style="stroke:#181818;stroke-width:0.5;"/></g><!--reverse link ElementMonde to Terrain--><g id="link_ElementMonde_Terrain"><path codeLine="132" d="M641.3,270.085 C636.28,277.235 630.37,283.885 623.5,289 C584.03,318.39 563.095,301.24 516,315.5 C507.875,317.96 499.48,320.665 491.1,323.48 " fill="none" id="ElementMonde-backto-Terrain" style="stroke:#181818;stroke-width:0.5;"/><polygon fill="none" points="638.44,268.055,646.78,261.525,644.335,271.83,638.44,268.055" style="stroke:#181818;stroke-width:0.5;"/></g><!--reverse link Terrain to Mur--><g id="link_Terrain_Mur"><path codeLine="133" d="M355.24,398.345 C343.425,408.755 330.945,419.76 319.93,429.47 " fill="none" id="Terrain-backto-Mur" style="stroke:#181818;stroke-width:0.5;"/><polygon fill="none" points="353.065,395.59,362.88,391.605,357.695,400.845,353.065,395.59" style="stroke:#181818;stroke-width:0.5;"/></g><!--link Monde to Personnage--><g id="link_Monde_Personnage"><path codeLine="136" d="M528.685,288.325 C548.47,298.87 568.27,309.43 586.21,318.99 " fill="none" id="Monde-Personnage" style="stroke:#181818;stroke-width:0.5;"/><text fill="#000000" font-family="sans-serif" font-size="6.5" lengthAdjust="spacing" textLength="2.5" x="576.5693" y="313.5701">*</text></g><!--link Monde to Terrain--><g id="link_Monde_Terrain"><path codeLine="137" d="M401,289.025 C401,301 401,312.955 401,323.425 " fill="none" id="Monde-Terrain" style="stroke:#181818;stroke-width:0.5;"/><text fill="#000000" font-family="sans-serif" font-size="6.5" lengthAdjust="spacing" textLength="2.5" x="398.3633" y="318.0164">*</text></g><!--link Monde to GestionFichier--><g id="link_Monde_GestionFichier"><path codeLine="139" d="M273.48,275.81 C244.05,288.745 212.905,302.53 184,315.5 C175.09,319.5 165.705,323.755 156.49,327.955 " fill="none" id="Monde-GestionFichier" style="stroke:#181818;stroke-width:0.5;"/><text fill="#000000" font-family="sans-serif" font-size="6.5" lengthAdjust="spacing" textLength="3.5" x="160.4536" y="322.6116">1</text></g><!--link ElementMonde to Sprite--><g id="link_ElementMonde_Sprite"><path codeLine="141" d="M695.835,231.115 C738.41,246.425 815.335,276.84 874,315.5 C887.035,324.09 900,336.38 908.735,345.355 " fill="none" id="ElementMonde-Sprite" style="stroke:#181818;stroke-width:0.5;"/><text fill="#000000" font-family="sans-serif" font-size="6.5" lengthAdjust="spacing" textLength="2.5" x="903.1562" y="339.9879">*</text></g><!--SRC=[lLRDRjiu4BxhAGRkeNPZUT4z1mQ2s4aCs4cHAisXBG96cfM9IgIMf8mDkdcWFaTVR8SIhL_RSODYVR34uJSp7-UFobZuZSK8Snso3E6xvm5aJhQI8h8Ye1zxr4Qnq42OCArXdc2AmZGH06yWalbZWl1FL_3K5QnPRZ1NNN72L5oB9vDpASXj7bhiPEB49oMnuSWh1C-x-0Me5EEYehRNb0CEjyp75ULnX-kuGt9KcLxz_67MCaBTiFiePO9C06eJABP1fHdfrfoBHybrbQkNUHBe_-FeAEuAx0T2II5iUVJIlk46jSQNZbARE7GYTuAz9tJE3fzm8ta4qSyVMS92LCFWASELp3T5xO9fhYgx4IQ61JojBBVYT2UkK4bTnyW-KEGfj6nlGmDmkxYy2ghLSdvHBuAR3zNxxER-kbyPXQ-NQwEazEknFBewTfwwKnYhWXiUKSabyBVblXMnUvPymoFQgSIzEcRj_kqCGKwr9HwNF1ROaPtBvDZHTancGfaaN7CfXgrnZE_7xVcCVuxQjG8nccP6wrR1ebEiQhd_oexf6dCvx_bZKUG6CBbo8zlqCOs9qPW_MGUOPn4pE6E6TTs4QvjCTSwKmU57exY88RIBKNM3F3SllflSy6JRU6MIP-GKiMx64_Yk3JCyV0PdyF9iDNy85i5oteVOzDylhgdB7sRpYxExPV1mDMzCXiFG-yKikDg3lBbTpWxRAX1D4nDNIgqYlgGsfqgwuE6Q7zD0RVmB1MlZ__ah95oXKoXJeSl82PawyOxkkaKjSnKsGk_N1ronxBGC_nWMAQLk2gI3HX-aKwdVtIvjAsnB8cDcFUgZ5YBB3K6GfHPzfiltbjRp3ZNBfrJGktpqgYxEUQlaFcQAvbmNXIBcOizNsILBaV9b50s6Aecb7x8Xf44OV99SGSHPh5YQ8fpoQQ7ha_VJF_WKCeesEG7DDXQP9Rd-8ZJ9R0eS2Gre8A57eKhFl_Etjc52yisH6aMOoO0o0TSFPDOh_YaNZdkzjfkUznR-afHWchXFCZTUdN3_yvf74OglUUPFEnNdTGgsZNNTwhbWLPkAnsj3-wNZJhXy7mRl1-vBU5ACplBVQmmTd-p_EstDLw-SgMwdndhRAx6_uwufj-5mdhSTWRkSsAz49tSmEa6VQt6ATuEci_sWoj0U24MZ4tMlTR7ulhNYb2cc4rUo_m40]--></g></svg>