<?xml version="1.0" encoding="us-ascii" standalone="no"?><svg xmlns="http://www.w3.org/2000/svg" xmlns:xlink="http://www.w3.org/1999/xlink" contentStyleType="text/css" height="800px" preserveAspectRatio="none" style="width:1211px;height:800px;background:#FFFFFF;" version="1.1" viewBox="0 0 1211 800" width="1211px" zoomAndPan="magnify"><defs/><g><!--cluster Escape--><g id="cluster_Escape"><path d="M8.5,6 L60.5,6 A3.75,3.75 0 0 1 63,8.5 L70,29.6094 L1201.5,29.6094 A2.5,2.5 0 0 1 1204,32.1094 L1204,790.5 A2.5,2.5 0 0 1 1201.5,793 L8.5,793 A2.5,2.5 0 0 1 6,790.5 L6,8.5 A2.5,2.5 0 0 1 8.5,6 " fill="none" style="stroke:#000000;stroke-width:1.5;"/><line style="stroke:#000000;stroke-width:1.5;" x1="6" x2="70" y1="29.6094" y2="29.6094"/><text fill="#000000" font-family="sans-serif" font-size="14" font-weight="bold" lengthAdjust="spacing" textLength="51" x="10" y="22.5332">Escape</text></g><!--cluster Outils--><g id="cluster_Outils"><path d="M32.5,50 L74.5,50 A3.75,3.75 0 0 1 77,52.5 L84,73.6094 L1177.5,73.6094 A2.5,2.5 0 0 1 1180,76.1094 L1180,766.5 A2.5,2.5 0 0 1 1177.5,769 L32.5,769 A2.5,2.5 0 0 1 30,766.5 L30,52.5 A2.5,2.5 0 0 1 32.5,50 " fill="none" style="stroke:#000000;stroke-width:1.5;"/><line style="stroke:#000000;stroke-width:1.5;" x1="30" x2="84" y1="73.6094" y2="73.6094"/><text fill="#000000" font-family="sans-serif" font-size="14" font-weight="bold" lengthAdjust="spacing" textLength="41" x="34" y="66.5332">Outils</text></g><!--class Donnees--><g id="elem_Donnees"><rect codeLine="3" fill="#F1F1F1" height="149.6563" id="Donnees" rx="2.5" ry="2.5" style="stroke:#181818;stroke-width:0.5;" width="266" x="82" y="123"/><ellipse cx="182.25" cy="139" fill="#ADD1B2" rx="11" ry="11" style="stroke:#181818;stroke-width:1.0;"/><path d="M184.25,135.5 Q184.4531,135 184.6875,134.75 Q184.9219,134.5 185.1875,134.5 Q185.6563,134.5 185.9531,134.7813 Q186.25,135.0625 186.25,135.7188 L186.25,137.2813 Q186.25,137.9375 185.9688,138.2188 Q185.6875,138.5 185.25,138.5 Q184.8594,138.5 184.6094,138.3281 Q184.3594,138.1563 184.25,137.7031 Q184.2031,137.3906 184.0313,137.2188 Q183.7188,136.8906 183.1563,136.7031 Q182.5938,136.5 182.0313,136.5 Q181.3281,136.5 180.7344,136.7813 Q180.1563,137.0625 179.7031,137.6875 Q179.25,138.3125 179.25,139.1719 L179.25,140.0938 Q179.25,141.125 180.0938,141.8125 Q180.9375,142.5 182.4375,142.5 Q183.3281,142.5 183.9531,142.2969 Q184.3125,142.1875 184.7188,141.8281 Q184.9844,141.625 185.125,141.5625 Q185.2656,141.5 185.4375,141.5 Q185.7656,141.5 186,141.7656 Q186.25,142.0156 186.25,142.375 Q186.25,142.7188 185.9063,143.125 Q185.4063,143.7188 184.6094,144.0469 Q183.5625,144.5 182.2813,144.5 Q180.7813,144.5 179.5781,143.9063 Q178.6094,143.4375 177.9219,142.4219 Q177.25,141.4063 177.25,140.2031 L177.25,139.1094 Q177.25,137.8594 177.8438,136.7656 Q178.4531,135.6719 179.5,135.0938 Q180.5625,134.5 181.75,134.5 Q182.4688,134.5 183.0938,134.75 Q183.7188,135 184.25,135.5 Z " fill="#000000"/><text fill="#000000" font-family="sans-serif" font-size="14" lengthAdjust="spacing" textLength="57" x="202.75" y="144.7285">Donnees</text><line style="stroke:#181818;stroke-width:0.5;" x1="83" x2="347" y1="155" y2="155"/><ellipse cx="93" cy="169.3047" fill="none" rx="3" ry="3" style="stroke:#038048;stroke-width:1.0;"/><text fill="#000000" font-family="sans-serif" font-size="14" lengthAdjust="spacing" text-decoration="underline" textLength="170" x="102" y="173.5332">String APPDATA_FOLDER</text><ellipse cx="93" cy="186.9141" fill="none" rx="3" ry="3" style="stroke:#038048;stroke-width:1.0;"/><text fill="#000000" font-family="sans-serif" font-size="14" lengthAdjust="spacing" text-decoration="underline" textLength="103" x="102" y="191.1426">boolean DEBUG</text><ellipse cx="93" cy="204.5234" fill="none" rx="3" ry="3" style="stroke:#038048;stroke-width:1.0;"/><text fill="#000000" font-family="sans-serif" font-size="14" lengthAdjust="spacing" text-decoration="underline" textLength="240" x="102" y="208.752">Set&lt;Locale&gt; SUPPORTED_LOCALES</text><text fill="#000000" font-family="sans-serif" font-size="14" lengthAdjust="spacing" textLength="12" x="102" y="226.3613">...</text><rect fill="#F24D5C" height="6" style="stroke:#C82930;stroke-width:1.0;" width="6" x="90" y="258.3516"/><text fill="#000000" font-family="sans-serif" font-size="14" lengthAdjust="spacing" textLength="67" x="102" y="265.5801">Donnees()</text><line style="stroke:#181818;stroke-width:1.0;stroke-dasharray:1.0,2.0;" x1="83" x2="174" y1="242.2422" y2="242.2422"/><text fill="#000000" font-family="sans-serif" font-size="14" lengthAdjust="spacing" textLength="82" x="174" y="247.4707">Constructeur</text><line style="stroke:#181818;stroke-width:1.0;stroke-dasharray:1.0,2.0;" x1="256" x2="347" y1="242.2422" y2="242.2422"/></g><!--class Resources--><g id="elem_Resources"><rect codeLine="12" fill="#F1F1F1" height="224.0938" id="Resources" rx="2.5" ry="2.5" style="stroke:#181818;stroke-width:0.5;" width="279" x="383.5" y="86"/><ellipse cx="484.75" cy="102" fill="#ADD1B2" rx="11" ry="11" style="stroke:#181818;stroke-width:1.0;"/><path d="M486.75,98.5 Q486.9531,98 487.1875,97.75 Q487.4219,97.5 487.6875,97.5 Q488.1563,97.5 488.4531,97.7813 Q488.75,98.0625 488.75,98.7188 L488.75,100.2813 Q488.75,100.9375 488.4688,101.2188 Q488.1875,101.5 487.75,101.5 Q487.3594,101.5 487.1094,101.3281 Q486.8594,101.1563 486.75,100.7031 Q486.7031,100.3906 486.5313,100.2188 Q486.2188,99.8906 485.6563,99.7031 Q485.0938,99.5 484.5313,99.5 Q483.8281,99.5 483.2344,99.7813 Q482.6563,100.0625 482.2031,100.6875 Q481.75,101.3125 481.75,102.1719 L481.75,103.0938 Q481.75,104.125 482.5938,104.8125 Q483.4375,105.5 484.9375,105.5 Q485.8281,105.5 486.4531,105.2969 Q486.8125,105.1875 487.2188,104.8281 Q487.4844,104.625 487.625,104.5625 Q487.7656,104.5 487.9375,104.5 Q488.2656,104.5 488.5,104.7656 Q488.75,105.0156 488.75,105.375 Q488.75,105.7188 488.4063,106.125 Q487.9063,106.7188 487.1094,107.0469 Q486.0625,107.5 484.7813,107.5 Q483.2813,107.5 482.0781,106.9063 Q481.1094,106.4375 480.4219,105.4219 Q479.75,104.4063 479.75,103.2031 L479.75,102.1094 Q479.75,100.8594 480.3438,99.7656 Q480.9531,98.6719 482,98.0938 Q483.0625,97.5 484.25,97.5 Q484.9688,97.5 485.5938,97.75 Q486.2188,98 486.75,98.5 Z " fill="#000000"/><text fill="#000000" font-family="sans-serif" font-size="14" lengthAdjust="spacing" textLength="68" x="505.25" y="107.7285">Resources</text><line style="stroke:#181818;stroke-width:0.5;" x1="384.5" x2="661.5" y1="118" y2="118"/><rect fill="none" height="6" style="stroke:#C82930;stroke-width:1.0;" width="6" x="391.5" y="129.3047"/><text fill="#000000" font-family="sans-serif" font-size="14" lengthAdjust="spacing" text-decoration="underline" textLength="171" x="403.5" y="136.5332">Map&lt;String, Image&gt; assets</text><rect fill="#F24D5C" height="6" style="stroke:#C82930;stroke-width:1.0;" width="6" x="391.5" y="168.5234"/><text fill="#000000" font-family="sans-serif" font-size="14" lengthAdjust="spacing" textLength="78" x="403.5" y="175.752">Resources()</text><line style="stroke:#181818;stroke-width:1.0;stroke-dasharray:1.0,2.0;" x1="384.5" x2="482" y1="152.4141" y2="152.4141"/><text fill="#000000" font-family="sans-serif" font-size="14" lengthAdjust="spacing" textLength="82" x="482" y="157.6426">Constructeur</text><line style="stroke:#181818;stroke-width:1.0;stroke-dasharray:1.0,2.0;" x1="564" x2="661.5" y1="152.4141" y2="152.4141"/><ellipse cx="394.5" cy="210.7422" fill="#84BE84" rx="3" ry="3" style="stroke:#038048;stroke-width:1.0;"/><text fill="#000000" font-family="sans-serif" font-size="14" lengthAdjust="spacing" text-decoration="underline" textLength="208" x="403.5" y="214.9707">InputStream getAsStream(String)</text><ellipse cx="394.5" cy="228.3516" fill="#84BE84" rx="3" ry="3" style="stroke:#038048;stroke-width:1.0;"/><text fill="#000000" font-family="sans-serif" font-size="14" lengthAdjust="spacing" text-decoration="underline" textLength="144" x="403.5" y="232.5801">Image getAsset(String)</text><ellipse cx="394.5" cy="245.9609" fill="#84BE84" rx="3" ry="3" style="stroke:#038048;stroke-width:1.0;"/><text fill="#000000" font-family="sans-serif" font-size="14" lengthAdjust="spacing" text-decoration="underline" textLength="253" x="403.5" y="250.1895">ResourceBundle getI18NBundle(Locale)</text><ellipse cx="394.5" cy="263.5703" fill="#84BE84" rx="3" ry="3" style="stroke:#038048;stroke-width:1.0;"/><text fill="#000000" font-family="sans-serif" font-size="14" lengthAdjust="spacing" text-decoration="underline" textLength="211" x="403.5" y="267.7988">ResourceBundle getI18NBundle()</text><ellipse cx="394.5" cy="281.1797" fill="#84BE84" rx="3" ry="3" style="stroke:#038048;stroke-width:1.0;"/><text fill="#000000" font-family="sans-serif" font-size="14" lengthAdjust="spacing" text-decoration="underline" textLength="223" x="403.5" y="285.4082">String getI18NString(String, Locale)</text><ellipse cx="394.5" cy="298.7891" fill="#84BE84" rx="3" ry="3" style="stroke:#038048;stroke-width:1.0;"/><text fill="#000000" font-family="sans-serif" font-size="14" lengthAdjust="spacing" text-decoration="underline" textLength="173" x="403.5" y="303.0176">String getI18NString(String)</text><line style="stroke:#181818;stroke-width:1.0;stroke-dasharray:1.0,2.0;" x1="384.5" x2="492" y1="191.6328" y2="191.6328"/><text fill="#000000" font-family="sans-serif" font-size="14" lengthAdjust="spacing" textLength="62" x="492" y="196.8613">M&#233;thodes</text><line style="stroke:#181818;stroke-width:1.0;stroke-dasharray:1.0,2.0;" x1="554" x2="661.5" y1="191.6328" y2="191.6328"/></g><!--class FabriqueId--><g id="elem_FabriqueId"><rect codeLine="25" fill="#F1F1F1" height="171.2656" id="FabriqueId" rx="2.5" ry="2.5" style="stroke:#181818;stroke-width:0.5;" width="181" x="697.5" y="112.5"/><ellipse cx="749.75" cy="128.5" fill="#ADD1B2" rx="11" ry="11" style="stroke:#181818;stroke-width:1.0;"/><path d="M751.75,125 Q751.9531,124.5 752.1875,124.25 Q752.4219,124 752.6875,124 Q753.1563,124 753.4531,124.2813 Q753.75,124.5625 753.75,125.2188 L753.75,126.7813 Q753.75,127.4375 753.4688,127.7188 Q753.1875,128 752.75,128 Q752.3594,128 752.1094,127.8281 Q751.8594,127.6563 751.75,127.2031 Q751.7031,126.8906 751.5313,126.7188 Q751.2188,126.3906 750.6563,126.2031 Q750.0938,126 749.5313,126 Q748.8281,126 748.2344,126.2813 Q747.6563,126.5625 747.2031,127.1875 Q746.75,127.8125 746.75,128.6719 L746.75,129.5938 Q746.75,130.625 747.5938,131.3125 Q748.4375,132 749.9375,132 Q750.8281,132 751.4531,131.7969 Q751.8125,131.6875 752.2188,131.3281 Q752.4844,131.125 752.625,131.0625 Q752.7656,131 752.9375,131 Q753.2656,131 753.5,131.2656 Q753.75,131.5156 753.75,131.875 Q753.75,132.2188 753.4063,132.625 Q752.9063,133.2188 752.1094,133.5469 Q751.0625,134 749.7813,134 Q748.2813,134 747.0781,133.4063 Q746.1094,132.9375 745.4219,131.9219 Q744.75,130.9063 744.75,129.7031 L744.75,128.6094 Q744.75,127.3594 745.3438,126.2656 Q745.9531,125.1719 747,124.5938 Q748.0625,124 749.25,124 Q749.9688,124 750.5938,124.25 Q751.2188,124.5 751.75,125 Z " fill="#000000"/><text fill="#000000" font-family="sans-serif" font-size="14" lengthAdjust="spacing" textLength="68" x="770.25" y="134.2285">FabriqueId</text><line style="stroke:#181818;stroke-width:0.5;" x1="698.5" x2="877.5" y1="144.5" y2="144.5"/><rect fill="none" height="6" style="stroke:#C82930;stroke-width:1.0;" width="6" x="705.5" y="155.8047"/><text fill="#000000" font-family="sans-serif" font-size="14" lengthAdjust="spacing" text-decoration="underline" textLength="125" x="717.5" y="163.0332">FabriqueId instance</text><rect fill="none" height="6" style="stroke:#C82930;stroke-width:1.0;" width="6" x="705.5" y="173.4141"/><text fill="#000000" font-family="sans-serif" font-size="14" lengthAdjust="spacing" textLength="30" x="717.5" y="180.6426">int id</text><rect fill="#F24D5C" height="6" style="stroke:#C82930;stroke-width:1.0;" width="6" x="705.5" y="212.6328"/><text fill="#000000" font-family="sans-serif" font-size="14" lengthAdjust="spacing" textLength="78" x="717.5" y="219.8613">FabriqueId()</text><line style="stroke:#181818;stroke-width:1.0;stroke-dasharray:1.0,2.0;" x1="698.5" x2="747" y1="196.5234" y2="196.5234"/><text fill="#000000" font-family="sans-serif" font-size="14" lengthAdjust="spacing" textLength="82" x="747" y="201.752">Constructeur</text><line style="stroke:#181818;stroke-width:1.0;stroke-dasharray:1.0,2.0;" x1="829" x2="877.5" y1="196.5234" y2="196.5234"/><ellipse cx="708.5" cy="254.8516" fill="#84BE84" rx="3" ry="3" style="stroke:#038048;stroke-width:1.0;"/><text fill="#000000" font-family="sans-serif" font-size="14" lengthAdjust="spacing" text-decoration="underline" textLength="155" x="717.5" y="259.0801">FabriqueId getInstance()</text><ellipse cx="708.5" cy="272.4609" fill="#84BE84" rx="3" ry="3" style="stroke:#038048;stroke-width:1.0;"/><text fill="#000000" font-family="sans-serif" font-size="14" lengthAdjust="spacing" textLength="60" x="717.5" y="276.6895">int getId()</text><line style="stroke:#181818;stroke-width:1.0;stroke-dasharray:1.0,2.0;" x1="698.5" x2="757" y1="235.7422" y2="235.7422"/><text fill="#000000" font-family="sans-serif" font-size="14" lengthAdjust="spacing" textLength="62" x="757" y="240.9707">M&#233;thodes</text><line style="stroke:#181818;stroke-width:1.0;stroke-dasharray:1.0,2.0;" x1="819" x2="877.5" y1="235.7422" y2="235.7422"/></g><!--class ErrorBehavior--><g id="elem_ErrorBehavior"><rect codeLine="35" fill="#F1F1F1" height="114.4375" id="ErrorBehavior" rx="2.5" ry="2.5" style="stroke:#181818;stroke-width:0.5;" width="337" x="46.5" y="504.5"/><ellipse cx="166.75" cy="520.5" fill="#ADD1B2" rx="11" ry="11" style="stroke:#181818;stroke-width:1.0;"/><path d="M168.75,517 Q168.9531,516.5 169.1875,516.25 Q169.4219,516 169.6875,516 Q170.1563,516 170.4531,516.2813 Q170.75,516.5625 170.75,517.2188 L170.75,518.7813 Q170.75,519.4375 170.4688,519.7188 Q170.1875,520 169.75,520 Q169.3594,520 169.1094,519.8281 Q168.8594,519.6563 168.75,519.2031 Q168.7031,518.8906 168.5313,518.7188 Q168.2188,518.3906 167.6563,518.2031 Q167.0938,518 166.5313,518 Q165.8281,518 165.2344,518.2813 Q164.6563,518.5625 164.2031,519.1875 Q163.75,519.8125 163.75,520.6719 L163.75,521.5938 Q163.75,522.625 164.5938,523.3125 Q165.4375,524 166.9375,524 Q167.8281,524 168.4531,523.7969 Q168.8125,523.6875 169.2188,523.3281 Q169.4844,523.125 169.625,523.0625 Q169.7656,523 169.9375,523 Q170.2656,523 170.5,523.2656 Q170.75,523.5156 170.75,523.875 Q170.75,524.2188 170.4063,524.625 Q169.9063,525.2188 169.1094,525.5469 Q168.0625,526 166.7813,526 Q165.2813,526 164.0781,525.4063 Q163.1094,524.9375 162.4219,523.9219 Q161.75,522.9063 161.75,521.7031 L161.75,520.6094 Q161.75,519.3594 162.3438,518.2656 Q162.9531,517.1719 164,516.5938 Q165.0625,516 166.25,516 Q166.9688,516 167.5938,516.25 Q168.2188,516.5 168.75,517 Z " fill="#000000"/><text fill="#000000" font-family="sans-serif" font-size="14" lengthAdjust="spacing" textLength="88" x="187.25" y="526.2285">ErrorBehavior</text><line style="stroke:#181818;stroke-width:0.5;" x1="47.5" x2="382.5" y1="536.5" y2="536.5"/><ellipse cx="57.5" cy="572.4141" fill="#84BE84" rx="3" ry="3" style="stroke:#038048;stroke-width:1.0;"/><text fill="#000000" font-family="sans-serif" font-size="14" lengthAdjust="spacing" text-decoration="underline" textLength="189" x="66.5" y="576.6426">void handle(Exception, String)</text><ellipse cx="57.5" cy="590.0234" fill="#84BE84" rx="3" ry="3" style="stroke:#038048;stroke-width:1.0;"/><text fill="#000000" font-family="sans-serif" font-size="14" lengthAdjust="spacing" text-decoration="underline" textLength="181" x="66.5" y="594.252">void crash(Exception, String)</text><ellipse cx="57.5" cy="607.6328" fill="#84BE84" rx="3" ry="3" style="stroke:#038048;stroke-width:1.0;"/><text fill="#000000" font-family="sans-serif" font-size="14" lengthAdjust="spacing" text-decoration="underline" textLength="311" x="66.5" y="611.8613">void showWarning(String, String, String, boolean)</text><line style="stroke:#181818;stroke-width:1.0;stroke-dasharray:1.0,2.0;" x1="47.5" x2="184" y1="553.3047" y2="553.3047"/><text fill="#000000" font-family="sans-serif" font-size="14" lengthAdjust="spacing" textLength="62" x="184" y="558.5332">M&#233;thodes</text><line style="stroke:#181818;stroke-width:1.0;stroke-dasharray:1.0,2.0;" x1="246" x2="382.5" y1="553.3047" y2="553.3047"/></g><!--class FileManager--><g id="elem_FileManager"><rect codeLine="42" fill="#F1F1F1" height="259.3125" id="FileManager" rx="2.5" ry="2.5" style="stroke:#181818;stroke-width:0.5;" width="388" x="419" y="432"/><ellipse cx="569.25" cy="448" fill="#ADD1B2" rx="11" ry="11" style="stroke:#181818;stroke-width:1.0;"/><path d="M571.25,444.5 Q571.4531,444 571.6875,443.75 Q571.9219,443.5 572.1875,443.5 Q572.6563,443.5 572.9531,443.7813 Q573.25,444.0625 573.25,444.7188 L573.25,446.2813 Q573.25,446.9375 572.9688,447.2188 Q572.6875,447.5 572.25,447.5 Q571.8594,447.5 571.6094,447.3281 Q571.3594,447.1563 571.25,446.7031 Q571.2031,446.3906 571.0313,446.2188 Q570.7188,445.8906 570.1563,445.7031 Q569.5938,445.5 569.0313,445.5 Q568.3281,445.5 567.7344,445.7813 Q567.1563,446.0625 566.7031,446.6875 Q566.25,447.3125 566.25,448.1719 L566.25,449.0938 Q566.25,450.125 567.0938,450.8125 Q567.9375,451.5 569.4375,451.5 Q570.3281,451.5 570.9531,451.2969 Q571.3125,451.1875 571.7188,450.8281 Q571.9844,450.625 572.125,450.5625 Q572.2656,450.5 572.4375,450.5 Q572.7656,450.5 573,450.7656 Q573.25,451.0156 573.25,451.375 Q573.25,451.7188 572.9063,452.125 Q572.4063,452.7188 571.6094,453.0469 Q570.5625,453.5 569.2813,453.5 Q567.7813,453.5 566.5781,452.9063 Q565.6094,452.4375 564.9219,451.4219 Q564.25,450.4063 564.25,449.2031 L564.25,448.1094 Q564.25,446.8594 564.8438,445.7656 Q565.4531,444.6719 566.5,444.0938 Q567.5625,443.5 568.75,443.5 Q569.4688,443.5 570.0938,443.75 Q570.7188,444 571.25,444.5 Z " fill="#000000"/><text fill="#000000" font-family="sans-serif" font-size="14" lengthAdjust="spacing" textLength="79" x="589.75" y="453.7285">FileManager</text><line style="stroke:#181818;stroke-width:0.5;" x1="420" x2="806" y1="464" y2="464"/><line style="stroke:#181818;stroke-width:0.5;" x1="420" x2="806" y1="472" y2="472"/><ellipse cx="430" cy="486.3047" fill="#84BE84" rx="3" ry="3" style="stroke:#038048;stroke-width:1.0;"/><text fill="#000000" font-family="sans-serif" font-size="14" lengthAdjust="spacing" text-decoration="underline" textLength="141" x="439" y="490.5332">boolean delete(String)</text><ellipse cx="430" cy="503.9141" fill="#84BE84" rx="3" ry="3" style="stroke:#038048;stroke-width:1.0;"/><text fill="#000000" font-family="sans-serif" font-size="14" lengthAdjust="spacing" text-decoration="underline" textLength="274" x="439" y="508.1426">boolean write(JSONObject, String, boolean)</text><ellipse cx="430" cy="521.5234" fill="#84BE84" rx="3" ry="3" style="stroke:#038048;stroke-width:1.0;"/><text fill="#000000" font-family="sans-serif" font-size="14" lengthAdjust="spacing" text-decoration="underline" textLength="238" x="439" y="525.752">JSONObject readFile(String, boolean)</text><ellipse cx="430" cy="539.1328" fill="#84BE84" rx="3" ry="3" style="stroke:#038048;stroke-width:1.0;"/><text fill="#000000" font-family="sans-serif" font-size="14" lengthAdjust="spacing" text-decoration="underline" textLength="360" x="439" y="543.3613">Map&lt;String, JSONObject&gt; readDirectory(String, boolean)</text><ellipse cx="430" cy="556.7422" fill="#84BE84" rx="3" ry="3" style="stroke:#038048;stroke-width:1.0;"/><text fill="#000000" font-family="sans-serif" font-size="14" lengthAdjust="spacing" text-decoration="underline" textLength="240" x="439" y="560.9707">JSONObject readResourceFile(String)</text><ellipse cx="430" cy="574.3516" fill="#84BE84" rx="3" ry="3" style="stroke:#038048;stroke-width:1.0;"/><text fill="#000000" font-family="sans-serif" font-size="14" lengthAdjust="spacing" text-decoration="underline" textLength="362" x="439" y="578.5801">Map&lt;String, JSONObject&gt; readResourceDirectory(String)</text><ellipse cx="430" cy="591.9609" fill="#84BE84" rx="3" ry="3" style="stroke:#038048;stroke-width:1.0;"/><text fill="#000000" font-family="sans-serif" font-size="14" lengthAdjust="spacing" text-decoration="underline" textLength="168" x="439" y="596.1895">void open(String, boolean)</text><ellipse cx="430" cy="609.5703" fill="#84BE84" rx="3" ry="3" style="stroke:#038048;stroke-width:1.0;"/><text fill="#000000" font-family="sans-serif" font-size="14" lengthAdjust="spacing" text-decoration="underline" textLength="117" x="439" y="613.7988">File getFile(String)</text><rect fill="#F24D5C" height="6" style="stroke:#C82930;stroke-width:1.0;" width="6" x="427" y="624.1797"/><text fill="#000000" font-family="sans-serif" font-size="14" lengthAdjust="spacing" text-decoration="underline" textLength="213" x="439" y="631.4082">boolean writeString(String, String)</text><rect fill="#F24D5C" height="6" style="stroke:#C82930;stroke-width:1.0;" width="6" x="427" y="641.7891"/><text fill="#000000" font-family="sans-serif" font-size="14" lengthAdjust="spacing" text-decoration="underline" textLength="154" x="439" y="649.0176">String readString(String)</text><rect fill="#F24D5C" height="6" style="stroke:#C82930;stroke-width:1.0;" width="6" x="427" y="659.3984"/><text fill="#000000" font-family="sans-serif" font-size="14" lengthAdjust="spacing" text-decoration="underline" textLength="228" x="439" y="666.627">JSONObject readJSONString(String)</text><rect fill="#F24D5C" height="6" style="stroke:#C82930;stroke-width:1.0;" width="6" x="427" y="677.0078"/><text fill="#000000" font-family="sans-serif" font-size="14" lengthAdjust="spacing" text-decoration="underline" textLength="164" x="439" y="684.2363">SecretKey getSecretKey()</text></g><!--class ProceduralGenerator--><g id="elem_ProceduralGenerator"><rect codeLine="57" fill="#F1F1F1" height="382.5781" id="ProceduralGenerator" rx="2.5" ry="2.5" style="stroke:#181818;stroke-width:0.5;" width="321" x="842.5" y="370"/><ellipse cx="931.75" cy="386" fill="#ADD1B2" rx="11" ry="11" style="stroke:#181818;stroke-width:1.0;"/><path d="M933.75,382.5 Q933.9531,382 934.1875,381.75 Q934.4219,381.5 934.6875,381.5 Q935.1563,381.5 935.4531,381.7813 Q935.75,382.0625 935.75,382.7188 L935.75,384.2813 Q935.75,384.9375 935.4688,385.2188 Q935.1875,385.5 934.75,385.5 Q934.3594,385.5 934.1094,385.3281 Q933.8594,385.1563 933.75,384.7031 Q933.7031,384.3906 933.5313,384.2188 Q933.2188,383.8906 932.6563,383.7031 Q932.0938,383.5 931.5313,383.5 Q930.8281,383.5 930.2344,383.7813 Q929.6563,384.0625 929.2031,384.6875 Q928.75,385.3125 928.75,386.1719 L928.75,387.0938 Q928.75,388.125 929.5938,388.8125 Q930.4375,389.5 931.9375,389.5 Q932.8281,389.5 933.4531,389.2969 Q933.8125,389.1875 934.2188,388.8281 Q934.4844,388.625 934.625,388.5625 Q934.7656,388.5 934.9375,388.5 Q935.2656,388.5 935.5,388.7656 Q935.75,389.0156 935.75,389.375 Q935.75,389.7188 935.4063,390.125 Q934.9063,390.7188 934.1094,391.0469 Q933.0625,391.5 931.7813,391.5 Q930.2813,391.5 929.0781,390.9063 Q928.1094,390.4375 927.4219,389.4219 Q926.75,388.4063 926.75,387.2031 L926.75,386.1094 Q926.75,384.8594 927.3438,383.7656 Q927.9531,382.6719 929,382.0938 Q930.0625,381.5 931.25,381.5 Q931.9688,381.5 932.5938,381.75 Q933.2188,382 933.75,382.5 Z " fill="#000000"/><text fill="#000000" font-family="sans-serif" font-size="14" lengthAdjust="spacing" textLength="134" x="952.25" y="391.7285">ProceduralGenerator</text><line style="stroke:#181818;stroke-width:0.5;" x1="843.5" x2="1162.5" y1="402" y2="402"/><rect fill="none" height="6" style="stroke:#C82930;stroke-width:1.0;" width="6" x="850.5" y="413.3047"/><text fill="#000000" font-family="sans-serif" font-size="14" lengthAdjust="spacing" text-decoration="underline" textLength="171" x="862.5" y="420.5332">Map&lt;String, Image&gt; assets</text><rect fill="none" height="6" style="stroke:#C82930;stroke-width:1.0;" width="6" x="850.5" y="430.9141"/><text fill="#000000" font-family="sans-serif" font-size="14" lengthAdjust="spacing" text-decoration="underline" textLength="93" x="862.5" y="438.1426">boolean WALL</text><rect fill="none" height="6" style="stroke:#C82930;stroke-width:1.0;" width="6" x="850.5" y="448.5234"/><text fill="#000000" font-family="sans-serif" font-size="14" lengthAdjust="spacing" text-decoration="underline" textLength="102" x="862.5" y="455.752">boolean EMPTY</text><rect fill="none" height="6" style="stroke:#C82930;stroke-width:1.0;" width="6" x="850.5" y="466.1328"/><text fill="#000000" font-family="sans-serif" font-size="14" lengthAdjust="spacing" textLength="77" x="862.5" y="473.3613">char[][] level</text><rect fill="none" height="6" style="stroke:#C82930;stroke-width:1.0;" width="6" x="850.5" y="483.7422"/><text fill="#000000" font-family="sans-serif" font-size="14" lengthAdjust="spacing" textLength="105" x="862.5" y="490.9707">List&lt;int[]&gt; visited</text><rect fill="none" height="6" style="stroke:#C82930;stroke-width:1.0;" width="6" x="850.5" y="501.3516"/><text fill="#000000" font-family="sans-serif" font-size="14" lengthAdjust="spacing" textLength="51" x="862.5" y="508.5801">int width</text><rect fill="none" height="6" style="stroke:#C82930;stroke-width:1.0;" width="6" x="850.5" y="518.9609"/><text fill="#000000" font-family="sans-serif" font-size="14" lengthAdjust="spacing" textLength="58" x="862.5" y="526.1895">int height</text><rect fill="none" height="6" style="stroke:#C82930;stroke-width:1.0;" width="6" x="850.5" y="536.5703"/><text fill="#000000" font-family="sans-serif" font-size="14" lengthAdjust="spacing" textLength="202" x="862.5" y="543.7988">List&lt;Personnage&gt; personnages</text><rect fill="none" height="6" style="stroke:#C82930;stroke-width:1.0;" width="6" x="850.5" y="554.1797"/><text fill="#000000" font-family="sans-serif" font-size="14" lengthAdjust="spacing" textLength="121" x="862.5" y="561.4082">List&lt;Object&gt; objets</text><ellipse cx="853.5" cy="596.3984" fill="#84BE84" rx="3" ry="3" style="stroke:#038048;stroke-width:1.0;"/><text fill="#000000" font-family="sans-serif" font-size="14" lengthAdjust="spacing" textLength="194" x="862.5" y="600.627">ProceduralGenerator(long, int)</text><line style="stroke:#181818;stroke-width:1.0;stroke-dasharray:1.0,2.0;" x1="843.5" x2="962" y1="577.2891" y2="577.2891"/><text fill="#000000" font-family="sans-serif" font-size="14" lengthAdjust="spacing" textLength="82" x="962" y="582.5176">Constructeur</text><line style="stroke:#181818;stroke-width:1.0;stroke-dasharray:1.0,2.0;" x1="1044" x2="1162.5" y1="577.2891" y2="577.2891"/><ellipse cx="853.5" cy="635.6172" fill="#84BE84" rx="3" ry="3" style="stroke:#038048;stroke-width:1.0;"/><text fill="#000000" font-family="sans-serif" font-size="14" lengthAdjust="spacing" text-decoration="underline" textLength="124" x="862.5" y="639.8457">long genererSeed()</text><ellipse cx="853.5" cy="653.2266" fill="#84BE84" rx="3" ry="3" style="stroke:#038048;stroke-width:1.0;"/><text fill="#000000" font-family="sans-serif" font-size="14" lengthAdjust="spacing" textLength="120" x="862.5" y="657.4551">Monde getMonde()</text><rect fill="#F24D5C" height="6" style="stroke:#C82930;stroke-width:1.0;" width="6" x="850.5" y="667.8359"/><text fill="#000000" font-family="sans-serif" font-size="14" lengthAdjust="spacing" textLength="275" x="862.5" y="675.0645">void generateMaze(Random, int, int, int, int)</text><rect fill="#F24D5C" height="6" style="stroke:#C82930;stroke-width:1.0;" width="6" x="850.5" y="685.4453"/><text fill="#000000" font-family="sans-serif" font-size="14" lengthAdjust="spacing" textLength="134" x="862.5" y="692.6738">void splash(Random)</text><rect fill="#F24D5C" height="6" style="stroke:#C82930;stroke-width:1.0;" width="6" x="850.5" y="703.0547"/><text fill="#000000" font-family="sans-serif" font-size="14" lengthAdjust="spacing" textLength="226" x="862.5" y="710.2832">List&lt;int[]&gt; getVoisinsEligibles(int,int)</text><rect fill="#F24D5C" height="6" style="stroke:#C82930;stroke-width:1.0;" width="6" x="850.5" y="720.6641"/><text fill="#000000" font-family="sans-serif" font-size="14" lengthAdjust="spacing" textLength="295" x="862.5" y="727.8926">boolean containsCoordinate(List&lt;int[]&gt;, int, int)</text><rect fill="#F24D5C" height="6" style="stroke:#C82930;stroke-width:1.0;" width="6" x="850.5" y="738.2734"/><text fill="#000000" font-family="sans-serif" font-size="14" lengthAdjust="spacing" textLength="210" x="862.5" y="745.502">int[] caseVisiteAleatoire(Random)</text><line style="stroke:#181818;stroke-width:1.0;stroke-dasharray:1.0,2.0;" x1="843.5" x2="972" y1="616.5078" y2="616.5078"/><text fill="#000000" font-family="sans-serif" font-size="14" lengthAdjust="spacing" textLength="62" x="972" y="621.7363">M&#233;thodes</text><line style="stroke:#181818;stroke-width:1.0;stroke-dasharray:1.0,2.0;" x1="1034" x2="1162.5" y1="616.5078" y2="616.5078"/></g><!--SRC=[dLP9Rjim5Dtd55pAo01qrqLWG8cLmAqS2tO654OGqEI7nLOXLP9ocWO-KC_HYvMKB5kbDTZMGkBmtzVx0v-KOl83Bm05Yk0KqCS9CbUwNXndcYLglMWlac2bq41m3b1TjzSf-b0QQqPMQAebumlaHz70l_TVRiRX89Wq6S-5I01pD0Yk7cuRFOA-30N12VJHz26AnfFxOF0IZg_zC9Z-1xguk73cru8hBJEY8PFEvdaPYzVRhAzEd70de4GcoKx0vrjw8vnU5a6VeU6hILqV6IHeTGYLpNigP0hOwEyV7GiAoi5K4ZJaQQOD1S2lQ07QLyNOArZr6c6MR04mTBkiIuPN6QT93Xj- -dnNpBoYFCTXUnsTjBOkPbwPwOutjc1Rgds3vvBzp618cyjTiM6ce9WJS4mPruZHGwg_zNbC-IkCRBnhKZjvjRJiFcthzq1A8QyWnaicf9E4lSWi1QCendbbWry4Kiq4FqCTpPMZYCGgFXIaOl7sX2MlzeRxNAjCM-5P0YFCpNcGpSfMYXM513HqdPVI-aqoO_nbEhuRpxy3qIsq70zR33B7cLgEthxOgYXj_VHpHmCcpLZ8T-z89kLnhZ0wYaZfnoNKNd6H0j-RkQLekxwHwdb3nHovwO2kvSO6rQ0r3i39g9tk1vm2aQ2_mhkDQZDfEzAH50He9d5o2nmarZi7- -2FMKtIdlmmxB89Hj7zDyU8n5ZEdcVFA84b9Cvco9I-DBerU-wZ9LEcBBH6QzyOrN7DUWni4Uiwbn58PRxzUNZfPgpgJCj-5UPvo2Vzj2xlNY9iOWsv8sJUOatHZIkGKm2w8_0ZmMdUxFd0SrieFpoBWeeHkz_WJOnCYzUSZtEhnQeqiG9Te7ejfJ8K7eKf5rT1mXPidfZV6kkvnd7P6aHmZGtWMWX96JSClOh7PcBvFY9OmMFU7xxnfeNHansQgvFYlle7]--></g></svg>