<?xml version="1.0" encoding="us-ascii" standalone="no"?><svg xmlns="http://www.w3.org/2000/svg" xmlns:xlink="http://www.w3.org/1999/xlink" contentStyleType="text/css" height="1169px" preserveAspectRatio="none" style="width:1635px;height:1169px;background:#FFFFFF;" version="1.1" viewBox="0 0 1635 1169" width="1635px" zoomAndPan="magnify"><defs/><g><!--cluster Escape--><g id="cluster_Escape"><path d="M8.5,78 L60.5,78 A3.75,3.75 0 0 1 63,80.5 L70,102.6211 L1625.5,102.6211 A2.5,2.5 0 0 1 1628,105.1211 L1628,1159.5 A2.5,2.5 0 0 1 1625.5,1162 L8.5,1162 A2.5,2.5 0 0 1 6,1159.5 L6,80.5 A2.5,2.5 0 0 1 8.5,78 " fill="none" style="stroke:#000000;stroke-width:1.5;"/><line style="stroke:#000000;stroke-width:1.5;" x1="6" x2="70" y1="102.6211" y2="102.6211"/><text fill="#000000" font-family="sans-serif" font-size="14" font-weight="bold" lengthAdjust="spacing" textLength="51" x="10" y="95.1074">Escape</text></g><!--cluster Monde--><g id="cluster_Monde"><path d="M370.5,238 L420.5,238 A3.75,3.75 0 0 1 423,240.5 L430,262.6211 L1475.5,262.6211 A2.5,2.5 0 0 1 1478,265.1211 L1478,1135.5 A2.5,2.5 0 0 1 1475.5,1138 L370.5,1138 A2.5,2.5 0 0 1 368,1135.5 L368,240.5 A2.5,2.5 0 0 1 370.5,238 " fill="none" style="stroke:#000000;stroke-width:1.5;"/><line style="stroke:#000000;stroke-width:1.5;" x1="368" x2="430" y1="262.6211" y2="262.6211"/><text fill="#000000" font-family="sans-serif" font-size="14" font-weight="bold" lengthAdjust="spacing" textLength="49" x="372" y="255.1074">Monde</text></g><!--cluster Outils--><g id="cluster_Outils"><path d="M32.5,312.5 L74.5,312.5 A3.75,3.75 0 0 1 77,315 L84,337.1211 L341.5,337.1211 A2.5,2.5 0 0 1 344,339.6211 L344,992.5 A2.5,2.5 0 0 1 341.5,995 L32.5,995 A2.5,2.5 0 0 1 30,992.5 L30,315 A2.5,2.5 0 0 1 32.5,312.5 " fill="none" style="stroke:#000000;stroke-width:1.5;"/><line style="stroke:#000000;stroke-width:1.5;" x1="30" x2="84" y1="337.1211" y2="337.1211"/><text fill="#000000" font-family="sans-serif" font-size="14" font-weight="bold" lengthAdjust="spacing" textLength="41" x="34" y="329.6074">Outils</text></g><!--cluster gui--><g id="cluster_gui"><path d="M1504.5,359 L1527.5,359 A3.75,3.75 0 0 1 1530,361.5 L1537,383.6211 L1601.5,383.6211 A2.5,2.5 0 0 1 1604,386.1211 L1604,457.5 A2.5,2.5 0 0 1 1601.5,460 L1504.5,460 A2.5,2.5 0 0 1 1502,457.5 L1502,361.5 A2.5,2.5 0 0 1 1504.5,359 " fill="none" style="stroke:#000000;stroke-width:1.5;"/><line style="stroke:#000000;stroke-width:1.5;" x1="1502" x2="1537" y1="383.6211" y2="383.6211"/><text fill="#000000" font-family="sans-serif" font-size="14" font-weight="bold" lengthAdjust="spacing" textLength="22" x="1506" y="376.1074">gui</text></g><!--class Escape--><g id="elem_Escape"><rect codeLine="79" fill="#F1F1F1" height="99.8633" id="Escape" rx="2.5" ry="2.5" style="stroke:#181818;stroke-width:0.5;" width="173" x="669.5" y="115"/><ellipse cx="728.25" cy="131" fill="#ADD1B2" rx="11" ry="11" style="stroke:#181818;stroke-width:1.0;"/><path d="M731.0156,126.875 Q731.1719,126.6563 731.3594,126.5469 Q731.5469,126.4375 731.7656,126.4375 Q732.1406,126.4375 732.375,126.7031 Q732.6094,126.9531 732.6094,127.5625 L732.6094,129.0156 Q732.6094,129.625 732.375,129.8906 Q732.1406,130.1563 731.7656,130.1563 Q731.4219,130.1563 731.2188,129.9531 Q731.0156,129.7656 730.9063,129.25 Q730.8594,128.8906 730.6719,128.7031 Q730.3438,128.3281 729.7344,128.1094 Q729.125,127.8906 728.5,127.8906 Q727.7344,127.8906 727.0938,128.2188 Q726.4688,128.5469 725.9688,129.2969 Q725.4844,130.0469 725.4844,131.0781 L725.4844,132.1719 Q725.4844,133.4063 726.375,134.2344 Q727.2656,135.0469 728.8594,135.0469 Q729.7969,135.0469 730.4531,134.7969 Q730.8438,134.6406 731.2656,134.2031 Q731.5313,133.9375 731.6719,133.8594 Q731.8281,133.7813 732.0313,133.7813 Q732.3594,133.7813 732.6094,134.0469 Q732.875,134.2969 732.875,134.6406 Q732.875,134.9844 732.5313,135.3906 Q732.0313,135.9688 731.2344,136.2969 Q730.1563,136.75 728.8594,136.75 Q727.3438,136.75 726.1406,136.125 Q725.1563,135.625 724.4688,134.5625 Q723.7813,133.4844 723.7813,132.2031 L723.7813,131.0469 Q723.7813,129.7188 724.3906,128.5781 Q725.0156,127.4219 726.1094,126.8125 Q727.2031,126.1875 728.4375,126.1875 Q729.1719,126.1875 729.8125,126.3594 Q730.4688,126.5156 731.0156,126.875 Z " fill="#000000"/><text fill="#000000" font-family="sans-serif" font-size="14" lengthAdjust="spacing" textLength="47" x="748.75" y="136.7969">Escape</text><line style="stroke:#181818;stroke-width:0.5;" x1="670.5" x2="841.5" y1="147" y2="147"/><ellipse cx="680.5" cy="184.4316" fill="#84BE84" rx="3" ry="3" style="stroke:#038048;stroke-width:1.0;"/><text fill="#000000" font-family="sans-serif" font-size="14" lengthAdjust="spacing" text-decoration="underline" textLength="147" x="689.5" y="188.7285">void main(String[] args)</text><ellipse cx="680.5" cy="203.0527" fill="#84BE84" rx="3" ry="3" style="stroke:#038048;stroke-width:1.0;"/><text fill="#000000" font-family="sans-serif" font-size="14" lengthAdjust="spacing" textLength="144" x="689.5" y="207.3496">void start(Stage stage)</text><line style="stroke:#181818;stroke-width:1.0;stroke-dasharray:1.0,2.0;" x1="670.5" x2="741" y1="164.3105" y2="164.3105"/><text fill="#000000" font-family="sans-serif" font-size="14" lengthAdjust="spacing" textLength="30" x="741" y="169.6074">Main</text><line style="stroke:#181818;stroke-width:1.0;stroke-dasharray:1.0,2.0;" x1="771" x2="841.5" y1="164.3105" y2="164.3105"/></g><!--class ElementMonde--><g id="elem_ElementMonde"><rect codeLine="4" fill="#F1F1F1" height="174.3477" id="ElementMonde" rx="2.5" ry="2.5" style="stroke:#181818;stroke-width:0.5;" width="127" x="1334.5" y="625"/><ellipse cx="1349.5" cy="641" fill="#A9DCDF" rx="11" ry="11" style="stroke:#181818;stroke-width:1.0;"/><path d="M1351.6875,642.7656 L1347.5469,642.7656 L1347.125,643.7969 L1347.5469,643.7969 Q1348.1563,643.7969 1348.4219,644.0313 Q1348.6875,644.2656 1348.6875,644.6563 Q1348.6875,645.0313 1348.4219,645.2656 Q1348.1563,645.5 1347.5469,645.5 L1345.25,645.5 Q1344.6406,645.5 1344.3906,645.2656 Q1344.125,645.0313 1344.125,644.6406 Q1344.125,644.2656 1344.4063,644.0313 Q1344.6719,643.7813 1345.2969,643.7969 L1347.9688,637.1406 L1346.8594,637.1406 Q1346.25,637.1406 1345.9844,636.9063 Q1345.7188,636.6719 1345.7188,636.2813 Q1345.7188,635.9063 1345.9844,635.6719 Q1346.25,635.4375 1346.8594,635.4375 L1350.5313,635.4375 L1353.9219,643.7969 Q1354.5156,643.7969 1354.7031,643.9375 Q1355.0938,644.2031 1355.0938,644.6563 Q1355.0938,645.0313 1354.8281,645.2656 Q1354.5781,645.5 1353.9688,645.5 L1351.6719,645.5 Q1351.0625,645.5 1350.7969,645.2656 Q1350.5313,645.0313 1350.5313,644.6406 Q1350.5313,644.2656 1350.7969,644.0313 Q1351.0625,643.7969 1351.6719,643.7969 L1352.0938,643.7969 L1351.6875,642.7656 Z M1350.9688,641.0625 L1349.6094,637.6875 L1348.2344,641.0625 L1350.9688,641.0625 Z " fill="#000000"/><text fill="#000000" font-family="sans-serif" font-size="14" font-style="italic" lengthAdjust="spacing" textLength="95" x="1363.5" y="646.7969">ElementMonde</text><line style="stroke:#181818;stroke-width:0.5;" x1="1335.5" x2="1460.5" y1="657" y2="657"/><polygon fill="none" points="1345.5,666.8105,1349.5,670.8105,1345.5,674.8105,1341.5,670.8105" style="stroke:#B38D22;stroke-width:1.0;"/><text fill="#000000" font-family="sans-serif" font-size="14" lengthAdjust="spacing" textLength="37" x="1354.5" y="676.1074">float x</text><polygon fill="none" points="1345.5,685.4316,1349.5,689.4316,1345.5,693.4316,1341.5,689.4316" style="stroke:#B38D22;stroke-width:1.0;"/><text fill="#000000" font-family="sans-serif" font-size="14" lengthAdjust="spacing" textLength="38" x="1354.5" y="694.7285">float y</text><polygon fill="none" points="1345.5,704.0527,1349.5,708.0527,1345.5,712.0527,1341.5,708.0527" style="stroke:#B38D22;stroke-width:1.0;"/><text fill="#000000" font-family="sans-serif" font-size="14" lengthAdjust="spacing" textLength="68" x="1354.5" y="713.3496">int hauteur</text><polygon fill="none" points="1345.5,722.6738,1349.5,726.6738,1345.5,730.6738,1341.5,726.6738" style="stroke:#B38D22;stroke-width:1.0;"/><text fill="#000000" font-family="sans-serif" font-size="14" lengthAdjust="spacing" textLength="64" x="1354.5" y="731.9707">int largeur</text><ellipse cx="1345.5" cy="768.916" fill="#84BE84" rx="3" ry="3" style="stroke:#038048;stroke-width:1.0;"/><text fill="#000000" font-family="sans-serif" font-size="14" lengthAdjust="spacing" textLength="53" x="1354.5" y="773.2129">Monde()</text><text fill="#000000" font-family="sans-serif" font-size="14" lengthAdjust="spacing" textLength="4" x="1354.5" y="791.834">&#160;</text><line style="stroke:#181818;stroke-width:1.0;stroke-dasharray:1.0,2.0;" x1="1335.5" x2="1357" y1="748.7949" y2="748.7949"/><text fill="#000000" font-family="sans-serif" font-size="14" lengthAdjust="spacing" textLength="82" x="1357" y="754.0918">Constructeur</text><line style="stroke:#181818;stroke-width:1.0;stroke-dasharray:1.0,2.0;" x1="1439" x2="1460.5" y1="748.7949" y2="748.7949"/></g><!--class Terrain--><g id="elem_Terrain"><rect codeLine="13" fill="#F1F1F1" height="141.1055" id="Terrain" rx="2.5" ry="2.5" style="stroke:#181818;stroke-width:0.5;" width="313" x="986.5" y="641.5"/><ellipse cx="1115.75" cy="657.5" fill="#A9DCDF" rx="11" ry="11" style="stroke:#181818;stroke-width:1.0;"/><path d="M1117.9375,659.2656 L1113.7969,659.2656 L1113.375,660.2969 L1113.7969,660.2969 Q1114.4063,660.2969 1114.6719,660.5313 Q1114.9375,660.7656 1114.9375,661.1563 Q1114.9375,661.5313 1114.6719,661.7656 Q1114.4063,662 1113.7969,662 L1111.5,662 Q1110.8906,662 1110.6406,661.7656 Q1110.375,661.5313 1110.375,661.1406 Q1110.375,660.7656 1110.6563,660.5313 Q1110.9219,660.2813 1111.5469,660.2969 L1114.2188,653.6406 L1113.1094,653.6406 Q1112.5,653.6406 1112.2344,653.4063 Q1111.9688,653.1719 1111.9688,652.7813 Q1111.9688,652.4063 1112.2344,652.1719 Q1112.5,651.9375 1113.1094,651.9375 L1116.7813,651.9375 L1120.1719,660.2969 Q1120.7656,660.2969 1120.9531,660.4375 Q1121.3438,660.7031 1121.3438,661.1563 Q1121.3438,661.5313 1121.0781,661.7656 Q1120.8281,662 1120.2188,662 L1117.9219,662 Q1117.3125,662 1117.0469,661.7656 Q1116.7813,661.5313 1116.7813,661.1406 Q1116.7813,660.7656 1117.0469,660.5313 Q1117.3125,660.2969 1117.9219,660.2969 L1118.3438,660.2969 L1117.9375,659.2656 Z M1117.2188,657.5625 L1115.8594,654.1875 L1114.4844,657.5625 L1117.2188,657.5625 Z " fill="#000000"/><text fill="#000000" font-family="sans-serif" font-size="14" font-style="italic" lengthAdjust="spacing" textLength="46" x="1136.25" y="663.2969">Terrain</text><line style="stroke:#181818;stroke-width:0.5;" x1="987.5" x2="1298.5" y1="673.5" y2="673.5"/><ellipse cx="997.5" cy="710.9316" fill="#84BE84" rx="3" ry="3" style="stroke:#038048;stroke-width:1.0;"/><text fill="#000000" font-family="sans-serif" font-size="14" lengthAdjust="spacing" textLength="287" x="1006.5" y="715.2285">Terrain(float x, float y, int hauteur, int largeur)</text><line style="stroke:#181818;stroke-width:1.0;stroke-dasharray:1.0,2.0;" x1="987.5" x2="1102" y1="690.8105" y2="690.8105"/><text fill="#000000" font-family="sans-serif" font-size="14" lengthAdjust="spacing" textLength="82" x="1102" y="696.1074">Constructeur</text><line style="stroke:#181818;stroke-width:1.0;stroke-dasharray:1.0,2.0;" x1="1184" x2="1298.5" y1="690.8105" y2="690.8105"/><ellipse cx="997.5" cy="752.1738" fill="#84BE84" rx="3" ry="3" style="stroke:#038048;stroke-width:1.0;"/><text fill="#000000" font-family="sans-serif" font-size="14" lengthAdjust="spacing" textLength="160" x="1006.5" y="756.4707">boolean estTraversable()</text><text fill="#000000" font-family="sans-serif" font-size="14" lengthAdjust="spacing" textLength="4" x="1006.5" y="775.0918">&#160;</text><line style="stroke:#181818;stroke-width:1.0;stroke-dasharray:1.0,2.0;" x1="987.5" x2="1112" y1="732.0527" y2="732.0527"/><text fill="#000000" font-family="sans-serif" font-size="14" lengthAdjust="spacing" textLength="62" x="1112" y="737.3496">M&#233;thodes</text><line style="stroke:#181818;stroke-width:1.0;stroke-dasharray:1.0,2.0;" x1="1174" x2="1298.5" y1="732.0527" y2="732.0527"/></g><!--class Mur--><g id="elem_Mur"><rect codeLine="21" fill="#F1F1F1" height="122.4844" id="Mur" rx="2.5" ry="2.5" style="stroke:#181818;stroke-width:0.5;" width="291" x="1170.5" y="859"/><ellipse cx="1299.75" cy="875" fill="#ADD1B2" rx="11" ry="11" style="stroke:#181818;stroke-width:1.0;"/><path d="M1302.5156,870.875 Q1302.6719,870.6563 1302.8594,870.5469 Q1303.0469,870.4375 1303.2656,870.4375 Q1303.6406,870.4375 1303.875,870.7031 Q1304.1094,870.9531 1304.1094,871.5625 L1304.1094,873.0156 Q1304.1094,873.625 1303.875,873.8906 Q1303.6406,874.1563 1303.2656,874.1563 Q1302.9219,874.1563 1302.7188,873.9531 Q1302.5156,873.7656 1302.4063,873.25 Q1302.3594,872.8906 1302.1719,872.7031 Q1301.8438,872.3281 1301.2344,872.1094 Q1300.625,871.8906 1300,871.8906 Q1299.2344,871.8906 1298.5938,872.2188 Q1297.9688,872.5469 1297.4688,873.2969 Q1296.9844,874.0469 1296.9844,875.0781 L1296.9844,876.1719 Q1296.9844,877.4063 1297.875,878.2344 Q1298.7656,879.0469 1300.3594,879.0469 Q1301.2969,879.0469 1301.9531,878.7969 Q1302.3438,878.6406 1302.7656,878.2031 Q1303.0313,877.9375 1303.1719,877.8594 Q1303.3281,877.7813 1303.5313,877.7813 Q1303.8594,877.7813 1304.1094,878.0469 Q1304.375,878.2969 1304.375,878.6406 Q1304.375,878.9844 1304.0313,879.3906 Q1303.5313,879.9688 1302.7344,880.2969 Q1301.6563,880.75 1300.3594,880.75 Q1298.8438,880.75 1297.6406,880.125 Q1296.6563,879.625 1295.9688,878.5625 Q1295.2813,877.4844 1295.2813,876.2031 L1295.2813,875.0469 Q1295.2813,873.7188 1295.8906,872.5781 Q1296.5156,871.4219 1297.6094,870.8125 Q1298.7031,870.1875 1299.9375,870.1875 Q1300.6719,870.1875 1301.3125,870.3594 Q1301.9688,870.5156 1302.5156,870.875 Z " fill="#000000"/><text fill="#000000" font-family="sans-serif" font-size="14" lengthAdjust="spacing" textLength="24" x="1320.25" y="880.7969">Mur</text><line style="stroke:#181818;stroke-width:0.5;" x1="1171.5" x2="1460.5" y1="891" y2="891"/><ellipse cx="1181.5" cy="928.4316" fill="#84BE84" rx="3" ry="3" style="stroke:#038048;stroke-width:1.0;"/><text fill="#000000" font-family="sans-serif" font-size="14" lengthAdjust="spacing" textLength="265" x="1190.5" y="932.7285">Mur(float x, float y, int hauteur, int largeur)</text><line style="stroke:#181818;stroke-width:1.0;stroke-dasharray:1.0,2.0;" x1="1171.5" x2="1275" y1="908.3105" y2="908.3105"/><text fill="#000000" font-family="sans-serif" font-size="14" lengthAdjust="spacing" textLength="82" x="1275" y="913.6074">Constructeur</text><line style="stroke:#181818;stroke-width:1.0;stroke-dasharray:1.0,2.0;" x1="1357" x2="1460.5" y1="908.3105" y2="908.3105"/><ellipse cx="1181.5" cy="969.6738" fill="#84BE84" rx="3" ry="3" style="stroke:#038048;stroke-width:1.0;"/><text fill="#000000" font-family="sans-serif" font-size="14" lengthAdjust="spacing" textLength="160" x="1190.5" y="973.9707">boolean estTraversable()</text><line style="stroke:#181818;stroke-width:1.0;stroke-dasharray:1.0,2.0;" x1="1171.5" x2="1285" y1="949.5527" y2="949.5527"/><text fill="#000000" font-family="sans-serif" font-size="14" lengthAdjust="spacing" textLength="62" x="1285" y="954.8496">M&#233;thodes</text><line style="stroke:#181818;stroke-width:1.0;stroke-dasharray:1.0,2.0;" x1="1347" x2="1460.5" y1="949.5527" y2="949.5527"/></g><!--class Personnage--><g id="elem_Personnage"><rect codeLine="29" fill="#F1F1F1" height="159.7266" id="Personnage" rx="2.5" ry="2.5" style="stroke:#181818;stroke-width:0.5;" width="391" x="560.5" y="632"/><ellipse cx="713.25" cy="648" fill="#A9DCDF" rx="11" ry="11" style="stroke:#181818;stroke-width:1.0;"/><path d="M715.4375,649.7656 L711.2969,649.7656 L710.875,650.7969 L711.2969,650.7969 Q711.9063,650.7969 712.1719,651.0313 Q712.4375,651.2656 712.4375,651.6563 Q712.4375,652.0313 712.1719,652.2656 Q711.9063,652.5 711.2969,652.5 L709,652.5 Q708.3906,652.5 708.1406,652.2656 Q707.875,652.0313 707.875,651.6406 Q707.875,651.2656 708.1563,651.0313 Q708.4219,650.7813 709.0469,650.7969 L711.7188,644.1406 L710.6094,644.1406 Q710,644.1406 709.7344,643.9063 Q709.4688,643.6719 709.4688,643.2813 Q709.4688,642.9063 709.7344,642.6719 Q710,642.4375 710.6094,642.4375 L714.2813,642.4375 L717.6719,650.7969 Q718.2656,650.7969 718.4531,650.9375 Q718.8438,651.2031 718.8438,651.6563 Q718.8438,652.0313 718.5781,652.2656 Q718.3281,652.5 717.7188,652.5 L715.4219,652.5 Q714.8125,652.5 714.5469,652.2656 Q714.2813,652.0313 714.2813,651.6406 Q714.2813,651.2656 714.5469,651.0313 Q714.8125,650.7969 715.4219,650.7969 L715.8438,650.7969 L715.4375,649.7656 Z M714.7188,648.0625 L713.3594,644.6875 L711.9844,648.0625 L714.7188,648.0625 Z " fill="#000000"/><text fill="#000000" font-family="sans-serif" font-size="14" font-style="italic" lengthAdjust="spacing" textLength="77" x="733.75" y="653.7969">Personnage</text><line style="stroke:#181818;stroke-width:0.5;" x1="561.5" x2="950.5" y1="664" y2="664"/><polygon fill="none" points="571.5,673.8105,575.5,677.8105,571.5,681.8105,567.5,677.8105" style="stroke:#B38D22;stroke-width:1.0;"/><text fill="#000000" font-family="sans-serif" font-size="14" lengthAdjust="spacing" textLength="75" x="580.5" y="683.1074">float vitesse</text><ellipse cx="571.5" cy="720.0527" fill="#84BE84" rx="3" ry="3" style="stroke:#038048;stroke-width:1.0;"/><text fill="#000000" font-family="sans-serif" font-size="14" lengthAdjust="spacing" textLength="365" x="580.5" y="724.3496">Personnage(int x, int y, int largeur, int hauteur, int vitesse)</text><line style="stroke:#181818;stroke-width:1.0;stroke-dasharray:1.0,2.0;" x1="561.5" x2="715" y1="699.9316" y2="699.9316"/><text fill="#000000" font-family="sans-serif" font-size="14" lengthAdjust="spacing" textLength="82" x="715" y="705.2285">Constructeur</text><line style="stroke:#181818;stroke-width:1.0;stroke-dasharray:1.0,2.0;" x1="797" x2="950.5" y1="699.9316" y2="699.9316"/><ellipse cx="571.5" cy="761.2949" fill="#84BE84" rx="3" ry="3" style="stroke:#038048;stroke-width:1.0;"/><text fill="#000000" font-family="sans-serif" font-size="14" lengthAdjust="spacing" textLength="304" x="580.5" y="765.5918">void d&#233;placer(TypeMouvement typeMouvement)</text><ellipse cx="571.5" cy="779.916" fill="#84BE84" rx="3" ry="3" style="stroke:#038048;stroke-width:1.0;"/><text fill="#000000" font-family="sans-serif" font-size="14" lengthAdjust="spacing" textLength="138" x="580.5" y="784.2129">boolean estUnHeros()</text><line style="stroke:#181818;stroke-width:1.0;stroke-dasharray:1.0,2.0;" x1="561.5" x2="725" y1="741.1738" y2="741.1738"/><text fill="#000000" font-family="sans-serif" font-size="14" lengthAdjust="spacing" textLength="62" x="725" y="746.4707">M&#233;thodes</text><line style="stroke:#181818;stroke-width:1.0;stroke-dasharray:1.0,2.0;" x1="787" x2="950.5" y1="741.1738" y2="741.1738"/></g><!--class TypeMouvement--><g id="elem_TypeMouvement"><rect codeLine="38" fill="#F1F1F1" height="122.4844" id="TypeMouvement" rx="2.5" ry="2.5" style="stroke:#181818;stroke-width:0.5;" width="137" x="387.5" y="359"/><ellipse cx="402.5" cy="375" fill="#EB937F" rx="11" ry="11" style="stroke:#181818;stroke-width:1.0;"/><path d="M401.3594,375.7969 L401.3594,378.2969 L405.6875,378.2969 L405.6875,377.375 Q405.6875,376.7656 405.9219,376.5 Q406.1719,376.2344 406.5469,376.2344 Q406.9219,376.2344 407.1563,376.5 Q407.3906,376.7656 407.3906,377.375 L407.3906,380 L399.3906,380 Q398.7656,380 398.5,379.7656 Q398.25,379.5313 398.25,379.1406 Q398.25,378.7656 398.5156,378.5313 Q398.7813,378.2969 399.3906,378.2969 L399.6563,378.2969 L399.6563,371.6406 L399.3906,371.6406 Q398.7656,371.6406 398.5,371.4063 Q398.25,371.1719 398.25,370.7813 Q398.25,370.4063 398.5,370.1719 Q398.7656,369.9375 399.3906,369.9375 L407.0156,369.9375 L407.0156,372.5313 Q407.0156,373.1406 406.7813,373.4063 Q406.5625,373.6563 406.1719,373.6563 Q405.7969,373.6563 405.5625,373.4063 Q405.3281,373.1406 405.3281,372.5313 L405.3281,371.6406 L401.3594,371.6406 L401.3594,374.0938 L402.8438,374.0938 Q402.8438,373.4375 402.9688,373.25 Q403.2344,372.8438 403.7031,372.8438 Q404.0781,372.8438 404.3125,373.1094 Q404.5469,373.3594 404.5469,373.9688 L404.5469,375.9375 Q404.5469,376.4844 404.4219,376.6719 Q404.1563,377.0625 403.7031,377.0625 Q403.2344,377.0625 402.9688,376.6563 Q402.8438,376.4688 402.8438,375.7969 L401.3594,375.7969 Z " fill="#000000"/><text fill="#000000" font-family="sans-serif" font-size="14" lengthAdjust="spacing" textLength="105" x="416.5" y="380.7969">TypeMouvement</text><line style="stroke:#181818;stroke-width:0.5;" x1="388.5" x2="523.5" y1="391" y2="391"/><text fill="#000000" font-family="sans-serif" font-size="14" lengthAdjust="spacing" textLength="42" x="393.5" y="410.1074">RIGHT</text><text fill="#000000" font-family="sans-serif" font-size="14" lengthAdjust="spacing" textLength="35" x="393.5" y="428.7285">LEFT</text><text fill="#000000" font-family="sans-serif" font-size="14" lengthAdjust="spacing" textLength="29" x="393.5" y="447.3496">TOP</text><text fill="#000000" font-family="sans-serif" font-size="14" lengthAdjust="spacing" textLength="43" x="393.5" y="465.9707">DOWN</text><line style="stroke:#181818;stroke-width:0.5;" x1="388.5" x2="523.5" y1="473.4844" y2="473.4844"/></g><!--class Heros--><g id="elem_Heros"><rect codeLine="45" fill="#F1F1F1" height="122.4844" id="Heros" rx="2.5" ry="2.5" style="stroke:#181818;stroke-width:0.5;" width="351" x="784.5" y="859"/><ellipse cx="937.25" cy="875" fill="#ADD1B2" rx="11" ry="11" style="stroke:#181818;stroke-width:1.0;"/><path d="M940.0156,870.875 Q940.1719,870.6563 940.3594,870.5469 Q940.5469,870.4375 940.7656,870.4375 Q941.1406,870.4375 941.375,870.7031 Q941.6094,870.9531 941.6094,871.5625 L941.6094,873.0156 Q941.6094,873.625 941.375,873.8906 Q941.1406,874.1563 940.7656,874.1563 Q940.4219,874.1563 940.2188,873.9531 Q940.0156,873.7656 939.9063,873.25 Q939.8594,872.8906 939.6719,872.7031 Q939.3438,872.3281 938.7344,872.1094 Q938.125,871.8906 937.5,871.8906 Q936.7344,871.8906 936.0938,872.2188 Q935.4688,872.5469 934.9688,873.2969 Q934.4844,874.0469 934.4844,875.0781 L934.4844,876.1719 Q934.4844,877.4063 935.375,878.2344 Q936.2656,879.0469 937.8594,879.0469 Q938.7969,879.0469 939.4531,878.7969 Q939.8438,878.6406 940.2656,878.2031 Q940.5313,877.9375 940.6719,877.8594 Q940.8281,877.7813 941.0313,877.7813 Q941.3594,877.7813 941.6094,878.0469 Q941.875,878.2969 941.875,878.6406 Q941.875,878.9844 941.5313,879.3906 Q941.0313,879.9688 940.2344,880.2969 Q939.1563,880.75 937.8594,880.75 Q936.3438,880.75 935.1406,880.125 Q934.1563,879.625 933.4688,878.5625 Q932.7813,877.4844 932.7813,876.2031 L932.7813,875.0469 Q932.7813,873.7188 933.3906,872.5781 Q934.0156,871.4219 935.1094,870.8125 Q936.2031,870.1875 937.4375,870.1875 Q938.1719,870.1875 938.8125,870.3594 Q939.4688,870.5156 940.0156,870.875 Z " fill="#000000"/><text fill="#000000" font-family="sans-serif" font-size="14" lengthAdjust="spacing" textLength="37" x="957.75" y="880.7969">Heros</text><line style="stroke:#181818;stroke-width:0.5;" x1="785.5" x2="1134.5" y1="891" y2="891"/><ellipse cx="795.5" cy="928.4316" fill="#84BE84" rx="3" ry="3" style="stroke:#038048;stroke-width:1.0;"/><text fill="#000000" font-family="sans-serif" font-size="14" lengthAdjust="spacing" textLength="325" x="804.5" y="932.7285">Heros(int x, int y, int largeur, int hauteur, int vitesse)</text><line style="stroke:#181818;stroke-width:1.0;stroke-dasharray:1.0,2.0;" x1="785.5" x2="919" y1="908.3105" y2="908.3105"/><text fill="#000000" font-family="sans-serif" font-size="14" lengthAdjust="spacing" textLength="82" x="919" y="913.6074">Constructeur</text><line style="stroke:#181818;stroke-width:1.0;stroke-dasharray:1.0,2.0;" x1="1001" x2="1134.5" y1="908.3105" y2="908.3105"/><ellipse cx="795.5" cy="969.6738" fill="#84BE84" rx="3" ry="3" style="stroke:#038048;stroke-width:1.0;"/><text fill="#000000" font-family="sans-serif" font-size="14" lengthAdjust="spacing" textLength="138" x="804.5" y="973.9707">boolean estUnHeros()</text><line style="stroke:#181818;stroke-width:1.0;stroke-dasharray:1.0,2.0;" x1="785.5" x2="929" y1="949.5527" y2="949.5527"/><text fill="#000000" font-family="sans-serif" font-size="14" lengthAdjust="spacing" textLength="62" x="929" y="954.8496">M&#233;thodes</text><line style="stroke:#181818;stroke-width:1.0;stroke-dasharray:1.0,2.0;" x1="991" x2="1134.5" y1="949.5527" y2="949.5527"/></g><!--class Monstre--><g id="elem_Monstre"><rect codeLine="52" fill="#F1F1F1" height="81.2422" id="Monstre" rx="2.5" ry="2.5" style="stroke:#181818;stroke-width:0.5;" width="365" x="384.5" y="879.5"/><ellipse cx="536.75" cy="895.5" fill="#A9DCDF" rx="11" ry="11" style="stroke:#181818;stroke-width:1.0;"/><path d="M538.9375,897.2656 L534.7969,897.2656 L534.375,898.2969 L534.7969,898.2969 Q535.4063,898.2969 535.6719,898.5313 Q535.9375,898.7656 535.9375,899.1563 Q535.9375,899.5313 535.6719,899.7656 Q535.4063,900 534.7969,900 L532.5,900 Q531.8906,900 531.6406,899.7656 Q531.375,899.5313 531.375,899.1406 Q531.375,898.7656 531.6563,898.5313 Q531.9219,898.2813 532.5469,898.2969 L535.2188,891.6406 L534.1094,891.6406 Q533.5,891.6406 533.2344,891.4063 Q532.9688,891.1719 532.9688,890.7813 Q532.9688,890.4063 533.2344,890.1719 Q533.5,889.9375 534.1094,889.9375 L537.7813,889.9375 L541.1719,898.2969 Q541.7656,898.2969 541.9531,898.4375 Q542.3438,898.7031 542.3438,899.1563 Q542.3438,899.5313 542.0781,899.7656 Q541.8281,900 541.2188,900 L538.9219,900 Q538.3125,900 538.0469,899.7656 Q537.7813,899.5313 537.7813,899.1406 Q537.7813,898.7656 538.0469,898.5313 Q538.3125,898.2969 538.9219,898.2969 L539.3438,898.2969 L538.9375,897.2656 Z M538.2188,895.5625 L536.8594,892.1875 L535.4844,895.5625 L538.2188,895.5625 Z " fill="#000000"/><text fill="#000000" font-family="sans-serif" font-size="14" font-style="italic" lengthAdjust="spacing" textLength="52" x="557.25" y="901.2969">Monstre</text><line style="stroke:#181818;stroke-width:0.5;" x1="385.5" x2="748.5" y1="911.5" y2="911.5"/><ellipse cx="395.5" cy="948.9316" fill="#84BE84" rx="3" ry="3" style="stroke:#038048;stroke-width:1.0;"/><text fill="#000000" font-family="sans-serif" font-size="14" lengthAdjust="spacing" textLength="339" x="404.5" y="953.2285">Monstre(int x, int y, int largeur, int hauteur, int vitesse)</text><line style="stroke:#181818;stroke-width:1.0;stroke-dasharray:1.0,2.0;" x1="385.5" x2="526" y1="928.8105" y2="928.8105"/><text fill="#000000" font-family="sans-serif" font-size="14" lengthAdjust="spacing" textLength="82" x="526" y="934.1074">Constructeur</text><line style="stroke:#181818;stroke-width:1.0;stroke-dasharray:1.0,2.0;" x1="608" x2="748.5" y1="928.8105" y2="928.8105"/></g><!--class Walker--><g id="elem_Walker"><rect codeLine="57" fill="#F1F1F1" height="81.2422" id="Walker" rx="2.5" ry="2.5" style="stroke:#181818;stroke-width:0.5;" width="358" x="388" y="1041"/><ellipse cx="540.75" cy="1057" fill="#ADD1B2" rx="11" ry="11" style="stroke:#181818;stroke-width:1.0;"/><path d="M543.5156,1052.875 Q543.6719,1052.6563 543.8594,1052.5469 Q544.0469,1052.4375 544.2656,1052.4375 Q544.6406,1052.4375 544.875,1052.7031 Q545.1094,1052.9531 545.1094,1053.5625 L545.1094,1055.0156 Q545.1094,1055.625 544.875,1055.8906 Q544.6406,1056.1563 544.2656,1056.1563 Q543.9219,1056.1563 543.7188,1055.9531 Q543.5156,1055.7656 543.4063,1055.25 Q543.3594,1054.8906 543.1719,1054.7031 Q542.8438,1054.3281 542.2344,1054.1094 Q541.625,1053.8906 541,1053.8906 Q540.2344,1053.8906 539.5938,1054.2188 Q538.9688,1054.5469 538.4688,1055.2969 Q537.9844,1056.0469 537.9844,1057.0781 L537.9844,1058.1719 Q537.9844,1059.4063 538.875,1060.2344 Q539.7656,1061.0469 541.3594,1061.0469 Q542.2969,1061.0469 542.9531,1060.7969 Q543.3438,1060.6406 543.7656,1060.2031 Q544.0313,1059.9375 544.1719,1059.8594 Q544.3281,1059.7813 544.5313,1059.7813 Q544.8594,1059.7813 545.1094,1060.0469 Q545.375,1060.2969 545.375,1060.6406 Q545.375,1060.9844 545.0313,1061.3906 Q544.5313,1061.9688 543.7344,1062.2969 Q542.6563,1062.75 541.3594,1062.75 Q539.8438,1062.75 538.6406,1062.125 Q537.6563,1061.625 536.9688,1060.5625 Q536.2813,1059.4844 536.2813,1058.2031 L536.2813,1057.0469 Q536.2813,1055.7188 536.8906,1054.5781 Q537.5156,1053.4219 538.6094,1052.8125 Q539.7031,1052.1875 540.9375,1052.1875 Q541.6719,1052.1875 542.3125,1052.3594 Q542.9688,1052.5156 543.5156,1052.875 Z " fill="#000000"/><text fill="#000000" font-family="sans-serif" font-size="14" lengthAdjust="spacing" textLength="44" x="561.25" y="1062.7969">Walker</text><line style="stroke:#181818;stroke-width:0.5;" x1="389" x2="745" y1="1073" y2="1073"/><ellipse cx="399" cy="1110.4316" fill="#84BE84" rx="3" ry="3" style="stroke:#038048;stroke-width:1.0;"/><text fill="#000000" font-family="sans-serif" font-size="14" lengthAdjust="spacing" textLength="332" x="408" y="1114.7285">Walker(int x, int y, int largeur, int hauteur, int vitesse)</text><line style="stroke:#181818;stroke-width:1.0;stroke-dasharray:1.0,2.0;" x1="389" x2="526" y1="1090.3105" y2="1090.3105"/><text fill="#000000" font-family="sans-serif" font-size="14" lengthAdjust="spacing" textLength="82" x="526" y="1095.6074">Constructeur</text><line style="stroke:#181818;stroke-width:1.0;stroke-dasharray:1.0,2.0;" x1="608" x2="745" y1="1090.3105" y2="1090.3105"/></g><!--class Monde--><g id="elem_Monde"><rect codeLine="62" fill="#F1F1F1" height="290.0742" id="Monde" rx="2.5" ry="2.5" style="stroke:#181818;stroke-width:0.5;" width="393" x="559.5" y="275"/><ellipse cx="730.25" cy="291" fill="#ADD1B2" rx="11" ry="11" style="stroke:#181818;stroke-width:1.0;"/><path d="M733.0156,286.875 Q733.1719,286.6563 733.3594,286.5469 Q733.5469,286.4375 733.7656,286.4375 Q734.1406,286.4375 734.375,286.7031 Q734.6094,286.9531 734.6094,287.5625 L734.6094,289.0156 Q734.6094,289.625 734.375,289.8906 Q734.1406,290.1563 733.7656,290.1563 Q733.4219,290.1563 733.2188,289.9531 Q733.0156,289.7656 732.9063,289.25 Q732.8594,288.8906 732.6719,288.7031 Q732.3438,288.3281 731.7344,288.1094 Q731.125,287.8906 730.5,287.8906 Q729.7344,287.8906 729.0938,288.2188 Q728.4688,288.5469 727.9688,289.2969 Q727.4844,290.0469 727.4844,291.0781 L727.4844,292.1719 Q727.4844,293.4063 728.375,294.2344 Q729.2656,295.0469 730.8594,295.0469 Q731.7969,295.0469 732.4531,294.7969 Q732.8438,294.6406 733.2656,294.2031 Q733.5313,293.9375 733.6719,293.8594 Q733.8281,293.7813 734.0313,293.7813 Q734.3594,293.7813 734.6094,294.0469 Q734.875,294.2969 734.875,294.6406 Q734.875,294.9844 734.5313,295.3906 Q734.0313,295.9688 733.2344,296.2969 Q732.1563,296.75 730.8594,296.75 Q729.3438,296.75 728.1406,296.125 Q727.1563,295.625 726.4688,294.5625 Q725.7813,293.4844 725.7813,292.2031 L725.7813,291.0469 Q725.7813,289.7188 726.3906,288.5781 Q727.0156,287.4219 728.1094,286.8125 Q729.2031,286.1875 730.4375,286.1875 Q731.1719,286.1875 731.8125,286.3594 Q732.4688,286.5156 733.0156,286.875 Z " fill="#000000"/><text fill="#000000" font-family="sans-serif" font-size="14" lengthAdjust="spacing" textLength="43" x="750.75" y="296.7969">Monde</text><line style="stroke:#181818;stroke-width:0.5;" x1="560.5" x2="951.5" y1="307" y2="307"/><polygon fill="none" points="570.5,316.8105,574.5,320.8105,570.5,324.8105,566.5,320.8105" style="stroke:#B38D22;stroke-width:1.0;"/><text fill="#000000" font-family="sans-serif" font-size="14" lengthAdjust="spacing" textLength="70" x="579.5" y="326.1074">int nbLigne</text><polygon fill="none" points="570.5,335.4316,574.5,339.4316,570.5,343.4316,566.5,339.4316" style="stroke:#B38D22;stroke-width:1.0;"/><text fill="#000000" font-family="sans-serif" font-size="14" lengthAdjust="spacing" textLength="56" x="579.5" y="344.7285">int nbCol</text><ellipse cx="570.5" cy="381.6738" fill="#84BE84" rx="3" ry="3" style="stroke:#038048;stroke-width:1.0;"/><text fill="#000000" font-family="sans-serif" font-size="14" lengthAdjust="spacing" textLength="53" x="579.5" y="385.9707">Monde()</text><line style="stroke:#181818;stroke-width:1.0;stroke-dasharray:1.0,2.0;" x1="560.5" x2="715" y1="361.5527" y2="361.5527"/><text fill="#000000" font-family="sans-serif" font-size="14" lengthAdjust="spacing" textLength="82" x="715" y="366.8496">Constructeur</text><line style="stroke:#181818;stroke-width:1.0;stroke-dasharray:1.0,2.0;" x1="797" x2="951.5" y1="361.5527" y2="361.5527"/><ellipse cx="570.5" cy="422.916" fill="#84BE84" rx="3" ry="3" style="stroke:#038048;stroke-width:1.0;"/><text fill="#000000" font-family="sans-serif" font-size="14" lengthAdjust="spacing" textLength="351" x="579.5" y="427.2129">boolean collision(ElementMonde e1, ElementMonde e2)</text><ellipse cx="570.5" cy="441.5371" fill="#84BE84" rx="3" ry="3" style="stroke:#038048;stroke-width:1.0;"/><text fill="#000000" font-family="sans-serif" font-size="14" lengthAdjust="spacing" textLength="108" x="579.5" y="445.834">Heros getHeros()</text><ellipse cx="570.5" cy="460.1582" fill="#84BE84" rx="3" ry="3" style="stroke:#038048;stroke-width:1.0;"/><text fill="#000000" font-family="sans-serif" font-size="14" lengthAdjust="spacing" textLength="367" x="579.5" y="464.4551">void deplacementHeros(TypeMouvement typeMouvement)</text><ellipse cx="570.5" cy="478.7793" fill="#84BE84" rx="3" ry="3" style="stroke:#038048;stroke-width:1.0;"/><text fill="#000000" font-family="sans-serif" font-size="14" lengthAdjust="spacing" textLength="179" x="579.5" y="483.0762">void deplacementMonstres()</text><ellipse cx="570.5" cy="497.4004" fill="#84BE84" rx="3" ry="3" style="stroke:#038048;stroke-width:1.0;"/><text fill="#000000" font-family="sans-serif" font-size="14" lengthAdjust="spacing" textLength="171" x="579.5" y="501.6973">void addTerrains(Terrain t)</text><ellipse cx="570.5" cy="516.0215" fill="#84BE84" rx="3" ry="3" style="stroke:#038048;stroke-width:1.0;"/><text fill="#000000" font-family="sans-serif" font-size="14" lengthAdjust="spacing" textLength="230" x="579.5" y="520.3184">void addPersonnage(Personnage p)</text><ellipse cx="570.5" cy="534.6426" fill="#84BE84" rx="3" ry="3" style="stroke:#038048;stroke-width:1.0;"/><text fill="#000000" font-family="sans-serif" font-size="14" lengthAdjust="spacing" textLength="114" x="579.5" y="538.9395">void updateData()</text><ellipse cx="570.5" cy="553.2637" fill="#84BE84" rx="3" ry="3" style="stroke:#038048;stroke-width:1.0;"/><text fill="#000000" font-family="sans-serif" font-size="14" lengthAdjust="spacing" textLength="197" x="579.5" y="557.5605">void chargerCarte(String carte)</text><line style="stroke:#181818;stroke-width:1.0;stroke-dasharray:1.0,2.0;" x1="560.5" x2="725" y1="402.7949" y2="402.7949"/><text fill="#000000" font-family="sans-serif" font-size="14" lengthAdjust="spacing" textLength="62" x="725" y="408.0918">M&#233;thodes</text><line style="stroke:#181818;stroke-width:1.0;stroke-dasharray:1.0,2.0;" x1="787" x2="951.5" y1="402.7949" y2="402.7949"/></g><!--class Donnees--><g id="elem_Donnees"><rect codeLine="86" fill="#F1F1F1" height="141.1055" id="Donnees" rx="2.5" ry="2.5" style="stroke:#181818;stroke-width:0.5;" width="233" x="70.5" y="349.5"/><ellipse cx="154.25" cy="365.5" fill="#ADD1B2" rx="11" ry="11" style="stroke:#181818;stroke-width:1.0;"/><path d="M157.0156,361.375 Q157.1719,361.1563 157.3594,361.0469 Q157.5469,360.9375 157.7656,360.9375 Q158.1406,360.9375 158.375,361.2031 Q158.6094,361.4531 158.6094,362.0625 L158.6094,363.5156 Q158.6094,364.125 158.375,364.3906 Q158.1406,364.6563 157.7656,364.6563 Q157.4219,364.6563 157.2188,364.4531 Q157.0156,364.2656 156.9063,363.75 Q156.8594,363.3906 156.6719,363.2031 Q156.3438,362.8281 155.7344,362.6094 Q155.125,362.3906 154.5,362.3906 Q153.7344,362.3906 153.0938,362.7188 Q152.4688,363.0469 151.9688,363.7969 Q151.4844,364.5469 151.4844,365.5781 L151.4844,366.6719 Q151.4844,367.9063 152.375,368.7344 Q153.2656,369.5469 154.8594,369.5469 Q155.7969,369.5469 156.4531,369.2969 Q156.8438,369.1406 157.2656,368.7031 Q157.5313,368.4375 157.6719,368.3594 Q157.8281,368.2813 158.0313,368.2813 Q158.3594,368.2813 158.6094,368.5469 Q158.875,368.7969 158.875,369.1406 Q158.875,369.4844 158.5313,369.8906 Q158.0313,370.4688 157.2344,370.7969 Q156.1563,371.25 154.8594,371.25 Q153.3438,371.25 152.1406,370.625 Q151.1563,370.125 150.4688,369.0625 Q149.7813,367.9844 149.7813,366.7031 L149.7813,365.5469 Q149.7813,364.2188 150.3906,363.0781 Q151.0156,361.9219 152.1094,361.3125 Q153.2031,360.6875 154.4375,360.6875 Q155.1719,360.6875 155.8125,360.8594 Q156.4688,361.0156 157.0156,361.375 Z " fill="#000000"/><text fill="#000000" font-family="sans-serif" font-size="14" lengthAdjust="spacing" textLength="57" x="174.75" y="371.2969">Donnees</text><line style="stroke:#181818;stroke-width:0.5;" x1="71.5" x2="302.5" y1="381.5" y2="381.5"/><ellipse cx="81.5" cy="396.3105" fill="none" rx="3" ry="3" style="stroke:#038048;stroke-width:1.0;"/><text fill="#000000" font-family="sans-serif" font-size="14" lengthAdjust="spacing" text-decoration="underline" textLength="127" x="90.5" y="400.6074">String GAME_TITLE</text><ellipse cx="81.5" cy="414.9316" fill="none" rx="3" ry="3" style="stroke:#038048;stroke-width:1.0;"/><text fill="#000000" font-family="sans-serif" font-size="14" lengthAdjust="spacing" text-decoration="underline" textLength="207" x="90.5" y="419.2285">int WINDOW_DEFAULT_HEIGHT</text><ellipse cx="81.5" cy="433.5527" fill="none" rx="3" ry="3" style="stroke:#038048;stroke-width:1.0;"/><text fill="#000000" font-family="sans-serif" font-size="14" lengthAdjust="spacing" text-decoration="underline" textLength="201" x="90.5" y="437.8496">int WINDOW_DEFAULT_WIDTH</text><ellipse cx="81.5" cy="452.1738" fill="none" rx="3" ry="3" style="stroke:#038048;stroke-width:1.0;"/><text fill="#000000" font-family="sans-serif" font-size="14" lengthAdjust="spacing" text-decoration="underline" textLength="129" x="90.5" y="456.4707">int WORLD_HEIGHT</text><ellipse cx="81.5" cy="470.7949" fill="none" rx="3" ry="3" style="stroke:#038048;stroke-width:1.0;"/><text fill="#000000" font-family="sans-serif" font-size="14" lengthAdjust="spacing" text-decoration="underline" textLength="123" x="90.5" y="475.0918">int WORLD_WIDTH</text><line style="stroke:#181818;stroke-width:0.5;" x1="71.5" x2="302.5" y1="482.6055" y2="482.6055"/></g><!--class GestionFichier--><g id="elem_GestionFichier"><rect codeLine="94" fill="#F1F1F1" height="122.4844" id="GestionFichier" rx="2.5" ry="2.5" style="stroke:#181818;stroke-width:0.5;" width="282" x="46" y="651"/><ellipse cx="136.75" cy="667" fill="#ADD1B2" rx="11" ry="11" style="stroke:#181818;stroke-width:1.0;"/><path d="M139.5156,662.875 Q139.6719,662.6563 139.8594,662.5469 Q140.0469,662.4375 140.2656,662.4375 Q140.6406,662.4375 140.875,662.7031 Q141.1094,662.9531 141.1094,663.5625 L141.1094,665.0156 Q141.1094,665.625 140.875,665.8906 Q140.6406,666.1563 140.2656,666.1563 Q139.9219,666.1563 139.7188,665.9531 Q139.5156,665.7656 139.4063,665.25 Q139.3594,664.8906 139.1719,664.7031 Q138.8438,664.3281 138.2344,664.1094 Q137.625,663.8906 137,663.8906 Q136.2344,663.8906 135.5938,664.2188 Q134.9688,664.5469 134.4688,665.2969 Q133.9844,666.0469 133.9844,667.0781 L133.9844,668.1719 Q133.9844,669.4063 134.875,670.2344 Q135.7656,671.0469 137.3594,671.0469 Q138.2969,671.0469 138.9531,670.7969 Q139.3438,670.6406 139.7656,670.2031 Q140.0313,669.9375 140.1719,669.8594 Q140.3281,669.7813 140.5313,669.7813 Q140.8594,669.7813 141.1094,670.0469 Q141.375,670.2969 141.375,670.6406 Q141.375,670.9844 141.0313,671.3906 Q140.5313,671.9688 139.7344,672.2969 Q138.6563,672.75 137.3594,672.75 Q135.8438,672.75 134.6406,672.125 Q133.6563,671.625 132.9688,670.5625 Q132.2813,669.4844 132.2813,668.2031 L132.2813,667.0469 Q132.2813,665.7188 132.8906,664.5781 Q133.5156,663.4219 134.6094,662.8125 Q135.7031,662.1875 136.9375,662.1875 Q137.6719,662.1875 138.3125,662.3594 Q138.9688,662.5156 139.5156,662.875 Z " fill="#000000"/><text fill="#000000" font-family="sans-serif" font-size="14" lengthAdjust="spacing" textLength="92" x="157.25" y="672.7969">GestionFichier</text><line style="stroke:#181818;stroke-width:0.5;" x1="47" x2="327" y1="683" y2="683"/><ellipse cx="57" cy="720.4316" fill="#84BE84" rx="3" ry="3" style="stroke:#038048;stroke-width:1.0;"/><text fill="#000000" font-family="sans-serif" font-size="14" lengthAdjust="spacing" textLength="102" x="66" y="724.7285">GestionFichier()</text><line style="stroke:#181818;stroke-width:1.0;stroke-dasharray:1.0,2.0;" x1="47" x2="146" y1="700.3105" y2="700.3105"/><text fill="#000000" font-family="sans-serif" font-size="14" lengthAdjust="spacing" textLength="82" x="146" y="705.6074">Constructeur</text><line style="stroke:#181818;stroke-width:1.0;stroke-dasharray:1.0,2.0;" x1="228" x2="327" y1="700.3105" y2="700.3105"/><ellipse cx="57" cy="761.6738" fill="#84BE84" rx="3" ry="3" style="stroke:#038048;stroke-width:1.0;"/><text fill="#000000" font-family="sans-serif" font-size="14" lengthAdjust="spacing" textLength="256" x="66" y="765.9707">char[] lireFichierCarte(string nomFichier)</text><line style="stroke:#181818;stroke-width:1.0;stroke-dasharray:1.0,2.0;" x1="47" x2="156" y1="741.5527" y2="741.5527"/><text fill="#000000" font-family="sans-serif" font-size="14" lengthAdjust="spacing" textLength="62" x="156" y="746.8496">M&#233;thodes</text><line style="stroke:#181818;stroke-width:1.0;stroke-dasharray:1.0,2.0;" x1="218" x2="327" y1="741.5527" y2="741.5527"/></g><!--class Resources--><g id="elem_Resources"><rect codeLine="101" fill="#F1F1F1" height="118.4844" id="Resources" rx="2.5" ry="2.5" style="stroke:#181818;stroke-width:0.5;" width="202" x="86" y="861"/><ellipse cx="148.75" cy="877" fill="#ADD1B2" rx="11" ry="11" style="stroke:#181818;stroke-width:1.0;"/><path d="M151.5156,872.875 Q151.6719,872.6563 151.8594,872.5469 Q152.0469,872.4375 152.2656,872.4375 Q152.6406,872.4375 152.875,872.7031 Q153.1094,872.9531 153.1094,873.5625 L153.1094,875.0156 Q153.1094,875.625 152.875,875.8906 Q152.6406,876.1563 152.2656,876.1563 Q151.9219,876.1563 151.7188,875.9531 Q151.5156,875.7656 151.4063,875.25 Q151.3594,874.8906 151.1719,874.7031 Q150.8438,874.3281 150.2344,874.1094 Q149.625,873.8906 149,873.8906 Q148.2344,873.8906 147.5938,874.2188 Q146.9688,874.5469 146.4688,875.2969 Q145.9844,876.0469 145.9844,877.0781 L145.9844,878.1719 Q145.9844,879.4063 146.875,880.2344 Q147.7656,881.0469 149.3594,881.0469 Q150.2969,881.0469 150.9531,880.7969 Q151.3438,880.6406 151.7656,880.2031 Q152.0313,879.9375 152.1719,879.8594 Q152.3281,879.7813 152.5313,879.7813 Q152.8594,879.7813 153.1094,880.0469 Q153.375,880.2969 153.375,880.6406 Q153.375,880.9844 153.0313,881.3906 Q152.5313,881.9688 151.7344,882.2969 Q150.6563,882.75 149.3594,882.75 Q147.8438,882.75 146.6406,882.125 Q145.6563,881.625 144.9688,880.5625 Q144.2813,879.4844 144.2813,878.2031 L144.2813,877.0469 Q144.2813,875.7188 144.8906,874.5781 Q145.5156,873.4219 146.6094,872.8125 Q147.7031,872.1875 148.9375,872.1875 Q149.6719,872.1875 150.3125,872.3594 Q150.9688,872.5156 151.5156,872.875 Z " fill="#000000"/><text fill="#000000" font-family="sans-serif" font-size="14" lengthAdjust="spacing" textLength="68" x="169.25" y="882.7969">Resources</text><line style="stroke:#181818;stroke-width:0.5;" x1="87" x2="287" y1="893" y2="893"/><rect fill="none" height="6" style="stroke:#C82930;stroke-width:1.0;" width="6" x="94" y="904.8105"/><text fill="#000000" font-family="sans-serif" font-size="14" lengthAdjust="spacing" text-decoration="underline" textLength="171" x="106" y="912.1074">Map&lt;String, Image&gt; assets</text><ellipse cx="97" cy="949.0527" fill="#84BE84" rx="3" ry="3" style="stroke:#038048;stroke-width:1.0;"/><text fill="#000000" font-family="sans-serif" font-size="14" lengthAdjust="spacing" text-decoration="underline" textLength="130" x="106" y="953.3496">URL get(String path)</text><ellipse cx="97" cy="967.6738" fill="#84BE84" rx="3" ry="3" style="stroke:#038048;stroke-width:1.0;"/><text fill="#000000" font-family="sans-serif" font-size="14" lengthAdjust="spacing" text-decoration="underline" textLength="176" x="106" y="971.9707">Image getAsset(String path)</text><line style="stroke:#181818;stroke-width:1.0;stroke-dasharray:1.0,2.0;" x1="87" x2="156" y1="928.9316" y2="928.9316"/><text fill="#000000" font-family="sans-serif" font-size="14" lengthAdjust="spacing" textLength="62" x="156" y="934.2285">M&#233;thodes</text><line style="stroke:#181818;stroke-width:1.0;stroke-dasharray:1.0,2.0;" x1="218" x2="287" y1="928.9316" y2="928.9316"/></g><!--class Sprite--><g id="elem_Sprite"><rect codeLine="110" fill="#F1F1F1" height="48" id="Sprite" rx="2.5" ry="2.5" style="stroke:#181818;stroke-width:0.5;" width="69" x="1518.5" y="396"/><ellipse cx="1533.5" cy="412" fill="#ADD1B2" rx="11" ry="11" style="stroke:#181818;stroke-width:1.0;"/><path d="M1536.2656,407.875 Q1536.4219,407.6563 1536.6094,407.5469 Q1536.7969,407.4375 1537.0156,407.4375 Q1537.3906,407.4375 1537.625,407.7031 Q1537.8594,407.9531 1537.8594,408.5625 L1537.8594,410.0156 Q1537.8594,410.625 1537.625,410.8906 Q1537.3906,411.1563 1537.0156,411.1563 Q1536.6719,411.1563 1536.4688,410.9531 Q1536.2656,410.7656 1536.1563,410.25 Q1536.1094,409.8906 1535.9219,409.7031 Q1535.5938,409.3281 1534.9844,409.1094 Q1534.375,408.8906 1533.75,408.8906 Q1532.9844,408.8906 1532.3438,409.2188 Q1531.7188,409.5469 1531.2188,410.2969 Q1530.7344,411.0469 1530.7344,412.0781 L1530.7344,413.1719 Q1530.7344,414.4063 1531.625,415.2344 Q1532.5156,416.0469 1534.1094,416.0469 Q1535.0469,416.0469 1535.7031,415.7969 Q1536.0938,415.6406 1536.5156,415.2031 Q1536.7813,414.9375 1536.9219,414.8594 Q1537.0781,414.7813 1537.2813,414.7813 Q1537.6094,414.7813 1537.8594,415.0469 Q1538.125,415.2969 1538.125,415.6406 Q1538.125,415.9844 1537.7813,416.3906 Q1537.2813,416.9688 1536.4844,417.2969 Q1535.4063,417.75 1534.1094,417.75 Q1532.5938,417.75 1531.3906,417.125 Q1530.4063,416.625 1529.7188,415.5625 Q1529.0313,414.4844 1529.0313,413.2031 L1529.0313,412.0469 Q1529.0313,410.7188 1529.6406,409.5781 Q1530.2656,408.4219 1531.3594,407.8125 Q1532.4531,407.1875 1533.6875,407.1875 Q1534.4219,407.1875 1535.0625,407.3594 Q1535.7188,407.5156 1536.2656,407.875 Z " fill="#000000"/><text fill="#000000" font-family="sans-serif" font-size="14" lengthAdjust="spacing" textLength="37" x="1547.5" y="417.7969">Sprite</text><line style="stroke:#181818;stroke-width:0.5;" x1="1519.5" x2="1586.5" y1="428" y2="428"/><line style="stroke:#181818;stroke-width:0.5;" x1="1519.5" x2="1586.5" y1="436" y2="436"/></g><!--class Application--><g id="elem_Application"><rect codeLine="114" fill="#F1F1F1" height="48" id="Application" rx="2.5" ry="2.5" style="stroke:#181818;stroke-width:0.5;" width="101" x="705.5" y="7"/><ellipse cx="720.5" cy="23" fill="#ADD1B2" rx="11" ry="11" style="stroke:#181818;stroke-width:1.0;"/><path d="M723.2656,18.875 Q723.4219,18.6563 723.6094,18.5469 Q723.7969,18.4375 724.0156,18.4375 Q724.3906,18.4375 724.625,18.7031 Q724.8594,18.9531 724.8594,19.5625 L724.8594,21.0156 Q724.8594,21.625 724.625,21.8906 Q724.3906,22.1563 724.0156,22.1563 Q723.6719,22.1563 723.4688,21.9531 Q723.2656,21.7656 723.1563,21.25 Q723.1094,20.8906 722.9219,20.7031 Q722.5938,20.3281 721.9844,20.1094 Q721.375,19.8906 720.75,19.8906 Q719.9844,19.8906 719.3438,20.2188 Q718.7188,20.5469 718.2188,21.2969 Q717.7344,22.0469 717.7344,23.0781 L717.7344,24.1719 Q717.7344,25.4063 718.625,26.2344 Q719.5156,27.0469 721.1094,27.0469 Q722.0469,27.0469 722.7031,26.7969 Q723.0938,26.6406 723.5156,26.2031 Q723.7813,25.9375 723.9219,25.8594 Q724.0781,25.7813 724.2813,25.7813 Q724.6094,25.7813 724.8594,26.0469 Q725.125,26.2969 725.125,26.6406 Q725.125,26.9844 724.7813,27.3906 Q724.2813,27.9688 723.4844,28.2969 Q722.4063,28.75 721.1094,28.75 Q719.5938,28.75 718.3906,28.125 Q717.4063,27.625 716.7188,26.5625 Q716.0313,25.4844 716.0313,24.2031 L716.0313,23.0469 Q716.0313,21.7188 716.6406,20.5781 Q717.2656,19.4219 718.3594,18.8125 Q719.4531,18.1875 720.6875,18.1875 Q721.4219,18.1875 722.0625,18.3594 Q722.7188,18.5156 723.2656,18.875 Z " fill="#000000"/><text fill="#000000" font-family="sans-serif" font-size="14" lengthAdjust="spacing" textLength="69" x="734.5" y="28.7969">Application</text><line style="stroke:#181818;stroke-width:0.5;" x1="706.5" x2="805.5" y1="39" y2="39"/><line style="stroke:#181818;stroke-width:0.5;" x1="706.5" x2="805.5" y1="47" y2="47"/></g><!--link Escape to Monde--><g id="link_Escape_Monde"><path codeLine="116" d="M756,215.08 C756,232.61 756,253.37 756,274.81 " fill="none" id="Escape-Monde" style="stroke:#181818;stroke-width:1.0;"/><text fill="#000000" font-family="sans-serif" font-size="13" lengthAdjust="spacing" textLength="7" x="748.8195" y="263.9193">1</text></g><!--reverse link ElementMonde to Personnage--><g id="link_ElementMonde_Personnage"><path codeLine="117" d="M1327.6345,612.0298 C1315.6445,599.9598 1314.67,602.06 1299.5,595 C1236.44,565.66 1054.15,578.81 986.5,595 C953.11,602.99 919.09,616.65 887.81,631.88 " fill="none" id="ElementMonde-backto-Personnage" style="stroke:#181818;stroke-width:1.0;"/><polygon fill="none" points="1340.32,624.8,1331.8912,607.8013,1323.3777,616.2583,1340.32,624.8" style="stroke:#181818;stroke-width:1.0;"/></g><!--reverse link Personnage to Heros--><g id="link_Personnage_Heros"><path codeLine="118" d="M846.9571,804.8485 C868.8671,826.9685 879.65,837.87 900.3,858.72 " fill="none" id="Personnage-backto-Heros" style="stroke:#181818;stroke-width:1.0;"/><polygon fill="none" points="834.29,792.06,842.6942,809.0708,851.2199,800.6261,834.29,792.06" style="stroke:#181818;stroke-width:1.0;"/></g><!--reverse link Personnage to Monstre--><g id="link_Personnage_Monstre"><path codeLine="119" d="M671.3005,805.3229 C643.9205,835.1629 626.11,854.58 603.42,879.3 " fill="none" id="Personnage-backto-Monstre" style="stroke:#181818;stroke-width:1.0;"/><polygon fill="none" points="683.47,792.06,666.8796,801.2664,675.7215,809.3794,683.47,792.06" style="stroke:#181818;stroke-width:1.0;"/></g><!--reverse link Monstre to Walker--><g id="link_Monstre_Walker"><path codeLine="120" d="M567,978.84 C567,1003.29 567,1016.49 567,1040.89 " fill="none" id="Monstre-backto-Walker" style="stroke:#181818;stroke-width:1.0;"/><polygon fill="none" points="567,960.84,561,978.84,573,978.84,567,960.84" style="stroke:#181818;stroke-width:1.0;"/></g><!--link Terrain to ElementMonde--><g id="link_Terrain_ElementMonde"><path codeLine="122" d="M1299.88,712 C1311.38,712 1304.88,712 1316.38,712 " fill="none" id="Terrain-to-ElementMonde" style="stroke:#181818;stroke-width:1.0;"/><polygon fill="none" points="1334.38,712,1316.38,706,1316.38,718,1334.38,712" style="stroke:#181818;stroke-width:1.0;"/></g><!--reverse link Terrain to Mur--><g id="link_Terrain_Mur"><path codeLine="123" d="M1213.1442,796.5254 C1233.9242,821.2754 1245.54,835.1 1265.58,858.97 " fill="none" id="Terrain-backto-Mur" style="stroke:#181818;stroke-width:1.0;"/><polygon fill="none" points="1201.57,782.74,1208.549,800.3835,1217.7393,792.6674,1201.57,782.74" style="stroke:#181818;stroke-width:1.0;"/></g><!--reverse link Application to Escape--><g id="link_Application_Escape"><path codeLine="124" d="M756,73.3 C756,89.8 756,94.55 756,114.97 " fill="none" id="Application-backto-Escape" style="stroke:#181818;stroke-width:1.0;"/><polygon fill="none" points="756,55.3,750,73.3,762,73.3,756,55.3" style="stroke:#181818;stroke-width:1.0;"/></g><!--link Monde to Personnage--><g id="link_Monde_Personnage"><path codeLine="127" d="M756,565.15 C756,588.18 756,611.24 756,632 " fill="none" id="Monde-Personnage" style="stroke:#181818;stroke-width:1.0;"/><text fill="#000000" font-family="sans-serif" font-size="13" lengthAdjust="spacing" textLength="5" x="750.7617" y="620.6201">*</text></g><!--link Monde to Terrain--><g id="link_Monde_Terrain"><path codeLine="128" d="M948.37,565.15 C983.84,591.73 1019.36,618.35 1050.17,641.44 " fill="none" id="Monde-Terrain" style="stroke:#181818;stroke-width:1.0;"/><text fill="#000000" font-family="sans-serif" font-size="13" lengthAdjust="spacing" textLength="5" x="1035.3391" y="630.3248">*</text></g><!--link Monde to GestionFichier--><g id="link_Monde_GestionFichier"><path codeLine="131" d="M559.5,555.94 C553.65,559.08 547.81,562.1 542,565 C468.78,601.48 443.73,594.07 368,625 C348.68,632.89 328.47,641.81 308.85,650.84 " fill="none" id="Monde-GestionFichier" style="stroke:#181818;stroke-width:1.0;"/><text fill="#000000" font-family="sans-serif" font-size="13" lengthAdjust="spacing" textLength="7" x="315.5342" y="639.8027">1</text></g><!--reverse link GestionFichier to Resources--><!--reverse link Donnees to GestionFichier--><!--link TypeMouvement to Monde--><!--link Sprite to ElementMonde--><g id="link_Sprite_ElementMonde"><path codeLine="138" d="M1541.2,444.02 C1526.55,472.52 1500.72,522.49 1478,565 C1467.65,584.37 1456.39,605.11 1445.68,624.7 " fill="none" id="Sprite-ElementMonde" style="stroke:#181818;stroke-width:1.0;"/><text fill="#000000" font-family="sans-serif" font-size="13" lengthAdjust="spacing" textLength="5" x="1532.7144" y="466.0105">*</text></g><!--SRC=[jLRBRk8m5DtxAwpEOc1Aa3hh4H8gj211gPXKBAggCiajM0rnP3kegDCFwdVqnyQEdOT3A6ZKsIJOFhxttDS92GcUoGhmK0GaWLU4C4xirfJ58U1NjOCnMGh9II1n414Xy3223SIoYi3u6twA697ufRRU5MiQIxmcgOIKEtiHuQjohzkzPB5obmOQsEtQxND3gDL6sSPR4oyVE2SqBYWTD6M1BSkuarFjL3bsgkJQXSdfnxjSin14nTwIiGX8Z458dvCjS46MKOLhzZ8Sfoa_pa-1_ZytIwqfaRSAnU9Ojq6zl5igGGWu5a5feQMPlXZ2EuTtGqJM-kSHRHaDSVZndaGa0DxoTmbCMRhDUXBBwghTb8MxU0ISYJ83-WLnki6EfJnmZEVZwv5Vh2R3gtBXpswBtuFPucQ_tfclunKtbBuyLSV2hjLzcf634nhK0F-Ti9EZ1OcUuOInCBWlSbfNBusEbnEwYg6sTycYKxNfb5e4B8gee2nkEJeA5nrNME5dssqFl09PhM4v2v2DWhvgpayQYVfLMzCzwoGChLugmrPXvJwcCl4L-KXgm3G9YOG1aQJk9bZh8l9BmYMqVajEunKEzA9T27vMF_i9oZvOjdmgtugKJVKvVXMII1gy6RiRBVJ6tlq3LZv46rNSAYoNwboJ5VhPpXtb7y9PAccKZx3nFb3H0PHZxNYrtA_xq-6ZF_OdmoQGxgp5-4PfnkDWUDM_c_YFew6ZCv-35-E1Fpg8dSqdWsFsCanfnfcDQwKNga6lQB2cbS4yE03Qkdkdg6xpDEWBkk2g8X7bO2-PsWkJlvXjx7R3yCv1i9G7JWcyCi0fINwPCdJmUAEAsCFg5aXnb5HXucu-qVEMTs92vBhTXClCQsHVEzY7lzNRQPLIfvT-9rnfL8PIEBFNJvA81aJd4o7JwbtRyPw7poxERFztCwKmJrIPEY-29-dzwJc2Weo8U6cYJqeqobL__yGAipsmE8Ho5V0uNQtt_UY_EFQAHTPZC8TEb6W_eYpM7sTLGeT1kQU3XbJIt1P5w3j-Ogg9rETZnrA9ogRoxjSq325-K4HxzMkruN2nLXcGgy05nYIirrG-v8Y_Jf4EotR7Nm00]--></g></svg>