<?xml version="1.0" encoding="us-ascii" standalone="no"?><svg xmlns="http://www.w3.org/2000/svg" xmlns:xlink="http://www.w3.org/1999/xlink" contentStyleType="text/css" height="823.2px" preserveAspectRatio="none" style="width:1525px;height:823px;background:#FFFFFF;" version="1.1" viewBox="0 0 1525 823" width="1525.8px" zoomAndPan="magnify"><defs/><g><!--cluster Escape--><g id="cluster_Escape"><path d="M5.1,40.2 L36.3,40.2 A2.25,2.25 0 0 1 37.8,41.7 L42,54.9727 L1465.5,54.9727 A1.5,1.5 0 0 1 1467,56.4727 L1467,817.5 A1.5,1.5 0 0 1 1465.5,819 L5.1,819 A1.5,1.5 0 0 1 3.6,817.5 L3.6,41.7 A1.5,1.5 0 0 1 5.1,40.2 " fill="none" style="stroke:#000000;stroke-width:0.8999999999999999;"/><line style="stroke:#000000;stroke-width:0.8999999999999999;" x1="3.6" x2="42" y1="54.9727" y2="54.9727"/><text fill="#000000" font-family="sans-serif" font-size="8.4" font-weight="bold" lengthAdjust="spacing" textLength="30.6" x="6" y="50.4645">Escape</text></g><!--cluster Monde--><g id="cluster_Monde"><path d="M519.9,202.8 L549.9,202.8 A2.25,2.25 0 0 1 551.4,204.3 L555.6,217.5727 L1344.9,217.5727 A1.5,1.5 0 0 1 1346.4,219.0727 L1346.4,803.1 A1.5,1.5 0 0 1 1344.9,804.6 L519.9,804.6 A1.5,1.5 0 0 1 518.4,803.1 L518.4,204.3 A1.5,1.5 0 0 1 519.9,202.8 " fill="none" style="stroke:#000000;stroke-width:0.8999999999999999;"/><line style="stroke:#000000;stroke-width:0.8999999999999999;" x1="518.4" x2="555.6" y1="217.5727" y2="217.5727"/><text fill="#000000" font-family="sans-serif" font-size="8.4" font-weight="bold" lengthAdjust="spacing" textLength="29.4" x="520.8" y="213.0645">Monde</text></g><!--cluster Outils--><g id="cluster_Outils"><path d="M317.1,247.5 L342.3,247.5 A2.25,2.25 0 0 1 343.8,249 L348,262.2727 L502.5,262.2727 A1.5,1.5 0 0 1 504,263.7727 L504,718.5 A1.5,1.5 0 0 1 502.5,720 L317.1,720 A1.5,1.5 0 0 1 315.6,718.5 L315.6,249 A1.5,1.5 0 0 1 317.1,247.5 " fill="none" style="stroke:#000000;stroke-width:0.8999999999999999;"/><line style="stroke:#000000;stroke-width:0.8999999999999999;" x1="315.6" x2="348" y1="262.2727" y2="262.2727"/><text fill="#000000" font-family="sans-serif" font-size="8.4" font-weight="bold" lengthAdjust="spacing" textLength="24.6" x="318" y="257.7645">Outils</text></g><!--cluster gui--><g id="cluster_gui"><path d="M1367.1,480.6 L1380.9,480.6 A2.25,2.25 0 0 1 1382.4,482.1 L1386.6,495.3727 L1446.3,495.3727 A1.5,1.5 0 0 1 1447.8,496.8727 L1447.8,549.3 A1.5,1.5 0 0 1 1446.3,550.8 L1367.1,550.8 A1.5,1.5 0 0 1 1365.6,549.3 L1365.6,482.1 A1.5,1.5 0 0 1 1367.1,480.6 " fill="none" style="stroke:#000000;stroke-width:0.8999999999999999;"/><line style="stroke:#000000;stroke-width:0.8999999999999999;" x1="1365.6" x2="1386.6" y1="495.3727" y2="495.3727"/><text fill="#000000" font-family="sans-serif" font-size="8.4" font-weight="bold" lengthAdjust="spacing" textLength="13.2" x="1368" y="490.8645">gui</text></g><!--cluster engine--><g id="cluster_engine"><path d="M1297.5,72 L1327.5,72 A2.25,2.25 0 0 1 1329,73.5 L1333.2,86.7727 L1413.9,86.7727 A1.5,1.5 0 0 1 1415.4,88.2727 L1415.4,140.7 A1.5,1.5 0 0 1 1413.9,142.2 L1297.5,142.2 A1.5,1.5 0 0 1 1296,140.7 L1296,73.5 A1.5,1.5 0 0 1 1297.5,72 " fill="none" style="stroke:#000000;stroke-width:0.8999999999999999;"/><line style="stroke:#000000;stroke-width:0.8999999999999999;" x1="1296" x2="1333.2" y1="86.7727" y2="86.7727"/><text fill="#000000" font-family="sans-serif" font-size="8.4" font-weight="bold" lengthAdjust="spacing" textLength="29.4" x="1298.4" y="82.2645">engine</text></g><!--class Settings--><g id="elem_Settings"><rect codeLine="115" fill="#F1F1F1" height="73.4906" id="Settings" rx="1.5" ry="1.5" style="stroke:#181818;stroke-width:0.3;" width="150" x="84.6" y="76.8"/><ellipse cx="141.75" cy="86.4" fill="#ADD1B2" rx="6.6" ry="6.6" style="stroke:#181818;stroke-width:0.6;"/><path d="M143.4094,83.925 Q143.5031,83.7938 143.6156,83.7281 Q143.7281,83.6625 143.8594,83.6625 Q144.0844,83.6625 144.225,83.8219 Q144.3656,83.9719 144.3656,84.3375 L144.3656,85.2094 Q144.3656,85.575 144.225,85.7344 Q144.0844,85.8938 143.8594,85.8938 Q143.6531,85.8938 143.5313,85.7719 Q143.4094,85.6594 143.3438,85.35 Q143.3156,85.1344 143.2031,85.0219 Q143.0063,84.7969 142.6406,84.6656 Q142.275,84.5344 141.9,84.5344 Q141.4406,84.5344 141.0563,84.7313 Q140.6813,84.9281 140.3813,85.3781 Q140.0906,85.8281 140.0906,86.4469 L140.0906,87.1031 Q140.0906,87.8438 140.625,88.3406 Q141.1594,88.8281 142.1156,88.8281 Q142.6781,88.8281 143.0719,88.6781 Q143.3063,88.5844 143.5594,88.3219 Q143.7188,88.1625 143.8031,88.1156 Q143.8969,88.0688 144.0187,88.0688 Q144.2156,88.0688 144.3656,88.2281 Q144.525,88.3781 144.525,88.5844 Q144.525,88.7906 144.3188,89.0344 Q144.0187,89.3813 143.5406,89.5781 Q142.8937,89.85 142.1156,89.85 Q141.2062,89.85 140.4844,89.475 Q139.8937,89.175 139.4813,88.5375 Q139.0688,87.8906 139.0688,87.1219 L139.0688,86.4281 Q139.0688,85.6313 139.4344,84.9469 Q139.8094,84.2531 140.4656,83.8875 Q141.1219,83.5125 141.8625,83.5125 Q142.3031,83.5125 142.6875,83.6156 Q143.0812,83.7094 143.4094,83.925 Z " fill="#000000"/><text fill="#000000" font-family="sans-serif" font-size="8.4" lengthAdjust="spacing" textLength="30.6" x="154.05" y="89.8781">Settings</text><line style="stroke:#181818;stroke-width:0.3;" x1="85.2" x2="234" y1="96" y2="96"/><rect fill="none" height="3.6" style="stroke:#C82930;stroke-width:0.6;" width="3.6" x="89.4" y="103.0863"/><text fill="#000000" font-family="sans-serif" font-size="8.4" lengthAdjust="spacing" text-decoration="underline" textLength="108" x="96.6" y="107.4645">PropertyChangeSupport pcs</text><ellipse cx="91.2" cy="116.059" fill="none" rx="1.8" ry="1.8" style="stroke:#038048;stroke-width:0.6;"/><text fill="#000000" font-family="sans-serif" font-size="8.4" lengthAdjust="spacing" text-decoration="underline" textLength="134.4" x="96.6" y="118.6371">Property&lt;Boolean&gt; FULL_SCREEN</text><ellipse cx="91.2" cy="127.2316" fill="none" rx="1.8" ry="1.8" style="stroke:#038048;stroke-width:0.6;"/><text fill="#000000" font-family="sans-serif" font-size="8.4" lengthAdjust="spacing" text-decoration="underline" textLength="121.8" x="96.6" y="129.8098">Property&lt;Boolean&gt; SHOW_FPS</text><ellipse cx="91.2" cy="138.4043" fill="none" rx="1.8" ry="1.8" style="stroke:#038048;stroke-width:0.6;"/><text fill="#000000" font-family="sans-serif" font-size="8.4" lengthAdjust="spacing" text-decoration="underline" textLength="102.6" x="96.6" y="140.9824">Property&lt;Locale&gt; LOCALE</text><line style="stroke:#181818;stroke-width:0.3;" x1="85.2" x2="234" y1="145.4906" y2="145.4906"/></g><!--class Property--><g id="elem_Property"><rect codeLine="122" fill="#F1F1F1" height="252.2531" id="Property" rx="1.5" ry="1.5" style="stroke:#181818;stroke-width:0.3;" width="292.2" x="13.5" y="186"/><ellipse cx="130.95" cy="195.6" fill="#ADD1B2" rx="6.6" ry="6.6" style="stroke:#181818;stroke-width:0.6;"/><path d="M132.6094,193.125 Q132.7031,192.9938 132.8156,192.9281 Q132.9281,192.8625 133.0594,192.8625 Q133.2844,192.8625 133.425,193.0219 Q133.5656,193.1719 133.5656,193.5375 L133.5656,194.4094 Q133.5656,194.775 133.425,194.9344 Q133.2844,195.0938 133.0594,195.0938 Q132.8531,195.0938 132.7313,194.9719 Q132.6094,194.8594 132.5438,194.55 Q132.5156,194.3344 132.4031,194.2219 Q132.2062,193.9969 131.8406,193.8656 Q131.475,193.7344 131.1,193.7344 Q130.6406,193.7344 130.2563,193.9313 Q129.8813,194.1281 129.5812,194.5781 Q129.2906,195.0281 129.2906,195.6469 L129.2906,196.3031 Q129.2906,197.0438 129.825,197.5406 Q130.3594,198.0281 131.3156,198.0281 Q131.8781,198.0281 132.2719,197.8781 Q132.5063,197.7844 132.7594,197.5219 Q132.9188,197.3625 133.0031,197.3156 Q133.0969,197.2687 133.2188,197.2687 Q133.4156,197.2687 133.5656,197.4281 Q133.725,197.5781 133.725,197.7844 Q133.725,197.9906 133.5187,198.2344 Q133.2188,198.5812 132.7406,198.7781 Q132.0938,199.05 131.3156,199.05 Q130.4063,199.05 129.6844,198.675 Q129.0938,198.375 128.6813,197.7375 Q128.2687,197.0906 128.2687,196.3219 L128.2687,195.6281 Q128.2687,194.8312 128.6344,194.1469 Q129.0094,193.4531 129.6656,193.0875 Q130.3219,192.7125 131.0625,192.7125 Q131.5031,192.7125 131.8875,192.8156 Q132.2813,192.9094 132.6094,193.125 Z " fill="#000000"/><text fill="#000000" font-family="sans-serif" font-size="8.4" lengthAdjust="spacing" textLength="49.8" x="143.25" y="199.0781">Property &lt;T&gt;</text><line style="stroke:#181818;stroke-width:0.3;" x1="14.1" x2="305.1" y1="205.2" y2="205.2"/><rect fill="none" height="3.6" style="stroke:#C82930;stroke-width:0.6;" width="3.6" x="18.3" y="212.2863"/><text fill="#000000" font-family="sans-serif" font-size="8.4" lengthAdjust="spacing" textLength="28.2" x="25.5" y="216.6645">T value</text><rect fill="none" height="3.6" style="stroke:#C82930;stroke-width:0.6;" width="3.6" x="18.3" y="223.459"/><text fill="#000000" font-family="sans-serif" font-size="8.4" lengthAdjust="spacing" textLength="45.6" x="25.5" y="227.8371">String name</text><rect fill="none" height="3.6" style="stroke:#C82930;stroke-width:0.6;" width="3.6" x="18.3" y="234.6316"/><text fill="#000000" font-family="sans-serif" font-size="8.4" lengthAdjust="spacing" textLength="276.6" x="25.5" y="239.0098">Map&lt;MyPropertyChangeListener&lt;T&gt;, PropertyChangeListener&gt; listeners</text><rect fill="none" height="3.6" style="stroke:#C82930;stroke-width:0.6;" width="3.6" x="18.3" y="245.8043"/><text fill="#000000" font-family="sans-serif" font-size="8.4" lengthAdjust="spacing" textLength="108" x="25.5" y="250.1824">PropertyChangeSupport pcs</text><rect fill="none" height="3.6" style="stroke:#C82930;stroke-width:0.6;" width="3.6" x="18.3" y="256.977"/><text fill="#000000" font-family="sans-serif" font-size="8.4" lengthAdjust="spacing" textLength="44.4" x="25.5" y="261.3551">boolean log</text><ellipse cx="20.1" cy="283.5223" fill="#84BE84" rx="1.8" ry="1.8" style="stroke:#038048;stroke-width:0.6;"/><text fill="#000000" font-family="sans-serif" font-size="8.4" lengthAdjust="spacing" textLength="254.4" x="25.5" y="286.1004">Property(PropertyChangeSupport, String, T, Getter&lt;T&gt;, Setter&lt;T&gt;)</text><ellipse cx="20.1" cy="294.6949" fill="#84BE84" rx="1.8" ry="1.8" style="stroke:#038048;stroke-width:0.6;"/><text fill="#000000" font-family="sans-serif" font-size="8.4" lengthAdjust="spacing" textLength="130.2" x="25.5" y="297.273">Property(T, Getter&lt;T&gt;, Setter&lt;T&gt;)</text><ellipse cx="20.1" cy="305.8676" fill="#84BE84" rx="1.8" ry="1.8" style="stroke:#038048;stroke-width:0.6;"/><text fill="#000000" font-family="sans-serif" font-size="8.4" lengthAdjust="spacing" textLength="168" x="25.5" y="308.4457">Property(PropertyChangeSupport, String, T)</text><ellipse cx="20.1" cy="317.0402" fill="#84BE84" rx="1.8" ry="1.8" style="stroke:#038048;stroke-width:0.6;"/><text fill="#000000" font-family="sans-serif" font-size="8.4" lengthAdjust="spacing" textLength="43.8" x="25.5" y="319.6184">Property(T)</text><line style="stroke:#181818;stroke-width:0.6;stroke-dasharray:1.0,2.0;" x1="14.1" x2="135" y1="271.4496" y2="271.4496"/><text fill="#000000" font-family="sans-serif" font-size="8.4" lengthAdjust="spacing" textLength="49.2" x="135" y="274.6277">Constructeur</text><line style="stroke:#181818;stroke-width:0.6;stroke-dasharray:1.0,2.0;" x1="184.2" x2="305.1" y1="271.4496" y2="271.4496"/><ellipse cx="20.1" cy="341.7855" fill="#84BE84" rx="1.8" ry="1.8" style="stroke:#038048;stroke-width:0.6;"/><text fill="#000000" font-family="sans-serif" font-size="8.4" lengthAdjust="spacing" textLength="25.8" x="25.5" y="344.3637">T get()</text><ellipse cx="20.1" cy="352.9582" fill="#84BE84" rx="1.8" ry="1.8" style="stroke:#038048;stroke-width:0.6;"/><text fill="#000000" font-family="sans-serif" font-size="8.4" lengthAdjust="spacing" textLength="40.8" x="25.5" y="355.5363">void set(T)</text><ellipse cx="20.1" cy="364.1309" fill="#84BE84" rx="1.8" ry="1.8" style="stroke:#038048;stroke-width:0.6;"/><text fill="#000000" font-family="sans-serif" font-size="8.4" lengthAdjust="spacing" textLength="179.4" x="25.5" y="366.709">void subscribe(MyPropertyChangeListener&lt;T&gt;)</text><ellipse cx="20.1" cy="375.3035" fill="#84BE84" rx="1.8" ry="1.8" style="stroke:#038048;stroke-width:0.6;"/><text fill="#000000" font-family="sans-serif" font-size="8.4" lengthAdjust="spacing" textLength="189" x="25.5" y="377.8816">void unsubscribe(MyPropertyChangeListener&lt;T&gt;)</text><ellipse cx="20.1" cy="386.4762" fill="#84BE84" rx="1.8" ry="1.8" style="stroke:#038048;stroke-width:0.6;"/><text fill="#000000" font-family="sans-serif" font-size="8.4" lengthAdjust="spacing" textLength="79.2" x="25.5" y="389.0543">void unsubscribeAll()</text><ellipse cx="20.1" cy="397.6488" fill="#84BE84" rx="1.8" ry="1.8" style="stroke:#038048;stroke-width:0.6;"/><text fill="#000000" font-family="sans-serif" font-size="8.4" lengthAdjust="spacing" textLength="58.2" x="25.5" y="400.227">void forceFire()</text><ellipse cx="20.1" cy="408.8215" fill="#84BE84" rx="1.8" ry="1.8" style="stroke:#038048;stroke-width:0.6;"/><text fill="#000000" font-family="sans-serif" font-size="8.4" lengthAdjust="spacing" textLength="112.2" x="25.5" y="411.3996">Property&lt;T&gt; setLog(boolean)</text><rect fill="#F24D5C" height="3.6" style="stroke:#C82930;stroke-width:0.6;" width="3.6" x="18.3" y="418.1941"/><text fill="#000000" font-family="sans-serif" font-size="8.4" lengthAdjust="spacing" textLength="41.4" x="25.5" y="422.5723">void fire(T)</text><rect fill="#F24D5C" height="3.6" style="stroke:#C82930;stroke-width:0.6;" width="3.6" x="18.3" y="429.3668"/><text fill="#000000" font-family="sans-serif" font-size="8.4" lengthAdjust="spacing" textLength="57.6" x="25.5" y="433.7449">void log(String)</text><line style="stroke:#181818;stroke-width:0.6;stroke-dasharray:1.0,2.0;" x1="14.1" x2="141" y1="329.7129" y2="329.7129"/><text fill="#000000" font-family="sans-serif" font-size="8.4" lengthAdjust="spacing" textLength="37.2" x="141" y="332.891">M&#233;thodes</text><line style="stroke:#181818;stroke-width:0.6;stroke-dasharray:1.0,2.0;" x1="178.2" x2="305.1" y1="329.7129" y2="329.7129"/></g><!--class Getter--><g id="elem_Getter"><rect codeLine="145" fill="#F1F1F1" height="39.9727" id="Getter" rx="1.5" ry="1.5" style="stroke:#181818;stroke-width:0.3;" width="63" x="169.5" y="501.9"/><ellipse cx="178.5" cy="511.5" fill="#B4A7E5" rx="6.6" ry="6.6" style="stroke:#181818;stroke-width:0.6;"/><path d="M179.0719,509.4844 L179.0719,513.4781 L180.1031,513.4781 Q180.4688,513.4781 180.6281,513.6188 Q180.7875,513.7594 180.7875,513.9938 Q180.7875,514.2188 180.6281,514.3594 Q180.4688,514.5 180.1031,514.5 L177.0187,514.5 Q176.6531,514.5 176.4938,514.3594 Q176.3344,514.2188 176.3344,513.9844 Q176.3344,513.7594 176.4938,513.6188 Q176.6531,513.4781 177.0187,513.4781 L178.05,513.4781 L178.05,509.4844 L177.0187,509.4844 Q176.6531,509.4844 176.4938,509.3438 Q176.3344,509.2031 176.3344,508.9688 Q176.3344,508.7438 176.4938,508.6031 Q176.6531,508.4625 177.0187,508.4625 L180.1031,508.4625 Q180.4688,508.4625 180.6281,508.6031 Q180.7875,508.7438 180.7875,508.9688 Q180.7875,509.2031 180.6281,509.3438 Q180.4688,509.4844 180.1031,509.4844 L179.0719,509.4844 Z " fill="#000000"/><text fill="#000000" font-family="sans-serif" font-size="8.4" font-style="italic" lengthAdjust="spacing" textLength="41.4" x="186.9" y="514.9781">Getter &lt;T&gt;</text><line style="stroke:#181818;stroke-width:0.3;" x1="170.1" x2="231.9" y1="521.1" y2="521.1"/><line style="stroke:#181818;stroke-width:0.3;" x1="170.1" x2="231.9" y1="525.9" y2="525.9"/><text fill="#000000" font-family="sans-serif" font-size="8.4" lengthAdjust="spacing" textLength="31.2" x="173.1" y="537.3645">T get(T)</text></g><!--class Setter--><g id="elem_Setter"><rect codeLine="149" fill="#F1F1F1" height="39.9727" id="Setter" rx="1.5" ry="1.5" style="stroke:#181818;stroke-width:0.3;" width="61.8" x="86.7" y="501.9"/><ellipse cx="95.7" cy="511.5" fill="#B4A7E5" rx="6.6" ry="6.6" style="stroke:#181818;stroke-width:0.6;"/><path d="M96.2719,509.4844 L96.2719,513.4781 L97.3031,513.4781 Q97.6688,513.4781 97.8281,513.6188 Q97.9875,513.7594 97.9875,513.9938 Q97.9875,514.2188 97.8281,514.3594 Q97.6688,514.5 97.3031,514.5 L94.2188,514.5 Q93.8531,514.5 93.6938,514.3594 Q93.5344,514.2188 93.5344,513.9844 Q93.5344,513.7594 93.6938,513.6188 Q93.8531,513.4781 94.2188,513.4781 L95.25,513.4781 L95.25,509.4844 L94.2188,509.4844 Q93.8531,509.4844 93.6938,509.3438 Q93.5344,509.2031 93.5344,508.9688 Q93.5344,508.7438 93.6938,508.6031 Q93.8531,508.4625 94.2188,508.4625 L97.3031,508.4625 Q97.6688,508.4625 97.8281,508.6031 Q97.9875,508.7438 97.9875,508.9688 Q97.9875,509.2031 97.8281,509.3438 Q97.6688,509.4844 97.3031,509.4844 L96.2719,509.4844 Z " fill="#000000"/><text fill="#000000" font-family="sans-serif" font-size="8.4" font-style="italic" lengthAdjust="spacing" textLength="40.2" x="104.1" y="514.9781">Setter &lt;T&gt;</text><line style="stroke:#181818;stroke-width:0.3;" x1="87.3" x2="147.9" y1="521.1" y2="521.1"/><line style="stroke:#181818;stroke-width:0.3;" x1="87.3" x2="147.9" y1="525.9" y2="525.9"/><text fill="#000000" font-family="sans-serif" font-size="8.4" lengthAdjust="spacing" textLength="30.6" x="90.3" y="537.3645">T set(T)</text></g><!--class ElementMonde--><g id="elem_ElementMonde"><rect codeLine="4" fill="#F1F1F1" height="104.6086" id="ElementMonde" rx="1.5" ry="1.5" style="stroke:#181818;stroke-width:0.3;" width="76.2" x="1056.3" y="259.8"/><ellipse cx="1065.3" cy="269.4" fill="#A9DCDF" rx="6.6" ry="6.6" style="stroke:#181818;stroke-width:0.6;"/><path d="M1066.6125,270.4594 L1064.1281,270.4594 L1063.875,271.0781 L1064.1281,271.0781 Q1064.4937,271.0781 1064.6531,271.2188 Q1064.8125,271.3594 1064.8125,271.5938 Q1064.8125,271.8187 1064.6531,271.9594 Q1064.4937,272.1 1064.1281,272.1 L1062.75,272.1 Q1062.3844,272.1 1062.2344,271.9594 Q1062.075,271.8187 1062.075,271.5844 Q1062.075,271.3594 1062.2437,271.2188 Q1062.4031,271.0687 1062.7781,271.0781 L1064.3813,267.0844 L1063.7156,267.0844 Q1063.35,267.0844 1063.1906,266.9437 Q1063.0313,266.8031 1063.0313,266.5687 Q1063.0313,266.3438 1063.1906,266.2031 Q1063.35,266.0625 1063.7156,266.0625 L1065.9188,266.0625 L1067.9531,271.0781 Q1068.3094,271.0781 1068.4219,271.1625 Q1068.6563,271.3219 1068.6563,271.5938 Q1068.6563,271.8187 1068.4969,271.9594 Q1068.3469,272.1 1067.9813,272.1 L1066.6031,272.1 Q1066.2375,272.1 1066.0781,271.9594 Q1065.9188,271.8187 1065.9188,271.5844 Q1065.9188,271.3594 1066.0781,271.2188 Q1066.2375,271.0781 1066.6031,271.0781 L1066.8563,271.0781 L1066.6125,270.4594 Z M1066.1812,269.4375 L1065.3656,267.4125 L1064.5406,269.4375 L1066.1812,269.4375 Z " fill="#000000"/><text fill="#000000" font-family="sans-serif" font-size="8.4" font-style="italic" lengthAdjust="spacing" textLength="57" x="1073.7" y="272.8781">ElementMonde</text><line style="stroke:#181818;stroke-width:0.3;" x1="1056.9" x2="1131.9" y1="279" y2="279"/><polygon fill="none" points="1062.9,284.8863,1065.3,287.2863,1062.9,289.6863,1060.5,287.2863" style="stroke:#B38D22;stroke-width:0.6;"/><text fill="#000000" font-family="sans-serif" font-size="8.4" lengthAdjust="spacing" textLength="31.8" x="1068.3" y="290.4645">double x</text><polygon fill="none" points="1062.9,296.059,1065.3,298.459,1062.9,300.859,1060.5,298.459" style="stroke:#B38D22;stroke-width:0.6;"/><text fill="#000000" font-family="sans-serif" font-size="8.4" lengthAdjust="spacing" textLength="32.4" x="1068.3" y="301.6371">double y</text><polygon fill="none" points="1062.9,307.2316,1065.3,309.6316,1062.9,312.0316,1060.5,309.6316" style="stroke:#B38D22;stroke-width:0.6;"/><text fill="#000000" font-family="sans-serif" font-size="8.4" lengthAdjust="spacing" textLength="57.6" x="1068.3" y="312.8098">double hauteur</text><polygon fill="none" points="1062.9,318.4043,1065.3,320.8043,1062.9,323.2043,1060.5,320.8043" style="stroke:#B38D22;stroke-width:0.6;"/><text fill="#000000" font-family="sans-serif" font-size="8.4" lengthAdjust="spacing" textLength="55.2" x="1068.3" y="323.9824">double largeur</text><ellipse cx="1062.9" cy="346.1496" fill="#84BE84" rx="1.8" ry="1.8" style="stroke:#038048;stroke-width:0.6;"/><text fill="#000000" font-family="sans-serif" font-size="8.4" lengthAdjust="spacing" textLength="31.8" x="1068.3" y="348.7277">Monde()</text><text fill="#000000" font-family="sans-serif" font-size="8.4" lengthAdjust="spacing" textLength="2.4" x="1068.3" y="359.9004">&#160;</text><line style="stroke:#181818;stroke-width:0.6;stroke-dasharray:1.0,2.0;" x1="1056.9" x2="1069.8" y1="334.077" y2="334.077"/><text fill="#000000" font-family="sans-serif" font-size="8.4" lengthAdjust="spacing" textLength="49.2" x="1069.8" y="337.2551">Constructeur</text><line style="stroke:#181818;stroke-width:0.6;stroke-dasharray:1.0,2.0;" x1="1119" x2="1131.9" y1="334.077" y2="334.077"/></g><!--class Terrain--><g id="elem_Terrain"><rect codeLine="13" fill="#F1F1F1" height="84.6633" id="Terrain" rx="1.5" ry="1.5" style="stroke:#181818;stroke-width:0.3;" width="240.6" x="658.5" y="479.7"/><ellipse cx="762.45" cy="489.3" fill="#A9DCDF" rx="6.6" ry="6.6" style="stroke:#181818;stroke-width:0.6;"/><path d="M763.7625,490.3594 L761.2781,490.3594 L761.025,490.9781 L761.2781,490.9781 Q761.6438,490.9781 761.8031,491.1188 Q761.9625,491.2594 761.9625,491.4938 Q761.9625,491.7188 761.8031,491.8594 Q761.6438,492 761.2781,492 L759.9,492 Q759.5344,492 759.3844,491.8594 Q759.225,491.7188 759.225,491.4844 Q759.225,491.2594 759.3938,491.1188 Q759.5531,490.9688 759.9281,490.9781 L761.5313,486.9844 L760.8656,486.9844 Q760.5,486.9844 760.3406,486.8438 Q760.1813,486.7031 760.1813,486.4688 Q760.1813,486.2438 760.3406,486.1031 Q760.5,485.9625 760.8656,485.9625 L763.0688,485.9625 L765.1031,490.9781 Q765.4594,490.9781 765.5719,491.0625 Q765.8063,491.2219 765.8063,491.4938 Q765.8063,491.7188 765.6469,491.8594 Q765.4969,492 765.1313,492 L763.7531,492 Q763.3875,492 763.2281,491.8594 Q763.0688,491.7188 763.0688,491.4844 Q763.0688,491.2594 763.2281,491.1188 Q763.3875,490.9781 763.7531,490.9781 L764.0063,490.9781 L763.7625,490.3594 Z M763.3313,489.3375 L762.5156,487.3125 L761.6906,489.3375 L763.3313,489.3375 Z " fill="#000000"/><text fill="#000000" font-family="sans-serif" font-size="8.4" font-style="italic" lengthAdjust="spacing" textLength="27.6" x="774.75" y="492.7781">Terrain</text><line style="stroke:#181818;stroke-width:0.3;" x1="659.1" x2="898.5" y1="498.9" y2="498.9"/><ellipse cx="665.1" cy="521.359" fill="#84BE84" rx="1.8" ry="1.8" style="stroke:#038048;stroke-width:0.6;"/><text fill="#000000" font-family="sans-serif" font-size="8.4" lengthAdjust="spacing" textLength="225" x="670.5" y="523.9371">Terrain(double x, double y, double hauteur, double largeur)</text><line style="stroke:#181818;stroke-width:0.6;stroke-dasharray:1.0,2.0;" x1="659.1" x2="754.2" y1="509.2863" y2="509.2863"/><text fill="#000000" font-family="sans-serif" font-size="8.4" lengthAdjust="spacing" textLength="49.2" x="754.2" y="512.4645">Constructeur</text><line style="stroke:#181818;stroke-width:0.6;stroke-dasharray:1.0,2.0;" x1="803.4" x2="898.5" y1="509.2863" y2="509.2863"/><ellipse cx="665.1" cy="546.1043" fill="#84BE84" rx="1.8" ry="1.8" style="stroke:#038048;stroke-width:0.6;"/><text fill="#000000" font-family="sans-serif" font-size="8.4" lengthAdjust="spacing" textLength="96" x="670.5" y="548.6824">boolean estTraversable()</text><text fill="#000000" font-family="sans-serif" font-size="8.4" lengthAdjust="spacing" textLength="2.4" x="670.5" y="559.8551">&#160;</text><line style="stroke:#181818;stroke-width:0.6;stroke-dasharray:1.0,2.0;" x1="659.1" x2="760.2" y1="534.0316" y2="534.0316"/><text fill="#000000" font-family="sans-serif" font-size="8.4" lengthAdjust="spacing" textLength="37.2" x="760.2" y="537.2098">M&#233;thodes</text><line style="stroke:#181818;stroke-width:0.6;stroke-dasharray:1.0,2.0;" x1="797.4" x2="898.5" y1="534.0316" y2="534.0316"/></g><!--class Mur--><g id="elem_Mur"><rect codeLine="21" fill="#F1F1F1" height="73.4906" id="Mur" rx="1.5" ry="1.5" style="stroke:#181818;stroke-width:0.3;" width="227.4" x="528.3" y="621.6"/><ellipse cx="632.25" cy="631.2" fill="#ADD1B2" rx="6.6" ry="6.6" style="stroke:#181818;stroke-width:0.6;"/><path d="M633.9094,628.725 Q634.0031,628.5938 634.1156,628.5281 Q634.2281,628.4625 634.3594,628.4625 Q634.5844,628.4625 634.725,628.6219 Q634.8656,628.7719 634.8656,629.1375 L634.8656,630.0094 Q634.8656,630.375 634.725,630.5344 Q634.5844,630.6938 634.3594,630.6938 Q634.1531,630.6938 634.0313,630.5719 Q633.9094,630.4594 633.8438,630.15 Q633.8156,629.9344 633.7031,629.8219 Q633.5063,629.5969 633.1406,629.4656 Q632.775,629.3344 632.4,629.3344 Q631.9406,629.3344 631.5563,629.5313 Q631.1813,629.7281 630.8813,630.1781 Q630.5906,630.6281 630.5906,631.2469 L630.5906,631.9031 Q630.5906,632.6438 631.125,633.1406 Q631.6594,633.6281 632.6156,633.6281 Q633.1781,633.6281 633.5719,633.4781 Q633.8063,633.3844 634.0594,633.1219 Q634.2188,632.9625 634.3031,632.9156 Q634.3969,632.8688 634.5188,632.8688 Q634.7156,632.8688 634.8656,633.0281 Q635.025,633.1781 635.025,633.3844 Q635.025,633.5906 634.8188,633.8344 Q634.5188,634.1813 634.0406,634.3781 Q633.3938,634.65 632.6156,634.65 Q631.7063,634.65 630.9844,634.275 Q630.3938,633.975 629.9812,633.3375 Q629.5688,632.6906 629.5688,631.9219 L629.5688,631.2281 Q629.5688,630.4313 629.9344,629.7469 Q630.3094,629.0531 630.9656,628.6875 Q631.6219,628.3125 632.3625,628.3125 Q632.8031,628.3125 633.1875,628.4156 Q633.5813,628.5094 633.9094,628.725 Z " fill="#000000"/><text fill="#000000" font-family="sans-serif" font-size="8.4" lengthAdjust="spacing" textLength="14.4" x="644.55" y="634.6781">Mur</text><line style="stroke:#181818;stroke-width:0.3;" x1="528.9" x2="755.1" y1="640.8" y2="640.8"/><ellipse cx="534.9" cy="663.259" fill="#84BE84" rx="1.8" ry="1.8" style="stroke:#038048;stroke-width:0.6;"/><text fill="#000000" font-family="sans-serif" font-size="8.4" lengthAdjust="spacing" textLength="211.8" x="540.3" y="665.8371">Mur(double x, double y, double hauteur, double largeur)</text><line style="stroke:#181818;stroke-width:0.6;stroke-dasharray:1.0,2.0;" x1="528.9" x2="617.4" y1="651.1863" y2="651.1863"/><text fill="#000000" font-family="sans-serif" font-size="8.4" lengthAdjust="spacing" textLength="49.2" x="617.4" y="654.3645">Constructeur</text><line style="stroke:#181818;stroke-width:0.6;stroke-dasharray:1.0,2.0;" x1="666.6" x2="755.1" y1="651.1863" y2="651.1863"/><ellipse cx="534.9" cy="688.0043" fill="#84BE84" rx="1.8" ry="1.8" style="stroke:#038048;stroke-width:0.6;"/><text fill="#000000" font-family="sans-serif" font-size="8.4" lengthAdjust="spacing" textLength="96" x="540.3" y="690.5824">boolean estTraversable()</text><line style="stroke:#181818;stroke-width:0.6;stroke-dasharray:1.0,2.0;" x1="528.9" x2="623.4" y1="675.9316" y2="675.9316"/><text fill="#000000" font-family="sans-serif" font-size="8.4" lengthAdjust="spacing" textLength="37.2" x="623.4" y="679.1098">M&#233;thodes</text><line style="stroke:#181818;stroke-width:0.6;stroke-dasharray:1.0,2.0;" x1="660.6" x2="755.1" y1="675.9316" y2="675.9316"/></g><!--class Personnage--><g id="elem_Personnage"><rect codeLine="29" fill="#F1F1F1" height="95.8359" id="Personnage" rx="1.5" ry="1.5" style="stroke:#181818;stroke-width:0.3;" width="318.6" x="927.3" y="474"/><ellipse cx="1060.95" cy="483.6" fill="#A9DCDF" rx="6.6" ry="6.6" style="stroke:#181818;stroke-width:0.6;"/><path d="M1062.2625,484.6594 L1059.7781,484.6594 L1059.525,485.2781 L1059.7781,485.2781 Q1060.1438,485.2781 1060.3031,485.4188 Q1060.4625,485.5594 1060.4625,485.7938 Q1060.4625,486.0187 1060.3031,486.1594 Q1060.1438,486.3 1059.7781,486.3 L1058.4,486.3 Q1058.0344,486.3 1057.8844,486.1594 Q1057.725,486.0187 1057.725,485.7844 Q1057.725,485.5594 1057.8938,485.4188 Q1058.0531,485.2687 1058.4281,485.2781 L1060.0313,481.2844 L1059.3656,481.2844 Q1059,481.2844 1058.8406,481.1437 Q1058.6812,481.0031 1058.6812,480.7687 Q1058.6812,480.5438 1058.8406,480.4031 Q1059,480.2625 1059.3656,480.2625 L1061.5688,480.2625 L1063.6031,485.2781 Q1063.9594,485.2781 1064.0719,485.3625 Q1064.3062,485.5219 1064.3062,485.7938 Q1064.3062,486.0187 1064.1469,486.1594 Q1063.9969,486.3 1063.6313,486.3 L1062.2531,486.3 Q1061.8875,486.3 1061.7281,486.1594 Q1061.5688,486.0187 1061.5688,485.7844 Q1061.5688,485.5594 1061.7281,485.4188 Q1061.8875,485.2781 1062.2531,485.2781 L1062.5063,485.2781 L1062.2625,484.6594 Z M1061.8313,483.6375 L1061.0156,481.6125 L1060.1906,483.6375 L1061.8313,483.6375 Z " fill="#000000"/><text fill="#000000" font-family="sans-serif" font-size="8.4" font-style="italic" lengthAdjust="spacing" textLength="46.2" x="1073.25" y="487.0781">Personnage</text><line style="stroke:#181818;stroke-width:0.3;" x1="927.9" x2="1245.3" y1="493.2" y2="493.2"/><polygon fill="none" points="933.9,499.0863,936.3,501.4863,933.9,503.8863,931.5,501.4863" style="stroke:#B38D22;stroke-width:0.6;"/><text fill="#000000" font-family="sans-serif" font-size="8.4" lengthAdjust="spacing" textLength="54.6" x="939.3" y="504.6645">double vitesse</text><ellipse cx="933.9" cy="526.8316" fill="#84BE84" rx="1.8" ry="1.8" style="stroke:#038048;stroke-width:0.6;"/><text fill="#000000" font-family="sans-serif" font-size="8.4" lengthAdjust="spacing" textLength="303" x="939.3" y="529.4098">Personnage(double x, double y, double largeur, double hauteur, double vitesse)</text><line style="stroke:#181818;stroke-width:0.6;stroke-dasharray:1.0,2.0;" x1="927.9" x2="1062" y1="514.759" y2="514.759"/><text fill="#000000" font-family="sans-serif" font-size="8.4" lengthAdjust="spacing" textLength="49.2" x="1062" y="517.9371">Constructeur</text><line style="stroke:#181818;stroke-width:0.6;stroke-dasharray:1.0,2.0;" x1="1111.2" x2="1245.3" y1="514.759" y2="514.759"/><ellipse cx="933.9" cy="551.577" fill="#84BE84" rx="1.8" ry="1.8" style="stroke:#038048;stroke-width:0.6;"/><text fill="#000000" font-family="sans-serif" font-size="8.4" lengthAdjust="spacing" textLength="252.6" x="939.3" y="554.1551">void d&#233;placer(TypeMouvement typeMouvement, double deltaTime)</text><ellipse cx="933.9" cy="562.7496" fill="#84BE84" rx="1.8" ry="1.8" style="stroke:#038048;stroke-width:0.6;"/><text fill="#000000" font-family="sans-serif" font-size="8.4" lengthAdjust="spacing" textLength="82.8" x="939.3" y="565.3277">boolean estUnHeros()</text><line style="stroke:#181818;stroke-width:0.6;stroke-dasharray:1.0,2.0;" x1="927.9" x2="1068" y1="539.5043" y2="539.5043"/><text fill="#000000" font-family="sans-serif" font-size="8.4" lengthAdjust="spacing" textLength="37.2" x="1068" y="542.6824">M&#233;thodes</text><line style="stroke:#181818;stroke-width:0.6;stroke-dasharray:1.0,2.0;" x1="1105.2" x2="1245.3" y1="539.5043" y2="539.5043"/></g><!--class TypeMouvement--><g id="elem_TypeMouvement"><rect codeLine="38" fill="#F1F1F1" height="73.4906" id="TypeMouvement" rx="1.5" ry="1.5" style="stroke:#181818;stroke-width:0.3;" width="82.2" x="953.1" y="275.4"/><ellipse cx="962.1" cy="285" fill="#EB937F" rx="6.6" ry="6.6" style="stroke:#181818;stroke-width:0.6;"/><path d="M961.4156,285.4781 L961.4156,286.9781 L964.0125,286.9781 L964.0125,286.425 Q964.0125,286.0594 964.1531,285.9 Q964.3031,285.7406 964.5281,285.7406 Q964.7531,285.7406 964.8938,285.9 Q965.0344,286.0594 965.0344,286.425 L965.0344,288 L960.2344,288 Q959.8594,288 959.7,287.8594 Q959.55,287.7188 959.55,287.4844 Q959.55,287.2594 959.7094,287.1188 Q959.8688,286.9781 960.2344,286.9781 L960.3938,286.9781 L960.3938,282.9844 L960.2344,282.9844 Q959.8594,282.9844 959.7,282.8438 Q959.55,282.7031 959.55,282.4688 Q959.55,282.2438 959.7,282.1031 Q959.8594,281.9625 960.2344,281.9625 L964.8094,281.9625 L964.8094,283.5188 Q964.8094,283.8844 964.6687,284.0438 Q964.5375,284.1937 964.3031,284.1937 Q964.0781,284.1937 963.9375,284.0438 Q963.7969,283.8844 963.7969,283.5188 L963.7969,282.9844 L961.4156,282.9844 L961.4156,284.4563 L962.3063,284.4563 Q962.3063,284.0625 962.3812,283.95 Q962.5406,283.7063 962.8219,283.7063 Q963.0469,283.7063 963.1875,283.8656 Q963.3281,284.0156 963.3281,284.3812 L963.3281,285.5625 Q963.3281,285.8906 963.2531,286.0031 Q963.0938,286.2375 962.8219,286.2375 Q962.5406,286.2375 962.3812,285.9938 Q962.3063,285.8812 962.3063,285.4781 L961.4156,285.4781 Z " fill="#000000"/><text fill="#000000" font-family="sans-serif" font-size="8.4" lengthAdjust="spacing" textLength="63" x="970.5" y="288.4781">TypeMouvement</text><line style="stroke:#181818;stroke-width:0.3;" x1="953.7" x2="1034.7" y1="294.6" y2="294.6"/><text fill="#000000" font-family="sans-serif" font-size="8.4" lengthAdjust="spacing" textLength="25.2" x="956.7" y="306.0645">RIGHT</text><text fill="#000000" font-family="sans-serif" font-size="8.4" lengthAdjust="spacing" textLength="21" x="956.7" y="317.2371">LEFT</text><text fill="#000000" font-family="sans-serif" font-size="8.4" lengthAdjust="spacing" textLength="17.4" x="956.7" y="328.4098">TOP</text><text fill="#000000" font-family="sans-serif" font-size="8.4" lengthAdjust="spacing" textLength="25.8" x="956.7" y="339.5824">DOWN</text><line style="stroke:#181818;stroke-width:0.3;" x1="953.7" x2="1034.7" y1="344.0906" y2="344.0906"/></g><!--class Heros--><g id="elem_Heros"><rect codeLine="45" fill="#F1F1F1" height="73.4906" id="Heros" rx="1.5" ry="1.5" style="stroke:#181818;stroke-width:0.3;" width="235.2" x="777" y="621.6"/><ellipse cx="880.95" cy="631.2" fill="#ADD1B2" rx="6.6" ry="6.6" style="stroke:#181818;stroke-width:0.6;"/><path d="M882.6094,628.725 Q882.7031,628.5938 882.8156,628.5281 Q882.9281,628.4625 883.0594,628.4625 Q883.2844,628.4625 883.425,628.6219 Q883.5656,628.7719 883.5656,629.1375 L883.5656,630.0094 Q883.5656,630.375 883.425,630.5344 Q883.2844,630.6938 883.0594,630.6938 Q882.8531,630.6938 882.7312,630.5719 Q882.6094,630.4594 882.5437,630.15 Q882.5156,629.9344 882.4031,629.8219 Q882.2063,629.5969 881.8406,629.4656 Q881.475,629.3344 881.1,629.3344 Q880.6406,629.3344 880.2563,629.5313 Q879.8813,629.7281 879.5813,630.1781 Q879.2906,630.6281 879.2906,631.2469 L879.2906,631.9031 Q879.2906,632.6438 879.825,633.1406 Q880.3594,633.6281 881.3156,633.6281 Q881.8781,633.6281 882.2719,633.4781 Q882.5063,633.3844 882.7594,633.1219 Q882.9187,632.9625 883.0031,632.9156 Q883.0969,632.8688 883.2188,632.8688 Q883.4156,632.8688 883.5656,633.0281 Q883.725,633.1781 883.725,633.3844 Q883.725,633.5906 883.5188,633.8344 Q883.2188,634.1813 882.7406,634.3781 Q882.0938,634.65 881.3156,634.65 Q880.4063,634.65 879.6844,634.275 Q879.0938,633.975 878.6813,633.3375 Q878.2688,632.6906 878.2688,631.9219 L878.2688,631.2281 Q878.2688,630.4313 878.6344,629.7469 Q879.0094,629.0531 879.6656,628.6875 Q880.3219,628.3125 881.0625,628.3125 Q881.5031,628.3125 881.8875,628.4156 Q882.2813,628.5094 882.6094,628.725 Z " fill="#000000"/><text fill="#000000" font-family="sans-serif" font-size="8.4" lengthAdjust="spacing" textLength="22.2" x="893.25" y="634.6781">Heros</text><line style="stroke:#181818;stroke-width:0.3;" x1="777.6" x2="1011.6" y1="640.8" y2="640.8"/><ellipse cx="783.6" cy="663.259" fill="#84BE84" rx="1.8" ry="1.8" style="stroke:#038048;stroke-width:0.6;"/><text fill="#000000" font-family="sans-serif" font-size="8.4" lengthAdjust="spacing" textLength="219.6" x="789" y="665.8371">Heros(double x, double y, double largeur, double hauteur)</text><line style="stroke:#181818;stroke-width:0.6;stroke-dasharray:1.0,2.0;" x1="777.6" x2="870" y1="651.1863" y2="651.1863"/><text fill="#000000" font-family="sans-serif" font-size="8.4" lengthAdjust="spacing" textLength="49.2" x="870" y="654.3645">Constructeur</text><line style="stroke:#181818;stroke-width:0.6;stroke-dasharray:1.0,2.0;" x1="919.2" x2="1011.6" y1="651.1863" y2="651.1863"/><ellipse cx="783.6" cy="688.0043" fill="#84BE84" rx="1.8" ry="1.8" style="stroke:#038048;stroke-width:0.6;"/><text fill="#000000" font-family="sans-serif" font-size="8.4" lengthAdjust="spacing" textLength="82.8" x="789" y="690.5824">boolean estUnHeros()</text><line style="stroke:#181818;stroke-width:0.6;stroke-dasharray:1.0,2.0;" x1="777.6" x2="876" y1="675.9316" y2="675.9316"/><text fill="#000000" font-family="sans-serif" font-size="8.4" lengthAdjust="spacing" textLength="37.2" x="876" y="679.1098">M&#233;thodes</text><line style="stroke:#181818;stroke-width:0.6;stroke-dasharray:1.0,2.0;" x1="913.2" x2="1011.6" y1="675.9316" y2="675.9316"/></g><!--class Monstre--><g id="elem_Monstre"><rect codeLine="52" fill="#F1F1F1" height="48.7453" id="Monstre" rx="1.5" ry="1.5" style="stroke:#181818;stroke-width:0.3;" width="303" x="1033.5" y="633.9"/><ellipse cx="1166.85" cy="643.5" fill="#A9DCDF" rx="6.6" ry="6.6" style="stroke:#181818;stroke-width:0.6;"/><path d="M1168.1625,644.5594 L1165.6781,644.5594 L1165.425,645.1781 L1165.6781,645.1781 Q1166.0438,645.1781 1166.2031,645.3188 Q1166.3625,645.4594 1166.3625,645.6938 Q1166.3625,645.9187 1166.2031,646.0594 Q1166.0438,646.2 1165.6781,646.2 L1164.3,646.2 Q1163.9344,646.2 1163.7844,646.0594 Q1163.625,645.9187 1163.625,645.6844 Q1163.625,645.4594 1163.7938,645.3188 Q1163.9531,645.1687 1164.3281,645.1781 L1165.9312,641.1844 L1165.2656,641.1844 Q1164.9,641.1844 1164.7406,641.0437 Q1164.5813,640.9031 1164.5813,640.6687 Q1164.5813,640.4438 1164.7406,640.3031 Q1164.9,640.1625 1165.2656,640.1625 L1167.4688,640.1625 L1169.5031,645.1781 Q1169.8594,645.1781 1169.9719,645.2625 Q1170.2063,645.4219 1170.2063,645.6938 Q1170.2063,645.9187 1170.0469,646.0594 Q1169.8969,646.2 1169.5313,646.2 L1168.1531,646.2 Q1167.7875,646.2 1167.6281,646.0594 Q1167.4688,645.9187 1167.4688,645.6844 Q1167.4688,645.4594 1167.6281,645.3188 Q1167.7875,645.1781 1168.1531,645.1781 L1168.4063,645.1781 L1168.1625,644.5594 Z M1167.7313,643.5375 L1166.9156,641.5125 L1166.0906,643.5375 L1167.7313,643.5375 Z " fill="#000000"/><text fill="#000000" font-family="sans-serif" font-size="8.4" font-style="italic" lengthAdjust="spacing" textLength="31.2" x="1179.15" y="646.9781">Monstre</text><line style="stroke:#181818;stroke-width:0.3;" x1="1034.1" x2="1335.9" y1="653.1" y2="653.1"/><ellipse cx="1040.1" cy="675.559" fill="#84BE84" rx="1.8" ry="1.8" style="stroke:#038048;stroke-width:0.6;"/><text fill="#000000" font-family="sans-serif" font-size="8.4" lengthAdjust="spacing" textLength="287.4" x="1045.5" y="678.1371">Monstre(double x, double y, double largeur, double hauteur, double vitesse)</text><line style="stroke:#181818;stroke-width:0.6;stroke-dasharray:1.0,2.0;" x1="1034.1" x2="1160.4" y1="663.4863" y2="663.4863"/><text fill="#000000" font-family="sans-serif" font-size="8.4" lengthAdjust="spacing" textLength="49.2" x="1160.4" y="666.6645">Constructeur</text><line style="stroke:#181818;stroke-width:0.6;stroke-dasharray:1.0,2.0;" x1="1209.6" x2="1335.9" y1="663.4863" y2="663.4863"/></g><!--class Walker--><g id="elem_Walker"><rect codeLine="57" fill="#F1F1F1" height="48.7453" id="Walker" rx="1.5" ry="1.5" style="stroke:#181818;stroke-width:0.3;" width="239.4" x="1065.3" y="746.4"/><ellipse cx="1169.25" cy="756" fill="#ADD1B2" rx="6.6" ry="6.6" style="stroke:#181818;stroke-width:0.6;"/><path d="M1170.9094,753.525 Q1171.0031,753.3938 1171.1156,753.3281 Q1171.2281,753.2625 1171.3594,753.2625 Q1171.5844,753.2625 1171.725,753.4219 Q1171.8656,753.5719 1171.8656,753.9375 L1171.8656,754.8094 Q1171.8656,755.175 1171.725,755.3344 Q1171.5844,755.4938 1171.3594,755.4938 Q1171.1531,755.4938 1171.0313,755.3719 Q1170.9094,755.2594 1170.8438,754.95 Q1170.8156,754.7344 1170.7031,754.6219 Q1170.5063,754.3969 1170.1406,754.2656 Q1169.775,754.1344 1169.4,754.1344 Q1168.9406,754.1344 1168.5562,754.3313 Q1168.1812,754.5281 1167.8813,754.9781 Q1167.5906,755.4281 1167.5906,756.0469 L1167.5906,756.7031 Q1167.5906,757.4438 1168.125,757.9406 Q1168.6594,758.4281 1169.6156,758.4281 Q1170.1781,758.4281 1170.5719,758.2781 Q1170.8062,758.1844 1171.0594,757.9219 Q1171.2188,757.7625 1171.3031,757.7156 Q1171.3969,757.6687 1171.5188,757.6687 Q1171.7156,757.6687 1171.8656,757.8281 Q1172.025,757.9781 1172.025,758.1844 Q1172.025,758.3906 1171.8188,758.6344 Q1171.5188,758.9812 1171.0406,759.1781 Q1170.3938,759.45 1169.6156,759.45 Q1168.7063,759.45 1167.9844,759.075 Q1167.3938,758.775 1166.9813,758.1375 Q1166.5688,757.4906 1166.5688,756.7219 L1166.5688,756.0281 Q1166.5688,755.2312 1166.9344,754.5469 Q1167.3094,753.8531 1167.9656,753.4875 Q1168.6219,753.1125 1169.3625,753.1125 Q1169.8031,753.1125 1170.1875,753.2156 Q1170.5813,753.3094 1170.9094,753.525 Z " fill="#000000"/><text fill="#000000" font-family="sans-serif" font-size="8.4" lengthAdjust="spacing" textLength="26.4" x="1181.55" y="759.4781">Walker</text><line style="stroke:#181818;stroke-width:0.3;" x1="1065.9" x2="1304.1" y1="765.6" y2="765.6"/><ellipse cx="1071.9" cy="788.059" fill="#84BE84" rx="1.8" ry="1.8" style="stroke:#038048;stroke-width:0.6;"/><text fill="#000000" font-family="sans-serif" font-size="8.4" lengthAdjust="spacing" textLength="223.8" x="1077.3" y="790.6371">Walker(double x, double y, double largeur, double hauteur)</text><line style="stroke:#181818;stroke-width:0.6;stroke-dasharray:1.0,2.0;" x1="1065.9" x2="1160.4" y1="775.9863" y2="775.9863"/><text fill="#000000" font-family="sans-serif" font-size="8.4" lengthAdjust="spacing" textLength="49.2" x="1160.4" y="779.1645">Constructeur</text><line style="stroke:#181818;stroke-width:0.6;stroke-dasharray:1.0,2.0;" x1="1209.6" x2="1304.1" y1="775.9863" y2="775.9863"/></g><!--class Monde--><g id="elem_Monde"><rect codeLine="62" fill="#F1F1F1" height="174.0445" id="Monde" rx="1.5" ry="1.5" style="stroke:#181818;stroke-width:0.3;" width="306" x="625.8" y="225"/><ellipse cx="763.35" cy="234.6" fill="#ADD1B2" rx="6.6" ry="6.6" style="stroke:#181818;stroke-width:0.6;"/><path d="M765.0094,232.125 Q765.1031,231.9937 765.2156,231.9281 Q765.3281,231.8625 765.4594,231.8625 Q765.6844,231.8625 765.825,232.0219 Q765.9656,232.1719 765.9656,232.5375 L765.9656,233.4094 Q765.9656,233.775 765.825,233.9344 Q765.6844,234.0938 765.4594,234.0938 Q765.2531,234.0938 765.1313,233.9719 Q765.0094,233.8594 764.9438,233.55 Q764.9156,233.3344 764.8031,233.2219 Q764.6062,232.9969 764.2406,232.8656 Q763.875,232.7344 763.5,232.7344 Q763.0406,232.7344 762.6563,232.9312 Q762.2813,233.1281 761.9812,233.5781 Q761.6906,234.0281 761.6906,234.6469 L761.6906,235.3031 Q761.6906,236.0438 762.225,236.5406 Q762.7594,237.0281 763.7156,237.0281 Q764.2781,237.0281 764.6719,236.8781 Q764.9063,236.7844 765.1594,236.5219 Q765.3188,236.3625 765.4031,236.3156 Q765.4969,236.2687 765.6188,236.2687 Q765.8156,236.2687 765.9656,236.4281 Q766.125,236.5781 766.125,236.7844 Q766.125,236.9906 765.9187,237.2344 Q765.6188,237.5812 765.1406,237.7781 Q764.4938,238.05 763.7156,238.05 Q762.8063,238.05 762.0844,237.675 Q761.4938,237.375 761.0813,236.7375 Q760.6687,236.0906 760.6687,235.3219 L760.6687,234.6281 Q760.6687,233.8312 761.0344,233.1469 Q761.4094,232.4531 762.0656,232.0875 Q762.7219,231.7125 763.4625,231.7125 Q763.9031,231.7125 764.2875,231.8156 Q764.6813,231.9094 765.0094,232.125 Z " fill="#000000"/><text fill="#000000" font-family="sans-serif" font-size="8.4" lengthAdjust="spacing" textLength="25.8" x="775.65" y="238.0781">Monde</text><line style="stroke:#181818;stroke-width:0.3;" x1="626.4" x2="931.2" y1="244.2" y2="244.2"/><polygon fill="none" points="632.4,250.0863,634.8,252.4863,632.4,254.8863,630,252.4863" style="stroke:#B38D22;stroke-width:0.6;"/><text fill="#000000" font-family="sans-serif" font-size="8.4" lengthAdjust="spacing" textLength="42" x="637.8" y="255.6645">int nbLigne</text><polygon fill="none" points="632.4,261.259,634.8,263.659,632.4,266.059,630,263.659" style="stroke:#B38D22;stroke-width:0.6;"/><text fill="#000000" font-family="sans-serif" font-size="8.4" lengthAdjust="spacing" textLength="33.6" x="637.8" y="266.8371">int nbCol</text><ellipse cx="632.4" cy="289.0043" fill="#84BE84" rx="1.8" ry="1.8" style="stroke:#038048;stroke-width:0.6;"/><text fill="#000000" font-family="sans-serif" font-size="8.4" lengthAdjust="spacing" textLength="31.8" x="637.8" y="291.5824">Monde()</text><line style="stroke:#181818;stroke-width:0.6;stroke-dasharray:1.0,2.0;" x1="626.4" x2="754.2" y1="276.9316" y2="276.9316"/><text fill="#000000" font-family="sans-serif" font-size="8.4" lengthAdjust="spacing" textLength="49.2" x="754.2" y="280.1098">Constructeur</text><line style="stroke:#181818;stroke-width:0.6;stroke-dasharray:1.0,2.0;" x1="803.4" x2="931.2" y1="276.9316" y2="276.9316"/><ellipse cx="632.4" cy="313.7496" fill="#84BE84" rx="1.8" ry="1.8" style="stroke:#038048;stroke-width:0.6;"/><text fill="#000000" font-family="sans-serif" font-size="8.4" lengthAdjust="spacing" textLength="210.6" x="637.8" y="316.3277">boolean collision(ElementMonde e1, ElementMonde e2)</text><ellipse cx="632.4" cy="324.9223" fill="#84BE84" rx="1.8" ry="1.8" style="stroke:#038048;stroke-width:0.6;"/><text fill="#000000" font-family="sans-serif" font-size="8.4" lengthAdjust="spacing" textLength="64.8" x="637.8" y="327.5004">Heros getHeros()</text><ellipse cx="632.4" cy="336.0949" fill="#84BE84" rx="1.8" ry="1.8" style="stroke:#038048;stroke-width:0.6;"/><text fill="#000000" font-family="sans-serif" font-size="8.4" lengthAdjust="spacing" textLength="290.4" x="637.8" y="338.673">void deplacementHeros(TypeMouvement typeMouvement, double deltaTime)</text><ellipse cx="632.4" cy="347.2676" fill="#84BE84" rx="1.8" ry="1.8" style="stroke:#038048;stroke-width:0.6;"/><text fill="#000000" font-family="sans-serif" font-size="8.4" lengthAdjust="spacing" textLength="107.4" x="637.8" y="349.8457">void deplacementMonstres()</text><ellipse cx="632.4" cy="358.4402" fill="#84BE84" rx="1.8" ry="1.8" style="stroke:#038048;stroke-width:0.6;"/><text fill="#000000" font-family="sans-serif" font-size="8.4" lengthAdjust="spacing" textLength="102.6" x="637.8" y="361.0184">void addTerrains(Terrain t)</text><ellipse cx="632.4" cy="369.6129" fill="#84BE84" rx="1.8" ry="1.8" style="stroke:#038048;stroke-width:0.6;"/><text fill="#000000" font-family="sans-serif" font-size="8.4" lengthAdjust="spacing" textLength="138" x="637.8" y="372.191">void addPersonnage(Personnage p)</text><ellipse cx="632.4" cy="380.7855" fill="#84BE84" rx="1.8" ry="1.8" style="stroke:#038048;stroke-width:0.6;"/><text fill="#000000" font-family="sans-serif" font-size="8.4" lengthAdjust="spacing" textLength="68.4" x="637.8" y="383.3637">void updateData()</text><ellipse cx="632.4" cy="391.9582" fill="#84BE84" rx="1.8" ry="1.8" style="stroke:#038048;stroke-width:0.6;"/><text fill="#000000" font-family="sans-serif" font-size="8.4" lengthAdjust="spacing" textLength="118.2" x="637.8" y="394.5363">void chargerCarte(String carte)</text><line style="stroke:#181818;stroke-width:0.6;stroke-dasharray:1.0,2.0;" x1="626.4" x2="760.2" y1="301.677" y2="301.677"/><text fill="#000000" font-family="sans-serif" font-size="8.4" lengthAdjust="spacing" textLength="37.2" x="760.2" y="304.8551">M&#233;thodes</text><line style="stroke:#181818;stroke-width:0.6;stroke-dasharray:1.0,2.0;" x1="797.4" x2="931.2" y1="301.677" y2="301.677"/></g><!--class Donnees--><g id="elem_Donnees"><rect codeLine="80" fill="#F1F1F1" height="84.6633" id="Donnees" rx="1.5" ry="1.5" style="stroke:#181818;stroke-width:0.3;" width="139.8" x="339.9" y="269.7"/><ellipse cx="390.15" cy="279.3" fill="#ADD1B2" rx="6.6" ry="6.6" style="stroke:#181818;stroke-width:0.6;"/><path d="M391.8094,276.825 Q391.9031,276.6937 392.0156,276.6281 Q392.1281,276.5625 392.2594,276.5625 Q392.4844,276.5625 392.625,276.7219 Q392.7656,276.8719 392.7656,277.2375 L392.7656,278.1094 Q392.7656,278.475 392.625,278.6344 Q392.4844,278.7938 392.2594,278.7938 Q392.0531,278.7938 391.9313,278.6719 Q391.8094,278.5594 391.7438,278.25 Q391.7156,278.0344 391.6031,277.9219 Q391.4063,277.6969 391.0406,277.5656 Q390.675,277.4344 390.3,277.4344 Q389.8406,277.4344 389.4563,277.6312 Q389.0813,277.8281 388.7813,278.2781 Q388.4906,278.7281 388.4906,279.3469 L388.4906,280.0031 Q388.4906,280.7438 389.025,281.2406 Q389.5594,281.7281 390.5156,281.7281 Q391.0781,281.7281 391.4719,281.5781 Q391.7063,281.4844 391.9594,281.2219 Q392.1188,281.0625 392.2031,281.0156 Q392.2969,280.9688 392.4188,280.9688 Q392.6156,280.9688 392.7656,281.1281 Q392.925,281.2781 392.925,281.4844 Q392.925,281.6906 392.7188,281.9344 Q392.4188,282.2813 391.9406,282.4781 Q391.2938,282.75 390.5156,282.75 Q389.6063,282.75 388.8844,282.375 Q388.2938,282.075 387.8812,281.4375 Q387.4688,280.7906 387.4688,280.0219 L387.4688,279.3281 Q387.4688,278.5313 387.8344,277.8469 Q388.2094,277.1531 388.8656,276.7875 Q389.5219,276.4125 390.2625,276.4125 Q390.7031,276.4125 391.0875,276.5156 Q391.4813,276.6094 391.8094,276.825 Z " fill="#000000"/><text fill="#000000" font-family="sans-serif" font-size="8.4" lengthAdjust="spacing" textLength="34.2" x="402.45" y="282.7781">Donnees</text><line style="stroke:#181818;stroke-width:0.3;" x1="340.5" x2="479.1" y1="288.9" y2="288.9"/><ellipse cx="346.5" cy="297.7863" fill="none" rx="1.8" ry="1.8" style="stroke:#038048;stroke-width:0.6;"/><text fill="#000000" font-family="sans-serif" font-size="8.4" lengthAdjust="spacing" text-decoration="underline" textLength="124.2" x="351.9" y="300.3645">int WINDOW_DEFAULT_HEIGHT</text><ellipse cx="346.5" cy="308.959" fill="none" rx="1.8" ry="1.8" style="stroke:#038048;stroke-width:0.6;"/><text fill="#000000" font-family="sans-serif" font-size="8.4" lengthAdjust="spacing" text-decoration="underline" textLength="120.6" x="351.9" y="311.5371">int WINDOW_DEFAULT_WIDTH</text><ellipse cx="346.5" cy="320.1316" fill="none" rx="1.8" ry="1.8" style="stroke:#038048;stroke-width:0.6;"/><text fill="#000000" font-family="sans-serif" font-size="8.4" lengthAdjust="spacing" text-decoration="underline" textLength="77.4" x="351.9" y="322.7098">int WORLD_HEIGHT</text><ellipse cx="346.5" cy="331.3043" fill="none" rx="1.8" ry="1.8" style="stroke:#038048;stroke-width:0.6;"/><text fill="#000000" font-family="sans-serif" font-size="8.4" lengthAdjust="spacing" text-decoration="underline" textLength="73.8" x="351.9" y="333.8824">int WORLD_WIDTH</text><text fill="#000000" font-family="sans-serif" font-size="8.4" lengthAdjust="spacing" textLength="7.2" x="351.9" y="345.0551">...</text><line style="stroke:#181818;stroke-width:0.3;" x1="340.5" x2="479.1" y1="349.5633" y2="349.5633"/></g><!--class GestionFichier--><g id="elem_GestionFichier"><rect codeLine="88" fill="#F1F1F1" height="73.4906" id="GestionFichier" rx="1.5" ry="1.5" style="stroke:#181818;stroke-width:0.3;" width="169.2" x="325.2" y="485.4"/><ellipse cx="379.65" cy="495" fill="#ADD1B2" rx="6.6" ry="6.6" style="stroke:#181818;stroke-width:0.6;"/><path d="M381.3094,492.525 Q381.4031,492.3937 381.5156,492.3281 Q381.6281,492.2625 381.7594,492.2625 Q381.9844,492.2625 382.125,492.4219 Q382.2656,492.5719 382.2656,492.9375 L382.2656,493.8094 Q382.2656,494.175 382.125,494.3344 Q381.9844,494.4938 381.7594,494.4938 Q381.5531,494.4938 381.4313,494.3719 Q381.3094,494.2594 381.2438,493.95 Q381.2156,493.7344 381.1031,493.6219 Q380.9063,493.3969 380.5406,493.2656 Q380.175,493.1344 379.8,493.1344 Q379.3406,493.1344 378.9563,493.3312 Q378.5813,493.5281 378.2813,493.9781 Q377.9906,494.4281 377.9906,495.0469 L377.9906,495.7031 Q377.9906,496.4437 378.525,496.9406 Q379.0594,497.4281 380.0156,497.4281 Q380.5781,497.4281 380.9719,497.2781 Q381.2063,497.1844 381.4594,496.9219 Q381.6188,496.7625 381.7031,496.7156 Q381.7969,496.6688 381.9188,496.6688 Q382.1156,496.6688 382.2656,496.8281 Q382.425,496.9781 382.425,497.1844 Q382.425,497.3906 382.2188,497.6344 Q381.9188,497.9813 381.4406,498.1781 Q380.7938,498.45 380.0156,498.45 Q379.1063,498.45 378.3844,498.075 Q377.7938,497.775 377.3812,497.1375 Q376.9688,496.4906 376.9688,495.7219 L376.9688,495.0281 Q376.9688,494.2313 377.3344,493.5469 Q377.7094,492.8531 378.3656,492.4875 Q379.0219,492.1125 379.7625,492.1125 Q380.2031,492.1125 380.5875,492.2156 Q380.9813,492.3094 381.3094,492.525 Z " fill="#000000"/><text fill="#000000" font-family="sans-serif" font-size="8.4" lengthAdjust="spacing" textLength="55.2" x="391.95" y="498.4781">GestionFichier</text><line style="stroke:#181818;stroke-width:0.3;" x1="325.8" x2="493.8" y1="504.6" y2="504.6"/><ellipse cx="331.8" cy="527.059" fill="#84BE84" rx="1.8" ry="1.8" style="stroke:#038048;stroke-width:0.6;"/><text fill="#000000" font-family="sans-serif" font-size="8.4" lengthAdjust="spacing" textLength="61.2" x="337.2" y="529.6371">GestionFichier()</text><line style="stroke:#181818;stroke-width:0.6;stroke-dasharray:1.0,2.0;" x1="325.8" x2="385.2" y1="514.9863" y2="514.9863"/><text fill="#000000" font-family="sans-serif" font-size="8.4" lengthAdjust="spacing" textLength="49.2" x="385.2" y="518.1645">Constructeur</text><line style="stroke:#181818;stroke-width:0.6;stroke-dasharray:1.0,2.0;" x1="434.4" x2="493.8" y1="514.9863" y2="514.9863"/><ellipse cx="331.8" cy="551.8043" fill="#84BE84" rx="1.8" ry="1.8" style="stroke:#038048;stroke-width:0.6;"/><text fill="#000000" font-family="sans-serif" font-size="8.4" lengthAdjust="spacing" textLength="153.6" x="337.2" y="554.3824">char[] lireFichierCarte(string nomFichier)</text><line style="stroke:#181818;stroke-width:0.6;stroke-dasharray:1.0,2.0;" x1="325.8" x2="391.2" y1="539.7316" y2="539.7316"/><text fill="#000000" font-family="sans-serif" font-size="8.4" lengthAdjust="spacing" textLength="37.2" x="391.2" y="542.9098">M&#233;thodes</text><line style="stroke:#181818;stroke-width:0.6;stroke-dasharray:1.0,2.0;" x1="428.4" x2="493.8" y1="539.7316" y2="539.7316"/></g><!--class Resources--><g id="elem_Resources"><rect codeLine="95" fill="#F1F1F1" height="104.6086" id="Resources" rx="1.5" ry="1.5" style="stroke:#181818;stroke-width:0.3;" width="162.6" x="328.5" y="606"/><ellipse cx="386.85" cy="615.6" fill="#ADD1B2" rx="6.6" ry="6.6" style="stroke:#181818;stroke-width:0.6;"/><path d="M388.5094,613.125 Q388.6031,612.9938 388.7156,612.9281 Q388.8281,612.8625 388.9594,612.8625 Q389.1844,612.8625 389.325,613.0219 Q389.4656,613.1719 389.4656,613.5375 L389.4656,614.4094 Q389.4656,614.775 389.325,614.9344 Q389.1844,615.0938 388.9594,615.0938 Q388.7531,615.0938 388.6312,614.9719 Q388.5094,614.8594 388.4437,614.55 Q388.4156,614.3344 388.3031,614.2219 Q388.1063,613.9969 387.7406,613.8656 Q387.375,613.7344 387,613.7344 Q386.5406,613.7344 386.1563,613.9313 Q385.7813,614.1281 385.4813,614.5781 Q385.1906,615.0281 385.1906,615.6469 L385.1906,616.3031 Q385.1906,617.0437 385.725,617.5406 Q386.2594,618.0281 387.2156,618.0281 Q387.7781,618.0281 388.1719,617.8781 Q388.4063,617.7844 388.6594,617.5219 Q388.8187,617.3625 388.9031,617.3156 Q388.9969,617.2688 389.1188,617.2688 Q389.3156,617.2688 389.4656,617.4281 Q389.625,617.5781 389.625,617.7844 Q389.625,617.9906 389.4188,618.2344 Q389.1188,618.5813 388.6406,618.7781 Q387.9938,619.05 387.2156,619.05 Q386.3063,619.05 385.5844,618.675 Q384.9938,618.375 384.5813,617.7375 Q384.1688,617.0906 384.1688,616.3219 L384.1688,615.6281 Q384.1688,614.8313 384.5344,614.1469 Q384.9094,613.4531 385.5656,613.0875 Q386.2219,612.7125 386.9625,612.7125 Q387.4031,612.7125 387.7875,612.8156 Q388.1813,612.9094 388.5094,613.125 Z " fill="#000000"/><text fill="#000000" font-family="sans-serif" font-size="8.4" lengthAdjust="spacing" textLength="40.8" x="399.15" y="619.0781">Resources</text><line style="stroke:#181818;stroke-width:0.3;" x1="329.1" x2="490.5" y1="625.2" y2="625.2"/><rect fill="none" height="3.6" style="stroke:#C82930;stroke-width:0.6;" width="3.6" x="333.3" y="632.2863"/><text fill="#000000" font-family="sans-serif" font-size="8.4" lengthAdjust="spacing" text-decoration="underline" textLength="102.6" x="340.5" y="636.6645">Map&lt;String, Image&gt; assets</text><ellipse cx="335.1" cy="658.8316" fill="#84BE84" rx="1.8" ry="1.8" style="stroke:#038048;stroke-width:0.6;"/><text fill="#000000" font-family="sans-serif" font-size="8.4" lengthAdjust="spacing" text-decoration="underline" textLength="78" x="340.5" y="661.4098">URL get(String path)</text><ellipse cx="335.1" cy="670.0043" fill="#84BE84" rx="1.8" ry="1.8" style="stroke:#038048;stroke-width:0.6;"/><text fill="#000000" font-family="sans-serif" font-size="8.4" lengthAdjust="spacing" text-decoration="underline" textLength="147" x="340.5" y="672.5824">InputStream getAsStream(String path)}</text><ellipse cx="335.1" cy="681.177" fill="#84BE84" rx="1.8" ry="1.8" style="stroke:#038048;stroke-width:0.6;"/><text fill="#000000" font-family="sans-serif" font-size="8.4" lengthAdjust="spacing" text-decoration="underline" textLength="105.6" x="340.5" y="683.7551">Image getAsset(String path)</text><ellipse cx="335.1" cy="692.3496" fill="#84BE84" rx="1.8" ry="1.8" style="stroke:#038048;stroke-width:0.6;"/><text fill="#000000" font-family="sans-serif" font-size="8.4" lengthAdjust="spacing" text-decoration="underline" textLength="126.6" x="340.5" y="694.9277">ResourceBundle getI18NBundle()</text><ellipse cx="335.1" cy="703.5223" fill="#84BE84" rx="1.8" ry="1.8" style="stroke:#038048;stroke-width:0.6;"/><text fill="#000000" font-family="sans-serif" font-size="8.4" lengthAdjust="spacing" text-decoration="underline" textLength="119.4" x="340.5" y="706.1004">String getI18NString(String key)</text><line style="stroke:#181818;stroke-width:0.6;stroke-dasharray:1.0,2.0;" x1="329.1" x2="391.2" y1="646.759" y2="646.759"/><text fill="#000000" font-family="sans-serif" font-size="8.4" lengthAdjust="spacing" textLength="37.2" x="391.2" y="649.9371">M&#233;thodes</text><line style="stroke:#181818;stroke-width:0.6;stroke-dasharray:1.0,2.0;" x1="428.4" x2="490.5" y1="646.759" y2="646.759"/></g><!--class Sprite--><g id="elem_Sprite"><rect codeLine="107" fill="#F1F1F1" height="28.8" id="Sprite" rx="1.5" ry="1.5" style="stroke:#181818;stroke-width:0.3;" width="41.4" x="1380.3" y="507.6"/><ellipse cx="1389.3" cy="517.2" fill="#ADD1B2" rx="6.6" ry="6.6" style="stroke:#181818;stroke-width:0.6;"/><path d="M1390.9594,514.725 Q1391.0531,514.5938 1391.1656,514.5281 Q1391.2781,514.4625 1391.4094,514.4625 Q1391.6344,514.4625 1391.775,514.6219 Q1391.9156,514.7719 1391.9156,515.1375 L1391.9156,516.0094 Q1391.9156,516.375 1391.775,516.5344 Q1391.6344,516.6938 1391.4094,516.6938 Q1391.2031,516.6938 1391.0813,516.5719 Q1390.9594,516.4594 1390.8938,516.15 Q1390.8656,515.9344 1390.7531,515.8219 Q1390.5562,515.5969 1390.1906,515.4656 Q1389.825,515.3344 1389.45,515.3344 Q1388.9906,515.3344 1388.6063,515.5313 Q1388.2313,515.7281 1387.9312,516.1781 Q1387.6406,516.6281 1387.6406,517.2469 L1387.6406,517.9031 Q1387.6406,518.6438 1388.175,519.1406 Q1388.7094,519.6281 1389.6656,519.6281 Q1390.2281,519.6281 1390.6219,519.4781 Q1390.8563,519.3844 1391.1094,519.1219 Q1391.2688,518.9625 1391.3531,518.9156 Q1391.4469,518.8688 1391.5688,518.8688 Q1391.7656,518.8688 1391.9156,519.0281 Q1392.075,519.1781 1392.075,519.3844 Q1392.075,519.5906 1391.8687,519.8344 Q1391.5688,520.1813 1391.0906,520.3781 Q1390.4438,520.65 1389.6656,520.65 Q1388.7563,520.65 1388.0344,520.275 Q1387.4438,519.975 1387.0313,519.3375 Q1386.6187,518.6906 1386.6187,517.9219 L1386.6187,517.2281 Q1386.6187,516.4313 1386.9844,515.7469 Q1387.3594,515.0531 1388.0156,514.6875 Q1388.6719,514.3125 1389.4125,514.3125 Q1389.8531,514.3125 1390.2375,514.4156 Q1390.6313,514.5094 1390.9594,514.725 Z " fill="#000000"/><text fill="#000000" font-family="sans-serif" font-size="8.4" lengthAdjust="spacing" textLength="22.2" x="1397.7" y="520.6781">Sprite</text><line style="stroke:#181818;stroke-width:0.3;" x1="1380.9" x2="1421.1" y1="526.8" y2="526.8"/><line style="stroke:#181818;stroke-width:0.3;" x1="1380.9" x2="1421.1" y1="531.6" y2="531.6"/></g><!--class GameController--><g id="elem_GameController"><rect codeLine="111" fill="#F1F1F1" height="28.8" id="GameController" rx="1.5" ry="1.5" style="stroke:#181818;stroke-width:0.3;" width="79.2" x="1310.4" y="99"/><ellipse cx="1319.4" cy="108.6" fill="#A9DCDF" rx="6.6" ry="6.6" style="stroke:#181818;stroke-width:0.6;"/><path d="M1320.7125,109.6594 L1318.2281,109.6594 L1317.975,110.2781 L1318.2281,110.2781 Q1318.5938,110.2781 1318.7531,110.4188 Q1318.9125,110.5594 1318.9125,110.7938 Q1318.9125,111.0188 1318.7531,111.1594 Q1318.5938,111.3 1318.2281,111.3 L1316.85,111.3 Q1316.4844,111.3 1316.3344,111.1594 Q1316.175,111.0188 1316.175,110.7844 Q1316.175,110.5594 1316.3438,110.4188 Q1316.5031,110.2688 1316.8781,110.2781 L1318.4813,106.2844 L1317.8156,106.2844 Q1317.45,106.2844 1317.2906,106.1438 Q1317.1313,106.0031 1317.1313,105.7688 Q1317.1313,105.5438 1317.2906,105.4031 Q1317.45,105.2625 1317.8156,105.2625 L1320.0188,105.2625 L1322.0531,110.2781 Q1322.4094,110.2781 1322.5219,110.3625 Q1322.7563,110.5219 1322.7563,110.7938 Q1322.7563,111.0188 1322.5969,111.1594 Q1322.4469,111.3 1322.0813,111.3 L1320.7031,111.3 Q1320.3375,111.3 1320.1781,111.1594 Q1320.0188,111.0188 1320.0188,110.7844 Q1320.0188,110.5594 1320.1781,110.4188 Q1320.3375,110.2781 1320.7031,110.2781 L1320.9563,110.2781 L1320.7125,109.6594 Z M1320.2813,108.6375 L1319.4656,106.6125 L1318.6406,108.6375 L1320.2813,108.6375 Z " fill="#000000"/><text fill="#000000" font-family="sans-serif" font-size="8.4" font-style="italic" lengthAdjust="spacing" textLength="60" x="1327.8" y="112.0781">GameController</text><line style="stroke:#181818;stroke-width:0.3;" x1="1311" x2="1389" y1="118.2" y2="118.2"/><line style="stroke:#181818;stroke-width:0.3;" x1="1311" x2="1389" y1="123" y2="123"/></g><g id="elem_N_gui"><path d="M1331.7,3.6 L1331.7,30.3492 L1521.9,30.3492 L1521.9,9.6 L1515.9,3.6 L1331.7,3.6 " fill="#FEFFDD" style="stroke:#181818;stroke-width:0.3;"/><path d="M1515.9,3.6 L1515.9,9.6 L1521.9,9.6 L1515.9,3.6 " fill="#FEFFDD" style="stroke:#181818;stroke-width:0.6;"/><text fill="#000000" font-family="sans-serif" font-size="7.8" lengthAdjust="spacing" textLength="54.6" x="1335.3" y="15.017">Voir diagramme</text><text fill="#000000" font-family="sans-serif" font-size="7.8" font-style="italic" lengthAdjust="spacing" textLength="31.2" x="1392.3" y="15.017">class-gui</text><text fill="#000000" font-family="sans-serif" font-size="7.8" lengthAdjust="spacing" textLength="64.8" x="1425.9" y="15.017">pour en savoir plus</text><text fill="#000000" font-family="sans-serif" font-size="7.8" lengthAdjust="spacing" textLength="177.6" x="1335.3" y="25.3916">sur ces packages et les classes qu'ils contiennent.</text></g><!--link N_gui to engine--><g id="link_N_gui_engine"><path codeLine="155" d="M1424.58,30.726 C1422.396,43.545 1418.976,63.627 1416.0653,80.7172 C1415.8833,81.7854 1415.7034,82.8418 1415.5259,83.8841 C1415.5037,84.0144 1415.4815,84.1445 1415.4594,84.2743 " fill="none" id="N_gui-engine" style="stroke:#181818;stroke-width:0.6;stroke-dasharray:7.0,7.0;"/></g><!--link N_gui to gui--><g id="link_N_gui_gui"><path codeLine="156" d="M1427.214,30.66 C1428.474,69.771 1432.3695,190.8525 1435.9755,302.9483 C1437.7785,358.9961 1439.5091,412.7976 1440.8017,452.983 C1441.1249,463.0294 1441.4207,472.2248 1441.6834,480.3915 " fill="none" id="N_gui-gui" style="stroke:#181818;stroke-width:0.6;stroke-dasharray:7.0,7.0;"/></g><!--reverse link GestionFichier to Resources--><!--reverse link Donnees to GestionFichier--><!--link engine to gui--><!--link GameController to Monde--><g id="link_GameController_Monde"><path codeLine="165" d="M1338.678,127.974 C1330.98,136.416 1320.042,146.526 1308,151.8 C1158.606,217.278 1094.472,126.504 942.6,186 C918.504,195.438 894.966,209.538 873.588,224.916 " fill="none" id="GameController-Monde" style="stroke:#181818;stroke-width:0.6;"/><text fill="#000000" font-family="sans-serif" font-size="7.8" lengthAdjust="spacing" textLength="4.2" x="874.1672" y="218.3831">1</text></g><!--reverse link ElementMonde to Personnage--><g id="link_ElementMonde_Personnage"><path codeLine="166" d="M1092.0709,375.0045 C1090.8169,408.5805 1089.594,441.24 1088.37,473.952 " fill="none" id="ElementMonde-backto-Personnage" style="stroke:#181818;stroke-width:0.6;"/><polygon fill="none" points="1092.474,364.212,1088.4734,374.8701,1095.6684,375.1388,1092.474,364.212" style="stroke:#181818;stroke-width:0.6;"/></g><!--reverse link Personnage to Heros--><g id="link_Personnage_Heros"><path codeLine="167" d="M1010.3435,576.2183 C986.2475,593.1623 968.346,605.748 945.834,621.576 " fill="none" id="Personnage-backto-Heros" style="stroke:#181818;stroke-width:0.6;"/><polygon fill="none" points="1019.178,570.006,1008.2728,573.2735,1012.4143,579.1631,1019.178,570.006" style="stroke:#181818;stroke-width:0.6;"/></g><!--reverse link Personnage to Monstre--><g id="link_Personnage_Monstre"><path codeLine="168" d="M1127.5153,578.7337 C1143.2413,600.3097 1154.802,616.176 1167.648,633.798 " fill="none" id="Personnage-backto-Monstre" style="stroke:#181818;stroke-width:0.6;"/><polygon fill="none" points="1121.154,570.006,1124.6061,580.8542,1130.4246,576.6133,1121.154,570.006" style="stroke:#181818;stroke-width:0.6;"/></g><!--reverse link Monstre to Walker--><g id="link_Monstre_Walker"><path codeLine="169" d="M1185,693.474 C1185,712.254 1185,727.494 1185,746.262 " fill="none" id="Monstre-backto-Walker" style="stroke:#181818;stroke-width:0.6;"/><polygon fill="none" points="1185,682.674,1181.4,693.474,1188.6,693.474,1185,682.674" style="stroke:#181818;stroke-width:0.6;"/></g><!--reverse link ElementMonde to Terrain--><g id="link_ElementMonde_Terrain"><path codeLine="171" d="M1083.0945,374.7594 C1076.3265,400.2894 1067.064,419.136 1045.8,438 C1001.532,477.276 973.332,453.492 916.8,471 C908.088,473.7 899.118,476.622 890.136,479.664 " fill="none" id="ElementMonde-backto-Terrain" style="stroke:#181818;stroke-width:0.6;"/><polygon fill="none" points="1085.862,364.32,1079.6147,373.8369,1086.5743,375.6819,1085.862,364.32" style="stroke:#181818;stroke-width:0.6;"/></g><!--reverse link Terrain to Mur--><g id="link_Terrain_Mur"><path codeLine="172" d="M728.7656,571.9768 C710.2496,590.2528 696.42,603.9 678.606,621.474 " fill="none" id="Terrain-backto-Mur" style="stroke:#181818;stroke-width:0.6;"/><polygon fill="none" points="736.452,564.39,726.2367,569.4146,731.2945,574.5389,736.452,564.39" style="stroke:#181818;stroke-width:0.6;"/></g><!--link Monde to Personnage--><g id="link_Monde_Personnage"><path codeLine="175" d="M887.736,399.066 C905.784,412.494 924.51,425.91 942.6,438 C960.912,450.24 981.096,462.588 1000.404,473.892 " fill="none" id="Monde-Personnage" style="stroke:#181818;stroke-width:0.6;"/><text fill="#000000" font-family="sans-serif" font-size="7.8" lengthAdjust="spacing" textLength="3" x="989.3195" y="467.2195">*</text></g><!--link Monde to Terrain--><g id="link_Monde_Terrain"><path codeLine="176" d="M778.8,399.036 C778.8,426.858 778.8,456.438 778.8,479.544 " fill="none" id="Monde-Terrain" style="stroke:#181818;stroke-width:0.6;"/><text fill="#000000" font-family="sans-serif" font-size="7.8" lengthAdjust="spacing" textLength="3" x="775.6453" y="472.8625">*</text></g><!--link Monde to GestionFichier--><g id="link_Monde_GestionFichier"><path codeLine="178" d="M626.052,399.036 C572.718,429.216 515.73,461.46 473.652,485.268 " fill="none" id="Monde-GestionFichier" style="stroke:#181818;stroke-width:0.6;"/><text fill="#000000" font-family="sans-serif" font-size="7.8" lengthAdjust="spacing" textLength="4.2" x="476.5921" y="478.6415">1</text></g><!--link ElementMonde to Sprite--><g id="link_ElementMonde_Sprite"><path codeLine="180" d="M1132.554,333.63 C1183.2,362.196 1274.592,416.034 1346.4,471 C1361.154,482.292 1376.586,496.824 1387.26,507.384 " fill="none" id="ElementMonde-Sprite" style="stroke:#181818;stroke-width:0.6;"/><text fill="#000000" font-family="sans-serif" font-size="7.8" lengthAdjust="spacing" textLength="3" x="1380.5453" y="500.8165">*</text></g><!--link Settings to Property--><g id="link_Settings_Property"><path codeLine="183" d="M159.6,150.204 C159.6,160.782 159.6,172.98 159.6,185.838 " fill="none" id="Settings-Property" style="stroke:#181818;stroke-width:0.6;"/></g><!--link Property to Getter--><g id="link_Property_Getter"><path codeLine="184" d="M184.488,438.126 C189.426,463.038 194.034,486.27 197.118,501.834 " fill="none" id="Property-Getter" style="stroke:#181818;stroke-width:0.6;"/><text fill="#000000" font-family="sans-serif" font-size="7.8" lengthAdjust="spacing" textLength="4.2" x="191.7403" y="495.1163">1</text></g><!--link Property to Setter--><g id="link_Property_Setter"><path codeLine="185" d="M134.352,438.126 C129.342,463.038 124.668,486.27 121.536,501.834 " fill="none" id="Property-Setter" style="stroke:#181818;stroke-width:0.6;"/><text fill="#000000" font-family="sans-serif" font-size="7.8" lengthAdjust="spacing" textLength="4.2" x="117.6975" y="495.1163">1</text></g><!--SRC=[lLVRRjiu47tNLn3kG-sDxKNsQHy20walYG4v2MAbUUWM0IrDPI8ogIKfeqOt7zJlw8_jIAIkbY_RNMmU8d5qviAPCqCwfluh3O5CbKzZ8DySXv3OoXQ21wc8u1zTAIsfhuaVKQN8D88DS5r54FAE129PHK2-DWMxfc1D4ms9R8eZAiDIF1oE1KUtYPzYXqChlZ21TNjE9dXhYyy3AIdZHMW7JLbWDu-yNuJSRyJQRmJPAqmlVdpNQn60gjXT2H41vGIKzYJTWbGKTSkOiuU9TP78qt4YwF-BqORObjW7H0dEKthibNtBD2W5fxPIcZYs8xk3WpkqpexlS2jOG88Vt-E8-Y2xtYw6XKYs6NU9hguAkm54cdfiKrYkvUc9tu8KginH-W2UR4ZDTfuQGXxdDxTUiNAditBXtJyKxvFxvxjzPcI-JdF3XFJFStasErfttI368eiDpc2o0VvdjQzbx9b6ht16EndSJ-Uith-D8SYGMtpbif13GpOMqRcZxPpA-2AAc6A2TslZ62xxzVaCl_NgN24Xw6f5orQ1h5DILVFz9pkcQSpMVCyV3G8xWD6L7Tbw7rEP69Nv4pU0IHnG3HEgQTEDlqwBASTKQkWkjMGy97www1Kdo5lruBjFD8lonZD5dg1JWB8PByWtfQbc_bjMs-Vv7RRmosGwktvolPVRQQNjZqEVvnFlzW3o_j6T7BUL8QecXfOdDORUO0yZJMRCNxDpkgEEFy76DBcVFfE8IR0A9i_Av9cBZHMtjCuZA958lvBNGRd11OslJB7wPBx1kem8we1MHyCfr9yUtPJdURrZgjUzVTISnub62D1DYhvMvhsczTQYbiPZ5DH97_akFoGyY3Aj-UNlTsRLRS5RQnPdLhcBLzWT86sOi1fZbx74CTb40GyPFt2fkw4RG4PeYNEbe4dXnre5hJ6El62LSZr84OFKk_6QyX2MIHmBgKdict9Tx0ElFfWvDYAp9zTzMOuVfzExq-3bBNRFx65v4EaAdqP85lT-VErEw-5tSXIvyaQaWuGgz8eTUMHBemJiokQTOswi9ENbObVVhikK1WuIhVP9-wSHjeXvKzRGyOmDYZaVYT0vsAyNXPbkgxq-oNl8wsDZQss3NEQllQQPSt6dtEqRxZdjVOlNyAnLSuriQATzvTKboKhvagsWUoJzDOs4_okTwoYgn_H5O1lFSD9rcvjBwOGHkoBishBrR1MDOghZrKHOLTlKlPoZED91Vi4patHC1KgMshNXgCcMrwQtREWjwtggr4DDBZIgV1HCae3HKDBD1iWL6sMzCi21SlKh6v4OXnVE3QBeDaN6KQB-m1n9aivjErSK0KqYV6Ig-FmpUPyUeJwE4mPuT78zpEAvUq6pJlOVYM37KRbEFphEUvDel8FjHAATyfGOV5gp803-EOa7eyOnvJHEkJhMdj-EdN_5Hyd2jSRlnd5Z0Wu6f7FPiR-DXzbbolntAjUG0Th_QrIxSJdcbcM_b5WdloJlVx4NL_l1uXmdlnIrEKb_DrgvXU4EzcFDTl5Bf-hiCAWmT022sMXatQbTDGU3r8fLnfmExIc49LNsv72A8sHGZa2dcC9e8NEIqhOfDMHsdBy1]--></g></svg>