<?xml version="1.0" encoding="us-ascii" standalone="no"?><svg xmlns="http://www.w3.org/2000/svg" xmlns:xlink="http://www.w3.org/1999/xlink" contentStyleType="text/css" height="1338px" preserveAspectRatio="none" style="width:3393px;height:1338px;background:#FFFFFF;" version="1.1" viewBox="0 0 3393 1338" width="3393px" zoomAndPan="magnify"><defs/><g><!--cluster engine--><g id="cluster_engine"><path d="M2771.5,297.48 L2821.5,297.48 A3.75,3.75 0 0 1 2824,299.98 L2831,322.1011 L3383.5,322.1011 A2.5,2.5 0 0 1 3386,324.6011 L3386,490.98 A2.5,2.5 0 0 1 3383.5,493.48 L2771.5,493.48 A2.5,2.5 0 0 1 2769,490.98 L2769,299.98 A2.5,2.5 0 0 1 2771.5,297.48 " fill="none" style="stroke:#000000;stroke-width:1.5;"/><line style="stroke:#000000;stroke-width:1.5;" x1="2769" x2="2831" y1="322.1011" y2="322.1011"/><text fill="#000000" font-family="sans-serif" font-size="14" font-weight="bold" lengthAdjust="spacing" textLength="49" x="2773" y="314.5874">engine</text></g><!--cluster cli--><g id="cluster_cli"><path d="M2778.5,48.98 L2795.5,48.98 A3.75,3.75 0 0 1 2798,51.48 L2805,73.6011 L3313.5,73.6011 A2.5,2.5 0 0 1 3316,76.1011 L3316,224.48 A2.5,2.5 0 0 1 3313.5,226.98 L2778.5,226.98 A2.5,2.5 0 0 1 2776,224.48 L2776,51.48 A2.5,2.5 0 0 1 2778.5,48.98 " fill="none" style="stroke:#000000;stroke-width:1.5;"/><line style="stroke:#000000;stroke-width:1.5;" x1="2776" x2="2805" y1="73.6011" y2="73.6011"/><text fill="#000000" font-family="sans-serif" font-size="14" font-weight="bold" lengthAdjust="spacing" textLength="16" x="2780" y="66.0874">cli</text></g><!--cluster gui--><g id="cluster_gui"><path d="M230.5,259.98 L253.5,259.98 A3.75,3.75 0 0 1 256,262.48 L263,284.6011 L2742.5,284.6011 A2.5,2.5 0 0 1 2745,287.1011 L2745,1329.48 A2.5,2.5 0 0 1 2742.5,1331.98 L230.5,1331.98 A2.5,2.5 0 0 1 228,1329.48 L228,262.48 A2.5,2.5 0 0 1 230.5,259.98 " fill="none" style="stroke:#000000;stroke-width:1.5;"/><line style="stroke:#000000;stroke-width:1.5;" x1="228" x2="263" y1="284.6011" y2="284.6011"/><text fill="#000000" font-family="sans-serif" font-size="14" font-weight="bold" lengthAdjust="spacing" textLength="22" x="232" y="277.0874">gui</text></g><!--cluster views--><g id="cluster_views"><path d="M254.5,567.98 L296.5,567.98 A3.75,3.75 0 0 1 299,570.48 L306,592.6011 L2718.5,592.6011 A2.5,2.5 0 0 1 2721,595.1011 L2721,855.48 A2.5,2.5 0 0 1 2718.5,857.98 L254.5,857.98 A2.5,2.5 0 0 1 252,855.48 L252,570.48 A2.5,2.5 0 0 1 254.5,567.98 " fill="none" style="stroke:#000000;stroke-width:1.5;"/><line style="stroke:#000000;stroke-width:1.5;" x1="252" x2="306" y1="592.6011" y2="592.6011"/><text fill="#000000" font-family="sans-serif" font-size="14" font-weight="bold" lengthAdjust="spacing" textLength="41" x="256" y="585.0874">views</text></g><!--cluster engine--><g id="cluster_engine"><path d="M2461.5,908.98 L2511.5,908.98 A3.75,3.75 0 0 1 2514,911.48 L2521,933.6011 L2718.5,933.6011 A2.5,2.5 0 0 1 2721,936.1011 L2721,1305.48 A2.5,2.5 0 0 1 2718.5,1307.98 L2461.5,1307.98 A2.5,2.5 0 0 1 2459,1305.48 L2459,911.48 A2.5,2.5 0 0 1 2461.5,908.98 " fill="none" style="stroke:#000000;stroke-width:1.5;"/><line style="stroke:#000000;stroke-width:1.5;" x1="2459" x2="2521" y1="933.6011" y2="933.6011"/><text fill="#000000" font-family="sans-serif" font-size="14" font-weight="bold" lengthAdjust="spacing" textLength="49" x="2463" y="926.0874">engine</text></g><!--cluster javafx--><g id="cluster_javafx"><path d="M8.5,561.98 L51.5,561.98 A3.75,3.75 0 0 1 54,564.48 L61,586.6011 L201.5,586.6011 A2.5,2.5 0 0 1 204,589.1011 L204,819.48 A2.5,2.5 0 0 1 201.5,821.98 L8.5,821.98 A2.5,2.5 0 0 1 6,819.48 L6,564.48 A2.5,2.5 0 0 1 8.5,561.98 " fill="none" style="stroke:#000000;stroke-width:1.5;"/><line style="stroke:#000000;stroke-width:1.5;" x1="6" x2="61" y1="586.6011" y2="586.6011"/><text fill="#000000" font-family="sans-serif" font-size="14" font-weight="bold" lengthAdjust="spacing" textLength="42" x="10" y="579.0874">javafx</text></g><!--cluster scene--><g id="cluster_scene"><path d="M32.5,606.98 L76.5,606.98 A3.75,3.75 0 0 1 79,609.48 L86,631.6011 L177.5,631.6011 A2.5,2.5 0 0 1 180,634.1011 L180,795.48 A2.5,2.5 0 0 1 177.5,797.98 L32.5,797.98 A2.5,2.5 0 0 1 30,795.48 L30,609.48 A2.5,2.5 0 0 1 32.5,606.98 " fill="none" style="stroke:#000000;stroke-width:1.5;"/><line style="stroke:#000000;stroke-width:1.5;" x1="30" x2="86" y1="631.6011" y2="631.6011"/><text fill="#000000" font-family="sans-serif" font-size="14" font-weight="bold" lengthAdjust="spacing" textLength="43" x="34" y="624.0874">scene</text></g><!--cluster image--><g id="cluster_image"><path d="M56.5,651.98 L99.5,651.98 A3.75,3.75 0 0 1 102,654.48 L109,676.6011 L153.5,676.6011 A2.5,2.5 0 0 1 156,679.1011 L156,771.48 A2.5,2.5 0 0 1 153.5,773.98 L56.5,773.98 A2.5,2.5 0 0 1 54,771.48 L54,654.48 A2.5,2.5 0 0 1 56.5,651.98 " fill="none" style="stroke:#000000;stroke-width:1.5;"/><line style="stroke:#000000;stroke-width:1.5;" x1="54" x2="109" y1="676.6011" y2="676.6011"/><text fill="#000000" font-family="sans-serif" font-size="14" font-weight="bold" lengthAdjust="spacing" textLength="42" x="58" y="669.0874">image</text></g><!--class GameController--><g id="elem_GameController"><rect codeLine="3" fill="#F1F1F1" height="122.4844" id="GameController" rx="2.5" ry="2.5" style="stroke:#181818;stroke-width:0.5;" width="140" x="3230" y="355.48"/><ellipse cx="3248.6" cy="371.48" fill="#A9DCDF" rx="11" ry="11" style="stroke:#181818;stroke-width:1.0;"/><path d="M3250.7875,373.2456 L3246.6469,373.2456 L3246.225,374.2769 L3246.6469,374.2769 Q3247.2563,374.2769 3247.5219,374.5113 Q3247.7875,374.7456 3247.7875,375.1363 Q3247.7875,375.5113 3247.5219,375.7456 Q3247.2563,375.98 3246.6469,375.98 L3244.35,375.98 Q3243.7406,375.98 3243.4906,375.7456 Q3243.225,375.5113 3243.225,375.1206 Q3243.225,374.7456 3243.5063,374.5113 Q3243.7719,374.2613 3244.3969,374.2769 L3247.0688,367.6206 L3245.9594,367.6206 Q3245.35,367.6206 3245.0844,367.3863 Q3244.8188,367.1519 3244.8188,366.7613 Q3244.8188,366.3863 3245.0844,366.1519 Q3245.35,365.9175 3245.9594,365.9175 L3249.6313,365.9175 L3253.0219,374.2769 Q3253.6156,374.2769 3253.8031,374.4175 Q3254.1938,374.6831 3254.1938,375.1363 Q3254.1938,375.5113 3253.9281,375.7456 Q3253.6781,375.98 3253.0688,375.98 L3250.7719,375.98 Q3250.1625,375.98 3249.8969,375.7456 Q3249.6313,375.5113 3249.6313,375.1206 Q3249.6313,374.7456 3249.8969,374.5113 Q3250.1625,374.2769 3250.7719,374.2769 L3251.1938,374.2769 L3250.7875,373.2456 Z M3250.0688,371.5425 L3248.7094,368.1675 L3247.3344,371.5425 L3250.0688,371.5425 Z " fill="#000000"/><text fill="#000000" font-family="sans-serif" font-size="14" font-style="italic" lengthAdjust="spacing" textLength="100" x="3263.4" y="377.2769">GameController</text><line style="stroke:#181818;stroke-width:0.5;" x1="3231" x2="3369" y1="387.48" y2="387.48"/><polygon fill="none" points="3241,397.2905,3245,401.2905,3241,405.2905,3237,401.2905" style="stroke:#B38D22;stroke-width:1.0;"/><text fill="#000000" font-family="sans-serif" font-size="14" lengthAdjust="spacing" textLength="90" x="3250" y="406.5874">Monde monde</text><line style="stroke:#181818;stroke-width:1.0;" x1="3231" x2="3369" y1="414.1011" y2="414.1011"/><ellipse cx="3241" cy="428.9116" fill="#84BE84" rx="3" ry="3" style="stroke:#038048;stroke-width:1.0;"/><text fill="#000000" font-family="sans-serif" font-size="14" font-style="italic" lengthAdjust="spacing" textLength="114" x="3250" y="433.2085">update(long): void</text><ellipse cx="3241" cy="447.5327" fill="#84BE84" rx="3" ry="3" style="stroke:#038048;stroke-width:1.0;"/><text fill="#000000" font-family="sans-serif" font-size="14" lengthAdjust="spacing" textLength="93" x="3250" y="451.8296">getHeight(): int</text><ellipse cx="3241" cy="466.1538" fill="#84BE84" rx="3" ry="3" style="stroke:#038048;stroke-width:1.0;"/><text fill="#000000" font-family="sans-serif" font-size="14" lengthAdjust="spacing" textLength="89" x="3250" y="470.4507">getWidth(): int</text></g><!--class Engine--><g id="elem_Engine"><rect codeLine="11" fill="#F1F1F1" height="122.4844" id="Engine" rx="2.5" ry="2.5" style="stroke:#181818;stroke-width:0.5;" width="158" x="2970" y="355.48"/><ellipse cx="3022.75" cy="371.48" fill="#A9DCDF" rx="11" ry="11" style="stroke:#181818;stroke-width:1.0;"/><path d="M3024.9375,373.2456 L3020.7969,373.2456 L3020.375,374.2769 L3020.7969,374.2769 Q3021.4063,374.2769 3021.6719,374.5113 Q3021.9375,374.7456 3021.9375,375.1363 Q3021.9375,375.5113 3021.6719,375.7456 Q3021.4063,375.98 3020.7969,375.98 L3018.5,375.98 Q3017.8906,375.98 3017.6406,375.7456 Q3017.375,375.5113 3017.375,375.1206 Q3017.375,374.7456 3017.6563,374.5113 Q3017.9219,374.2613 3018.5469,374.2769 L3021.2188,367.6206 L3020.1094,367.6206 Q3019.5,367.6206 3019.2344,367.3863 Q3018.9688,367.1519 3018.9688,366.7613 Q3018.9688,366.3863 3019.2344,366.1519 Q3019.5,365.9175 3020.1094,365.9175 L3023.7813,365.9175 L3027.1719,374.2769 Q3027.7656,374.2769 3027.9531,374.4175 Q3028.3438,374.6831 3028.3438,375.1363 Q3028.3438,375.5113 3028.0781,375.7456 Q3027.8281,375.98 3027.2188,375.98 L3024.9219,375.98 Q3024.3125,375.98 3024.0469,375.7456 Q3023.7813,375.5113 3023.7813,375.1206 Q3023.7813,374.7456 3024.0469,374.5113 Q3024.3125,374.2769 3024.9219,374.2769 L3025.3438,374.2769 L3024.9375,373.2456 Z M3024.2188,371.5425 L3022.8594,368.1675 L3021.4844,371.5425 L3024.2188,371.5425 Z " fill="#000000"/><text fill="#000000" font-family="sans-serif" font-size="14" font-style="italic" lengthAdjust="spacing" textLength="44" x="3043.25" y="377.2769">Engine</text><line style="stroke:#181818;stroke-width:0.5;" x1="2971" x2="3127" y1="387.48" y2="387.48"/><line style="stroke:#181818;stroke-width:0.5;" x1="2971" x2="3127" y1="395.48" y2="395.48"/><ellipse cx="2981" cy="410.2905" fill="#84BE84" rx="3" ry="3" style="stroke:#038048;stroke-width:1.0;"/><text fill="#000000" font-family="sans-serif" font-size="14" lengthAdjust="spacing" textLength="132" x="2990" y="414.5874">Engine(ui, controller)</text><ellipse cx="2981" cy="428.9116" fill="#84BE84" rx="3" ry="3" style="stroke:#038048;stroke-width:1.0;"/><text fill="#000000" font-family="sans-serif" font-size="14" font-style="italic" lengthAdjust="spacing" textLength="71" x="2990" y="433.2085">start(): void</text><ellipse cx="2981" cy="447.5327" fill="#84BE84" rx="3" ry="3" style="stroke:#038048;stroke-width:1.0;"/><text fill="#000000" font-family="sans-serif" font-size="14" font-style="italic" lengthAdjust="spacing" textLength="70" x="2990" y="451.8296">stop(): void</text><ellipse cx="2981" cy="466.1538" fill="#84BE84" rx="3" ry="3" style="stroke:#038048;stroke-width:1.0;"/><text fill="#000000" font-family="sans-serif" font-size="14" font-style="italic" lengthAdjust="spacing" textLength="92" x="2990" y="470.4507">tick(long): void</text></g><!--class GameInterface--><g id="elem_GameInterface"><rect codeLine="18" fill="#F1F1F1" height="66.6211" id="GameInterface" rx="2.5" ry="2.5" style="stroke:#181818;stroke-width:0.5;" width="126" x="2785" y="382.98"/><ellipse cx="2800" cy="398.98" fill="#B4A7E5" rx="11" ry="11" style="stroke:#181818;stroke-width:1.0;"/><path d="M2800.9531,395.6206 L2800.9531,402.2769 L2802.6719,402.2769 Q2803.2813,402.2769 2803.5469,402.5113 Q2803.8125,402.7456 2803.8125,403.1363 Q2803.8125,403.5113 2803.5469,403.7456 Q2803.2813,403.98 2802.6719,403.98 L2797.5313,403.98 Q2796.9219,403.98 2796.6563,403.7456 Q2796.3906,403.5113 2796.3906,403.1206 Q2796.3906,402.7456 2796.6563,402.5113 Q2796.9219,402.2769 2797.5313,402.2769 L2799.25,402.2769 L2799.25,395.6206 L2797.5313,395.6206 Q2796.9219,395.6206 2796.6563,395.3863 Q2796.3906,395.1519 2796.3906,394.7613 Q2796.3906,394.3863 2796.6563,394.1519 Q2796.9219,393.9175 2797.5313,393.9175 L2802.6719,393.9175 Q2803.2813,393.9175 2803.5469,394.1519 Q2803.8125,394.3863 2803.8125,394.7613 Q2803.8125,395.1519 2803.5469,395.3863 Q2803.2813,395.6206 2802.6719,395.6206 L2800.9531,395.6206 Z " fill="#000000"/><text fill="#000000" font-family="sans-serif" font-size="14" font-style="italic" lengthAdjust="spacing" textLength="94" x="2814" y="404.7769">GameInterface</text><line style="stroke:#181818;stroke-width:0.5;" x1="2786" x2="2910" y1="414.98" y2="414.98"/><line style="stroke:#181818;stroke-width:0.5;" x1="2786" x2="2910" y1="422.98" y2="422.98"/><ellipse cx="2796" cy="437.7905" fill="#84BE84" rx="3" ry="3" style="stroke:#038048;stroke-width:1.0;"/><text fill="#000000" font-family="sans-serif" font-size="14" lengthAdjust="spacing" textLength="86" x="2805" y="442.0874">render(): void</text></g><!--class CLIController--><g id="elem_CLIController"><rect codeLine="24" fill="#F1F1F1" height="103.8633" id="CLIController" rx="2.5" ry="2.5" style="stroke:#181818;stroke-width:0.5;" width="141" x="3005.5" y="106.98"/><ellipse cx="3032.2" cy="122.98" fill="#ADD1B2" rx="11" ry="11" style="stroke:#181818;stroke-width:1.0;"/><path d="M3034.9656,118.855 Q3035.1219,118.6363 3035.3094,118.5269 Q3035.4969,118.4175 3035.7156,118.4175 Q3036.0906,118.4175 3036.325,118.6831 Q3036.5594,118.9331 3036.5594,119.5425 L3036.5594,120.9956 Q3036.5594,121.605 3036.325,121.8706 Q3036.0906,122.1363 3035.7156,122.1363 Q3035.3719,122.1363 3035.1688,121.9331 Q3034.9656,121.7456 3034.8563,121.23 Q3034.8094,120.8706 3034.6219,120.6831 Q3034.2938,120.3081 3033.6844,120.0894 Q3033.075,119.8706 3032.45,119.8706 Q3031.6844,119.8706 3031.0438,120.1988 Q3030.4188,120.5269 3029.9188,121.2769 Q3029.4344,122.0269 3029.4344,123.0581 L3029.4344,124.1519 Q3029.4344,125.3863 3030.325,126.2144 Q3031.2156,127.0269 3032.8094,127.0269 Q3033.7469,127.0269 3034.4031,126.7769 Q3034.7938,126.6206 3035.2156,126.1831 Q3035.4813,125.9175 3035.6219,125.8394 Q3035.7781,125.7613 3035.9813,125.7613 Q3036.3094,125.7613 3036.5594,126.0269 Q3036.825,126.2769 3036.825,126.6206 Q3036.825,126.9644 3036.4813,127.3706 Q3035.9813,127.9488 3035.1844,128.2769 Q3034.1063,128.73 3032.8094,128.73 Q3031.2938,128.73 3030.0906,128.105 Q3029.1063,127.605 3028.4188,126.5425 Q3027.7313,125.4644 3027.7313,124.1831 L3027.7313,123.0269 Q3027.7313,121.6988 3028.3406,120.5581 Q3028.9656,119.4019 3030.0594,118.7925 Q3031.1531,118.1675 3032.3875,118.1675 Q3033.1219,118.1675 3033.7625,118.3394 Q3034.4188,118.4956 3034.9656,118.855 Z " fill="#000000"/><text fill="#000000" font-family="sans-serif" font-size="14" lengthAdjust="spacing" textLength="83" x="3048.8" y="128.7769">CLIController</text><line style="stroke:#181818;stroke-width:0.5;" x1="3006.5" x2="3145.5" y1="138.98" y2="138.98"/><line style="stroke:#181818;stroke-width:0.5;" x1="3006.5" x2="3145.5" y1="146.98" y2="146.98"/><ellipse cx="3016.5" cy="161.7905" fill="#84BE84" rx="3" ry="3" style="stroke:#038048;stroke-width:1.0;"/><text fill="#000000" font-family="sans-serif" font-size="14" lengthAdjust="spacing" textLength="72" x="3025.5" y="166.0874">start(): void</text><ellipse cx="3016.5" cy="180.4116" fill="#84BE84" rx="3" ry="3" style="stroke:#038048;stroke-width:1.0;"/><text fill="#000000" font-family="sans-serif" font-size="14" lengthAdjust="spacing" textLength="71" x="3025.5" y="184.7085">stop(): void</text><ellipse cx="3016.5" cy="199.0327" fill="#84BE84" rx="3" ry="3" style="stroke:#038048;stroke-width:1.0;"/><text fill="#000000" font-family="sans-serif" font-size="14" lengthAdjust="spacing" textLength="115" x="3025.5" y="203.3296">update(long): void</text></g><!--class CLIEngine--><g id="elem_CLIEngine"><rect codeLine="30" fill="#F1F1F1" height="103.8633" id="CLIEngine" rx="2.5" ry="2.5" style="stroke:#181818;stroke-width:0.5;" width="118" x="3182" y="106.98"/><ellipse cx="3206.45" cy="122.98" fill="#ADD1B2" rx="11" ry="11" style="stroke:#181818;stroke-width:1.0;"/><path d="M3209.2156,118.855 Q3209.3719,118.6363 3209.5594,118.5269 Q3209.7469,118.4175 3209.9656,118.4175 Q3210.3406,118.4175 3210.575,118.6831 Q3210.8094,118.9331 3210.8094,119.5425 L3210.8094,120.9956 Q3210.8094,121.605 3210.575,121.8706 Q3210.3406,122.1363 3209.9656,122.1363 Q3209.6219,122.1363 3209.4188,121.9331 Q3209.2156,121.7456 3209.1063,121.23 Q3209.0594,120.8706 3208.8719,120.6831 Q3208.5438,120.3081 3207.9344,120.0894 Q3207.325,119.8706 3206.7,119.8706 Q3205.9344,119.8706 3205.2938,120.1988 Q3204.6688,120.5269 3204.1688,121.2769 Q3203.6844,122.0269 3203.6844,123.0581 L3203.6844,124.1519 Q3203.6844,125.3863 3204.575,126.2144 Q3205.4656,127.0269 3207.0594,127.0269 Q3207.9969,127.0269 3208.6531,126.7769 Q3209.0438,126.6206 3209.4656,126.1831 Q3209.7313,125.9175 3209.8719,125.8394 Q3210.0281,125.7613 3210.2313,125.7613 Q3210.5594,125.7613 3210.8094,126.0269 Q3211.075,126.2769 3211.075,126.6206 Q3211.075,126.9644 3210.7313,127.3706 Q3210.2313,127.9488 3209.4344,128.2769 Q3208.3563,128.73 3207.0594,128.73 Q3205.5438,128.73 3204.3406,128.105 Q3203.3563,127.605 3202.6688,126.5425 Q3201.9813,125.4644 3201.9813,124.1831 L3201.9813,123.0269 Q3201.9813,121.6988 3202.5906,120.5581 Q3203.2156,119.4019 3204.3094,118.7925 Q3205.4031,118.1675 3206.6375,118.1675 Q3207.3719,118.1675 3208.0125,118.3394 Q3208.6688,118.4956 3209.2156,118.855 Z " fill="#000000"/><text fill="#000000" font-family="sans-serif" font-size="14" lengthAdjust="spacing" textLength="65" x="3222.55" y="128.7769">CLIEngine</text><line style="stroke:#181818;stroke-width:0.5;" x1="3183" x2="3299" y1="138.98" y2="138.98"/><line style="stroke:#181818;stroke-width:0.5;" x1="3183" x2="3299" y1="146.98" y2="146.98"/><ellipse cx="3193" cy="161.7905" fill="#84BE84" rx="3" ry="3" style="stroke:#038048;stroke-width:1.0;"/><text fill="#000000" font-family="sans-serif" font-size="14" lengthAdjust="spacing" textLength="72" x="3202" y="166.0874">start(): void</text><ellipse cx="3193" cy="180.4116" fill="#84BE84" rx="3" ry="3" style="stroke:#038048;stroke-width:1.0;"/><text fill="#000000" font-family="sans-serif" font-size="14" lengthAdjust="spacing" textLength="71" x="3202" y="184.7085">stop(): void</text><ellipse cx="3193" cy="199.0327" fill="#84BE84" rx="3" ry="3" style="stroke:#038048;stroke-width:1.0;"/><text fill="#000000" font-family="sans-serif" font-size="14" lengthAdjust="spacing" textLength="92" x="3202" y="203.3296">tick(long): void</text></g><!--class CLI--><g id="elem_CLI"><rect codeLine="36" fill="#F1F1F1" height="66.6211" id="CLI" rx="2.5" ry="2.5" style="stroke:#181818;stroke-width:0.5;" width="112" x="2792" y="125.48"/><ellipse cx="2833.55" cy="141.48" fill="#ADD1B2" rx="11" ry="11" style="stroke:#181818;stroke-width:1.0;"/><path d="M2836.3156,137.355 Q2836.4719,137.1363 2836.6594,137.0269 Q2836.8469,136.9175 2837.0656,136.9175 Q2837.4406,136.9175 2837.675,137.1831 Q2837.9094,137.4331 2837.9094,138.0425 L2837.9094,139.4956 Q2837.9094,140.105 2837.675,140.3706 Q2837.4406,140.6363 2837.0656,140.6363 Q2836.7219,140.6363 2836.5188,140.4331 Q2836.3156,140.2456 2836.2063,139.73 Q2836.1594,139.3706 2835.9719,139.1831 Q2835.6438,138.8081 2835.0344,138.5894 Q2834.425,138.3706 2833.8,138.3706 Q2833.0344,138.3706 2832.3938,138.6988 Q2831.7688,139.0269 2831.2688,139.7769 Q2830.7844,140.5269 2830.7844,141.5581 L2830.7844,142.6519 Q2830.7844,143.8863 2831.675,144.7144 Q2832.5656,145.5269 2834.1594,145.5269 Q2835.0969,145.5269 2835.7531,145.2769 Q2836.1438,145.1206 2836.5656,144.6831 Q2836.8313,144.4175 2836.9719,144.3394 Q2837.1281,144.2613 2837.3313,144.2613 Q2837.6594,144.2613 2837.9094,144.5269 Q2838.175,144.7769 2838.175,145.1206 Q2838.175,145.4644 2837.8313,145.8706 Q2837.3313,146.4488 2836.5344,146.7769 Q2835.4563,147.23 2834.1594,147.23 Q2832.6438,147.23 2831.4406,146.605 Q2830.4563,146.105 2829.7688,145.0425 Q2829.0813,143.9644 2829.0813,142.6831 L2829.0813,141.5269 Q2829.0813,140.1988 2829.6906,139.0581 Q2830.3156,137.9019 2831.4094,137.2925 Q2832.5031,136.6675 2833.7375,136.6675 Q2834.4719,136.6675 2835.1125,136.8394 Q2835.7688,136.9956 2836.3156,137.355 Z " fill="#000000"/><text fill="#000000" font-family="sans-serif" font-size="14" lengthAdjust="spacing" textLength="21" x="2853.45" y="147.2769">CLI</text><line style="stroke:#181818;stroke-width:0.5;" x1="2793" x2="2903" y1="157.48" y2="157.48"/><line style="stroke:#181818;stroke-width:0.5;" x1="2793" x2="2903" y1="165.48" y2="165.48"/><ellipse cx="2803" cy="180.2905" fill="#84BE84" rx="3" ry="3" style="stroke:#038048;stroke-width:1.0;"/><text fill="#000000" font-family="sans-serif" font-size="14" lengthAdjust="spacing" textLength="86" x="2812" y="184.5874">render(): void</text></g><!--class View--><g id="elem_View"><rect codeLine="42" fill="#F1F1F1" height="178.3477" id="View" rx="2.5" ry="2.5" style="stroke:#181818;stroke-width:0.5;" width="230" x="1899" y="327.48"/><ellipse cx="1995.25" cy="343.48" fill="#A9DCDF" rx="11" ry="11" style="stroke:#181818;stroke-width:1.0;"/><path d="M1997.4375,345.2456 L1993.2969,345.2456 L1992.875,346.2769 L1993.2969,346.2769 Q1993.9063,346.2769 1994.1719,346.5113 Q1994.4375,346.7456 1994.4375,347.1363 Q1994.4375,347.5113 1994.1719,347.7456 Q1993.9063,347.98 1993.2969,347.98 L1991,347.98 Q1990.3906,347.98 1990.1406,347.7456 Q1989.875,347.5113 1989.875,347.1206 Q1989.875,346.7456 1990.1563,346.5113 Q1990.4219,346.2613 1991.0469,346.2769 L1993.7188,339.6206 L1992.6094,339.6206 Q1992,339.6206 1991.7344,339.3863 Q1991.4688,339.1519 1991.4688,338.7613 Q1991.4688,338.3863 1991.7344,338.1519 Q1992,337.9175 1992.6094,337.9175 L1996.2813,337.9175 L1999.6719,346.2769 Q2000.2656,346.2769 2000.4531,346.4175 Q2000.8438,346.6831 2000.8438,347.1363 Q2000.8438,347.5113 2000.5781,347.7456 Q2000.3281,347.98 1999.7188,347.98 L1997.4219,347.98 Q1996.8125,347.98 1996.5469,347.7456 Q1996.2813,347.5113 1996.2813,347.1206 Q1996.2813,346.7456 1996.5469,346.5113 Q1996.8125,346.2769 1997.4219,346.2769 L1997.8438,346.2769 L1997.4375,345.2456 Z M1996.7188,343.5425 L1995.3594,340.1675 L1993.9844,343.5425 L1996.7188,343.5425 Z " fill="#000000"/><text fill="#000000" font-family="sans-serif" font-size="14" font-style="italic" lengthAdjust="spacing" textLength="29" x="2015.75" y="349.2769">View</text><line style="stroke:#181818;stroke-width:0.5;" x1="1900" x2="2128" y1="359.48" y2="359.48"/><polygon fill="none" points="1910,369.2905,1914,373.2905,1910,377.2905,1906,373.2905" style="stroke:#B38D22;stroke-width:1.0;"/><text fill="#000000" font-family="sans-serif" font-size="14" lengthAdjust="spacing" textLength="71" x="1919" y="378.5874">Parent root</text><line style="stroke:#181818;stroke-width:1.0;" x1="1900" x2="2128" y1="386.1011" y2="386.1011"/><ellipse cx="1910" cy="400.9116" fill="#84BE84" rx="3" ry="3" style="stroke:#038048;stroke-width:1.0;"/><text fill="#000000" font-family="sans-serif" font-size="14" lengthAdjust="spacing" textLength="110" x="1919" y="405.2085">getRoot(): Parent</text><ellipse cx="1910" cy="419.5327" fill="#84BE84" rx="3" ry="3" style="stroke:#038048;stroke-width:1.0;"/><text fill="#000000" font-family="sans-serif" font-size="14" lengthAdjust="spacing" textLength="160" x="1919" y="423.8296">enableRootEvents(): void</text><ellipse cx="1910" cy="438.1538" fill="#84BE84" rx="3" ry="3" style="stroke:#038048;stroke-width:1.0;"/><text fill="#000000" font-family="sans-serif" font-size="14" lengthAdjust="spacing" textLength="107" x="1919" y="442.4507">onViewInit(): void</text><ellipse cx="1910" cy="456.7749" fill="#84BE84" rx="3" ry="3" style="stroke:#038048;stroke-width:1.0;"/><text fill="#000000" font-family="sans-serif" font-size="14" lengthAdjust="spacing" textLength="204" x="1919" y="461.0718">onViewDisplayed(Object...): void</text><ellipse cx="1910" cy="475.396" fill="#84BE84" rx="3" ry="3" style="stroke:#038048;stroke-width:1.0;"/><text fill="#000000" font-family="sans-serif" font-size="14" lengthAdjust="spacing" textLength="196" x="1919" y="479.6929">onKeyPressed(KeyEvent): void</text><ellipse cx="1910" cy="494.0171" fill="#84BE84" rx="3" ry="3" style="stroke:#038048;stroke-width:1.0;"/><text fill="#000000" font-family="sans-serif" font-size="14" lengthAdjust="spacing" textLength="204" x="1919" y="498.314">onKeyReleased(KeyEvent): void</text></g><!--class ViewController--><g id="elem_ViewController"><rect codeLine="53" fill="#F1F1F1" height="66.6211" id="ViewController" rx="2.5" ry="2.5" style="stroke:#181818;stroke-width:0.5;" width="167" x="1043.5" y="382.98"/><ellipse cx="1078.3" cy="398.98" fill="#A9DCDF" rx="11" ry="11" style="stroke:#181818;stroke-width:1.0;"/><path d="M1080.4875,400.7456 L1076.3469,400.7456 L1075.925,401.7769 L1076.3469,401.7769 Q1076.9563,401.7769 1077.2219,402.0113 Q1077.4875,402.2456 1077.4875,402.6363 Q1077.4875,403.0113 1077.2219,403.2456 Q1076.9563,403.48 1076.3469,403.48 L1074.05,403.48 Q1073.4406,403.48 1073.1906,403.2456 Q1072.925,403.0113 1072.925,402.6206 Q1072.925,402.2456 1073.2063,402.0113 Q1073.4719,401.7613 1074.0969,401.7769 L1076.7688,395.1206 L1075.6594,395.1206 Q1075.05,395.1206 1074.7844,394.8863 Q1074.5188,394.6519 1074.5188,394.2613 Q1074.5188,393.8863 1074.7844,393.6519 Q1075.05,393.4175 1075.6594,393.4175 L1079.3313,393.4175 L1082.7219,401.7769 Q1083.3156,401.7769 1083.5031,401.9175 Q1083.8938,402.1831 1083.8938,402.6363 Q1083.8938,403.0113 1083.6281,403.2456 Q1083.3781,403.48 1082.7688,403.48 L1080.4719,403.48 Q1079.8625,403.48 1079.5969,403.2456 Q1079.3313,403.0113 1079.3313,402.6206 Q1079.3313,402.2456 1079.5969,402.0113 Q1079.8625,401.7769 1080.4719,401.7769 L1080.8938,401.7769 L1080.4875,400.7456 Z M1079.7688,399.0425 L1078.4094,395.6675 L1077.0344,399.0425 L1079.7688,399.0425 Z " fill="#000000"/><text fill="#000000" font-family="sans-serif" font-size="14" font-style="italic" lengthAdjust="spacing" textLength="91" x="1096.7" y="404.7769">ViewController</text><line style="stroke:#181818;stroke-width:0.5;" x1="1044.5" x2="1209.5" y1="414.98" y2="414.98"/><line style="stroke:#181818;stroke-width:0.5;" x1="1044.5" x2="1209.5" y1="422.98" y2="422.98"/><ellipse cx="1054.5" cy="437.7905" fill="#84BE84" rx="3" ry="3" style="stroke:#038048;stroke-width:1.0;"/><text fill="#000000" font-family="sans-serif" font-size="14" font-style="italic" lengthAdjust="spacing" textLength="141" x="1063.5" y="442.0874">applyLanguage(): void</text></g><!--class VIEWS--><g id="elem_VIEWS"><rect codeLine="57" fill="#F1F1F1" height="122.4844" id="VIEWS" rx="2.5" ry="2.5" style="stroke:#181818;stroke-width:0.5;" width="80" x="848" y="355.48"/><ellipse cx="865.25" cy="371.48" fill="#EB937F" rx="11" ry="11" style="stroke:#181818;stroke-width:1.0;"/><path d="M864.1094,372.2769 L864.1094,374.7769 L868.4375,374.7769 L868.4375,373.855 Q868.4375,373.2456 868.6719,372.98 Q868.9219,372.7144 869.2969,372.7144 Q869.6719,372.7144 869.9063,372.98 Q870.1406,373.2456 870.1406,373.855 L870.1406,376.48 L862.1406,376.48 Q861.5156,376.48 861.25,376.2456 Q861,376.0113 861,375.6206 Q861,375.2456 861.2656,375.0113 Q861.5313,374.7769 862.1406,374.7769 L862.4063,374.7769 L862.4063,368.1206 L862.1406,368.1206 Q861.5156,368.1206 861.25,367.8863 Q861,367.6519 861,367.2613 Q861,366.8863 861.25,366.6519 Q861.5156,366.4175 862.1406,366.4175 L869.7656,366.4175 L869.7656,369.0113 Q869.7656,369.6206 869.5313,369.8863 Q869.3125,370.1363 868.9219,370.1363 Q868.5469,370.1363 868.3125,369.8863 Q868.0781,369.6206 868.0781,369.0113 L868.0781,368.1206 L864.1094,368.1206 L864.1094,370.5738 L865.5938,370.5738 Q865.5938,369.9175 865.7188,369.73 Q865.9844,369.3238 866.4531,369.3238 Q866.8281,369.3238 867.0625,369.5894 Q867.2969,369.8394 867.2969,370.4488 L867.2969,372.4175 Q867.2969,372.9644 867.1719,373.1519 Q866.9063,373.5425 866.4531,373.5425 Q865.9844,373.5425 865.7188,373.1363 Q865.5938,372.9488 865.5938,372.2769 L864.1094,372.2769 Z " fill="#000000"/><text fill="#000000" font-family="sans-serif" font-size="14" lengthAdjust="spacing" textLength="43" x="879.75" y="377.2769">VIEWS</text><line style="stroke:#181818;stroke-width:0.5;" x1="849" x2="927" y1="387.48" y2="387.48"/><text fill="#000000" font-family="sans-serif" font-size="14" lengthAdjust="spacing" textLength="40" x="854" y="406.5874">HOME</text><text fill="#000000" font-family="sans-serif" font-size="14" lengthAdjust="spacing" textLength="40" x="854" y="425.2085">GAME</text><text fill="#000000" font-family="sans-serif" font-size="14" lengthAdjust="spacing" textLength="68" x="854" y="443.8296">SETTINGS</text><text fill="#000000" font-family="sans-serif" font-size="14" lengthAdjust="spacing" textLength="45" x="854" y="462.4507">SAVES</text><line style="stroke:#181818;stroke-width:0.5;" x1="849" x2="927" y1="469.9644" y2="469.9644"/></g><!--class ViewManager--><g id="elem_ViewManager"><rect codeLine="64" fill="#F1F1F1" height="196.9688" id="ViewManager" rx="2.5" ry="2.5" style="stroke:#181818;stroke-width:0.5;" width="245" x="2208.5" y="317.98"/><ellipse cx="2284.25" cy="333.98" fill="#ADD1B2" rx="11" ry="11" style="stroke:#181818;stroke-width:1.0;"/><path d="M2287.0156,329.855 Q2287.1719,329.6363 2287.3594,329.5269 Q2287.5469,329.4175 2287.7656,329.4175 Q2288.1406,329.4175 2288.375,329.6831 Q2288.6094,329.9331 2288.6094,330.5425 L2288.6094,331.9956 Q2288.6094,332.605 2288.375,332.8706 Q2288.1406,333.1363 2287.7656,333.1363 Q2287.4219,333.1363 2287.2188,332.9331 Q2287.0156,332.7456 2286.9063,332.23 Q2286.8594,331.8706 2286.6719,331.6831 Q2286.3438,331.3081 2285.7344,331.0894 Q2285.125,330.8706 2284.5,330.8706 Q2283.7344,330.8706 2283.0938,331.1988 Q2282.4688,331.5269 2281.9688,332.2769 Q2281.4844,333.0269 2281.4844,334.0581 L2281.4844,335.1519 Q2281.4844,336.3863 2282.375,337.2144 Q2283.2656,338.0269 2284.8594,338.0269 Q2285.7969,338.0269 2286.4531,337.7769 Q2286.8438,337.6206 2287.2656,337.1831 Q2287.5313,336.9175 2287.6719,336.8394 Q2287.8281,336.7613 2288.0313,336.7613 Q2288.3594,336.7613 2288.6094,337.0269 Q2288.875,337.2769 2288.875,337.6206 Q2288.875,337.9644 2288.5313,338.3706 Q2288.0313,338.9488 2287.2344,339.2769 Q2286.1563,339.73 2284.8594,339.73 Q2283.3438,339.73 2282.1406,339.105 Q2281.1563,338.605 2280.4688,337.5425 Q2279.7813,336.4644 2279.7813,335.1831 L2279.7813,334.0269 Q2279.7813,332.6988 2280.3906,331.5581 Q2281.0156,330.4019 2282.1094,329.7925 Q2283.2031,329.1675 2284.4375,329.1675 Q2285.1719,329.1675 2285.8125,329.3394 Q2286.4688,329.4956 2287.0156,329.855 Z " fill="#000000"/><text fill="#000000" font-family="sans-serif" font-size="14" lengthAdjust="spacing" textLength="85" x="2304.75" y="339.7769">ViewManager</text><line style="stroke:#181818;stroke-width:0.5;" x1="2209.5" x2="2452.5" y1="349.98" y2="349.98"/><rect fill="none" height="6" style="stroke:#C82930;stroke-width:1.0;" width="6" x="2216.5" y="361.7905"/><text fill="#000000" font-family="sans-serif" font-size="14" lengthAdjust="spacing" text-decoration="underline" textLength="146" x="2228.5" y="369.0874">instance: ViewManager</text><rect fill="none" height="6" style="stroke:#C82930;stroke-width:1.0;" width="6" x="2216.5" y="380.4116"/><text fill="#000000" font-family="sans-serif" font-size="14" lengthAdjust="spacing" textLength="80" x="2228.5" y="387.7085">stage: Stage</text><line style="stroke:#181818;stroke-width:1.0;" x1="2209.5" x2="2452.5" y1="395.2222" y2="395.2222"/><rect fill="#F24D5C" height="6" style="stroke:#C82930;stroke-width:1.0;" width="6" x="2216.5" y="407.0327"/><text fill="#000000" font-family="sans-serif" font-size="14" lengthAdjust="spacing" textLength="95" x="2228.5" y="414.3296">ViewManager()</text><ellipse cx="2219.5" cy="428.6538" fill="#84BE84" rx="3" ry="3" style="stroke:#038048;stroke-width:1.0;"/><text fill="#000000" font-family="sans-serif" font-size="14" lengthAdjust="spacing" text-decoration="underline" textLength="176" x="2228.5" y="432.9507">getInstance(): ViewManager</text><ellipse cx="2219.5" cy="447.2749" fill="#84BE84" rx="3" ry="3" style="stroke:#038048;stroke-width:1.0;"/><text fill="#000000" font-family="sans-serif" font-size="14" lengthAdjust="spacing" textLength="137" x="2228.5" y="451.5718">setStage(Stage): void</text><ellipse cx="2219.5" cy="465.896" fill="#84BE84" rx="3" ry="3" style="stroke:#038048;stroke-width:1.0;"/><text fill="#000000" font-family="sans-serif" font-size="14" lengthAdjust="spacing" textLength="201" x="2228.5" y="470.1929">registerView(VIEWS, View): void</text><ellipse cx="2219.5" cy="484.5171" fill="#84BE84" rx="3" ry="3" style="stroke:#038048;stroke-width:1.0;"/><text fill="#000000" font-family="sans-serif" font-size="14" lengthAdjust="spacing" textLength="219" x="2228.5" y="488.814">navigateTo(VIEWS, Object...): void</text><ellipse cx="2219.5" cy="503.1382" fill="#84BE84" rx="3" ry="3" style="stroke:#038048;stroke-width:1.0;"/><text fill="#000000" font-family="sans-serif" font-size="14" lengthAdjust="spacing" textLength="67" x="2228.5" y="507.4351">quit(): void</text></g><!--class Sprite--><g id="elem_Sprite"><rect codeLine="150" fill="#F1F1F1" height="85.2422" id="Sprite" rx="2.5" ry="2.5" style="stroke:#181818;stroke-width:0.5;" width="488" x="244" y="373.98"/><ellipse cx="465.25" cy="389.98" fill="#ADD1B2" rx="11" ry="11" style="stroke:#181818;stroke-width:1.0;"/><path d="M468.0156,385.855 Q468.1719,385.6363 468.3594,385.5269 Q468.5469,385.4175 468.7656,385.4175 Q469.1406,385.4175 469.375,385.6831 Q469.6094,385.9331 469.6094,386.5425 L469.6094,387.9956 Q469.6094,388.605 469.375,388.8706 Q469.1406,389.1363 468.7656,389.1363 Q468.4219,389.1363 468.2188,388.9331 Q468.0156,388.7456 467.9063,388.23 Q467.8594,387.8706 467.6719,387.6831 Q467.3438,387.3081 466.7344,387.0894 Q466.125,386.8706 465.5,386.8706 Q464.7344,386.8706 464.0938,387.1988 Q463.4688,387.5269 462.9688,388.2769 Q462.4844,389.0269 462.4844,390.0581 L462.4844,391.1519 Q462.4844,392.3863 463.375,393.2144 Q464.2656,394.0269 465.8594,394.0269 Q466.7969,394.0269 467.4531,393.7769 Q467.8438,393.6206 468.2656,393.1831 Q468.5313,392.9175 468.6719,392.8394 Q468.8281,392.7613 469.0313,392.7613 Q469.3594,392.7613 469.6094,393.0269 Q469.875,393.2769 469.875,393.6206 Q469.875,393.9644 469.5313,394.3706 Q469.0313,394.9488 468.2344,395.2769 Q467.1563,395.73 465.8594,395.73 Q464.3438,395.73 463.1406,395.105 Q462.1563,394.605 461.4688,393.5425 Q460.7813,392.4644 460.7813,391.1831 L460.7813,390.0269 Q460.7813,388.6988 461.3906,387.5581 Q462.0156,386.4019 463.1094,385.7925 Q464.2031,385.1675 465.4375,385.1675 Q466.1719,385.1675 466.8125,385.3394 Q467.4688,385.4956 468.0156,385.855 Z " fill="#000000"/><text fill="#000000" font-family="sans-serif" font-size="14" lengthAdjust="spacing" textLength="37" x="485.75" y="395.7769">Sprite</text><line style="stroke:#181818;stroke-width:0.5;" x1="245" x2="731" y1="405.98" y2="405.98"/><line style="stroke:#181818;stroke-width:0.5;" x1="245" x2="731" y1="413.98" y2="413.98"/><ellipse cx="255" cy="428.7905" fill="#84BE84" rx="3" ry="3" style="stroke:#038048;stroke-width:1.0;"/><text fill="#000000" font-family="sans-serif" font-size="14" lengthAdjust="spacing" textLength="462" x="264" y="433.0874">Sprite(Sprite(String path, double x, double y, double width, double height)</text><ellipse cx="255" cy="447.4116" fill="#84BE84" rx="3" ry="3" style="stroke:#038048;stroke-width:1.0;"/><text fill="#000000" font-family="sans-serif" font-size="14" lengthAdjust="spacing" textLength="109" x="264" y="451.7085">Image getSprite()</text></g><!--class HomeViewController--><g id="elem_HomeViewController"><rect codeLine="77" fill="#F1F1F1" height="122.4844" id="HomeViewController" rx="2.5" ry="2.5" style="stroke:#181818;stroke-width:0.5;" width="168" x="565" y="672.98"/><ellipse cx="584.05" cy="688.98" fill="#ADD1B2" rx="11" ry="11" style="stroke:#181818;stroke-width:1.0;"/><path d="M586.8156,684.855 Q586.9719,684.6363 587.1594,684.5269 Q587.3469,684.4175 587.5656,684.4175 Q587.9406,684.4175 588.175,684.6831 Q588.4094,684.9331 588.4094,685.5425 L588.4094,686.9956 Q588.4094,687.605 588.175,687.8706 Q587.9406,688.1363 587.5656,688.1363 Q587.2219,688.1363 587.0188,687.9331 Q586.8156,687.7456 586.7063,687.23 Q586.6594,686.8706 586.4719,686.6831 Q586.1438,686.3081 585.5344,686.0894 Q584.925,685.8706 584.3,685.8706 Q583.5344,685.8706 582.8938,686.1988 Q582.2688,686.5269 581.7688,687.2769 Q581.2844,688.0269 581.2844,689.0581 L581.2844,690.1519 Q581.2844,691.3863 582.175,692.2144 Q583.0656,693.0269 584.6594,693.0269 Q585.5969,693.0269 586.2531,692.7769 Q586.6438,692.6206 587.0656,692.1831 Q587.3313,691.9175 587.4719,691.8394 Q587.6281,691.7613 587.8313,691.7613 Q588.1594,691.7613 588.4094,692.0269 Q588.675,692.2769 588.675,692.6206 Q588.675,692.9644 588.3313,693.3706 Q587.8313,693.9488 587.0344,694.2769 Q585.9563,694.73 584.6594,694.73 Q583.1438,694.73 581.9406,694.105 Q580.9563,693.605 580.2688,692.5425 Q579.5813,691.4644 579.5813,690.1831 L579.5813,689.0269 Q579.5813,687.6988 580.1906,686.5581 Q580.8156,685.4019 581.9094,684.7925 Q583.0031,684.1675 584.2375,684.1675 Q584.9719,684.1675 585.6125,684.3394 Q586.2688,684.4956 586.8156,684.855 Z " fill="#000000"/><text fill="#000000" font-family="sans-serif" font-size="14" lengthAdjust="spacing" textLength="127" x="598.95" y="694.7769">HomeViewController</text><line style="stroke:#181818;stroke-width:0.5;" x1="566" x2="732" y1="704.98" y2="704.98"/><line style="stroke:#181818;stroke-width:0.5;" x1="566" x2="732" y1="712.98" y2="712.98"/><ellipse cx="576" cy="727.7905" fill="#84BE84" rx="3" ry="3" style="stroke:#038048;stroke-width:1.0;"/><text fill="#000000" font-family="sans-serif" font-size="14" lengthAdjust="spacing" textLength="142" x="585" y="732.0874">applyLanguage(): void</text><rect fill="#F24D5C" height="6" style="stroke:#C82930;stroke-width:1.0;" width="6" x="573" y="743.4116"/><text fill="#000000" font-family="sans-serif" font-size="14" lengthAdjust="spacing" textLength="120" x="585" y="750.7085">onClickStart(): void</text><rect fill="#F24D5C" height="6" style="stroke:#C82930;stroke-width:1.0;" width="6" x="573" y="762.0327"/><text fill="#000000" font-family="sans-serif" font-size="14" lengthAdjust="spacing" textLength="141" x="585" y="769.3296">onClickSettings(): void</text><rect fill="#F24D5C" height="6" style="stroke:#C82930;stroke-width:1.0;" width="6" x="573" y="780.6538"/><text fill="#000000" font-family="sans-serif" font-size="14" lengthAdjust="spacing" textLength="116" x="585" y="787.9507">onClickQuit(): void</text></g><!--class GameViewController--><g id="elem_GameViewController"><rect codeLine="84" fill="#F1F1F1" height="178.3477" id="GameViewController" rx="2.5" ry="2.5" style="stroke:#181818;stroke-width:0.5;" width="188" x="768" y="644.98"/><ellipse cx="795.15" cy="660.98" fill="#ADD1B2" rx="11" ry="11" style="stroke:#181818;stroke-width:1.0;"/><path d="M797.9156,656.855 Q798.0719,656.6363 798.2594,656.5269 Q798.4469,656.4175 798.6656,656.4175 Q799.0406,656.4175 799.275,656.6831 Q799.5094,656.9331 799.5094,657.5425 L799.5094,658.9956 Q799.5094,659.605 799.275,659.8706 Q799.0406,660.1363 798.6656,660.1363 Q798.3219,660.1363 798.1188,659.9331 Q797.9156,659.7456 797.8063,659.23 Q797.7594,658.8706 797.5719,658.6831 Q797.2438,658.3081 796.6344,658.0894 Q796.025,657.8706 795.4,657.8706 Q794.6344,657.8706 793.9938,658.1988 Q793.3688,658.5269 792.8688,659.2769 Q792.3844,660.0269 792.3844,661.0581 L792.3844,662.1519 Q792.3844,663.3863 793.275,664.2144 Q794.1656,665.0269 795.7594,665.0269 Q796.6969,665.0269 797.3531,664.7769 Q797.7438,664.6206 798.1656,664.1831 Q798.4313,663.9175 798.5719,663.8394 Q798.7281,663.7613 798.9313,663.7613 Q799.2594,663.7613 799.5094,664.0269 Q799.775,664.2769 799.775,664.6206 Q799.775,664.9644 799.4313,665.3706 Q798.9313,665.9488 798.1344,666.2769 Q797.0563,666.73 795.7594,666.73 Q794.2438,666.73 793.0406,666.105 Q792.0563,665.605 791.3688,664.5425 Q790.6813,663.4644 790.6813,662.1831 L790.6813,661.0269 Q790.6813,659.6988 791.2906,658.5581 Q791.9156,657.4019 793.0094,656.7925 Q794.1031,656.1675 795.3375,656.1675 Q796.0719,656.1675 796.7125,656.3394 Q797.3688,656.4956 797.9156,656.855 Z " fill="#000000"/><text fill="#000000" font-family="sans-serif" font-size="14" lengthAdjust="spacing" textLength="129" x="811.85" y="666.7769">GameViewController</text><line style="stroke:#181818;stroke-width:0.5;" x1="769" x2="955" y1="676.98" y2="676.98"/><rect fill="none" height="6" style="stroke:#C82930;stroke-width:1.0;" width="6" x="776" y="688.7905"/><text fill="#000000" font-family="sans-serif" font-size="14" lengthAdjust="spacing" textLength="108" x="788" y="696.0874">pane: StackPane</text><rect fill="none" height="6" style="stroke:#C82930;stroke-width:1.0;" width="6" x="776" y="707.4116"/><text fill="#000000" font-family="sans-serif" font-size="14" lengthAdjust="spacing" textLength="101" x="788" y="714.7085">canvas: Canvas</text><rect fill="none" height="6" style="stroke:#C82930;stroke-width:1.0;" width="6" x="776" y="726.0327"/><text fill="#000000" font-family="sans-serif" font-size="14" lengthAdjust="spacing" textLength="102" x="788" y="733.3296">overlay: Canvas</text><line style="stroke:#181818;stroke-width:1.0;" x1="769" x2="955" y1="740.8433" y2="740.8433"/><ellipse cx="779" cy="755.6538" fill="#84BE84" rx="3" ry="3" style="stroke:#038048;stroke-width:1.0;"/><text fill="#000000" font-family="sans-serif" font-size="14" lengthAdjust="spacing" textLength="142" x="788" y="759.9507">applyLanguage(): void</text><ellipse cx="779" cy="774.2749" fill="#84BE84" rx="3" ry="3" style="stroke:#038048;stroke-width:1.0;"/><text fill="#000000" font-family="sans-serif" font-size="14" lengthAdjust="spacing" textLength="139" x="788" y="778.5718">getPane(): StackPane</text><ellipse cx="779" cy="792.896" fill="#84BE84" rx="3" ry="3" style="stroke:#038048;stroke-width:1.0;"/><text fill="#000000" font-family="sans-serif" font-size="14" lengthAdjust="spacing" textLength="162" x="788" y="797.1929">getGameBoard(): Canvas</text><ellipse cx="779" cy="811.5171" fill="#84BE84" rx="3" ry="3" style="stroke:#038048;stroke-width:1.0;"/><text fill="#000000" font-family="sans-serif" font-size="14" lengthAdjust="spacing" textLength="135" x="788" y="815.814">getOverlay(): Canvas</text></g><!--class SettingsViewController--><g id="elem_SettingsViewController"><rect codeLine="95" fill="#F1F1F1" height="178.3477" id="SettingsViewController" rx="2.5" ry="2.5" style="stroke:#181818;stroke-width:0.5;" width="271" x="991.5" y="644.98"/><ellipse cx="1051.75" cy="660.98" fill="#ADD1B2" rx="11" ry="11" style="stroke:#181818;stroke-width:1.0;"/><path d="M1054.5156,656.855 Q1054.6719,656.6363 1054.8594,656.5269 Q1055.0469,656.4175 1055.2656,656.4175 Q1055.6406,656.4175 1055.875,656.6831 Q1056.1094,656.9331 1056.1094,657.5425 L1056.1094,658.9956 Q1056.1094,659.605 1055.875,659.8706 Q1055.6406,660.1363 1055.2656,660.1363 Q1054.9219,660.1363 1054.7188,659.9331 Q1054.5156,659.7456 1054.4063,659.23 Q1054.3594,658.8706 1054.1719,658.6831 Q1053.8438,658.3081 1053.2344,658.0894 Q1052.625,657.8706 1052,657.8706 Q1051.2344,657.8706 1050.5938,658.1988 Q1049.9688,658.5269 1049.4688,659.2769 Q1048.9844,660.0269 1048.9844,661.0581 L1048.9844,662.1519 Q1048.9844,663.3863 1049.875,664.2144 Q1050.7656,665.0269 1052.3594,665.0269 Q1053.2969,665.0269 1053.9531,664.7769 Q1054.3438,664.6206 1054.7656,664.1831 Q1055.0313,663.9175 1055.1719,663.8394 Q1055.3281,663.7613 1055.5313,663.7613 Q1055.8594,663.7613 1056.1094,664.0269 Q1056.375,664.2769 1056.375,664.6206 Q1056.375,664.9644 1056.0313,665.3706 Q1055.5313,665.9488 1054.7344,666.2769 Q1053.6563,666.73 1052.3594,666.73 Q1050.8438,666.73 1049.6406,666.105 Q1048.6563,665.605 1047.9688,664.5425 Q1047.2813,663.4644 1047.2813,662.1831 L1047.2813,661.0269 Q1047.2813,659.6988 1047.8906,658.5581 Q1048.5156,657.4019 1049.6094,656.7925 Q1050.7031,656.1675 1051.9375,656.1675 Q1052.6719,656.1675 1053.3125,656.3394 Q1053.9688,656.4956 1054.5156,656.855 Z " fill="#000000"/><text fill="#000000" font-family="sans-serif" font-size="14" lengthAdjust="spacing" textLength="142" x="1072.25" y="666.7769">SettingsViewController</text><line style="stroke:#181818;stroke-width:0.5;" x1="992.5" x2="1261.5" y1="676.98" y2="676.98"/><rect fill="none" height="6" style="stroke:#C82930;stroke-width:1.0;" width="6" x="999.5" y="688.7905"/><text fill="#000000" font-family="sans-serif" font-size="14" lengthAdjust="spacing" textLength="197" x="1011.5" y="696.0874">fullScreenCheckBox: CheckBox</text><rect fill="none" height="6" style="stroke:#C82930;stroke-width:1.0;" width="6" x="999.5" y="707.4116"/><text fill="#000000" font-family="sans-serif" font-size="14" lengthAdjust="spacing" textLength="203" x="1011.5" y="714.7085">languageComboBox: ComboBox</text><line style="stroke:#181818;stroke-width:1.0;" x1="992.5" x2="1261.5" y1="722.2222" y2="722.2222"/><ellipse cx="1002.5" cy="737.0327" fill="#84BE84" rx="3" ry="3" style="stroke:#038048;stroke-width:1.0;"/><text fill="#000000" font-family="sans-serif" font-size="14" lengthAdjust="spacing" textLength="142" x="1011.5" y="741.3296">applyLanguage(): void</text><ellipse cx="1002.5" cy="755.6538" fill="#84BE84" rx="3" ry="3" style="stroke:#038048;stroke-width:1.0;"/><text fill="#000000" font-family="sans-serif" font-size="14" lengthAdjust="spacing" textLength="238" x="1011.5" y="759.9507">getLanguageComboBox(): ComboBox</text><ellipse cx="1002.5" cy="774.2749" fill="#84BE84" rx="3" ry="3" style="stroke:#038048;stroke-width:1.0;"/><text fill="#000000" font-family="sans-serif" font-size="14" lengthAdjust="spacing" textLength="245" x="1011.5" y="778.5718">setFullScreenCheckBox(boolean): void</text><rect fill="#F24D5C" height="6" style="stroke:#C82930;stroke-width:1.0;" width="6" x="999.5" y="789.896"/><text fill="#000000" font-family="sans-serif" font-size="14" lengthAdjust="spacing" textLength="172" x="1011.5" y="797.1929">onFullScreenToggle(): void</text><rect fill="#F24D5C" height="6" style="stroke:#C82930;stroke-width:1.0;" width="6" x="999.5" y="808.5171"/><text fill="#000000" font-family="sans-serif" font-size="14" lengthAdjust="spacing" textLength="121" x="1011.5" y="815.814">onClickBack(): void</text></g><!--class SavesViewController--><g id="elem_SavesViewController"><rect codeLine="106" fill="#F1F1F1" height="122.4844" id="SavesViewController" rx="2.5" ry="2.5" style="stroke:#181818;stroke-width:0.5;" width="301" x="1297.5" y="672.98"/><ellipse cx="1378.75" cy="688.98" fill="#ADD1B2" rx="11" ry="11" style="stroke:#181818;stroke-width:1.0;"/><path d="M1381.5156,684.855 Q1381.6719,684.6363 1381.8594,684.5269 Q1382.0469,684.4175 1382.2656,684.4175 Q1382.6406,684.4175 1382.875,684.6831 Q1383.1094,684.9331 1383.1094,685.5425 L1383.1094,686.9956 Q1383.1094,687.605 1382.875,687.8706 Q1382.6406,688.1363 1382.2656,688.1363 Q1381.9219,688.1363 1381.7188,687.9331 Q1381.5156,687.7456 1381.4063,687.23 Q1381.3594,686.8706 1381.1719,686.6831 Q1380.8438,686.3081 1380.2344,686.0894 Q1379.625,685.8706 1379,685.8706 Q1378.2344,685.8706 1377.5938,686.1988 Q1376.9688,686.5269 1376.4688,687.2769 Q1375.9844,688.0269 1375.9844,689.0581 L1375.9844,690.1519 Q1375.9844,691.3863 1376.875,692.2144 Q1377.7656,693.0269 1379.3594,693.0269 Q1380.2969,693.0269 1380.9531,692.7769 Q1381.3438,692.6206 1381.7656,692.1831 Q1382.0313,691.9175 1382.1719,691.8394 Q1382.3281,691.7613 1382.5313,691.7613 Q1382.8594,691.7613 1383.1094,692.0269 Q1383.375,692.2769 1383.375,692.6206 Q1383.375,692.9644 1383.0313,693.3706 Q1382.5313,693.9488 1381.7344,694.2769 Q1380.6563,694.73 1379.3594,694.73 Q1377.8438,694.73 1376.6406,694.105 Q1375.6563,693.605 1374.9688,692.5425 Q1374.2813,691.4644 1374.2813,690.1831 L1374.2813,689.0269 Q1374.2813,687.6988 1374.8906,686.5581 Q1375.5156,685.4019 1376.6094,684.7925 Q1377.7031,684.1675 1378.9375,684.1675 Q1379.6719,684.1675 1380.3125,684.3394 Q1380.9688,684.4956 1381.5156,684.855 Z " fill="#000000"/><text fill="#000000" font-family="sans-serif" font-size="14" lengthAdjust="spacing" textLength="130" x="1399.25" y="694.7769">SavesViewController</text><line style="stroke:#181818;stroke-width:0.5;" x1="1298.5" x2="1597.5" y1="704.98" y2="704.98"/><rect fill="none" height="6" style="stroke:#C82930;stroke-width:1.0;" width="6" x="1305.5" y="716.7905"/><text fill="#000000" font-family="sans-serif" font-size="14" lengthAdjust="spacing" textLength="225" x="1317.5" y="724.0874">savesListView: ListView&lt;SaveData&gt;</text><rect fill="none" height="6" style="stroke:#C82930;stroke-width:1.0;" width="6" x="1305.5" y="735.4116"/><text fill="#000000" font-family="sans-serif" font-size="14" lengthAdjust="spacing" textLength="240" x="1317.5" y="742.7085">savesList: ObservableList&lt;SaveData&gt;</text><line style="stroke:#181818;stroke-width:1.0;" x1="1298.5" x2="1597.5" y1="750.2222" y2="750.2222"/><ellipse cx="1308.5" cy="765.0327" fill="#84BE84" rx="3" ry="3" style="stroke:#038048;stroke-width:1.0;"/><text fill="#000000" font-family="sans-serif" font-size="14" lengthAdjust="spacing" textLength="142" x="1317.5" y="769.3296">applyLanguage(): void</text><ellipse cx="1308.5" cy="783.6538" fill="#84BE84" rx="3" ry="3" style="stroke:#038048;stroke-width:1.0;"/><text fill="#000000" font-family="sans-serif" font-size="14" lengthAdjust="spacing" textLength="275" x="1317.5" y="787.9507">setSaves(ObservableList&lt;SaveData&gt;): void</text></g><!--class HomeView--><g id="elem_HomeView"><rect codeLine="114" fill="#F1F1F1" height="103.8633" id="HomeView" rx="2.5" ry="2.5" style="stroke:#181818;stroke-width:0.5;" width="230" x="1634" y="681.98"/><ellipse cx="1712.25" cy="697.98" fill="#ADD1B2" rx="11" ry="11" style="stroke:#181818;stroke-width:1.0;"/><path d="M1715.0156,693.855 Q1715.1719,693.6363 1715.3594,693.5269 Q1715.5469,693.4175 1715.7656,693.4175 Q1716.1406,693.4175 1716.375,693.6831 Q1716.6094,693.9331 1716.6094,694.5425 L1716.6094,695.9956 Q1716.6094,696.605 1716.375,696.8706 Q1716.1406,697.1363 1715.7656,697.1363 Q1715.4219,697.1363 1715.2188,696.9331 Q1715.0156,696.7456 1714.9063,696.23 Q1714.8594,695.8706 1714.6719,695.6831 Q1714.3438,695.3081 1713.7344,695.0894 Q1713.125,694.8706 1712.5,694.8706 Q1711.7344,694.8706 1711.0938,695.1988 Q1710.4688,695.5269 1709.9688,696.2769 Q1709.4844,697.0269 1709.4844,698.0581 L1709.4844,699.1519 Q1709.4844,700.3863 1710.375,701.2144 Q1711.2656,702.0269 1712.8594,702.0269 Q1713.7969,702.0269 1714.4531,701.7769 Q1714.8438,701.6206 1715.2656,701.1831 Q1715.5313,700.9175 1715.6719,700.8394 Q1715.8281,700.7613 1716.0313,700.7613 Q1716.3594,700.7613 1716.6094,701.0269 Q1716.875,701.2769 1716.875,701.6206 Q1716.875,701.9644 1716.5313,702.3706 Q1716.0313,702.9488 1715.2344,703.2769 Q1714.1563,703.73 1712.8594,703.73 Q1711.3438,703.73 1710.1406,703.105 Q1709.1563,702.605 1708.4688,701.5425 Q1707.7813,700.4644 1707.7813,699.1831 L1707.7813,698.0269 Q1707.7813,696.6988 1708.3906,695.5581 Q1709.0156,694.4019 1710.1094,693.7925 Q1711.2031,693.1675 1712.4375,693.1675 Q1713.1719,693.1675 1713.8125,693.3394 Q1714.4688,693.4956 1715.0156,693.855 Z " fill="#000000"/><text fill="#000000" font-family="sans-serif" font-size="14" lengthAdjust="spacing" textLength="65" x="1732.75" y="703.7769">HomeView</text><line style="stroke:#181818;stroke-width:0.5;" x1="1635" x2="1863" y1="713.98" y2="713.98"/><line style="stroke:#181818;stroke-width:0.5;" x1="1635" x2="1863" y1="721.98" y2="721.98"/><ellipse cx="1645" cy="736.7905" fill="#84BE84" rx="3" ry="3" style="stroke:#038048;stroke-width:1.0;"/><text fill="#000000" font-family="sans-serif" font-size="14" lengthAdjust="spacing" textLength="75" x="1654" y="741.0874">HomeView()</text><ellipse cx="1645" cy="755.4116" fill="#84BE84" rx="3" ry="3" style="stroke:#038048;stroke-width:1.0;"/><text fill="#000000" font-family="sans-serif" font-size="14" lengthAdjust="spacing" textLength="204" x="1654" y="759.7085">onViewDisplayed(Object...): void</text><ellipse cx="1645" cy="774.0327" fill="#84BE84" rx="3" ry="3" style="stroke:#038048;stroke-width:1.0;"/><text fill="#000000" font-family="sans-serif" font-size="14" lengthAdjust="spacing" textLength="196" x="1654" y="778.3296">onKeyPressed(KeyEvent): void</text></g><!--class GameView--><g id="elem_GameView"><rect codeLine="120" fill="#F1F1F1" height="215.5898" id="GameView" rx="2.5" ry="2.5" style="stroke:#181818;stroke-width:0.5;" width="275" x="2429.5" y="625.98"/><ellipse cx="2529.25" cy="641.98" fill="#ADD1B2" rx="11" ry="11" style="stroke:#181818;stroke-width:1.0;"/><path d="M2532.0156,637.855 Q2532.1719,637.6363 2532.3594,637.5269 Q2532.5469,637.4175 2532.7656,637.4175 Q2533.1406,637.4175 2533.375,637.6831 Q2533.6094,637.9331 2533.6094,638.5425 L2533.6094,639.9956 Q2533.6094,640.605 2533.375,640.8706 Q2533.1406,641.1363 2532.7656,641.1363 Q2532.4219,641.1363 2532.2188,640.9331 Q2532.0156,640.7456 2531.9063,640.23 Q2531.8594,639.8706 2531.6719,639.6831 Q2531.3438,639.3081 2530.7344,639.0894 Q2530.125,638.8706 2529.5,638.8706 Q2528.7344,638.8706 2528.0938,639.1988 Q2527.4688,639.5269 2526.9688,640.2769 Q2526.4844,641.0269 2526.4844,642.0581 L2526.4844,643.1519 Q2526.4844,644.3863 2527.375,645.2144 Q2528.2656,646.0269 2529.8594,646.0269 Q2530.7969,646.0269 2531.4531,645.7769 Q2531.8438,645.6206 2532.2656,645.1831 Q2532.5313,644.9175 2532.6719,644.8394 Q2532.8281,644.7613 2533.0313,644.7613 Q2533.3594,644.7613 2533.6094,645.0269 Q2533.875,645.2769 2533.875,645.6206 Q2533.875,645.9644 2533.5313,646.3706 Q2533.0313,646.9488 2532.2344,647.2769 Q2531.1563,647.73 2529.8594,647.73 Q2528.3438,647.73 2527.1406,647.105 Q2526.1563,646.605 2525.4688,645.5425 Q2524.7813,644.4644 2524.7813,643.1831 L2524.7813,642.0269 Q2524.7813,640.6988 2525.3906,639.5581 Q2526.0156,638.4019 2527.1094,637.7925 Q2528.2031,637.1675 2529.4375,637.1675 Q2530.1719,637.1675 2530.8125,637.3394 Q2531.4688,637.4956 2532.0156,637.855 Z " fill="#000000"/><text fill="#000000" font-family="sans-serif" font-size="14" lengthAdjust="spacing" textLength="67" x="2549.75" y="647.7769">GameView</text><line style="stroke:#181818;stroke-width:0.5;" x1="2430.5" x2="2703.5" y1="657.98" y2="657.98"/><line style="stroke:#181818;stroke-width:0.5;" x1="2430.5" x2="2703.5" y1="665.98" y2="665.98"/><ellipse cx="2440.5" cy="680.7905" fill="#84BE84" rx="3" ry="3" style="stroke:#038048;stroke-width:1.0;"/><text fill="#000000" font-family="sans-serif" font-size="14" lengthAdjust="spacing" textLength="77" x="2449.5" y="685.0874">GameView()</text><ellipse cx="2440.5" cy="699.4116" fill="#84BE84" rx="3" ry="3" style="stroke:#038048;stroke-width:1.0;"/><text fill="#000000" font-family="sans-serif" font-size="14" lengthAdjust="spacing" textLength="204" x="2449.5" y="703.7085">onViewDisplayed(Object...): void</text><ellipse cx="2440.5" cy="718.0327" fill="#84BE84" rx="3" ry="3" style="stroke:#038048;stroke-width:1.0;"/><text fill="#000000" font-family="sans-serif" font-size="14" lengthAdjust="spacing" textLength="86" x="2449.5" y="722.3296">render(): void</text><ellipse cx="2440.5" cy="736.6538" fill="#84BE84" rx="3" ry="3" style="stroke:#038048;stroke-width:1.0;"/><text fill="#000000" font-family="sans-serif" font-size="14" lengthAdjust="spacing" textLength="125" x="2449.5" y="740.9507">save(boolean): void</text><ellipse cx="2440.5" cy="755.2749" fill="#84BE84" rx="3" ry="3" style="stroke:#038048;stroke-width:1.0;"/><text fill="#000000" font-family="sans-serif" font-size="14" lengthAdjust="spacing" textLength="67" x="2449.5" y="759.5718">quit(): void</text><ellipse cx="2440.5" cy="773.896" fill="#84BE84" rx="3" ry="3" style="stroke:#038048;stroke-width:1.0;"/><text fill="#000000" font-family="sans-serif" font-size="14" lengthAdjust="spacing" textLength="91" x="2449.5" y="778.1929">resume(): void</text><rect fill="#F24D5C" height="6" style="stroke:#C82930;stroke-width:1.0;" width="6" x="2437.5" y="789.5171"/><text fill="#000000" font-family="sans-serif" font-size="14" lengthAdjust="spacing" textLength="249" x="2449.5" y="796.814">drawGameBoard(Canvas, double): void</text><rect fill="#F24D5C" height="6" style="stroke:#C82930;stroke-width:1.0;" width="6" x="2437.5" y="808.1382"/><text fill="#000000" font-family="sans-serif" font-size="14" lengthAdjust="spacing" textLength="171" x="2449.5" y="815.4351">drawOverlay(Canvas): void</text><rect fill="#F24D5C" height="6" style="stroke:#C82930;stroke-width:1.0;" width="6" x="2437.5" y="826.7593"/><text fill="#000000" font-family="sans-serif" font-size="14" lengthAdjust="spacing" textLength="171" x="2449.5" y="834.0562">clearCanvas(Canvas): void</text></g><!--class SettingsView--><g id="elem_SettingsView"><rect codeLine="132" fill="#F1F1F1" height="103.8633" id="SettingsView" rx="2.5" ry="2.5" style="stroke:#181818;stroke-width:0.5;" width="230" x="1899" y="681.98"/><ellipse cx="1969.75" cy="697.98" fill="#ADD1B2" rx="11" ry="11" style="stroke:#181818;stroke-width:1.0;"/><path d="M1972.5156,693.855 Q1972.6719,693.6363 1972.8594,693.5269 Q1973.0469,693.4175 1973.2656,693.4175 Q1973.6406,693.4175 1973.875,693.6831 Q1974.1094,693.9331 1974.1094,694.5425 L1974.1094,695.9956 Q1974.1094,696.605 1973.875,696.8706 Q1973.6406,697.1363 1973.2656,697.1363 Q1972.9219,697.1363 1972.7188,696.9331 Q1972.5156,696.7456 1972.4063,696.23 Q1972.3594,695.8706 1972.1719,695.6831 Q1971.8438,695.3081 1971.2344,695.0894 Q1970.625,694.8706 1970,694.8706 Q1969.2344,694.8706 1968.5938,695.1988 Q1967.9688,695.5269 1967.4688,696.2769 Q1966.9844,697.0269 1966.9844,698.0581 L1966.9844,699.1519 Q1966.9844,700.3863 1967.875,701.2144 Q1968.7656,702.0269 1970.3594,702.0269 Q1971.2969,702.0269 1971.9531,701.7769 Q1972.3438,701.6206 1972.7656,701.1831 Q1973.0313,700.9175 1973.1719,700.8394 Q1973.3281,700.7613 1973.5313,700.7613 Q1973.8594,700.7613 1974.1094,701.0269 Q1974.375,701.2769 1974.375,701.6206 Q1974.375,701.9644 1974.0313,702.3706 Q1973.5313,702.9488 1972.7344,703.2769 Q1971.6563,703.73 1970.3594,703.73 Q1968.8438,703.73 1967.6406,703.105 Q1966.6563,702.605 1965.9688,701.5425 Q1965.2813,700.4644 1965.2813,699.1831 L1965.2813,698.0269 Q1965.2813,696.6988 1965.8906,695.5581 Q1966.5156,694.4019 1967.6094,693.7925 Q1968.7031,693.1675 1969.9375,693.1675 Q1970.6719,693.1675 1971.3125,693.3394 Q1971.9688,693.4956 1972.5156,693.855 Z " fill="#000000"/><text fill="#000000" font-family="sans-serif" font-size="14" lengthAdjust="spacing" textLength="80" x="1990.25" y="703.7769">SettingsView</text><line style="stroke:#181818;stroke-width:0.5;" x1="1900" x2="2128" y1="713.98" y2="713.98"/><line style="stroke:#181818;stroke-width:0.5;" x1="1900" x2="2128" y1="721.98" y2="721.98"/><ellipse cx="1910" cy="736.7905" fill="#84BE84" rx="3" ry="3" style="stroke:#038048;stroke-width:1.0;"/><text fill="#000000" font-family="sans-serif" font-size="14" lengthAdjust="spacing" textLength="90" x="1919" y="741.0874">SettingsView()</text><ellipse cx="1910" cy="755.4116" fill="#84BE84" rx="3" ry="3" style="stroke:#038048;stroke-width:1.0;"/><text fill="#000000" font-family="sans-serif" font-size="14" lengthAdjust="spacing" textLength="107" x="1919" y="759.7085">onViewInit(): void</text><ellipse cx="1910" cy="774.0327" fill="#84BE84" rx="3" ry="3" style="stroke:#038048;stroke-width:1.0;"/><text fill="#000000" font-family="sans-serif" font-size="14" lengthAdjust="spacing" textLength="204" x="1919" y="778.3296">onViewDisplayed(Object...): void</text></g><!--class SavesView--><g id="elem_SavesView"><rect codeLine="138" fill="#F1F1F1" height="85.2422" id="SavesView" rx="2.5" ry="2.5" style="stroke:#181818;stroke-width:0.5;" width="230" x="2164" y="691.48"/><ellipse cx="2240.75" cy="707.48" fill="#ADD1B2" rx="11" ry="11" style="stroke:#181818;stroke-width:1.0;"/><path d="M2243.5156,703.355 Q2243.6719,703.1363 2243.8594,703.0269 Q2244.0469,702.9175 2244.2656,702.9175 Q2244.6406,702.9175 2244.875,703.1831 Q2245.1094,703.4331 2245.1094,704.0425 L2245.1094,705.4956 Q2245.1094,706.105 2244.875,706.3706 Q2244.6406,706.6363 2244.2656,706.6363 Q2243.9219,706.6363 2243.7188,706.4331 Q2243.5156,706.2456 2243.4063,705.73 Q2243.3594,705.3706 2243.1719,705.1831 Q2242.8438,704.8081 2242.2344,704.5894 Q2241.625,704.3706 2241,704.3706 Q2240.2344,704.3706 2239.5938,704.6988 Q2238.9688,705.0269 2238.4688,705.7769 Q2237.9844,706.5269 2237.9844,707.5581 L2237.9844,708.6519 Q2237.9844,709.8863 2238.875,710.7144 Q2239.7656,711.5269 2241.3594,711.5269 Q2242.2969,711.5269 2242.9531,711.2769 Q2243.3438,711.1206 2243.7656,710.6831 Q2244.0313,710.4175 2244.1719,710.3394 Q2244.3281,710.2613 2244.5313,710.2613 Q2244.8594,710.2613 2245.1094,710.5269 Q2245.375,710.7769 2245.375,711.1206 Q2245.375,711.4644 2245.0313,711.8706 Q2244.5313,712.4488 2243.7344,712.7769 Q2242.6563,713.23 2241.3594,713.23 Q2239.8438,713.23 2238.6406,712.605 Q2237.6563,712.105 2236.9688,711.0425 Q2236.2813,709.9644 2236.2813,708.6831 L2236.2813,707.5269 Q2236.2813,706.1988 2236.8906,705.0581 Q2237.5156,703.9019 2238.6094,703.2925 Q2239.7031,702.6675 2240.9375,702.6675 Q2241.6719,702.6675 2242.3125,702.8394 Q2242.9688,702.9956 2243.5156,703.355 Z " fill="#000000"/><text fill="#000000" font-family="sans-serif" font-size="14" lengthAdjust="spacing" textLength="68" x="2261.25" y="713.2769">SavesView</text><line style="stroke:#181818;stroke-width:0.5;" x1="2165" x2="2393" y1="723.48" y2="723.48"/><line style="stroke:#181818;stroke-width:0.5;" x1="2165" x2="2393" y1="731.48" y2="731.48"/><ellipse cx="2175" cy="746.2905" fill="#84BE84" rx="3" ry="3" style="stroke:#038048;stroke-width:1.0;"/><text fill="#000000" font-family="sans-serif" font-size="14" lengthAdjust="spacing" textLength="78" x="2184" y="750.5874">SavesView()</text><ellipse cx="2175" cy="764.9116" fill="#84BE84" rx="3" ry="3" style="stroke:#038048;stroke-width:1.0;"/><text fill="#000000" font-family="sans-serif" font-size="14" lengthAdjust="spacing" textLength="204" x="2184" y="769.2085">onViewDisplayed(Object...): void</text></g><!--class SaveComponent--><g id="elem_SaveComponent"><rect codeLine="143" fill="#F1F1F1" height="103.8633" id="SaveComponent" rx="2.5" ry="2.5" style="stroke:#181818;stroke-width:0.5;" width="261" x="268.5" y="681.98"/><ellipse cx="342.25" cy="697.98" fill="#ADD1B2" rx="11" ry="11" style="stroke:#181818;stroke-width:1.0;"/><path d="M345.0156,693.855 Q345.1719,693.6363 345.3594,693.5269 Q345.5469,693.4175 345.7656,693.4175 Q346.1406,693.4175 346.375,693.6831 Q346.6094,693.9331 346.6094,694.5425 L346.6094,695.9956 Q346.6094,696.605 346.375,696.8706 Q346.1406,697.1363 345.7656,697.1363 Q345.4219,697.1363 345.2188,696.9331 Q345.0156,696.7456 344.9063,696.23 Q344.8594,695.8706 344.6719,695.6831 Q344.3438,695.3081 343.7344,695.0894 Q343.125,694.8706 342.5,694.8706 Q341.7344,694.8706 341.0938,695.1988 Q340.4688,695.5269 339.9688,696.2769 Q339.4844,697.0269 339.4844,698.0581 L339.4844,699.1519 Q339.4844,700.3863 340.375,701.2144 Q341.2656,702.0269 342.8594,702.0269 Q343.7969,702.0269 344.4531,701.7769 Q344.8438,701.6206 345.2656,701.1831 Q345.5313,700.9175 345.6719,700.8394 Q345.8281,700.7613 346.0313,700.7613 Q346.3594,700.7613 346.6094,701.0269 Q346.875,701.2769 346.875,701.6206 Q346.875,701.9644 346.5313,702.3706 Q346.0313,702.9488 345.2344,703.2769 Q344.1563,703.73 342.8594,703.73 Q341.3438,703.73 340.1406,703.105 Q339.1563,702.605 338.4688,701.5425 Q337.7813,700.4644 337.7813,699.1831 L337.7813,698.0269 Q337.7813,696.6988 338.3906,695.5581 Q339.0156,694.4019 340.1094,693.7925 Q341.2031,693.1675 342.4375,693.1675 Q343.1719,693.1675 343.8125,693.3394 Q344.4688,693.4956 345.0156,693.855 Z " fill="#000000"/><text fill="#000000" font-family="sans-serif" font-size="14" lengthAdjust="spacing" textLength="105" x="362.75" y="703.7769">SaveComponent</text><line style="stroke:#181818;stroke-width:0.5;" x1="269.5" x2="528.5" y1="713.98" y2="713.98"/><line style="stroke:#181818;stroke-width:0.5;" x1="269.5" x2="528.5" y1="721.98" y2="721.98"/><ellipse cx="279.5" cy="736.7905" fill="#84BE84" rx="3" ry="3" style="stroke:#038048;stroke-width:1.0;"/><text fill="#000000" font-family="sans-serif" font-size="14" lengthAdjust="spacing" textLength="235" x="288.5" y="741.0874">updateItem(SaveData, boolean): void</text><rect fill="#F24D5C" height="6" style="stroke:#C82930;stroke-width:1.0;" width="6" x="276.5" y="752.4116"/><text fill="#000000" font-family="sans-serif" font-size="14" lengthAdjust="spacing" textLength="146" x="288.5" y="759.7085">load(ActionEvent): void</text><rect fill="#F24D5C" height="6" style="stroke:#C82930;stroke-width:1.0;" width="6" x="276.5" y="771.0327"/><text fill="#000000" font-family="sans-serif" font-size="14" lengthAdjust="spacing" textLength="158" x="288.5" y="778.3296">delete(ActionEvent): void</text></g><!--class GUIController--><g id="elem_GUIController"><rect codeLine="156" fill="#F1F1F1" height="103.8633" id="GUIController" rx="2.5" ry="2.5" style="stroke:#181818;stroke-width:0.5;" width="230" x="2475" y="1187.98"/><ellipse cx="2543.25" cy="1203.98" fill="#ADD1B2" rx="11" ry="11" style="stroke:#181818;stroke-width:1.0;"/><path d="M2546.0156,1199.855 Q2546.1719,1199.6363 2546.3594,1199.5269 Q2546.5469,1199.4175 2546.7656,1199.4175 Q2547.1406,1199.4175 2547.375,1199.6831 Q2547.6094,1199.9331 2547.6094,1200.5425 L2547.6094,1201.9956 Q2547.6094,1202.605 2547.375,1202.8706 Q2547.1406,1203.1363 2546.7656,1203.1363 Q2546.4219,1203.1363 2546.2188,1202.9331 Q2546.0156,1202.7456 2545.9063,1202.23 Q2545.8594,1201.8706 2545.6719,1201.6831 Q2545.3438,1201.3081 2544.7344,1201.0894 Q2544.125,1200.8706 2543.5,1200.8706 Q2542.7344,1200.8706 2542.0938,1201.1988 Q2541.4688,1201.5269 2540.9688,1202.2769 Q2540.4844,1203.0269 2540.4844,1204.0581 L2540.4844,1205.1519 Q2540.4844,1206.3863 2541.375,1207.2144 Q2542.2656,1208.0269 2543.8594,1208.0269 Q2544.7969,1208.0269 2545.4531,1207.7769 Q2545.8438,1207.6206 2546.2656,1207.1831 Q2546.5313,1206.9175 2546.6719,1206.8394 Q2546.8281,1206.7613 2547.0313,1206.7613 Q2547.3594,1206.7613 2547.6094,1207.0269 Q2547.875,1207.2769 2547.875,1207.6206 Q2547.875,1207.9644 2547.5313,1208.3706 Q2547.0313,1208.9488 2546.2344,1209.2769 Q2545.1563,1209.73 2543.8594,1209.73 Q2542.3438,1209.73 2541.1406,1209.105 Q2540.1563,1208.605 2539.4688,1207.5425 Q2538.7813,1206.4644 2538.7813,1205.1831 L2538.7813,1204.0269 Q2538.7813,1202.6988 2539.3906,1201.5581 Q2540.0156,1200.4019 2541.1094,1199.7925 Q2542.2031,1199.1675 2543.4375,1199.1675 Q2544.1719,1199.1675 2544.8125,1199.3394 Q2545.4688,1199.4956 2546.0156,1199.855 Z " fill="#000000"/><text fill="#000000" font-family="sans-serif" font-size="14" lengthAdjust="spacing" textLength="85" x="2563.75" y="1209.7769">GUIController</text><line style="stroke:#181818;stroke-width:0.5;" x1="2476" x2="2704" y1="1219.98" y2="1219.98"/><line style="stroke:#181818;stroke-width:0.5;" x1="2476" x2="2704" y1="1227.98" y2="1227.98"/><ellipse cx="2486" cy="1242.7905" fill="#84BE84" rx="3" ry="3" style="stroke:#038048;stroke-width:1.0;"/><text fill="#000000" font-family="sans-serif" font-size="14" lengthAdjust="spacing" textLength="196" x="2495" y="1247.0874">onKeyPressed(KeyEvent): void</text><ellipse cx="2486" cy="1261.4116" fill="#84BE84" rx="3" ry="3" style="stroke:#038048;stroke-width:1.0;"/><text fill="#000000" font-family="sans-serif" font-size="14" lengthAdjust="spacing" textLength="204" x="2495" y="1265.7085">onKeyReleased(KeyEvent): void</text><ellipse cx="2486" cy="1280.0327" fill="#84BE84" rx="3" ry="3" style="stroke:#038048;stroke-width:1.0;"/><text fill="#000000" font-family="sans-serif" font-size="14" lengthAdjust="spacing" textLength="115" x="2495" y="1284.3296">update(long): void</text></g><!--class GUIEngine--><g id="elem_GUIEngine"><rect codeLine="162" fill="#F1F1F1" height="159.7266" id="GUIEngine" rx="2.5" ry="2.5" style="stroke:#181818;stroke-width:0.5;" width="171" x="2533.5" y="966.98"/><ellipse cx="2581.25" cy="982.98" fill="#ADD1B2" rx="11" ry="11" style="stroke:#181818;stroke-width:1.0;"/><path d="M2584.0156,978.855 Q2584.1719,978.6363 2584.3594,978.5269 Q2584.5469,978.4175 2584.7656,978.4175 Q2585.1406,978.4175 2585.375,978.6831 Q2585.6094,978.9331 2585.6094,979.5425 L2585.6094,980.9956 Q2585.6094,981.605 2585.375,981.8706 Q2585.1406,982.1363 2584.7656,982.1363 Q2584.4219,982.1363 2584.2188,981.9331 Q2584.0156,981.7456 2583.9063,981.23 Q2583.8594,980.8706 2583.6719,980.6831 Q2583.3438,980.3081 2582.7344,980.0894 Q2582.125,979.8706 2581.5,979.8706 Q2580.7344,979.8706 2580.0938,980.1988 Q2579.4688,980.5269 2578.9688,981.2769 Q2578.4844,982.0269 2578.4844,983.0581 L2578.4844,984.1519 Q2578.4844,985.3863 2579.375,986.2144 Q2580.2656,987.0269 2581.8594,987.0269 Q2582.7969,987.0269 2583.4531,986.7769 Q2583.8438,986.6206 2584.2656,986.1831 Q2584.5313,985.9175 2584.6719,985.8394 Q2584.8281,985.7613 2585.0313,985.7613 Q2585.3594,985.7613 2585.6094,986.0269 Q2585.875,986.2769 2585.875,986.6206 Q2585.875,986.9644 2585.5313,987.3706 Q2585.0313,987.9488 2584.2344,988.2769 Q2583.1563,988.73 2581.8594,988.73 Q2580.3438,988.73 2579.1406,988.105 Q2578.1563,987.605 2577.4688,986.5425 Q2576.7813,985.4644 2576.7813,984.1831 L2576.7813,983.0269 Q2576.7813,981.6988 2577.3906,980.5581 Q2578.0156,979.4019 2579.1094,978.7925 Q2580.2031,978.1675 2581.4375,978.1675 Q2582.1719,978.1675 2582.8125,978.3394 Q2583.4688,978.4956 2584.0156,978.855 Z " fill="#000000"/><text fill="#000000" font-family="sans-serif" font-size="14" lengthAdjust="spacing" textLength="67" x="2601.75" y="988.7769">GUIEngine</text><line style="stroke:#181818;stroke-width:0.5;" x1="2534.5" x2="2703.5" y1="998.98" y2="998.98"/><rect fill="none" height="6" style="stroke:#C82930;stroke-width:1.0;" width="6" x="2541.5" y="1010.7905"/><text fill="#000000" font-family="sans-serif" font-size="14" lengthAdjust="spacing" textLength="133" x="2553.5" y="1018.0874">AnimationTimer timer</text><line style="stroke:#181818;stroke-width:1.0;" x1="2534.5" x2="2703.5" y1="1025.6011" y2="1025.6011"/><ellipse cx="2544.5" cy="1040.4116" fill="#84BE84" rx="3" ry="3" style="stroke:#038048;stroke-width:1.0;"/><text fill="#000000" font-family="sans-serif" font-size="14" lengthAdjust="spacing" textLength="92" x="2553.5" y="1044.7085">tick(long): void</text><ellipse cx="2544.5" cy="1059.0327" fill="#84BE84" rx="3" ry="3" style="stroke:#038048;stroke-width:1.0;"/><text fill="#000000" font-family="sans-serif" font-size="14" lengthAdjust="spacing" textLength="72" x="2553.5" y="1063.3296">start(): void</text><ellipse cx="2544.5" cy="1077.6538" fill="#84BE84" rx="3" ry="3" style="stroke:#038048;stroke-width:1.0;"/><text fill="#000000" font-family="sans-serif" font-size="14" lengthAdjust="spacing" textLength="71" x="2553.5" y="1081.9507">stop(): void</text><ellipse cx="2544.5" cy="1096.2749" fill="#84BE84" rx="3" ry="3" style="stroke:#038048;stroke-width:1.0;"/><text fill="#000000" font-family="sans-serif" font-size="14" lengthAdjust="spacing" textLength="145" x="2553.5" y="1100.5718">getComputedFPS(): int</text><ellipse cx="2544.5" cy="1114.896" fill="#84BE84" rx="3" ry="3" style="stroke:#038048;stroke-width:1.0;"/><text fill="#000000" font-family="sans-serif" font-size="14" lengthAdjust="spacing" textLength="80" x="2553.5" y="1119.1929">getFPS(): int</text></g><!--class Image--><g id="elem_Image"><rect fill="#F1F1F1" height="48" id="Image" rx="2.5" ry="2.5" style="stroke:#181818;stroke-width:0.5;" width="70" x="70" y="709.98"/><ellipse cx="85" cy="725.98" fill="#ADD1B2" rx="11" ry="11" style="stroke:#181818;stroke-width:1.0;"/><path d="M87.7656,721.855 Q87.9219,721.6363 88.1094,721.5269 Q88.2969,721.4175 88.5156,721.4175 Q88.8906,721.4175 89.125,721.6831 Q89.3594,721.9331 89.3594,722.5425 L89.3594,723.9956 Q89.3594,724.605 89.125,724.8706 Q88.8906,725.1363 88.5156,725.1363 Q88.1719,725.1363 87.9688,724.9331 Q87.7656,724.7456 87.6563,724.23 Q87.6094,723.8706 87.4219,723.6831 Q87.0938,723.3081 86.4844,723.0894 Q85.875,722.8706 85.25,722.8706 Q84.4844,722.8706 83.8438,723.1988 Q83.2188,723.5269 82.7188,724.2769 Q82.2344,725.0269 82.2344,726.0581 L82.2344,727.1519 Q82.2344,728.3863 83.125,729.2144 Q84.0156,730.0269 85.6094,730.0269 Q86.5469,730.0269 87.2031,729.7769 Q87.5938,729.6206 88.0156,729.1831 Q88.2813,728.9175 88.4219,728.8394 Q88.5781,728.7613 88.7813,728.7613 Q89.1094,728.7613 89.3594,729.0269 Q89.625,729.2769 89.625,729.6206 Q89.625,729.9644 89.2813,730.3706 Q88.7813,730.9488 87.9844,731.2769 Q86.9063,731.73 85.6094,731.73 Q84.0938,731.73 82.8906,731.105 Q81.9063,730.605 81.2188,729.5425 Q80.5313,728.4644 80.5313,727.1831 L80.5313,726.0269 Q80.5313,724.6988 81.1406,723.5581 Q81.7656,722.4019 82.8594,721.7925 Q83.9531,721.1675 85.1875,721.1675 Q85.9219,721.1675 86.5625,721.3394 Q87.2188,721.4956 87.7656,721.855 Z " fill="#000000"/><text fill="#000000" font-family="sans-serif" font-size="14" lengthAdjust="spacing" textLength="38" x="99" y="731.7769">Image</text><line style="stroke:#181818;stroke-width:0.5;" x1="71" x2="139" y1="741.98" y2="741.98"/><line style="stroke:#181818;stroke-width:0.5;" x1="71" x2="139" y1="749.98" y2="749.98"/></g><!--link GameInterface to Engine--><g id="link_GameInterface_Engine"><path codeLine="175" d="M2911.05,416.48 C2929.7,416.48 2950.36,416.48 2969.89,416.48 " fill="none" id="GameInterface-Engine" style="stroke:#181818;stroke-width:1.0;"/><polygon fill="none" points="2934.5,399.6255,2938.5,403.6255,2934.5,407.6255,2930.5,403.6255" style="stroke:#B38D22;stroke-width:1.0;"/><text fill="#000000" font-family="sans-serif" font-size="13" lengthAdjust="spacing" textLength="10" x="2941.5" y="409.5083">ui</text><text fill="#000000" font-family="sans-serif" font-size="13" lengthAdjust="spacing" textLength="7" x="2919.1608" y="412.5132">1</text></g><!--link Engine to GameController--><g id="link_Engine_GameController"><path codeLine="176" d="M3128.07,416.48 C3160.69,416.48 3198.18,416.48 3229.81,416.48 " fill="none" id="Engine-GameController" style="stroke:#181818;stroke-width:1.0;"/><polygon fill="none" points="3151.5,399.6255,3155.5,403.6255,3151.5,407.6255,3147.5,403.6255" style="stroke:#B38D22;stroke-width:1.0;"/><text fill="#000000" font-family="sans-serif" font-size="13" lengthAdjust="spacing" textLength="53" x="3158.5" y="409.5083">controller</text><text fill="#000000" font-family="sans-serif" font-size="13" lengthAdjust="spacing" textLength="7" x="3215.2107" y="412.6218">1</text></g><!--link CLIController to GameController--><g id="link_CLIController_GameController"><path codeLine="179" d="M3120.79,211.07 C3157.18,252.57 3196.7132,297.6757 3235.1432,341.5057 " fill="none" id="CLIController-to-GameController" style="stroke:#181818;stroke-width:1.0;"/><polygon fill="none" points="3247.01,355.04,3239.6546,337.5501,3230.6317,345.4613,3247.01,355.04" style="stroke:#181818;stroke-width:1.0;"/></g><!--link CLIEngine to Engine--><g id="link_CLIEngine_Engine"><path codeLine="180" d="M3202.61,211.07 C3171.42,252.57 3138.1742,296.8206 3105.2342,340.6506 " fill="none" id="CLIEngine-to-Engine" style="stroke:#181818;stroke-width:1.0;"/><polygon fill="none" points="3094.42,355.04,3110.0306,344.2554,3100.4377,337.0459,3094.42,355.04" style="stroke:#181818;stroke-width:1.0;"/></g><!--link CLI to GameInterface--><g id="link_CLI_GameInterface"><path codeLine="181" d="M2848,192.6 C2848,241.57 2848,315.56 2848,364.65 " fill="none" id="CLI-to-GameInterface" style="stroke:#181818;stroke-width:1.0;stroke-dasharray:7.0,7.0;"/><polygon fill="none" points="2848,382.65,2854,364.65,2842,364.65,2848,382.65" style="stroke:#181818;stroke-width:1.0;"/></g><!--link CLI to CLIController--><g id="link_CLI_CLIController"><path codeLine="182" d="M2904.07,158.98 C2934.66,158.98 2972.83,158.98 3005.43,158.98 " fill="none" id="CLI-CLIController" style="stroke:#181818;stroke-width:1.0;"/><rect fill="none" height="6" style="stroke:#C82930;stroke-width:1.0;" width="6" x="2924.25" y="144.1255"/><text fill="#000000" font-family="sans-serif" font-size="13" lengthAdjust="spacing" textLength="53" x="2934.25" y="152.0083">controller</text><text fill="#000000" font-family="sans-serif" font-size="13" lengthAdjust="spacing" textLength="7" x="2990.3286" y="155.102">1</text></g><!--link CLI to CLIEngine--><g id="link_CLI_CLIEngine"><path codeLine="183" d="M2875.94,125.43 C2901.7,97.34 2942.72,59.3 2988,42.98 C3061.59,16.45 3095.07,6 3164,42.98 C3189.45,56.64 3207.92,82.82 3220.38,106.86 " fill="none" id="CLI-CLIEngine" style="stroke:#181818;stroke-width:1.0;"/><rect fill="none" height="6" style="stroke:#C82930;stroke-width:1.0;" width="6" x="3020" y="21.1255"/><text fill="#000000" font-family="sans-serif" font-size="13" lengthAdjust="spacing" textLength="38" x="3030" y="29.0083">engine</text><text fill="#000000" font-family="sans-serif" font-size="13" lengthAdjust="spacing" textLength="7" x="3210.1389" y="95.7712">1</text></g><!--reverse link GameController to GUIController--><g id="link_GameController_GUIController"><path codeLine="186" d="M3246.3826,492.1143 C3154.6926,618.3643 2941.09,903.46 2722,1126.98 C2701.28,1148.12 2676.96,1169.57 2654.88,1187.97 " fill="none" id="GameController-backto-GUIController" style="stroke:#181818;stroke-width:1.0;"/><polygon fill="none" points="3256.96,477.55,3241.5278,488.5885,3251.2373,495.6401,3256.96,477.55" style="stroke:#181818;stroke-width:1.0;"/></g><!--reverse link Engine to GUIEngine--><g id="link_Engine_GUIEngine"><path codeLine="187" d="M2997.6062,492.5959 C2919.5162,606.7359 2760.23,839.55 2673.12,966.88 " fill="none" id="Engine-backto-GUIEngine" style="stroke:#181818;stroke-width:1.0;"/><polygon fill="none" points="3007.77,477.74,2992.6542,489.2079,3002.5582,495.9838,3007.77,477.74" style="stroke:#181818;stroke-width:1.0;"/></g><!--reverse link GameInterface to GameView--><g id="link_GameInterface_GameView"><path codeLine="188" d="M2807.0179,463.5013 C2770.3479,504.6713 2717.37,564.14 2662.6,625.64 " fill="none" id="GameInterface-backto-GameView" style="stroke:#181818;stroke-width:1.0;stroke-dasharray:7.0,7.0;"/><polygon fill="none" points="2818.99,450.06,2802.5374,459.5106,2811.4983,467.492,2818.99,450.06" style="stroke:#181818;stroke-width:1.0;"/></g><!--link GameView to GUIController--><g id="link_GameView_GUIController"><path codeLine="189" d="M2476.75,842.36 C2465.36,860.91 2455.45,880.77 2449,900.98 C2418.46,996.67 2405.33,1036.52 2449,1126.98 C2460.55,1150.91 2479.98,1171.3 2500.77,1187.85 " fill="none" id="GameView-GUIController" style="stroke:#181818;stroke-width:1.0;"/><rect fill="none" height="6" style="stroke:#C82930;stroke-width:1.0;" width="6" x="2452" y="1044.6255"/><text fill="#000000" font-family="sans-serif" font-size="13" lengthAdjust="spacing" textLength="53" x="2462" y="1052.5083">controller</text><text fill="#000000" font-family="sans-serif" font-size="13" lengthAdjust="spacing" textLength="7" x="2481.3094" y="1176.7599">1</text></g><!--link GameView to GUIEngine--><g id="link_GameView_GUIEngine"><path codeLine="190" d="M2584.9,842.01 C2591.74,882.95 2599.42,928.87 2605.75,966.76 " fill="none" id="GameView-GUIEngine" style="stroke:#181818;stroke-width:1.0;"/><rect fill="none" height="6" style="stroke:#C82930;stroke-width:1.0;" width="6" x="2596" y="881.1255"/><text fill="#000000" font-family="sans-serif" font-size="13" lengthAdjust="spacing" textLength="38" x="2606" y="889.0083">engine</text><text fill="#000000" font-family="sans-serif" font-size="13" lengthAdjust="spacing" textLength="7" x="2597.2059" y="955.6355">1</text></g><!--link GUIEngine to GUIController--><!--link ViewController to View--><g id="link_ViewController_View"><path codeLine="193" d="M1210.85,416.48 C1370.31,416.48 1717.5,416.48 1898.7,416.48 " fill="none" id="ViewController-View" style="stroke:#181818;stroke-width:1.0;"/><polygon fill="none" points="1527.25,399.6255,1531.25,403.6255,1527.25,407.6255,1523.25,403.6255" style="stroke:#B38D22;stroke-width:1.0;"/><text fill="#000000" font-family="sans-serif" font-size="13" lengthAdjust="spacing" textLength="53" x="1534.25" y="409.5083">controller</text><text fill="#000000" font-family="sans-serif" font-size="13" lengthAdjust="spacing" textLength="7" x="1218.6296" y="412.7811">1</text></g><!--link View to ViewManager--><g id="link_View_ViewManager"><path codeLine="194" d="M2129.34,416.48 C2155.01,416.48 2182.31,416.48 2208.27,416.48 " fill="none" id="View-ViewManager" style="stroke:#181818;stroke-width:1.0;"/><rect fill="none" height="6" style="stroke:#C82930;stroke-width:1.0;" width="6" x="2149.25" y="401.6255"/><text fill="#000000" font-family="sans-serif" font-size="13" lengthAdjust="spacing" textLength="31" x="2159.25" y="409.5083">views</text><text fill="#000000" font-family="sans-serif" font-size="13" lengthAdjust="spacing" textLength="5" x="2136.8891" y="412.962">*</text></g><!--reverse link ViewController to HomeViewController--><g id="link_ViewController_HomeViewController"><path codeLine="197" d="M1060.8364,459.4329 C1025.5564,480.7629 992.17,498.35 946,514.98 C862.85,544.93 822.67,502.26 751,553.98 C710.83,582.97 684.27,632.98 668.35,672.79 " fill="none" id="ViewController-backto-HomeViewController" style="stroke:#181818;stroke-width:1.0;"/><polygon fill="none" points="1076.24,450.12,1057.7321,454.2984,1063.9407,464.5674,1076.24,450.12" style="stroke:#181818;stroke-width:1.0;"/></g><!--reverse link View to HomeView--><g id="link_View_HomeView"><path codeLine="198" d="M1913.3071,518.5928 C1898.3671,534.4028 1895.65,537.9 1882,553.98 C1846.8,595.45 1810.17,645.32 1784.29,681.87 " fill="none" id="View-backto-HomeView" style="stroke:#181818;stroke-width:1.0;"/><polygon fill="none" points="1925.67,505.51,1908.9462,514.4718,1917.6681,522.7137,1925.67,505.51" style="stroke:#181818;stroke-width:1.0;"/></g><!--reverse link ViewController to GameViewController--><g id="link_ViewController_GameViewController"><path codeLine="199" d="M1070.0366,461.4898 C1037.5966,487.4998 1007.17,514.66 974,553.98 C950.6,581.72 928.55,614.78 910.3,644.89 " fill="none" id="ViewController-backto-GameViewController" style="stroke:#181818;stroke-width:1.0;"/><polygon fill="none" points="1084.08,450.23,1066.2833,456.8087,1073.7899,466.1709,1084.08,450.23" style="stroke:#181818;stroke-width:1.0;"/></g><!--reverse link View to GameView--><g id="link_View_GameView"><path codeLine="200" d="M2145.0971,496.0539 C2165.2271,506.3139 2170.32,507.69 2191,514.98 C2285.06,548.16 2325.24,504.78 2412,553.98 C2443.47,571.83 2471.62,598.55 2495.01,625.95 " fill="none" id="View-backto-GameView" style="stroke:#181818;stroke-width:1.0;"/><polygon fill="none" points="2129.06,487.88,2142.3724,501.3996,2147.8217,490.7082,2129.06,487.88" style="stroke:#181818;stroke-width:1.0;"/></g><!--reverse link ViewController to SettingsViewController--><g id="link_ViewController_SettingsViewController"><path codeLine="201" d="M1127,468.06 C1127,513.63 1127,580.12 1127,644.95 " fill="none" id="ViewController-backto-SettingsViewController" style="stroke:#181818;stroke-width:1.0;"/><polygon fill="none" points="1127,450.06,1121,468.06,1133,468.06,1127,450.06" style="stroke:#181818;stroke-width:1.0;"/></g><!--reverse link View to SettingsView--><g id="link_View_SettingsView"><path codeLine="202" d="M2014,523.78 C2014,580.48 2014,634.12 2014,681.64 " fill="none" id="View-backto-SettingsView" style="stroke:#181818;stroke-width:1.0;"/><polygon fill="none" points="2014,505.78,2008,523.78,2020,523.78,2014,505.78" style="stroke:#181818;stroke-width:1.0;"/></g><!--reverse link ViewController to SavesViewController--><g id="link_ViewController_SavesViewController"><path codeLine="203" d="M1179.22,461.9753 C1210.68,489.0653 1242.28,517.2 1280,553.98 C1319.36,592.36 1361.72,637.51 1394.05,672.87 " fill="none" id="ViewController-backto-SavesViewController" style="stroke:#181818;stroke-width:1.0;"/><polygon fill="none" points="1165.58,450.23,1175.3049,466.5219,1183.1351,457.4286,1165.58,450.23" style="stroke:#181818;stroke-width:1.0;"/></g><!--reverse link View to SavesView--><g id="link_View_SavesView"><path codeLine="204" d="M2115.8399,518.8277 C2130.7699,534.5377 2133.4,537.96 2147,553.98 C2185.23,599.02 2224.92,654.16 2250.66,691.24 " fill="none" id="View-backto-SavesView" style="stroke:#181818;stroke-width:1.0;"/><polygon fill="none" points="2103.44,505.78,2111.4907,522.961,2120.1891,514.6944,2103.44,505.78" style="stroke:#181818;stroke-width:1.0;"/></g><!--link Sprite to Image--><g id="link_Sprite_Image"><path codeLine="206" d="M399.31,459.07 C352.83,483.19 296.47,516.23 252,553.98 C195.59,601.86 144.33,673.39 119.96,709.83 " fill="none" id="Sprite-Image" style="stroke:#181818;stroke-width:1.0;"/><text fill="#000000" font-family="sans-serif" font-size="13" lengthAdjust="spacing" textLength="7" x="115.8966" y="698.529">1</text></g><!--SRC=[hLTVSwCs47_dKsYk3oMzu9c-UZeta_XyYQT9apixkOTE7nHGi2uWKH1ECgc_UrT8204IFb_h1opOtsfN-q-x1OwVS4eGOIbb1Bq527xueH8bZWMACrnLw0BdPC6PA7cMaL9ZvEydTCrPGb0kd-Ph59dbU_JMxhL7TP5WGSACi_HaZdQS9XOk9UAIq7GhGg1H9lgahpGHMvko3roABkr3A6RrAQpfAOhD4KxS2bO2butyWMuz22-c4OB6JwCpQdL1Ur8-ufWq9bsPDrlXae0jox3F3Vo5TbISKOrNPrvShPo-UUyzZkSC7lTerOqmXusF53Hb8IFcA9kaDNL7xZqbpxrulSMmbq0bvy8Thn1iNu0ePIciHICCFsH4afSxe5IEit4cHQuO5LxYHreL6NubINZpy8t4OZQRkQ2_azVRabGLu63P2FJ0lf2CO1_EdIXI3q_KMA6CYo9xlS8ihS78eMDNmkeStQ-MNzVM5fStrqlpSd5clQoNcytgZujrz-7iVhaUkrzgTuqP2BLLYz0R11e4pnxo25Oi9dCRQW61cW9nBVzSRevilh1N3LeH40ShBKMUt2K70fo8HaROFCVkAKbAAqXooHqsTZfjTXeZ6TxH5D9lmrlSH73yNG_2IrklJOSTYAWioochNlASUFskDlOxlBCSPuiC4dZjpFa-X0X1MLfDepxNZbpH1-gKb_LoKla8Ji-Kp-EdMrWEg35cErpDqQBv7wgo8oMaf9iQ7Msafef87IJLhL03aOSwvxXC9CuXkW7TADqSa96HMeCVCDHZdMNhk2I4BROaVZhdBx2rNWsWcJxcWkSFN07rwd-nqTLW- -QGBW5DgdqQwHq-S0wrZ_a2hEFOy3JD3eJqEJZgS2IkyOuSid0bCLUG-X8tH-tgDydx4GlymOUVGzfNfDp9UqQ- -pX-nDwoM4aveK_4mQEt5MHKDrg2LKgFlF6EkFMyjM6aLaluhsevsW_Bh62-gJXqb6jxvwhEVM6PbFYvAn4g-KzHmclmd9-ZhHSAxyR5e6of01xSP6qP6TecUepjR8cEz8O_5ySQjPGVzxrJ6bIdWZFPGWubglPv9KWUjXbrYYRhKyPn4fx5WdBc37JjK-Zke2sVmEt77TIwAAdeD-dgKzZ-YH8S1dUcsBOXXLxCwjMidkNWPTwspOHczqkhlEc_eRIeVKzS_GWPZWmwR-zM4xt8TzM2x-s23quvxi9oDvvsb5FE6CsnTCY6vg2xaC_f2kqSUWwDK1DZbBb3PKJMWYIVRjV3qTbW7BHzDqNzh1qKwCD66NaKqRjVtmscr3dCJpKrg5B6We5PdfIuRjQM-yFC6lJdr2ZXpopwvyE0D-W6J8DGxvA2PlBRJ7CPnHgIfKvVqbpMkvw00LRBapXj1z0O9igW7vzHNJZqxK94qxMsvawQrSLOOKEDbFtk9XGUOySAMrf82_svfKb2s5zHV-SWKFiOzmwwc87Vx2bCy_oYU1hHpP2XJQLV71E6jah_gm7QvC3HuhkvEujOt9xUrxr3xpBhxU9exZnRcAl7vWzquOqY90ty3U_muykiYWaZCofBvQmfcC6_]--></g></svg>