<?xml version="1.0" encoding="us-ascii" standalone="no"?><svg xmlns="http://www.w3.org/2000/svg" xmlns:xlink="http://www.w3.org/1999/xlink" contentStyleType="text/css" height="905px" preserveAspectRatio="none" style="width:1339px;height:905px;background:#FFFFFF;" version="1.1" viewBox="0 0 1339 905" width="1339px" zoomAndPan="magnify"><defs/><g><!--cluster Escape--><g id="cluster_Escape"><path d="M8.5,6.0137 L60.5,6.0137 A3.75,3.75 0 0 1 63,8.5137 L70,30.6348 L1329.5,30.6348 A2.5,2.5 0 0 1 1332,33.1348 L1332,895.5137 A2.5,2.5 0 0 1 1329.5,898.0137 L8.5,898.0137 A2.5,2.5 0 0 1 6,895.5137 L6,8.5137 A2.5,2.5 0 0 1 8.5,6.0137 " fill="none" style="stroke:#000000;stroke-width:1.5;"/><line style="stroke:#000000;stroke-width:1.5;" x1="6" x2="70" y1="30.6348" y2="30.6348"/><text fill="#000000" font-family="sans-serif" font-size="14" font-weight="bold" lengthAdjust="spacing" textLength="51" x="10" y="23.1211">Escape</text></g><!--cluster Outils--><g id="cluster_Outils"><path d="M32.5,51.0137 L74.5,51.0137 A3.75,3.75 0 0 1 77,53.5137 L84,75.6348 L1305.5,75.6348 A2.5,2.5 0 0 1 1308,78.1348 L1308,871.5137 A2.5,2.5 0 0 1 1305.5,874.0137 L32.5,874.0137 A2.5,2.5 0 0 1 30,871.5137 L30,53.5137 A2.5,2.5 0 0 1 32.5,51.0137 " fill="none" style="stroke:#000000;stroke-width:1.5;"/><line style="stroke:#000000;stroke-width:1.5;" x1="30" x2="84" y1="75.6348" y2="75.6348"/><text fill="#000000" font-family="sans-serif" font-size="14" font-weight="bold" lengthAdjust="spacing" textLength="41" x="34" y="68.1211">Outils</text></g><!--class Donnees--><g id="elem_Donnees"><rect codeLine="3" fill="#F1F1F1" height="155.7266" id="Donnees" rx="2.5" ry="2.5" style="stroke:#181818;stroke-width:0.5;" width="266" x="82" y="127.0137"/><ellipse cx="182.25" cy="143.0137" fill="#ADD1B2" rx="11" ry="11" style="stroke:#181818;stroke-width:1.0;"/><path d="M185.0156,138.8887 Q185.1719,138.6699 185.3594,138.5605 Q185.5469,138.4512 185.7656,138.4512 Q186.1406,138.4512 186.375,138.7168 Q186.6094,138.9668 186.6094,139.5762 L186.6094,141.0293 Q186.6094,141.6387 186.375,141.9043 Q186.1406,142.1699 185.7656,142.1699 Q185.4219,142.1699 185.2188,141.9668 Q185.0156,141.7793 184.9063,141.2637 Q184.8594,140.9043 184.6719,140.7168 Q184.3438,140.3418 183.7344,140.123 Q183.125,139.9043 182.5,139.9043 Q181.7344,139.9043 181.0938,140.2324 Q180.4688,140.5605 179.9688,141.3105 Q179.4844,142.0605 179.4844,143.0918 L179.4844,144.1855 Q179.4844,145.4199 180.375,146.248 Q181.2656,147.0605 182.8594,147.0605 Q183.7969,147.0605 184.4531,146.8105 Q184.8438,146.6543 185.2656,146.2168 Q185.5313,145.9512 185.6719,145.873 Q185.8281,145.7949 186.0313,145.7949 Q186.3594,145.7949 186.6094,146.0605 Q186.875,146.3105 186.875,146.6543 Q186.875,146.998 186.5313,147.4043 Q186.0313,147.9824 185.2344,148.3105 Q184.1563,148.7637 182.8594,148.7637 Q181.3438,148.7637 180.1406,148.1387 Q179.1563,147.6387 178.4688,146.5762 Q177.7813,145.498 177.7813,144.2168 L177.7813,143.0605 Q177.7813,141.7324 178.3906,140.5918 Q179.0156,139.4355 180.1094,138.8262 Q181.2031,138.2012 182.4375,138.2012 Q183.1719,138.2012 183.8125,138.373 Q184.4688,138.5293 185.0156,138.8887 Z " fill="#000000"/><text fill="#000000" font-family="sans-serif" font-size="14" lengthAdjust="spacing" textLength="57" x="202.75" y="148.8105">Donnees</text><line style="stroke:#181818;stroke-width:0.5;" x1="83" x2="347" y1="159.0137" y2="159.0137"/><ellipse cx="93" cy="173.8242" fill="none" rx="3" ry="3" style="stroke:#038048;stroke-width:1.0;"/><text fill="#000000" font-family="sans-serif" font-size="14" lengthAdjust="spacing" text-decoration="underline" textLength="170" x="102" y="178.1211">String APPDATA_FOLDER</text><ellipse cx="93" cy="192.4453" fill="none" rx="3" ry="3" style="stroke:#038048;stroke-width:1.0;"/><text fill="#000000" font-family="sans-serif" font-size="14" lengthAdjust="spacing" text-decoration="underline" textLength="103" x="102" y="196.7422">boolean DEBUG</text><ellipse cx="93" cy="211.0664" fill="none" rx="3" ry="3" style="stroke:#038048;stroke-width:1.0;"/><text fill="#000000" font-family="sans-serif" font-size="14" lengthAdjust="spacing" text-decoration="underline" textLength="240" x="102" y="215.3633">Set&lt;Locale&gt; SUPPORTED_LOCALES</text><text fill="#000000" font-family="sans-serif" font-size="14" lengthAdjust="spacing" textLength="12" x="102" y="233.9844">...</text><rect fill="#F24D5C" height="6" style="stroke:#C82930;stroke-width:1.0;" width="6" x="90" y="267.9297"/><text fill="#000000" font-family="sans-serif" font-size="14" lengthAdjust="spacing" textLength="67" x="102" y="275.2266">Donnees()</text><line style="stroke:#181818;stroke-width:1.0;stroke-dasharray:1.0,2.0;" x1="83" x2="174" y1="250.8086" y2="250.8086"/><text fill="#000000" font-family="sans-serif" font-size="14" lengthAdjust="spacing" textLength="82" x="174" y="256.1055">Constructeur</text><line style="stroke:#181818;stroke-width:1.0;stroke-dasharray:1.0,2.0;" x1="256" x2="347" y1="250.8086" y2="250.8086"/></g><!--class Resources--><g id="elem_Resources"><rect codeLine="12" fill="#F1F1F1" height="234.2109" id="Resources" rx="2.5" ry="2.5" style="stroke:#181818;stroke-width:0.5;" width="279" x="383.5" y="88.0137"/><ellipse cx="484.75" cy="104.0137" fill="#ADD1B2" rx="11" ry="11" style="stroke:#181818;stroke-width:1.0;"/><path d="M487.5156,99.8887 Q487.6719,99.6699 487.8594,99.5605 Q488.0469,99.4512 488.2656,99.4512 Q488.6406,99.4512 488.875,99.7168 Q489.1094,99.9668 489.1094,100.5762 L489.1094,102.0293 Q489.1094,102.6387 488.875,102.9043 Q488.6406,103.1699 488.2656,103.1699 Q487.9219,103.1699 487.7188,102.9668 Q487.5156,102.7793 487.4063,102.2637 Q487.3594,101.9043 487.1719,101.7168 Q486.8438,101.3418 486.2344,101.123 Q485.625,100.9043 485,100.9043 Q484.2344,100.9043 483.5938,101.2324 Q482.9688,101.5605 482.4688,102.3105 Q481.9844,103.0605 481.9844,104.0918 L481.9844,105.1855 Q481.9844,106.4199 482.875,107.248 Q483.7656,108.0605 485.3594,108.0605 Q486.2969,108.0605 486.9531,107.8105 Q487.3438,107.6543 487.7656,107.2168 Q488.0313,106.9512 488.1719,106.873 Q488.3281,106.7949 488.5313,106.7949 Q488.8594,106.7949 489.1094,107.0605 Q489.375,107.3105 489.375,107.6543 Q489.375,107.998 489.0313,108.4043 Q488.5313,108.9824 487.7344,109.3105 Q486.6563,109.7637 485.3594,109.7637 Q483.8438,109.7637 482.6406,109.1387 Q481.6563,108.6387 480.9688,107.5762 Q480.2813,106.498 480.2813,105.2168 L480.2813,104.0605 Q480.2813,102.7324 480.8906,101.5918 Q481.5156,100.4355 482.6094,99.8262 Q483.7031,99.2012 484.9375,99.2012 Q485.6719,99.2012 486.3125,99.373 Q486.9688,99.5293 487.5156,99.8887 Z " fill="#000000"/><text fill="#000000" font-family="sans-serif" font-size="14" lengthAdjust="spacing" textLength="68" x="505.25" y="109.8105">Resources</text><line style="stroke:#181818;stroke-width:0.5;" x1="384.5" x2="661.5" y1="120.0137" y2="120.0137"/><rect fill="none" height="6" style="stroke:#C82930;stroke-width:1.0;" width="6" x="391.5" y="131.8242"/><text fill="#000000" font-family="sans-serif" font-size="14" lengthAdjust="spacing" text-decoration="underline" textLength="171" x="403.5" y="139.1211">Map&lt;String, Image&gt; assets</text><rect fill="#F24D5C" height="6" style="stroke:#C82930;stroke-width:1.0;" width="6" x="391.5" y="173.0664"/><text fill="#000000" font-family="sans-serif" font-size="14" lengthAdjust="spacing" textLength="78" x="403.5" y="180.3633">Resources()</text><line style="stroke:#181818;stroke-width:1.0;stroke-dasharray:1.0,2.0;" x1="384.5" x2="482" y1="155.9453" y2="155.9453"/><text fill="#000000" font-family="sans-serif" font-size="14" lengthAdjust="spacing" textLength="82" x="482" y="161.2422">Constructeur</text><line style="stroke:#181818;stroke-width:1.0;stroke-dasharray:1.0,2.0;" x1="564" x2="661.5" y1="155.9453" y2="155.9453"/><ellipse cx="394.5" cy="217.3086" fill="#84BE84" rx="3" ry="3" style="stroke:#038048;stroke-width:1.0;"/><text fill="#000000" font-family="sans-serif" font-size="14" lengthAdjust="spacing" text-decoration="underline" textLength="208" x="403.5" y="221.6055">InputStream getAsStream(String)</text><ellipse cx="394.5" cy="235.9297" fill="#84BE84" rx="3" ry="3" style="stroke:#038048;stroke-width:1.0;"/><text fill="#000000" font-family="sans-serif" font-size="14" lengthAdjust="spacing" text-decoration="underline" textLength="144" x="403.5" y="240.2266">Image getAsset(String)</text><ellipse cx="394.5" cy="254.5508" fill="#84BE84" rx="3" ry="3" style="stroke:#038048;stroke-width:1.0;"/><text fill="#000000" font-family="sans-serif" font-size="14" lengthAdjust="spacing" text-decoration="underline" textLength="253" x="403.5" y="258.8477">ResourceBundle getI18NBundle(Locale)</text><ellipse cx="394.5" cy="273.1719" fill="#84BE84" rx="3" ry="3" style="stroke:#038048;stroke-width:1.0;"/><text fill="#000000" font-family="sans-serif" font-size="14" lengthAdjust="spacing" text-decoration="underline" textLength="211" x="403.5" y="277.4688">ResourceBundle getI18NBundle()</text><ellipse cx="394.5" cy="291.793" fill="#84BE84" rx="3" ry="3" style="stroke:#038048;stroke-width:1.0;"/><text fill="#000000" font-family="sans-serif" font-size="14" lengthAdjust="spacing" text-decoration="underline" textLength="223" x="403.5" y="296.0898">String getI18NString(String, Locale)</text><ellipse cx="394.5" cy="310.4141" fill="#84BE84" rx="3" ry="3" style="stroke:#038048;stroke-width:1.0;"/><text fill="#000000" font-family="sans-serif" font-size="14" lengthAdjust="spacing" text-decoration="underline" textLength="173" x="403.5" y="314.7109">String getI18NString(String)</text><line style="stroke:#181818;stroke-width:1.0;stroke-dasharray:1.0,2.0;" x1="384.5" x2="492" y1="197.1875" y2="197.1875"/><text fill="#000000" font-family="sans-serif" font-size="14" lengthAdjust="spacing" textLength="62" x="492" y="202.4844">M&#233;thodes</text><line style="stroke:#181818;stroke-width:1.0;stroke-dasharray:1.0,2.0;" x1="554" x2="661.5" y1="197.1875" y2="197.1875"/></g><!--class FabriqueId--><g id="elem_FabriqueId"><rect codeLine="25" fill="#F1F1F1" height="178.3477" id="FabriqueId" rx="2.5" ry="2.5" style="stroke:#181818;stroke-width:0.5;" width="181" x="697.5" y="116.0137"/><ellipse cx="749.75" cy="132.0137" fill="#ADD1B2" rx="11" ry="11" style="stroke:#181818;stroke-width:1.0;"/><path d="M752.5156,127.8887 Q752.6719,127.6699 752.8594,127.5605 Q753.0469,127.4512 753.2656,127.4512 Q753.6406,127.4512 753.875,127.7168 Q754.1094,127.9668 754.1094,128.5762 L754.1094,130.0293 Q754.1094,130.6387 753.875,130.9043 Q753.6406,131.1699 753.2656,131.1699 Q752.9219,131.1699 752.7188,130.9668 Q752.5156,130.7793 752.4063,130.2637 Q752.3594,129.9043 752.1719,129.7168 Q751.8438,129.3418 751.2344,129.123 Q750.625,128.9043 750,128.9043 Q749.2344,128.9043 748.5938,129.2324 Q747.9688,129.5605 747.4688,130.3105 Q746.9844,131.0605 746.9844,132.0918 L746.9844,133.1855 Q746.9844,134.4199 747.875,135.248 Q748.7656,136.0605 750.3594,136.0605 Q751.2969,136.0605 751.9531,135.8105 Q752.3438,135.6543 752.7656,135.2168 Q753.0313,134.9512 753.1719,134.873 Q753.3281,134.7949 753.5313,134.7949 Q753.8594,134.7949 754.1094,135.0605 Q754.375,135.3105 754.375,135.6543 Q754.375,135.998 754.0313,136.4043 Q753.5313,136.9824 752.7344,137.3105 Q751.6563,137.7637 750.3594,137.7637 Q748.8438,137.7637 747.6406,137.1387 Q746.6563,136.6387 745.9688,135.5762 Q745.2813,134.498 745.2813,133.2168 L745.2813,132.0605 Q745.2813,130.7324 745.8906,129.5918 Q746.5156,128.4355 747.6094,127.8262 Q748.7031,127.2012 749.9375,127.2012 Q750.6719,127.2012 751.3125,127.373 Q751.9688,127.5293 752.5156,127.8887 Z " fill="#000000"/><text fill="#000000" font-family="sans-serif" font-size="14" lengthAdjust="spacing" textLength="68" x="770.25" y="137.8105">FabriqueId</text><line style="stroke:#181818;stroke-width:0.5;" x1="698.5" x2="877.5" y1="148.0137" y2="148.0137"/><rect fill="none" height="6" style="stroke:#C82930;stroke-width:1.0;" width="6" x="705.5" y="159.8242"/><text fill="#000000" font-family="sans-serif" font-size="14" lengthAdjust="spacing" text-decoration="underline" textLength="125" x="717.5" y="167.1211">FabriqueId instance</text><rect fill="none" height="6" style="stroke:#C82930;stroke-width:1.0;" width="6" x="705.5" y="178.4453"/><text fill="#000000" font-family="sans-serif" font-size="14" lengthAdjust="spacing" textLength="30" x="717.5" y="185.7422">int id</text><rect fill="#F24D5C" height="6" style="stroke:#C82930;stroke-width:1.0;" width="6" x="705.5" y="219.6875"/><text fill="#000000" font-family="sans-serif" font-size="14" lengthAdjust="spacing" textLength="78" x="717.5" y="226.9844">FabriqueId()</text><line style="stroke:#181818;stroke-width:1.0;stroke-dasharray:1.0,2.0;" x1="698.5" x2="747" y1="202.5664" y2="202.5664"/><text fill="#000000" font-family="sans-serif" font-size="14" lengthAdjust="spacing" textLength="82" x="747" y="207.8633">Constructeur</text><line style="stroke:#181818;stroke-width:1.0;stroke-dasharray:1.0,2.0;" x1="829" x2="877.5" y1="202.5664" y2="202.5664"/><ellipse cx="708.5" cy="263.9297" fill="#84BE84" rx="3" ry="3" style="stroke:#038048;stroke-width:1.0;"/><text fill="#000000" font-family="sans-serif" font-size="14" lengthAdjust="spacing" text-decoration="underline" textLength="155" x="717.5" y="268.2266">FabriqueId getInstance()</text><ellipse cx="708.5" cy="282.5508" fill="#84BE84" rx="3" ry="3" style="stroke:#038048;stroke-width:1.0;"/><text fill="#000000" font-family="sans-serif" font-size="14" lengthAdjust="spacing" textLength="60" x="717.5" y="286.8477">int getId()</text><line style="stroke:#181818;stroke-width:1.0;stroke-dasharray:1.0,2.0;" x1="698.5" x2="757" y1="243.8086" y2="243.8086"/><text fill="#000000" font-family="sans-serif" font-size="14" lengthAdjust="spacing" textLength="62" x="757" y="249.1055">M&#233;thodes</text><line style="stroke:#181818;stroke-width:1.0;stroke-dasharray:1.0,2.0;" x1="819" x2="877.5" y1="243.8086" y2="243.8086"/></g><!--class ErrorBehavior--><g id="elem_ErrorBehavior"><rect codeLine="35" fill="#F1F1F1" height="118.4844" id="ErrorBehavior" rx="2.5" ry="2.5" style="stroke:#181818;stroke-width:0.5;" width="337" x="46.5" y="561.0137"/><ellipse cx="166.75" cy="577.0137" fill="#ADD1B2" rx="11" ry="11" style="stroke:#181818;stroke-width:1.0;"/><path d="M169.5156,572.8887 Q169.6719,572.6699 169.8594,572.5605 Q170.0469,572.4512 170.2656,572.4512 Q170.6406,572.4512 170.875,572.7168 Q171.1094,572.9668 171.1094,573.5762 L171.1094,575.0293 Q171.1094,575.6387 170.875,575.9043 Q170.6406,576.1699 170.2656,576.1699 Q169.9219,576.1699 169.7188,575.9668 Q169.5156,575.7793 169.4063,575.2637 Q169.3594,574.9043 169.1719,574.7168 Q168.8438,574.3418 168.2344,574.123 Q167.625,573.9043 167,573.9043 Q166.2344,573.9043 165.5938,574.2324 Q164.9688,574.5605 164.4688,575.3105 Q163.9844,576.0605 163.9844,577.0918 L163.9844,578.1855 Q163.9844,579.4199 164.875,580.248 Q165.7656,581.0605 167.3594,581.0605 Q168.2969,581.0605 168.9531,580.8105 Q169.3438,580.6543 169.7656,580.2168 Q170.0313,579.9512 170.1719,579.873 Q170.3281,579.7949 170.5313,579.7949 Q170.8594,579.7949 171.1094,580.0605 Q171.375,580.3105 171.375,580.6543 Q171.375,580.998 171.0313,581.4043 Q170.5313,581.9824 169.7344,582.3105 Q168.6563,582.7637 167.3594,582.7637 Q165.8438,582.7637 164.6406,582.1387 Q163.6563,581.6387 162.9688,580.5762 Q162.2813,579.498 162.2813,578.2168 L162.2813,577.0605 Q162.2813,575.7324 162.8906,574.5918 Q163.5156,573.4355 164.6094,572.8262 Q165.7031,572.2012 166.9375,572.2012 Q167.6719,572.2012 168.3125,572.373 Q168.9688,572.5293 169.5156,572.8887 Z " fill="#000000"/><text fill="#000000" font-family="sans-serif" font-size="14" lengthAdjust="spacing" textLength="88" x="187.25" y="582.8105">ErrorBehavior</text><line style="stroke:#181818;stroke-width:0.5;" x1="47.5" x2="382.5" y1="593.0137" y2="593.0137"/><ellipse cx="57.5" cy="630.4453" fill="#84BE84" rx="3" ry="3" style="stroke:#038048;stroke-width:1.0;"/><text fill="#000000" font-family="sans-serif" font-size="14" lengthAdjust="spacing" text-decoration="underline" textLength="189" x="66.5" y="634.7422">void handle(Exception, String)</text><ellipse cx="57.5" cy="649.0664" fill="#84BE84" rx="3" ry="3" style="stroke:#038048;stroke-width:1.0;"/><text fill="#000000" font-family="sans-serif" font-size="14" lengthAdjust="spacing" text-decoration="underline" textLength="181" x="66.5" y="653.3633">void crash(Exception, String)</text><ellipse cx="57.5" cy="667.6875" fill="#84BE84" rx="3" ry="3" style="stroke:#038048;stroke-width:1.0;"/><text fill="#000000" font-family="sans-serif" font-size="14" lengthAdjust="spacing" text-decoration="underline" textLength="311" x="66.5" y="671.9844">void showWarning(String, String, String, boolean)</text><line style="stroke:#181818;stroke-width:1.0;stroke-dasharray:1.0,2.0;" x1="47.5" x2="184" y1="610.3242" y2="610.3242"/><text fill="#000000" font-family="sans-serif" font-size="14" lengthAdjust="spacing" textLength="62" x="184" y="615.6211">M&#233;thodes</text><line style="stroke:#181818;stroke-width:1.0;stroke-dasharray:1.0,2.0;" x1="246" x2="382.5" y1="610.3242" y2="610.3242"/></g><!--class FileManager--><g id="elem_FileManager"><rect codeLine="42" fill="#F1F1F1" height="252.832" id="FileManager" rx="2.5" ry="2.5" style="stroke:#181818;stroke-width:0.5;" width="386" x="419" y="493.5137"/><ellipse cx="568.25" cy="509.5137" fill="#ADD1B2" rx="11" ry="11" style="stroke:#181818;stroke-width:1.0;"/><path d="M571.0156,505.3887 Q571.1719,505.1699 571.3594,505.0605 Q571.5469,504.9512 571.7656,504.9512 Q572.1406,504.9512 572.375,505.2168 Q572.6094,505.4668 572.6094,506.0762 L572.6094,507.5293 Q572.6094,508.1387 572.375,508.4043 Q572.1406,508.6699 571.7656,508.6699 Q571.4219,508.6699 571.2188,508.4668 Q571.0156,508.2793 570.9063,507.7637 Q570.8594,507.4043 570.6719,507.2168 Q570.3438,506.8418 569.7344,506.623 Q569.125,506.4043 568.5,506.4043 Q567.7344,506.4043 567.0938,506.7324 Q566.4688,507.0605 565.9688,507.8105 Q565.4844,508.5605 565.4844,509.5918 L565.4844,510.6855 Q565.4844,511.9199 566.375,512.748 Q567.2656,513.5605 568.8594,513.5605 Q569.7969,513.5605 570.4531,513.3105 Q570.8438,513.1543 571.2656,512.7168 Q571.5313,512.4512 571.6719,512.373 Q571.8281,512.2949 572.0313,512.2949 Q572.3594,512.2949 572.6094,512.5605 Q572.875,512.8105 572.875,513.1543 Q572.875,513.498 572.5313,513.9043 Q572.0313,514.4824 571.2344,514.8105 Q570.1563,515.2637 568.8594,515.2637 Q567.3438,515.2637 566.1406,514.6387 Q565.1563,514.1387 564.4688,513.0762 Q563.7813,511.998 563.7813,510.7168 L563.7813,509.5605 Q563.7813,508.2324 564.3906,507.0918 Q565.0156,505.9355 566.1094,505.3262 Q567.2031,504.7012 568.4375,504.7012 Q569.1719,504.7012 569.8125,504.873 Q570.4688,505.0293 571.0156,505.3887 Z " fill="#000000"/><text fill="#000000" font-family="sans-serif" font-size="14" lengthAdjust="spacing" textLength="79" x="588.75" y="515.3105">FileManager</text><line style="stroke:#181818;stroke-width:0.5;" x1="420" x2="804" y1="525.5137" y2="525.5137"/><line style="stroke:#181818;stroke-width:0.5;" x1="420" x2="804" y1="533.5137" y2="533.5137"/><ellipse cx="430" cy="548.3242" fill="#84BE84" rx="3" ry="3" style="stroke:#038048;stroke-width:1.0;"/><text fill="#000000" font-family="sans-serif" font-size="14" lengthAdjust="spacing" text-decoration="underline" textLength="141" x="439" y="552.6211">boolean delete(String)</text><ellipse cx="430" cy="566.9453" fill="#84BE84" rx="3" ry="3" style="stroke:#038048;stroke-width:1.0;"/><text fill="#000000" font-family="sans-serif" font-size="14" lengthAdjust="spacing" text-decoration="underline" textLength="274" x="439" y="571.2422">boolean write(JSONObject, String, boolean)</text><ellipse cx="430" cy="585.5664" fill="#84BE84" rx="3" ry="3" style="stroke:#038048;stroke-width:1.0;"/><text fill="#000000" font-family="sans-serif" font-size="14" lengthAdjust="spacing" text-decoration="underline" textLength="238" x="439" y="589.8633">JSONObject readFile(String, boolean)</text><ellipse cx="430" cy="604.1875" fill="#84BE84" rx="3" ry="3" style="stroke:#038048;stroke-width:1.0;"/><text fill="#000000" font-family="sans-serif" font-size="14" lengthAdjust="spacing" text-decoration="underline" textLength="360" x="439" y="608.4844">Map&lt;String, JSONObject&gt; readDirectory(String, boolean)</text><ellipse cx="430" cy="622.8086" fill="#84BE84" rx="3" ry="3" style="stroke:#038048;stroke-width:1.0;"/><text fill="#000000" font-family="sans-serif" font-size="14" lengthAdjust="spacing" text-decoration="underline" textLength="240" x="439" y="627.1055">JSONObject readResourceFile(String)</text><ellipse cx="430" cy="641.4297" fill="#84BE84" rx="3" ry="3" style="stroke:#038048;stroke-width:1.0;"/><text fill="#000000" font-family="sans-serif" font-size="14" lengthAdjust="spacing" text-decoration="underline" textLength="168" x="439" y="645.7266">void open(String, boolean)</text><ellipse cx="430" cy="660.0508" fill="#84BE84" rx="3" ry="3" style="stroke:#038048;stroke-width:1.0;"/><text fill="#000000" font-family="sans-serif" font-size="14" lengthAdjust="spacing" text-decoration="underline" textLength="117" x="439" y="664.3477">File getFile(String)</text><rect fill="#F24D5C" height="6" style="stroke:#C82930;stroke-width:1.0;" width="6" x="427" y="675.6719"/><text fill="#000000" font-family="sans-serif" font-size="14" lengthAdjust="spacing" text-decoration="underline" textLength="213" x="439" y="682.9688">boolean writeString(String, String)</text><rect fill="#F24D5C" height="6" style="stroke:#C82930;stroke-width:1.0;" width="6" x="427" y="694.293"/><text fill="#000000" font-family="sans-serif" font-size="14" lengthAdjust="spacing" text-decoration="underline" textLength="154" x="439" y="701.5898">String readString(String)</text><rect fill="#F24D5C" height="6" style="stroke:#C82930;stroke-width:1.0;" width="6" x="427" y="712.9141"/><text fill="#000000" font-family="sans-serif" font-size="14" lengthAdjust="spacing" text-decoration="underline" textLength="228" x="439" y="720.2109">JSONObject readJSONString(String)</text><rect fill="#F24D5C" height="6" style="stroke:#C82930;stroke-width:1.0;" width="6" x="427" y="731.5352"/><text fill="#000000" font-family="sans-serif" font-size="14" lengthAdjust="spacing" text-decoration="underline" textLength="164" x="439" y="738.832">SecretKey getSecretKey()</text></g><!--class ProceduralGenerator--><g id="elem_ProceduralGenerator"><rect codeLine="56" fill="#F1F1F1" height="476.2852" id="ProceduralGenerator" rx="2.5" ry="2.5" style="stroke:#181818;stroke-width:0.5;" width="452" x="840" y="382.0137"/><ellipse cx="994.75" cy="398.0137" fill="#ADD1B2" rx="11" ry="11" style="stroke:#181818;stroke-width:1.0;"/><path d="M997.5156,393.8887 Q997.6719,393.6699 997.8594,393.5605 Q998.0469,393.4512 998.2656,393.4512 Q998.6406,393.4512 998.875,393.7168 Q999.1094,393.9668 999.1094,394.5762 L999.1094,396.0293 Q999.1094,396.6387 998.875,396.9043 Q998.6406,397.1699 998.2656,397.1699 Q997.9219,397.1699 997.7188,396.9668 Q997.5156,396.7793 997.4063,396.2637 Q997.3594,395.9043 997.1719,395.7168 Q996.8438,395.3418 996.2344,395.123 Q995.625,394.9043 995,394.9043 Q994.2344,394.9043 993.5938,395.2324 Q992.9688,395.5605 992.4688,396.3105 Q991.9844,397.0605 991.9844,398.0918 L991.9844,399.1855 Q991.9844,400.4199 992.875,401.248 Q993.7656,402.0605 995.3594,402.0605 Q996.2969,402.0605 996.9531,401.8105 Q997.3438,401.6543 997.7656,401.2168 Q998.0313,400.9512 998.1719,400.873 Q998.3281,400.7949 998.5313,400.7949 Q998.8594,400.7949 999.1094,401.0605 Q999.375,401.3105 999.375,401.6543 Q999.375,401.998 999.0313,402.4043 Q998.5313,402.9824 997.7344,403.3105 Q996.6563,403.7637 995.3594,403.7637 Q993.8438,403.7637 992.6406,403.1387 Q991.6563,402.6387 990.9688,401.5762 Q990.2813,400.498 990.2813,399.2168 L990.2813,398.0605 Q990.2813,396.7324 990.8906,395.5918 Q991.5156,394.4355 992.6094,393.8262 Q993.7031,393.2012 994.9375,393.2012 Q995.6719,393.2012 996.3125,393.373 Q996.9688,393.5293 997.5156,393.8887 Z " fill="#000000"/><text fill="#000000" font-family="sans-serif" font-size="14" lengthAdjust="spacing" textLength="134" x="1015.25" y="403.8105">ProceduralGenerator</text><line style="stroke:#181818;stroke-width:0.5;" x1="841" x2="1291" y1="414.0137" y2="414.0137"/><rect fill="none" height="6" style="stroke:#C82930;stroke-width:1.0;" width="6" x="848" y="425.8242"/><text fill="#000000" font-family="sans-serif" font-size="14" lengthAdjust="spacing" text-decoration="underline" textLength="159" x="860" y="433.1211">double SPACE_DENSITY</text><rect fill="none" height="6" style="stroke:#C82930;stroke-width:1.0;" width="6" x="848" y="444.4453"/><text fill="#000000" font-family="sans-serif" font-size="14" lengthAdjust="spacing" text-decoration="underline" textLength="171" x="860" y="451.7422">Map&lt;String, Image&gt; assets</text><rect fill="none" height="6" style="stroke:#C82930;stroke-width:1.0;" width="6" x="848" y="463.0664"/><text fill="#000000" font-family="sans-serif" font-size="14" lengthAdjust="spacing" text-decoration="underline" textLength="93" x="860" y="470.3633">boolean WALL</text><rect fill="none" height="6" style="stroke:#C82930;stroke-width:1.0;" width="6" x="848" y="481.6875"/><text fill="#000000" font-family="sans-serif" font-size="14" lengthAdjust="spacing" text-decoration="underline" textLength="102" x="860" y="488.9844">boolean EMPTY</text><rect fill="none" height="6" style="stroke:#C82930;stroke-width:1.0;" width="6" x="848" y="500.3086"/><text fill="#000000" font-family="sans-serif" font-size="14" lengthAdjust="spacing" textLength="77" x="860" y="507.6055">char[][] level</text><rect fill="none" height="6" style="stroke:#C82930;stroke-width:1.0;" width="6" x="848" y="518.9297"/><text fill="#000000" font-family="sans-serif" font-size="14" lengthAdjust="spacing" textLength="253" x="860" y="526.2266">List&lt;ProceduralGenerator.Case&gt; visited</text><rect fill="none" height="6" style="stroke:#C82930;stroke-width:1.0;" width="6" x="848" y="537.5508"/><text fill="#000000" font-family="sans-serif" font-size="14" lengthAdjust="spacing" textLength="51" x="860" y="544.8477">int width</text><rect fill="none" height="6" style="stroke:#C82930;stroke-width:1.0;" width="6" x="848" y="556.1719"/><text fill="#000000" font-family="sans-serif" font-size="14" lengthAdjust="spacing" textLength="58" x="860" y="563.4688">int height</text><rect fill="none" height="6" style="stroke:#C82930;stroke-width:1.0;" width="6" x="848" y="574.793"/><text fill="#000000" font-family="sans-serif" font-size="14" lengthAdjust="spacing" textLength="202" x="860" y="582.0898">List&lt;Personnage&gt; personnages</text><rect fill="none" height="6" style="stroke:#C82930;stroke-width:1.0;" width="6" x="848" y="593.4141"/><text fill="#000000" font-family="sans-serif" font-size="14" lengthAdjust="spacing" textLength="121" x="860" y="600.7109">List&lt;Object&gt; objets</text><rect fill="none" height="6" style="stroke:#C82930;stroke-width:1.0;" width="6" x="848" y="612.0352"/><text fill="#000000" font-family="sans-serif" font-size="14" lengthAdjust="spacing" textLength="136" x="860" y="619.332">List&lt;Terrain&gt; terrains</text><rect fill="none" height="6" style="stroke:#C82930;stroke-width:1.0;" width="6" x="848" y="630.6563"/><text fill="#000000" font-family="sans-serif" font-size="14" lengthAdjust="spacing" textLength="62" x="860" y="637.9531">long seed</text><rect fill="none" height="6" style="stroke:#C82930;stroke-width:1.0;" width="6" x="848" y="649.2773"/><text fill="#000000" font-family="sans-serif" font-size="14" lengthAdjust="spacing" textLength="70" x="860" y="656.5742">int difficulty</text><ellipse cx="851" cy="693.5195" fill="#84BE84" rx="3" ry="3" style="stroke:#038048;stroke-width:1.0;"/><text fill="#000000" font-family="sans-serif" font-size="14" lengthAdjust="spacing" textLength="194" x="860" y="697.8164">ProceduralGenerator(long, int)</text><line style="stroke:#181818;stroke-width:1.0;stroke-dasharray:1.0,2.0;" x1="841" x2="1025" y1="673.3984" y2="673.3984"/><text fill="#000000" font-family="sans-serif" font-size="14" lengthAdjust="spacing" textLength="82" x="1025" y="678.6953">Constructeur</text><line style="stroke:#181818;stroke-width:1.0;stroke-dasharray:1.0,2.0;" x1="1107" x2="1291" y1="673.3984" y2="673.3984"/><ellipse cx="851" cy="734.7617" fill="#84BE84" rx="3" ry="3" style="stroke:#038048;stroke-width:1.0;"/><text fill="#000000" font-family="sans-serif" font-size="14" lengthAdjust="spacing" text-decoration="underline" textLength="124" x="860" y="739.0586">long genererSeed()</text><ellipse cx="851" cy="753.3828" fill="#84BE84" rx="3" ry="3" style="stroke:#038048;stroke-width:1.0;"/><text fill="#000000" font-family="sans-serif" font-size="14" lengthAdjust="spacing" textLength="120" x="860" y="757.6797">Monde getMonde()</text><rect fill="#F24D5C" height="6" style="stroke:#C82930;stroke-width:1.0;" width="6" x="848" y="769.0039"/><text fill="#000000" font-family="sans-serif" font-size="14" lengthAdjust="spacing" textLength="275" x="860" y="776.3008">void generateMaze(Random, int, int, int, int)</text><rect fill="#F24D5C" height="6" style="stroke:#C82930;stroke-width:1.0;" width="6" x="848" y="787.625"/><text fill="#000000" font-family="sans-serif" font-size="14" lengthAdjust="spacing" textLength="134" x="860" y="794.9219">void splash(Random)</text><rect fill="#F24D5C" height="6" style="stroke:#C82930;stroke-width:1.0;" width="6" x="848" y="806.2461"/><text fill="#000000" font-family="sans-serif" font-size="14" lengthAdjust="spacing" textLength="378" x="860" y="813.543">List&lt;ProceduralGenerator.Case&gt; getVoisinsEligibles(int, int)</text><rect fill="#F24D5C" height="6" style="stroke:#C82930;stroke-width:1.0;" width="6" x="848" y="824.8672"/><text fill="#000000" font-family="sans-serif" font-size="14" lengthAdjust="spacing" textLength="426" x="860" y="832.1641">List&lt;ProceduralGenerator.Case&gt; getVoisinsVisites(int, int, boolean)</text><rect fill="#F24D5C" height="6" style="stroke:#C82930;stroke-width:1.0;" width="6" x="848" y="843.4883"/><text fill="#000000" font-family="sans-serif" font-size="14" lengthAdjust="spacing" textLength="417" x="860" y="850.7852">ProceduralGenerator.Case caseVisiteAleatoire(Random, boolean)</text><line style="stroke:#181818;stroke-width:1.0;stroke-dasharray:1.0,2.0;" x1="841" x2="1035" y1="714.6406" y2="714.6406"/><text fill="#000000" font-family="sans-serif" font-size="14" lengthAdjust="spacing" textLength="62" x="1035" y="719.9375">M&#233;thodes</text><line style="stroke:#181818;stroke-width:1.0;stroke-dasharray:1.0,2.0;" x1="1097" x2="1291" y1="714.6406" y2="714.6406"/></g><!--SRC=[fLNTRfim5BxlK_YIg4satUsYYaG3hRAH1eMqrLHLbMDEmHkrcMtITLKVgC-n5viD-M4Ev6zSW6tETyvtVfrZyWCdW7n9S0xexGJf9rySZWj5CxauD0_9i9J8uum1rC_DSuhUfCAAadSKAK5PWjmmzDof-tWv3Zn_qYOyupm3p93dNznSjMe4THvmWZFee-Wc3CUJgUyz1kE16_ZHFw1UhsVj1vn99GgYe13Mp-xI5wUpEdy_iToTWEI581iETzVqHZW_hvm-GyDd7Re-qaXGyX0gApirCXLizET3fJm6QM5g0Hgol52Q0k1db81oPRLsAbQTLfWXMm4qtLtIIuON1Okp4ZRyzFcwsZbLUex3TdPKqaAwsZdBIE-mk0Mx9TkNU2RepmA6SNkwQp9K9nGp0fOePGhH-93ihtKUa_uQ8-FlWjH6N0qjyp_ULk- -45nSG8hdb0ih27kHcNCQenINcVL_4SWLvUmCxIYk4aK4bkcX89dobpiiMBqsxEzYocnBFCrWX9dk1z4-sPR3AeOC5EpgbwNqYw1Q-4iqlXxFlWDHMsXP6jOOfDivDXoTVR7reRJMqoyLULJeDHUlpf5CbkrSOxGzIJm7jhSnezKKQglsRakGhGcn0xgO4CQVbl5W0QmWcEr-m0Y80FKLNerNgyssBWm59n0N0cTNm41WjT6BDVKnBsOwOb7e3ln7px-EXjDl_tTNDGJupWs2NJB-ADomJ58ixX_k7r06SyYidm6Lwhp1rzu0IyriJgNEQjmmNLzehDA6ynHeagf6Ao2alkrBZ_FLMZQ9Bbk5wwzgb9Y249YoFbBLmXRAk2ui2OtKO_hqH4cHgTVzBuZJfe9mZ9Kpe_E8AwDac1XL829DTEEo674MbrrOBXoxjikkJYegUd3-1cUYHpv_BlbOhqQip3Cpx2jKvx2wqAnkkQuD9lsC9bGNltJQZEsjwhOijhMYbZdLHMtA4D6lIekhSOhhARkAIiCDLBtV_m80]--></g></svg>