<?xml version="1.0" encoding="windows-1252" standalone="no"?>
<svg xmlns="http://www.w3.org/2000/svg" xmlns:xlink="http://www.w3.org/1999/xlink" contentStyleType="text/css" height="1459px" preserveAspectRatio="none" style="width:3022px;height:1459px;background:#FFFFFF;" version="1.1" viewBox="0 0 3022 1459" width="3022px" zoomAndPan="magnify"><defs/><g><!--cluster Escape--><g id="cluster_Escape"><path d="M8.5,62 L65.5,62 A3.75,3.75 0 0 1 68,64.5 L75,84.2969 L2908.5,84.2969 A2.5,2.5 0 0 1 2911,86.7969 L2911,1449.5 A2.5,2.5 0 0 1 2908.5,1452 L8.5,1452 A2.5,2.5 0 0 1 6,1449.5 L6,64.5 A2.5,2.5 0 0 1 8.5,62 " fill="none" style="stroke:#000000;stroke-width:1.5;"/><line style="stroke:#000000;stroke-width:1.5;" x1="6" x2="75" y1="84.2969" y2="84.2969"/><text fill="#000000" font-family="sans-serif" font-size="14" font-weight="bold" lengthAdjust="spacing" textLength="56" x="10" y="76.9951">Escape</text></g><!--cluster Monde--><g id="cluster_Monde"><path d="M1138.5,300.5 L1192.5,300.5 A3.75,3.75 0 0 1 1195,303 L1202,322.7969 L2699.5,322.7969 A2.5,2.5 0 0 1 2702,325.2969 L2702,1425.5 A2.5,2.5 0 0 1 2699.5,1428 L1138.5,1428 A2.5,2.5 0 0 1 1136,1425.5 L1136,303 A2.5,2.5 0 0 1 1138.5,300.5 " fill="none" style="stroke:#000000;stroke-width:1.5;"/><line style="stroke:#000000;stroke-width:1.5;" x1="1136" x2="1202" y1="322.7969" y2="322.7969"/><text fill="#000000" font-family="sans-serif" font-size="14" font-weight="bold" lengthAdjust="spacing" textLength="53" x="1140" y="315.4951">Monde</text></g><!--cluster Outils--><g id="cluster_Outils"><path d="M600.5,382 L650.5,382 A3.75,3.75 0 0 1 653,384.5 L660,404.2969 L1109.5,404.2969 A2.5,2.5 0 0 1 1112,406.7969 L1112,1272.5 A2.5,2.5 0 0 1 1109.5,1275 L600.5,1275 A2.5,2.5 0 0 1 598,1272.5 L598,384.5 A2.5,2.5 0 0 1 600.5,382 " fill="none" style="stroke:#000000;stroke-width:1.5;"/><line style="stroke:#000000;stroke-width:1.5;" x1="598" x2="660" y1="404.2969" y2="404.2969"/><text fill="#000000" font-family="sans-serif" font-size="14" font-weight="bold" lengthAdjust="spacing" textLength="49" x="602" y="396.9951">Outils</text></g><!--cluster gui--><g id="cluster_gui"><path d="M2736.5,791.5 L2762.5,791.5 A3.75,3.75 0 0 1 2765,794 L2772,813.7969 L2876.5,813.7969 A2.5,2.5 0 0 1 2879,816.2969 L2879,904 A2.5,2.5 0 0 1 2876.5,906.5 L2736.5,906.5 A2.5,2.5 0 0 1 2734,904 L2734,794 A2.5,2.5 0 0 1 2736.5,791.5 " fill="none" style="stroke:#000000;stroke-width:1.5;"/><line style="stroke:#000000;stroke-width:1.5;" x1="2734" x2="2772" y1="813.7969" y2="813.7969"/><text fill="#000000" font-family="sans-serif" font-size="14" font-weight="bold" lengthAdjust="spacing" textLength="25" x="2738" y="806.4951">gui</text></g><!--cluster engine--><g id="cluster_engine"><path d="M2614.5,113 L2668.5,113 A3.75,3.75 0 0 1 2671,115.5 L2678,135.2969 L2822.5,135.2969 A2.5,2.5 0 0 1 2825,137.7969 L2825,225.5 A2.5,2.5 0 0 1 2822.5,228 L2614.5,228 A2.5,2.5 0 0 1 2612,225.5 L2612,115.5 A2.5,2.5 0 0 1 2614.5,113 " fill="none" style="stroke:#000000;stroke-width:1.5;"/><line style="stroke:#000000;stroke-width:1.5;" x1="2612" x2="2678" y1="135.2969" y2="135.2969"/><text fill="#000000" font-family="sans-serif" font-size="14" font-weight="bold" lengthAdjust="spacing" textLength="53" x="2616" y="127.9951">engine</text></g><!--class Settings--><g id="elem_Settings"><rect codeLine="148" fill="#F1F1F1" height="141.7813" id="Settings" rx="2.5" ry="2.5" style="stroke:#181818;stroke-width:0.5;" width="246" x="178" y="109"/><ellipse cx="266.25" cy="125" fill="#ADD1B2" rx="11" ry="11" style="stroke:#181818;stroke-width:1.0;"/><path d="M268.5938,120.6719 C267.6563,120.2344 267.0625,120.0938 266.1875,120.0938 C263.5625,120.0938 261.5625,122.1719 261.5625,124.8906 L261.5625,126.0156 C261.5625,128.5938 263.6719,130.4844 266.5625,130.4844 C267.7813,130.4844 268.9375,130.1875 269.6875,129.6406 C270.2656,129.2344 270.5938,128.7813 270.5938,128.3906 C270.5938,127.9375 270.2031,127.5469 269.7344,127.5469 C269.5156,127.5469 269.3125,127.625 269.125,127.8125 C268.6719,128.2969 268.6719,128.2969 268.4844,128.3906 C268.0625,128.6563 267.375,128.7813 266.6094,128.7813 C264.5625,128.7813 263.2656,127.6875 263.2656,125.9844 L263.2656,124.8906 C263.2656,123.1094 264.5156,121.7969 266.25,121.7969 C266.8281,121.7969 267.4375,121.9531 267.9063,122.2031 C268.3906,122.4844 268.5625,122.7031 268.6563,123.1094 C268.7188,123.5156 268.75,123.6406 268.8906,123.7656 C269.0313,123.9063 269.2656,124.0156 269.4844,124.0156 C269.75,124.0156 270.0156,123.875 270.1875,123.6563 C270.2969,123.5 270.3281,123.3125 270.3281,122.8906 L270.3281,121.4688 C270.3281,121.0313 270.3125,120.9063 270.2188,120.75 C270.0625,120.4844 269.7813,120.3438 269.4844,120.3438 C269.1875,120.3438 268.9844,120.4375 268.7656,120.75 L268.5938,120.6719 Z " fill="#000000"/><text fill="#000000" font-family="sans-serif" font-size="14" lengthAdjust="spacing" textLength="61" x="286.75" y="129.8467">Settings</text><line style="stroke:#181818;stroke-width:0.5;" x1="179" x2="423" y1="141" y2="141"/><rect fill="none" height="6" style="stroke:#C82930;stroke-width:1.0;" width="6" x="186" y="151.6484"/><text fill="#000000" font-family="sans-serif" font-size="14" lengthAdjust="spacing" text-decoration="underline" textLength="206" x="198" y="157.9951">PropertyChangeSupport pcs</text><ellipse cx="189" cy="170.9453" fill="none" rx="3" ry="3" style="stroke:#038048;stroke-width:1.0;"/><text fill="#000000" font-family="sans-serif" font-size="14" lengthAdjust="spacing" text-decoration="underline" textLength="220" x="198" y="174.292">Property&lt;Boolean&gt; fullScreen</text><ellipse cx="189" cy="187.2422" fill="none" rx="3" ry="3" style="stroke:#038048;stroke-width:1.0;"/><text fill="#000000" font-family="sans-serif" font-size="14" lengthAdjust="spacing" text-decoration="underline" textLength="209" x="198" y="190.5889">Property&lt;Boolean&gt; showFps</text><ellipse cx="189" cy="203.5391" fill="none" rx="3" ry="3" style="stroke:#038048;stroke-width:1.0;"/><text fill="#000000" font-family="sans-serif" font-size="14" lengthAdjust="spacing" text-decoration="underline" textLength="178" x="198" y="206.8857">Property&lt;Locale&gt; locale</text><ellipse cx="189" cy="240.1328" fill="#84BE84" rx="3" ry="3" style="stroke:#038048;stroke-width:1.0;"/><text fill="#000000" font-family="sans-serif" font-size="14" lengthAdjust="spacing" text-decoration="underline" textLength="124" x="198" y="243.4795">void forceApply()</text><line style="stroke:#181818;stroke-width:1.0;stroke-dasharray:1.0,2.0;" x1="179" x2="265.5" y1="222.3359" y2="222.3359"/><text fill="#000000" font-family="sans-serif" font-size="14" lengthAdjust="spacing" textLength="71" x="265.5" y="226.6826">Méthodes</text><line style="stroke:#181818;stroke-width:1.0;stroke-dasharray:1.0,2.0;" x1="336.5" x2="423" y1="222.3359" y2="222.3359"/></g><!--class Property--><g id="elem_Property"><rect codeLine="157" fill="#F1F1F1" height="373.9375" id="Property" rx="2.5" ry="2.5" style="stroke:#181818;stroke-width:0.5;" width="557" x="22.5" y="311"/><ellipse cx="245.25" cy="327" fill="#ADD1B2" rx="11" ry="11" style="stroke:#181818;stroke-width:1.0;"/><path d="M247.5938,322.6719 C246.6563,322.2344 246.0625,322.0938 245.1875,322.0938 C242.5625,322.0938 240.5625,324.1719 240.5625,326.8906 L240.5625,328.0156 C240.5625,330.5938 242.6719,332.4844 245.5625,332.4844 C246.7813,332.4844 247.9375,332.1875 248.6875,331.6406 C249.2656,331.2344 249.5938,330.7813 249.5938,330.3906 C249.5938,329.9375 249.2031,329.5469 248.7344,329.5469 C248.5156,329.5469 248.3125,329.625 248.125,329.8125 C247.6719,330.2969 247.6719,330.2969 247.4844,330.3906 C247.0625,330.6563 246.375,330.7813 245.6094,330.7813 C243.5625,330.7813 242.2656,329.6875 242.2656,327.9844 L242.2656,326.8906 C242.2656,325.1094 243.5156,323.7969 245.25,323.7969 C245.8281,323.7969 246.4375,323.9531 246.9063,324.2031 C247.3906,324.4844 247.5625,324.7031 247.6563,325.1094 C247.7188,325.5156 247.75,325.6406 247.8906,325.7656 C248.0313,325.9063 248.2656,326.0156 248.4844,326.0156 C248.75,326.0156 249.0156,325.875 249.1875,325.6563 C249.2969,325.5 249.3281,325.3125 249.3281,324.8906 L249.3281,323.4688 C249.3281,323.0313 249.3125,322.9063 249.2188,322.75 C249.0625,322.4844 248.7813,322.3438 248.4844,322.3438 C248.1875,322.3438 247.9844,322.4375 247.7656,322.75 L247.5938,322.6719 Z " fill="#000000"/><text fill="#000000" font-family="sans-serif" font-size="14" lengthAdjust="spacing" textLength="99" x="265.75" y="331.8467">Property &lt;T&gt;</text><line style="stroke:#181818;stroke-width:0.5;" x1="23.5" x2="578.5" y1="343" y2="343"/><rect fill="none" height="6" style="stroke:#C82930;stroke-width:1.0;" width="6" x="30.5" y="353.6484"/><text fill="#000000" font-family="sans-serif" font-size="14" lengthAdjust="spacing" textLength="50" x="42.5" y="359.9951">T value</text><rect fill="none" height="6" style="stroke:#C82930;stroke-width:1.0;" width="6" x="30.5" y="369.9453"/><text fill="#000000" font-family="sans-serif" font-size="14" lengthAdjust="spacing" textLength="88" x="42.5" y="376.292">String name</text><rect fill="none" height="6" style="stroke:#C82930;stroke-width:1.0;" width="6" x="30.5" y="386.2422"/><text fill="#000000" font-family="sans-serif" font-size="14" lengthAdjust="spacing" textLength="531" x="42.5" y="392.5889">Map&lt;MyPropertyChangeListener&lt;T&gt;, PropertyChangeListener&gt; listeners</text><rect fill="none" height="6" style="stroke:#C82930;stroke-width:1.0;" width="6" x="30.5" y="402.5391"/><text fill="#000000" font-family="sans-serif" font-size="14" lengthAdjust="spacing" textLength="206" x="42.5" y="408.8857">PropertyChangeSupport pcs</text><rect fill="none" height="6" style="stroke:#C82930;stroke-width:1.0;" width="6" x="30.5" y="418.8359"/><text fill="#000000" font-family="sans-serif" font-size="14" lengthAdjust="spacing" textLength="84" x="42.5" y="425.1826">boolean log</text><ellipse cx="33.5" cy="458.4297" fill="#84BE84" rx="3" ry="3" style="stroke:#038048;stroke-width:1.0;"/><text fill="#000000" font-family="sans-serif" font-size="14" lengthAdjust="spacing" textLength="494" x="42.5" y="461.7764">Property(PropertyChangeSupport, String, T, Getter&lt;T&gt;, Setter&lt;T&gt;)</text><ellipse cx="33.5" cy="474.7266" fill="#84BE84" rx="3" ry="3" style="stroke:#038048;stroke-width:1.0;"/><text fill="#000000" font-family="sans-serif" font-size="14" lengthAdjust="spacing" textLength="257" x="42.5" y="478.0732">Property(T, Getter&lt;T&gt;, Setter&lt;T&gt;)</text><ellipse cx="33.5" cy="491.0234" fill="#84BE84" rx="3" ry="3" style="stroke:#038048;stroke-width:1.0;"/><text fill="#000000" font-family="sans-serif" font-size="14" lengthAdjust="spacing" textLength="320" x="42.5" y="494.3701">Property(PropertyChangeSupport, String, T)</text><ellipse cx="33.5" cy="507.3203" fill="#84BE84" rx="3" ry="3" style="stroke:#038048;stroke-width:1.0;"/><text fill="#000000" font-family="sans-serif" font-size="14" lengthAdjust="spacing" textLength="83" x="42.5" y="510.667">Property(T)</text><line style="stroke:#181818;stroke-width:1.0;stroke-dasharray:1.0,2.0;" x1="23.5" x2="254" y1="440.6328" y2="440.6328"/><text fill="#000000" font-family="sans-serif" font-size="14" lengthAdjust="spacing" textLength="94" x="254" y="444.9795">Constructeur</text><line style="stroke:#181818;stroke-width:1.0;stroke-dasharray:1.0,2.0;" x1="348" x2="578.5" y1="440.6328" y2="440.6328"/><ellipse cx="33.5" cy="543.9141" fill="#84BE84" rx="3" ry="3" style="stroke:#038048;stroke-width:1.0;"/><text fill="#000000" font-family="sans-serif" font-size="14" lengthAdjust="spacing" textLength="48" x="42.5" y="547.2607">T get()</text><ellipse cx="33.5" cy="560.2109" fill="#84BE84" rx="3" ry="3" style="stroke:#038048;stroke-width:1.0;"/><text fill="#000000" font-family="sans-serif" font-size="14" lengthAdjust="spacing" textLength="76" x="42.5" y="563.5576">void set(T)</text><ellipse cx="33.5" cy="576.5078" fill="#84BE84" rx="3" ry="3" style="stroke:#038048;stroke-width:1.0;"/><text fill="#000000" font-family="sans-serif" font-size="14" lengthAdjust="spacing" textLength="341" x="42.5" y="579.8545">void subscribe(MyPropertyChangeListener&lt;T&gt;)</text><ellipse cx="33.5" cy="592.8047" fill="#84BE84" rx="3" ry="3" style="stroke:#038048;stroke-width:1.0;"/><text fill="#000000" font-family="sans-serif" font-size="14" lengthAdjust="spacing" textLength="358" x="42.5" y="596.1514">void unsubscribe(MyPropertyChangeListener&lt;T&gt;)</text><ellipse cx="33.5" cy="609.1016" fill="#84BE84" rx="3" ry="3" style="stroke:#038048;stroke-width:1.0;"/><text fill="#000000" font-family="sans-serif" font-size="14" lengthAdjust="spacing" textLength="148" x="42.5" y="612.4482">void unsubscribeAll()</text><ellipse cx="33.5" cy="625.3984" fill="#84BE84" rx="3" ry="3" style="stroke:#038048;stroke-width:1.0;"/><text fill="#000000" font-family="sans-serif" font-size="14" lengthAdjust="spacing" textLength="109" x="42.5" y="628.7451">void forceFire()</text><ellipse cx="33.5" cy="641.6953" fill="#84BE84" rx="3" ry="3" style="stroke:#038048;stroke-width:1.0;"/><text fill="#000000" font-family="sans-serif" font-size="14" lengthAdjust="spacing" textLength="216" x="42.5" y="645.042">Property&lt;T&gt; setLog(boolean)</text><rect fill="#F24D5C" height="6" style="stroke:#C82930;stroke-width:1.0;" width="6" x="30.5" y="654.9922"/><text fill="#000000" font-family="sans-serif" font-size="14" lengthAdjust="spacing" textLength="78" x="42.5" y="661.3389">void fire(T)</text><rect fill="#F24D5C" height="6" style="stroke:#C82930;stroke-width:1.0;" width="6" x="30.5" y="671.2891"/><text fill="#000000" font-family="sans-serif" font-size="14" lengthAdjust="spacing" textLength="110" x="42.5" y="677.6357">void log(String)</text><line style="stroke:#181818;stroke-width:1.0;stroke-dasharray:1.0,2.0;" x1="23.5" x2="265.5" y1="526.1172" y2="526.1172"/><text fill="#000000" font-family="sans-serif" font-size="14" lengthAdjust="spacing" textLength="71" x="265.5" y="530.4639">Méthodes</text><line style="stroke:#181818;stroke-width:1.0;stroke-dasharray:1.0,2.0;" x1="336.5" x2="578.5" y1="526.1172" y2="526.1172"/></g><!--class Getter--><g id="elem_Getter"><rect codeLine="180" fill="#F1F1F1" height="64.2969" id="Getter" rx="2.5" ry="2.5" style="stroke:#181818;stroke-width:0.5;" width="118" x="318" y="826.5"/><ellipse cx="333" cy="842.5" fill="#B4A7E5" rx="11" ry="11" style="stroke:#181818;stroke-width:1.0;"/><path d="M333.9531,839.2813 L335.6719,839.2813 C336.0625,839.2813 336.25,839.25 336.375,839.1719 C336.6406,839.0156 336.7813,838.7344 336.7813,838.4375 C336.7813,838.1719 336.6719,837.9063 336.4375,837.7344 C336.2656,837.625 336.125,837.5938 335.6719,837.5938 L330.5313,837.5938 C330.0938,837.5938 329.9688,837.6094 329.8125,837.7031 C329.5625,837.8594 329.4063,838.1563 329.4063,838.4375 C329.4063,838.7188 329.5469,838.9688 329.7656,839.1406 C329.9219,839.25 330.1094,839.2813 330.5313,839.2813 L332.25,839.2813 L332.25,845.7969 L330.5313,845.7969 C330.0938,845.7969 329.9688,845.8125 329.8125,845.9219 C329.5625,846.0781 329.4063,846.3594 329.4063,846.6563 C329.4063,846.9063 329.5469,847.1719 329.7656,847.3281 C329.9219,847.4531 330.125,847.5 330.5313,847.5 L335.6719,847.5 C336.4219,847.5 336.7813,847.2188 336.7813,846.6563 C336.7813,846.375 336.6719,846.125 336.4375,845.9531 C336.2656,845.8281 336.125,845.7969 335.6719,845.7969 L333.9531,845.7969 L333.9531,839.2813 Z " fill="#000000"/><text fill="#000000" font-family="sans-serif" font-size="14" font-style="italic" lengthAdjust="spacing" textLength="82" x="347" y="847.3467">Getter &lt;T&gt;</text><line style="stroke:#181818;stroke-width:0.5;" x1="319" x2="435" y1="858.5" y2="858.5"/><line style="stroke:#181818;stroke-width:0.5;" x1="319" x2="435" y1="866.5" y2="866.5"/><text fill="#000000" font-family="sans-serif" font-size="14" lengthAdjust="spacing" textLength="57" x="324" y="883.4951">T get(T)</text></g><!--class Setter--><g id="elem_Setter"><rect codeLine="184" fill="#F1F1F1" height="64.2969" id="Setter" rx="2.5" ry="2.5" style="stroke:#181818;stroke-width:0.5;" width="116" x="167" y="826.5"/><ellipse cx="182" cy="842.5" fill="#B4A7E5" rx="11" ry="11" style="stroke:#181818;stroke-width:1.0;"/><path d="M182.9531,839.2813 L184.6719,839.2813 C185.0625,839.2813 185.25,839.25 185.375,839.1719 C185.6406,839.0156 185.7813,838.7344 185.7813,838.4375 C185.7813,838.1719 185.6719,837.9063 185.4375,837.7344 C185.2656,837.625 185.125,837.5938 184.6719,837.5938 L179.5313,837.5938 C179.0938,837.5938 178.9688,837.6094 178.8125,837.7031 C178.5625,837.8594 178.4063,838.1563 178.4063,838.4375 C178.4063,838.7188 178.5469,838.9688 178.7656,839.1406 C178.9219,839.25 179.1094,839.2813 179.5313,839.2813 L181.25,839.2813 L181.25,845.7969 L179.5313,845.7969 C179.0938,845.7969 178.9688,845.8125 178.8125,845.9219 C178.5625,846.0781 178.4063,846.3594 178.4063,846.6563 C178.4063,846.9063 178.5469,847.1719 178.7656,847.3281 C178.9219,847.4531 179.125,847.5 179.5313,847.5 L184.6719,847.5 C185.4219,847.5 185.7813,847.2188 185.7813,846.6563 C185.7813,846.375 185.6719,846.125 185.4375,845.9531 C185.2656,845.8281 185.125,845.7969 184.6719,845.7969 L182.9531,845.7969 L182.9531,839.2813 Z " fill="#000000"/><text fill="#000000" font-family="sans-serif" font-size="14" font-style="italic" lengthAdjust="spacing" textLength="80" x="196" y="847.3467">Setter &lt;T&gt;</text><line style="stroke:#181818;stroke-width:0.5;" x1="168" x2="282" y1="858.5" y2="858.5"/><line style="stroke:#181818;stroke-width:0.5;" x1="168" x2="282" y1="866.5" y2="866.5"/><text fill="#000000" font-family="sans-serif" font-size="14" lengthAdjust="spacing" textLength="55" x="173" y="883.4951">T set(T)</text></g><!--class ElementMonde--><g id="elem_ElementMonde"><rect codeLine="4" fill="#F1F1F1" height="292.4531" id="ElementMonde" rx="2.5" ry="2.5" style="stroke:#181818;stroke-width:0.5;" width="502" x="2072" y="352"/><ellipse cx="2265.25" cy="368" fill="#A9DCDF" rx="11" ry="11" style="stroke:#181818;stroke-width:1.0;"/><path d="M2267.3281,369.8125 L2267.7188,370.7969 L2267.3281,370.7969 C2266.875,370.7969 2266.7656,370.8125 2266.6094,370.9219 C2266.3594,371.0781 2266.2031,371.3594 2266.2031,371.6563 C2266.2031,371.9219 2266.3438,372.1719 2266.5625,372.3281 C2266.7031,372.4531 2266.9063,372.5 2267.3281,372.5 L2269.6875,372.5 C2270.0469,372.5 2270.2656,372.4688 2270.4063,372.375 C2270.6563,372.2344 2270.8125,371.9375 2270.8125,371.6563 C2270.8125,371.375 2270.6719,371.125 2270.4531,370.9688 C2270.2813,370.8281 2270.125,370.7969 2269.6563,370.7969 L2266.2656,362.5938 L2262.5938,362.5938 C2262.1406,362.5938 2262.0156,362.6094 2261.8594,362.7031 C2261.6094,362.875 2261.4531,363.1563 2261.4531,363.4375 C2261.4531,363.7188 2261.5938,363.9688 2261.8125,364.1406 C2261.9844,364.25 2262.1563,364.2813 2262.5938,364.2813 L2263.6719,364.2813 L2261.0313,370.7969 C2260.6094,370.7969 2260.4531,370.8125 2260.2969,370.9219 C2260.0469,371.0781 2259.8906,371.3594 2259.8906,371.6563 C2259.8906,372.2188 2260.2656,372.5 2261.0156,372.5 L2263.2813,372.5 C2263.6406,372.5 2263.8594,372.4688 2263.9844,372.375 C2264.25,372.2344 2264.3906,371.9375 2264.3906,371.6563 C2264.3906,371.375 2264.2656,371.125 2264.0469,370.9531 C2263.875,370.8281 2263.7344,370.7969 2263.2813,370.7969 L2262.8906,370.7969 L2263.2813,369.8125 L2267.3281,369.8125 Z M2266.625,368.1094 L2263.9531,368.1094 L2265.2969,364.8438 L2266.625,368.1094 Z " fill="#000000"/><text fill="#000000" font-family="sans-serif" font-size="14" font-style="italic" lengthAdjust="spacing" textLength="107" x="2285.75" y="372.8467">ElementMonde</text><line style="stroke:#181818;stroke-width:0.5;" x1="2073" x2="2573" y1="384" y2="384"/><polygon fill="none" points="2083,392.6484,2087,396.6484,2083,400.6484,2079,396.6484" style="stroke:#B38D22;stroke-width:1.0;"/><text fill="#000000" font-family="sans-serif" font-size="14" lengthAdjust="spacing" textLength="61" x="2092" y="400.9951">double x</text><polygon fill="none" points="2083,408.9453,2087,412.9453,2083,416.9453,2079,412.9453" style="stroke:#B38D22;stroke-width:1.0;"/><text fill="#000000" font-family="sans-serif" font-size="14" lengthAdjust="spacing" textLength="61" x="2092" y="417.292">double y</text><polygon fill="none" points="2083,425.2422,2087,429.2422,2083,433.2422,2079,429.2422" style="stroke:#B38D22;stroke-width:1.0;"/><text fill="#000000" font-family="sans-serif" font-size="14" lengthAdjust="spacing" textLength="108" x="2092" y="433.5889">double hauteur</text><polygon fill="none" points="2083,441.5391,2087,445.5391,2083,449.5391,2079,445.5391" style="stroke:#B38D22;stroke-width:1.0;"/><text fill="#000000" font-family="sans-serif" font-size="14" lengthAdjust="spacing" textLength="103" x="2092" y="449.8857">double largeur</text><ellipse cx="2083" cy="483.1328" fill="#84BE84" rx="3" ry="3" style="stroke:#038048;stroke-width:1.0;"/><text fill="#000000" font-family="sans-serif" font-size="14" lengthAdjust="spacing" textLength="476" x="2092" y="486.4795">ElementMonde(double x, double y, double hauteur, double largeur)</text><line style="stroke:#181818;stroke-width:1.0;stroke-dasharray:1.0,2.0;" x1="2073" x2="2276" y1="465.3359" y2="465.3359"/><text fill="#000000" font-family="sans-serif" font-size="14" lengthAdjust="spacing" textLength="94" x="2276" y="469.6826">Constructeur</text><line style="stroke:#181818;stroke-width:1.0;stroke-dasharray:1.0,2.0;" x1="2370" x2="2573" y1="465.3359" y2="465.3359"/><ellipse cx="2083" cy="519.7266" fill="#84BE84" rx="3" ry="3" style="stroke:#038048;stroke-width:1.0;"/><text fill="#000000" font-family="sans-serif" font-size="14" lengthAdjust="spacing" textLength="98" x="2092" y="523.0732">double getX()</text><ellipse cx="2083" cy="536.0234" fill="#84BE84" rx="3" ry="3" style="stroke:#038048;stroke-width:1.0;"/><text fill="#000000" font-family="sans-serif" font-size="14" lengthAdjust="spacing" textLength="138" x="2092" y="539.3701">void setX(double x)</text><ellipse cx="2083" cy="552.3203" fill="#84BE84" rx="3" ry="3" style="stroke:#038048;stroke-width:1.0;"/><text fill="#000000" font-family="sans-serif" font-size="14" lengthAdjust="spacing" textLength="97" x="2092" y="555.667">double getY()</text><ellipse cx="2083" cy="568.6172" fill="#84BE84" rx="3" ry="3" style="stroke:#038048;stroke-width:1.0;"/><text fill="#000000" font-family="sans-serif" font-size="14" lengthAdjust="spacing" textLength="137" x="2092" y="571.9639">void setY(double y)</text><ellipse cx="2083" cy="584.9141" fill="#84BE84" rx="3" ry="3" style="stroke:#038048;stroke-width:1.0;"/><text fill="#000000" font-family="sans-serif" font-size="14" lengthAdjust="spacing" textLength="144" x="2092" y="588.2607">double getHauteur()</text><ellipse cx="2083" cy="601.2109" fill="#84BE84" rx="3" ry="3" style="stroke:#038048;stroke-width:1.0;"/><text fill="#000000" font-family="sans-serif" font-size="14" lengthAdjust="spacing" textLength="142" x="2092" y="604.5576">double getLargeur()</text><ellipse cx="2083" cy="617.5078" fill="#84BE84" rx="3" ry="3" style="stroke:#038048;stroke-width:1.0;"/><text fill="#000000" font-family="sans-serif" font-size="14" lengthAdjust="spacing" textLength="118" x="2092" y="620.8545">String toString()</text><text fill="#000000" font-family="sans-serif" font-size="14" lengthAdjust="spacing" textLength="4" x="2092" y="637.1514"> </text><line style="stroke:#181818;stroke-width:1.0;stroke-dasharray:1.0,2.0;" x1="2073" x2="2287.5" y1="501.9297" y2="501.9297"/><text fill="#000000" font-family="sans-serif" font-size="14" lengthAdjust="spacing" textLength="71" x="2287.5" y="506.2764">Méthodes</text><line style="stroke:#181818;stroke-width:1.0;stroke-dasharray:1.0,2.0;" x1="2358.5" x2="2573" y1="501.9297" y2="501.9297"/></g><!--class Terrain--><g id="elem_Terrain"><rect codeLine="21" fill="#F1F1F1" height="129.4844" id="Terrain" rx="2.5" ry="2.5" style="stroke:#181818;stroke-width:0.5;" width="444" x="1334" y="794"/><ellipse cx="1525.75" cy="810" fill="#A9DCDF" rx="11" ry="11" style="stroke:#181818;stroke-width:1.0;"/><path d="M1527.8281,811.8125 L1528.2188,812.7969 L1527.8281,812.7969 C1527.375,812.7969 1527.2656,812.8125 1527.1094,812.9219 C1526.8594,813.0781 1526.7031,813.3594 1526.7031,813.6563 C1526.7031,813.9219 1526.8438,814.1719 1527.0625,814.3281 C1527.2031,814.4531 1527.4063,814.5 1527.8281,814.5 L1530.1875,814.5 C1530.5469,814.5 1530.7656,814.4688 1530.9063,814.375 C1531.1563,814.2344 1531.3125,813.9375 1531.3125,813.6563 C1531.3125,813.375 1531.1719,813.125 1530.9531,812.9688 C1530.7813,812.8281 1530.625,812.7969 1530.1563,812.7969 L1526.7656,804.5938 L1523.0938,804.5938 C1522.6406,804.5938 1522.5156,804.6094 1522.3594,804.7031 C1522.1094,804.875 1521.9531,805.1563 1521.9531,805.4375 C1521.9531,805.7188 1522.0938,805.9688 1522.3125,806.1406 C1522.4844,806.25 1522.6563,806.2813 1523.0938,806.2813 L1524.1719,806.2813 L1521.5313,812.7969 C1521.1094,812.7969 1520.9531,812.8125 1520.7969,812.9219 C1520.5469,813.0781 1520.3906,813.3594 1520.3906,813.6563 C1520.3906,814.2188 1520.7656,814.5 1521.5156,814.5 L1523.7813,814.5 C1524.1406,814.5 1524.3594,814.4688 1524.4844,814.375 C1524.75,814.2344 1524.8906,813.9375 1524.8906,813.6563 C1524.8906,813.375 1524.7656,813.125 1524.5469,812.9531 C1524.375,812.8281 1524.2344,812.7969 1523.7813,812.7969 L1523.3906,812.7969 L1523.7813,811.8125 L1527.8281,811.8125 Z M1527.125,810.1094 L1524.4531,810.1094 L1525.7969,806.8438 L1527.125,810.1094 Z " fill="#000000"/><text fill="#000000" font-family="sans-serif" font-size="14" font-style="italic" lengthAdjust="spacing" textLength="52" x="1546.25" y="814.8467">Terrain</text><line style="stroke:#181818;stroke-width:0.5;" x1="1335" x2="1777" y1="826" y2="826"/><ellipse cx="1345" cy="859.9453" fill="#84BE84" rx="3" ry="3" style="stroke:#038048;stroke-width:1.0;"/><text fill="#000000" font-family="sans-serif" font-size="14" lengthAdjust="spacing" textLength="418" x="1354" y="863.292">Terrain(double x, double y, double hauteur, double largeur)</text><line style="stroke:#181818;stroke-width:1.0;stroke-dasharray:1.0,2.0;" x1="1335" x2="1509" y1="842.1484" y2="842.1484"/><text fill="#000000" font-family="sans-serif" font-size="14" lengthAdjust="spacing" textLength="94" x="1509" y="846.4951">Constructeur</text><line style="stroke:#181818;stroke-width:1.0;stroke-dasharray:1.0,2.0;" x1="1603" x2="1777" y1="842.1484" y2="842.1484"/><ellipse cx="1345" cy="896.5391" fill="#84BE84" rx="3" ry="3" style="stroke:#038048;stroke-width:1.0;"/><text fill="#000000" font-family="sans-serif" font-size="14" lengthAdjust="spacing" textLength="179" x="1354" y="899.8857">boolean estTraversable()</text><text fill="#000000" font-family="sans-serif" font-size="14" lengthAdjust="spacing" textLength="4" x="1354" y="916.1826"> </text><line style="stroke:#181818;stroke-width:1.0;stroke-dasharray:1.0,2.0;" x1="1335" x2="1520.5" y1="878.7422" y2="878.7422"/><text fill="#000000" font-family="sans-serif" font-size="14" lengthAdjust="spacing" textLength="71" x="1520.5" y="883.0889">Méthodes</text><line style="stroke:#181818;stroke-width:1.0;stroke-dasharray:1.0,2.0;" x1="1591.5" x2="1777" y1="878.7422" y2="878.7422"/></g><!--class Mur--><g id="elem_Mur"><rect codeLine="29" fill="#F1F1F1" height="113.1875" id="Mur" rx="2.5" ry="2.5" style="stroke:#181818;stroke-width:0.5;" width="419" x="1152.5" y="1089"/><ellipse cx="1344.75" cy="1105" fill="#ADD1B2" rx="11" ry="11" style="stroke:#181818;stroke-width:1.0;"/><path d="M1347.0938,1100.6719 C1346.1563,1100.2344 1345.5625,1100.0938 1344.6875,1100.0938 C1342.0625,1100.0938 1340.0625,1102.1719 1340.0625,1104.8906 L1340.0625,1106.0156 C1340.0625,1108.5938 1342.1719,1110.4844 1345.0625,1110.4844 C1346.2813,1110.4844 1347.4375,1110.1875 1348.1875,1109.6406 C1348.7656,1109.2344 1349.0938,1108.7813 1349.0938,1108.3906 C1349.0938,1107.9375 1348.7031,1107.5469 1348.2344,1107.5469 C1348.0156,1107.5469 1347.8125,1107.625 1347.625,1107.8125 C1347.1719,1108.2969 1347.1719,1108.2969 1346.9844,1108.3906 C1346.5625,1108.6563 1345.875,1108.7813 1345.1094,1108.7813 C1343.0625,1108.7813 1341.7656,1107.6875 1341.7656,1105.9844 L1341.7656,1104.8906 C1341.7656,1103.1094 1343.0156,1101.7969 1344.75,1101.7969 C1345.3281,1101.7969 1345.9375,1101.9531 1346.4063,1102.2031 C1346.8906,1102.4844 1347.0625,1102.7031 1347.1563,1103.1094 C1347.2188,1103.5156 1347.25,1103.6406 1347.3906,1103.7656 C1347.5313,1103.9063 1347.7656,1104.0156 1347.9844,1104.0156 C1348.25,1104.0156 1348.5156,1103.875 1348.6875,1103.6563 C1348.7969,1103.5 1348.8281,1103.3125 1348.8281,1102.8906 L1348.8281,1101.4688 C1348.8281,1101.0313 1348.8125,1100.9063 1348.7188,1100.75 C1348.5625,1100.4844 1348.2813,1100.3438 1347.9844,1100.3438 C1347.6875,1100.3438 1347.4844,1100.4375 1347.2656,1100.75 L1347.0938,1100.6719 Z " fill="#000000"/><text fill="#000000" font-family="sans-serif" font-size="14" lengthAdjust="spacing" textLength="26" x="1365.25" y="1109.8467">Mur</text><line style="stroke:#181818;stroke-width:0.5;" x1="1153.5" x2="1570.5" y1="1121" y2="1121"/><ellipse cx="1163.5" cy="1154.9453" fill="#84BE84" rx="3" ry="3" style="stroke:#038048;stroke-width:1.0;"/><text fill="#000000" font-family="sans-serif" font-size="14" lengthAdjust="spacing" textLength="393" x="1172.5" y="1158.292">Mur(double x, double y, double hauteur, double largeur)</text><line style="stroke:#181818;stroke-width:1.0;stroke-dasharray:1.0,2.0;" x1="1153.5" x2="1315" y1="1137.1484" y2="1137.1484"/><text fill="#000000" font-family="sans-serif" font-size="14" lengthAdjust="spacing" textLength="94" x="1315" y="1141.4951">Constructeur</text><line style="stroke:#181818;stroke-width:1.0;stroke-dasharray:1.0,2.0;" x1="1409" x2="1570.5" y1="1137.1484" y2="1137.1484"/><ellipse cx="1163.5" cy="1191.5391" fill="#84BE84" rx="3" ry="3" style="stroke:#038048;stroke-width:1.0;"/><text fill="#000000" font-family="sans-serif" font-size="14" lengthAdjust="spacing" textLength="179" x="1172.5" y="1194.8857">boolean estTraversable()</text><line style="stroke:#181818;stroke-width:1.0;stroke-dasharray:1.0,2.0;" x1="1153.5" x2="1326.5" y1="1173.7422" y2="1173.7422"/><text fill="#000000" font-family="sans-serif" font-size="14" lengthAdjust="spacing" textLength="71" x="1326.5" y="1178.0889">Méthodes</text><line style="stroke:#181818;stroke-width:1.0;stroke-dasharray:1.0,2.0;" x1="1397.5" x2="1570.5" y1="1173.7422" y2="1173.7422"/></g><!--class Personnage--><g id="elem_Personnage"><rect codeLine="37" fill="#F1F1F1" height="227.2656" id="Personnage" rx="2.5" ry="2.5" style="stroke:#181818;stroke-width:0.5;" width="634" x="1909" y="745"/><ellipse cx="2179.75" cy="761" fill="#A9DCDF" rx="11" ry="11" style="stroke:#181818;stroke-width:1.0;"/><path d="M2181.8281,762.8125 L2182.2188,763.7969 L2181.8281,763.7969 C2181.375,763.7969 2181.2656,763.8125 2181.1094,763.9219 C2180.8594,764.0781 2180.7031,764.3594 2180.7031,764.6563 C2180.7031,764.9219 2180.8438,765.1719 2181.0625,765.3281 C2181.2031,765.4531 2181.4063,765.5 2181.8281,765.5 L2184.1875,765.5 C2184.5469,765.5 2184.7656,765.4688 2184.9063,765.375 C2185.1563,765.2344 2185.3125,764.9375 2185.3125,764.6563 C2185.3125,764.375 2185.1719,764.125 2184.9531,763.9688 C2184.7813,763.8281 2184.625,763.7969 2184.1563,763.7969 L2180.7656,755.5938 L2177.0938,755.5938 C2176.6406,755.5938 2176.5156,755.6094 2176.3594,755.7031 C2176.1094,755.875 2175.9531,756.1563 2175.9531,756.4375 C2175.9531,756.7188 2176.0938,756.9688 2176.3125,757.1406 C2176.4844,757.25 2176.6563,757.2813 2177.0938,757.2813 L2178.1719,757.2813 L2175.5313,763.7969 C2175.1094,763.7969 2174.9531,763.8125 2174.7969,763.9219 C2174.5469,764.0781 2174.3906,764.3594 2174.3906,764.6563 C2174.3906,765.2188 2174.7656,765.5 2175.5156,765.5 L2177.7813,765.5 C2178.1406,765.5 2178.3594,765.4688 2178.4844,765.375 C2178.75,765.2344 2178.8906,764.9375 2178.8906,764.6563 C2178.8906,764.375 2178.7656,764.125 2178.5469,763.9531 C2178.375,763.8281 2178.2344,763.7969 2177.7813,763.7969 L2177.3906,763.7969 L2177.7813,762.8125 L2181.8281,762.8125 Z M2181.125,761.1094 L2178.4531,761.1094 L2179.7969,757.8438 L2181.125,761.1094 Z " fill="#000000"/><text fill="#000000" font-family="sans-serif" font-size="14" font-style="italic" lengthAdjust="spacing" textLength="84" x="2200.25" y="765.8467">Personnage</text><line style="stroke:#181818;stroke-width:0.5;" x1="1910" x2="2542" y1="777" y2="777"/><polygon fill="none" points="1920,785.6484,1924,789.6484,1920,793.6484,1916,789.6484" style="stroke:#B38D22;stroke-width:1.0;"/><text fill="#000000" font-family="sans-serif" font-size="14" lengthAdjust="spacing" textLength="104" x="1929" y="793.9951">double vitesse</text><rect fill="none" height="6" style="stroke:#C82930;stroke-width:1.0;" width="6" x="1917" y="803.9453"/><text fill="#000000" font-family="sans-serif" font-size="14" lengthAdjust="spacing" textLength="37" x="1929" y="810.292">int id</text><ellipse cx="1920" cy="843.5391" fill="#84BE84" rx="3" ry="3" style="stroke:#038048;stroke-width:1.0;"/><text fill="#000000" font-family="sans-serif" font-size="14" lengthAdjust="spacing" textLength="563" x="1929" y="846.8857">Personnage(double x, double y, double largeur, double hauteur, double vitesse)</text><ellipse cx="1920" cy="859.8359" fill="#84BE84" rx="3" ry="3" style="stroke:#038048;stroke-width:1.0;"/><text fill="#000000" font-family="sans-serif" font-size="14" lengthAdjust="spacing" textLength="608" x="1929" y="863.1826">Personnage(double x, double y, double hauteur, double largeur, double vitesse, int id)</text><line style="stroke:#181818;stroke-width:1.0;stroke-dasharray:1.0,2.0;" x1="1910" x2="2179" y1="825.7422" y2="825.7422"/><text fill="#000000" font-family="sans-serif" font-size="14" lengthAdjust="spacing" textLength="94" x="2179" y="830.0889">Constructeur</text><line style="stroke:#181818;stroke-width:1.0;stroke-dasharray:1.0,2.0;" x1="2273" x2="2542" y1="825.7422" y2="825.7422"/><ellipse cx="1920" cy="896.4297" fill="#84BE84" rx="3" ry="3" style="stroke:#038048;stroke-width:1.0;"/><text fill="#000000" font-family="sans-serif" font-size="14" lengthAdjust="spacing" textLength="485" x="1929" y="899.7764">void deplacer(TypeMouvement typeMouvement, double deltaTime)</text><ellipse cx="1920" cy="912.7266" fill="#84BE84" rx="3" ry="3" style="stroke:#038048;stroke-width:1.0;"/><text fill="#000000" font-family="sans-serif" font-size="14" lengthAdjust="spacing" textLength="154" x="1929" y="916.0732">boolean estUnHeros()</text><ellipse cx="1920" cy="929.0234" fill="#84BE84" rx="3" ry="3" style="stroke:#038048;stroke-width:1.0;"/><text fill="#000000" font-family="sans-serif" font-size="14" lengthAdjust="spacing" textLength="72" x="1929" y="932.3701">int getId()</text><ellipse cx="1920" cy="945.3203" fill="#84BE84" rx="3" ry="3" style="stroke:#038048;stroke-width:1.0;"/><text fill="#000000" font-family="sans-serif" font-size="14" lengthAdjust="spacing" textLength="141" x="1929" y="948.667">double getVitesse()</text><ellipse cx="1920" cy="961.6172" fill="#84BE84" rx="3" ry="3" style="stroke:#038048;stroke-width:1.0;"/><text fill="#000000" font-family="sans-serif" font-size="14" lengthAdjust="spacing" textLength="118" x="1929" y="964.9639">String toString()</text><line style="stroke:#181818;stroke-width:1.0;stroke-dasharray:1.0,2.0;" x1="1910" x2="2190.5" y1="878.6328" y2="878.6328"/><text fill="#000000" font-family="sans-serif" font-size="14" lengthAdjust="spacing" textLength="71" x="2190.5" y="882.9795">Méthodes</text><line style="stroke:#181818;stroke-width:1.0;stroke-dasharray:1.0,2.0;" x1="2261.5" x2="2542" y1="878.6328" y2="878.6328"/></g><!--class TypeMouvement--><g id="elem_TypeMouvement"><rect codeLine="51" fill="#F1F1F1" height="113.1875" id="TypeMouvement" rx="2.5" ry="2.5" style="stroke:#181818;stroke-width:0.5;" width="153" x="1883.5" y="441.5"/><ellipse cx="1898.5" cy="457.5" fill="#EB937F" rx="11" ry="11" style="stroke:#181818;stroke-width:1.0;"/><path d="M1897.2969,458.375 L1898.75,458.375 L1898.75,458.4844 C1898.75,458.8906 1898.7813,459.0469 1898.8594,459.2031 C1899.0156,459.4531 1899.2969,459.6094 1899.5938,459.6094 C1899.8438,459.6094 1900.1094,459.4688 1900.2656,459.25 C1900.3906,459.0938 1900.4219,458.9375 1900.4219,458.4844 L1900.4219,456.5625 C1900.4219,456.4063 1900.4219,456.3594 1900.4063,456.2031 C1900.3438,455.7344 1900.0313,455.4219 1899.5781,455.4219 C1899.3281,455.4219 1899.0625,455.5625 1898.8906,455.7813 C1898.7813,455.9531 1898.75,456.1094 1898.75,456.5625 L1898.75,456.6875 L1897.2969,456.6875 L1897.2969,454.2813 L1901.2813,454.2813 L1901.2813,455.1406 C1901.2813,455.5469 1901.3125,455.7188 1901.3906,455.875 C1901.5625,456.125 1901.8438,456.2813 1902.125,456.2813 C1902.3906,456.2813 1902.6563,456.1406 1902.8281,455.9219 C1902.9375,455.75 1902.9688,455.6094 1902.9688,455.1406 L1902.9688,452.5938 L1895.3438,452.5938 C1894.9063,452.5938 1894.7813,452.6094 1894.625,452.7031 C1894.375,452.8594 1894.2188,453.1563 1894.2188,453.4375 C1894.2188,453.7188 1894.3594,453.9688 1894.5781,454.1406 C1894.7344,454.25 1894.9219,454.2813 1895.3438,454.2813 L1895.5938,454.2813 L1895.5938,460.7969 L1895.3438,460.7969 C1894.9375,460.7969 1894.7813,460.8125 1894.625,460.9219 C1894.375,461.0938 1894.2188,461.3594 1894.2188,461.6563 C1894.2188,461.9219 1894.3594,462.1719 1894.5781,462.3281 C1894.7188,462.4531 1894.9531,462.5 1895.3438,462.5 L1903.3438,462.5 L1903.3438,459.9219 C1903.3438,459.4844 1903.3125,459.3438 1903.2344,459.1875 C1903.0625,458.9375 1902.7813,458.7813 1902.5,458.7813 C1902.2344,458.7813 1901.9688,458.8906 1901.7969,459.1406 C1901.6875,459.2969 1901.6563,459.4375 1901.6563,459.9219 L1901.6563,460.7969 L1897.2969,460.7969 L1897.2969,458.375 Z " fill="#000000"/><text fill="#000000" font-family="sans-serif" font-size="14" lengthAdjust="spacing" textLength="121" x="1912.5" y="462.3467">TypeMouvement</text><line style="stroke:#181818;stroke-width:0.5;" x1="1884.5" x2="2035.5" y1="473.5" y2="473.5"/><text fill="#000000" font-family="sans-serif" font-size="14" lengthAdjust="spacing" textLength="44" x="1889.5" y="490.4951">RIGHT</text><text fill="#000000" font-family="sans-serif" font-size="14" lengthAdjust="spacing" textLength="34" x="1889.5" y="506.792">LEFT</text><text fill="#000000" font-family="sans-serif" font-size="14" lengthAdjust="spacing" textLength="18" x="1889.5" y="523.0889">UP</text><text fill="#000000" font-family="sans-serif" font-size="14" lengthAdjust="spacing" textLength="46" x="1889.5" y="539.3857">DOWN</text><line style="stroke:#181818;stroke-width:0.5;" x1="1884.5" x2="2035.5" y1="546.6875" y2="546.6875"/></g><!--class Heros--><g id="elem_Heros"><rect codeLine="58" fill="#F1F1F1" height="113.1875" id="Heros" rx="2.5" ry="2.5" style="stroke:#181818;stroke-width:0.5;" width="434" x="1607" y="1089"/><ellipse cx="1799.25" cy="1105" fill="#ADD1B2" rx="11" ry="11" style="stroke:#181818;stroke-width:1.0;"/><path d="M1801.5938,1100.6719 C1800.6563,1100.2344 1800.0625,1100.0938 1799.1875,1100.0938 C1796.5625,1100.0938 1794.5625,1102.1719 1794.5625,1104.8906 L1794.5625,1106.0156 C1794.5625,1108.5938 1796.6719,1110.4844 1799.5625,1110.4844 C1800.7813,1110.4844 1801.9375,1110.1875 1802.6875,1109.6406 C1803.2656,1109.2344 1803.5938,1108.7813 1803.5938,1108.3906 C1803.5938,1107.9375 1803.2031,1107.5469 1802.7344,1107.5469 C1802.5156,1107.5469 1802.3125,1107.625 1802.125,1107.8125 C1801.6719,1108.2969 1801.6719,1108.2969 1801.4844,1108.3906 C1801.0625,1108.6563 1800.375,1108.7813 1799.6094,1108.7813 C1797.5625,1108.7813 1796.2656,1107.6875 1796.2656,1105.9844 L1796.2656,1104.8906 C1796.2656,1103.1094 1797.5156,1101.7969 1799.25,1101.7969 C1799.8281,1101.7969 1800.4375,1101.9531 1800.9063,1102.2031 C1801.3906,1102.4844 1801.5625,1102.7031 1801.6563,1103.1094 C1801.7188,1103.5156 1801.75,1103.6406 1801.8906,1103.7656 C1802.0313,1103.9063 1802.2656,1104.0156 1802.4844,1104.0156 C1802.75,1104.0156 1803.0156,1103.875 1803.1875,1103.6563 C1803.2969,1103.5 1803.3281,1103.3125 1803.3281,1102.8906 L1803.3281,1101.4688 C1803.3281,1101.0313 1803.3125,1100.9063 1803.2188,1100.75 C1803.0625,1100.4844 1802.7813,1100.3438 1802.4844,1100.3438 C1802.1875,1100.3438 1801.9844,1100.4375 1801.7656,1100.75 L1801.5938,1100.6719 Z " fill="#000000"/><text fill="#000000" font-family="sans-serif" font-size="14" lengthAdjust="spacing" textLength="41" x="1819.75" y="1109.8467">Heros</text><line style="stroke:#181818;stroke-width:0.5;" x1="1608" x2="2040" y1="1121" y2="1121"/><ellipse cx="1618" cy="1154.9453" fill="#84BE84" rx="3" ry="3" style="stroke:#038048;stroke-width:1.0;"/><text fill="#000000" font-family="sans-serif" font-size="14" lengthAdjust="spacing" textLength="408" x="1627" y="1158.292">Heros(double x, double y, double largeur, double hauteur)</text><line style="stroke:#181818;stroke-width:1.0;stroke-dasharray:1.0,2.0;" x1="1608" x2="1777" y1="1137.1484" y2="1137.1484"/><text fill="#000000" font-family="sans-serif" font-size="14" lengthAdjust="spacing" textLength="94" x="1777" y="1141.4951">Constructeur</text><line style="stroke:#181818;stroke-width:1.0;stroke-dasharray:1.0,2.0;" x1="1871" x2="2040" y1="1137.1484" y2="1137.1484"/><ellipse cx="1618" cy="1191.5391" fill="#84BE84" rx="3" ry="3" style="stroke:#038048;stroke-width:1.0;"/><text fill="#000000" font-family="sans-serif" font-size="14" lengthAdjust="spacing" textLength="154" x="1627" y="1194.8857">boolean estUnHeros()</text><line style="stroke:#181818;stroke-width:1.0;stroke-dasharray:1.0,2.0;" x1="1608" x2="1788.5" y1="1173.7422" y2="1173.7422"/><text fill="#000000" font-family="sans-serif" font-size="14" lengthAdjust="spacing" textLength="71" x="1788.5" y="1178.0889">Méthodes</text><line style="stroke:#181818;stroke-width:1.0;stroke-dasharray:1.0,2.0;" x1="1859.5" x2="2040" y1="1173.7422" y2="1173.7422"/></g><!--class Monstre--><g id="elem_Monstre"><rect codeLine="65" fill="#F1F1F1" height="92.8906" id="Monstre" rx="2.5" ry="2.5" style="stroke:#181818;stroke-width:0.5;" width="609" x="2076.5" y="1099"/><ellipse cx="2348.25" cy="1115" fill="#A9DCDF" rx="11" ry="11" style="stroke:#181818;stroke-width:1.0;"/><path d="M2350.3281,1116.8125 L2350.7188,1117.7969 L2350.3281,1117.7969 C2349.875,1117.7969 2349.7656,1117.8125 2349.6094,1117.9219 C2349.3594,1118.0781 2349.2031,1118.3594 2349.2031,1118.6563 C2349.2031,1118.9219 2349.3438,1119.1719 2349.5625,1119.3281 C2349.7031,1119.4531 2349.9063,1119.5 2350.3281,1119.5 L2352.6875,1119.5 C2353.0469,1119.5 2353.2656,1119.4688 2353.4063,1119.375 C2353.6563,1119.2344 2353.8125,1118.9375 2353.8125,1118.6563 C2353.8125,1118.375 2353.6719,1118.125 2353.4531,1117.9688 C2353.2813,1117.8281 2353.125,1117.7969 2352.6563,1117.7969 L2349.2656,1109.5938 L2345.5938,1109.5938 C2345.1406,1109.5938 2345.0156,1109.6094 2344.8594,1109.7031 C2344.6094,1109.875 2344.4531,1110.1563 2344.4531,1110.4375 C2344.4531,1110.7188 2344.5938,1110.9688 2344.8125,1111.1406 C2344.9844,1111.25 2345.1563,1111.2813 2345.5938,1111.2813 L2346.6719,1111.2813 L2344.0313,1117.7969 C2343.6094,1117.7969 2343.4531,1117.8125 2343.2969,1117.9219 C2343.0469,1118.0781 2342.8906,1118.3594 2342.8906,1118.6563 C2342.8906,1119.2188 2343.2656,1119.5 2344.0156,1119.5 L2346.2813,1119.5 C2346.6406,1119.5 2346.8594,1119.4688 2346.9844,1119.375 C2347.25,1119.2344 2347.3906,1118.9375 2347.3906,1118.6563 C2347.3906,1118.375 2347.2656,1118.125 2347.0469,1117.9531 C2346.875,1117.8281 2346.7344,1117.7969 2346.2813,1117.7969 L2345.8906,1117.7969 L2346.2813,1116.8125 L2350.3281,1116.8125 Z M2349.625,1115.1094 L2346.9531,1115.1094 L2348.2969,1111.8438 L2349.625,1115.1094 Z " fill="#000000"/><text fill="#000000" font-family="sans-serif" font-size="14" font-style="italic" lengthAdjust="spacing" textLength="57" x="2368.75" y="1119.8467">Monstre</text><line style="stroke:#181818;stroke-width:0.5;" x1="2077.5" x2="2684.5" y1="1131" y2="1131"/><ellipse cx="2087.5" cy="1164.9453" fill="#84BE84" rx="3" ry="3" style="stroke:#038048;stroke-width:1.0;"/><text fill="#000000" font-family="sans-serif" font-size="14" lengthAdjust="spacing" textLength="538" x="2096.5" y="1168.292">Monstre(double x, double y, double hauteur, double largeur, double vitesse)</text><ellipse cx="2087.5" cy="1181.2422" fill="#84BE84" rx="3" ry="3" style="stroke:#038048;stroke-width:1.0;"/><text fill="#000000" font-family="sans-serif" font-size="14" lengthAdjust="spacing" textLength="583" x="2096.5" y="1184.5889">Monstre(double x, double y, double largeur, double hauteur, double vitesse, int id)</text><line style="stroke:#181818;stroke-width:1.0;stroke-dasharray:1.0,2.0;" x1="2077.5" x2="2334" y1="1147.1484" y2="1147.1484"/><text fill="#000000" font-family="sans-serif" font-size="14" lengthAdjust="spacing" textLength="94" x="2334" y="1151.4951">Constructeur</text><line style="stroke:#181818;stroke-width:1.0;stroke-dasharray:1.0,2.0;" x1="2428" x2="2684.5" y1="1147.1484" y2="1147.1484"/></g><!--class Walker--><g id="elem_Walker"><rect codeLine="71" fill="#F1F1F1" height="92.8906" id="Walker" rx="2.5" ry="2.5" style="stroke:#181818;stroke-width:0.5;" width="600" x="2081" y="1319"/><ellipse cx="2351.75" cy="1335" fill="#ADD1B2" rx="11" ry="11" style="stroke:#181818;stroke-width:1.0;"/><path d="M2354.0938,1330.6719 C2353.1563,1330.2344 2352.5625,1330.0938 2351.6875,1330.0938 C2349.0625,1330.0938 2347.0625,1332.1719 2347.0625,1334.8906 L2347.0625,1336.0156 C2347.0625,1338.5938 2349.1719,1340.4844 2352.0625,1340.4844 C2353.2813,1340.4844 2354.4375,1340.1875 2355.1875,1339.6406 C2355.7656,1339.2344 2356.0938,1338.7813 2356.0938,1338.3906 C2356.0938,1337.9375 2355.7031,1337.5469 2355.2344,1337.5469 C2355.0156,1337.5469 2354.8125,1337.625 2354.625,1337.8125 C2354.1719,1338.2969 2354.1719,1338.2969 2353.9844,1338.3906 C2353.5625,1338.6563 2352.875,1338.7813 2352.1094,1338.7813 C2350.0625,1338.7813 2348.7656,1337.6875 2348.7656,1335.9844 L2348.7656,1334.8906 C2348.7656,1333.1094 2350.0156,1331.7969 2351.75,1331.7969 C2352.3281,1331.7969 2352.9375,1331.9531 2353.4063,1332.2031 C2353.8906,1332.4844 2354.0625,1332.7031 2354.1563,1333.1094 C2354.2188,1333.5156 2354.25,1333.6406 2354.3906,1333.7656 C2354.5313,1333.9063 2354.7656,1334.0156 2354.9844,1334.0156 C2355.25,1334.0156 2355.5156,1333.875 2355.6875,1333.6563 C2355.7969,1333.5 2355.8281,1333.3125 2355.8281,1332.8906 L2355.8281,1331.4688 C2355.8281,1331.0313 2355.8125,1330.9063 2355.7188,1330.75 C2355.5625,1330.4844 2355.2813,1330.3438 2354.9844,1330.3438 C2354.6875,1330.3438 2354.4844,1330.4375 2354.2656,1330.75 L2354.0938,1330.6719 Z " fill="#000000"/><text fill="#000000" font-family="sans-serif" font-size="14" lengthAdjust="spacing" textLength="50" x="2372.25" y="1339.8467">Walker</text><line style="stroke:#181818;stroke-width:0.5;" x1="2082" x2="2680" y1="1351" y2="1351"/><ellipse cx="2092" cy="1384.9453" fill="#84BE84" rx="3" ry="3" style="stroke:#038048;stroke-width:1.0;"/><text fill="#000000" font-family="sans-serif" font-size="14" lengthAdjust="spacing" textLength="417" x="2101" y="1388.292">Walker(double x, double y, double hauteur, double largeur)</text><ellipse cx="2092" cy="1401.2422" fill="#84BE84" rx="3" ry="3" style="stroke:#038048;stroke-width:1.0;"/><text fill="#000000" font-family="sans-serif" font-size="14" lengthAdjust="spacing" textLength="574" x="2101" y="1404.5889">Walker(double x, double y, double hauteur, double largeur, double vitesse, int id)</text><line style="stroke:#181818;stroke-width:1.0;stroke-dasharray:1.0,2.0;" x1="2082" x2="2334" y1="1367.1484" y2="1367.1484"/><text fill="#000000" font-family="sans-serif" font-size="14" lengthAdjust="spacing" textLength="94" x="2334" y="1371.4951">Constructeur</text><line style="stroke:#181818;stroke-width:1.0;stroke-dasharray:1.0,2.0;" x1="2428" x2="2680" y1="1367.1484" y2="1367.1484"/></g><!--class Monde--><g id="elem_Monde"><rect codeLine="77" fill="#F1F1F1" height="325.0469" id="Monde" rx="2.5" ry="2.5" style="stroke:#181818;stroke-width:0.5;" width="585" x="1263.5" y="335.5"/><ellipse cx="1527.75" cy="351.5" fill="#ADD1B2" rx="11" ry="11" style="stroke:#181818;stroke-width:1.0;"/><path d="M1530.0938,347.1719 C1529.1563,346.7344 1528.5625,346.5938 1527.6875,346.5938 C1525.0625,346.5938 1523.0625,348.6719 1523.0625,351.3906 L1523.0625,352.5156 C1523.0625,355.0938 1525.1719,356.9844 1528.0625,356.9844 C1529.2813,356.9844 1530.4375,356.6875 1531.1875,356.1406 C1531.7656,355.7344 1532.0938,355.2813 1532.0938,354.8906 C1532.0938,354.4375 1531.7031,354.0469 1531.2344,354.0469 C1531.0156,354.0469 1530.8125,354.125 1530.625,354.3125 C1530.1719,354.7969 1530.1719,354.7969 1529.9844,354.8906 C1529.5625,355.1563 1528.875,355.2813 1528.1094,355.2813 C1526.0625,355.2813 1524.7656,354.1875 1524.7656,352.4844 L1524.7656,351.3906 C1524.7656,349.6094 1526.0156,348.2969 1527.75,348.2969 C1528.3281,348.2969 1528.9375,348.4531 1529.4063,348.7031 C1529.8906,348.9844 1530.0625,349.2031 1530.1563,349.6094 C1530.2188,350.0156 1530.25,350.1406 1530.3906,350.2656 C1530.5313,350.4063 1530.7656,350.5156 1530.9844,350.5156 C1531.25,350.5156 1531.5156,350.375 1531.6875,350.1563 C1531.7969,350 1531.8281,349.8125 1531.8281,349.3906 L1531.8281,347.9688 C1531.8281,347.5313 1531.8125,347.4063 1531.7188,347.25 C1531.5625,346.9844 1531.2813,346.8438 1530.9844,346.8438 C1530.6875,346.8438 1530.4844,346.9375 1530.2656,347.25 L1530.0938,347.1719 Z " fill="#000000"/><text fill="#000000" font-family="sans-serif" font-size="14" lengthAdjust="spacing" textLength="48" x="1548.25" y="356.3467">Monde</text><line style="stroke:#181818;stroke-width:0.5;" x1="1264.5" x2="1847.5" y1="367.5" y2="367.5"/><ellipse cx="1274.5" cy="401.4453" fill="#84BE84" rx="3" ry="3" style="stroke:#038048;stroke-width:1.0;"/><text fill="#000000" font-family="sans-serif" font-size="14" lengthAdjust="spacing" textLength="58" x="1283.5" y="404.792">Monde()</text><line style="stroke:#181818;stroke-width:1.0;stroke-dasharray:1.0,2.0;" x1="1264.5" x2="1509" y1="383.6484" y2="383.6484"/><text fill="#000000" font-family="sans-serif" font-size="14" lengthAdjust="spacing" textLength="94" x="1509" y="387.9951">Constructeur</text><line style="stroke:#181818;stroke-width:1.0;stroke-dasharray:1.0,2.0;" x1="1603" x2="1847.5" y1="383.6484" y2="383.6484"/><ellipse cx="1274.5" cy="438.0391" fill="#84BE84" rx="3" ry="3" style="stroke:#038048;stroke-width:1.0;"/><text fill="#000000" font-family="sans-serif" font-size="14" lengthAdjust="spacing" textLength="225" x="1283.5" y="441.3857">void chargerCarte(String carte)</text><ellipse cx="1274.5" cy="454.3359" fill="#84BE84" rx="3" ry="3" style="stroke:#038048;stroke-width:1.0;"/><text fill="#000000" font-family="sans-serif" font-size="14" lengthAdjust="spacing" textLength="399" x="1283.5" y="457.6826">boolean collision(ElementMonde e1, ElementMonde e2)</text><ellipse cx="1274.5" cy="470.6328" fill="#84BE84" rx="3" ry="3" style="stroke:#038048;stroke-width:1.0;"/><text fill="#000000" font-family="sans-serif" font-size="14" lengthAdjust="spacing" textLength="190" x="1283.5" y="473.9795">void addTerrains(Terrain t)</text><ellipse cx="1274.5" cy="486.9297" fill="#84BE84" rx="3" ry="3" style="stroke:#038048;stroke-width:1.0;"/><text fill="#000000" font-family="sans-serif" font-size="14" lengthAdjust="spacing" textLength="252" x="1283.5" y="490.2764">void addPersonnage(Personnage p)</text><ellipse cx="1274.5" cy="503.2266" fill="#84BE84" rx="3" ry="3" style="stroke:#038048;stroke-width:1.0;"/><text fill="#000000" font-family="sans-serif" font-size="14" lengthAdjust="spacing" textLength="559" x="1283.5" y="506.5732">void deplacementHeros(TypeMouvement typeMouvement, double deltaTime)</text><ellipse cx="1274.5" cy="519.5234" fill="#84BE84" rx="3" ry="3" style="stroke:#038048;stroke-width:1.0;"/><text fill="#000000" font-family="sans-serif" font-size="14" lengthAdjust="spacing" textLength="121" x="1283.5" y="522.8701">Heros getHeros()</text><ellipse cx="1274.5" cy="535.8203" fill="#84BE84" rx="3" ry="3" style="stroke:#038048;stroke-width:1.0;"/><text fill="#000000" font-family="sans-serif" font-size="14" lengthAdjust="spacing" textLength="300" x="1283.5" y="539.167">ArrayList&lt;Personnage&gt; getPersonnages()</text><ellipse cx="1274.5" cy="552.1172" fill="#84BE84" rx="3" ry="3" style="stroke:#038048;stroke-width:1.0;"/><text fill="#000000" font-family="sans-serif" font-size="14" lengthAdjust="spacing" textLength="234" x="1283.5" y="555.4639">ArrayList&lt;Terrain&gt; getTerrains()</text><ellipse cx="1274.5" cy="568.4141" fill="#84BE84" rx="3" ry="3" style="stroke:#038048;stroke-width:1.0;"/><text fill="#000000" font-family="sans-serif" font-size="14" lengthAdjust="spacing" textLength="474" x="1283.5" y="571.7607">boolean collisionAvec(Personnage pers, boolean checkAvecHeros)</text><ellipse cx="1274.5" cy="584.7109" fill="#84BE84" rx="3" ry="3" style="stroke:#038048;stroke-width:1.0;"/><text fill="#000000" font-family="sans-serif" font-size="14" lengthAdjust="spacing" text-decoration="underline" textLength="302" x="1283.5" y="588.0576">int intLePlusProche(int value, int multiple)</text><ellipse cx="1274.5" cy="601.0078" fill="#84BE84" rx="3" ry="3" style="stroke:#038048;stroke-width:1.0;"/><text fill="#000000" font-family="sans-serif" font-size="14" lengthAdjust="spacing" textLength="206" x="1283.5" y="604.3545">void deplacementMonstres()</text><ellipse cx="1274.5" cy="617.3047" fill="#84BE84" rx="3" ry="3" style="stroke:#038048;stroke-width:1.0;"/><text fill="#000000" font-family="sans-serif" font-size="14" lengthAdjust="spacing" textLength="489" x="1283.5" y="620.6514">Graph&lt;Point2D, DefaultEdge&gt; grapheAlternatif(Monstre m, int pas)</text><ellipse cx="1274.5" cy="633.6016" fill="#84BE84" rx="3" ry="3" style="stroke:#038048;stroke-width:1.0;"/><text fill="#000000" font-family="sans-serif" font-size="14" lengthAdjust="spacing" textLength="321" x="1283.5" y="636.9482">boolean collisionAvecTerrains(Personnage p)</text><ellipse cx="1274.5" cy="649.8984" fill="#84BE84" rx="3" ry="3" style="stroke:#038048;stroke-width:1.0;"/><text fill="#000000" font-family="sans-serif" font-size="14" lengthAdjust="spacing" textLength="332" x="1283.5" y="653.2451">void deplacementMonstres(double deltaTime)</text><line style="stroke:#181818;stroke-width:1.0;stroke-dasharray:1.0,2.0;" x1="1264.5" x2="1520.5" y1="420.2422" y2="420.2422"/><text fill="#000000" font-family="sans-serif" font-size="14" lengthAdjust="spacing" textLength="71" x="1520.5" y="424.5889">Méthodes</text><line style="stroke:#181818;stroke-width:1.0;stroke-dasharray:1.0,2.0;" x1="1591.5" x2="1847.5" y1="420.2422" y2="420.2422"/></g><!--class Donnees--><g id="elem_Donnees"><rect codeLine="99" fill="#F1F1F1" height="129.4844" id="Donnees" rx="2.5" ry="2.5" style="stroke:#181818;stroke-width:0.5;" width="245" x="850.5" y="433.5"/><ellipse cx="937.25" cy="449.5" fill="#ADD1B2" rx="11" ry="11" style="stroke:#181818;stroke-width:1.0;"/><path d="M939.5938,445.1719 C938.6563,444.7344 938.0625,444.5938 937.1875,444.5938 C934.5625,444.5938 932.5625,446.6719 932.5625,449.3906 L932.5625,450.5156 C932.5625,453.0938 934.6719,454.9844 937.5625,454.9844 C938.7813,454.9844 939.9375,454.6875 940.6875,454.1406 C941.2656,453.7344 941.5938,453.2813 941.5938,452.8906 C941.5938,452.4375 941.2031,452.0469 940.7344,452.0469 C940.5156,452.0469 940.3125,452.125 940.125,452.3125 C939.6719,452.7969 939.6719,452.7969 939.4844,452.8906 C939.0625,453.1563 938.375,453.2813 937.6094,453.2813 C935.5625,453.2813 934.2656,452.1875 934.2656,450.4844 L934.2656,449.3906 C934.2656,447.6094 935.5156,446.2969 937.25,446.2969 C937.8281,446.2969 938.4375,446.4531 938.9063,446.7031 C939.3906,446.9844 939.5625,447.2031 939.6563,447.6094 C939.7188,448.0156 939.75,448.1406 939.8906,448.2656 C940.0313,448.4063 940.2656,448.5156 940.4844,448.5156 C940.75,448.5156 941.0156,448.375 941.1875,448.1563 C941.2969,448 941.3281,447.8125 941.3281,447.3906 L941.3281,445.9688 C941.3281,445.5313 941.3125,445.4063 941.2188,445.25 C941.0625,444.9844 940.7813,444.8438 940.4844,444.8438 C940.1875,444.8438 939.9844,444.9375 939.7656,445.25 L939.5938,445.1719 Z " fill="#000000"/><text fill="#000000" font-family="sans-serif" font-size="14" lengthAdjust="spacing" textLength="63" x="957.75" y="454.3467">Donnees</text><line style="stroke:#181818;stroke-width:0.5;" x1="851.5" x2="1094.5" y1="465.5" y2="465.5"/><ellipse cx="861.5" cy="479.1484" fill="none" rx="3" ry="3" style="stroke:#038048;stroke-width:1.0;"/><text fill="#000000" font-family="sans-serif" font-size="14" lengthAdjust="spacing" text-decoration="underline" textLength="219" x="870.5" y="482.4951">int WINDOW_DEFAULT_HEIGHT</text><ellipse cx="861.5" cy="495.4453" fill="none" rx="3" ry="3" style="stroke:#038048;stroke-width:1.0;"/><text fill="#000000" font-family="sans-serif" font-size="14" lengthAdjust="spacing" text-decoration="underline" textLength="214" x="870.5" y="498.792">int WINDOW_DEFAULT_WIDTH</text><ellipse cx="861.5" cy="511.7422" fill="none" rx="3" ry="3" style="stroke:#038048;stroke-width:1.0;"/><text fill="#000000" font-family="sans-serif" font-size="14" lengthAdjust="spacing" text-decoration="underline" textLength="138" x="870.5" y="515.0889">int WORLD_HEIGHT</text><ellipse cx="861.5" cy="528.0391" fill="none" rx="3" ry="3" style="stroke:#038048;stroke-width:1.0;"/><text fill="#000000" font-family="sans-serif" font-size="14" lengthAdjust="spacing" text-decoration="underline" textLength="133" x="870.5" y="531.3857">int WORLD_WIDTH</text><text fill="#000000" font-family="sans-serif" font-size="14" lengthAdjust="spacing" textLength="15" x="870.5" y="547.6826">...</text><line style="stroke:#181818;stroke-width:0.5;" x1="851.5" x2="1094.5" y1="554.9844" y2="554.9844"/></g><!--class GestionFichier--><g id="elem_GestionFichier"><rect codeLine="107" fill="#F1F1F1" height="113.1875" id="GestionFichier" rx="2.5" ry="2.5" style="stroke:#181818;stroke-width:0.5;" width="322" x="774" y="802"/><ellipse cx="878.75" cy="818" fill="#ADD1B2" rx="11" ry="11" style="stroke:#181818;stroke-width:1.0;"/><path d="M881.0938,813.6719 C880.1563,813.2344 879.5625,813.0938 878.6875,813.0938 C876.0625,813.0938 874.0625,815.1719 874.0625,817.8906 L874.0625,819.0156 C874.0625,821.5938 876.1719,823.4844 879.0625,823.4844 C880.2813,823.4844 881.4375,823.1875 882.1875,822.6406 C882.7656,822.2344 883.0938,821.7813 883.0938,821.3906 C883.0938,820.9375 882.7031,820.5469 882.2344,820.5469 C882.0156,820.5469 881.8125,820.625 881.625,820.8125 C881.1719,821.2969 881.1719,821.2969 880.9844,821.3906 C880.5625,821.6563 879.875,821.7813 879.1094,821.7813 C877.0625,821.7813 875.7656,820.6875 875.7656,818.9844 L875.7656,817.8906 C875.7656,816.1094 877.0156,814.7969 878.75,814.7969 C879.3281,814.7969 879.9375,814.9531 880.4063,815.2031 C880.8906,815.4844 881.0625,815.7031 881.1563,816.1094 C881.2188,816.5156 881.25,816.6406 881.3906,816.7656 C881.5313,816.9063 881.7656,817.0156 881.9844,817.0156 C882.25,817.0156 882.5156,816.875 882.6875,816.6563 C882.7969,816.5 882.8281,816.3125 882.8281,815.8906 L882.8281,814.4688 C882.8281,814.0313 882.8125,813.9063 882.7188,813.75 C882.5625,813.4844 882.2813,813.3438 881.9844,813.3438 C881.6875,813.3438 881.4844,813.4375 881.2656,813.75 L881.0938,813.6719 Z " fill="#000000"/><text fill="#000000" font-family="sans-serif" font-size="14" lengthAdjust="spacing" textLength="104" x="899.25" y="822.8467">GestionFichier</text><line style="stroke:#181818;stroke-width:0.5;" x1="775" x2="1095" y1="834" y2="834"/><ellipse cx="785" cy="867.9453" fill="#84BE84" rx="3" ry="3" style="stroke:#038048;stroke-width:1.0;"/><text fill="#000000" font-family="sans-serif" font-size="14" lengthAdjust="spacing" textLength="114" x="794" y="871.292">GestionFichier()</text><line style="stroke:#181818;stroke-width:1.0;stroke-dasharray:1.0,2.0;" x1="775" x2="888" y1="850.1484" y2="850.1484"/><text fill="#000000" font-family="sans-serif" font-size="14" lengthAdjust="spacing" textLength="94" x="888" y="854.4951">Constructeur</text><line style="stroke:#181818;stroke-width:1.0;stroke-dasharray:1.0,2.0;" x1="982" x2="1095" y1="850.1484" y2="850.1484"/><ellipse cx="785" cy="904.5391" fill="#84BE84" rx="3" ry="3" style="stroke:#038048;stroke-width:1.0;"/><text fill="#000000" font-family="sans-serif" font-size="14" lengthAdjust="spacing" text-decoration="underline" textLength="296" x="794" y="907.8857">char[][] lireFichierCarte(String nomCarte)</text><line style="stroke:#181818;stroke-width:1.0;stroke-dasharray:1.0,2.0;" x1="775" x2="899.5" y1="886.7422" y2="886.7422"/><text fill="#000000" font-family="sans-serif" font-size="14" lengthAdjust="spacing" textLength="71" x="899.5" y="891.0889">Méthodes</text><line style="stroke:#181818;stroke-width:1.0;stroke-dasharray:1.0,2.0;" x1="970.5" x2="1095" y1="886.7422" y2="886.7422"/></g><!--class Resources--><g id="elem_Resources"><rect codeLine="114" fill="#F1F1F1" height="227.2656" id="Resources" rx="2.5" ry="2.5" style="stroke:#181818;stroke-width:0.5;" width="358" x="738" y="1032"/><ellipse cx="876.25" cy="1048" fill="#ADD1B2" rx="11" ry="11" style="stroke:#181818;stroke-width:1.0;"/><path d="M878.5938,1043.6719 C877.6563,1043.2344 877.0625,1043.0938 876.1875,1043.0938 C873.5625,1043.0938 871.5625,1045.1719 871.5625,1047.8906 L871.5625,1049.0156 C871.5625,1051.5938 873.6719,1053.4844 876.5625,1053.4844 C877.7813,1053.4844 878.9375,1053.1875 879.6875,1052.6406 C880.2656,1052.2344 880.5938,1051.7813 880.5938,1051.3906 C880.5938,1050.9375 880.2031,1050.5469 879.7344,1050.5469 C879.5156,1050.5469 879.3125,1050.625 879.125,1050.8125 C878.6719,1051.2969 878.6719,1051.2969 878.4844,1051.3906 C878.0625,1051.6563 877.375,1051.7813 876.6094,1051.7813 C874.5625,1051.7813 873.2656,1050.6875 873.2656,1048.9844 L873.2656,1047.8906 C873.2656,1046.1094 874.5156,1044.7969 876.25,1044.7969 C876.8281,1044.7969 877.4375,1044.9531 877.9063,1045.2031 C878.3906,1045.4844 878.5625,1045.7031 878.6563,1046.1094 C878.7188,1046.5156 878.75,1046.6406 878.8906,1046.7656 C879.0313,1046.9063 879.2656,1047.0156 879.4844,1047.0156 C879.75,1047.0156 880.0156,1046.875 880.1875,1046.6563 C880.2969,1046.5 880.3281,1046.3125 880.3281,1045.8906 L880.3281,1044.4688 C880.3281,1044.0313 880.3125,1043.9063 880.2188,1043.75 C880.0625,1043.4844 879.7813,1043.3438 879.4844,1043.3438 C879.1875,1043.3438 878.9844,1043.4375 878.7656,1043.75 L878.5938,1043.6719 Z " fill="#000000"/><text fill="#000000" font-family="sans-serif" font-size="14" lengthAdjust="spacing" textLength="73" x="896.75" y="1052.8467">Resources</text><line style="stroke:#181818;stroke-width:0.5;" x1="739" x2="1095" y1="1064" y2="1064"/><rect fill="none" height="6" style="stroke:#C82930;stroke-width:1.0;" width="6" x="746" y="1074.6484"/><text fill="#000000" font-family="sans-serif" font-size="14" lengthAdjust="spacing" text-decoration="underline" textLength="197" x="758" y="1080.9951">Map&lt;String, Image&gt; assets</text><rect fill="#F24D5C" height="6" style="stroke:#C82930;stroke-width:1.0;" width="6" x="746" y="1111.2422"/><text fill="#000000" font-family="sans-serif" font-size="14" lengthAdjust="spacing" textLength="83" x="758" y="1117.5889">Resources()</text><line style="stroke:#181818;stroke-width:1.0;stroke-dasharray:1.0,2.0;" x1="739" x2="870" y1="1096.4453" y2="1096.4453"/><text fill="#000000" font-family="sans-serif" font-size="14" lengthAdjust="spacing" textLength="94" x="870" y="1100.792">Constructeur</text><line style="stroke:#181818;stroke-width:1.0;stroke-dasharray:1.0,2.0;" x1="964" x2="1095" y1="1096.4453" y2="1096.4453"/><ellipse cx="749" cy="1150.8359" fill="#84BE84" rx="3" ry="3" style="stroke:#038048;stroke-width:1.0;"/><text fill="#000000" font-family="sans-serif" font-size="14" lengthAdjust="spacing" text-decoration="underline" textLength="148" x="758" y="1154.1826">URL get(String path)</text><ellipse cx="749" cy="1167.1328" fill="#84BE84" rx="3" ry="3" style="stroke:#038048;stroke-width:1.0;"/><text fill="#000000" font-family="sans-serif" font-size="14" lengthAdjust="spacing" text-decoration="underline" textLength="282" x="758" y="1170.4795">InputStream getAsStream(String path)</text><ellipse cx="749" cy="1183.4297" fill="#84BE84" rx="3" ry="3" style="stroke:#038048;stroke-width:1.0;"/><text fill="#000000" font-family="sans-serif" font-size="14" lengthAdjust="spacing" text-decoration="underline" textLength="205" x="758" y="1186.7764">Image getAsset(String path)</text><ellipse cx="749" cy="1199.7266" fill="#84BE84" rx="3" ry="3" style="stroke:#038048;stroke-width:1.0;"/><text fill="#000000" font-family="sans-serif" font-size="14" lengthAdjust="spacing" text-decoration="underline" textLength="326" x="758" y="1203.0732">ResourceBundle getI18NBundle(Locale locale)</text><ellipse cx="749" cy="1216.0234" fill="#84BE84" rx="3" ry="3" style="stroke:#038048;stroke-width:1.0;"/><text fill="#000000" font-family="sans-serif" font-size="14" lengthAdjust="spacing" text-decoration="underline" textLength="234" x="758" y="1219.3701">ResourceBundle getI18NBundle()</text><ellipse cx="749" cy="1232.3203" fill="#84BE84" rx="3" ry="3" style="stroke:#038048;stroke-width:1.0;"/><text fill="#000000" font-family="sans-serif" font-size="14" lengthAdjust="spacing" text-decoration="underline" textLength="332" x="758" y="1235.667">String getI18NString(String key, Locale locale)</text><ellipse cx="749" cy="1248.6172" fill="#84BE84" rx="3" ry="3" style="stroke:#038048;stroke-width:1.0;"/><text fill="#000000" font-family="sans-serif" font-size="14" lengthAdjust="spacing" text-decoration="underline" textLength="232" x="758" y="1251.9639">String getI18NString(String key)</text><line style="stroke:#181818;stroke-width:1.0;stroke-dasharray:1.0,2.0;" x1="739" x2="881.5" y1="1133.0391" y2="1133.0391"/><text fill="#000000" font-family="sans-serif" font-size="14" lengthAdjust="spacing" textLength="71" x="881.5" y="1137.3857">Méthodes</text><line style="stroke:#181818;stroke-width:1.0;stroke-dasharray:1.0,2.0;" x1="952.5" x2="1095" y1="1133.0391" y2="1133.0391"/></g><!--class FabriqueId--><g id="elem_FabriqueId"><rect codeLine="128" fill="#F1F1F1" height="162.0781" id="FabriqueId" rx="2.5" ry="2.5" style="stroke:#181818;stroke-width:0.5;" width="201" x="614.5" y="417"/><ellipse cx="673.25" cy="433" fill="#ADD1B2" rx="11" ry="11" style="stroke:#181818;stroke-width:1.0;"/><path d="M675.5938,428.6719 C674.6563,428.2344 674.0625,428.0938 673.1875,428.0938 C670.5625,428.0938 668.5625,430.1719 668.5625,432.8906 L668.5625,434.0156 C668.5625,436.5938 670.6719,438.4844 673.5625,438.4844 C674.7813,438.4844 675.9375,438.1875 676.6875,437.6406 C677.2656,437.2344 677.5938,436.7813 677.5938,436.3906 C677.5938,435.9375 677.2031,435.5469 676.7344,435.5469 C676.5156,435.5469 676.3125,435.625 676.125,435.8125 C675.6719,436.2969 675.6719,436.2969 675.4844,436.3906 C675.0625,436.6563 674.375,436.7813 673.6094,436.7813 C671.5625,436.7813 670.2656,435.6875 670.2656,433.9844 L670.2656,432.8906 C670.2656,431.1094 671.5156,429.7969 673.25,429.7969 C673.8281,429.7969 674.4375,429.9531 674.9063,430.2031 C675.3906,430.4844 675.5625,430.7031 675.6563,431.1094 C675.7188,431.5156 675.75,431.6406 675.8906,431.7656 C676.0313,431.9063 676.2656,432.0156 676.4844,432.0156 C676.75,432.0156 677.0156,431.875 677.1875,431.6563 C677.2969,431.5 677.3281,431.3125 677.3281,430.8906 L677.3281,429.4688 C677.3281,429.0313 677.3125,428.9063 677.2188,428.75 C677.0625,428.4844 676.7813,428.3438 676.4844,428.3438 C676.1875,428.3438 675.9844,428.4375 675.7656,428.75 L675.5938,428.6719 Z " fill="#000000"/><text fill="#000000" font-family="sans-serif" font-size="14" lengthAdjust="spacing" textLength="75" x="693.75" y="437.8467">FabriqueId</text><line style="stroke:#181818;stroke-width:0.5;" x1="615.5" x2="814.5" y1="449" y2="449"/><rect fill="none" height="6" style="stroke:#C82930;stroke-width:1.0;" width="6" x="622.5" y="459.6484"/><text fill="#000000" font-family="sans-serif" font-size="14" lengthAdjust="spacing" text-decoration="underline" textLength="140" x="634.5" y="465.9951">FabriqueId instance</text><rect fill="none" height="6" style="stroke:#C82930;stroke-width:1.0;" width="6" x="622.5" y="475.9453"/><text fill="#000000" font-family="sans-serif" font-size="14" lengthAdjust="spacing" textLength="37" x="634.5" y="482.292">int id</text><rect fill="#F24D5C" height="6" style="stroke:#C82930;stroke-width:1.0;" width="6" x="622.5" y="512.5391"/><text fill="#000000" font-family="sans-serif" font-size="14" lengthAdjust="spacing" textLength="85" x="634.5" y="518.8857">FabriqueId()</text><line style="stroke:#181818;stroke-width:1.0;stroke-dasharray:1.0,2.0;" x1="615.5" x2="668" y1="497.7422" y2="497.7422"/><text fill="#000000" font-family="sans-serif" font-size="14" lengthAdjust="spacing" textLength="94" x="668" y="502.0889">Constructeur</text><line style="stroke:#181818;stroke-width:1.0;stroke-dasharray:1.0,2.0;" x1="762" x2="814.5" y1="497.7422" y2="497.7422"/><ellipse cx="625.5" cy="552.1328" fill="#84BE84" rx="3" ry="3" style="stroke:#038048;stroke-width:1.0;"/><text fill="#000000" font-family="sans-serif" font-size="14" lengthAdjust="spacing" text-decoration="underline" textLength="175" x="634.5" y="555.4795">FabriqueId getInstance()</text><ellipse cx="625.5" cy="568.4297" fill="#84BE84" rx="3" ry="3" style="stroke:#038048;stroke-width:1.0;"/><text fill="#000000" font-family="sans-serif" font-size="14" lengthAdjust="spacing" textLength="72" x="634.5" y="571.7764">int getId()</text><line style="stroke:#181818;stroke-width:1.0;stroke-dasharray:1.0,2.0;" x1="615.5" x2="679.5" y1="534.3359" y2="534.3359"/><text fill="#000000" font-family="sans-serif" font-size="14" lengthAdjust="spacing" textLength="71" x="679.5" y="538.6826">Méthodes</text><line style="stroke:#181818;stroke-width:1.0;stroke-dasharray:1.0,2.0;" x1="750.5" x2="814.5" y1="534.3359" y2="534.3359"/></g><!--class Sprite--><g id="elem_Sprite"><rect codeLine="140" fill="#F1F1F1" height="48" id="Sprite" rx="2.5" ry="2.5" style="stroke:#181818;stroke-width:0.5;" width="77" x="2758.5" y="834.5"/><ellipse cx="2773.5" cy="850.5" fill="#ADD1B2" rx="11" ry="11" style="stroke:#181818;stroke-width:1.0;"/><path d="M2775.8438,846.1719 C2774.9063,845.7344 2774.3125,845.5938 2773.4375,845.5938 C2770.8125,845.5938 2768.8125,847.6719 2768.8125,850.3906 L2768.8125,851.5156 C2768.8125,854.0938 2770.9219,855.9844 2773.8125,855.9844 C2775.0313,855.9844 2776.1875,855.6875 2776.9375,855.1406 C2777.5156,854.7344 2777.8438,854.2813 2777.8438,853.8906 C2777.8438,853.4375 2777.4531,853.0469 2776.9844,853.0469 C2776.7656,853.0469 2776.5625,853.125 2776.375,853.3125 C2775.9219,853.7969 2775.9219,853.7969 2775.7344,853.8906 C2775.3125,854.1563 2774.625,854.2813 2773.8594,854.2813 C2771.8125,854.2813 2770.5156,853.1875 2770.5156,851.4844 L2770.5156,850.3906 C2770.5156,848.6094 2771.7656,847.2969 2773.5,847.2969 C2774.0781,847.2969 2774.6875,847.4531 2775.1563,847.7031 C2775.6406,847.9844 2775.8125,848.2031 2775.9063,848.6094 C2775.9688,849.0156 2776,849.1406 2776.1406,849.2656 C2776.2813,849.4063 2776.5156,849.5156 2776.7344,849.5156 C2777,849.5156 2777.2656,849.375 2777.4375,849.1563 C2777.5469,849 2777.5781,848.8125 2777.5781,848.3906 L2777.5781,846.9688 C2777.5781,846.5313 2777.5625,846.4063 2777.4688,846.25 C2777.3125,845.9844 2777.0313,845.8438 2776.7344,845.8438 C2776.4375,845.8438 2776.2344,845.9375 2776.0156,846.25 L2775.8438,846.1719 Z " fill="#000000"/><text fill="#000000" font-family="sans-serif" font-size="14" lengthAdjust="spacing" textLength="45" x="2787.5" y="855.3467">Sprite</text><line style="stroke:#181818;stroke-width:0.5;" x1="2759.5" x2="2834.5" y1="866.5" y2="866.5"/><line style="stroke:#181818;stroke-width:0.5;" x1="2759.5" x2="2834.5" y1="874.5" y2="874.5"/></g><!--class GameController--><g id="elem_GameController"><rect codeLine="144" fill="#F1F1F1" height="48" id="GameController" rx="2.5" ry="2.5" style="stroke:#181818;stroke-width:0.5;" width="146" x="2636" y="156"/><ellipse cx="2651" cy="172" fill="#A9DCDF" rx="11" ry="11" style="stroke:#181818;stroke-width:1.0;"/><path d="M2653.0781,173.8125 L2653.4688,174.7969 L2653.0781,174.7969 C2652.625,174.7969 2652.5156,174.8125 2652.3594,174.9219 C2652.1094,175.0781 2651.9531,175.3594 2651.9531,175.6563 C2651.9531,175.9219 2652.0938,176.1719 2652.3125,176.3281 C2652.4531,176.4531 2652.6563,176.5 2653.0781,176.5 L2655.4375,176.5 C2655.7969,176.5 2656.0156,176.4688 2656.1563,176.375 C2656.4063,176.2344 2656.5625,175.9375 2656.5625,175.6563 C2656.5625,175.375 2656.4219,175.125 2656.2031,174.9688 C2656.0313,174.8281 2655.875,174.7969 2655.4063,174.7969 L2652.0156,166.5938 L2648.3438,166.5938 C2647.8906,166.5938 2647.7656,166.6094 2647.6094,166.7031 C2647.3594,166.875 2647.2031,167.1563 2647.2031,167.4375 C2647.2031,167.7188 2647.3438,167.9688 2647.5625,168.1406 C2647.7344,168.25 2647.9063,168.2813 2648.3438,168.2813 L2649.4219,168.2813 L2646.7813,174.7969 C2646.3594,174.7969 2646.2031,174.8125 2646.0469,174.9219 C2645.7969,175.0781 2645.6406,175.3594 2645.6406,175.6563 C2645.6406,176.2188 2646.0156,176.5 2646.7656,176.5 L2649.0313,176.5 C2649.3906,176.5 2649.6094,176.4688 2649.7344,176.375 C2650,176.2344 2650.1406,175.9375 2650.1406,175.6563 C2650.1406,175.375 2650.0156,175.125 2649.7969,174.9531 C2649.625,174.8281 2649.4844,174.7969 2649.0313,174.7969 L2648.6406,174.7969 L2649.0313,173.8125 L2653.0781,173.8125 Z M2652.375,172.1094 L2649.7031,172.1094 L2651.0469,168.8438 L2652.375,172.1094 Z " fill="#000000"/><text fill="#000000" font-family="sans-serif" font-size="14" font-style="italic" lengthAdjust="spacing" textLength="114" x="2665" y="176.8467">GameController</text><line style="stroke:#181818;stroke-width:0.5;" x1="2637" x2="2781" y1="188" y2="188"/><line style="stroke:#181818;stroke-width:0.5;" x1="2637" x2="2781" y1="196" y2="196"/></g><g id="elem_N_gui"><path d="M2673,6 L2673,46.2656 L3015,46.2656 L3015,16 L3005,6 L2673,6 " fill="#FEFFDD" style="stroke:#181818;stroke-width:0.5;"/><path d="M3005,6 L3005,16 L3015,16 L3005,6 " fill="#FEFFDD" style="stroke:#181818;stroke-width:1.0;"/><text fill="#000000" font-family="sans-serif" font-size="13" lengthAdjust="spacing" textLength="103" x="2679" y="23.0669">Voir diagramme</text><text fill="#000000" font-family="sans-serif" font-size="13" font-style="italic" lengthAdjust="spacing" textLength="58" x="2786" y="23.0669">class-gui</text><text fill="#000000" font-family="sans-serif" font-size="13" lengthAdjust="spacing" textLength="122" x="2848" y="23.0669">pour en savoir plus</text><text fill="#000000" font-family="sans-serif" font-size="13" lengthAdjust="spacing" textLength="321" x="2679" y="38.1997">sur ces packages et les classes qu'ils contiennent.</text></g><!--link N_gui to engine--><g id="link_N_gui_engine"><path codeLine="190" d="M2840.58,46.25 C2837.005,66.38 2831.2375,98.8525 2826.3013,126.6413 C2825.9927,128.378 2825.6875,130.0965 2825.3862,131.7926 C2825.3109,132.2166 2825.2358,132.6392 2825.161,133.0604 C2825.1236,133.2709 2825.0862,133.4811 2825.049,133.691 " fill="none" id="N_gui-engine" style="stroke:#181818;stroke-width:1.0;stroke-dasharray:7.0,7.0;"/></g><!--link N_gui to gui--><g id="link_N_gui_gui"><path codeLine="191" d="M2844.63,46.31 C2846.64,108.17 2853.145,308.2945 2859.1913,494.2749 C2862.2144,587.2651 2865.1228,676.7192 2867.2973,743.5863 C2867.841,760.303 2868.3387,775.6081 2868.781,789.2038 " fill="none" id="N_gui-gui" style="stroke:#181818;stroke-width:1.0;stroke-dasharray:7.0,7.0;"/></g><!--reverse link GestionFichier to Resources--><!--reverse link Donnees to GestionFichier--><!--link engine to gui--><!--link GameController to Monde--><g id="link_GameController_Monde"><path codeLine="200" d="M2691.17,204.05 C2677.07,220.36 2655.84,241.04 2632,251 C2474.72,316.75 2027.89,239.1 1866,292.5 C1833.55,303.21 1801.25,318.24 1770.42,335.36 " fill="none" id="GameController-Monde" style="stroke:#181818;stroke-width:1.0;"/><text fill="#000000" font-family="sans-serif" font-size="13" lengthAdjust="spacing" textLength="8" x="1772.6122" y="324.1878">1</text></g><!--reverse link ElementMonde to Personnage--><g id="link_ElementMonde_Personnage"><path codeLine="201" d="M2279.0591,661.4163 C2269.9691,695.0143 2265.12,712.903 2256.47,744.871 " fill="none" id="ElementMonde-backto-Personnage" style="stroke:#181818;stroke-width:1.0;"/><polygon fill="none" points="2283.76,644.041,2273.2673,659.8493,2284.8508,662.9833,2283.76,644.041" style="stroke:#181818;stroke-width:1.0;"/></g><!--reverse link Personnage to Heros--><g id="link_Personnage_Heros"><path codeLine="202" d="M2052.436,982.5506 C1995.816,1022.6926 1949.21,1055.734 1902.33,1088.968 " fill="none" id="Personnage-backto-Heros" style="stroke:#181818;stroke-width:1.0;"/><polygon fill="none" points="2067.12,972.14,2048.9658,977.6559,2055.9062,987.4452,2067.12,972.14" style="stroke:#181818;stroke-width:1.0;"/></g><!--reverse link Personnage to Monstre--><g id="link_Personnage_Monstre"><path codeLine="203" d="M2295.8595,987.9529 C2319.8895,1032.1399 2337.51,1064.526 2356.09,1098.69 " fill="none" id="Personnage-backto-Monstre" style="stroke:#181818;stroke-width:1.0;"/><polygon fill="none" points="2287.26,972.14,2290.5885,990.8194,2301.1305,985.0864,2287.26,972.14" style="stroke:#181818;stroke-width:1.0;"/></g><!--reverse link Monstre to Walker--><g id="link_Monstre_Walker"><path codeLine="204" d="M2381,1210.2 C2381,1247.406 2381,1281.67 2381,1318.86 " fill="none" id="Monstre-backto-Walker" style="stroke:#181818;stroke-width:1.0;"/><polygon fill="none" points="2381,1192.2,2375,1210.2,2387,1210.2,2381,1192.2" style="stroke:#181818;stroke-width:1.0;"/></g><!--reverse link ElementMonde to Terrain--><g id="link_ElementMonde_Terrain"><path codeLine="206" d="M2110.5667,653.656 C2086.9167,668.405 2077.93,672.869 2054,685 C2039.06,692.577 1878.13,747.973 1743.19,793.977 " fill="none" id="ElementMonde-backto-Terrain" style="stroke:#181818;stroke-width:1.0;"/><polygon fill="none" points="2125.84,644.131,2107.3917,648.5649,2113.7417,658.7471,2125.84,644.131" style="stroke:#181818;stroke-width:1.0;"/></g><!--reverse link Terrain to Mur--><g id="link_Terrain_Mur"><path codeLine="207" d="M1502.5726,937.9857 C1468.7426,987.6937 1432.3,1041.225 1399.92,1088.794 " fill="none" id="Terrain-backto-Mur" style="stroke:#181818;stroke-width:1.0;"/><polygon fill="none" points="1512.7,923.105,1497.6123,934.6099,1507.5328,941.3615,1512.7,923.105" style="stroke:#181818;stroke-width:1.0;"/></g><!--link Monde to Personnage--><g id="link_Monde_Personnage"><path codeLine="210" d="M1821.83,660.671 C1836.7,669.032 1851.49,677.193 1866,685 C1903.38,705.113 1943.48,725.477 1982.86,744.82 " fill="none" id="Monde-Personnage" style="stroke:#181818;stroke-width:1.0;"/><text fill="#000000" font-family="sans-serif" font-size="13" lengthAdjust="spacing" textLength="7" x="1960.0596" y="734.1195">*</text></g><!--link Monde to Terrain--><g id="link_Monde_Terrain"><path codeLine="211" d="M1556,660.683 C1556,707.851 1556,756.658 1556,793.87 " fill="none" id="Monde-Terrain" style="stroke:#181818;stroke-width:1.0;"/><text fill="#000000" font-family="sans-serif" font-size="13" lengthAdjust="spacing" textLength="7" x="1548.6172" y="783.0284">*</text></g><!--link Monde to GestionFichier--><g id="link_Monde_GestionFichier"><path codeLine="213" d="M1275.93,660.683 C1188.27,711.287 1097.35,763.777 1031.47,801.811 " fill="none" id="Monde-GestionFichier" style="stroke:#181818;stroke-width:1.0;"/><text fill="#000000" font-family="sans-serif" font-size="13" lengthAdjust="spacing" textLength="8" x="1034.7398" y="791.0515">1</text></g><!--link ElementMonde to Sprite--><g id="link_ElementMonde_Sprite"><path codeLine="215" d="M2569.75,644.056 C2615.49,675.081 2661.55,709.333 2702,745 C2733.06,772.389 2762.85,810.164 2780.54,834.213 " fill="none" id="ElementMonde-Sprite" style="stroke:#181818;stroke-width:1.0;"/><text fill="#000000" font-family="sans-serif" font-size="13" lengthAdjust="spacing" textLength="7" x="2768.6748" y="823.548">*</text></g><!--link Settings to Property--><g id="link_Settings_Property"><path codeLine="218" d="M301,251.13 C301,269.31 301,289.77 301,310.93 " fill="none" id="Settings-Property" style="stroke:#181818;stroke-width:1.0;"/></g><!--link Property to Getter--><g id="link_Property_Getter"><path codeLine="219" d="M340.447,685.075 C352.049,739.804 363.471,793.683 370.378,826.266 " fill="none" id="Property-Getter" style="stroke:#181818;stroke-width:1.0;"/><text fill="#000000" font-family="sans-serif" font-size="13" lengthAdjust="spacing" textLength="8" x="360.2868" y="815.4941">1</text></g><!--link Property to Setter--><g id="link_Property_Setter"><path codeLine="220" d="M261.553,685.075 C249.951,739.804 238.529,793.683 231.622,826.266 " fill="none" id="Property-Setter" style="stroke:#181818;stroke-width:1.0;"/><text fill="#000000" font-family="sans-serif" font-size="13" lengthAdjust="spacing" textLength="8" x="224.1382" y="815.4941">1</text></g><!--SRC=[lLXRRzis57xNho2oXyghxQ5zseDXm8rpCM2dGQmqAxeWOAGJcuXCgYJbpUZoW_OxziTsA59NovUinV8GYUIvyvpl73cXuJDT03bJ8Ks0VFCyGXAtDnCyCbi4_-YZqfA6ceGnLOgSnR02hgiKXFn48f4-na3-R6vicXjBccf8PNCxfd9HRlVxfuAZsZGqjFs-stvRq-xdEhk5icv3IxSXlbF8d_tpjrwA25H5kADTWFxDxnIxQy4YeinUhg_Jml6vXUDpph5fuxYq9lfjPrDhRkLihYNZ2wA5VS6JxEYbxOe2a98oNjpEpcWwmXyUo4SXOg2SWDA1f6kGYY9lQNFsiBREKddOJYJw_snq9hO5zXgf1EUcGhOoVyqqA0LkkqSOruH5Xpmh9Uvpq3cqqs6dk_DAiJlYrXJRTRxiZsUMz14aCGr1-i4cWPb8rrcr4brT5U8ZY3KDsAfYT-LIRlabIA4g9M2imDgOHAqbyyaQkxTaAja7F5sHcfNvZH9oCxcu38hLzEoyNDnU5w_ZZtTNs_cS6Nquewrlhx_oetEw7hwNrdIUPRR14VLd2Nz0BdLU8_F8jA_dP-qsxcZy34S0ZANx3epv3X6lSAVUTFTTLrGMmfvo3PV617bAfGRVbKje5jiL6OeuPee9xjS607ZNhKy4yBxH1saKkJQZ_BmnwMsQ2c9LK3RfjEABKMVJ-p_YZArIquGR63D20pTJflIWj69e2CjbExbpBQCj_DqJnj4Qmfgd-DejoPOGFXkIpBvIp3UbgMRXYqqHhgTm7QVgMWfayCtUciQfow1L6ckMnB0xXAu4gtPUI9ei1zS21RmVTyaOdYYAEOkoA9Wp6CKQ94ShdlmSFrPMOKBL0OUBm1ntnOLzxHTfPf-NwjJwCTKipi7NLimOjG2KWDm8uTta2c7yONnsFhgT1W-NPnNatqzwDna7bpieFzvCn_jbPHHL4NrNchLolq0SnyYTit39Za6nElq102WCCY3mvVxBFOcP1CTRGmGkLgSbADGil04bKXbM0jmh1SzeCh0YkcIooWe9UK2h_NxqIgd7kd1xCpLrbnkSKBrigPa9JrAD941NXdgaxFiXBcEvfLS7LUIMVqXvPCUIoRjVh-pAdugG6jZF7gzbRg5tfZWwD-IupMV0ldD8uG41BVTzJXyb-vh292Bbk5IvyievbhccF8GAMMqatdd_XhAKKpZUdWGrVohQZK_EW8g4xHbo2qCMAQi1o3oHs9QRLC0NZE_uGBwWAq37j4JaAwgsqEEaWjOOvRniAX54BCTMe3UdIyeNC4-JH4Y4rj0MpTjjmi47YxH3yfJ6yJoK0FmmhLgAFywJtK9jwWnTxdZjuQymPj3z931xHqaIRxBeLlmzoGMJGJ0a9uW3XQeY185jNcwLOmy6q-qOE9bjwl4nhHSuI9JQ9Ur7w8DxKqxG_X3tYjOLYuMtCq_V5cByLdbTaaDVq4LWrjePESzVEqqnnz8TKhSjkBFp_e8CDdEE_7SBFwZlf8ygbEmH_3tXht6a_BjuHd5SjobBh7DiJtxJEPDEQF5KB7ntRHrtYvRHy0IrBRnLXt55ZY8eW7p2eOESs1ieizIjROxQQ0LjVFC6txpEfqe-vEH28yidmII96CMnQhK2Cc33h5PwY423NzYG9DWC46Y8ecj3cU2Wzpl6I1BJRXqGAGAQnFZ8MF7vDNrZHg0GyOS1ZZvSzpDxhXvGh9VznqHm-5MkpQ7dlR61nW-JZKYrLpRttfSbYoBWzsdI6pR63AynfTHftVpbES0i3YLRB3MUMyKDoEproCcx4_V3P3_xhh3_lShSs4FvVmrh7n-U7UlTIKdhvOFgzedxG7G7ZixpyW-LDYNc5oktxyZGWsrRCoz-FgagsqrK2Df1Wj5eHDshVNNrUaQAOyQOzbtRmYjLhjLuHS_fbH3e5IYC4Z8b9csRkpQP_mK0]--></g></svg>