<?xml version="1.0" encoding="us-ascii" standalone="no"?><svg xmlns="http://www.w3.org/2000/svg" xmlns:xlink="http://www.w3.org/1999/xlink" contentStyleType="text/css" height="1580px" preserveAspectRatio="none" style="width:2751px;height:1580px;background:#FFFFFF;" version="1.1" viewBox="0 0 2751 1580" width="2751px" zoomAndPan="magnify"><defs/><g><!--cluster Escape--><g id="cluster_Escape"><path d="M8.5,67 L60.5,67 A3.75,3.75 0 0 1 63,69.5 L70,91.6211 L2650.5,91.6211 A2.5,2.5 0 0 1 2653,94.1211 L2653,1570.5 A2.5,2.5 0 0 1 2650.5,1573 L8.5,1573 A2.5,2.5 0 0 1 6,1570.5 L6,69.5 A2.5,2.5 0 0 1 8.5,67 " fill="none" style="stroke:#000000;stroke-width:1.5;"/><line style="stroke:#000000;stroke-width:1.5;" x1="6" x2="70" y1="91.6211" y2="91.6211"/><text fill="#000000" font-family="sans-serif" font-size="14" font-weight="bold" lengthAdjust="spacing" textLength="51" x="10" y="84.1074">Escape</text></g><!--cluster Monde--><g id="cluster_Monde"><path d="M1036.5,317.5 L1086.5,317.5 A3.75,3.75 0 0 1 1089,320 L1096,342.1211 L2449.5,342.1211 A2.5,2.5 0 0 1 2452,344.6211 L2452,1546.5 A2.5,2.5 0 0 1 2449.5,1549 L1036.5,1549 A2.5,2.5 0 0 1 1034,1546.5 L1034,320 A2.5,2.5 0 0 1 1036.5,317.5 " fill="none" style="stroke:#000000;stroke-width:1.5;"/><line style="stroke:#000000;stroke-width:1.5;" x1="1034" x2="1096" y1="342.1211" y2="342.1211"/><text fill="#000000" font-family="sans-serif" font-size="14" font-weight="bold" lengthAdjust="spacing" textLength="49" x="1038" y="334.6074">Monde</text></g><!--cluster Outils--><g id="cluster_Outils"><path d="M530.5,411 L572.5,411 A3.75,3.75 0 0 1 575,413.5 L582,435.6211 L1007.5,435.6211 A2.5,2.5 0 0 1 1010,438.1211 L1010,1386.5 A2.5,2.5 0 0 1 1007.5,1389 L530.5,1389 A2.5,2.5 0 0 1 528,1386.5 L528,413.5 A2.5,2.5 0 0 1 530.5,411 " fill="none" style="stroke:#000000;stroke-width:1.5;"/><line style="stroke:#000000;stroke-width:1.5;" x1="528" x2="582" y1="435.6211" y2="435.6211"/><text fill="#000000" font-family="sans-serif" font-size="14" font-weight="bold" lengthAdjust="spacing" textLength="41" x="532" y="428.1074">Outils</text></g><!--cluster gui--><g id="cluster_gui"><path d="M2486.5,864.5 L2509.5,864.5 A3.75,3.75 0 0 1 2512,867 L2519,889.1211 L2618.5,889.1211 A2.5,2.5 0 0 1 2621,891.6211 L2621,979 A2.5,2.5 0 0 1 2618.5,981.5 L2486.5,981.5 A2.5,2.5 0 0 1 2484,979 L2484,867 A2.5,2.5 0 0 1 2486.5,864.5 " fill="none" style="stroke:#000000;stroke-width:1.5;"/><line style="stroke:#000000;stroke-width:1.5;" x1="2484" x2="2519" y1="889.1211" y2="889.1211"/><text fill="#000000" font-family="sans-serif" font-size="14" font-weight="bold" lengthAdjust="spacing" textLength="22" x="2488" y="881.6074">gui</text></g><!--cluster engine--><g id="cluster_engine"><path d="M2370.5,120 L2420.5,120 A3.75,3.75 0 0 1 2423,122.5 L2430,144.6211 L2564.5,144.6211 A2.5,2.5 0 0 1 2567,147.1211 L2567,234.5 A2.5,2.5 0 0 1 2564.5,237 L2370.5,237 A2.5,2.5 0 0 1 2368,234.5 L2368,122.5 A2.5,2.5 0 0 1 2370.5,120 " fill="none" style="stroke:#000000;stroke-width:1.5;"/><line style="stroke:#000000;stroke-width:1.5;" x1="2368" x2="2430" y1="144.6211" y2="144.6211"/><text fill="#000000" font-family="sans-serif" font-size="14" font-weight="bold" lengthAdjust="spacing" textLength="49" x="2372" y="137.1074">engine</text></g><!--class Settings--><g id="elem_Settings"><rect codeLine="148" fill="#F1F1F1" height="155.7266" id="Settings" rx="2.5" ry="2.5" style="stroke:#181818;stroke-width:0.5;" width="215" x="158.5" y="111"/><ellipse cx="236.25" cy="127" fill="#ADD1B2" rx="11" ry="11" style="stroke:#181818;stroke-width:1.0;"/><path d="M239.0156,122.875 Q239.1719,122.6563 239.3594,122.5469 Q239.5469,122.4375 239.7656,122.4375 Q240.1406,122.4375 240.375,122.7031 Q240.6094,122.9531 240.6094,123.5625 L240.6094,125.0156 Q240.6094,125.625 240.375,125.8906 Q240.1406,126.1563 239.7656,126.1563 Q239.4219,126.1563 239.2188,125.9531 Q239.0156,125.7656 238.9063,125.25 Q238.8594,124.8906 238.6719,124.7031 Q238.3438,124.3281 237.7344,124.1094 Q237.125,123.8906 236.5,123.8906 Q235.7344,123.8906 235.0938,124.2188 Q234.4688,124.5469 233.9688,125.2969 Q233.4844,126.0469 233.4844,127.0781 L233.4844,128.1719 Q233.4844,129.4063 234.375,130.2344 Q235.2656,131.0469 236.8594,131.0469 Q237.7969,131.0469 238.4531,130.7969 Q238.8438,130.6406 239.2656,130.2031 Q239.5313,129.9375 239.6719,129.8594 Q239.8281,129.7813 240.0313,129.7813 Q240.3594,129.7813 240.6094,130.0469 Q240.875,130.2969 240.875,130.6406 Q240.875,130.9844 240.5313,131.3906 Q240.0313,131.9688 239.2344,132.2969 Q238.1563,132.75 236.8594,132.75 Q235.3438,132.75 234.1406,132.125 Q233.1563,131.625 232.4688,130.5625 Q231.7813,129.4844 231.7813,128.2031 L231.7813,127.0469 Q231.7813,125.7188 232.3906,124.5781 Q233.0156,123.4219 234.1094,122.8125 Q235.2031,122.1875 236.4375,122.1875 Q237.1719,122.1875 237.8125,122.3594 Q238.4688,122.5156 239.0156,122.875 Z " fill="#000000"/><text fill="#000000" font-family="sans-serif" font-size="14" lengthAdjust="spacing" textLength="51" x="256.75" y="132.7969">Settings</text><line style="stroke:#181818;stroke-width:0.5;" x1="159.5" x2="372.5" y1="143" y2="143"/><rect fill="none" height="6" style="stroke:#C82930;stroke-width:1.0;" width="6" x="166.5" y="154.8105"/><text fill="#000000" font-family="sans-serif" font-size="14" lengthAdjust="spacing" text-decoration="underline" textLength="180" x="178.5" y="162.1074">PropertyChangeSupport pcs</text><ellipse cx="169.5" cy="176.4316" fill="none" rx="3" ry="3" style="stroke:#038048;stroke-width:1.0;"/><text fill="#000000" font-family="sans-serif" font-size="14" lengthAdjust="spacing" text-decoration="underline" textLength="189" x="178.5" y="180.7285">Property&lt;Boolean&gt; fullScreen</text><ellipse cx="169.5" cy="195.0527" fill="none" rx="3" ry="3" style="stroke:#038048;stroke-width:1.0;"/><text fill="#000000" font-family="sans-serif" font-size="14" lengthAdjust="spacing" text-decoration="underline" textLength="182" x="178.5" y="199.3496">Property&lt;Boolean&gt; showFps</text><ellipse cx="169.5" cy="213.6738" fill="none" rx="3" ry="3" style="stroke:#038048;stroke-width:1.0;"/><text fill="#000000" font-family="sans-serif" font-size="14" lengthAdjust="spacing" text-decoration="underline" textLength="153" x="178.5" y="217.9707">Property&lt;Locale&gt; locale</text><ellipse cx="169.5" cy="254.916" fill="#84BE84" rx="3" ry="3" style="stroke:#038048;stroke-width:1.0;"/><text fill="#000000" font-family="sans-serif" font-size="14" lengthAdjust="spacing" text-decoration="underline" textLength="107" x="178.5" y="259.2129">void forceApply()</text><line style="stroke:#181818;stroke-width:1.0;stroke-dasharray:1.0,2.0;" x1="159.5" x2="235" y1="234.7949" y2="234.7949"/><text fill="#000000" font-family="sans-serif" font-size="14" lengthAdjust="spacing" textLength="62" x="235" y="240.0918">M&#233;thodes</text><line style="stroke:#181818;stroke-width:1.0;stroke-dasharray:1.0,2.0;" x1="297" x2="372.5" y1="234.7949" y2="234.7949"/></g><!--class Property--><g id="elem_Property"><rect codeLine="157" fill="#F1F1F1" height="420.4219" id="Property" rx="2.5" ry="2.5" style="stroke:#181818;stroke-width:0.5;" width="487" x="22.5" y="327"/><ellipse cx="218.25" cy="343" fill="#ADD1B2" rx="11" ry="11" style="stroke:#181818;stroke-width:1.0;"/><path d="M221.0156,338.875 Q221.1719,338.6563 221.3594,338.5469 Q221.5469,338.4375 221.7656,338.4375 Q222.1406,338.4375 222.375,338.7031 Q222.6094,338.9531 222.6094,339.5625 L222.6094,341.0156 Q222.6094,341.625 222.375,341.8906 Q222.1406,342.1563 221.7656,342.1563 Q221.4219,342.1563 221.2188,341.9531 Q221.0156,341.7656 220.9063,341.25 Q220.8594,340.8906 220.6719,340.7031 Q220.3438,340.3281 219.7344,340.1094 Q219.125,339.8906 218.5,339.8906 Q217.7344,339.8906 217.0938,340.2188 Q216.4688,340.5469 215.9688,341.2969 Q215.4844,342.0469 215.4844,343.0781 L215.4844,344.1719 Q215.4844,345.4063 216.375,346.2344 Q217.2656,347.0469 218.8594,347.0469 Q219.7969,347.0469 220.4531,346.7969 Q220.8438,346.6406 221.2656,346.2031 Q221.5313,345.9375 221.6719,345.8594 Q221.8281,345.7813 222.0313,345.7813 Q222.3594,345.7813 222.6094,346.0469 Q222.875,346.2969 222.875,346.6406 Q222.875,346.9844 222.5313,347.3906 Q222.0313,347.9688 221.2344,348.2969 Q220.1563,348.75 218.8594,348.75 Q217.3438,348.75 216.1406,348.125 Q215.1563,347.625 214.4688,346.5625 Q213.7813,345.4844 213.7813,344.2031 L213.7813,343.0469 Q213.7813,341.7188 214.3906,340.5781 Q215.0156,339.4219 216.1094,338.8125 Q217.2031,338.1875 218.4375,338.1875 Q219.1719,338.1875 219.8125,338.3594 Q220.4688,338.5156 221.0156,338.875 Z " fill="#000000"/><text fill="#000000" font-family="sans-serif" font-size="14" lengthAdjust="spacing" textLength="83" x="238.75" y="348.7969">Property &lt;T&gt;</text><line style="stroke:#181818;stroke-width:0.5;" x1="23.5" x2="508.5" y1="359" y2="359"/><rect fill="none" height="6" style="stroke:#C82930;stroke-width:1.0;" width="6" x="30.5" y="370.8105"/><text fill="#000000" font-family="sans-serif" font-size="14" lengthAdjust="spacing" textLength="47" x="42.5" y="378.1074">T value</text><rect fill="none" height="6" style="stroke:#C82930;stroke-width:1.0;" width="6" x="30.5" y="389.4316"/><text fill="#000000" font-family="sans-serif" font-size="14" lengthAdjust="spacing" textLength="76" x="42.5" y="396.7285">String name</text><rect fill="none" height="6" style="stroke:#C82930;stroke-width:1.0;" width="6" x="30.5" y="408.0527"/><text fill="#000000" font-family="sans-serif" font-size="14" lengthAdjust="spacing" textLength="461" x="42.5" y="415.3496">Map&lt;MyPropertyChangeListener&lt;T&gt;, PropertyChangeListener&gt; listeners</text><rect fill="none" height="6" style="stroke:#C82930;stroke-width:1.0;" width="6" x="30.5" y="426.6738"/><text fill="#000000" font-family="sans-serif" font-size="14" lengthAdjust="spacing" textLength="180" x="42.5" y="433.9707">PropertyChangeSupport pcs</text><rect fill="none" height="6" style="stroke:#C82930;stroke-width:1.0;" width="6" x="30.5" y="445.2949"/><text fill="#000000" font-family="sans-serif" font-size="14" lengthAdjust="spacing" textLength="74" x="42.5" y="452.5918">boolean log</text><ellipse cx="33.5" cy="489.5371" fill="#84BE84" rx="3" ry="3" style="stroke:#038048;stroke-width:1.0;"/><text fill="#000000" font-family="sans-serif" font-size="14" lengthAdjust="spacing" textLength="424" x="42.5" y="493.834">Property(PropertyChangeSupport, String, T, Getter&lt;T&gt;, Setter&lt;T&gt;)</text><ellipse cx="33.5" cy="508.1582" fill="#84BE84" rx="3" ry="3" style="stroke:#038048;stroke-width:1.0;"/><text fill="#000000" font-family="sans-serif" font-size="14" lengthAdjust="spacing" textLength="217" x="42.5" y="512.4551">Property(T, Getter&lt;T&gt;, Setter&lt;T&gt;)</text><ellipse cx="33.5" cy="526.7793" fill="#84BE84" rx="3" ry="3" style="stroke:#038048;stroke-width:1.0;"/><text fill="#000000" font-family="sans-serif" font-size="14" lengthAdjust="spacing" textLength="280" x="42.5" y="531.0762">Property(PropertyChangeSupport, String, T)</text><ellipse cx="33.5" cy="545.4004" fill="#84BE84" rx="3" ry="3" style="stroke:#038048;stroke-width:1.0;"/><text fill="#000000" font-family="sans-serif" font-size="14" lengthAdjust="spacing" textLength="73" x="42.5" y="549.6973">Property(T)</text><line style="stroke:#181818;stroke-width:1.0;stroke-dasharray:1.0,2.0;" x1="23.5" x2="225" y1="469.416" y2="469.416"/><text fill="#000000" font-family="sans-serif" font-size="14" lengthAdjust="spacing" textLength="82" x="225" y="474.7129">Constructeur</text><line style="stroke:#181818;stroke-width:1.0;stroke-dasharray:1.0,2.0;" x1="307" x2="508.5" y1="469.416" y2="469.416"/><ellipse cx="33.5" cy="586.6426" fill="#84BE84" rx="3" ry="3" style="stroke:#038048;stroke-width:1.0;"/><text fill="#000000" font-family="sans-serif" font-size="14" lengthAdjust="spacing" textLength="43" x="42.5" y="590.9395">T get()</text><ellipse cx="33.5" cy="605.2637" fill="#84BE84" rx="3" ry="3" style="stroke:#038048;stroke-width:1.0;"/><text fill="#000000" font-family="sans-serif" font-size="14" lengthAdjust="spacing" textLength="68" x="42.5" y="609.5605">void set(T)</text><ellipse cx="33.5" cy="623.8848" fill="#84BE84" rx="3" ry="3" style="stroke:#038048;stroke-width:1.0;"/><text fill="#000000" font-family="sans-serif" font-size="14" lengthAdjust="spacing" textLength="299" x="42.5" y="628.1816">void subscribe(MyPropertyChangeListener&lt;T&gt;)</text><ellipse cx="33.5" cy="642.5059" fill="#84BE84" rx="3" ry="3" style="stroke:#038048;stroke-width:1.0;"/><text fill="#000000" font-family="sans-serif" font-size="14" lengthAdjust="spacing" textLength="315" x="42.5" y="646.8027">void unsubscribe(MyPropertyChangeListener&lt;T&gt;)</text><ellipse cx="33.5" cy="661.127" fill="#84BE84" rx="3" ry="3" style="stroke:#038048;stroke-width:1.0;"/><text fill="#000000" font-family="sans-serif" font-size="14" lengthAdjust="spacing" textLength="132" x="42.5" y="665.4238">void unsubscribeAll()</text><ellipse cx="33.5" cy="679.748" fill="#84BE84" rx="3" ry="3" style="stroke:#038048;stroke-width:1.0;"/><text fill="#000000" font-family="sans-serif" font-size="14" lengthAdjust="spacing" textLength="97" x="42.5" y="684.0449">void forceFire()</text><ellipse cx="33.5" cy="698.3691" fill="#84BE84" rx="3" ry="3" style="stroke:#038048;stroke-width:1.0;"/><text fill="#000000" font-family="sans-serif" font-size="14" lengthAdjust="spacing" textLength="187" x="42.5" y="702.666">Property&lt;T&gt; setLog(boolean)</text><rect fill="#F24D5C" height="6" style="stroke:#C82930;stroke-width:1.0;" width="6" x="30.5" y="713.9902"/><text fill="#000000" font-family="sans-serif" font-size="14" lengthAdjust="spacing" textLength="69" x="42.5" y="721.2871">void fire(T)</text><rect fill="#F24D5C" height="6" style="stroke:#C82930;stroke-width:1.0;" width="6" x="30.5" y="732.6113"/><text fill="#000000" font-family="sans-serif" font-size="14" lengthAdjust="spacing" textLength="96" x="42.5" y="739.9082">void log(String)</text><line style="stroke:#181818;stroke-width:1.0;stroke-dasharray:1.0,2.0;" x1="23.5" x2="235" y1="566.5215" y2="566.5215"/><text fill="#000000" font-family="sans-serif" font-size="14" lengthAdjust="spacing" textLength="62" x="235" y="571.8184">M&#233;thodes</text><line style="stroke:#181818;stroke-width:1.0;stroke-dasharray:1.0,2.0;" x1="297" x2="508.5" y1="566.5215" y2="566.5215"/></g><!--class Getter--><g id="elem_Getter"><rect codeLine="180" fill="#F1F1F1" height="66.6211" id="Getter" rx="2.5" ry="2.5" style="stroke:#181818;stroke-width:0.5;" width="105" x="282.5" y="900"/><ellipse cx="297.5" cy="916" fill="#B4A7E5" rx="11" ry="11" style="stroke:#181818;stroke-width:1.0;"/><path d="M298.4531,912.6406 L298.4531,919.2969 L300.1719,919.2969 Q300.7813,919.2969 301.0469,919.5313 Q301.3125,919.7656 301.3125,920.1563 Q301.3125,920.5313 301.0469,920.7656 Q300.7813,921 300.1719,921 L295.0313,921 Q294.4219,921 294.1563,920.7656 Q293.8906,920.5313 293.8906,920.1406 Q293.8906,919.7656 294.1563,919.5313 Q294.4219,919.2969 295.0313,919.2969 L296.75,919.2969 L296.75,912.6406 L295.0313,912.6406 Q294.4219,912.6406 294.1563,912.4063 Q293.8906,912.1719 293.8906,911.7813 Q293.8906,911.4063 294.1563,911.1719 Q294.4219,910.9375 295.0313,910.9375 L300.1719,910.9375 Q300.7813,910.9375 301.0469,911.1719 Q301.3125,911.4063 301.3125,911.7813 Q301.3125,912.1719 301.0469,912.4063 Q300.7813,912.6406 300.1719,912.6406 L298.4531,912.6406 Z " fill="#000000"/><text fill="#000000" font-family="sans-serif" font-size="14" font-style="italic" lengthAdjust="spacing" textLength="69" x="311.5" y="921.7969">Getter &lt;T&gt;</text><line style="stroke:#181818;stroke-width:0.5;" x1="283.5" x2="386.5" y1="932" y2="932"/><line style="stroke:#181818;stroke-width:0.5;" x1="283.5" x2="386.5" y1="940" y2="940"/><text fill="#000000" font-family="sans-serif" font-size="14" lengthAdjust="spacing" textLength="52" x="288.5" y="959.1074">T get(T)</text></g><!--class Setter--><g id="elem_Setter"><rect codeLine="184" fill="#F1F1F1" height="66.6211" id="Setter" rx="2.5" ry="2.5" style="stroke:#181818;stroke-width:0.5;" width="103" x="144.5" y="900"/><ellipse cx="159.5" cy="916" fill="#B4A7E5" rx="11" ry="11" style="stroke:#181818;stroke-width:1.0;"/><path d="M160.4531,912.6406 L160.4531,919.2969 L162.1719,919.2969 Q162.7813,919.2969 163.0469,919.5313 Q163.3125,919.7656 163.3125,920.1563 Q163.3125,920.5313 163.0469,920.7656 Q162.7813,921 162.1719,921 L157.0313,921 Q156.4219,921 156.1563,920.7656 Q155.8906,920.5313 155.8906,920.1406 Q155.8906,919.7656 156.1563,919.5313 Q156.4219,919.2969 157.0313,919.2969 L158.75,919.2969 L158.75,912.6406 L157.0313,912.6406 Q156.4219,912.6406 156.1563,912.4063 Q155.8906,912.1719 155.8906,911.7813 Q155.8906,911.4063 156.1563,911.1719 Q156.4219,910.9375 157.0313,910.9375 L162.1719,910.9375 Q162.7813,910.9375 163.0469,911.1719 Q163.3125,911.4063 163.3125,911.7813 Q163.3125,912.1719 163.0469,912.4063 Q162.7813,912.6406 162.1719,912.6406 L160.4531,912.6406 Z " fill="#000000"/><text fill="#000000" font-family="sans-serif" font-size="14" font-style="italic" lengthAdjust="spacing" textLength="67" x="173.5" y="921.7969">Setter &lt;T&gt;</text><line style="stroke:#181818;stroke-width:0.5;" x1="145.5" x2="246.5" y1="932" y2="932"/><line style="stroke:#181818;stroke-width:0.5;" x1="145.5" x2="246.5" y1="940" y2="940"/><text fill="#000000" font-family="sans-serif" font-size="14" lengthAdjust="spacing" textLength="51" x="150.5" y="959.1074">T set(T)</text></g><!--class ElementMonde--><g id="elem_ElementMonde"><rect codeLine="4" fill="#F1F1F1" height="327.3164" id="ElementMonde" rx="2.5" ry="2.5" style="stroke:#181818;stroke-width:0.5;" width="449" x="1876.5" y="373.5"/><ellipse cx="2049.25" cy="389.5" fill="#A9DCDF" rx="11" ry="11" style="stroke:#181818;stroke-width:1.0;"/><path d="M2051.4375,391.2656 L2047.2969,391.2656 L2046.875,392.2969 L2047.2969,392.2969 Q2047.9063,392.2969 2048.1719,392.5313 Q2048.4375,392.7656 2048.4375,393.1563 Q2048.4375,393.5313 2048.1719,393.7656 Q2047.9063,394 2047.2969,394 L2045,394 Q2044.3906,394 2044.1406,393.7656 Q2043.875,393.5313 2043.875,393.1406 Q2043.875,392.7656 2044.1563,392.5313 Q2044.4219,392.2813 2045.0469,392.2969 L2047.7188,385.6406 L2046.6094,385.6406 Q2046,385.6406 2045.7344,385.4063 Q2045.4688,385.1719 2045.4688,384.7813 Q2045.4688,384.4063 2045.7344,384.1719 Q2046,383.9375 2046.6094,383.9375 L2050.2813,383.9375 L2053.6719,392.2969 Q2054.2656,392.2969 2054.4531,392.4375 Q2054.8438,392.7031 2054.8438,393.1563 Q2054.8438,393.5313 2054.5781,393.7656 Q2054.3281,394 2053.7188,394 L2051.4219,394 Q2050.8125,394 2050.5469,393.7656 Q2050.2813,393.5313 2050.2813,393.1406 Q2050.2813,392.7656 2050.5469,392.5313 Q2050.8125,392.2969 2051.4219,392.2969 L2051.8438,392.2969 L2051.4375,391.2656 Z M2050.7188,389.5625 L2049.3594,386.1875 L2047.9844,389.5625 L2050.7188,389.5625 Z " fill="#000000"/><text fill="#000000" font-family="sans-serif" font-size="14" font-style="italic" lengthAdjust="spacing" textLength="95" x="2069.75" y="395.2969">ElementMonde</text><line style="stroke:#181818;stroke-width:0.5;" x1="1877.5" x2="2324.5" y1="405.5" y2="405.5"/><polygon fill="none" points="1887.5,415.3105,1891.5,419.3105,1887.5,423.3105,1883.5,419.3105" style="stroke:#B38D22;stroke-width:1.0;"/><text fill="#000000" font-family="sans-serif" font-size="14" lengthAdjust="spacing" textLength="53" x="1896.5" y="424.6074">double x</text><polygon fill="none" points="1887.5,433.9316,1891.5,437.9316,1887.5,441.9316,1883.5,437.9316" style="stroke:#B38D22;stroke-width:1.0;"/><text fill="#000000" font-family="sans-serif" font-size="14" lengthAdjust="spacing" textLength="54" x="1896.5" y="443.2285">double y</text><polygon fill="none" points="1887.5,452.5527,1891.5,456.5527,1887.5,460.5527,1883.5,456.5527" style="stroke:#B38D22;stroke-width:1.0;"/><text fill="#000000" font-family="sans-serif" font-size="14" lengthAdjust="spacing" textLength="96" x="1896.5" y="461.8496">double hauteur</text><polygon fill="none" points="1887.5,471.1738,1891.5,475.1738,1887.5,479.1738,1883.5,475.1738" style="stroke:#B38D22;stroke-width:1.0;"/><text fill="#000000" font-family="sans-serif" font-size="14" lengthAdjust="spacing" textLength="92" x="1896.5" y="480.4707">double largeur</text><ellipse cx="1887.5" cy="517.416" fill="#84BE84" rx="3" ry="3" style="stroke:#038048;stroke-width:1.0;"/><text fill="#000000" font-family="sans-serif" font-size="14" lengthAdjust="spacing" textLength="423" x="1896.5" y="521.7129">ElementMonde(double x, double y, double hauteur, double largeur)</text><line style="stroke:#181818;stroke-width:1.0;stroke-dasharray:1.0,2.0;" x1="1877.5" x2="2060" y1="497.2949" y2="497.2949"/><text fill="#000000" font-family="sans-serif" font-size="14" lengthAdjust="spacing" textLength="82" x="2060" y="502.5918">Constructeur</text><line style="stroke:#181818;stroke-width:1.0;stroke-dasharray:1.0,2.0;" x1="2142" x2="2324.5" y1="497.2949" y2="497.2949"/><ellipse cx="1887.5" cy="558.6582" fill="#84BE84" rx="3" ry="3" style="stroke:#038048;stroke-width:1.0;"/><text fill="#000000" font-family="sans-serif" font-size="14" lengthAdjust="spacing" textLength="85" x="1896.5" y="562.9551">double getX()</text><ellipse cx="1887.5" cy="577.2793" fill="#84BE84" rx="3" ry="3" style="stroke:#038048;stroke-width:1.0;"/><text fill="#000000" font-family="sans-serif" font-size="14" lengthAdjust="spacing" textLength="120" x="1896.5" y="581.5762">void setX(double x)</text><ellipse cx="1887.5" cy="595.9004" fill="#84BE84" rx="3" ry="3" style="stroke:#038048;stroke-width:1.0;"/><text fill="#000000" font-family="sans-serif" font-size="14" lengthAdjust="spacing" textLength="86" x="1896.5" y="600.1973">double getY()</text><ellipse cx="1887.5" cy="614.5215" fill="#84BE84" rx="3" ry="3" style="stroke:#038048;stroke-width:1.0;"/><text fill="#000000" font-family="sans-serif" font-size="14" lengthAdjust="spacing" textLength="122" x="1896.5" y="618.8184">void setY(double y)</text><ellipse cx="1887.5" cy="633.1426" fill="#84BE84" rx="3" ry="3" style="stroke:#038048;stroke-width:1.0;"/><text fill="#000000" font-family="sans-serif" font-size="14" lengthAdjust="spacing" textLength="127" x="1896.5" y="637.4395">double getHauteur()</text><ellipse cx="1887.5" cy="651.7637" fill="#84BE84" rx="3" ry="3" style="stroke:#038048;stroke-width:1.0;"/><text fill="#000000" font-family="sans-serif" font-size="14" lengthAdjust="spacing" textLength="127" x="1896.5" y="656.0605">double getLargeur()</text><ellipse cx="1887.5" cy="670.3848" fill="#84BE84" rx="3" ry="3" style="stroke:#038048;stroke-width:1.0;"/><text fill="#000000" font-family="sans-serif" font-size="14" lengthAdjust="spacing" textLength="100" x="1896.5" y="674.6816">String toString()</text><text fill="#000000" font-family="sans-serif" font-size="14" lengthAdjust="spacing" textLength="4" x="1896.5" y="693.3027">&#160;</text><line style="stroke:#181818;stroke-width:1.0;stroke-dasharray:1.0,2.0;" x1="1877.5" x2="2070" y1="538.5371" y2="538.5371"/><text fill="#000000" font-family="sans-serif" font-size="14" lengthAdjust="spacing" textLength="62" x="2070" y="543.834">M&#233;thodes</text><line style="stroke:#181818;stroke-width:1.0;stroke-dasharray:1.0,2.0;" x1="2132" x2="2324.5" y1="538.5371" y2="538.5371"/></g><!--class Terrain--><g id="elem_Terrain"><rect codeLine="21" fill="#F1F1F1" height="141.1055" id="Terrain" rx="2.5" ry="2.5" style="stroke:#181818;stroke-width:0.5;" width="401" x="1213.5" y="863"/><ellipse cx="1386.75" cy="879" fill="#A9DCDF" rx="11" ry="11" style="stroke:#181818;stroke-width:1.0;"/><path d="M1388.9375,880.7656 L1384.7969,880.7656 L1384.375,881.7969 L1384.7969,881.7969 Q1385.4063,881.7969 1385.6719,882.0313 Q1385.9375,882.2656 1385.9375,882.6563 Q1385.9375,883.0313 1385.6719,883.2656 Q1385.4063,883.5 1384.7969,883.5 L1382.5,883.5 Q1381.8906,883.5 1381.6406,883.2656 Q1381.375,883.0313 1381.375,882.6406 Q1381.375,882.2656 1381.6563,882.0313 Q1381.9219,881.7813 1382.5469,881.7969 L1385.2188,875.1406 L1384.1094,875.1406 Q1383.5,875.1406 1383.2344,874.9063 Q1382.9688,874.6719 1382.9688,874.2813 Q1382.9688,873.9063 1383.2344,873.6719 Q1383.5,873.4375 1384.1094,873.4375 L1387.7813,873.4375 L1391.1719,881.7969 Q1391.7656,881.7969 1391.9531,881.9375 Q1392.3438,882.2031 1392.3438,882.6563 Q1392.3438,883.0313 1392.0781,883.2656 Q1391.8281,883.5 1391.2188,883.5 L1388.9219,883.5 Q1388.3125,883.5 1388.0469,883.2656 Q1387.7813,883.0313 1387.7813,882.6406 Q1387.7813,882.2656 1388.0469,882.0313 Q1388.3125,881.7969 1388.9219,881.7969 L1389.3438,881.7969 L1388.9375,880.7656 Z M1388.2188,879.0625 L1386.8594,875.6875 L1385.4844,879.0625 L1388.2188,879.0625 Z " fill="#000000"/><text fill="#000000" font-family="sans-serif" font-size="14" font-style="italic" lengthAdjust="spacing" textLength="46" x="1407.25" y="884.7969">Terrain</text><line style="stroke:#181818;stroke-width:0.5;" x1="1214.5" x2="1613.5" y1="895" y2="895"/><ellipse cx="1224.5" cy="932.4316" fill="#84BE84" rx="3" ry="3" style="stroke:#038048;stroke-width:1.0;"/><text fill="#000000" font-family="sans-serif" font-size="14" lengthAdjust="spacing" textLength="375" x="1233.5" y="936.7285">Terrain(double x, double y, double hauteur, double largeur)</text><line style="stroke:#181818;stroke-width:1.0;stroke-dasharray:1.0,2.0;" x1="1214.5" x2="1373" y1="912.3105" y2="912.3105"/><text fill="#000000" font-family="sans-serif" font-size="14" lengthAdjust="spacing" textLength="82" x="1373" y="917.6074">Constructeur</text><line style="stroke:#181818;stroke-width:1.0;stroke-dasharray:1.0,2.0;" x1="1455" x2="1613.5" y1="912.3105" y2="912.3105"/><ellipse cx="1224.5" cy="973.6738" fill="#84BE84" rx="3" ry="3" style="stroke:#038048;stroke-width:1.0;"/><text fill="#000000" font-family="sans-serif" font-size="14" lengthAdjust="spacing" textLength="160" x="1233.5" y="977.9707">boolean estTraversable()</text><text fill="#000000" font-family="sans-serif" font-size="14" lengthAdjust="spacing" textLength="4" x="1233.5" y="996.5918">&#160;</text><line style="stroke:#181818;stroke-width:1.0;stroke-dasharray:1.0,2.0;" x1="1214.5" x2="1383" y1="953.5527" y2="953.5527"/><text fill="#000000" font-family="sans-serif" font-size="14" lengthAdjust="spacing" textLength="62" x="1383" y="958.8496">M&#233;thodes</text><line style="stroke:#181818;stroke-width:1.0;stroke-dasharray:1.0,2.0;" x1="1445" x2="1613.5" y1="953.5527" y2="953.5527"/></g><!--class Mur--><g id="elem_Mur"><rect codeLine="29" fill="#F1F1F1" height="122.4844" id="Mur" rx="2.5" ry="2.5" style="stroke:#181818;stroke-width:0.5;" width="379" x="1050.5" y="1185.5"/><ellipse cx="1223.75" cy="1201.5" fill="#ADD1B2" rx="11" ry="11" style="stroke:#181818;stroke-width:1.0;"/><path d="M1226.5156,1197.375 Q1226.6719,1197.1563 1226.8594,1197.0469 Q1227.0469,1196.9375 1227.2656,1196.9375 Q1227.6406,1196.9375 1227.875,1197.2031 Q1228.1094,1197.4531 1228.1094,1198.0625 L1228.1094,1199.5156 Q1228.1094,1200.125 1227.875,1200.3906 Q1227.6406,1200.6563 1227.2656,1200.6563 Q1226.9219,1200.6563 1226.7188,1200.4531 Q1226.5156,1200.2656 1226.4063,1199.75 Q1226.3594,1199.3906 1226.1719,1199.2031 Q1225.8438,1198.8281 1225.2344,1198.6094 Q1224.625,1198.3906 1224,1198.3906 Q1223.2344,1198.3906 1222.5938,1198.7188 Q1221.9688,1199.0469 1221.4688,1199.7969 Q1220.9844,1200.5469 1220.9844,1201.5781 L1220.9844,1202.6719 Q1220.9844,1203.9063 1221.875,1204.7344 Q1222.7656,1205.5469 1224.3594,1205.5469 Q1225.2969,1205.5469 1225.9531,1205.2969 Q1226.3438,1205.1406 1226.7656,1204.7031 Q1227.0313,1204.4375 1227.1719,1204.3594 Q1227.3281,1204.2813 1227.5313,1204.2813 Q1227.8594,1204.2813 1228.1094,1204.5469 Q1228.375,1204.7969 1228.375,1205.1406 Q1228.375,1205.4844 1228.0313,1205.8906 Q1227.5313,1206.4688 1226.7344,1206.7969 Q1225.6563,1207.25 1224.3594,1207.25 Q1222.8438,1207.25 1221.6406,1206.625 Q1220.6563,1206.125 1219.9688,1205.0625 Q1219.2813,1203.9844 1219.2813,1202.7031 L1219.2813,1201.5469 Q1219.2813,1200.2188 1219.8906,1199.0781 Q1220.5156,1197.9219 1221.6094,1197.3125 Q1222.7031,1196.6875 1223.9375,1196.6875 Q1224.6719,1196.6875 1225.3125,1196.8594 Q1225.9688,1197.0156 1226.5156,1197.375 Z " fill="#000000"/><text fill="#000000" font-family="sans-serif" font-size="14" lengthAdjust="spacing" textLength="24" x="1244.25" y="1207.2969">Mur</text><line style="stroke:#181818;stroke-width:0.5;" x1="1051.5" x2="1428.5" y1="1217.5" y2="1217.5"/><ellipse cx="1061.5" cy="1254.9316" fill="#84BE84" rx="3" ry="3" style="stroke:#038048;stroke-width:1.0;"/><text fill="#000000" font-family="sans-serif" font-size="14" lengthAdjust="spacing" textLength="353" x="1070.5" y="1259.2285">Mur(double x, double y, double hauteur, double largeur)</text><line style="stroke:#181818;stroke-width:1.0;stroke-dasharray:1.0,2.0;" x1="1051.5" x2="1199" y1="1234.8105" y2="1234.8105"/><text fill="#000000" font-family="sans-serif" font-size="14" lengthAdjust="spacing" textLength="82" x="1199" y="1240.1074">Constructeur</text><line style="stroke:#181818;stroke-width:1.0;stroke-dasharray:1.0,2.0;" x1="1281" x2="1428.5" y1="1234.8105" y2="1234.8105"/><ellipse cx="1061.5" cy="1296.1738" fill="#84BE84" rx="3" ry="3" style="stroke:#038048;stroke-width:1.0;"/><text fill="#000000" font-family="sans-serif" font-size="14" lengthAdjust="spacing" textLength="160" x="1070.5" y="1300.4707">boolean estTraversable()</text><line style="stroke:#181818;stroke-width:1.0;stroke-dasharray:1.0,2.0;" x1="1051.5" x2="1209" y1="1276.0527" y2="1276.0527"/><text fill="#000000" font-family="sans-serif" font-size="14" lengthAdjust="spacing" textLength="62" x="1209" y="1281.3496">M&#233;thodes</text><line style="stroke:#181818;stroke-width:1.0;stroke-dasharray:1.0,2.0;" x1="1271" x2="1428.5" y1="1276.0527" y2="1276.0527"/></g><!--class Personnage--><g id="elem_Personnage"><rect codeLine="37" fill="#F1F1F1" height="252.832" id="Personnage" rx="2.5" ry="2.5" style="stroke:#181818;stroke-width:0.5;" width="569" x="1732.5" y="807"/><ellipse cx="1974.25" cy="823" fill="#A9DCDF" rx="11" ry="11" style="stroke:#181818;stroke-width:1.0;"/><path d="M1976.4375,824.7656 L1972.2969,824.7656 L1971.875,825.7969 L1972.2969,825.7969 Q1972.9063,825.7969 1973.1719,826.0313 Q1973.4375,826.2656 1973.4375,826.6563 Q1973.4375,827.0313 1973.1719,827.2656 Q1972.9063,827.5 1972.2969,827.5 L1970,827.5 Q1969.3906,827.5 1969.1406,827.2656 Q1968.875,827.0313 1968.875,826.6406 Q1968.875,826.2656 1969.1563,826.0313 Q1969.4219,825.7813 1970.0469,825.7969 L1972.7188,819.1406 L1971.6094,819.1406 Q1971,819.1406 1970.7344,818.9063 Q1970.4688,818.6719 1970.4688,818.2813 Q1970.4688,817.9063 1970.7344,817.6719 Q1971,817.4375 1971.6094,817.4375 L1975.2813,817.4375 L1978.6719,825.7969 Q1979.2656,825.7969 1979.4531,825.9375 Q1979.8438,826.2031 1979.8438,826.6563 Q1979.8438,827.0313 1979.5781,827.2656 Q1979.3281,827.5 1978.7188,827.5 L1976.4219,827.5 Q1975.8125,827.5 1975.5469,827.2656 Q1975.2813,827.0313 1975.2813,826.6406 Q1975.2813,826.2656 1975.5469,826.0313 Q1975.8125,825.7969 1976.4219,825.7969 L1976.8438,825.7969 L1976.4375,824.7656 Z M1975.7188,823.0625 L1974.3594,819.6875 L1972.9844,823.0625 L1975.7188,823.0625 Z " fill="#000000"/><text fill="#000000" font-family="sans-serif" font-size="14" font-style="italic" lengthAdjust="spacing" textLength="77" x="1994.75" y="828.7969">Personnage</text><line style="stroke:#181818;stroke-width:0.5;" x1="1733.5" x2="2300.5" y1="839" y2="839"/><polygon fill="none" points="1743.5,848.8105,1747.5,852.8105,1743.5,856.8105,1739.5,852.8105" style="stroke:#B38D22;stroke-width:1.0;"/><text fill="#000000" font-family="sans-serif" font-size="14" lengthAdjust="spacing" textLength="91" x="1752.5" y="858.1074">double vitesse</text><rect fill="none" height="6" style="stroke:#C82930;stroke-width:1.0;" width="6" x="1740.5" y="869.4316"/><text fill="#000000" font-family="sans-serif" font-size="14" lengthAdjust="spacing" textLength="30" x="1752.5" y="876.7285">int id</text><ellipse cx="1743.5" cy="913.6738" fill="#84BE84" rx="3" ry="3" style="stroke:#038048;stroke-width:1.0;"/><text fill="#000000" font-family="sans-serif" font-size="14" lengthAdjust="spacing" textLength="505" x="1752.5" y="917.9707">Personnage(double x, double y, double largeur, double hauteur, double vitesse)</text><ellipse cx="1743.5" cy="932.2949" fill="#84BE84" rx="3" ry="3" style="stroke:#038048;stroke-width:1.0;"/><text fill="#000000" font-family="sans-serif" font-size="14" lengthAdjust="spacing" textLength="543" x="1752.5" y="936.5918">Personnage(double x, double y, double hauteur, double largeur, double vitesse, int id)</text><line style="stroke:#181818;stroke-width:1.0;stroke-dasharray:1.0,2.0;" x1="1733.5" x2="1976" y1="893.5527" y2="893.5527"/><text fill="#000000" font-family="sans-serif" font-size="14" lengthAdjust="spacing" textLength="82" x="1976" y="898.8496">Constructeur</text><line style="stroke:#181818;stroke-width:1.0;stroke-dasharray:1.0,2.0;" x1="2058" x2="2300.5" y1="893.5527" y2="893.5527"/><ellipse cx="1743.5" cy="973.5371" fill="#84BE84" rx="3" ry="3" style="stroke:#038048;stroke-width:1.0;"/><text fill="#000000" font-family="sans-serif" font-size="14" lengthAdjust="spacing" textLength="421" x="1752.5" y="977.834">void deplacer(TypeMouvement typeMouvement, double deltaTime)</text><ellipse cx="1743.5" cy="992.1582" fill="#84BE84" rx="3" ry="3" style="stroke:#038048;stroke-width:1.0;"/><text fill="#000000" font-family="sans-serif" font-size="14" lengthAdjust="spacing" textLength="138" x="1752.5" y="996.4551">boolean estUnHeros()</text><ellipse cx="1743.5" cy="1010.7793" fill="#84BE84" rx="3" ry="3" style="stroke:#038048;stroke-width:1.0;"/><text fill="#000000" font-family="sans-serif" font-size="14" lengthAdjust="spacing" textLength="60" x="1752.5" y="1015.0762">int getId()</text><ellipse cx="1743.5" cy="1029.4004" fill="#84BE84" rx="3" ry="3" style="stroke:#038048;stroke-width:1.0;"/><text fill="#000000" font-family="sans-serif" font-size="14" lengthAdjust="spacing" textLength="123" x="1752.5" y="1033.6973">double getVitesse()</text><ellipse cx="1743.5" cy="1048.0215" fill="#84BE84" rx="3" ry="3" style="stroke:#038048;stroke-width:1.0;"/><text fill="#000000" font-family="sans-serif" font-size="14" lengthAdjust="spacing" textLength="100" x="1752.5" y="1052.3184">String toString()</text><line style="stroke:#181818;stroke-width:1.0;stroke-dasharray:1.0,2.0;" x1="1733.5" x2="1986" y1="953.416" y2="953.416"/><text fill="#000000" font-family="sans-serif" font-size="14" lengthAdjust="spacing" textLength="62" x="1986" y="958.7129">M&#233;thodes</text><line style="stroke:#181818;stroke-width:1.0;stroke-dasharray:1.0,2.0;" x1="2048" x2="2300.5" y1="953.416" y2="953.416"/></g><!--class TypeMouvement--><g id="elem_TypeMouvement"><rect codeLine="51" fill="#F1F1F1" height="122.4844" id="TypeMouvement" rx="2.5" ry="2.5" style="stroke:#181818;stroke-width:0.5;" width="137" x="1704.5" y="476"/><ellipse cx="1719.5" cy="492" fill="#EB937F" rx="11" ry="11" style="stroke:#181818;stroke-width:1.0;"/><path d="M1718.3594,492.7969 L1718.3594,495.2969 L1722.6875,495.2969 L1722.6875,494.375 Q1722.6875,493.7656 1722.9219,493.5 Q1723.1719,493.2344 1723.5469,493.2344 Q1723.9219,493.2344 1724.1563,493.5 Q1724.3906,493.7656 1724.3906,494.375 L1724.3906,497 L1716.3906,497 Q1715.7656,497 1715.5,496.7656 Q1715.25,496.5313 1715.25,496.1406 Q1715.25,495.7656 1715.5156,495.5313 Q1715.7813,495.2969 1716.3906,495.2969 L1716.6563,495.2969 L1716.6563,488.6406 L1716.3906,488.6406 Q1715.7656,488.6406 1715.5,488.4063 Q1715.25,488.1719 1715.25,487.7813 Q1715.25,487.4063 1715.5,487.1719 Q1715.7656,486.9375 1716.3906,486.9375 L1724.0156,486.9375 L1724.0156,489.5313 Q1724.0156,490.1406 1723.7813,490.4063 Q1723.5625,490.6563 1723.1719,490.6563 Q1722.7969,490.6563 1722.5625,490.4063 Q1722.3281,490.1406 1722.3281,489.5313 L1722.3281,488.6406 L1718.3594,488.6406 L1718.3594,491.0938 L1719.8438,491.0938 Q1719.8438,490.4375 1719.9688,490.25 Q1720.2344,489.8438 1720.7031,489.8438 Q1721.0781,489.8438 1721.3125,490.1094 Q1721.5469,490.3594 1721.5469,490.9688 L1721.5469,492.9375 Q1721.5469,493.4844 1721.4219,493.6719 Q1721.1563,494.0625 1720.7031,494.0625 Q1720.2344,494.0625 1719.9688,493.6563 Q1719.8438,493.4688 1719.8438,492.7969 L1718.3594,492.7969 Z " fill="#000000"/><text fill="#000000" font-family="sans-serif" font-size="14" lengthAdjust="spacing" textLength="105" x="1733.5" y="497.7969">TypeMouvement</text><line style="stroke:#181818;stroke-width:0.5;" x1="1705.5" x2="1840.5" y1="508" y2="508"/><text fill="#000000" font-family="sans-serif" font-size="14" lengthAdjust="spacing" textLength="42" x="1710.5" y="527.1074">RIGHT</text><text fill="#000000" font-family="sans-serif" font-size="14" lengthAdjust="spacing" textLength="35" x="1710.5" y="545.7285">LEFT</text><text fill="#000000" font-family="sans-serif" font-size="14" lengthAdjust="spacing" textLength="18" x="1710.5" y="564.3496">UP</text><text fill="#000000" font-family="sans-serif" font-size="14" lengthAdjust="spacing" textLength="43" x="1710.5" y="582.9707">DOWN</text><line style="stroke:#181818;stroke-width:0.5;" x1="1705.5" x2="1840.5" y1="590.4844" y2="590.4844"/></g><!--class Heros--><g id="elem_Heros"><rect codeLine="58" fill="#F1F1F1" height="122.4844" id="Heros" rx="2.5" ry="2.5" style="stroke:#181818;stroke-width:0.5;" width="392" x="1465" y="1185.5"/><ellipse cx="1638.25" cy="1201.5" fill="#ADD1B2" rx="11" ry="11" style="stroke:#181818;stroke-width:1.0;"/><path d="M1641.0156,1197.375 Q1641.1719,1197.1563 1641.3594,1197.0469 Q1641.5469,1196.9375 1641.7656,1196.9375 Q1642.1406,1196.9375 1642.375,1197.2031 Q1642.6094,1197.4531 1642.6094,1198.0625 L1642.6094,1199.5156 Q1642.6094,1200.125 1642.375,1200.3906 Q1642.1406,1200.6563 1641.7656,1200.6563 Q1641.4219,1200.6563 1641.2188,1200.4531 Q1641.0156,1200.2656 1640.9063,1199.75 Q1640.8594,1199.3906 1640.6719,1199.2031 Q1640.3438,1198.8281 1639.7344,1198.6094 Q1639.125,1198.3906 1638.5,1198.3906 Q1637.7344,1198.3906 1637.0938,1198.7188 Q1636.4688,1199.0469 1635.9688,1199.7969 Q1635.4844,1200.5469 1635.4844,1201.5781 L1635.4844,1202.6719 Q1635.4844,1203.9063 1636.375,1204.7344 Q1637.2656,1205.5469 1638.8594,1205.5469 Q1639.7969,1205.5469 1640.4531,1205.2969 Q1640.8438,1205.1406 1641.2656,1204.7031 Q1641.5313,1204.4375 1641.6719,1204.3594 Q1641.8281,1204.2813 1642.0313,1204.2813 Q1642.3594,1204.2813 1642.6094,1204.5469 Q1642.875,1204.7969 1642.875,1205.1406 Q1642.875,1205.4844 1642.5313,1205.8906 Q1642.0313,1206.4688 1641.2344,1206.7969 Q1640.1563,1207.25 1638.8594,1207.25 Q1637.3438,1207.25 1636.1406,1206.625 Q1635.1563,1206.125 1634.4688,1205.0625 Q1633.7813,1203.9844 1633.7813,1202.7031 L1633.7813,1201.5469 Q1633.7813,1200.2188 1634.3906,1199.0781 Q1635.0156,1197.9219 1636.1094,1197.3125 Q1637.2031,1196.6875 1638.4375,1196.6875 Q1639.1719,1196.6875 1639.8125,1196.8594 Q1640.4688,1197.0156 1641.0156,1197.375 Z " fill="#000000"/><text fill="#000000" font-family="sans-serif" font-size="14" lengthAdjust="spacing" textLength="37" x="1658.75" y="1207.2969">Heros</text><line style="stroke:#181818;stroke-width:0.5;" x1="1466" x2="1856" y1="1217.5" y2="1217.5"/><ellipse cx="1476" cy="1254.9316" fill="#84BE84" rx="3" ry="3" style="stroke:#038048;stroke-width:1.0;"/><text fill="#000000" font-family="sans-serif" font-size="14" lengthAdjust="spacing" textLength="366" x="1485" y="1259.2285">Heros(double x, double y, double largeur, double hauteur)</text><line style="stroke:#181818;stroke-width:1.0;stroke-dasharray:1.0,2.0;" x1="1466" x2="1620" y1="1234.8105" y2="1234.8105"/><text fill="#000000" font-family="sans-serif" font-size="14" lengthAdjust="spacing" textLength="82" x="1620" y="1240.1074">Constructeur</text><line style="stroke:#181818;stroke-width:1.0;stroke-dasharray:1.0,2.0;" x1="1702" x2="1856" y1="1234.8105" y2="1234.8105"/><ellipse cx="1476" cy="1296.1738" fill="#84BE84" rx="3" ry="3" style="stroke:#038048;stroke-width:1.0;"/><text fill="#000000" font-family="sans-serif" font-size="14" lengthAdjust="spacing" textLength="138" x="1485" y="1300.4707">boolean estUnHeros()</text><line style="stroke:#181818;stroke-width:1.0;stroke-dasharray:1.0,2.0;" x1="1466" x2="1630" y1="1276.0527" y2="1276.0527"/><text fill="#000000" font-family="sans-serif" font-size="14" lengthAdjust="spacing" textLength="62" x="1630" y="1281.3496">M&#233;thodes</text><line style="stroke:#181818;stroke-width:1.0;stroke-dasharray:1.0,2.0;" x1="1692" x2="1856" y1="1276.0527" y2="1276.0527"/></g><!--class Monstre--><g id="elem_Monstre"><rect codeLine="65" fill="#F1F1F1" height="99.8633" id="Monstre" rx="2.5" ry="2.5" style="stroke:#181818;stroke-width:0.5;" width="543" x="1892.5" y="1196.5"/><ellipse cx="2133.75" cy="1212.5" fill="#A9DCDF" rx="11" ry="11" style="stroke:#181818;stroke-width:1.0;"/><path d="M2135.9375,1214.2656 L2131.7969,1214.2656 L2131.375,1215.2969 L2131.7969,1215.2969 Q2132.4063,1215.2969 2132.6719,1215.5313 Q2132.9375,1215.7656 2132.9375,1216.1563 Q2132.9375,1216.5313 2132.6719,1216.7656 Q2132.4063,1217 2131.7969,1217 L2129.5,1217 Q2128.8906,1217 2128.6406,1216.7656 Q2128.375,1216.5313 2128.375,1216.1406 Q2128.375,1215.7656 2128.6563,1215.5313 Q2128.9219,1215.2813 2129.5469,1215.2969 L2132.2188,1208.6406 L2131.1094,1208.6406 Q2130.5,1208.6406 2130.2344,1208.4063 Q2129.9688,1208.1719 2129.9688,1207.7813 Q2129.9688,1207.4063 2130.2344,1207.1719 Q2130.5,1206.9375 2131.1094,1206.9375 L2134.7813,1206.9375 L2138.1719,1215.2969 Q2138.7656,1215.2969 2138.9531,1215.4375 Q2139.3438,1215.7031 2139.3438,1216.1563 Q2139.3438,1216.5313 2139.0781,1216.7656 Q2138.8281,1217 2138.2188,1217 L2135.9219,1217 Q2135.3125,1217 2135.0469,1216.7656 Q2134.7813,1216.5313 2134.7813,1216.1406 Q2134.7813,1215.7656 2135.0469,1215.5313 Q2135.3125,1215.2969 2135.9219,1215.2969 L2136.3438,1215.2969 L2135.9375,1214.2656 Z M2135.2188,1212.5625 L2133.8594,1209.1875 L2132.4844,1212.5625 L2135.2188,1212.5625 Z " fill="#000000"/><text fill="#000000" font-family="sans-serif" font-size="14" font-style="italic" lengthAdjust="spacing" textLength="52" x="2154.25" y="1218.2969">Monstre</text><line style="stroke:#181818;stroke-width:0.5;" x1="1893.5" x2="2434.5" y1="1228.5" y2="1228.5"/><ellipse cx="1903.5" cy="1265.9316" fill="#84BE84" rx="3" ry="3" style="stroke:#038048;stroke-width:1.0;"/><text fill="#000000" font-family="sans-serif" font-size="14" lengthAdjust="spacing" textLength="479" x="1912.5" y="1270.2285">Monstre(double x, double y, double hauteur, double largeur, double vitesse)</text><ellipse cx="1903.5" cy="1284.5527" fill="#84BE84" rx="3" ry="3" style="stroke:#038048;stroke-width:1.0;"/><text fill="#000000" font-family="sans-serif" font-size="14" lengthAdjust="spacing" textLength="517" x="1912.5" y="1288.8496">Monstre(double x, double y, double largeur, double hauteur, double vitesse, int id)</text><line style="stroke:#181818;stroke-width:1.0;stroke-dasharray:1.0,2.0;" x1="1893.5" x2="2123" y1="1245.8105" y2="1245.8105"/><text fill="#000000" font-family="sans-serif" font-size="14" lengthAdjust="spacing" textLength="82" x="2123" y="1251.1074">Constructeur</text><line style="stroke:#181818;stroke-width:1.0;stroke-dasharray:1.0,2.0;" x1="2205" x2="2434.5" y1="1245.8105" y2="1245.8105"/></g><!--class Walker--><g id="elem_Walker"><rect codeLine="71" fill="#F1F1F1" height="99.8633" id="Walker" rx="2.5" ry="2.5" style="stroke:#181818;stroke-width:0.5;" width="536" x="1896" y="1433"/><ellipse cx="2137.75" cy="1449" fill="#ADD1B2" rx="11" ry="11" style="stroke:#181818;stroke-width:1.0;"/><path d="M2140.5156,1444.875 Q2140.6719,1444.6563 2140.8594,1444.5469 Q2141.0469,1444.4375 2141.2656,1444.4375 Q2141.6406,1444.4375 2141.875,1444.7031 Q2142.1094,1444.9531 2142.1094,1445.5625 L2142.1094,1447.0156 Q2142.1094,1447.625 2141.875,1447.8906 Q2141.6406,1448.1563 2141.2656,1448.1563 Q2140.9219,1448.1563 2140.7188,1447.9531 Q2140.5156,1447.7656 2140.4063,1447.25 Q2140.3594,1446.8906 2140.1719,1446.7031 Q2139.8438,1446.3281 2139.2344,1446.1094 Q2138.625,1445.8906 2138,1445.8906 Q2137.2344,1445.8906 2136.5938,1446.2188 Q2135.9688,1446.5469 2135.4688,1447.2969 Q2134.9844,1448.0469 2134.9844,1449.0781 L2134.9844,1450.1719 Q2134.9844,1451.4063 2135.875,1452.2344 Q2136.7656,1453.0469 2138.3594,1453.0469 Q2139.2969,1453.0469 2139.9531,1452.7969 Q2140.3438,1452.6406 2140.7656,1452.2031 Q2141.0313,1451.9375 2141.1719,1451.8594 Q2141.3281,1451.7813 2141.5313,1451.7813 Q2141.8594,1451.7813 2142.1094,1452.0469 Q2142.375,1452.2969 2142.375,1452.6406 Q2142.375,1452.9844 2142.0313,1453.3906 Q2141.5313,1453.9688 2140.7344,1454.2969 Q2139.6563,1454.75 2138.3594,1454.75 Q2136.8438,1454.75 2135.6406,1454.125 Q2134.6563,1453.625 2133.9688,1452.5625 Q2133.2813,1451.4844 2133.2813,1450.2031 L2133.2813,1449.0469 Q2133.2813,1447.7188 2133.8906,1446.5781 Q2134.5156,1445.4219 2135.6094,1444.8125 Q2136.7031,1444.1875 2137.9375,1444.1875 Q2138.6719,1444.1875 2139.3125,1444.3594 Q2139.9688,1444.5156 2140.5156,1444.875 Z " fill="#000000"/><text fill="#000000" font-family="sans-serif" font-size="14" lengthAdjust="spacing" textLength="44" x="2158.25" y="1454.7969">Walker</text><line style="stroke:#181818;stroke-width:0.5;" x1="1897" x2="2431" y1="1465" y2="1465"/><ellipse cx="1907" cy="1502.4316" fill="#84BE84" rx="3" ry="3" style="stroke:#038048;stroke-width:1.0;"/><text fill="#000000" font-family="sans-serif" font-size="14" lengthAdjust="spacing" textLength="373" x="1916" y="1506.7285">Walker(double x, double y, double hauteur, double largeur)</text><ellipse cx="1907" cy="1521.0527" fill="#84BE84" rx="3" ry="3" style="stroke:#038048;stroke-width:1.0;"/><text fill="#000000" font-family="sans-serif" font-size="14" lengthAdjust="spacing" textLength="510" x="1916" y="1525.3496">Walker(double x, double y, double hauteur, double largeur, double vitesse, int id)</text><line style="stroke:#181818;stroke-width:1.0;stroke-dasharray:1.0,2.0;" x1="1897" x2="2123" y1="1482.3105" y2="1482.3105"/><text fill="#000000" font-family="sans-serif" font-size="14" lengthAdjust="spacing" textLength="82" x="2123" y="1487.6074">Constructeur</text><line style="stroke:#181818;stroke-width:1.0;stroke-dasharray:1.0,2.0;" x1="2205" x2="2431" y1="1482.3105" y2="1482.3105"/></g><!--class Monde--><g id="elem_Monde"><rect codeLine="77" fill="#F1F1F1" height="364.5586" id="Monde" rx="2.5" ry="2.5" style="stroke:#181818;stroke-width:0.5;" width="510" x="1159" y="354.5"/><ellipse cx="1388.25" cy="370.5" fill="#ADD1B2" rx="11" ry="11" style="stroke:#181818;stroke-width:1.0;"/><path d="M1391.0156,366.375 Q1391.1719,366.1563 1391.3594,366.0469 Q1391.5469,365.9375 1391.7656,365.9375 Q1392.1406,365.9375 1392.375,366.2031 Q1392.6094,366.4531 1392.6094,367.0625 L1392.6094,368.5156 Q1392.6094,369.125 1392.375,369.3906 Q1392.1406,369.6563 1391.7656,369.6563 Q1391.4219,369.6563 1391.2188,369.4531 Q1391.0156,369.2656 1390.9063,368.75 Q1390.8594,368.3906 1390.6719,368.2031 Q1390.3438,367.8281 1389.7344,367.6094 Q1389.125,367.3906 1388.5,367.3906 Q1387.7344,367.3906 1387.0938,367.7188 Q1386.4688,368.0469 1385.9688,368.7969 Q1385.4844,369.5469 1385.4844,370.5781 L1385.4844,371.6719 Q1385.4844,372.9063 1386.375,373.7344 Q1387.2656,374.5469 1388.8594,374.5469 Q1389.7969,374.5469 1390.4531,374.2969 Q1390.8438,374.1406 1391.2656,373.7031 Q1391.5313,373.4375 1391.6719,373.3594 Q1391.8281,373.2813 1392.0313,373.2813 Q1392.3594,373.2813 1392.6094,373.5469 Q1392.875,373.7969 1392.875,374.1406 Q1392.875,374.4844 1392.5313,374.8906 Q1392.0313,375.4688 1391.2344,375.7969 Q1390.1563,376.25 1388.8594,376.25 Q1387.3438,376.25 1386.1406,375.625 Q1385.1563,375.125 1384.4688,374.0625 Q1383.7813,372.9844 1383.7813,371.7031 L1383.7813,370.5469 Q1383.7813,369.2188 1384.3906,368.0781 Q1385.0156,366.9219 1386.1094,366.3125 Q1387.2031,365.6875 1388.4375,365.6875 Q1389.1719,365.6875 1389.8125,365.8594 Q1390.4688,366.0156 1391.0156,366.375 Z " fill="#000000"/><text fill="#000000" font-family="sans-serif" font-size="14" lengthAdjust="spacing" textLength="43" x="1408.75" y="376.2969">Monde</text><line style="stroke:#181818;stroke-width:0.5;" x1="1160" x2="1668" y1="386.5" y2="386.5"/><ellipse cx="1170" cy="423.9316" fill="#84BE84" rx="3" ry="3" style="stroke:#038048;stroke-width:1.0;"/><text fill="#000000" font-family="sans-serif" font-size="14" lengthAdjust="spacing" textLength="53" x="1179" y="428.2285">Monde()</text><line style="stroke:#181818;stroke-width:1.0;stroke-dasharray:1.0,2.0;" x1="1160" x2="1373" y1="403.8105" y2="403.8105"/><text fill="#000000" font-family="sans-serif" font-size="14" lengthAdjust="spacing" textLength="82" x="1373" y="409.1074">Constructeur</text><line style="stroke:#181818;stroke-width:1.0;stroke-dasharray:1.0,2.0;" x1="1455" x2="1668" y1="403.8105" y2="403.8105"/><ellipse cx="1170" cy="465.1738" fill="#84BE84" rx="3" ry="3" style="stroke:#038048;stroke-width:1.0;"/><text fill="#000000" font-family="sans-serif" font-size="14" lengthAdjust="spacing" textLength="197" x="1179" y="469.4707">void chargerCarte(String carte)</text><ellipse cx="1170" cy="483.7949" fill="#84BE84" rx="3" ry="3" style="stroke:#038048;stroke-width:1.0;"/><text fill="#000000" font-family="sans-serif" font-size="14" lengthAdjust="spacing" textLength="351" x="1179" y="488.0918">boolean collision(ElementMonde e1, ElementMonde e2)</text><ellipse cx="1170" cy="502.416" fill="#84BE84" rx="3" ry="3" style="stroke:#038048;stroke-width:1.0;"/><text fill="#000000" font-family="sans-serif" font-size="14" lengthAdjust="spacing" textLength="171" x="1179" y="506.7129">void addTerrains(Terrain t)</text><ellipse cx="1170" cy="521.0371" fill="#84BE84" rx="3" ry="3" style="stroke:#038048;stroke-width:1.0;"/><text fill="#000000" font-family="sans-serif" font-size="14" lengthAdjust="spacing" textLength="230" x="1179" y="525.334">void addPersonnage(Personnage p)</text><ellipse cx="1170" cy="539.6582" fill="#84BE84" rx="3" ry="3" style="stroke:#038048;stroke-width:1.0;"/><text fill="#000000" font-family="sans-serif" font-size="14" lengthAdjust="spacing" textLength="484" x="1179" y="543.9551">void deplacementHeros(TypeMouvement typeMouvement, double deltaTime)</text><ellipse cx="1170" cy="558.2793" fill="#84BE84" rx="3" ry="3" style="stroke:#038048;stroke-width:1.0;"/><text fill="#000000" font-family="sans-serif" font-size="14" lengthAdjust="spacing" textLength="108" x="1179" y="562.5762">Heros getHeros()</text><ellipse cx="1170" cy="576.9004" fill="#84BE84" rx="3" ry="3" style="stroke:#038048;stroke-width:1.0;"/><text fill="#000000" font-family="sans-serif" font-size="14" lengthAdjust="spacing" textLength="267" x="1179" y="581.1973">ArrayList&lt;Personnage&gt; getPersonnages()</text><ellipse cx="1170" cy="595.5215" fill="#84BE84" rx="3" ry="3" style="stroke:#038048;stroke-width:1.0;"/><text fill="#000000" font-family="sans-serif" font-size="14" lengthAdjust="spacing" textLength="205" x="1179" y="599.8184">ArrayList&lt;Terrain&gt; getTerrains()</text><ellipse cx="1170" cy="614.1426" fill="#84BE84" rx="3" ry="3" style="stroke:#038048;stroke-width:1.0;"/><text fill="#000000" font-family="sans-serif" font-size="14" lengthAdjust="spacing" textLength="423" x="1179" y="618.4395">boolean collisionAvec(Personnage pers, boolean checkAvecHeros)</text><ellipse cx="1170" cy="632.7637" fill="#84BE84" rx="3" ry="3" style="stroke:#038048;stroke-width:1.0;"/><text fill="#000000" font-family="sans-serif" font-size="14" lengthAdjust="spacing" text-decoration="underline" textLength="260" x="1179" y="637.0605">int intLePlusProche(int value, int multiple)</text><ellipse cx="1170" cy="651.3848" fill="#84BE84" rx="3" ry="3" style="stroke:#038048;stroke-width:1.0;"/><text fill="#000000" font-family="sans-serif" font-size="14" lengthAdjust="spacing" textLength="179" x="1179" y="655.6816">void deplacementMonstres()</text><ellipse cx="1170" cy="670.0059" fill="#84BE84" rx="3" ry="3" style="stroke:#038048;stroke-width:1.0;"/><text fill="#000000" font-family="sans-serif" font-size="14" lengthAdjust="spacing" textLength="423" x="1179" y="674.3027">Graph&lt;Point2D, DefaultEdge&gt; grapheAlternatif(Monstre m, int pas)</text><ellipse cx="1170" cy="688.627" fill="#84BE84" rx="3" ry="3" style="stroke:#038048;stroke-width:1.0;"/><text fill="#000000" font-family="sans-serif" font-size="14" lengthAdjust="spacing" textLength="288" x="1179" y="692.9238">boolean collisionAvecTerrains(Personnage p)</text><ellipse cx="1170" cy="707.248" fill="#84BE84" rx="3" ry="3" style="stroke:#038048;stroke-width:1.0;"/><text fill="#000000" font-family="sans-serif" font-size="14" lengthAdjust="spacing" textLength="288" x="1179" y="711.5449">void deplacementMonstres(double deltaTime)</text><line style="stroke:#181818;stroke-width:1.0;stroke-dasharray:1.0,2.0;" x1="1160" x2="1383" y1="445.0527" y2="445.0527"/><text fill="#000000" font-family="sans-serif" font-size="14" lengthAdjust="spacing" textLength="62" x="1383" y="450.3496">M&#233;thodes</text><line style="stroke:#181818;stroke-width:1.0;stroke-dasharray:1.0,2.0;" x1="1445" x2="1668" y1="445.0527" y2="445.0527"/></g><!--class Donnees--><g id="elem_Donnees"><rect codeLine="99" fill="#F1F1F1" height="141.1055" id="Donnees" rx="2.5" ry="2.5" style="stroke:#181818;stroke-width:0.5;" width="233" x="760.5" y="466.5"/><ellipse cx="844.25" cy="482.5" fill="#ADD1B2" rx="11" ry="11" style="stroke:#181818;stroke-width:1.0;"/><path d="M847.0156,478.375 Q847.1719,478.1563 847.3594,478.0469 Q847.5469,477.9375 847.7656,477.9375 Q848.1406,477.9375 848.375,478.2031 Q848.6094,478.4531 848.6094,479.0625 L848.6094,480.5156 Q848.6094,481.125 848.375,481.3906 Q848.1406,481.6563 847.7656,481.6563 Q847.4219,481.6563 847.2188,481.4531 Q847.0156,481.2656 846.9063,480.75 Q846.8594,480.3906 846.6719,480.2031 Q846.3438,479.8281 845.7344,479.6094 Q845.125,479.3906 844.5,479.3906 Q843.7344,479.3906 843.0938,479.7188 Q842.4688,480.0469 841.9688,480.7969 Q841.4844,481.5469 841.4844,482.5781 L841.4844,483.6719 Q841.4844,484.9063 842.375,485.7344 Q843.2656,486.5469 844.8594,486.5469 Q845.7969,486.5469 846.4531,486.2969 Q846.8438,486.1406 847.2656,485.7031 Q847.5313,485.4375 847.6719,485.3594 Q847.8281,485.2813 848.0313,485.2813 Q848.3594,485.2813 848.6094,485.5469 Q848.875,485.7969 848.875,486.1406 Q848.875,486.4844 848.5313,486.8906 Q848.0313,487.4688 847.2344,487.7969 Q846.1563,488.25 844.8594,488.25 Q843.3438,488.25 842.1406,487.625 Q841.1563,487.125 840.4688,486.0625 Q839.7813,484.9844 839.7813,483.7031 L839.7813,482.5469 Q839.7813,481.2188 840.3906,480.0781 Q841.0156,478.9219 842.1094,478.3125 Q843.2031,477.6875 844.4375,477.6875 Q845.1719,477.6875 845.8125,477.8594 Q846.4688,478.0156 847.0156,478.375 Z " fill="#000000"/><text fill="#000000" font-family="sans-serif" font-size="14" lengthAdjust="spacing" textLength="57" x="864.75" y="488.2969">Donnees</text><line style="stroke:#181818;stroke-width:0.5;" x1="761.5" x2="992.5" y1="498.5" y2="498.5"/><ellipse cx="771.5" cy="513.3105" fill="none" rx="3" ry="3" style="stroke:#038048;stroke-width:1.0;"/><text fill="#000000" font-family="sans-serif" font-size="14" lengthAdjust="spacing" text-decoration="underline" textLength="207" x="780.5" y="517.6074">int WINDOW_DEFAULT_HEIGHT</text><ellipse cx="771.5" cy="531.9316" fill="none" rx="3" ry="3" style="stroke:#038048;stroke-width:1.0;"/><text fill="#000000" font-family="sans-serif" font-size="14" lengthAdjust="spacing" text-decoration="underline" textLength="201" x="780.5" y="536.2285">int WINDOW_DEFAULT_WIDTH</text><ellipse cx="771.5" cy="550.5527" fill="none" rx="3" ry="3" style="stroke:#038048;stroke-width:1.0;"/><text fill="#000000" font-family="sans-serif" font-size="14" lengthAdjust="spacing" text-decoration="underline" textLength="129" x="780.5" y="554.8496">int WORLD_HEIGHT</text><ellipse cx="771.5" cy="569.1738" fill="none" rx="3" ry="3" style="stroke:#038048;stroke-width:1.0;"/><text fill="#000000" font-family="sans-serif" font-size="14" lengthAdjust="spacing" text-decoration="underline" textLength="123" x="780.5" y="573.4707">int WORLD_WIDTH</text><text fill="#000000" font-family="sans-serif" font-size="14" lengthAdjust="spacing" textLength="12" x="780.5" y="592.0918">...</text><line style="stroke:#181818;stroke-width:0.5;" x1="761.5" x2="992.5" y1="599.6055" y2="599.6055"/></g><!--class GestionFichier--><g id="elem_GestionFichier"><rect codeLine="107" fill="#F1F1F1" height="122.4844" id="GestionFichier" rx="2.5" ry="2.5" style="stroke:#181818;stroke-width:0.5;" width="284" x="710" y="872.5"/><ellipse cx="801.75" cy="888.5" fill="#ADD1B2" rx="11" ry="11" style="stroke:#181818;stroke-width:1.0;"/><path d="M804.5156,884.375 Q804.6719,884.1563 804.8594,884.0469 Q805.0469,883.9375 805.2656,883.9375 Q805.6406,883.9375 805.875,884.2031 Q806.1094,884.4531 806.1094,885.0625 L806.1094,886.5156 Q806.1094,887.125 805.875,887.3906 Q805.6406,887.6563 805.2656,887.6563 Q804.9219,887.6563 804.7188,887.4531 Q804.5156,887.2656 804.4063,886.75 Q804.3594,886.3906 804.1719,886.2031 Q803.8438,885.8281 803.2344,885.6094 Q802.625,885.3906 802,885.3906 Q801.2344,885.3906 800.5938,885.7188 Q799.9688,886.0469 799.4688,886.7969 Q798.9844,887.5469 798.9844,888.5781 L798.9844,889.6719 Q798.9844,890.9063 799.875,891.7344 Q800.7656,892.5469 802.3594,892.5469 Q803.2969,892.5469 803.9531,892.2969 Q804.3438,892.1406 804.7656,891.7031 Q805.0313,891.4375 805.1719,891.3594 Q805.3281,891.2813 805.5313,891.2813 Q805.8594,891.2813 806.1094,891.5469 Q806.375,891.7969 806.375,892.1406 Q806.375,892.4844 806.0313,892.8906 Q805.5313,893.4688 804.7344,893.7969 Q803.6563,894.25 802.3594,894.25 Q800.8438,894.25 799.6406,893.625 Q798.6563,893.125 797.9688,892.0625 Q797.2813,890.9844 797.2813,889.7031 L797.2813,888.5469 Q797.2813,887.2188 797.8906,886.0781 Q798.5156,884.9219 799.6094,884.3125 Q800.7031,883.6875 801.9375,883.6875 Q802.6719,883.6875 803.3125,883.8594 Q803.9688,884.0156 804.5156,884.375 Z " fill="#000000"/><text fill="#000000" font-family="sans-serif" font-size="14" lengthAdjust="spacing" textLength="92" x="822.25" y="894.2969">GestionFichier</text><line style="stroke:#181818;stroke-width:0.5;" x1="711" x2="993" y1="904.5" y2="904.5"/><ellipse cx="721" cy="941.9316" fill="#84BE84" rx="3" ry="3" style="stroke:#038048;stroke-width:1.0;"/><text fill="#000000" font-family="sans-serif" font-size="14" lengthAdjust="spacing" textLength="102" x="730" y="946.2285">GestionFichier()</text><line style="stroke:#181818;stroke-width:1.0;stroke-dasharray:1.0,2.0;" x1="711" x2="811" y1="921.8105" y2="921.8105"/><text fill="#000000" font-family="sans-serif" font-size="14" lengthAdjust="spacing" textLength="82" x="811" y="927.1074">Constructeur</text><line style="stroke:#181818;stroke-width:1.0;stroke-dasharray:1.0,2.0;" x1="893" x2="993" y1="921.8105" y2="921.8105"/><ellipse cx="721" cy="983.1738" fill="#84BE84" rx="3" ry="3" style="stroke:#038048;stroke-width:1.0;"/><text fill="#000000" font-family="sans-serif" font-size="14" lengthAdjust="spacing" text-decoration="underline" textLength="258" x="730" y="987.4707">char[][] lireFichierCarte(String nomCarte)</text><line style="stroke:#181818;stroke-width:1.0;stroke-dasharray:1.0,2.0;" x1="711" x2="821" y1="963.0527" y2="963.0527"/><text fill="#000000" font-family="sans-serif" font-size="14" lengthAdjust="spacing" textLength="62" x="821" y="968.3496">M&#233;thodes</text><line style="stroke:#181818;stroke-width:1.0;stroke-dasharray:1.0,2.0;" x1="883" x2="993" y1="963.0527" y2="963.0527"/></g><!--class Resources--><g id="elem_Resources"><rect codeLine="114" fill="#F1F1F1" height="252.832" id="Resources" rx="2.5" ry="2.5" style="stroke:#181818;stroke-width:0.5;" width="320" x="674" y="1120"/><ellipse cx="795.75" cy="1136" fill="#ADD1B2" rx="11" ry="11" style="stroke:#181818;stroke-width:1.0;"/><path d="M798.5156,1131.875 Q798.6719,1131.6563 798.8594,1131.5469 Q799.0469,1131.4375 799.2656,1131.4375 Q799.6406,1131.4375 799.875,1131.7031 Q800.1094,1131.9531 800.1094,1132.5625 L800.1094,1134.0156 Q800.1094,1134.625 799.875,1134.8906 Q799.6406,1135.1563 799.2656,1135.1563 Q798.9219,1135.1563 798.7188,1134.9531 Q798.5156,1134.7656 798.4063,1134.25 Q798.3594,1133.8906 798.1719,1133.7031 Q797.8438,1133.3281 797.2344,1133.1094 Q796.625,1132.8906 796,1132.8906 Q795.2344,1132.8906 794.5938,1133.2188 Q793.9688,1133.5469 793.4688,1134.2969 Q792.9844,1135.0469 792.9844,1136.0781 L792.9844,1137.1719 Q792.9844,1138.4063 793.875,1139.2344 Q794.7656,1140.0469 796.3594,1140.0469 Q797.2969,1140.0469 797.9531,1139.7969 Q798.3438,1139.6406 798.7656,1139.2031 Q799.0313,1138.9375 799.1719,1138.8594 Q799.3281,1138.7813 799.5313,1138.7813 Q799.8594,1138.7813 800.1094,1139.0469 Q800.375,1139.2969 800.375,1139.6406 Q800.375,1139.9844 800.0313,1140.3906 Q799.5313,1140.9688 798.7344,1141.2969 Q797.6563,1141.75 796.3594,1141.75 Q794.8438,1141.75 793.6406,1141.125 Q792.6563,1140.625 791.9688,1139.5625 Q791.2813,1138.4844 791.2813,1137.2031 L791.2813,1136.0469 Q791.2813,1134.7188 791.8906,1133.5781 Q792.5156,1132.4219 793.6094,1131.8125 Q794.7031,1131.1875 795.9375,1131.1875 Q796.6719,1131.1875 797.3125,1131.3594 Q797.9688,1131.5156 798.5156,1131.875 Z " fill="#000000"/><text fill="#000000" font-family="sans-serif" font-size="14" lengthAdjust="spacing" textLength="68" x="816.25" y="1141.7969">Resources</text><line style="stroke:#181818;stroke-width:0.5;" x1="675" x2="993" y1="1152" y2="1152"/><rect fill="none" height="6" style="stroke:#C82930;stroke-width:1.0;" width="6" x="682" y="1163.8105"/><text fill="#000000" font-family="sans-serif" font-size="14" lengthAdjust="spacing" text-decoration="underline" textLength="171" x="694" y="1171.1074">Map&lt;String, Image&gt; assets</text><rect fill="#F24D5C" height="6" style="stroke:#C82930;stroke-width:1.0;" width="6" x="682" y="1205.0527"/><text fill="#000000" font-family="sans-serif" font-size="14" lengthAdjust="spacing" textLength="78" x="694" y="1212.3496">Resources()</text><line style="stroke:#181818;stroke-width:1.0;stroke-dasharray:1.0,2.0;" x1="675" x2="793" y1="1187.9316" y2="1187.9316"/><text fill="#000000" font-family="sans-serif" font-size="14" lengthAdjust="spacing" textLength="82" x="793" y="1193.2285">Constructeur</text><line style="stroke:#181818;stroke-width:1.0;stroke-dasharray:1.0,2.0;" x1="875" x2="993" y1="1187.9316" y2="1187.9316"/><ellipse cx="685" cy="1249.2949" fill="#84BE84" rx="3" ry="3" style="stroke:#038048;stroke-width:1.0;"/><text fill="#000000" font-family="sans-serif" font-size="14" lengthAdjust="spacing" text-decoration="underline" textLength="130" x="694" y="1253.5918">URL get(String path)</text><ellipse cx="685" cy="1267.916" fill="#84BE84" rx="3" ry="3" style="stroke:#038048;stroke-width:1.0;"/><text fill="#000000" font-family="sans-serif" font-size="14" lengthAdjust="spacing" text-decoration="underline" textLength="240" x="694" y="1272.2129">InputStream getAsStream(String path)</text><ellipse cx="685" cy="1286.5371" fill="#84BE84" rx="3" ry="3" style="stroke:#038048;stroke-width:1.0;"/><text fill="#000000" font-family="sans-serif" font-size="14" lengthAdjust="spacing" text-decoration="underline" textLength="176" x="694" y="1290.834">Image getAsset(String path)</text><ellipse cx="685" cy="1305.1582" fill="#84BE84" rx="3" ry="3" style="stroke:#038048;stroke-width:1.0;"/><text fill="#000000" font-family="sans-serif" font-size="14" lengthAdjust="spacing" text-decoration="underline" textLength="294" x="694" y="1309.4551">ResourceBundle getI18NBundle(Locale locale)</text><ellipse cx="685" cy="1323.7793" fill="#84BE84" rx="3" ry="3" style="stroke:#038048;stroke-width:1.0;"/><text fill="#000000" font-family="sans-serif" font-size="14" lengthAdjust="spacing" text-decoration="underline" textLength="211" x="694" y="1328.0762">ResourceBundle getI18NBundle()</text><ellipse cx="685" cy="1342.4004" fill="#84BE84" rx="3" ry="3" style="stroke:#038048;stroke-width:1.0;"/><text fill="#000000" font-family="sans-serif" font-size="14" lengthAdjust="spacing" text-decoration="underline" textLength="290" x="694" y="1346.6973">String getI18NString(String key, Locale locale)</text><ellipse cx="685" cy="1361.0215" fill="#84BE84" rx="3" ry="3" style="stroke:#038048;stroke-width:1.0;"/><text fill="#000000" font-family="sans-serif" font-size="14" lengthAdjust="spacing" text-decoration="underline" textLength="199" x="694" y="1365.3184">String getI18NString(String key)</text><line style="stroke:#181818;stroke-width:1.0;stroke-dasharray:1.0,2.0;" x1="675" x2="803" y1="1229.1738" y2="1229.1738"/><text fill="#000000" font-family="sans-serif" font-size="14" lengthAdjust="spacing" textLength="62" x="803" y="1234.4707">M&#233;thodes</text><line style="stroke:#181818;stroke-width:1.0;stroke-dasharray:1.0,2.0;" x1="865" x2="993" y1="1229.1738" y2="1229.1738"/></g><!--class FabriqueId--><g id="elem_FabriqueId"><rect codeLine="128" fill="#F1F1F1" height="178.3477" id="FabriqueId" rx="2.5" ry="2.5" style="stroke:#181818;stroke-width:0.5;" width="181" x="544.5" y="448"/><ellipse cx="596.75" cy="464" fill="#ADD1B2" rx="11" ry="11" style="stroke:#181818;stroke-width:1.0;"/><path d="M599.5156,459.875 Q599.6719,459.6563 599.8594,459.5469 Q600.0469,459.4375 600.2656,459.4375 Q600.6406,459.4375 600.875,459.7031 Q601.1094,459.9531 601.1094,460.5625 L601.1094,462.0156 Q601.1094,462.625 600.875,462.8906 Q600.6406,463.1563 600.2656,463.1563 Q599.9219,463.1563 599.7188,462.9531 Q599.5156,462.7656 599.4063,462.25 Q599.3594,461.8906 599.1719,461.7031 Q598.8438,461.3281 598.2344,461.1094 Q597.625,460.8906 597,460.8906 Q596.2344,460.8906 595.5938,461.2188 Q594.9688,461.5469 594.4688,462.2969 Q593.9844,463.0469 593.9844,464.0781 L593.9844,465.1719 Q593.9844,466.4063 594.875,467.2344 Q595.7656,468.0469 597.3594,468.0469 Q598.2969,468.0469 598.9531,467.7969 Q599.3438,467.6406 599.7656,467.2031 Q600.0313,466.9375 600.1719,466.8594 Q600.3281,466.7813 600.5313,466.7813 Q600.8594,466.7813 601.1094,467.0469 Q601.375,467.2969 601.375,467.6406 Q601.375,467.9844 601.0313,468.3906 Q600.5313,468.9688 599.7344,469.2969 Q598.6563,469.75 597.3594,469.75 Q595.8438,469.75 594.6406,469.125 Q593.6563,468.625 592.9688,467.5625 Q592.2813,466.4844 592.2813,465.2031 L592.2813,464.0469 Q592.2813,462.7188 592.8906,461.5781 Q593.5156,460.4219 594.6094,459.8125 Q595.7031,459.1875 596.9375,459.1875 Q597.6719,459.1875 598.3125,459.3594 Q598.9688,459.5156 599.5156,459.875 Z " fill="#000000"/><text fill="#000000" font-family="sans-serif" font-size="14" lengthAdjust="spacing" textLength="68" x="617.25" y="469.7969">FabriqueId</text><line style="stroke:#181818;stroke-width:0.5;" x1="545.5" x2="724.5" y1="480" y2="480"/><rect fill="none" height="6" style="stroke:#C82930;stroke-width:1.0;" width="6" x="552.5" y="491.8105"/><text fill="#000000" font-family="sans-serif" font-size="14" lengthAdjust="spacing" text-decoration="underline" textLength="125" x="564.5" y="499.1074">FabriqueId instance</text><rect fill="none" height="6" style="stroke:#C82930;stroke-width:1.0;" width="6" x="552.5" y="510.4316"/><text fill="#000000" font-family="sans-serif" font-size="14" lengthAdjust="spacing" textLength="30" x="564.5" y="517.7285">int id</text><rect fill="#F24D5C" height="6" style="stroke:#C82930;stroke-width:1.0;" width="6" x="552.5" y="551.6738"/><text fill="#000000" font-family="sans-serif" font-size="14" lengthAdjust="spacing" textLength="78" x="564.5" y="558.9707">FabriqueId()</text><line style="stroke:#181818;stroke-width:1.0;stroke-dasharray:1.0,2.0;" x1="545.5" x2="594" y1="534.5527" y2="534.5527"/><text fill="#000000" font-family="sans-serif" font-size="14" lengthAdjust="spacing" textLength="82" x="594" y="539.8496">Constructeur</text><line style="stroke:#181818;stroke-width:1.0;stroke-dasharray:1.0,2.0;" x1="676" x2="724.5" y1="534.5527" y2="534.5527"/><ellipse cx="555.5" cy="595.916" fill="#84BE84" rx="3" ry="3" style="stroke:#038048;stroke-width:1.0;"/><text fill="#000000" font-family="sans-serif" font-size="14" lengthAdjust="spacing" text-decoration="underline" textLength="155" x="564.5" y="600.2129">FabriqueId getInstance()</text><ellipse cx="555.5" cy="614.5371" fill="#84BE84" rx="3" ry="3" style="stroke:#038048;stroke-width:1.0;"/><text fill="#000000" font-family="sans-serif" font-size="14" lengthAdjust="spacing" textLength="60" x="564.5" y="618.834">int getId()</text><line style="stroke:#181818;stroke-width:1.0;stroke-dasharray:1.0,2.0;" x1="545.5" x2="604" y1="575.7949" y2="575.7949"/><text fill="#000000" font-family="sans-serif" font-size="14" lengthAdjust="spacing" textLength="62" x="604" y="581.0918">M&#233;thodes</text><line style="stroke:#181818;stroke-width:1.0;stroke-dasharray:1.0,2.0;" x1="666" x2="724.5" y1="575.7949" y2="575.7949"/></g><!--class Sprite--><g id="elem_Sprite"><rect codeLine="140" fill="#F1F1F1" height="48" id="Sprite" rx="2.5" ry="2.5" style="stroke:#181818;stroke-width:0.5;" width="69" x="2508.5" y="909.5"/><ellipse cx="2523.5" cy="925.5" fill="#ADD1B2" rx="11" ry="11" style="stroke:#181818;stroke-width:1.0;"/><path d="M2526.2656,921.375 Q2526.4219,921.1563 2526.6094,921.0469 Q2526.7969,920.9375 2527.0156,920.9375 Q2527.3906,920.9375 2527.625,921.2031 Q2527.8594,921.4531 2527.8594,922.0625 L2527.8594,923.5156 Q2527.8594,924.125 2527.625,924.3906 Q2527.3906,924.6563 2527.0156,924.6563 Q2526.6719,924.6563 2526.4688,924.4531 Q2526.2656,924.2656 2526.1563,923.75 Q2526.1094,923.3906 2525.9219,923.2031 Q2525.5938,922.8281 2524.9844,922.6094 Q2524.375,922.3906 2523.75,922.3906 Q2522.9844,922.3906 2522.3438,922.7188 Q2521.7188,923.0469 2521.2188,923.7969 Q2520.7344,924.5469 2520.7344,925.5781 L2520.7344,926.6719 Q2520.7344,927.9063 2521.625,928.7344 Q2522.5156,929.5469 2524.1094,929.5469 Q2525.0469,929.5469 2525.7031,929.2969 Q2526.0938,929.1406 2526.5156,928.7031 Q2526.7813,928.4375 2526.9219,928.3594 Q2527.0781,928.2813 2527.2813,928.2813 Q2527.6094,928.2813 2527.8594,928.5469 Q2528.125,928.7969 2528.125,929.1406 Q2528.125,929.4844 2527.7813,929.8906 Q2527.2813,930.4688 2526.4844,930.7969 Q2525.4063,931.25 2524.1094,931.25 Q2522.5938,931.25 2521.3906,930.625 Q2520.4063,930.125 2519.7188,929.0625 Q2519.0313,927.9844 2519.0313,926.7031 L2519.0313,925.5469 Q2519.0313,924.2188 2519.6406,923.0781 Q2520.2656,921.9219 2521.3594,921.3125 Q2522.4531,920.6875 2523.6875,920.6875 Q2524.4219,920.6875 2525.0625,920.8594 Q2525.7188,921.0156 2526.2656,921.375 Z " fill="#000000"/><text fill="#000000" font-family="sans-serif" font-size="14" lengthAdjust="spacing" textLength="37" x="2537.5" y="931.2969">Sprite</text><line style="stroke:#181818;stroke-width:0.5;" x1="2509.5" x2="2576.5" y1="941.5" y2="941.5"/><line style="stroke:#181818;stroke-width:0.5;" x1="2509.5" x2="2576.5" y1="949.5" y2="949.5"/></g><!--class GameController--><g id="elem_GameController"><rect codeLine="144" fill="#F1F1F1" height="48" id="GameController" rx="2.5" ry="2.5" style="stroke:#181818;stroke-width:0.5;" width="132" x="2392" y="165"/><ellipse cx="2407" cy="181" fill="#A9DCDF" rx="11" ry="11" style="stroke:#181818;stroke-width:1.0;"/><path d="M2409.1875,182.7656 L2405.0469,182.7656 L2404.625,183.7969 L2405.0469,183.7969 Q2405.6563,183.7969 2405.9219,184.0313 Q2406.1875,184.2656 2406.1875,184.6563 Q2406.1875,185.0313 2405.9219,185.2656 Q2405.6563,185.5 2405.0469,185.5 L2402.75,185.5 Q2402.1406,185.5 2401.8906,185.2656 Q2401.625,185.0313 2401.625,184.6406 Q2401.625,184.2656 2401.9063,184.0313 Q2402.1719,183.7813 2402.7969,183.7969 L2405.4688,177.1406 L2404.3594,177.1406 Q2403.75,177.1406 2403.4844,176.9063 Q2403.2188,176.6719 2403.2188,176.2813 Q2403.2188,175.9063 2403.4844,175.6719 Q2403.75,175.4375 2404.3594,175.4375 L2408.0313,175.4375 L2411.4219,183.7969 Q2412.0156,183.7969 2412.2031,183.9375 Q2412.5938,184.2031 2412.5938,184.6563 Q2412.5938,185.0313 2412.3281,185.2656 Q2412.0781,185.5 2411.4688,185.5 L2409.1719,185.5 Q2408.5625,185.5 2408.2969,185.2656 Q2408.0313,185.0313 2408.0313,184.6406 Q2408.0313,184.2656 2408.2969,184.0313 Q2408.5625,183.7969 2409.1719,183.7969 L2409.5938,183.7969 L2409.1875,182.7656 Z M2408.4688,181.0625 L2407.1094,177.6875 L2405.7344,181.0625 L2408.4688,181.0625 Z " fill="#000000"/><text fill="#000000" font-family="sans-serif" font-size="14" font-style="italic" lengthAdjust="spacing" textLength="100" x="2421" y="186.7969">GameController</text><line style="stroke:#181818;stroke-width:0.5;" x1="2393" x2="2523" y1="197" y2="197"/><line style="stroke:#181818;stroke-width:0.5;" x1="2393" x2="2523" y1="205" y2="205"/></g><g id="elem_N_gui"><path d="M2427.5,6 L2427.5,50.582 L2744.5,50.582 L2744.5,16 L2734.5,6 L2427.5,6 " fill="#FEFFDD" style="stroke:#181818;stroke-width:0.5;"/><path d="M2734.5,6 L2734.5,16 L2744.5,16 L2734.5,6 " fill="#FEFFDD" style="stroke:#181818;stroke-width:1.0;"/><text fill="#000000" font-family="sans-serif" font-size="13" lengthAdjust="spacing" textLength="91" x="2433.5" y="25.0283">Voir diagramme</text><text fill="#000000" font-family="sans-serif" font-size="13" font-style="italic" lengthAdjust="spacing" textLength="52" x="2528.5" y="25.0283">class-gui</text><text fill="#000000" font-family="sans-serif" font-size="13" lengthAdjust="spacing" textLength="108" x="2584.5" y="25.0283">pour en savoir plus</text><text fill="#000000" font-family="sans-serif" font-size="13" lengthAdjust="spacing" textLength="296" x="2433.5" y="42.3193">sur ces packages et les classes qu'ils contiennent.</text></g><!--link N_gui to engine--><g id="link_N_gui_engine"><path codeLine="190" d="M2582.3,51.21 C2578.66,72.575 2572.96,106.045 2568.1088,134.5288 C2567.8055,136.309 2567.5057,138.0697 2567.2098,139.8068 C2567.1728,140.024 2567.1359,140.2408 2567.099,140.4571 " fill="none" id="N_gui-engine" style="stroke:#181818;stroke-width:1.0;stroke-dasharray:7.0,7.0;"/></g><!--link N_gui to gui--><g id="link_N_gui_gui"><path codeLine="191" d="M2586.65,51.37 C2588.7,119.785 2595.2,337.1725 2601.2313,538.8862 C2604.2469,639.7431 2607.1453,736.6816 2609.3117,809.1208 C2609.8533,827.2306 2610.3492,843.8092 2610.7897,858.535 C2610.8447,860.3757 2610.8989,862.1875 2610.9522,863.9697 " fill="none" id="N_gui-gui" style="stroke:#181818;stroke-width:1.0;stroke-dasharray:7.0,7.0;"/></g><!--reverse link GestionFichier to Resources--><!--reverse link Donnees to GestionFichier--><!--link engine to gui--><!--link GameController to Monde--><g id="link_GameController_Monde"><path codeLine="200" d="M2444.26,213.01 C2432.01,231.19 2412.28,255.37 2388,267 C2247.25,334.43 1832.13,252.11 1687,309.5 C1658.22,320.88 1630.22,336.52 1603.81,354.31 " fill="none" id="GameController-Monde" style="stroke:#181818;stroke-width:1.0;"/><text fill="#000000" font-family="sans-serif" font-size="13" lengthAdjust="spacing" textLength="7" x="1604.67" y="343.2879">1</text></g><!--reverse link ElementMonde to Personnage--><g id="link_ElementMonde_Personnage"><path codeLine="201" d="M2062.5995,718.3449 C2055.0495,753.7849 2050.93,773.16 2043.74,806.9 " fill="none" id="ElementMonde-backto-Personnage" style="stroke:#181818;stroke-width:1.0;"/><polygon fill="none" points="2066.35,700.74,2056.7312,717.0948,2068.4678,719.5951,2066.35,700.74" style="stroke:#181818;stroke-width:1.0;"/></g><!--reverse link Personnage to Heros--><g id="link_Personnage_Heros"><path codeLine="202" d="M1859.6748,1071.943 C1810.2748,1115.103 1770.77,1149.61 1730.06,1185.17 " fill="none" id="Personnage-backto-Heros" style="stroke:#181818;stroke-width:1.0;"/><polygon fill="none" points="1873.23,1060.1,1855.7271,1067.4246,1863.6224,1076.4614,1873.23,1060.1" style="stroke:#181818;stroke-width:1.0;"/></g><!--reverse link Personnage to Monstre--><g id="link_Personnage_Monstre"><path codeLine="203" d="M2084.0617,1076.3738 C2106.6917,1124.2538 2123.48,1159.78 2140.81,1196.43 " fill="none" id="Personnage-backto-Monstre" style="stroke:#181818;stroke-width:1.0;"/><polygon fill="none" points="2076.37,1060.1,2078.6371,1078.9377,2089.4863,1073.81,2076.37,1060.1" style="stroke:#181818;stroke-width:1.0;"/></g><!--reverse link Monstre to Walker--><g id="link_Monstre_Walker"><path codeLine="204" d="M2164,1314.66 C2164,1354.68 2164,1392.9 2164,1432.91 " fill="none" id="Monstre-backto-Walker" style="stroke:#181818;stroke-width:1.0;"/><polygon fill="none" points="2164,1296.66,2158,1314.66,2170,1314.66,2164,1296.66" style="stroke:#181818;stroke-width:1.0;"/></g><!--reverse link ElementMonde to Terrain--><g id="link_ElementMonde_Terrain"><path codeLine="206" d="M1910.9448,711.7504 C1889.3748,728.3804 1881.31,733.21 1859,747 C1800.02,783.45 1779,780.33 1715,807 C1671.49,825.13 1624.45,844.75 1580.78,862.96 " fill="none" id="ElementMonde-backto-Terrain" style="stroke:#181818;stroke-width:1.0;"/><polygon fill="none" points="1925.2,700.76,1907.2813,706.9987,1914.6083,716.5022,1925.2,700.76" style="stroke:#181818;stroke-width:1.0;"/></g><!--reverse link Terrain to Mur--><g id="link_Terrain_Mur"><path codeLine="207" d="M1366.1622,1019.999 C1335.7022,1074.449 1302.63,1133.56 1273.64,1185.37 " fill="none" id="Terrain-backto-Mur" style="stroke:#181818;stroke-width:1.0;"/><polygon fill="none" points="1374.95,1004.29,1360.9258,1017.0698,1371.3985,1022.9283,1374.95,1004.29" style="stroke:#181818;stroke-width:1.0;"/></g><!--link Monde to Personnage--><g id="link_Monde_Personnage"><path codeLine="210" d="M1646.99,719.76 C1660.39,729.15 1673.79,738.3 1687,747 C1717.73,767.25 1750.81,787.52 1783.73,806.83 " fill="none" id="Monde-Personnage" style="stroke:#181818;stroke-width:1.0;"/><text fill="#000000" font-family="sans-serif" font-size="13" lengthAdjust="spacing" textLength="5" x="1764.3628" y="795.6354">*</text></g><!--link Monde to Terrain--><g id="link_Monde_Terrain"><path codeLine="211" d="M1414,719.66 C1414,770.42 1414,822.56 1414,862.53 " fill="none" id="Monde-Terrain" style="stroke:#181818;stroke-width:1.0;"/><text fill="#000000" font-family="sans-serif" font-size="13" lengthAdjust="spacing" textLength="5" x="1408.7539" y="851.7446">*</text></g><!--link Monde to GestionFichier--><g id="link_Monde_GestionFichier"><path codeLine="213" d="M1158.9,717.07 C1079.39,772.88 997.08,830.66 937.75,872.31 " fill="none" id="Monde-GestionFichier" style="stroke:#181818;stroke-width:1.0;"/><text fill="#000000" font-family="sans-serif" font-size="13" lengthAdjust="spacing" textLength="7" x="940.2602" y="861.2692">1</text></g><!--link ElementMonde to Sprite--><g id="link_ElementMonde_Sprite"><path codeLine="215" d="M2325.94,694.85 C2369.73,729.6 2413.84,767.81 2452,807 C2483.36,839.2 2512.53,882.8 2529.02,909.22 " fill="none" id="ElementMonde-Sprite" style="stroke:#181818;stroke-width:1.0;"/><text fill="#000000" font-family="sans-serif" font-size="13" lengthAdjust="spacing" textLength="5" x="2520.003" y="898.2937">*</text></g><!--link Settings to Property--><g id="link_Settings_Property"><path codeLine="218" d="M266,267.22 C266,285.44 266,305.74 266,326.78 " fill="none" id="Settings-Property" style="stroke:#181818;stroke-width:1.0;"/></g><!--link Property to Getter--><g id="link_Property_Getter"><path codeLine="219" d="M302.57,747.09 C313,806.72 323.18,864.91 329.27,899.74 " fill="none" id="Property-Getter" style="stroke:#181818;stroke-width:1.0;"/><text fill="#000000" font-family="sans-serif" font-size="13" lengthAdjust="spacing" textLength="7" x="320.5105" y="888.7764">1</text></g><!--link Property to Setter--><g id="link_Property_Setter"><path codeLine="220" d="M228.9,747.09 C218.32,806.72 207.99,864.91 201.81,899.74 " fill="none" id="Property-Setter" style="stroke:#181818;stroke-width:1.0;"/><text fill="#000000" font-family="sans-serif" font-size="13" lengthAdjust="spacing" textLength="7" x="195.2503" y="888.7764">1</text></g><!--SRC=[lLXRRzis57xNho2oXyghxQ5zseDXm8rpCM2dGQmqAxeWOAGJcuXCgYJbpUZoW_OxziTsA59NovUinV8GYUIvyvpl73cXuJDT03bJ8Ks0VFCyGXAtDnCyCbi4_-YZqfA6ceGnLOgSnR02hgiKXFn48f4-na3-R6vicXjBccf8PNCxfd9HRlVxfuAZsZGqjFs-stvRq-xdEhk5icv3IxSXlbF8d_tpjrwA25H5kADTWFxDxnIxQy4YeinUhg_Jml6vXUDpph5fuxYq9lfjPrDhRkLihYNZ2wA5VS6JxEYbxOe2a98oNjpEpcWwmXyUo4SXOg2SWDA1f6kGYY9lQNFsiBREKddOJYJw_snq9hO5zXgf1EUcGhOoVyqqA0LkkqSOruH5Xpmh9Uvpq3cqqs6dk_DAiJlYrXJRTRxiZsUMz14aCGr1-i4cWPb8rrcr4brT5U8ZY3KDsAfYT-LIRlabIA4g9M2imDgOHAqbyyaQkxTaAja7F5sHcfNvZH9oCxcu38hLzEoyNDnU5w_ZZtTNs_cS6Nquewrlhx_oetEw7hwNrdIUPRR14VLd2Nz0BdLU8_F8jA_dP-qsxcZy34S0ZANx3epv3X6lSAVUTFTTLrGMmfvo3PV617bAfGRVbKje5jiL6OeuPee9xjS607ZNhKy4yBxH1saKkJQZ_BmnwMsQ2c9LK3RfjEABKMVJ-p_YZArIquGR63D20pTJflIWj69e2CjbExbpBQCj_DqJnj4Qmfgd-DejoPOGFXkIpBvIp3UbgMRXYqqHhgTm7QVgMWfayCtUciQfow1L6ckMnB0xXAu4gtPUI9ei1zS21RmVTyaOdYYAEOkoA9Wp6CKQ94ShdlmSFrPMOKBL0OUBm1ntnOLzxHTfPf-NwjJwCTKipi7NLimOjG2KWDm8uTta2c7yONnsFhgT1W-NPnNatqzwDna7bpieFzvCn_jbPHHL4NrNchLolq0SnyYTit39Za6nElq102WCCY3mvVxBFOcP1CTRGmGkLgSbADGil04bKXbM0jmh1SzeCh0YkcIooWe9UK2h_NxqIgd7kd1xCpLrbnkSKBrigPa9JrAD941NXdgaxFiXBcEvfLS7LUIMVqXvPCUIoRjVh-pAdugG6jZF7gzbRg5tfZWwD-IupMV0ldD8uG41BVTzJXyb-vh292Bbk5IvyievbhccF8GAMMqatdd_XhAKKpZUdWGrVohQZK_EW8g4xHbo2qCMAQi1o3oHs9QRLC0NZE_uGBwWAq37j4JaAwgsqEEaWjOOvRniAX54BCTMe3UdIyeNC4-JH4Y4rj0MpTjjmi47YxH3yfJ6yJoK0FmmhLgAFywJtK9jwWnTxdZjuQymPj3z931xHqaIRxBeLlmzoGMJGJ0a9uW3XQeY185jNcwLOmy6q-qOE9bjwl4nhHSuI9JQ9Ur7w8DxKqxG_X3tYjOLYuMtCq_V5cByLdbTaaDVq4LWrjePESzVEqqnnz8TKhSjkBFp_e8CDdEE_7SBFwZlf8ygbEmH_3tXht6a_BjuHd5SjobBh7DiJtxJEPDEQF5KB7ntRHrtYvRHy0IrBRnLXt55ZY8eW7p2eOESs1ieizIjROxQQ0LjVFC6txpEfqe-vEH28yidmII96CMnQhK2Cc33h5PwY423NzYG9DWC46Y8ecj3cU2Wzpl6I1BJRXqGAGAQnFZ8MF7vDNrZHg0GyOS1ZZvSzpDxhXvGh9VznqHm-5MkpQ7dlR61nW-JZKYrLpRttfSbYoBWzsdI6pR63AynfTHftVpbES0i3YLRB3MUMyKDoEproCcx4_V3P3_xhh3_lShSs4FvVmrh7n-U7UlTIKdhvOFgzedxG7G7ZixpyW-LDYNc5oktxyZGWsrRCoz-FgagsqrK2Df1Wj5eHDshVNNrUaQAOyQOzbtRmYjLhjLuHS_fbH3e5IYC4Z8b9csRkpQPFUzV]--></g></svg>