<?xml version="1.0" encoding="us-ascii" standalone="no"?><svg xmlns="http://www.w3.org/2000/svg" xmlns:xlink="http://www.w3.org/1999/xlink" contentStyleType="text/css" height="1170px" preserveAspectRatio="none" style="width:2054px;height:1170px;background:#FFFFFF;" version="1.1" viewBox="0 0 2054 1170" width="2054px" zoomAndPan="magnify"><defs/><g><!--cluster Escape--><g id="cluster_Escape"><path d="M8.5,78 L60.5,78 A3.75,3.75 0 0 1 63,80.5 L70,102.6211 L2044.5,102.6211 A2.5,2.5 0 0 1 2047,105.1211 L2047,1160.5 A2.5,2.5 0 0 1 2044.5,1163 L8.5,1163 A2.5,2.5 0 0 1 6,1160.5 L6,80.5 A2.5,2.5 0 0 1 8.5,78 " fill="none" style="stroke:#000000;stroke-width:1.5;"/><line style="stroke:#000000;stroke-width:1.5;" x1="6" x2="70" y1="102.6211" y2="102.6211"/><text fill="#000000" font-family="sans-serif" font-size="14" font-weight="bold" lengthAdjust="spacing" textLength="51" x="10" y="95.1074">Escape</text></g><!--cluster Monde--><g id="cluster_Monde"><path d="M209.5,238 L259.5,238 A3.75,3.75 0 0 1 262,240.5 L269,262.6211 L1682.5,262.6211 A2.5,2.5 0 0 1 1685,265.1211 L1685,1136.5 A2.5,2.5 0 0 1 1682.5,1139 L209.5,1139 A2.5,2.5 0 0 1 207,1136.5 L207,240.5 A2.5,2.5 0 0 1 209.5,238 " fill="none" style="stroke:#000000;stroke-width:1.5;"/><line style="stroke:#000000;stroke-width:1.5;" x1="207" x2="269" y1="262.6211" y2="262.6211"/><text fill="#000000" font-family="sans-serif" font-size="14" font-weight="bold" lengthAdjust="spacing" textLength="49" x="211" y="255.1074">Monde</text></g><!--cluster Outils--><g id="cluster_Outils"><path d="M1711.5,303 L1753.5,303 A3.75,3.75 0 0 1 1756,305.5 L1763,327.6211 L2020.5,327.6211 A2.5,2.5 0 0 1 2023,330.1211 L2023,995.5 A2.5,2.5 0 0 1 2020.5,998 L1711.5,998 A2.5,2.5 0 0 1 1709,995.5 L1709,305.5 A2.5,2.5 0 0 1 1711.5,303 " fill="none" style="stroke:#000000;stroke-width:1.5;"/><line style="stroke:#000000;stroke-width:1.5;" x1="1709" x2="1763" y1="327.6211" y2="327.6211"/><text fill="#000000" font-family="sans-serif" font-size="14" font-weight="bold" lengthAdjust="spacing" textLength="41" x="1713" y="320.1074">Outils</text></g><!--cluster gui--><g id="cluster_gui"><path d="M40.5,636 L63.5,636 A3.75,3.75 0 0 1 66,638.5 L73,660.6211 L172.5,660.6211 A2.5,2.5 0 0 1 175,663.1211 L175,750.5 A2.5,2.5 0 0 1 172.5,753 L40.5,753 A2.5,2.5 0 0 1 38,750.5 L38,638.5 A2.5,2.5 0 0 1 40.5,636 " fill="none" style="stroke:#000000;stroke-width:1.5;"/><line style="stroke:#000000;stroke-width:1.5;" x1="38" x2="73" y1="660.6211" y2="660.6211"/><text fill="#000000" font-family="sans-serif" font-size="14" font-weight="bold" lengthAdjust="spacing" textLength="22" x="42" y="653.1074">gui</text></g><!--class Escape--><g id="elem_Escape"><rect codeLine="79" fill="#F1F1F1" height="99.8633" id="Escape" rx="2.5" ry="2.5" style="stroke:#181818;stroke-width:0.5;" width="173" x="344.5" y="115"/><ellipse cx="403.25" cy="131" fill="#ADD1B2" rx="11" ry="11" style="stroke:#181818;stroke-width:1.0;"/><path d="M406.0156,126.875 Q406.1719,126.6563 406.3594,126.5469 Q406.5469,126.4375 406.7656,126.4375 Q407.1406,126.4375 407.375,126.7031 Q407.6094,126.9531 407.6094,127.5625 L407.6094,129.0156 Q407.6094,129.625 407.375,129.8906 Q407.1406,130.1563 406.7656,130.1563 Q406.4219,130.1563 406.2188,129.9531 Q406.0156,129.7656 405.9063,129.25 Q405.8594,128.8906 405.6719,128.7031 Q405.3438,128.3281 404.7344,128.1094 Q404.125,127.8906 403.5,127.8906 Q402.7344,127.8906 402.0938,128.2188 Q401.4688,128.5469 400.9688,129.2969 Q400.4844,130.0469 400.4844,131.0781 L400.4844,132.1719 Q400.4844,133.4063 401.375,134.2344 Q402.2656,135.0469 403.8594,135.0469 Q404.7969,135.0469 405.4531,134.7969 Q405.8438,134.6406 406.2656,134.2031 Q406.5313,133.9375 406.6719,133.8594 Q406.8281,133.7813 407.0313,133.7813 Q407.3594,133.7813 407.6094,134.0469 Q407.875,134.2969 407.875,134.6406 Q407.875,134.9844 407.5313,135.3906 Q407.0313,135.9688 406.2344,136.2969 Q405.1563,136.75 403.8594,136.75 Q402.3438,136.75 401.1406,136.125 Q400.1563,135.625 399.4688,134.5625 Q398.7813,133.4844 398.7813,132.2031 L398.7813,131.0469 Q398.7813,129.7188 399.3906,128.5781 Q400.0156,127.4219 401.1094,126.8125 Q402.2031,126.1875 403.4375,126.1875 Q404.1719,126.1875 404.8125,126.3594 Q405.4688,126.5156 406.0156,126.875 Z " fill="#000000"/><text fill="#000000" font-family="sans-serif" font-size="14" lengthAdjust="spacing" textLength="47" x="423.75" y="136.7969">Escape</text><line style="stroke:#181818;stroke-width:0.5;" x1="345.5" x2="516.5" y1="147" y2="147"/><ellipse cx="355.5" cy="184.4316" fill="#84BE84" rx="3" ry="3" style="stroke:#038048;stroke-width:1.0;"/><text fill="#000000" font-family="sans-serif" font-size="14" lengthAdjust="spacing" text-decoration="underline" textLength="147" x="364.5" y="188.7285">void main(String[] args)</text><ellipse cx="355.5" cy="203.0527" fill="#84BE84" rx="3" ry="3" style="stroke:#038048;stroke-width:1.0;"/><text fill="#000000" font-family="sans-serif" font-size="14" lengthAdjust="spacing" textLength="144" x="364.5" y="207.3496">void start(Stage stage)</text><line style="stroke:#181818;stroke-width:1.0;stroke-dasharray:1.0,2.0;" x1="345.5" x2="416" y1="164.3105" y2="164.3105"/><text fill="#000000" font-family="sans-serif" font-size="14" lengthAdjust="spacing" textLength="30" x="416" y="169.6074">Main</text><line style="stroke:#181818;stroke-width:1.0;stroke-dasharray:1.0,2.0;" x1="446" x2="516.5" y1="164.3105" y2="164.3105"/></g><!--class ElementMonde--><g id="elem_ElementMonde"><rect codeLine="4" fill="#F1F1F1" height="174.3477" id="ElementMonde" rx="2.5" ry="2.5" style="stroke:#181818;stroke-width:0.5;" width="127" x="395.5" y="333"/><ellipse cx="410.5" cy="349" fill="#A9DCDF" rx="11" ry="11" style="stroke:#181818;stroke-width:1.0;"/><path d="M412.6875,350.7656 L408.5469,350.7656 L408.125,351.7969 L408.5469,351.7969 Q409.1563,351.7969 409.4219,352.0313 Q409.6875,352.2656 409.6875,352.6563 Q409.6875,353.0313 409.4219,353.2656 Q409.1563,353.5 408.5469,353.5 L406.25,353.5 Q405.6406,353.5 405.3906,353.2656 Q405.125,353.0313 405.125,352.6406 Q405.125,352.2656 405.4063,352.0313 Q405.6719,351.7813 406.2969,351.7969 L408.9688,345.1406 L407.8594,345.1406 Q407.25,345.1406 406.9844,344.9063 Q406.7188,344.6719 406.7188,344.2813 Q406.7188,343.9063 406.9844,343.6719 Q407.25,343.4375 407.8594,343.4375 L411.5313,343.4375 L414.9219,351.7969 Q415.5156,351.7969 415.7031,351.9375 Q416.0938,352.2031 416.0938,352.6563 Q416.0938,353.0313 415.8281,353.2656 Q415.5781,353.5 414.9688,353.5 L412.6719,353.5 Q412.0625,353.5 411.7969,353.2656 Q411.5313,353.0313 411.5313,352.6406 Q411.5313,352.2656 411.7969,352.0313 Q412.0625,351.7969 412.6719,351.7969 L413.0938,351.7969 L412.6875,350.7656 Z M411.9688,349.0625 L410.6094,345.6875 L409.2344,349.0625 L411.9688,349.0625 Z " fill="#000000"/><text fill="#000000" font-family="sans-serif" font-size="14" font-style="italic" lengthAdjust="spacing" textLength="95" x="424.5" y="354.7969">ElementMonde</text><line style="stroke:#181818;stroke-width:0.5;" x1="396.5" x2="521.5" y1="365" y2="365"/><polygon fill="none" points="406.5,374.8105,410.5,378.8105,406.5,382.8105,402.5,378.8105" style="stroke:#B38D22;stroke-width:1.0;"/><text fill="#000000" font-family="sans-serif" font-size="14" lengthAdjust="spacing" textLength="53" x="415.5" y="384.1074">double x</text><polygon fill="none" points="406.5,393.4316,410.5,397.4316,406.5,401.4316,402.5,397.4316" style="stroke:#B38D22;stroke-width:1.0;"/><text fill="#000000" font-family="sans-serif" font-size="14" lengthAdjust="spacing" textLength="54" x="415.5" y="402.7285">double y</text><polygon fill="none" points="406.5,412.0527,410.5,416.0527,406.5,420.0527,402.5,416.0527" style="stroke:#B38D22;stroke-width:1.0;"/><text fill="#000000" font-family="sans-serif" font-size="14" lengthAdjust="spacing" textLength="96" x="415.5" y="421.3496">double hauteur</text><polygon fill="none" points="406.5,430.6738,410.5,434.6738,406.5,438.6738,402.5,434.6738" style="stroke:#B38D22;stroke-width:1.0;"/><text fill="#000000" font-family="sans-serif" font-size="14" lengthAdjust="spacing" textLength="92" x="415.5" y="439.9707">double largeur</text><ellipse cx="406.5" cy="476.916" fill="#84BE84" rx="3" ry="3" style="stroke:#038048;stroke-width:1.0;"/><text fill="#000000" font-family="sans-serif" font-size="14" lengthAdjust="spacing" textLength="53" x="415.5" y="481.2129">Monde()</text><text fill="#000000" font-family="sans-serif" font-size="14" lengthAdjust="spacing" textLength="4" x="415.5" y="499.834">&#160;</text><line style="stroke:#181818;stroke-width:1.0;stroke-dasharray:1.0,2.0;" x1="396.5" x2="418" y1="456.7949" y2="456.7949"/><text fill="#000000" font-family="sans-serif" font-size="14" lengthAdjust="spacing" textLength="82" x="418" y="462.0918">Constructeur</text><line style="stroke:#181818;stroke-width:1.0;stroke-dasharray:1.0,2.0;" x1="500" x2="521.5" y1="456.7949" y2="456.7949"/></g><!--class Terrain--><g id="elem_Terrain"><rect codeLine="13" fill="#F1F1F1" height="141.1055" id="Terrain" rx="2.5" ry="2.5" style="stroke:#181818;stroke-width:0.5;" width="401" x="223.5" y="634.5"/><ellipse cx="396.75" cy="650.5" fill="#A9DCDF" rx="11" ry="11" style="stroke:#181818;stroke-width:1.0;"/><path d="M398.9375,652.2656 L394.7969,652.2656 L394.375,653.2969 L394.7969,653.2969 Q395.4063,653.2969 395.6719,653.5313 Q395.9375,653.7656 395.9375,654.1563 Q395.9375,654.5313 395.6719,654.7656 Q395.4063,655 394.7969,655 L392.5,655 Q391.8906,655 391.6406,654.7656 Q391.375,654.5313 391.375,654.1406 Q391.375,653.7656 391.6563,653.5313 Q391.9219,653.2813 392.5469,653.2969 L395.2188,646.6406 L394.1094,646.6406 Q393.5,646.6406 393.2344,646.4063 Q392.9688,646.1719 392.9688,645.7813 Q392.9688,645.4063 393.2344,645.1719 Q393.5,644.9375 394.1094,644.9375 L397.7813,644.9375 L401.1719,653.2969 Q401.7656,653.2969 401.9531,653.4375 Q402.3438,653.7031 402.3438,654.1563 Q402.3438,654.5313 402.0781,654.7656 Q401.8281,655 401.2188,655 L398.9219,655 Q398.3125,655 398.0469,654.7656 Q397.7813,654.5313 397.7813,654.1406 Q397.7813,653.7656 398.0469,653.5313 Q398.3125,653.2969 398.9219,653.2969 L399.3438,653.2969 L398.9375,652.2656 Z M398.2188,650.5625 L396.8594,647.1875 L395.4844,650.5625 L398.2188,650.5625 Z " fill="#000000"/><text fill="#000000" font-family="sans-serif" font-size="14" font-style="italic" lengthAdjust="spacing" textLength="46" x="417.25" y="656.2969">Terrain</text><line style="stroke:#181818;stroke-width:0.5;" x1="224.5" x2="623.5" y1="666.5" y2="666.5"/><ellipse cx="234.5" cy="703.9316" fill="#84BE84" rx="3" ry="3" style="stroke:#038048;stroke-width:1.0;"/><text fill="#000000" font-family="sans-serif" font-size="14" lengthAdjust="spacing" textLength="375" x="243.5" y="708.2285">Terrain(double x, double y, double hauteur, double largeur)</text><line style="stroke:#181818;stroke-width:1.0;stroke-dasharray:1.0,2.0;" x1="224.5" x2="383" y1="683.8105" y2="683.8105"/><text fill="#000000" font-family="sans-serif" font-size="14" lengthAdjust="spacing" textLength="82" x="383" y="689.1074">Constructeur</text><line style="stroke:#181818;stroke-width:1.0;stroke-dasharray:1.0,2.0;" x1="465" x2="623.5" y1="683.8105" y2="683.8105"/><ellipse cx="234.5" cy="745.1738" fill="#84BE84" rx="3" ry="3" style="stroke:#038048;stroke-width:1.0;"/><text fill="#000000" font-family="sans-serif" font-size="14" lengthAdjust="spacing" textLength="160" x="243.5" y="749.4707">boolean estTraversable()</text><text fill="#000000" font-family="sans-serif" font-size="14" lengthAdjust="spacing" textLength="4" x="243.5" y="768.0918">&#160;</text><line style="stroke:#181818;stroke-width:1.0;stroke-dasharray:1.0,2.0;" x1="224.5" x2="393" y1="725.0527" y2="725.0527"/><text fill="#000000" font-family="sans-serif" font-size="14" lengthAdjust="spacing" textLength="62" x="393" y="730.3496">M&#233;thodes</text><line style="stroke:#181818;stroke-width:1.0;stroke-dasharray:1.0,2.0;" x1="455" x2="623.5" y1="725.0527" y2="725.0527"/></g><!--class Mur--><g id="elem_Mur"><rect codeLine="21" fill="#F1F1F1" height="122.4844" id="Mur" rx="2.5" ry="2.5" style="stroke:#181818;stroke-width:0.5;" width="379" x="223.5" y="852.5"/><ellipse cx="396.75" cy="868.5" fill="#ADD1B2" rx="11" ry="11" style="stroke:#181818;stroke-width:1.0;"/><path d="M399.5156,864.375 Q399.6719,864.1563 399.8594,864.0469 Q400.0469,863.9375 400.2656,863.9375 Q400.6406,863.9375 400.875,864.2031 Q401.1094,864.4531 401.1094,865.0625 L401.1094,866.5156 Q401.1094,867.125 400.875,867.3906 Q400.6406,867.6563 400.2656,867.6563 Q399.9219,867.6563 399.7188,867.4531 Q399.5156,867.2656 399.4063,866.75 Q399.3594,866.3906 399.1719,866.2031 Q398.8438,865.8281 398.2344,865.6094 Q397.625,865.3906 397,865.3906 Q396.2344,865.3906 395.5938,865.7188 Q394.9688,866.0469 394.4688,866.7969 Q393.9844,867.5469 393.9844,868.5781 L393.9844,869.6719 Q393.9844,870.9063 394.875,871.7344 Q395.7656,872.5469 397.3594,872.5469 Q398.2969,872.5469 398.9531,872.2969 Q399.3438,872.1406 399.7656,871.7031 Q400.0313,871.4375 400.1719,871.3594 Q400.3281,871.2813 400.5313,871.2813 Q400.8594,871.2813 401.1094,871.5469 Q401.375,871.7969 401.375,872.1406 Q401.375,872.4844 401.0313,872.8906 Q400.5313,873.4688 399.7344,873.7969 Q398.6563,874.25 397.3594,874.25 Q395.8438,874.25 394.6406,873.625 Q393.6563,873.125 392.9688,872.0625 Q392.2813,870.9844 392.2813,869.7031 L392.2813,868.5469 Q392.2813,867.2188 392.8906,866.0781 Q393.5156,864.9219 394.6094,864.3125 Q395.7031,863.6875 396.9375,863.6875 Q397.6719,863.6875 398.3125,863.8594 Q398.9688,864.0156 399.5156,864.375 Z " fill="#000000"/><text fill="#000000" font-family="sans-serif" font-size="14" lengthAdjust="spacing" textLength="24" x="417.25" y="874.2969">Mur</text><line style="stroke:#181818;stroke-width:0.5;" x1="224.5" x2="601.5" y1="884.5" y2="884.5"/><ellipse cx="234.5" cy="921.9316" fill="#84BE84" rx="3" ry="3" style="stroke:#038048;stroke-width:1.0;"/><text fill="#000000" font-family="sans-serif" font-size="14" lengthAdjust="spacing" textLength="353" x="243.5" y="926.2285">Mur(double x, double y, double hauteur, double largeur)</text><line style="stroke:#181818;stroke-width:1.0;stroke-dasharray:1.0,2.0;" x1="224.5" x2="372" y1="901.8105" y2="901.8105"/><text fill="#000000" font-family="sans-serif" font-size="14" lengthAdjust="spacing" textLength="82" x="372" y="907.1074">Constructeur</text><line style="stroke:#181818;stroke-width:1.0;stroke-dasharray:1.0,2.0;" x1="454" x2="601.5" y1="901.8105" y2="901.8105"/><ellipse cx="234.5" cy="963.1738" fill="#84BE84" rx="3" ry="3" style="stroke:#038048;stroke-width:1.0;"/><text fill="#000000" font-family="sans-serif" font-size="14" lengthAdjust="spacing" textLength="160" x="243.5" y="967.4707">boolean estTraversable()</text><line style="stroke:#181818;stroke-width:1.0;stroke-dasharray:1.0,2.0;" x1="224.5" x2="382" y1="943.0527" y2="943.0527"/><text fill="#000000" font-family="sans-serif" font-size="14" lengthAdjust="spacing" textLength="62" x="382" y="948.3496">M&#233;thodes</text><line style="stroke:#181818;stroke-width:1.0;stroke-dasharray:1.0,2.0;" x1="444" x2="601.5" y1="943.0527" y2="943.0527"/></g><!--class Personnage--><g id="elem_Personnage"><rect codeLine="29" fill="#F1F1F1" height="159.7266" id="Personnage" rx="2.5" ry="2.5" style="stroke:#181818;stroke-width:0.5;" width="531" x="659.5" y="625"/><ellipse cx="882.25" cy="641" fill="#A9DCDF" rx="11" ry="11" style="stroke:#181818;stroke-width:1.0;"/><path d="M884.4375,642.7656 L880.2969,642.7656 L879.875,643.7969 L880.2969,643.7969 Q880.9063,643.7969 881.1719,644.0313 Q881.4375,644.2656 881.4375,644.6563 Q881.4375,645.0313 881.1719,645.2656 Q880.9063,645.5 880.2969,645.5 L878,645.5 Q877.3906,645.5 877.1406,645.2656 Q876.875,645.0313 876.875,644.6406 Q876.875,644.2656 877.1563,644.0313 Q877.4219,643.7813 878.0469,643.7969 L880.7188,637.1406 L879.6094,637.1406 Q879,637.1406 878.7344,636.9063 Q878.4688,636.6719 878.4688,636.2813 Q878.4688,635.9063 878.7344,635.6719 Q879,635.4375 879.6094,635.4375 L883.2813,635.4375 L886.6719,643.7969 Q887.2656,643.7969 887.4531,643.9375 Q887.8438,644.2031 887.8438,644.6563 Q887.8438,645.0313 887.5781,645.2656 Q887.3281,645.5 886.7188,645.5 L884.4219,645.5 Q883.8125,645.5 883.5469,645.2656 Q883.2813,645.0313 883.2813,644.6406 Q883.2813,644.2656 883.5469,644.0313 Q883.8125,643.7969 884.4219,643.7969 L884.8438,643.7969 L884.4375,642.7656 Z M883.7188,641.0625 L882.3594,637.6875 L880.9844,641.0625 L883.7188,641.0625 Z " fill="#000000"/><text fill="#000000" font-family="sans-serif" font-size="14" font-style="italic" lengthAdjust="spacing" textLength="77" x="902.75" y="646.7969">Personnage</text><line style="stroke:#181818;stroke-width:0.5;" x1="660.5" x2="1189.5" y1="657" y2="657"/><polygon fill="none" points="670.5,666.8105,674.5,670.8105,670.5,674.8105,666.5,670.8105" style="stroke:#B38D22;stroke-width:1.0;"/><text fill="#000000" font-family="sans-serif" font-size="14" lengthAdjust="spacing" textLength="91" x="679.5" y="676.1074">double vitesse</text><ellipse cx="670.5" cy="713.0527" fill="#84BE84" rx="3" ry="3" style="stroke:#038048;stroke-width:1.0;"/><text fill="#000000" font-family="sans-serif" font-size="14" lengthAdjust="spacing" textLength="505" x="679.5" y="717.3496">Personnage(double x, double y, double largeur, double hauteur, double vitesse)</text><line style="stroke:#181818;stroke-width:1.0;stroke-dasharray:1.0,2.0;" x1="660.5" x2="884" y1="692.9316" y2="692.9316"/><text fill="#000000" font-family="sans-serif" font-size="14" lengthAdjust="spacing" textLength="82" x="884" y="698.2285">Constructeur</text><line style="stroke:#181818;stroke-width:1.0;stroke-dasharray:1.0,2.0;" x1="966" x2="1189.5" y1="692.9316" y2="692.9316"/><ellipse cx="670.5" cy="754.2949" fill="#84BE84" rx="3" ry="3" style="stroke:#038048;stroke-width:1.0;"/><text fill="#000000" font-family="sans-serif" font-size="14" lengthAdjust="spacing" textLength="304" x="679.5" y="758.5918">void d&#233;placer(TypeMouvement typeMouvement)</text><ellipse cx="670.5" cy="772.916" fill="#84BE84" rx="3" ry="3" style="stroke:#038048;stroke-width:1.0;"/><text fill="#000000" font-family="sans-serif" font-size="14" lengthAdjust="spacing" textLength="138" x="679.5" y="777.2129">boolean estUnHeros()</text><line style="stroke:#181818;stroke-width:1.0;stroke-dasharray:1.0,2.0;" x1="660.5" x2="894" y1="734.1738" y2="734.1738"/><text fill="#000000" font-family="sans-serif" font-size="14" lengthAdjust="spacing" textLength="62" x="894" y="739.4707">M&#233;thodes</text><line style="stroke:#181818;stroke-width:1.0;stroke-dasharray:1.0,2.0;" x1="956" x2="1189.5" y1="734.1738" y2="734.1738"/></g><!--class TypeMouvement--><g id="elem_TypeMouvement"><rect codeLine="38" fill="#F1F1F1" height="122.4844" id="TypeMouvement" rx="2.5" ry="2.5" style="stroke:#181818;stroke-width:0.5;" width="137" x="223.5" y="359"/><ellipse cx="238.5" cy="375" fill="#EB937F" rx="11" ry="11" style="stroke:#181818;stroke-width:1.0;"/><path d="M237.3594,375.7969 L237.3594,378.2969 L241.6875,378.2969 L241.6875,377.375 Q241.6875,376.7656 241.9219,376.5 Q242.1719,376.2344 242.5469,376.2344 Q242.9219,376.2344 243.1563,376.5 Q243.3906,376.7656 243.3906,377.375 L243.3906,380 L235.3906,380 Q234.7656,380 234.5,379.7656 Q234.25,379.5313 234.25,379.1406 Q234.25,378.7656 234.5156,378.5313 Q234.7813,378.2969 235.3906,378.2969 L235.6563,378.2969 L235.6563,371.6406 L235.3906,371.6406 Q234.7656,371.6406 234.5,371.4063 Q234.25,371.1719 234.25,370.7813 Q234.25,370.4063 234.5,370.1719 Q234.7656,369.9375 235.3906,369.9375 L243.0156,369.9375 L243.0156,372.5313 Q243.0156,373.1406 242.7813,373.4063 Q242.5625,373.6563 242.1719,373.6563 Q241.7969,373.6563 241.5625,373.4063 Q241.3281,373.1406 241.3281,372.5313 L241.3281,371.6406 L237.3594,371.6406 L237.3594,374.0938 L238.8438,374.0938 Q238.8438,373.4375 238.9688,373.25 Q239.2344,372.8438 239.7031,372.8438 Q240.0781,372.8438 240.3125,373.1094 Q240.5469,373.3594 240.5469,373.9688 L240.5469,375.9375 Q240.5469,376.4844 240.4219,376.6719 Q240.1563,377.0625 239.7031,377.0625 Q239.2344,377.0625 238.9688,376.6563 Q238.8438,376.4688 238.8438,375.7969 L237.3594,375.7969 Z " fill="#000000"/><text fill="#000000" font-family="sans-serif" font-size="14" lengthAdjust="spacing" textLength="105" x="252.5" y="380.7969">TypeMouvement</text><line style="stroke:#181818;stroke-width:0.5;" x1="224.5" x2="359.5" y1="391" y2="391"/><text fill="#000000" font-family="sans-serif" font-size="14" lengthAdjust="spacing" textLength="42" x="229.5" y="410.1074">RIGHT</text><text fill="#000000" font-family="sans-serif" font-size="14" lengthAdjust="spacing" textLength="35" x="229.5" y="428.7285">LEFT</text><text fill="#000000" font-family="sans-serif" font-size="14" lengthAdjust="spacing" textLength="29" x="229.5" y="447.3496">TOP</text><text fill="#000000" font-family="sans-serif" font-size="14" lengthAdjust="spacing" textLength="43" x="229.5" y="465.9707">DOWN</text><line style="stroke:#181818;stroke-width:0.5;" x1="224.5" x2="359.5" y1="473.4844" y2="473.4844"/></g><!--class Heros--><g id="elem_Heros"><rect codeLine="45" fill="#F1F1F1" height="122.4844" id="Heros" rx="2.5" ry="2.5" style="stroke:#181818;stroke-width:0.5;" width="491" x="1177.5" y="852.5"/><ellipse cx="1400.25" cy="868.5" fill="#ADD1B2" rx="11" ry="11" style="stroke:#181818;stroke-width:1.0;"/><path d="M1403.0156,864.375 Q1403.1719,864.1563 1403.3594,864.0469 Q1403.5469,863.9375 1403.7656,863.9375 Q1404.1406,863.9375 1404.375,864.2031 Q1404.6094,864.4531 1404.6094,865.0625 L1404.6094,866.5156 Q1404.6094,867.125 1404.375,867.3906 Q1404.1406,867.6563 1403.7656,867.6563 Q1403.4219,867.6563 1403.2188,867.4531 Q1403.0156,867.2656 1402.9063,866.75 Q1402.8594,866.3906 1402.6719,866.2031 Q1402.3438,865.8281 1401.7344,865.6094 Q1401.125,865.3906 1400.5,865.3906 Q1399.7344,865.3906 1399.0938,865.7188 Q1398.4688,866.0469 1397.9688,866.7969 Q1397.4844,867.5469 1397.4844,868.5781 L1397.4844,869.6719 Q1397.4844,870.9063 1398.375,871.7344 Q1399.2656,872.5469 1400.8594,872.5469 Q1401.7969,872.5469 1402.4531,872.2969 Q1402.8438,872.1406 1403.2656,871.7031 Q1403.5313,871.4375 1403.6719,871.3594 Q1403.8281,871.2813 1404.0313,871.2813 Q1404.3594,871.2813 1404.6094,871.5469 Q1404.875,871.7969 1404.875,872.1406 Q1404.875,872.4844 1404.5313,872.8906 Q1404.0313,873.4688 1403.2344,873.7969 Q1402.1563,874.25 1400.8594,874.25 Q1399.3438,874.25 1398.1406,873.625 Q1397.1563,873.125 1396.4688,872.0625 Q1395.7813,870.9844 1395.7813,869.7031 L1395.7813,868.5469 Q1395.7813,867.2188 1396.3906,866.0781 Q1397.0156,864.9219 1398.1094,864.3125 Q1399.2031,863.6875 1400.4375,863.6875 Q1401.1719,863.6875 1401.8125,863.8594 Q1402.4688,864.0156 1403.0156,864.375 Z " fill="#000000"/><text fill="#000000" font-family="sans-serif" font-size="14" lengthAdjust="spacing" textLength="37" x="1420.75" y="874.2969">Heros</text><line style="stroke:#181818;stroke-width:0.5;" x1="1178.5" x2="1667.5" y1="884.5" y2="884.5"/><ellipse cx="1188.5" cy="921.9316" fill="#84BE84" rx="3" ry="3" style="stroke:#038048;stroke-width:1.0;"/><text fill="#000000" font-family="sans-serif" font-size="14" lengthAdjust="spacing" textLength="465" x="1197.5" y="926.2285">Heros(double x, double y, double largeur, double hauteur, double vitesse)</text><line style="stroke:#181818;stroke-width:1.0;stroke-dasharray:1.0,2.0;" x1="1178.5" x2="1382" y1="901.8105" y2="901.8105"/><text fill="#000000" font-family="sans-serif" font-size="14" lengthAdjust="spacing" textLength="82" x="1382" y="907.1074">Constructeur</text><line style="stroke:#181818;stroke-width:1.0;stroke-dasharray:1.0,2.0;" x1="1464" x2="1667.5" y1="901.8105" y2="901.8105"/><ellipse cx="1188.5" cy="963.1738" fill="#84BE84" rx="3" ry="3" style="stroke:#038048;stroke-width:1.0;"/><text fill="#000000" font-family="sans-serif" font-size="14" lengthAdjust="spacing" textLength="138" x="1197.5" y="967.4707">boolean estUnHeros()</text><line style="stroke:#181818;stroke-width:1.0;stroke-dasharray:1.0,2.0;" x1="1178.5" x2="1392" y1="943.0527" y2="943.0527"/><text fill="#000000" font-family="sans-serif" font-size="14" lengthAdjust="spacing" textLength="62" x="1392" y="948.3496">M&#233;thodes</text><line style="stroke:#181818;stroke-width:1.0;stroke-dasharray:1.0,2.0;" x1="1454" x2="1667.5" y1="943.0527" y2="943.0527"/></g><!--class Monstre--><g id="elem_Monstre"><rect codeLine="52" fill="#F1F1F1" height="81.2422" id="Monstre" rx="2.5" ry="2.5" style="stroke:#181818;stroke-width:0.5;" width="505" x="637.5" y="873"/><ellipse cx="859.75" cy="889" fill="#A9DCDF" rx="11" ry="11" style="stroke:#181818;stroke-width:1.0;"/><path d="M861.9375,890.7656 L857.7969,890.7656 L857.375,891.7969 L857.7969,891.7969 Q858.4063,891.7969 858.6719,892.0313 Q858.9375,892.2656 858.9375,892.6563 Q858.9375,893.0313 858.6719,893.2656 Q858.4063,893.5 857.7969,893.5 L855.5,893.5 Q854.8906,893.5 854.6406,893.2656 Q854.375,893.0313 854.375,892.6406 Q854.375,892.2656 854.6563,892.0313 Q854.9219,891.7813 855.5469,891.7969 L858.2188,885.1406 L857.1094,885.1406 Q856.5,885.1406 856.2344,884.9063 Q855.9688,884.6719 855.9688,884.2813 Q855.9688,883.9063 856.2344,883.6719 Q856.5,883.4375 857.1094,883.4375 L860.7813,883.4375 L864.1719,891.7969 Q864.7656,891.7969 864.9531,891.9375 Q865.3438,892.2031 865.3438,892.6563 Q865.3438,893.0313 865.0781,893.2656 Q864.8281,893.5 864.2188,893.5 L861.9219,893.5 Q861.3125,893.5 861.0469,893.2656 Q860.7813,893.0313 860.7813,892.6406 Q860.7813,892.2656 861.0469,892.0313 Q861.3125,891.7969 861.9219,891.7969 L862.3438,891.7969 L861.9375,890.7656 Z M861.2188,889.0625 L859.8594,885.6875 L858.4844,889.0625 L861.2188,889.0625 Z " fill="#000000"/><text fill="#000000" font-family="sans-serif" font-size="14" font-style="italic" lengthAdjust="spacing" textLength="52" x="880.25" y="894.7969">Monstre</text><line style="stroke:#181818;stroke-width:0.5;" x1="638.5" x2="1141.5" y1="905" y2="905"/><ellipse cx="648.5" cy="942.4316" fill="#84BE84" rx="3" ry="3" style="stroke:#038048;stroke-width:1.0;"/><text fill="#000000" font-family="sans-serif" font-size="14" lengthAdjust="spacing" textLength="479" x="657.5" y="946.7285">Monstre(double x, double y, double largeur, double hauteur, double vitesse)</text><line style="stroke:#181818;stroke-width:1.0;stroke-dasharray:1.0,2.0;" x1="638.5" x2="849" y1="922.3105" y2="922.3105"/><text fill="#000000" font-family="sans-serif" font-size="14" lengthAdjust="spacing" textLength="82" x="849" y="927.6074">Constructeur</text><line style="stroke:#181818;stroke-width:1.0;stroke-dasharray:1.0,2.0;" x1="931" x2="1141.5" y1="922.3105" y2="922.3105"/></g><!--class Walker--><g id="elem_Walker"><rect codeLine="57" fill="#F1F1F1" height="81.2422" id="Walker" rx="2.5" ry="2.5" style="stroke:#181818;stroke-width:0.5;" width="498" x="641" y="1042"/><ellipse cx="863.75" cy="1058" fill="#ADD1B2" rx="11" ry="11" style="stroke:#181818;stroke-width:1.0;"/><path d="M866.5156,1053.875 Q866.6719,1053.6563 866.8594,1053.5469 Q867.0469,1053.4375 867.2656,1053.4375 Q867.6406,1053.4375 867.875,1053.7031 Q868.1094,1053.9531 868.1094,1054.5625 L868.1094,1056.0156 Q868.1094,1056.625 867.875,1056.8906 Q867.6406,1057.1563 867.2656,1057.1563 Q866.9219,1057.1563 866.7188,1056.9531 Q866.5156,1056.7656 866.4063,1056.25 Q866.3594,1055.8906 866.1719,1055.7031 Q865.8438,1055.3281 865.2344,1055.1094 Q864.625,1054.8906 864,1054.8906 Q863.2344,1054.8906 862.5938,1055.2188 Q861.9688,1055.5469 861.4688,1056.2969 Q860.9844,1057.0469 860.9844,1058.0781 L860.9844,1059.1719 Q860.9844,1060.4063 861.875,1061.2344 Q862.7656,1062.0469 864.3594,1062.0469 Q865.2969,1062.0469 865.9531,1061.7969 Q866.3438,1061.6406 866.7656,1061.2031 Q867.0313,1060.9375 867.1719,1060.8594 Q867.3281,1060.7813 867.5313,1060.7813 Q867.8594,1060.7813 868.1094,1061.0469 Q868.375,1061.2969 868.375,1061.6406 Q868.375,1061.9844 868.0313,1062.3906 Q867.5313,1062.9688 866.7344,1063.2969 Q865.6563,1063.75 864.3594,1063.75 Q862.8438,1063.75 861.6406,1063.125 Q860.6563,1062.625 859.9688,1061.5625 Q859.2813,1060.4844 859.2813,1059.2031 L859.2813,1058.0469 Q859.2813,1056.7188 859.8906,1055.5781 Q860.5156,1054.4219 861.6094,1053.8125 Q862.7031,1053.1875 863.9375,1053.1875 Q864.6719,1053.1875 865.3125,1053.3594 Q865.9688,1053.5156 866.5156,1053.875 Z " fill="#000000"/><text fill="#000000" font-family="sans-serif" font-size="14" lengthAdjust="spacing" textLength="44" x="884.25" y="1063.7969">Walker</text><line style="stroke:#181818;stroke-width:0.5;" x1="642" x2="1138" y1="1074" y2="1074"/><ellipse cx="652" cy="1111.4316" fill="#84BE84" rx="3" ry="3" style="stroke:#038048;stroke-width:1.0;"/><text fill="#000000" font-family="sans-serif" font-size="14" lengthAdjust="spacing" textLength="472" x="661" y="1115.7285">Walker(double x, double y, double largeur, double hauteur, double vitesse)</text><line style="stroke:#181818;stroke-width:1.0;stroke-dasharray:1.0,2.0;" x1="642" x2="849" y1="1091.3105" y2="1091.3105"/><text fill="#000000" font-family="sans-serif" font-size="14" lengthAdjust="spacing" textLength="82" x="849" y="1096.6074">Constructeur</text><line style="stroke:#181818;stroke-width:1.0;stroke-dasharray:1.0,2.0;" x1="931" x2="1138" y1="1091.3105" y2="1091.3105"/></g><!--class Monde--><g id="elem_Monde"><rect codeLine="62" fill="#F1F1F1" height="290.0742" id="Monde" rx="2.5" ry="2.5" style="stroke:#181818;stroke-width:0.5;" width="393" x="642.5" y="275"/><ellipse cx="813.25" cy="291" fill="#ADD1B2" rx="11" ry="11" style="stroke:#181818;stroke-width:1.0;"/><path d="M816.0156,286.875 Q816.1719,286.6563 816.3594,286.5469 Q816.5469,286.4375 816.7656,286.4375 Q817.1406,286.4375 817.375,286.7031 Q817.6094,286.9531 817.6094,287.5625 L817.6094,289.0156 Q817.6094,289.625 817.375,289.8906 Q817.1406,290.1563 816.7656,290.1563 Q816.4219,290.1563 816.2188,289.9531 Q816.0156,289.7656 815.9063,289.25 Q815.8594,288.8906 815.6719,288.7031 Q815.3438,288.3281 814.7344,288.1094 Q814.125,287.8906 813.5,287.8906 Q812.7344,287.8906 812.0938,288.2188 Q811.4688,288.5469 810.9688,289.2969 Q810.4844,290.0469 810.4844,291.0781 L810.4844,292.1719 Q810.4844,293.4063 811.375,294.2344 Q812.2656,295.0469 813.8594,295.0469 Q814.7969,295.0469 815.4531,294.7969 Q815.8438,294.6406 816.2656,294.2031 Q816.5313,293.9375 816.6719,293.8594 Q816.8281,293.7813 817.0313,293.7813 Q817.3594,293.7813 817.6094,294.0469 Q817.875,294.2969 817.875,294.6406 Q817.875,294.9844 817.5313,295.3906 Q817.0313,295.9688 816.2344,296.2969 Q815.1563,296.75 813.8594,296.75 Q812.3438,296.75 811.1406,296.125 Q810.1563,295.625 809.4688,294.5625 Q808.7813,293.4844 808.7813,292.2031 L808.7813,291.0469 Q808.7813,289.7188 809.3906,288.5781 Q810.0156,287.4219 811.1094,286.8125 Q812.2031,286.1875 813.4375,286.1875 Q814.1719,286.1875 814.8125,286.3594 Q815.4688,286.5156 816.0156,286.875 Z " fill="#000000"/><text fill="#000000" font-family="sans-serif" font-size="14" lengthAdjust="spacing" textLength="43" x="833.75" y="296.7969">Monde</text><line style="stroke:#181818;stroke-width:0.5;" x1="643.5" x2="1034.5" y1="307" y2="307"/><polygon fill="none" points="653.5,316.8105,657.5,320.8105,653.5,324.8105,649.5,320.8105" style="stroke:#B38D22;stroke-width:1.0;"/><text fill="#000000" font-family="sans-serif" font-size="14" lengthAdjust="spacing" textLength="70" x="662.5" y="326.1074">int nbLigne</text><polygon fill="none" points="653.5,335.4316,657.5,339.4316,653.5,343.4316,649.5,339.4316" style="stroke:#B38D22;stroke-width:1.0;"/><text fill="#000000" font-family="sans-serif" font-size="14" lengthAdjust="spacing" textLength="56" x="662.5" y="344.7285">int nbCol</text><ellipse cx="653.5" cy="381.6738" fill="#84BE84" rx="3" ry="3" style="stroke:#038048;stroke-width:1.0;"/><text fill="#000000" font-family="sans-serif" font-size="14" lengthAdjust="spacing" textLength="53" x="662.5" y="385.9707">Monde()</text><line style="stroke:#181818;stroke-width:1.0;stroke-dasharray:1.0,2.0;" x1="643.5" x2="798" y1="361.5527" y2="361.5527"/><text fill="#000000" font-family="sans-serif" font-size="14" lengthAdjust="spacing" textLength="82" x="798" y="366.8496">Constructeur</text><line style="stroke:#181818;stroke-width:1.0;stroke-dasharray:1.0,2.0;" x1="880" x2="1034.5" y1="361.5527" y2="361.5527"/><ellipse cx="653.5" cy="422.916" fill="#84BE84" rx="3" ry="3" style="stroke:#038048;stroke-width:1.0;"/><text fill="#000000" font-family="sans-serif" font-size="14" lengthAdjust="spacing" textLength="351" x="662.5" y="427.2129">boolean collision(ElementMonde e1, ElementMonde e2)</text><ellipse cx="653.5" cy="441.5371" fill="#84BE84" rx="3" ry="3" style="stroke:#038048;stroke-width:1.0;"/><text fill="#000000" font-family="sans-serif" font-size="14" lengthAdjust="spacing" textLength="108" x="662.5" y="445.834">Heros getHeros()</text><ellipse cx="653.5" cy="460.1582" fill="#84BE84" rx="3" ry="3" style="stroke:#038048;stroke-width:1.0;"/><text fill="#000000" font-family="sans-serif" font-size="14" lengthAdjust="spacing" textLength="367" x="662.5" y="464.4551">void deplacementHeros(TypeMouvement typeMouvement)</text><ellipse cx="653.5" cy="478.7793" fill="#84BE84" rx="3" ry="3" style="stroke:#038048;stroke-width:1.0;"/><text fill="#000000" font-family="sans-serif" font-size="14" lengthAdjust="spacing" textLength="179" x="662.5" y="483.0762">void deplacementMonstres()</text><ellipse cx="653.5" cy="497.4004" fill="#84BE84" rx="3" ry="3" style="stroke:#038048;stroke-width:1.0;"/><text fill="#000000" font-family="sans-serif" font-size="14" lengthAdjust="spacing" textLength="171" x="662.5" y="501.6973">void addTerrains(Terrain t)</text><ellipse cx="653.5" cy="516.0215" fill="#84BE84" rx="3" ry="3" style="stroke:#038048;stroke-width:1.0;"/><text fill="#000000" font-family="sans-serif" font-size="14" lengthAdjust="spacing" textLength="230" x="662.5" y="520.3184">void addPersonnage(Personnage p)</text><ellipse cx="653.5" cy="534.6426" fill="#84BE84" rx="3" ry="3" style="stroke:#038048;stroke-width:1.0;"/><text fill="#000000" font-family="sans-serif" font-size="14" lengthAdjust="spacing" textLength="114" x="662.5" y="538.9395">void updateData()</text><ellipse cx="653.5" cy="553.2637" fill="#84BE84" rx="3" ry="3" style="stroke:#038048;stroke-width:1.0;"/><text fill="#000000" font-family="sans-serif" font-size="14" lengthAdjust="spacing" textLength="197" x="662.5" y="557.5605">void chargerCarte(String carte)</text><line style="stroke:#181818;stroke-width:1.0;stroke-dasharray:1.0,2.0;" x1="643.5" x2="808" y1="402.7949" y2="402.7949"/><text fill="#000000" font-family="sans-serif" font-size="14" lengthAdjust="spacing" textLength="62" x="808" y="408.0918">M&#233;thodes</text><line style="stroke:#181818;stroke-width:1.0;stroke-dasharray:1.0,2.0;" x1="870" x2="1034.5" y1="402.7949" y2="402.7949"/></g><!--class Donnees--><g id="elem_Donnees"><rect codeLine="86" fill="#F1F1F1" height="159.7266" id="Donnees" rx="2.5" ry="2.5" style="stroke:#181818;stroke-width:0.5;" width="233" x="1749.5" y="340"/><ellipse cx="1833.25" cy="356" fill="#ADD1B2" rx="11" ry="11" style="stroke:#181818;stroke-width:1.0;"/><path d="M1836.0156,351.875 Q1836.1719,351.6563 1836.3594,351.5469 Q1836.5469,351.4375 1836.7656,351.4375 Q1837.1406,351.4375 1837.375,351.7031 Q1837.6094,351.9531 1837.6094,352.5625 L1837.6094,354.0156 Q1837.6094,354.625 1837.375,354.8906 Q1837.1406,355.1563 1836.7656,355.1563 Q1836.4219,355.1563 1836.2188,354.9531 Q1836.0156,354.7656 1835.9063,354.25 Q1835.8594,353.8906 1835.6719,353.7031 Q1835.3438,353.3281 1834.7344,353.1094 Q1834.125,352.8906 1833.5,352.8906 Q1832.7344,352.8906 1832.0938,353.2188 Q1831.4688,353.5469 1830.9688,354.2969 Q1830.4844,355.0469 1830.4844,356.0781 L1830.4844,357.1719 Q1830.4844,358.4063 1831.375,359.2344 Q1832.2656,360.0469 1833.8594,360.0469 Q1834.7969,360.0469 1835.4531,359.7969 Q1835.8438,359.6406 1836.2656,359.2031 Q1836.5313,358.9375 1836.6719,358.8594 Q1836.8281,358.7813 1837.0313,358.7813 Q1837.3594,358.7813 1837.6094,359.0469 Q1837.875,359.2969 1837.875,359.6406 Q1837.875,359.9844 1837.5313,360.3906 Q1837.0313,360.9688 1836.2344,361.2969 Q1835.1563,361.75 1833.8594,361.75 Q1832.3438,361.75 1831.1406,361.125 Q1830.1563,360.625 1829.4688,359.5625 Q1828.7813,358.4844 1828.7813,357.2031 L1828.7813,356.0469 Q1828.7813,354.7188 1829.3906,353.5781 Q1830.0156,352.4219 1831.1094,351.8125 Q1832.2031,351.1875 1833.4375,351.1875 Q1834.1719,351.1875 1834.8125,351.3594 Q1835.4688,351.5156 1836.0156,351.875 Z " fill="#000000"/><text fill="#000000" font-family="sans-serif" font-size="14" lengthAdjust="spacing" textLength="57" x="1853.75" y="361.7969">Donnees</text><line style="stroke:#181818;stroke-width:0.5;" x1="1750.5" x2="1981.5" y1="372" y2="372"/><ellipse cx="1760.5" cy="386.8105" fill="none" rx="3" ry="3" style="stroke:#038048;stroke-width:1.0;"/><text fill="#000000" font-family="sans-serif" font-size="14" lengthAdjust="spacing" text-decoration="underline" textLength="127" x="1769.5" y="391.1074">String GAME_TITLE</text><ellipse cx="1760.5" cy="405.4316" fill="none" rx="3" ry="3" style="stroke:#038048;stroke-width:1.0;"/><text fill="#000000" font-family="sans-serif" font-size="14" lengthAdjust="spacing" text-decoration="underline" textLength="207" x="1769.5" y="409.7285">int WINDOW_DEFAULT_HEIGHT</text><ellipse cx="1760.5" cy="424.0527" fill="none" rx="3" ry="3" style="stroke:#038048;stroke-width:1.0;"/><text fill="#000000" font-family="sans-serif" font-size="14" lengthAdjust="spacing" text-decoration="underline" textLength="201" x="1769.5" y="428.3496">int WINDOW_DEFAULT_WIDTH</text><ellipse cx="1760.5" cy="442.6738" fill="none" rx="3" ry="3" style="stroke:#038048;stroke-width:1.0;"/><text fill="#000000" font-family="sans-serif" font-size="14" lengthAdjust="spacing" text-decoration="underline" textLength="129" x="1769.5" y="446.9707">int WORLD_HEIGHT</text><ellipse cx="1760.5" cy="461.2949" fill="none" rx="3" ry="3" style="stroke:#038048;stroke-width:1.0;"/><text fill="#000000" font-family="sans-serif" font-size="14" lengthAdjust="spacing" text-decoration="underline" textLength="123" x="1769.5" y="465.5918">int WORLD_WIDTH</text><text fill="#000000" font-family="sans-serif" font-size="14" lengthAdjust="spacing" textLength="12" x="1769.5" y="484.2129">...</text><line style="stroke:#181818;stroke-width:0.5;" x1="1750.5" x2="1981.5" y1="491.7266" y2="491.7266"/></g><!--class GestionFichier--><g id="elem_GestionFichier"><rect codeLine="95" fill="#F1F1F1" height="122.4844" id="GestionFichier" rx="2.5" ry="2.5" style="stroke:#181818;stroke-width:0.5;" width="282" x="1725" y="644"/><ellipse cx="1815.75" cy="660" fill="#ADD1B2" rx="11" ry="11" style="stroke:#181818;stroke-width:1.0;"/><path d="M1818.5156,655.875 Q1818.6719,655.6563 1818.8594,655.5469 Q1819.0469,655.4375 1819.2656,655.4375 Q1819.6406,655.4375 1819.875,655.7031 Q1820.1094,655.9531 1820.1094,656.5625 L1820.1094,658.0156 Q1820.1094,658.625 1819.875,658.8906 Q1819.6406,659.1563 1819.2656,659.1563 Q1818.9219,659.1563 1818.7188,658.9531 Q1818.5156,658.7656 1818.4063,658.25 Q1818.3594,657.8906 1818.1719,657.7031 Q1817.8438,657.3281 1817.2344,657.1094 Q1816.625,656.8906 1816,656.8906 Q1815.2344,656.8906 1814.5938,657.2188 Q1813.9688,657.5469 1813.4688,658.2969 Q1812.9844,659.0469 1812.9844,660.0781 L1812.9844,661.1719 Q1812.9844,662.4063 1813.875,663.2344 Q1814.7656,664.0469 1816.3594,664.0469 Q1817.2969,664.0469 1817.9531,663.7969 Q1818.3438,663.6406 1818.7656,663.2031 Q1819.0313,662.9375 1819.1719,662.8594 Q1819.3281,662.7813 1819.5313,662.7813 Q1819.8594,662.7813 1820.1094,663.0469 Q1820.375,663.2969 1820.375,663.6406 Q1820.375,663.9844 1820.0313,664.3906 Q1819.5313,664.9688 1818.7344,665.2969 Q1817.6563,665.75 1816.3594,665.75 Q1814.8438,665.75 1813.6406,665.125 Q1812.6563,664.625 1811.9688,663.5625 Q1811.2813,662.4844 1811.2813,661.2031 L1811.2813,660.0469 Q1811.2813,658.7188 1811.8906,657.5781 Q1812.5156,656.4219 1813.6094,655.8125 Q1814.7031,655.1875 1815.9375,655.1875 Q1816.6719,655.1875 1817.3125,655.3594 Q1817.9688,655.5156 1818.5156,655.875 Z " fill="#000000"/><text fill="#000000" font-family="sans-serif" font-size="14" lengthAdjust="spacing" textLength="92" x="1836.25" y="665.7969">GestionFichier</text><line style="stroke:#181818;stroke-width:0.5;" x1="1726" x2="2006" y1="676" y2="676"/><ellipse cx="1736" cy="713.4316" fill="#84BE84" rx="3" ry="3" style="stroke:#038048;stroke-width:1.0;"/><text fill="#000000" font-family="sans-serif" font-size="14" lengthAdjust="spacing" textLength="102" x="1745" y="717.7285">GestionFichier()</text><line style="stroke:#181818;stroke-width:1.0;stroke-dasharray:1.0,2.0;" x1="1726" x2="1825" y1="693.3105" y2="693.3105"/><text fill="#000000" font-family="sans-serif" font-size="14" lengthAdjust="spacing" textLength="82" x="1825" y="698.6074">Constructeur</text><line style="stroke:#181818;stroke-width:1.0;stroke-dasharray:1.0,2.0;" x1="1907" x2="2006" y1="693.3105" y2="693.3105"/><ellipse cx="1736" cy="754.6738" fill="#84BE84" rx="3" ry="3" style="stroke:#038048;stroke-width:1.0;"/><text fill="#000000" font-family="sans-serif" font-size="14" lengthAdjust="spacing" textLength="256" x="1745" y="758.9707">char[] lireFichierCarte(string nomFichier)</text><line style="stroke:#181818;stroke-width:1.0;stroke-dasharray:1.0,2.0;" x1="1726" x2="1835" y1="734.5527" y2="734.5527"/><text fill="#000000" font-family="sans-serif" font-size="14" lengthAdjust="spacing" textLength="62" x="1835" y="739.8496">M&#233;thodes</text><line style="stroke:#181818;stroke-width:1.0;stroke-dasharray:1.0,2.0;" x1="1897" x2="2006" y1="734.5527" y2="734.5527"/></g><!--class Resources--><g id="elem_Resources"><rect codeLine="102" fill="#F1F1F1" height="137.1055" id="Resources" rx="2.5" ry="2.5" style="stroke:#181818;stroke-width:0.5;" width="271" x="1730.5" y="845"/><ellipse cx="1827.75" cy="861" fill="#ADD1B2" rx="11" ry="11" style="stroke:#181818;stroke-width:1.0;"/><path d="M1830.5156,856.875 Q1830.6719,856.6563 1830.8594,856.5469 Q1831.0469,856.4375 1831.2656,856.4375 Q1831.6406,856.4375 1831.875,856.7031 Q1832.1094,856.9531 1832.1094,857.5625 L1832.1094,859.0156 Q1832.1094,859.625 1831.875,859.8906 Q1831.6406,860.1563 1831.2656,860.1563 Q1830.9219,860.1563 1830.7188,859.9531 Q1830.5156,859.7656 1830.4063,859.25 Q1830.3594,858.8906 1830.1719,858.7031 Q1829.8438,858.3281 1829.2344,858.1094 Q1828.625,857.8906 1828,857.8906 Q1827.2344,857.8906 1826.5938,858.2188 Q1825.9688,858.5469 1825.4688,859.2969 Q1824.9844,860.0469 1824.9844,861.0781 L1824.9844,862.1719 Q1824.9844,863.4063 1825.875,864.2344 Q1826.7656,865.0469 1828.3594,865.0469 Q1829.2969,865.0469 1829.9531,864.7969 Q1830.3438,864.6406 1830.7656,864.2031 Q1831.0313,863.9375 1831.1719,863.8594 Q1831.3281,863.7813 1831.5313,863.7813 Q1831.8594,863.7813 1832.1094,864.0469 Q1832.375,864.2969 1832.375,864.6406 Q1832.375,864.9844 1832.0313,865.3906 Q1831.5313,865.9688 1830.7344,866.2969 Q1829.6563,866.75 1828.3594,866.75 Q1826.8438,866.75 1825.6406,866.125 Q1824.6563,865.625 1823.9688,864.5625 Q1823.2813,863.4844 1823.2813,862.2031 L1823.2813,861.0469 Q1823.2813,859.7188 1823.8906,858.5781 Q1824.5156,857.4219 1825.6094,856.8125 Q1826.7031,856.1875 1827.9375,856.1875 Q1828.6719,856.1875 1829.3125,856.3594 Q1829.9688,856.5156 1830.5156,856.875 Z " fill="#000000"/><text fill="#000000" font-family="sans-serif" font-size="14" lengthAdjust="spacing" textLength="68" x="1848.25" y="866.7969">Resources</text><line style="stroke:#181818;stroke-width:0.5;" x1="1731.5" x2="2000.5" y1="877" y2="877"/><rect fill="none" height="6" style="stroke:#C82930;stroke-width:1.0;" width="6" x="1738.5" y="888.8105"/><text fill="#000000" font-family="sans-serif" font-size="14" lengthAdjust="spacing" text-decoration="underline" textLength="171" x="1750.5" y="896.1074">Map&lt;String, Image&gt; assets</text><ellipse cx="1741.5" cy="933.0527" fill="#84BE84" rx="3" ry="3" style="stroke:#038048;stroke-width:1.0;"/><text fill="#000000" font-family="sans-serif" font-size="14" lengthAdjust="spacing" text-decoration="underline" textLength="130" x="1750.5" y="937.3496">URL get(String path)</text><ellipse cx="1741.5" cy="951.6738" fill="#84BE84" rx="3" ry="3" style="stroke:#038048;stroke-width:1.0;"/><text fill="#000000" font-family="sans-serif" font-size="14" lengthAdjust="spacing" text-decoration="underline" textLength="245" x="1750.5" y="955.9707">InputStream getAsStream(String path)}</text><ellipse cx="1741.5" cy="970.2949" fill="#84BE84" rx="3" ry="3" style="stroke:#038048;stroke-width:1.0;"/><text fill="#000000" font-family="sans-serif" font-size="14" lengthAdjust="spacing" text-decoration="underline" textLength="176" x="1750.5" y="974.5918">Image getAsset(String path)</text><line style="stroke:#181818;stroke-width:1.0;stroke-dasharray:1.0,2.0;" x1="1731.5" x2="1835" y1="912.9316" y2="912.9316"/><text fill="#000000" font-family="sans-serif" font-size="14" lengthAdjust="spacing" textLength="62" x="1835" y="918.2285">M&#233;thodes</text><line style="stroke:#181818;stroke-width:1.0;stroke-dasharray:1.0,2.0;" x1="1897" x2="2000.5" y1="912.9316" y2="912.9316"/></g><!--class Sprite--><g id="elem_Sprite"><rect codeLine="112" fill="#F1F1F1" height="48" id="Sprite" rx="2.5" ry="2.5" style="stroke:#181818;stroke-width:0.5;" width="69" x="81.5" y="681"/><ellipse cx="96.5" cy="697" fill="#ADD1B2" rx="11" ry="11" style="stroke:#181818;stroke-width:1.0;"/><path d="M99.2656,692.875 Q99.4219,692.6563 99.6094,692.5469 Q99.7969,692.4375 100.0156,692.4375 Q100.3906,692.4375 100.625,692.7031 Q100.8594,692.9531 100.8594,693.5625 L100.8594,695.0156 Q100.8594,695.625 100.625,695.8906 Q100.3906,696.1563 100.0156,696.1563 Q99.6719,696.1563 99.4688,695.9531 Q99.2656,695.7656 99.1563,695.25 Q99.1094,694.8906 98.9219,694.7031 Q98.5938,694.3281 97.9844,694.1094 Q97.375,693.8906 96.75,693.8906 Q95.9844,693.8906 95.3438,694.2188 Q94.7188,694.5469 94.2188,695.2969 Q93.7344,696.0469 93.7344,697.0781 L93.7344,698.1719 Q93.7344,699.4063 94.625,700.2344 Q95.5156,701.0469 97.1094,701.0469 Q98.0469,701.0469 98.7031,700.7969 Q99.0938,700.6406 99.5156,700.2031 Q99.7813,699.9375 99.9219,699.8594 Q100.0781,699.7813 100.2813,699.7813 Q100.6094,699.7813 100.8594,700.0469 Q101.125,700.2969 101.125,700.6406 Q101.125,700.9844 100.7813,701.3906 Q100.2813,701.9688 99.4844,702.2969 Q98.4063,702.75 97.1094,702.75 Q95.5938,702.75 94.3906,702.125 Q93.4063,701.625 92.7188,700.5625 Q92.0313,699.4844 92.0313,698.2031 L92.0313,697.0469 Q92.0313,695.7188 92.6406,694.5781 Q93.2656,693.4219 94.3594,692.8125 Q95.4531,692.1875 96.6875,692.1875 Q97.4219,692.1875 98.0625,692.3594 Q98.7188,692.5156 99.2656,692.875 Z " fill="#000000"/><text fill="#000000" font-family="sans-serif" font-size="14" lengthAdjust="spacing" textLength="37" x="110.5" y="702.7969">Sprite</text><line style="stroke:#181818;stroke-width:0.5;" x1="82.5" x2="149.5" y1="713" y2="713"/><line style="stroke:#181818;stroke-width:0.5;" x1="82.5" x2="149.5" y1="721" y2="721"/></g><!--class Application--><g id="elem_Application"><rect codeLine="116" fill="#F1F1F1" height="48" id="Application" rx="2.5" ry="2.5" style="stroke:#181818;stroke-width:0.5;" width="101" x="380.5" y="7"/><ellipse cx="395.5" cy="23" fill="#ADD1B2" rx="11" ry="11" style="stroke:#181818;stroke-width:1.0;"/><path d="M398.2656,18.875 Q398.4219,18.6563 398.6094,18.5469 Q398.7969,18.4375 399.0156,18.4375 Q399.3906,18.4375 399.625,18.7031 Q399.8594,18.9531 399.8594,19.5625 L399.8594,21.0156 Q399.8594,21.625 399.625,21.8906 Q399.3906,22.1563 399.0156,22.1563 Q398.6719,22.1563 398.4688,21.9531 Q398.2656,21.7656 398.1563,21.25 Q398.1094,20.8906 397.9219,20.7031 Q397.5938,20.3281 396.9844,20.1094 Q396.375,19.8906 395.75,19.8906 Q394.9844,19.8906 394.3438,20.2188 Q393.7188,20.5469 393.2188,21.2969 Q392.7344,22.0469 392.7344,23.0781 L392.7344,24.1719 Q392.7344,25.4063 393.625,26.2344 Q394.5156,27.0469 396.1094,27.0469 Q397.0469,27.0469 397.7031,26.7969 Q398.0938,26.6406 398.5156,26.2031 Q398.7813,25.9375 398.9219,25.8594 Q399.0781,25.7813 399.2813,25.7813 Q399.6094,25.7813 399.8594,26.0469 Q400.125,26.2969 400.125,26.6406 Q400.125,26.9844 399.7813,27.3906 Q399.2813,27.9688 398.4844,28.2969 Q397.4063,28.75 396.1094,28.75 Q394.5938,28.75 393.3906,28.125 Q392.4063,27.625 391.7188,26.5625 Q391.0313,25.4844 391.0313,24.2031 L391.0313,23.0469 Q391.0313,21.7188 391.6406,20.5781 Q392.2656,19.4219 393.3594,18.8125 Q394.4531,18.1875 395.6875,18.1875 Q396.4219,18.1875 397.0625,18.3594 Q397.7188,18.5156 398.2656,18.875 Z " fill="#000000"/><text fill="#000000" font-family="sans-serif" font-size="14" lengthAdjust="spacing" textLength="69" x="409.5" y="28.7969">Application</text><line style="stroke:#181818;stroke-width:0.5;" x1="381.5" x2="480.5" y1="39" y2="39"/><line style="stroke:#181818;stroke-width:0.5;" x1="381.5" x2="480.5" y1="47" y2="47"/></g><!--link Escape to gui--><!--reverse link GestionFichier to Resources--><!--reverse link Donnees to GestionFichier--><!--link TypeMouvement to ElementMonde--><!--link Escape to Monde--><g id="link_Escape_Monde"><path codeLine="126" d="M515.37,215.17 C523.71,220.14 532.04,225.15 540,230 C573.17,250.21 608.2,271.98 642.15,293.29 " fill="none" id="Escape-Monde" style="stroke:#181818;stroke-width:1.0;"/><text fill="#000000" font-family="sans-serif" font-size="13" lengthAdjust="spacing" textLength="7" x="627.3238" y="285.0409">1</text></g><!--reverse link ElementMonde to Personnage--><g id="link_ElementMonde_Personnage"><path codeLine="127" d="M535.9121,495.8394 C565.4921,522.9394 588.8,541.58 625,565 C658.62,586.75 696.19,606.96 733.06,624.87 " fill="none" id="ElementMonde-backto-Personnage" style="stroke:#181818;stroke-width:1.0;"/><polygon fill="none" points="522.64,483.68,531.859,500.2634,539.9653,491.4153,522.64,483.68" style="stroke:#181818;stroke-width:1.0;"/></g><!--reverse link Personnage to Heros--><g id="link_Personnage_Heros"><path codeLine="128" d="M1132.3875,791.9939 C1186.3175,814.3539 1227.48,831.42 1278.22,852.47 " fill="none" id="Personnage-backto-Heros" style="stroke:#181818;stroke-width:1.0;"/><polygon fill="none" points="1115.76,785.1,1130.0895,797.5364,1134.6855,786.4515,1115.76,785.1" style="stroke:#181818;stroke-width:1.0;"/></g><!--reverse link Personnage to Monstre--><g id="link_Personnage_Monstre"><path codeLine="129" d="M908.561,802.9967 C903.471,833.0167 900.9,848.17 896.7,872.99 " fill="none" id="Personnage-backto-Monstre" style="stroke:#181818;stroke-width:1.0;"/><polygon fill="none" points="911.57,785.25,902.6454,801.9937,914.4766,803.9997,911.57,785.25" style="stroke:#181818;stroke-width:1.0;"/></g><!--reverse link Monstre to Walker--><g id="link_Monstre_Walker"><path codeLine="130" d="M890,972.08 C890,998.6 890,1015.39 890,1041.92 " fill="none" id="Monstre-backto-Walker" style="stroke:#181818;stroke-width:1.0;"/><polygon fill="none" points="890,954.08,884,972.08,896,972.08,890,954.08" style="stroke:#181818;stroke-width:1.0;"/></g><!--reverse link ElementMonde to Terrain--><g id="link_ElementMonde_Terrain"><path codeLine="132" d="M446.15,524.9238 C441.1,565.7438 437.36,596.01 432.6,634.47 " fill="none" id="ElementMonde-backto-Terrain" style="stroke:#181818;stroke-width:1.0;"/><polygon fill="none" points="448.36,507.06,440.1954,524.1871,452.1046,525.6605,448.36,507.06" style="stroke:#181818;stroke-width:1.0;"/></g><!--reverse link Terrain to Mur--><g id="link_Terrain_Mur"><path codeLine="133" d="M419.3315,793.5945 C418.0015,818.5345 417.48,828.44 416.2,852.5 " fill="none" id="Terrain-backto-Mur" style="stroke:#181818;stroke-width:1.0;"/><polygon fill="none" points="420.29,775.62,413.34,793.2749,425.3229,793.914,420.29,775.62" style="stroke:#181818;stroke-width:1.0;"/></g><!--reverse link Application to Escape--><g id="link_Application_Escape"><path codeLine="134" d="M431,73.3 C431,89.8 431,94.55 431,114.97 " fill="none" id="Application-backto-Escape" style="stroke:#181818;stroke-width:1.0;"/><polygon fill="none" points="431,55.3,425,73.3,437,73.3,431,55.3" style="stroke:#181818;stroke-width:1.0;"/></g><!--link Monde to Personnage--><g id="link_Monde_Personnage"><path codeLine="137" d="M882.88,565.4 C889.09,585.84 895.28,606.2 900.92,624.77 " fill="none" id="Monde-Personnage" style="stroke:#181818;stroke-width:1.0;"/><text fill="#000000" font-family="sans-serif" font-size="13" lengthAdjust="spacing" textLength="5" x="893.4697" y="613.6445">*</text></g><!--link Monde to Terrain--><g id="link_Monde_Terrain"><path codeLine="138" d="M642.44,555.04 C602.21,582.47 561.44,610.28 526.18,634.32 " fill="none" id="Monde-Terrain" style="stroke:#181818;stroke-width:1.0;"/><text fill="#000000" font-family="sans-serif" font-size="13" lengthAdjust="spacing" textLength="5" x="531.4595" y="623.1925">*</text></g><!--link Monde to GestionFichier--><g id="link_Monde_GestionFichier"><path codeLine="140" d="M1035.82,455.51 C1209.36,488.7 1467.7,544.9 1685,620 C1704.81,626.85 1725.36,635.15 1745.21,643.84 " fill="none" id="Monde-GestionFichier" style="stroke:#181818;stroke-width:1.0;"/><text fill="#000000" font-family="sans-serif" font-size="13" lengthAdjust="spacing" textLength="7" x="1723.839" y="632.8027">1</text></g><!--link ElementMonde to Sprite--><g id="link_ElementMonde_Sprite"><path codeLine="142" d="M424.14,507.27 C412.16,528.52 396.88,549.58 378,565 C316.16,615.5 275.95,579.76 207,620 C179.33,636.15 153.04,661.95 135.9,680.71 " fill="none" id="ElementMonde-Sprite" style="stroke:#181818;stroke-width:1.0;"/><text fill="#000000" font-family="sans-serif" font-size="13" lengthAdjust="spacing" textLength="5" x="135.1413" y="669.7812">*</text></g><!--SRC=[lLRDRk8m4BxdAQpkOSaM8dNFgqgeq884fM9JSQYgoYIpO3N4aUsWhReyK9-ZBxPsxFpOXC9XknmW6NypyysloN3qZ5U0XZp26Q1NpqCeCx8fJMCbGlA3brmm70aK9PXpD4nW0wbe8X3wWcAQBnD0lrt1YojOurn0pbnnWjcg5WV15KsbspnIs20mudDDhEDxXM3NnYy4nZ19Ase7JHbWfsJUhIXt7QvTXwHVcPw-luarZO4tx2ufJG2d2BW86Tu2urZgrfoB7yrrchFZF2Ne_t4q5DiIUoTHD4rLU-oLVKi4S0x7GgbDV1IHYU1WXCRPnn5kAObH_FwM9JW2rWbVCfZIV5lqBXBDDxyjA_Vf21ZbTKRK3wJv1bcMoaGWD1_VZCBgRJAyhb_2sLtrF9WjRlVxeF1rl1CqfS_EtB4iE6qnBRZ22NsiWV-ClvN11KwUuOHXqhZFuU2kH28xBLrEo2e5HtP5arCNtIcLYcYI44vesh6MCrnqxMqDttsxbz0AHBF2zU10CJTALP-VD3-kggduddKSnsRvIiDcNOjzJ6DRD7PFvW3pBCO21bXWrqsqLgLaLvW9wFmKZAGh5AaNlxezYlgPUwsy1as-9IcJwdFqoWKM9DffknjrQsXx3uz8-k2-rt0hiKp8SqMMgs-_T5JUhhDSaAIST-rz8AC3g7U0vTLml-bFXq_XE9mCsq2ginRZMxbWdWR3w_xz97mQ3Qsbz35uCHw4euFOsNmoE6QlmDXc0fD2Qqvkv6QHpNfDeZLfpEp1OL2UR9sgqksJeHHKyMLr4iB0AEa-u3gNATqOSSiWpu7Jd4LMENfri5ES_T0bwQBnHXRq4aaj4FmegSh4_NoYPg_ioWoBjT-66wTPBYG8y4RX-rm_MtgxLaN5IwlmDZyxjoTNER4QycV6vA8hK1AdPVqiIqY4LI7aNuIlw1ULIP8ByuNcmjFp4vWnwZsiIHn3-jYxD9CLI0zUdTaAa6SIOfVNSph4nffHyUoLL64OMQs5yjhOV9AjGw-7pYxEIcO5HdzxZKtJa-x-E8RqsZGdDTOhRy7z4tCpcGE3yxnoxxKvKNyBZTp0NFhwqAx7VZ15cD_EccmEWqfFXo0oNKwLFEjowVMKbRhMWUcWlm00]--></g></svg>