<?xml version="1.0" encoding="us-ascii" standalone="no"?><svg xmlns="http://www.w3.org/2000/svg" xmlns:xlink="http://www.w3.org/1999/xlink" contentStyleType="text/css" height="1410px" preserveAspectRatio="none" style="width:2581px;height:1410px;background:#FFFFFF;" version="1.1" viewBox="0 0 2581 1410" width="2581px" zoomAndPan="magnify"><defs/><g><!--cluster Escape--><g id="cluster_Escape"><path d="M8.5,67 L60.5,67 A3.75,3.75 0 0 1 63,69.5 L70,91.6211 L2480.5,91.6211 A2.5,2.5 0 0 1 2483,94.1211 L2483,1400.5 A2.5,2.5 0 0 1 2480.5,1403 L8.5,1403 A2.5,2.5 0 0 1 6,1400.5 L6,69.5 A2.5,2.5 0 0 1 8.5,67 " fill="none" style="stroke:#000000;stroke-width:1.5;"/><line style="stroke:#000000;stroke-width:1.5;" x1="6" x2="70" y1="91.6211" y2="91.6211"/><text fill="#000000" font-family="sans-serif" font-size="14" font-weight="bold" lengthAdjust="spacing" textLength="51" x="10" y="84.1074">Escape</text></g><!--cluster Monde--><g id="cluster_Monde"><path d="M904.5,338 L954.5,338 A3.75,3.75 0 0 1 957,340.5 L964,362.6211 L2279.5,362.6211 A2.5,2.5 0 0 1 2282,365.1211 L2282,1376.5 A2.5,2.5 0 0 1 2279.5,1379 L904.5,1379 A2.5,2.5 0 0 1 902,1376.5 L902,340.5 A2.5,2.5 0 0 1 904.5,338 " fill="none" style="stroke:#000000;stroke-width:1.5;"/><line style="stroke:#000000;stroke-width:1.5;" x1="902" x2="964" y1="362.6211" y2="362.6211"/><text fill="#000000" font-family="sans-serif" font-size="14" font-weight="bold" lengthAdjust="spacing" textLength="49" x="906" y="355.1074">Monde</text></g><!--cluster Outils--><g id="cluster_Outils"><path d="M528.5,412.5 L570.5,412.5 A3.75,3.75 0 0 1 573,415 L580,437.1211 L875.5,437.1211 A2.5,2.5 0 0 1 878,439.6211 L878,1235.5 A2.5,2.5 0 0 1 875.5,1238 L528.5,1238 A2.5,2.5 0 0 1 526,1235.5 L526,415 A2.5,2.5 0 0 1 528.5,412.5 " fill="none" style="stroke:#000000;stroke-width:1.5;"/><line style="stroke:#000000;stroke-width:1.5;" x1="526" x2="580" y1="437.1211" y2="437.1211"/><text fill="#000000" font-family="sans-serif" font-size="14" font-weight="bold" lengthAdjust="spacing" textLength="41" x="530" y="429.6074">Outils</text></g><!--cluster gui--><g id="cluster_gui"><path d="M2316.5,801 L2339.5,801 A3.75,3.75 0 0 1 2342,803.5 L2349,825.6211 L2448.5,825.6211 A2.5,2.5 0 0 1 2451,828.1211 L2451,915.5 A2.5,2.5 0 0 1 2448.5,918 L2316.5,918 A2.5,2.5 0 0 1 2314,915.5 L2314,803.5 A2.5,2.5 0 0 1 2316.5,801 " fill="none" style="stroke:#000000;stroke-width:1.5;"/><line style="stroke:#000000;stroke-width:1.5;" x1="2314" x2="2349" y1="825.6211" y2="825.6211"/><text fill="#000000" font-family="sans-serif" font-size="14" font-weight="bold" lengthAdjust="spacing" textLength="22" x="2318" y="818.1074">gui</text></g><!--cluster engine--><g id="cluster_engine"><path d="M2200.5,120 L2250.5,120 A3.75,3.75 0 0 1 2253,122.5 L2260,144.6211 L2394.5,144.6211 A2.5,2.5 0 0 1 2397,147.1211 L2397,234.5 A2.5,2.5 0 0 1 2394.5,237 L2200.5,237 A2.5,2.5 0 0 1 2198,234.5 L2198,122.5 A2.5,2.5 0 0 1 2200.5,120 " fill="none" style="stroke:#000000;stroke-width:1.5;"/><line style="stroke:#000000;stroke-width:1.5;" x1="2198" x2="2260" y1="144.6211" y2="144.6211"/><text fill="#000000" font-family="sans-serif" font-size="14" font-weight="bold" lengthAdjust="spacing" textLength="49" x="2202" y="137.1074">engine</text></g><!--class Settings--><g id="elem_Settings"><rect codeLine="117" fill="#F1F1F1" height="122.4844" id="Settings" rx="2.5" ry="2.5" style="stroke:#181818;stroke-width:0.5;" width="215" x="158.5" y="128"/><ellipse cx="236.25" cy="144" fill="#ADD1B2" rx="11" ry="11" style="stroke:#181818;stroke-width:1.0;"/><path d="M239.0156,139.875 Q239.1719,139.6563 239.3594,139.5469 Q239.5469,139.4375 239.7656,139.4375 Q240.1406,139.4375 240.375,139.7031 Q240.6094,139.9531 240.6094,140.5625 L240.6094,142.0156 Q240.6094,142.625 240.375,142.8906 Q240.1406,143.1563 239.7656,143.1563 Q239.4219,143.1563 239.2188,142.9531 Q239.0156,142.7656 238.9063,142.25 Q238.8594,141.8906 238.6719,141.7031 Q238.3438,141.3281 237.7344,141.1094 Q237.125,140.8906 236.5,140.8906 Q235.7344,140.8906 235.0938,141.2188 Q234.4688,141.5469 233.9688,142.2969 Q233.4844,143.0469 233.4844,144.0781 L233.4844,145.1719 Q233.4844,146.4063 234.375,147.2344 Q235.2656,148.0469 236.8594,148.0469 Q237.7969,148.0469 238.4531,147.7969 Q238.8438,147.6406 239.2656,147.2031 Q239.5313,146.9375 239.6719,146.8594 Q239.8281,146.7813 240.0313,146.7813 Q240.3594,146.7813 240.6094,147.0469 Q240.875,147.2969 240.875,147.6406 Q240.875,147.9844 240.5313,148.3906 Q240.0313,148.9688 239.2344,149.2969 Q238.1563,149.75 236.8594,149.75 Q235.3438,149.75 234.1406,149.125 Q233.1563,148.625 232.4688,147.5625 Q231.7813,146.4844 231.7813,145.2031 L231.7813,144.0469 Q231.7813,142.7188 232.3906,141.5781 Q233.0156,140.4219 234.1094,139.8125 Q235.2031,139.1875 236.4375,139.1875 Q237.1719,139.1875 237.8125,139.3594 Q238.4688,139.5156 239.0156,139.875 Z " fill="#000000"/><text fill="#000000" font-family="sans-serif" font-size="14" lengthAdjust="spacing" textLength="51" x="256.75" y="149.7969">Settings</text><line style="stroke:#181818;stroke-width:0.5;" x1="159.5" x2="372.5" y1="160" y2="160"/><rect fill="none" height="6" style="stroke:#C82930;stroke-width:1.0;" width="6" x="166.5" y="171.8105"/><text fill="#000000" font-family="sans-serif" font-size="14" lengthAdjust="spacing" text-decoration="underline" textLength="180" x="178.5" y="179.1074">PropertyChangeSupport pcs</text><ellipse cx="169.5" cy="193.4316" fill="none" rx="3" ry="3" style="stroke:#038048;stroke-width:1.0;"/><text fill="#000000" font-family="sans-serif" font-size="14" lengthAdjust="spacing" text-decoration="underline" textLength="189" x="178.5" y="197.7285">Property&lt;Boolean&gt; fullScreen</text><ellipse cx="169.5" cy="212.0527" fill="none" rx="3" ry="3" style="stroke:#038048;stroke-width:1.0;"/><text fill="#000000" font-family="sans-serif" font-size="14" lengthAdjust="spacing" text-decoration="underline" textLength="182" x="178.5" y="216.3496">Property&lt;Boolean&gt; showFps</text><ellipse cx="169.5" cy="230.6738" fill="none" rx="3" ry="3" style="stroke:#038048;stroke-width:1.0;"/><text fill="#000000" font-family="sans-serif" font-size="14" lengthAdjust="spacing" text-decoration="underline" textLength="153" x="178.5" y="234.9707">Property&lt;Locale&gt; locale</text><line style="stroke:#181818;stroke-width:0.5;" x1="159.5" x2="372.5" y1="242.4844" y2="242.4844"/></g><!--class Property--><g id="elem_Property"><rect codeLine="124" fill="#F1F1F1" height="420.4219" id="Property" rx="2.5" ry="2.5" style="stroke:#181818;stroke-width:0.5;" width="487" x="22.5" y="310"/><ellipse cx="218.25" cy="326" fill="#ADD1B2" rx="11" ry="11" style="stroke:#181818;stroke-width:1.0;"/><path d="M221.0156,321.875 Q221.1719,321.6563 221.3594,321.5469 Q221.5469,321.4375 221.7656,321.4375 Q222.1406,321.4375 222.375,321.7031 Q222.6094,321.9531 222.6094,322.5625 L222.6094,324.0156 Q222.6094,324.625 222.375,324.8906 Q222.1406,325.1563 221.7656,325.1563 Q221.4219,325.1563 221.2188,324.9531 Q221.0156,324.7656 220.9063,324.25 Q220.8594,323.8906 220.6719,323.7031 Q220.3438,323.3281 219.7344,323.1094 Q219.125,322.8906 218.5,322.8906 Q217.7344,322.8906 217.0938,323.2188 Q216.4688,323.5469 215.9688,324.2969 Q215.4844,325.0469 215.4844,326.0781 L215.4844,327.1719 Q215.4844,328.4063 216.375,329.2344 Q217.2656,330.0469 218.8594,330.0469 Q219.7969,330.0469 220.4531,329.7969 Q220.8438,329.6406 221.2656,329.2031 Q221.5313,328.9375 221.6719,328.8594 Q221.8281,328.7813 222.0313,328.7813 Q222.3594,328.7813 222.6094,329.0469 Q222.875,329.2969 222.875,329.6406 Q222.875,329.9844 222.5313,330.3906 Q222.0313,330.9688 221.2344,331.2969 Q220.1563,331.75 218.8594,331.75 Q217.3438,331.75 216.1406,331.125 Q215.1563,330.625 214.4688,329.5625 Q213.7813,328.4844 213.7813,327.2031 L213.7813,326.0469 Q213.7813,324.7188 214.3906,323.5781 Q215.0156,322.4219 216.1094,321.8125 Q217.2031,321.1875 218.4375,321.1875 Q219.1719,321.1875 219.8125,321.3594 Q220.4688,321.5156 221.0156,321.875 Z " fill="#000000"/><text fill="#000000" font-family="sans-serif" font-size="14" lengthAdjust="spacing" textLength="83" x="238.75" y="331.7969">Property &lt;T&gt;</text><line style="stroke:#181818;stroke-width:0.5;" x1="23.5" x2="508.5" y1="342" y2="342"/><rect fill="none" height="6" style="stroke:#C82930;stroke-width:1.0;" width="6" x="30.5" y="353.8105"/><text fill="#000000" font-family="sans-serif" font-size="14" lengthAdjust="spacing" textLength="47" x="42.5" y="361.1074">T value</text><rect fill="none" height="6" style="stroke:#C82930;stroke-width:1.0;" width="6" x="30.5" y="372.4316"/><text fill="#000000" font-family="sans-serif" font-size="14" lengthAdjust="spacing" textLength="76" x="42.5" y="379.7285">String name</text><rect fill="none" height="6" style="stroke:#C82930;stroke-width:1.0;" width="6" x="30.5" y="391.0527"/><text fill="#000000" font-family="sans-serif" font-size="14" lengthAdjust="spacing" textLength="461" x="42.5" y="398.3496">Map&lt;MyPropertyChangeListener&lt;T&gt;, PropertyChangeListener&gt; listeners</text><rect fill="none" height="6" style="stroke:#C82930;stroke-width:1.0;" width="6" x="30.5" y="409.6738"/><text fill="#000000" font-family="sans-serif" font-size="14" lengthAdjust="spacing" textLength="180" x="42.5" y="416.9707">PropertyChangeSupport pcs</text><rect fill="none" height="6" style="stroke:#C82930;stroke-width:1.0;" width="6" x="30.5" y="428.2949"/><text fill="#000000" font-family="sans-serif" font-size="14" lengthAdjust="spacing" textLength="74" x="42.5" y="435.5918">boolean log</text><ellipse cx="33.5" cy="472.5371" fill="#84BE84" rx="3" ry="3" style="stroke:#038048;stroke-width:1.0;"/><text fill="#000000" font-family="sans-serif" font-size="14" lengthAdjust="spacing" textLength="424" x="42.5" y="476.834">Property(PropertyChangeSupport, String, T, Getter&lt;T&gt;, Setter&lt;T&gt;)</text><ellipse cx="33.5" cy="491.1582" fill="#84BE84" rx="3" ry="3" style="stroke:#038048;stroke-width:1.0;"/><text fill="#000000" font-family="sans-serif" font-size="14" lengthAdjust="spacing" textLength="217" x="42.5" y="495.4551">Property(T, Getter&lt;T&gt;, Setter&lt;T&gt;)</text><ellipse cx="33.5" cy="509.7793" fill="#84BE84" rx="3" ry="3" style="stroke:#038048;stroke-width:1.0;"/><text fill="#000000" font-family="sans-serif" font-size="14" lengthAdjust="spacing" textLength="280" x="42.5" y="514.0762">Property(PropertyChangeSupport, String, T)</text><ellipse cx="33.5" cy="528.4004" fill="#84BE84" rx="3" ry="3" style="stroke:#038048;stroke-width:1.0;"/><text fill="#000000" font-family="sans-serif" font-size="14" lengthAdjust="spacing" textLength="73" x="42.5" y="532.6973">Property(T)</text><line style="stroke:#181818;stroke-width:1.0;stroke-dasharray:1.0,2.0;" x1="23.5" x2="225" y1="452.416" y2="452.416"/><text fill="#000000" font-family="sans-serif" font-size="14" lengthAdjust="spacing" textLength="82" x="225" y="457.7129">Constructeur</text><line style="stroke:#181818;stroke-width:1.0;stroke-dasharray:1.0,2.0;" x1="307" x2="508.5" y1="452.416" y2="452.416"/><ellipse cx="33.5" cy="569.6426" fill="#84BE84" rx="3" ry="3" style="stroke:#038048;stroke-width:1.0;"/><text fill="#000000" font-family="sans-serif" font-size="14" lengthAdjust="spacing" textLength="43" x="42.5" y="573.9395">T get()</text><ellipse cx="33.5" cy="588.2637" fill="#84BE84" rx="3" ry="3" style="stroke:#038048;stroke-width:1.0;"/><text fill="#000000" font-family="sans-serif" font-size="14" lengthAdjust="spacing" textLength="68" x="42.5" y="592.5605">void set(T)</text><ellipse cx="33.5" cy="606.8848" fill="#84BE84" rx="3" ry="3" style="stroke:#038048;stroke-width:1.0;"/><text fill="#000000" font-family="sans-serif" font-size="14" lengthAdjust="spacing" textLength="299" x="42.5" y="611.1816">void subscribe(MyPropertyChangeListener&lt;T&gt;)</text><ellipse cx="33.5" cy="625.5059" fill="#84BE84" rx="3" ry="3" style="stroke:#038048;stroke-width:1.0;"/><text fill="#000000" font-family="sans-serif" font-size="14" lengthAdjust="spacing" textLength="315" x="42.5" y="629.8027">void unsubscribe(MyPropertyChangeListener&lt;T&gt;)</text><ellipse cx="33.5" cy="644.127" fill="#84BE84" rx="3" ry="3" style="stroke:#038048;stroke-width:1.0;"/><text fill="#000000" font-family="sans-serif" font-size="14" lengthAdjust="spacing" textLength="132" x="42.5" y="648.4238">void unsubscribeAll()</text><ellipse cx="33.5" cy="662.748" fill="#84BE84" rx="3" ry="3" style="stroke:#038048;stroke-width:1.0;"/><text fill="#000000" font-family="sans-serif" font-size="14" lengthAdjust="spacing" textLength="97" x="42.5" y="667.0449">void forceFire()</text><ellipse cx="33.5" cy="681.3691" fill="#84BE84" rx="3" ry="3" style="stroke:#038048;stroke-width:1.0;"/><text fill="#000000" font-family="sans-serif" font-size="14" lengthAdjust="spacing" textLength="187" x="42.5" y="685.666">Property&lt;T&gt; setLog(boolean)</text><rect fill="#F24D5C" height="6" style="stroke:#C82930;stroke-width:1.0;" width="6" x="30.5" y="696.9902"/><text fill="#000000" font-family="sans-serif" font-size="14" lengthAdjust="spacing" textLength="69" x="42.5" y="704.2871">void fire(T)</text><rect fill="#F24D5C" height="6" style="stroke:#C82930;stroke-width:1.0;" width="6" x="30.5" y="715.6113"/><text fill="#000000" font-family="sans-serif" font-size="14" lengthAdjust="spacing" textLength="96" x="42.5" y="722.9082">void log(String)</text><line style="stroke:#181818;stroke-width:1.0;stroke-dasharray:1.0,2.0;" x1="23.5" x2="235" y1="549.5215" y2="549.5215"/><text fill="#000000" font-family="sans-serif" font-size="14" lengthAdjust="spacing" textLength="62" x="235" y="554.8184">M&#233;thodes</text><line style="stroke:#181818;stroke-width:1.0;stroke-dasharray:1.0,2.0;" x1="297" x2="508.5" y1="549.5215" y2="549.5215"/></g><!--class Getter--><g id="elem_Getter"><rect codeLine="147" fill="#F1F1F1" height="66.6211" id="Getter" rx="2.5" ry="2.5" style="stroke:#181818;stroke-width:0.5;" width="105" x="282.5" y="836.5"/><ellipse cx="297.5" cy="852.5" fill="#B4A7E5" rx="11" ry="11" style="stroke:#181818;stroke-width:1.0;"/><path d="M298.4531,849.1406 L298.4531,855.7969 L300.1719,855.7969 Q300.7813,855.7969 301.0469,856.0313 Q301.3125,856.2656 301.3125,856.6563 Q301.3125,857.0313 301.0469,857.2656 Q300.7813,857.5 300.1719,857.5 L295.0313,857.5 Q294.4219,857.5 294.1563,857.2656 Q293.8906,857.0313 293.8906,856.6406 Q293.8906,856.2656 294.1563,856.0313 Q294.4219,855.7969 295.0313,855.7969 L296.75,855.7969 L296.75,849.1406 L295.0313,849.1406 Q294.4219,849.1406 294.1563,848.9063 Q293.8906,848.6719 293.8906,848.2813 Q293.8906,847.9063 294.1563,847.6719 Q294.4219,847.4375 295.0313,847.4375 L300.1719,847.4375 Q300.7813,847.4375 301.0469,847.6719 Q301.3125,847.9063 301.3125,848.2813 Q301.3125,848.6719 301.0469,848.9063 Q300.7813,849.1406 300.1719,849.1406 L298.4531,849.1406 Z " fill="#000000"/><text fill="#000000" font-family="sans-serif" font-size="14" font-style="italic" lengthAdjust="spacing" textLength="69" x="311.5" y="858.2969">Getter &lt;T&gt;</text><line style="stroke:#181818;stroke-width:0.5;" x1="283.5" x2="386.5" y1="868.5" y2="868.5"/><line style="stroke:#181818;stroke-width:0.5;" x1="283.5" x2="386.5" y1="876.5" y2="876.5"/><text fill="#000000" font-family="sans-serif" font-size="14" lengthAdjust="spacing" textLength="52" x="288.5" y="895.6074">T get(T)</text></g><!--class Setter--><g id="elem_Setter"><rect codeLine="151" fill="#F1F1F1" height="66.6211" id="Setter" rx="2.5" ry="2.5" style="stroke:#181818;stroke-width:0.5;" width="103" x="144.5" y="836.5"/><ellipse cx="159.5" cy="852.5" fill="#B4A7E5" rx="11" ry="11" style="stroke:#181818;stroke-width:1.0;"/><path d="M160.4531,849.1406 L160.4531,855.7969 L162.1719,855.7969 Q162.7813,855.7969 163.0469,856.0313 Q163.3125,856.2656 163.3125,856.6563 Q163.3125,857.0313 163.0469,857.2656 Q162.7813,857.5 162.1719,857.5 L157.0313,857.5 Q156.4219,857.5 156.1563,857.2656 Q155.8906,857.0313 155.8906,856.6406 Q155.8906,856.2656 156.1563,856.0313 Q156.4219,855.7969 157.0313,855.7969 L158.75,855.7969 L158.75,849.1406 L157.0313,849.1406 Q156.4219,849.1406 156.1563,848.9063 Q155.8906,848.6719 155.8906,848.2813 Q155.8906,847.9063 156.1563,847.6719 Q156.4219,847.4375 157.0313,847.4375 L162.1719,847.4375 Q162.7813,847.4375 163.0469,847.6719 Q163.3125,847.9063 163.3125,848.2813 Q163.3125,848.6719 163.0469,848.9063 Q162.7813,849.1406 162.1719,849.1406 L160.4531,849.1406 Z " fill="#000000"/><text fill="#000000" font-family="sans-serif" font-size="14" font-style="italic" lengthAdjust="spacing" textLength="67" x="173.5" y="858.2969">Setter &lt;T&gt;</text><line style="stroke:#181818;stroke-width:0.5;" x1="145.5" x2="246.5" y1="868.5" y2="868.5"/><line style="stroke:#181818;stroke-width:0.5;" x1="145.5" x2="246.5" y1="876.5" y2="876.5"/><text fill="#000000" font-family="sans-serif" font-size="14" lengthAdjust="spacing" textLength="51" x="150.5" y="895.6074">T set(T)</text></g><!--class ElementMonde--><g id="elem_ElementMonde"><rect codeLine="4" fill="#F1F1F1" height="174.3477" id="ElementMonde" rx="2.5" ry="2.5" style="stroke:#181818;stroke-width:0.5;" width="127" x="1798.5" y="433"/><ellipse cx="1813.5" cy="449" fill="#A9DCDF" rx="11" ry="11" style="stroke:#181818;stroke-width:1.0;"/><path d="M1815.6875,450.7656 L1811.5469,450.7656 L1811.125,451.7969 L1811.5469,451.7969 Q1812.1563,451.7969 1812.4219,452.0313 Q1812.6875,452.2656 1812.6875,452.6563 Q1812.6875,453.0313 1812.4219,453.2656 Q1812.1563,453.5 1811.5469,453.5 L1809.25,453.5 Q1808.6406,453.5 1808.3906,453.2656 Q1808.125,453.0313 1808.125,452.6406 Q1808.125,452.2656 1808.4063,452.0313 Q1808.6719,451.7813 1809.2969,451.7969 L1811.9688,445.1406 L1810.8594,445.1406 Q1810.25,445.1406 1809.9844,444.9063 Q1809.7188,444.6719 1809.7188,444.2813 Q1809.7188,443.9063 1809.9844,443.6719 Q1810.25,443.4375 1810.8594,443.4375 L1814.5313,443.4375 L1817.9219,451.7969 Q1818.5156,451.7969 1818.7031,451.9375 Q1819.0938,452.2031 1819.0938,452.6563 Q1819.0938,453.0313 1818.8281,453.2656 Q1818.5781,453.5 1817.9688,453.5 L1815.6719,453.5 Q1815.0625,453.5 1814.7969,453.2656 Q1814.5313,453.0313 1814.5313,452.6406 Q1814.5313,452.2656 1814.7969,452.0313 Q1815.0625,451.7969 1815.6719,451.7969 L1816.0938,451.7969 L1815.6875,450.7656 Z M1814.9688,449.0625 L1813.6094,445.6875 L1812.2344,449.0625 L1814.9688,449.0625 Z " fill="#000000"/><text fill="#000000" font-family="sans-serif" font-size="14" font-style="italic" lengthAdjust="spacing" textLength="95" x="1827.5" y="454.7969">ElementMonde</text><line style="stroke:#181818;stroke-width:0.5;" x1="1799.5" x2="1924.5" y1="465" y2="465"/><polygon fill="none" points="1809.5,474.8105,1813.5,478.8105,1809.5,482.8105,1805.5,478.8105" style="stroke:#B38D22;stroke-width:1.0;"/><text fill="#000000" font-family="sans-serif" font-size="14" lengthAdjust="spacing" textLength="53" x="1818.5" y="484.1074">double x</text><polygon fill="none" points="1809.5,493.4316,1813.5,497.4316,1809.5,501.4316,1805.5,497.4316" style="stroke:#B38D22;stroke-width:1.0;"/><text fill="#000000" font-family="sans-serif" font-size="14" lengthAdjust="spacing" textLength="54" x="1818.5" y="502.7285">double y</text><polygon fill="none" points="1809.5,512.0527,1813.5,516.0527,1809.5,520.0527,1805.5,516.0527" style="stroke:#B38D22;stroke-width:1.0;"/><text fill="#000000" font-family="sans-serif" font-size="14" lengthAdjust="spacing" textLength="96" x="1818.5" y="521.3496">double hauteur</text><polygon fill="none" points="1809.5,530.6738,1813.5,534.6738,1809.5,538.6738,1805.5,534.6738" style="stroke:#B38D22;stroke-width:1.0;"/><text fill="#000000" font-family="sans-serif" font-size="14" lengthAdjust="spacing" textLength="92" x="1818.5" y="539.9707">double largeur</text><ellipse cx="1809.5" cy="576.916" fill="#84BE84" rx="3" ry="3" style="stroke:#038048;stroke-width:1.0;"/><text fill="#000000" font-family="sans-serif" font-size="14" lengthAdjust="spacing" textLength="53" x="1818.5" y="581.2129">Monde()</text><text fill="#000000" font-family="sans-serif" font-size="14" lengthAdjust="spacing" textLength="4" x="1818.5" y="599.834">&#160;</text><line style="stroke:#181818;stroke-width:1.0;stroke-dasharray:1.0,2.0;" x1="1799.5" x2="1821" y1="556.7949" y2="556.7949"/><text fill="#000000" font-family="sans-serif" font-size="14" lengthAdjust="spacing" textLength="82" x="1821" y="562.0918">Constructeur</text><line style="stroke:#181818;stroke-width:1.0;stroke-dasharray:1.0,2.0;" x1="1903" x2="1924.5" y1="556.7949" y2="556.7949"/></g><!--class Terrain--><g id="elem_Terrain"><rect codeLine="13" fill="#F1F1F1" height="141.1055" id="Terrain" rx="2.5" ry="2.5" style="stroke:#181818;stroke-width:0.5;" width="401" x="1135.5" y="799.5"/><ellipse cx="1308.75" cy="815.5" fill="#A9DCDF" rx="11" ry="11" style="stroke:#181818;stroke-width:1.0;"/><path d="M1310.9375,817.2656 L1306.7969,817.2656 L1306.375,818.2969 L1306.7969,818.2969 Q1307.4063,818.2969 1307.6719,818.5313 Q1307.9375,818.7656 1307.9375,819.1563 Q1307.9375,819.5313 1307.6719,819.7656 Q1307.4063,820 1306.7969,820 L1304.5,820 Q1303.8906,820 1303.6406,819.7656 Q1303.375,819.5313 1303.375,819.1406 Q1303.375,818.7656 1303.6563,818.5313 Q1303.9219,818.2813 1304.5469,818.2969 L1307.2188,811.6406 L1306.1094,811.6406 Q1305.5,811.6406 1305.2344,811.4063 Q1304.9688,811.1719 1304.9688,810.7813 Q1304.9688,810.4063 1305.2344,810.1719 Q1305.5,809.9375 1306.1094,809.9375 L1309.7813,809.9375 L1313.1719,818.2969 Q1313.7656,818.2969 1313.9531,818.4375 Q1314.3438,818.7031 1314.3438,819.1563 Q1314.3438,819.5313 1314.0781,819.7656 Q1313.8281,820 1313.2188,820 L1310.9219,820 Q1310.3125,820 1310.0469,819.7656 Q1309.7813,819.5313 1309.7813,819.1406 Q1309.7813,818.7656 1310.0469,818.5313 Q1310.3125,818.2969 1310.9219,818.2969 L1311.3438,818.2969 L1310.9375,817.2656 Z M1310.2188,815.5625 L1308.8594,812.1875 L1307.4844,815.5625 L1310.2188,815.5625 Z " fill="#000000"/><text fill="#000000" font-family="sans-serif" font-size="14" font-style="italic" lengthAdjust="spacing" textLength="46" x="1329.25" y="821.2969">Terrain</text><line style="stroke:#181818;stroke-width:0.5;" x1="1136.5" x2="1535.5" y1="831.5" y2="831.5"/><ellipse cx="1146.5" cy="868.9316" fill="#84BE84" rx="3" ry="3" style="stroke:#038048;stroke-width:1.0;"/><text fill="#000000" font-family="sans-serif" font-size="14" lengthAdjust="spacing" textLength="375" x="1155.5" y="873.2285">Terrain(double x, double y, double hauteur, double largeur)</text><line style="stroke:#181818;stroke-width:1.0;stroke-dasharray:1.0,2.0;" x1="1136.5" x2="1295" y1="848.8105" y2="848.8105"/><text fill="#000000" font-family="sans-serif" font-size="14" lengthAdjust="spacing" textLength="82" x="1295" y="854.1074">Constructeur</text><line style="stroke:#181818;stroke-width:1.0;stroke-dasharray:1.0,2.0;" x1="1377" x2="1535.5" y1="848.8105" y2="848.8105"/><ellipse cx="1146.5" cy="910.1738" fill="#84BE84" rx="3" ry="3" style="stroke:#038048;stroke-width:1.0;"/><text fill="#000000" font-family="sans-serif" font-size="14" lengthAdjust="spacing" textLength="160" x="1155.5" y="914.4707">boolean estTraversable()</text><text fill="#000000" font-family="sans-serif" font-size="14" lengthAdjust="spacing" textLength="4" x="1155.5" y="933.0918">&#160;</text><line style="stroke:#181818;stroke-width:1.0;stroke-dasharray:1.0,2.0;" x1="1136.5" x2="1305" y1="890.0527" y2="890.0527"/><text fill="#000000" font-family="sans-serif" font-size="14" lengthAdjust="spacing" textLength="62" x="1305" y="895.3496">M&#233;thodes</text><line style="stroke:#181818;stroke-width:1.0;stroke-dasharray:1.0,2.0;" x1="1367" x2="1535.5" y1="890.0527" y2="890.0527"/></g><!--class Mur--><g id="elem_Mur"><rect codeLine="21" fill="#F1F1F1" height="122.4844" id="Mur" rx="2.5" ry="2.5" style="stroke:#181818;stroke-width:0.5;" width="379" x="918.5" y="1055"/><ellipse cx="1091.75" cy="1071" fill="#ADD1B2" rx="11" ry="11" style="stroke:#181818;stroke-width:1.0;"/><path d="M1094.5156,1066.875 Q1094.6719,1066.6563 1094.8594,1066.5469 Q1095.0469,1066.4375 1095.2656,1066.4375 Q1095.6406,1066.4375 1095.875,1066.7031 Q1096.1094,1066.9531 1096.1094,1067.5625 L1096.1094,1069.0156 Q1096.1094,1069.625 1095.875,1069.8906 Q1095.6406,1070.1563 1095.2656,1070.1563 Q1094.9219,1070.1563 1094.7188,1069.9531 Q1094.5156,1069.7656 1094.4063,1069.25 Q1094.3594,1068.8906 1094.1719,1068.7031 Q1093.8438,1068.3281 1093.2344,1068.1094 Q1092.625,1067.8906 1092,1067.8906 Q1091.2344,1067.8906 1090.5938,1068.2188 Q1089.9688,1068.5469 1089.4688,1069.2969 Q1088.9844,1070.0469 1088.9844,1071.0781 L1088.9844,1072.1719 Q1088.9844,1073.4063 1089.875,1074.2344 Q1090.7656,1075.0469 1092.3594,1075.0469 Q1093.2969,1075.0469 1093.9531,1074.7969 Q1094.3438,1074.6406 1094.7656,1074.2031 Q1095.0313,1073.9375 1095.1719,1073.8594 Q1095.3281,1073.7813 1095.5313,1073.7813 Q1095.8594,1073.7813 1096.1094,1074.0469 Q1096.375,1074.2969 1096.375,1074.6406 Q1096.375,1074.9844 1096.0313,1075.3906 Q1095.5313,1075.9688 1094.7344,1076.2969 Q1093.6563,1076.75 1092.3594,1076.75 Q1090.8438,1076.75 1089.6406,1076.125 Q1088.6563,1075.625 1087.9688,1074.5625 Q1087.2813,1073.4844 1087.2813,1072.2031 L1087.2813,1071.0469 Q1087.2813,1069.7188 1087.8906,1068.5781 Q1088.5156,1067.4219 1089.6094,1066.8125 Q1090.7031,1066.1875 1091.9375,1066.1875 Q1092.6719,1066.1875 1093.3125,1066.3594 Q1093.9688,1066.5156 1094.5156,1066.875 Z " fill="#000000"/><text fill="#000000" font-family="sans-serif" font-size="14" lengthAdjust="spacing" textLength="24" x="1112.25" y="1076.7969">Mur</text><line style="stroke:#181818;stroke-width:0.5;" x1="919.5" x2="1296.5" y1="1087" y2="1087"/><ellipse cx="929.5" cy="1124.4316" fill="#84BE84" rx="3" ry="3" style="stroke:#038048;stroke-width:1.0;"/><text fill="#000000" font-family="sans-serif" font-size="14" lengthAdjust="spacing" textLength="353" x="938.5" y="1128.7285">Mur(double x, double y, double hauteur, double largeur)</text><line style="stroke:#181818;stroke-width:1.0;stroke-dasharray:1.0,2.0;" x1="919.5" x2="1067" y1="1104.3105" y2="1104.3105"/><text fill="#000000" font-family="sans-serif" font-size="14" lengthAdjust="spacing" textLength="82" x="1067" y="1109.6074">Constructeur</text><line style="stroke:#181818;stroke-width:1.0;stroke-dasharray:1.0,2.0;" x1="1149" x2="1296.5" y1="1104.3105" y2="1104.3105"/><ellipse cx="929.5" cy="1165.6738" fill="#84BE84" rx="3" ry="3" style="stroke:#038048;stroke-width:1.0;"/><text fill="#000000" font-family="sans-serif" font-size="14" lengthAdjust="spacing" textLength="160" x="938.5" y="1169.9707">boolean estTraversable()</text><line style="stroke:#181818;stroke-width:1.0;stroke-dasharray:1.0,2.0;" x1="919.5" x2="1077" y1="1145.5527" y2="1145.5527"/><text fill="#000000" font-family="sans-serif" font-size="14" lengthAdjust="spacing" textLength="62" x="1077" y="1150.8496">M&#233;thodes</text><line style="stroke:#181818;stroke-width:1.0;stroke-dasharray:1.0,2.0;" x1="1139" x2="1296.5" y1="1145.5527" y2="1145.5527"/></g><!--class Personnage--><g id="elem_Personnage"><rect codeLine="29" fill="#F1F1F1" height="159.7266" id="Personnage" rx="2.5" ry="2.5" style="stroke:#181818;stroke-width:0.5;" width="531" x="1583.5" y="790"/><ellipse cx="1806.25" cy="806" fill="#A9DCDF" rx="11" ry="11" style="stroke:#181818;stroke-width:1.0;"/><path d="M1808.4375,807.7656 L1804.2969,807.7656 L1803.875,808.7969 L1804.2969,808.7969 Q1804.9063,808.7969 1805.1719,809.0313 Q1805.4375,809.2656 1805.4375,809.6563 Q1805.4375,810.0313 1805.1719,810.2656 Q1804.9063,810.5 1804.2969,810.5 L1802,810.5 Q1801.3906,810.5 1801.1406,810.2656 Q1800.875,810.0313 1800.875,809.6406 Q1800.875,809.2656 1801.1563,809.0313 Q1801.4219,808.7813 1802.0469,808.7969 L1804.7188,802.1406 L1803.6094,802.1406 Q1803,802.1406 1802.7344,801.9063 Q1802.4688,801.6719 1802.4688,801.2813 Q1802.4688,800.9063 1802.7344,800.6719 Q1803,800.4375 1803.6094,800.4375 L1807.2813,800.4375 L1810.6719,808.7969 Q1811.2656,808.7969 1811.4531,808.9375 Q1811.8438,809.2031 1811.8438,809.6563 Q1811.8438,810.0313 1811.5781,810.2656 Q1811.3281,810.5 1810.7188,810.5 L1808.4219,810.5 Q1807.8125,810.5 1807.5469,810.2656 Q1807.2813,810.0313 1807.2813,809.6406 Q1807.2813,809.2656 1807.5469,809.0313 Q1807.8125,808.7969 1808.4219,808.7969 L1808.8438,808.7969 L1808.4375,807.7656 Z M1807.7188,806.0625 L1806.3594,802.6875 L1804.9844,806.0625 L1807.7188,806.0625 Z " fill="#000000"/><text fill="#000000" font-family="sans-serif" font-size="14" font-style="italic" lengthAdjust="spacing" textLength="77" x="1826.75" y="811.7969">Personnage</text><line style="stroke:#181818;stroke-width:0.5;" x1="1584.5" x2="2113.5" y1="822" y2="822"/><polygon fill="none" points="1594.5,831.8105,1598.5,835.8105,1594.5,839.8105,1590.5,835.8105" style="stroke:#B38D22;stroke-width:1.0;"/><text fill="#000000" font-family="sans-serif" font-size="14" lengthAdjust="spacing" textLength="91" x="1603.5" y="841.1074">double vitesse</text><ellipse cx="1594.5" cy="878.0527" fill="#84BE84" rx="3" ry="3" style="stroke:#038048;stroke-width:1.0;"/><text fill="#000000" font-family="sans-serif" font-size="14" lengthAdjust="spacing" textLength="505" x="1603.5" y="882.3496">Personnage(double x, double y, double largeur, double hauteur, double vitesse)</text><line style="stroke:#181818;stroke-width:1.0;stroke-dasharray:1.0,2.0;" x1="1584.5" x2="1808" y1="857.9316" y2="857.9316"/><text fill="#000000" font-family="sans-serif" font-size="14" lengthAdjust="spacing" textLength="82" x="1808" y="863.2285">Constructeur</text><line style="stroke:#181818;stroke-width:1.0;stroke-dasharray:1.0,2.0;" x1="1890" x2="2113.5" y1="857.9316" y2="857.9316"/><ellipse cx="1594.5" cy="919.2949" fill="#84BE84" rx="3" ry="3" style="stroke:#038048;stroke-width:1.0;"/><text fill="#000000" font-family="sans-serif" font-size="14" lengthAdjust="spacing" textLength="421" x="1603.5" y="923.5918">void d&#233;placer(TypeMouvement typeMouvement, double deltaTime)</text><ellipse cx="1594.5" cy="937.916" fill="#84BE84" rx="3" ry="3" style="stroke:#038048;stroke-width:1.0;"/><text fill="#000000" font-family="sans-serif" font-size="14" lengthAdjust="spacing" textLength="138" x="1603.5" y="942.2129">boolean estUnHeros()</text><line style="stroke:#181818;stroke-width:1.0;stroke-dasharray:1.0,2.0;" x1="1584.5" x2="1818" y1="899.1738" y2="899.1738"/><text fill="#000000" font-family="sans-serif" font-size="14" lengthAdjust="spacing" textLength="62" x="1818" y="904.4707">M&#233;thodes</text><line style="stroke:#181818;stroke-width:1.0;stroke-dasharray:1.0,2.0;" x1="1880" x2="2113.5" y1="899.1738" y2="899.1738"/></g><!--class TypeMouvement--><g id="elem_TypeMouvement"><rect codeLine="38" fill="#F1F1F1" height="122.4844" id="TypeMouvement" rx="2.5" ry="2.5" style="stroke:#181818;stroke-width:0.5;" width="137" x="1626.5" y="459"/><ellipse cx="1641.5" cy="475" fill="#EB937F" rx="11" ry="11" style="stroke:#181818;stroke-width:1.0;"/><path d="M1640.3594,475.7969 L1640.3594,478.2969 L1644.6875,478.2969 L1644.6875,477.375 Q1644.6875,476.7656 1644.9219,476.5 Q1645.1719,476.2344 1645.5469,476.2344 Q1645.9219,476.2344 1646.1563,476.5 Q1646.3906,476.7656 1646.3906,477.375 L1646.3906,480 L1638.3906,480 Q1637.7656,480 1637.5,479.7656 Q1637.25,479.5313 1637.25,479.1406 Q1637.25,478.7656 1637.5156,478.5313 Q1637.7813,478.2969 1638.3906,478.2969 L1638.6563,478.2969 L1638.6563,471.6406 L1638.3906,471.6406 Q1637.7656,471.6406 1637.5,471.4063 Q1637.25,471.1719 1637.25,470.7813 Q1637.25,470.4063 1637.5,470.1719 Q1637.7656,469.9375 1638.3906,469.9375 L1646.0156,469.9375 L1646.0156,472.5313 Q1646.0156,473.1406 1645.7813,473.4063 Q1645.5625,473.6563 1645.1719,473.6563 Q1644.7969,473.6563 1644.5625,473.4063 Q1644.3281,473.1406 1644.3281,472.5313 L1644.3281,471.6406 L1640.3594,471.6406 L1640.3594,474.0938 L1641.8438,474.0938 Q1641.8438,473.4375 1641.9688,473.25 Q1642.2344,472.8438 1642.7031,472.8438 Q1643.0781,472.8438 1643.3125,473.1094 Q1643.5469,473.3594 1643.5469,473.9688 L1643.5469,475.9375 Q1643.5469,476.4844 1643.4219,476.6719 Q1643.1563,477.0625 1642.7031,477.0625 Q1642.2344,477.0625 1641.9688,476.6563 Q1641.8438,476.4688 1641.8438,475.7969 L1640.3594,475.7969 Z " fill="#000000"/><text fill="#000000" font-family="sans-serif" font-size="14" lengthAdjust="spacing" textLength="105" x="1655.5" y="480.7969">TypeMouvement</text><line style="stroke:#181818;stroke-width:0.5;" x1="1627.5" x2="1762.5" y1="491" y2="491"/><text fill="#000000" font-family="sans-serif" font-size="14" lengthAdjust="spacing" textLength="42" x="1632.5" y="510.1074">RIGHT</text><text fill="#000000" font-family="sans-serif" font-size="14" lengthAdjust="spacing" textLength="35" x="1632.5" y="528.7285">LEFT</text><text fill="#000000" font-family="sans-serif" font-size="14" lengthAdjust="spacing" textLength="29" x="1632.5" y="547.3496">TOP</text><text fill="#000000" font-family="sans-serif" font-size="14" lengthAdjust="spacing" textLength="43" x="1632.5" y="565.9707">DOWN</text><line style="stroke:#181818;stroke-width:0.5;" x1="1627.5" x2="1762.5" y1="573.4844" y2="573.4844"/></g><!--class Heros--><g id="elem_Heros"><rect codeLine="45" fill="#F1F1F1" height="122.4844" id="Heros" rx="2.5" ry="2.5" style="stroke:#181818;stroke-width:0.5;" width="392" x="1333" y="1055"/><ellipse cx="1506.25" cy="1071" fill="#ADD1B2" rx="11" ry="11" style="stroke:#181818;stroke-width:1.0;"/><path d="M1509.0156,1066.875 Q1509.1719,1066.6563 1509.3594,1066.5469 Q1509.5469,1066.4375 1509.7656,1066.4375 Q1510.1406,1066.4375 1510.375,1066.7031 Q1510.6094,1066.9531 1510.6094,1067.5625 L1510.6094,1069.0156 Q1510.6094,1069.625 1510.375,1069.8906 Q1510.1406,1070.1563 1509.7656,1070.1563 Q1509.4219,1070.1563 1509.2188,1069.9531 Q1509.0156,1069.7656 1508.9063,1069.25 Q1508.8594,1068.8906 1508.6719,1068.7031 Q1508.3438,1068.3281 1507.7344,1068.1094 Q1507.125,1067.8906 1506.5,1067.8906 Q1505.7344,1067.8906 1505.0938,1068.2188 Q1504.4688,1068.5469 1503.9688,1069.2969 Q1503.4844,1070.0469 1503.4844,1071.0781 L1503.4844,1072.1719 Q1503.4844,1073.4063 1504.375,1074.2344 Q1505.2656,1075.0469 1506.8594,1075.0469 Q1507.7969,1075.0469 1508.4531,1074.7969 Q1508.8438,1074.6406 1509.2656,1074.2031 Q1509.5313,1073.9375 1509.6719,1073.8594 Q1509.8281,1073.7813 1510.0313,1073.7813 Q1510.3594,1073.7813 1510.6094,1074.0469 Q1510.875,1074.2969 1510.875,1074.6406 Q1510.875,1074.9844 1510.5313,1075.3906 Q1510.0313,1075.9688 1509.2344,1076.2969 Q1508.1563,1076.75 1506.8594,1076.75 Q1505.3438,1076.75 1504.1406,1076.125 Q1503.1563,1075.625 1502.4688,1074.5625 Q1501.7813,1073.4844 1501.7813,1072.2031 L1501.7813,1071.0469 Q1501.7813,1069.7188 1502.3906,1068.5781 Q1503.0156,1067.4219 1504.1094,1066.8125 Q1505.2031,1066.1875 1506.4375,1066.1875 Q1507.1719,1066.1875 1507.8125,1066.3594 Q1508.4688,1066.5156 1509.0156,1066.875 Z " fill="#000000"/><text fill="#000000" font-family="sans-serif" font-size="14" lengthAdjust="spacing" textLength="37" x="1526.75" y="1076.7969">Heros</text><line style="stroke:#181818;stroke-width:0.5;" x1="1334" x2="1724" y1="1087" y2="1087"/><ellipse cx="1344" cy="1124.4316" fill="#84BE84" rx="3" ry="3" style="stroke:#038048;stroke-width:1.0;"/><text fill="#000000" font-family="sans-serif" font-size="14" lengthAdjust="spacing" textLength="366" x="1353" y="1128.7285">Heros(double x, double y, double largeur, double hauteur)</text><line style="stroke:#181818;stroke-width:1.0;stroke-dasharray:1.0,2.0;" x1="1334" x2="1488" y1="1104.3105" y2="1104.3105"/><text fill="#000000" font-family="sans-serif" font-size="14" lengthAdjust="spacing" textLength="82" x="1488" y="1109.6074">Constructeur</text><line style="stroke:#181818;stroke-width:1.0;stroke-dasharray:1.0,2.0;" x1="1570" x2="1724" y1="1104.3105" y2="1104.3105"/><ellipse cx="1344" cy="1165.6738" fill="#84BE84" rx="3" ry="3" style="stroke:#038048;stroke-width:1.0;"/><text fill="#000000" font-family="sans-serif" font-size="14" lengthAdjust="spacing" textLength="138" x="1353" y="1169.9707">boolean estUnHeros()</text><line style="stroke:#181818;stroke-width:1.0;stroke-dasharray:1.0,2.0;" x1="1334" x2="1498" y1="1145.5527" y2="1145.5527"/><text fill="#000000" font-family="sans-serif" font-size="14" lengthAdjust="spacing" textLength="62" x="1498" y="1150.8496">M&#233;thodes</text><line style="stroke:#181818;stroke-width:1.0;stroke-dasharray:1.0,2.0;" x1="1560" x2="1724" y1="1145.5527" y2="1145.5527"/></g><!--class Monstre--><g id="elem_Monstre"><rect codeLine="52" fill="#F1F1F1" height="81.2422" id="Monstre" rx="2.5" ry="2.5" style="stroke:#181818;stroke-width:0.5;" width="505" x="1760.5" y="1075.5"/><ellipse cx="1982.75" cy="1091.5" fill="#A9DCDF" rx="11" ry="11" style="stroke:#181818;stroke-width:1.0;"/><path d="M1984.9375,1093.2656 L1980.7969,1093.2656 L1980.375,1094.2969 L1980.7969,1094.2969 Q1981.4063,1094.2969 1981.6719,1094.5313 Q1981.9375,1094.7656 1981.9375,1095.1563 Q1981.9375,1095.5313 1981.6719,1095.7656 Q1981.4063,1096 1980.7969,1096 L1978.5,1096 Q1977.8906,1096 1977.6406,1095.7656 Q1977.375,1095.5313 1977.375,1095.1406 Q1977.375,1094.7656 1977.6563,1094.5313 Q1977.9219,1094.2813 1978.5469,1094.2969 L1981.2188,1087.6406 L1980.1094,1087.6406 Q1979.5,1087.6406 1979.2344,1087.4063 Q1978.9688,1087.1719 1978.9688,1086.7813 Q1978.9688,1086.4063 1979.2344,1086.1719 Q1979.5,1085.9375 1980.1094,1085.9375 L1983.7813,1085.9375 L1987.1719,1094.2969 Q1987.7656,1094.2969 1987.9531,1094.4375 Q1988.3438,1094.7031 1988.3438,1095.1563 Q1988.3438,1095.5313 1988.0781,1095.7656 Q1987.8281,1096 1987.2188,1096 L1984.9219,1096 Q1984.3125,1096 1984.0469,1095.7656 Q1983.7813,1095.5313 1983.7813,1095.1406 Q1983.7813,1094.7656 1984.0469,1094.5313 Q1984.3125,1094.2969 1984.9219,1094.2969 L1985.3438,1094.2969 L1984.9375,1093.2656 Z M1984.2188,1091.5625 L1982.8594,1088.1875 L1981.4844,1091.5625 L1984.2188,1091.5625 Z " fill="#000000"/><text fill="#000000" font-family="sans-serif" font-size="14" font-style="italic" lengthAdjust="spacing" textLength="52" x="2003.25" y="1097.2969">Monstre</text><line style="stroke:#181818;stroke-width:0.5;" x1="1761.5" x2="2264.5" y1="1107.5" y2="1107.5"/><ellipse cx="1771.5" cy="1144.9316" fill="#84BE84" rx="3" ry="3" style="stroke:#038048;stroke-width:1.0;"/><text fill="#000000" font-family="sans-serif" font-size="14" lengthAdjust="spacing" textLength="479" x="1780.5" y="1149.2285">Monstre(double x, double y, double largeur, double hauteur, double vitesse)</text><line style="stroke:#181818;stroke-width:1.0;stroke-dasharray:1.0,2.0;" x1="1761.5" x2="1972" y1="1124.8105" y2="1124.8105"/><text fill="#000000" font-family="sans-serif" font-size="14" lengthAdjust="spacing" textLength="82" x="1972" y="1130.1074">Constructeur</text><line style="stroke:#181818;stroke-width:1.0;stroke-dasharray:1.0,2.0;" x1="2054" x2="2264.5" y1="1124.8105" y2="1124.8105"/></g><!--class Walker--><g id="elem_Walker"><rect codeLine="57" fill="#F1F1F1" height="81.2422" id="Walker" rx="2.5" ry="2.5" style="stroke:#181818;stroke-width:0.5;" width="399" x="1813.5" y="1282"/><ellipse cx="1986.75" cy="1298" fill="#ADD1B2" rx="11" ry="11" style="stroke:#181818;stroke-width:1.0;"/><path d="M1989.5156,1293.875 Q1989.6719,1293.6563 1989.8594,1293.5469 Q1990.0469,1293.4375 1990.2656,1293.4375 Q1990.6406,1293.4375 1990.875,1293.7031 Q1991.1094,1293.9531 1991.1094,1294.5625 L1991.1094,1296.0156 Q1991.1094,1296.625 1990.875,1296.8906 Q1990.6406,1297.1563 1990.2656,1297.1563 Q1989.9219,1297.1563 1989.7188,1296.9531 Q1989.5156,1296.7656 1989.4063,1296.25 Q1989.3594,1295.8906 1989.1719,1295.7031 Q1988.8438,1295.3281 1988.2344,1295.1094 Q1987.625,1294.8906 1987,1294.8906 Q1986.2344,1294.8906 1985.5938,1295.2188 Q1984.9688,1295.5469 1984.4688,1296.2969 Q1983.9844,1297.0469 1983.9844,1298.0781 L1983.9844,1299.1719 Q1983.9844,1300.4063 1984.875,1301.2344 Q1985.7656,1302.0469 1987.3594,1302.0469 Q1988.2969,1302.0469 1988.9531,1301.7969 Q1989.3438,1301.6406 1989.7656,1301.2031 Q1990.0313,1300.9375 1990.1719,1300.8594 Q1990.3281,1300.7813 1990.5313,1300.7813 Q1990.8594,1300.7813 1991.1094,1301.0469 Q1991.375,1301.2969 1991.375,1301.6406 Q1991.375,1301.9844 1991.0313,1302.3906 Q1990.5313,1302.9688 1989.7344,1303.2969 Q1988.6563,1303.75 1987.3594,1303.75 Q1985.8438,1303.75 1984.6406,1303.125 Q1983.6563,1302.625 1982.9688,1301.5625 Q1982.2813,1300.4844 1982.2813,1299.2031 L1982.2813,1298.0469 Q1982.2813,1296.7188 1982.8906,1295.5781 Q1983.5156,1294.4219 1984.6094,1293.8125 Q1985.7031,1293.1875 1986.9375,1293.1875 Q1987.6719,1293.1875 1988.3125,1293.3594 Q1988.9688,1293.5156 1989.5156,1293.875 Z " fill="#000000"/><text fill="#000000" font-family="sans-serif" font-size="14" lengthAdjust="spacing" textLength="44" x="2007.25" y="1303.7969">Walker</text><line style="stroke:#181818;stroke-width:0.5;" x1="1814.5" x2="2211.5" y1="1314" y2="1314"/><ellipse cx="1824.5" cy="1351.4316" fill="#84BE84" rx="3" ry="3" style="stroke:#038048;stroke-width:1.0;"/><text fill="#000000" font-family="sans-serif" font-size="14" lengthAdjust="spacing" textLength="373" x="1833.5" y="1355.7285">Walker(double x, double y, double largeur, double hauteur)</text><line style="stroke:#181818;stroke-width:1.0;stroke-dasharray:1.0,2.0;" x1="1814.5" x2="1972" y1="1331.3105" y2="1331.3105"/><text fill="#000000" font-family="sans-serif" font-size="14" lengthAdjust="spacing" textLength="82" x="1972" y="1336.6074">Constructeur</text><line style="stroke:#181818;stroke-width:1.0;stroke-dasharray:1.0,2.0;" x1="2054" x2="2211.5" y1="1331.3105" y2="1331.3105"/></g><!--class Monde--><g id="elem_Monde"><rect codeLine="62" fill="#F1F1F1" height="290.0742" id="Monde" rx="2.5" ry="2.5" style="stroke:#181818;stroke-width:0.5;" width="510" x="1081" y="375"/><ellipse cx="1310.25" cy="391" fill="#ADD1B2" rx="11" ry="11" style="stroke:#181818;stroke-width:1.0;"/><path d="M1313.0156,386.875 Q1313.1719,386.6563 1313.3594,386.5469 Q1313.5469,386.4375 1313.7656,386.4375 Q1314.1406,386.4375 1314.375,386.7031 Q1314.6094,386.9531 1314.6094,387.5625 L1314.6094,389.0156 Q1314.6094,389.625 1314.375,389.8906 Q1314.1406,390.1563 1313.7656,390.1563 Q1313.4219,390.1563 1313.2188,389.9531 Q1313.0156,389.7656 1312.9063,389.25 Q1312.8594,388.8906 1312.6719,388.7031 Q1312.3438,388.3281 1311.7344,388.1094 Q1311.125,387.8906 1310.5,387.8906 Q1309.7344,387.8906 1309.0938,388.2188 Q1308.4688,388.5469 1307.9688,389.2969 Q1307.4844,390.0469 1307.4844,391.0781 L1307.4844,392.1719 Q1307.4844,393.4063 1308.375,394.2344 Q1309.2656,395.0469 1310.8594,395.0469 Q1311.7969,395.0469 1312.4531,394.7969 Q1312.8438,394.6406 1313.2656,394.2031 Q1313.5313,393.9375 1313.6719,393.8594 Q1313.8281,393.7813 1314.0313,393.7813 Q1314.3594,393.7813 1314.6094,394.0469 Q1314.875,394.2969 1314.875,394.6406 Q1314.875,394.9844 1314.5313,395.3906 Q1314.0313,395.9688 1313.2344,396.2969 Q1312.1563,396.75 1310.8594,396.75 Q1309.3438,396.75 1308.1406,396.125 Q1307.1563,395.625 1306.4688,394.5625 Q1305.7813,393.4844 1305.7813,392.2031 L1305.7813,391.0469 Q1305.7813,389.7188 1306.3906,388.5781 Q1307.0156,387.4219 1308.1094,386.8125 Q1309.2031,386.1875 1310.4375,386.1875 Q1311.1719,386.1875 1311.8125,386.3594 Q1312.4688,386.5156 1313.0156,386.875 Z " fill="#000000"/><text fill="#000000" font-family="sans-serif" font-size="14" lengthAdjust="spacing" textLength="43" x="1330.75" y="396.7969">Monde</text><line style="stroke:#181818;stroke-width:0.5;" x1="1082" x2="1590" y1="407" y2="407"/><polygon fill="none" points="1092,416.8105,1096,420.8105,1092,424.8105,1088,420.8105" style="stroke:#B38D22;stroke-width:1.0;"/><text fill="#000000" font-family="sans-serif" font-size="14" lengthAdjust="spacing" textLength="70" x="1101" y="426.1074">int nbLigne</text><polygon fill="none" points="1092,435.4316,1096,439.4316,1092,443.4316,1088,439.4316" style="stroke:#B38D22;stroke-width:1.0;"/><text fill="#000000" font-family="sans-serif" font-size="14" lengthAdjust="spacing" textLength="56" x="1101" y="444.7285">int nbCol</text><ellipse cx="1092" cy="481.6738" fill="#84BE84" rx="3" ry="3" style="stroke:#038048;stroke-width:1.0;"/><text fill="#000000" font-family="sans-serif" font-size="14" lengthAdjust="spacing" textLength="53" x="1101" y="485.9707">Monde()</text><line style="stroke:#181818;stroke-width:1.0;stroke-dasharray:1.0,2.0;" x1="1082" x2="1295" y1="461.5527" y2="461.5527"/><text fill="#000000" font-family="sans-serif" font-size="14" lengthAdjust="spacing" textLength="82" x="1295" y="466.8496">Constructeur</text><line style="stroke:#181818;stroke-width:1.0;stroke-dasharray:1.0,2.0;" x1="1377" x2="1590" y1="461.5527" y2="461.5527"/><ellipse cx="1092" cy="522.916" fill="#84BE84" rx="3" ry="3" style="stroke:#038048;stroke-width:1.0;"/><text fill="#000000" font-family="sans-serif" font-size="14" lengthAdjust="spacing" textLength="351" x="1101" y="527.2129">boolean collision(ElementMonde e1, ElementMonde e2)</text><ellipse cx="1092" cy="541.5371" fill="#84BE84" rx="3" ry="3" style="stroke:#038048;stroke-width:1.0;"/><text fill="#000000" font-family="sans-serif" font-size="14" lengthAdjust="spacing" textLength="108" x="1101" y="545.834">Heros getHeros()</text><ellipse cx="1092" cy="560.1582" fill="#84BE84" rx="3" ry="3" style="stroke:#038048;stroke-width:1.0;"/><text fill="#000000" font-family="sans-serif" font-size="14" lengthAdjust="spacing" textLength="484" x="1101" y="564.4551">void deplacementHeros(TypeMouvement typeMouvement, double deltaTime)</text><ellipse cx="1092" cy="578.7793" fill="#84BE84" rx="3" ry="3" style="stroke:#038048;stroke-width:1.0;"/><text fill="#000000" font-family="sans-serif" font-size="14" lengthAdjust="spacing" textLength="179" x="1101" y="583.0762">void deplacementMonstres()</text><ellipse cx="1092" cy="597.4004" fill="#84BE84" rx="3" ry="3" style="stroke:#038048;stroke-width:1.0;"/><text fill="#000000" font-family="sans-serif" font-size="14" lengthAdjust="spacing" textLength="171" x="1101" y="601.6973">void addTerrains(Terrain t)</text><ellipse cx="1092" cy="616.0215" fill="#84BE84" rx="3" ry="3" style="stroke:#038048;stroke-width:1.0;"/><text fill="#000000" font-family="sans-serif" font-size="14" lengthAdjust="spacing" textLength="230" x="1101" y="620.3184">void addPersonnage(Personnage p)</text><ellipse cx="1092" cy="634.6426" fill="#84BE84" rx="3" ry="3" style="stroke:#038048;stroke-width:1.0;"/><text fill="#000000" font-family="sans-serif" font-size="14" lengthAdjust="spacing" textLength="114" x="1101" y="638.9395">void updateData()</text><ellipse cx="1092" cy="653.2637" fill="#84BE84" rx="3" ry="3" style="stroke:#038048;stroke-width:1.0;"/><text fill="#000000" font-family="sans-serif" font-size="14" lengthAdjust="spacing" textLength="197" x="1101" y="657.5605">void chargerCarte(String carte)</text><line style="stroke:#181818;stroke-width:1.0;stroke-dasharray:1.0,2.0;" x1="1082" x2="1305" y1="502.7949" y2="502.7949"/><text fill="#000000" font-family="sans-serif" font-size="14" lengthAdjust="spacing" textLength="62" x="1305" y="508.0918">M&#233;thodes</text><line style="stroke:#181818;stroke-width:1.0;stroke-dasharray:1.0,2.0;" x1="1367" x2="1590" y1="502.7949" y2="502.7949"/></g><!--class Donnees--><g id="elem_Donnees"><rect codeLine="80" fill="#F1F1F1" height="141.1055" id="Donnees" rx="2.5" ry="2.5" style="stroke:#181818;stroke-width:0.5;" width="233" x="594.5" y="449.5"/><ellipse cx="678.25" cy="465.5" fill="#ADD1B2" rx="11" ry="11" style="stroke:#181818;stroke-width:1.0;"/><path d="M681.0156,461.375 Q681.1719,461.1563 681.3594,461.0469 Q681.5469,460.9375 681.7656,460.9375 Q682.1406,460.9375 682.375,461.2031 Q682.6094,461.4531 682.6094,462.0625 L682.6094,463.5156 Q682.6094,464.125 682.375,464.3906 Q682.1406,464.6563 681.7656,464.6563 Q681.4219,464.6563 681.2188,464.4531 Q681.0156,464.2656 680.9063,463.75 Q680.8594,463.3906 680.6719,463.2031 Q680.3438,462.8281 679.7344,462.6094 Q679.125,462.3906 678.5,462.3906 Q677.7344,462.3906 677.0938,462.7188 Q676.4688,463.0469 675.9688,463.7969 Q675.4844,464.5469 675.4844,465.5781 L675.4844,466.6719 Q675.4844,467.9063 676.375,468.7344 Q677.2656,469.5469 678.8594,469.5469 Q679.7969,469.5469 680.4531,469.2969 Q680.8438,469.1406 681.2656,468.7031 Q681.5313,468.4375 681.6719,468.3594 Q681.8281,468.2813 682.0313,468.2813 Q682.3594,468.2813 682.6094,468.5469 Q682.875,468.7969 682.875,469.1406 Q682.875,469.4844 682.5313,469.8906 Q682.0313,470.4688 681.2344,470.7969 Q680.1563,471.25 678.8594,471.25 Q677.3438,471.25 676.1406,470.625 Q675.1563,470.125 674.4688,469.0625 Q673.7813,467.9844 673.7813,466.7031 L673.7813,465.5469 Q673.7813,464.2188 674.3906,463.0781 Q675.0156,461.9219 676.1094,461.3125 Q677.2031,460.6875 678.4375,460.6875 Q679.1719,460.6875 679.8125,460.8594 Q680.4688,461.0156 681.0156,461.375 Z " fill="#000000"/><text fill="#000000" font-family="sans-serif" font-size="14" lengthAdjust="spacing" textLength="57" x="698.75" y="471.2969">Donnees</text><line style="stroke:#181818;stroke-width:0.5;" x1="595.5" x2="826.5" y1="481.5" y2="481.5"/><ellipse cx="605.5" cy="496.3105" fill="none" rx="3" ry="3" style="stroke:#038048;stroke-width:1.0;"/><text fill="#000000" font-family="sans-serif" font-size="14" lengthAdjust="spacing" text-decoration="underline" textLength="207" x="614.5" y="500.6074">int WINDOW_DEFAULT_HEIGHT</text><ellipse cx="605.5" cy="514.9316" fill="none" rx="3" ry="3" style="stroke:#038048;stroke-width:1.0;"/><text fill="#000000" font-family="sans-serif" font-size="14" lengthAdjust="spacing" text-decoration="underline" textLength="201" x="614.5" y="519.2285">int WINDOW_DEFAULT_WIDTH</text><ellipse cx="605.5" cy="533.5527" fill="none" rx="3" ry="3" style="stroke:#038048;stroke-width:1.0;"/><text fill="#000000" font-family="sans-serif" font-size="14" lengthAdjust="spacing" text-decoration="underline" textLength="129" x="614.5" y="537.8496">int WORLD_HEIGHT</text><ellipse cx="605.5" cy="552.1738" fill="none" rx="3" ry="3" style="stroke:#038048;stroke-width:1.0;"/><text fill="#000000" font-family="sans-serif" font-size="14" lengthAdjust="spacing" text-decoration="underline" textLength="123" x="614.5" y="556.4707">int WORLD_WIDTH</text><text fill="#000000" font-family="sans-serif" font-size="14" lengthAdjust="spacing" textLength="12" x="614.5" y="575.0918">...</text><line style="stroke:#181818;stroke-width:0.5;" x1="595.5" x2="826.5" y1="582.6055" y2="582.6055"/></g><!--class GestionFichier--><g id="elem_GestionFichier"><rect codeLine="88" fill="#F1F1F1" height="122.4844" id="GestionFichier" rx="2.5" ry="2.5" style="stroke:#181818;stroke-width:0.5;" width="282" x="570" y="809"/><ellipse cx="660.75" cy="825" fill="#ADD1B2" rx="11" ry="11" style="stroke:#181818;stroke-width:1.0;"/><path d="M663.5156,820.875 Q663.6719,820.6563 663.8594,820.5469 Q664.0469,820.4375 664.2656,820.4375 Q664.6406,820.4375 664.875,820.7031 Q665.1094,820.9531 665.1094,821.5625 L665.1094,823.0156 Q665.1094,823.625 664.875,823.8906 Q664.6406,824.1563 664.2656,824.1563 Q663.9219,824.1563 663.7188,823.9531 Q663.5156,823.7656 663.4063,823.25 Q663.3594,822.8906 663.1719,822.7031 Q662.8438,822.3281 662.2344,822.1094 Q661.625,821.8906 661,821.8906 Q660.2344,821.8906 659.5938,822.2188 Q658.9688,822.5469 658.4688,823.2969 Q657.9844,824.0469 657.9844,825.0781 L657.9844,826.1719 Q657.9844,827.4063 658.875,828.2344 Q659.7656,829.0469 661.3594,829.0469 Q662.2969,829.0469 662.9531,828.7969 Q663.3438,828.6406 663.7656,828.2031 Q664.0313,827.9375 664.1719,827.8594 Q664.3281,827.7813 664.5313,827.7813 Q664.8594,827.7813 665.1094,828.0469 Q665.375,828.2969 665.375,828.6406 Q665.375,828.9844 665.0313,829.3906 Q664.5313,829.9688 663.7344,830.2969 Q662.6563,830.75 661.3594,830.75 Q659.8438,830.75 658.6406,830.125 Q657.6563,829.625 656.9688,828.5625 Q656.2813,827.4844 656.2813,826.2031 L656.2813,825.0469 Q656.2813,823.7188 656.8906,822.5781 Q657.5156,821.4219 658.6094,820.8125 Q659.7031,820.1875 660.9375,820.1875 Q661.6719,820.1875 662.3125,820.3594 Q662.9688,820.5156 663.5156,820.875 Z " fill="#000000"/><text fill="#000000" font-family="sans-serif" font-size="14" lengthAdjust="spacing" textLength="92" x="681.25" y="830.7969">GestionFichier</text><line style="stroke:#181818;stroke-width:0.5;" x1="571" x2="851" y1="841" y2="841"/><ellipse cx="581" cy="878.4316" fill="#84BE84" rx="3" ry="3" style="stroke:#038048;stroke-width:1.0;"/><text fill="#000000" font-family="sans-serif" font-size="14" lengthAdjust="spacing" textLength="102" x="590" y="882.7285">GestionFichier()</text><line style="stroke:#181818;stroke-width:1.0;stroke-dasharray:1.0,2.0;" x1="571" x2="670" y1="858.3105" y2="858.3105"/><text fill="#000000" font-family="sans-serif" font-size="14" lengthAdjust="spacing" textLength="82" x="670" y="863.6074">Constructeur</text><line style="stroke:#181818;stroke-width:1.0;stroke-dasharray:1.0,2.0;" x1="752" x2="851" y1="858.3105" y2="858.3105"/><ellipse cx="581" cy="919.6738" fill="#84BE84" rx="3" ry="3" style="stroke:#038048;stroke-width:1.0;"/><text fill="#000000" font-family="sans-serif" font-size="14" lengthAdjust="spacing" textLength="256" x="590" y="923.9707">char[] lireFichierCarte(string nomFichier)</text><line style="stroke:#181818;stroke-width:1.0;stroke-dasharray:1.0,2.0;" x1="571" x2="680" y1="899.5527" y2="899.5527"/><text fill="#000000" font-family="sans-serif" font-size="14" lengthAdjust="spacing" textLength="62" x="680" y="904.8496">M&#233;thodes</text><line style="stroke:#181818;stroke-width:1.0;stroke-dasharray:1.0,2.0;" x1="742" x2="851" y1="899.5527" y2="899.5527"/></g><!--class Resources--><g id="elem_Resources"><rect codeLine="95" fill="#F1F1F1" height="211.5898" id="Resources" rx="2.5" ry="2.5" style="stroke:#181818;stroke-width:0.5;" width="320" x="542" y="1010"/><ellipse cx="663.75" cy="1026" fill="#ADD1B2" rx="11" ry="11" style="stroke:#181818;stroke-width:1.0;"/><path d="M666.5156,1021.875 Q666.6719,1021.6563 666.8594,1021.5469 Q667.0469,1021.4375 667.2656,1021.4375 Q667.6406,1021.4375 667.875,1021.7031 Q668.1094,1021.9531 668.1094,1022.5625 L668.1094,1024.0156 Q668.1094,1024.625 667.875,1024.8906 Q667.6406,1025.1563 667.2656,1025.1563 Q666.9219,1025.1563 666.7188,1024.9531 Q666.5156,1024.7656 666.4063,1024.25 Q666.3594,1023.8906 666.1719,1023.7031 Q665.8438,1023.3281 665.2344,1023.1094 Q664.625,1022.8906 664,1022.8906 Q663.2344,1022.8906 662.5938,1023.2188 Q661.9688,1023.5469 661.4688,1024.2969 Q660.9844,1025.0469 660.9844,1026.0781 L660.9844,1027.1719 Q660.9844,1028.4063 661.875,1029.2344 Q662.7656,1030.0469 664.3594,1030.0469 Q665.2969,1030.0469 665.9531,1029.7969 Q666.3438,1029.6406 666.7656,1029.2031 Q667.0313,1028.9375 667.1719,1028.8594 Q667.3281,1028.7813 667.5313,1028.7813 Q667.8594,1028.7813 668.1094,1029.0469 Q668.375,1029.2969 668.375,1029.6406 Q668.375,1029.9844 668.0313,1030.3906 Q667.5313,1030.9688 666.7344,1031.2969 Q665.6563,1031.75 664.3594,1031.75 Q662.8438,1031.75 661.6406,1031.125 Q660.6563,1030.625 659.9688,1029.5625 Q659.2813,1028.4844 659.2813,1027.2031 L659.2813,1026.0469 Q659.2813,1024.7188 659.8906,1023.5781 Q660.5156,1022.4219 661.6094,1021.8125 Q662.7031,1021.1875 663.9375,1021.1875 Q664.6719,1021.1875 665.3125,1021.3594 Q665.9688,1021.5156 666.5156,1021.875 Z " fill="#000000"/><text fill="#000000" font-family="sans-serif" font-size="14" lengthAdjust="spacing" textLength="68" x="684.25" y="1031.7969">Resources</text><line style="stroke:#181818;stroke-width:0.5;" x1="543" x2="861" y1="1042" y2="1042"/><rect fill="none" height="6" style="stroke:#C82930;stroke-width:1.0;" width="6" x="550" y="1053.8105"/><text fill="#000000" font-family="sans-serif" font-size="14" lengthAdjust="spacing" text-decoration="underline" textLength="171" x="562" y="1061.1074">Map&lt;String, Image&gt; assets</text><ellipse cx="553" cy="1098.0527" fill="#84BE84" rx="3" ry="3" style="stroke:#038048;stroke-width:1.0;"/><text fill="#000000" font-family="sans-serif" font-size="14" lengthAdjust="spacing" text-decoration="underline" textLength="130" x="562" y="1102.3496">URL get(String path)</text><ellipse cx="553" cy="1116.6738" fill="#84BE84" rx="3" ry="3" style="stroke:#038048;stroke-width:1.0;"/><text fill="#000000" font-family="sans-serif" font-size="14" lengthAdjust="spacing" text-decoration="underline" textLength="245" x="562" y="1120.9707">InputStream getAsStream(String path)}</text><ellipse cx="553" cy="1135.2949" fill="#84BE84" rx="3" ry="3" style="stroke:#038048;stroke-width:1.0;"/><text fill="#000000" font-family="sans-serif" font-size="14" lengthAdjust="spacing" text-decoration="underline" textLength="176" x="562" y="1139.5918">Image getAsset(String path)</text><ellipse cx="553" cy="1153.916" fill="#84BE84" rx="3" ry="3" style="stroke:#038048;stroke-width:1.0;"/><text fill="#000000" font-family="sans-serif" font-size="14" lengthAdjust="spacing" text-decoration="underline" textLength="294" x="562" y="1158.2129">ResourceBundle getI18NBundle(Locale locale)</text><ellipse cx="553" cy="1172.5371" fill="#84BE84" rx="3" ry="3" style="stroke:#038048;stroke-width:1.0;"/><text fill="#000000" font-family="sans-serif" font-size="14" lengthAdjust="spacing" text-decoration="underline" textLength="211" x="562" y="1176.834">ResourceBundle getI18NBundle()</text><ellipse cx="553" cy="1191.1582" fill="#84BE84" rx="3" ry="3" style="stroke:#038048;stroke-width:1.0;"/><text fill="#000000" font-family="sans-serif" font-size="14" lengthAdjust="spacing" text-decoration="underline" textLength="290" x="562" y="1195.4551">String getI18NString(String key, Locale locale)</text><ellipse cx="553" cy="1209.7793" fill="#84BE84" rx="3" ry="3" style="stroke:#038048;stroke-width:1.0;"/><text fill="#000000" font-family="sans-serif" font-size="14" lengthAdjust="spacing" text-decoration="underline" textLength="199" x="562" y="1214.0762">String getI18NString(String key)</text><line style="stroke:#181818;stroke-width:1.0;stroke-dasharray:1.0,2.0;" x1="543" x2="671" y1="1077.9316" y2="1077.9316"/><text fill="#000000" font-family="sans-serif" font-size="14" lengthAdjust="spacing" textLength="62" x="671" y="1083.2285">M&#233;thodes</text><line style="stroke:#181818;stroke-width:1.0;stroke-dasharray:1.0,2.0;" x1="733" x2="861" y1="1077.9316" y2="1077.9316"/></g><!--class Sprite--><g id="elem_Sprite"><rect codeLine="109" fill="#F1F1F1" height="48" id="Sprite" rx="2.5" ry="2.5" style="stroke:#181818;stroke-width:0.5;" width="69" x="2338.5" y="846"/><ellipse cx="2353.5" cy="862" fill="#ADD1B2" rx="11" ry="11" style="stroke:#181818;stroke-width:1.0;"/><path d="M2356.2656,857.875 Q2356.4219,857.6563 2356.6094,857.5469 Q2356.7969,857.4375 2357.0156,857.4375 Q2357.3906,857.4375 2357.625,857.7031 Q2357.8594,857.9531 2357.8594,858.5625 L2357.8594,860.0156 Q2357.8594,860.625 2357.625,860.8906 Q2357.3906,861.1563 2357.0156,861.1563 Q2356.6719,861.1563 2356.4688,860.9531 Q2356.2656,860.7656 2356.1563,860.25 Q2356.1094,859.8906 2355.9219,859.7031 Q2355.5938,859.3281 2354.9844,859.1094 Q2354.375,858.8906 2353.75,858.8906 Q2352.9844,858.8906 2352.3438,859.2188 Q2351.7188,859.5469 2351.2188,860.2969 Q2350.7344,861.0469 2350.7344,862.0781 L2350.7344,863.1719 Q2350.7344,864.4063 2351.625,865.2344 Q2352.5156,866.0469 2354.1094,866.0469 Q2355.0469,866.0469 2355.7031,865.7969 Q2356.0938,865.6406 2356.5156,865.2031 Q2356.7813,864.9375 2356.9219,864.8594 Q2357.0781,864.7813 2357.2813,864.7813 Q2357.6094,864.7813 2357.8594,865.0469 Q2358.125,865.2969 2358.125,865.6406 Q2358.125,865.9844 2357.7813,866.3906 Q2357.2813,866.9688 2356.4844,867.2969 Q2355.4063,867.75 2354.1094,867.75 Q2352.5938,867.75 2351.3906,867.125 Q2350.4063,866.625 2349.7188,865.5625 Q2349.0313,864.4844 2349.0313,863.2031 L2349.0313,862.0469 Q2349.0313,860.7188 2349.6406,859.5781 Q2350.2656,858.4219 2351.3594,857.8125 Q2352.4531,857.1875 2353.6875,857.1875 Q2354.4219,857.1875 2355.0625,857.3594 Q2355.7188,857.5156 2356.2656,857.875 Z " fill="#000000"/><text fill="#000000" font-family="sans-serif" font-size="14" lengthAdjust="spacing" textLength="37" x="2367.5" y="867.7969">Sprite</text><line style="stroke:#181818;stroke-width:0.5;" x1="2339.5" x2="2406.5" y1="878" y2="878"/><line style="stroke:#181818;stroke-width:0.5;" x1="2339.5" x2="2406.5" y1="886" y2="886"/></g><!--class GameController--><g id="elem_GameController"><rect codeLine="113" fill="#F1F1F1" height="48" id="GameController" rx="2.5" ry="2.5" style="stroke:#181818;stroke-width:0.5;" width="132" x="2222" y="165"/><ellipse cx="2237" cy="181" fill="#A9DCDF" rx="11" ry="11" style="stroke:#181818;stroke-width:1.0;"/><path d="M2239.1875,182.7656 L2235.0469,182.7656 L2234.625,183.7969 L2235.0469,183.7969 Q2235.6563,183.7969 2235.9219,184.0313 Q2236.1875,184.2656 2236.1875,184.6563 Q2236.1875,185.0313 2235.9219,185.2656 Q2235.6563,185.5 2235.0469,185.5 L2232.75,185.5 Q2232.1406,185.5 2231.8906,185.2656 Q2231.625,185.0313 2231.625,184.6406 Q2231.625,184.2656 2231.9063,184.0313 Q2232.1719,183.7813 2232.7969,183.7969 L2235.4688,177.1406 L2234.3594,177.1406 Q2233.75,177.1406 2233.4844,176.9063 Q2233.2188,176.6719 2233.2188,176.2813 Q2233.2188,175.9063 2233.4844,175.6719 Q2233.75,175.4375 2234.3594,175.4375 L2238.0313,175.4375 L2241.4219,183.7969 Q2242.0156,183.7969 2242.2031,183.9375 Q2242.5938,184.2031 2242.5938,184.6563 Q2242.5938,185.0313 2242.3281,185.2656 Q2242.0781,185.5 2241.4688,185.5 L2239.1719,185.5 Q2238.5625,185.5 2238.2969,185.2656 Q2238.0313,185.0313 2238.0313,184.6406 Q2238.0313,184.2656 2238.2969,184.0313 Q2238.5625,183.7969 2239.1719,183.7969 L2239.5938,183.7969 L2239.1875,182.7656 Z M2238.4688,181.0625 L2237.1094,177.6875 L2235.7344,181.0625 L2238.4688,181.0625 Z " fill="#000000"/><text fill="#000000" font-family="sans-serif" font-size="14" font-style="italic" lengthAdjust="spacing" textLength="100" x="2251" y="186.7969">GameController</text><line style="stroke:#181818;stroke-width:0.5;" x1="2223" x2="2353" y1="197" y2="197"/><line style="stroke:#181818;stroke-width:0.5;" x1="2223" x2="2353" y1="205" y2="205"/></g><g id="elem_N_gui"><path d="M2257.5,6 L2257.5,50.582 L2574.5,50.582 L2574.5,16 L2564.5,6 L2257.5,6 " fill="#FEFFDD" style="stroke:#181818;stroke-width:0.5;"/><path d="M2564.5,6 L2564.5,16 L2574.5,16 L2564.5,6 " fill="#FEFFDD" style="stroke:#181818;stroke-width:1.0;"/><text fill="#000000" font-family="sans-serif" font-size="13" lengthAdjust="spacing" textLength="91" x="2263.5" y="25.0283">Voir diagramme</text><text fill="#000000" font-family="sans-serif" font-size="13" font-style="italic" lengthAdjust="spacing" textLength="52" x="2358.5" y="25.0283">class-gui</text><text fill="#000000" font-family="sans-serif" font-size="13" lengthAdjust="spacing" textLength="108" x="2414.5" y="25.0283">pour en savoir plus</text><text fill="#000000" font-family="sans-serif" font-size="13" lengthAdjust="spacing" textLength="296" x="2263.5" y="42.3193">sur ces packages et les classes qu'ils contiennent.</text></g><!--link N_gui to engine--><g id="link_N_gui_engine"><path codeLine="157" d="M2412.3,51.21 C2408.66,72.575 2402.96,106.045 2398.1088,134.5288 C2397.8055,136.309 2397.5057,138.0697 2397.2098,139.8068 C2397.1728,140.024 2397.1359,140.2408 2397.099,140.4571 " fill="none" id="N_gui-engine" style="stroke:#181818;stroke-width:1.0;stroke-dasharray:7.0,7.0;"/></g><!--link N_gui to gui--><g id="link_N_gui_gui"><path codeLine="158" d="M2416.69,51.1 C2418.79,116.285 2425.2825,318.0875 2431.2925,504.9138 C2434.2975,598.3269 2437.1819,687.9959 2439.3363,754.9717 C2439.8748,771.7157 2440.3678,787.0413 2440.8056,800.6525 " fill="none" id="N_gui-gui" style="stroke:#181818;stroke-width:1.0;stroke-dasharray:7.0,7.0;"/></g><!--reverse link GestionFichier to Resources--><!--reverse link Donnees to GestionFichier--><!--link engine to gui--><!--link GameController to Monde--><g id="link_GameController_Monde"><path codeLine="167" d="M2269.13,213.29 C2256.3,227.36 2238.07,244.21 2218,253 C1969.01,362.13 1862.12,210.84 1609,310 C1568.84,325.73 1529.61,349.23 1493.98,374.86 " fill="none" id="GameController-Monde" style="stroke:#181818;stroke-width:1.0;"/><text fill="#000000" font-family="sans-serif" font-size="13" lengthAdjust="spacing" textLength="7" x="1494.9454" y="363.9718">1</text></g><!--reverse link ElementMonde to Personnage--><g id="link_ElementMonde_Personnage"><path codeLine="168" d="M1858.1182,625.0075 C1856.0282,680.9675 1853.99,735.4 1851.95,789.92 " fill="none" id="ElementMonde-backto-Personnage" style="stroke:#181818;stroke-width:1.0;"/><polygon fill="none" points="1858.79,607.02,1852.1224,624.7835,1864.114,625.2314,1858.79,607.02" style="stroke:#181818;stroke-width:1.0;"/></g><!--reverse link Personnage to Heros--><g id="link_Personnage_Heros"><path codeLine="169" d="M1730.7947,961.1321 C1686.1647,995.1521 1649.2,1023.35 1607.79,1054.92 " fill="none" id="Personnage-backto-Heros" style="stroke:#181818;stroke-width:1.0;"/><polygon fill="none" points="1745.11,950.22,1727.1574,956.3603,1734.4321,965.9038,1745.11,950.22" style="stroke:#181818;stroke-width:1.0;"/></g><!--reverse link Personnage to Monstre--><g id="link_Personnage_Monstre"><path codeLine="170" d="M1912.2913,965.1589 C1940.4413,1007.0389 1963.73,1041.69 1986.42,1075.45 " fill="none" id="Personnage-backto-Monstre" style="stroke:#181818;stroke-width:1.0;"/><polygon fill="none" points="1902.25,950.22,1907.3117,968.506,1917.271,961.8118,1902.25,950.22" style="stroke:#181818;stroke-width:1.0;"/></g><!--reverse link Monstre to Walker--><g id="link_Monstre_Walker"><path codeLine="171" d="M2013,1174.92 C2013,1210.95 2013,1245.68 2013,1281.69 " fill="none" id="Monstre-backto-Walker" style="stroke:#181818;stroke-width:1.0;"/><polygon fill="none" points="2013,1156.92,2007,1174.92,2019,1174.92,2013,1156.92" style="stroke:#181818;stroke-width:1.0;"/></g><!--reverse link ElementMonde to Terrain--><g id="link_ElementMonde_Terrain"><path codeLine="173" d="M1843.1575,624.599 C1831.8775,667.149 1816.44,698.56 1781,730 C1707.22,795.46 1660.22,755.82 1566,785 C1551.48,789.5 1536.53,794.37 1521.56,799.44 " fill="none" id="ElementMonde-backto-Terrain" style="stroke:#181818;stroke-width:1.0;"/><polygon fill="none" points="1847.77,607.2,1837.3579,623.0615,1848.9572,626.1365,1847.77,607.2" style="stroke:#181818;stroke-width:1.0;"/></g><!--reverse link Terrain to Mur--><g id="link_Terrain_Mur"><path codeLine="174" d="M1258.6797,953.741 C1224.9797,989.801 1196.53,1020.26 1164.21,1054.84 " fill="none" id="Terrain-backto-Mur" style="stroke:#181818;stroke-width:1.0;"/><polygon fill="none" points="1270.97,940.59,1254.296,949.6442,1263.0634,957.8378,1270.97,940.59" style="stroke:#181818;stroke-width:1.0;"/></g><!--link Monde to Personnage--><g id="link_Monde_Personnage"><path codeLine="177" d="M1517.56,665.11 C1547.64,687.49 1578.85,709.85 1609,730 C1639.52,750.4 1673.16,770.98 1705.34,789.82 " fill="none" id="Monde-Personnage" style="stroke:#181818;stroke-width:1.0;"/><text fill="#000000" font-family="sans-serif" font-size="13" lengthAdjust="spacing" textLength="5" x="1686.8659" y="778.6992">*</text></g><!--link Monde to Terrain--><g id="link_Monde_Terrain"><path codeLine="178" d="M1336,665.06 C1336,711.43 1336,760.73 1336,799.24 " fill="none" id="Monde-Terrain" style="stroke:#181818;stroke-width:1.0;"/><text fill="#000000" font-family="sans-serif" font-size="13" lengthAdjust="spacing" textLength="5" x="1330.7422" y="788.1042">*</text></g><!--link Monde to GestionFichier--><g id="link_Monde_GestionFichier"><path codeLine="180" d="M1080.89,663.05 C989.41,713.98 891.15,768.69 818.91,808.92 " fill="none" id="Monde-GestionFichier" style="stroke:#181818;stroke-width:1.0;"/><text fill="#000000" font-family="sans-serif" font-size="13" lengthAdjust="spacing" textLength="7" x="823.9824" y="797.892">1</text></g><!--link ElementMonde to Sprite--><g id="link_ElementMonde_Sprite"><path codeLine="182" d="M1925.59,556.05 C2010,603.66 2162.32,693.39 2282,785 C2306.59,803.82 2332.31,828.04 2350.1,845.64 " fill="none" id="ElementMonde-Sprite" style="stroke:#181818;stroke-width:1.0;"/><text fill="#000000" font-family="sans-serif" font-size="13" lengthAdjust="spacing" textLength="5" x="2338.9088" y="834.6942">*</text></g><!--link Settings to Property--><g id="link_Settings_Property"><path codeLine="185" d="M266,250.34 C266,267.97 266,288.3 266,309.73 " fill="none" id="Settings-Property" style="stroke:#181818;stroke-width:1.0;"/></g><!--link Property to Getter--><g id="link_Property_Getter"><path codeLine="186" d="M307.48,730.21 C315.71,771.73 323.39,810.45 328.53,836.39 " fill="none" id="Property-Getter" style="stroke:#181818;stroke-width:1.0;"/><text fill="#000000" font-family="sans-serif" font-size="13" lengthAdjust="spacing" textLength="7" x="319.5672" y="825.1939">1</text></g><!--link Property to Setter--><g id="link_Property_Setter"><path codeLine="187" d="M223.92,730.21 C215.57,771.73 207.78,810.45 202.56,836.39 " fill="none" id="Property-Setter" style="stroke:#181818;stroke-width:1.0;"/><text fill="#000000" font-family="sans-serif" font-size="13" lengthAdjust="spacing" textLength="7" x="196.1624" y="825.1939">1</text></g><!--SRC=[lLVBRkCs5DthAmXtCNPZkPYkkWWCPE8y3DX942lDOZe8QEb69YAJAabv6appGVCTysEz5AcdvSTCYtfXYPVdFdYVL4h35ne3kL0XJO5yyJn2KaUR2nuP4i4VNIejQQX9c52bo4K2Q-2wZY3a9nA9R9a0-QjDU6qJLZJJaCasEQ4ohiYZqRdWg3OB3NOqSkGJQrX_uEM4joxx0f2ICbwQjbEK0_OBouUboSEMhSEMaODIzFpRLxqI4QYQtAKG2L1EGEb0qWr8HP6tiZb_M5ldcJni9uB-FnkTYLsElKEKuDoanrRODqo3Kd3eA9M8VITo9zXvGgTi_matWaKa-lOrJMW8iX-yfZ0NsIRFNQBhgr9k18cc0LkNaXj-Uk3N88MgV6GUmBCrQSWkN4F8_VJgEYXNiulBQX7StfNlazl7c-tCo7KTpWrhqlVxykZiw3nrAp7ckMrmH2PRu7yM-uR77cdo0aUKayNziC-QzTjgWWnpYozdBERGefsBvDZMTanaGf4aJ371-urs3E-7pVuClmwQkK9YqFM8LgK2UQKOLhl_WnNJ5kPYlgMFHf5hmAZAjMozZQbrZ5h_ILl0B8seXWdLjAqcN9bWodCgDVGNMZ8Uaz0i1kK4UQiFljjCiwGeF1la2Ie5g8hnX7nHcceMlkMnVPpUO0a_JIukpnvcmTFrHQtizqCVfvFWUWVozdussIyhHzH5Z5oUD3Bq2ciOq-IIXIjsJ7KqyGUoqJZtuoUIC0cEmVfPMJzpiNRaZjAv1oKo6TRywbS7dDFqr0PhIAPhZCkO80zejTUSaltXVcRol8XtIlLgi8sQyZJJ206wDkWpPTyRN6yTRCOUow0EwYXE-I7ZKP9pJT__TcDN_Pa8gMat-UDxcJlmpXI7iwl2lXV0_dP8uG41EqecpbYZNXQfn2RTHW6F6TznfRoYQy1yr1AxMfcafHud5RH6EufqgINBdHGfIFrwlg8yXaMMfa9gaeOsMKwsWQSVR1STa-SiIHQX1E27iMebFb-ckuLQvuwTTvl6zmeKEGt6f8V9NFALvmd8XYOPk9NpEaVFE8gfYVbhyx0pfZHma2XrIBgtq23tffoW_VxooncJYDZRsIjEIZ7zJdb3KjHlCCIcehKpSb6y3jfYZiKTKhSjUE1rzmpy1CZRHC6H3mnJqq6JaYrLADaI-dlSt-38-B_YEKkIfatF0hl09NRPVljm9ftGufc8-ovi0nT5osXuWWO9e-fAUb3aA8uJaCyuhqdFHg3AKhUsEMgz5NJnBLfyYoQVglYGamkDBByB9ad4Q2pfUWtab8tpMl6ndPp-miOanTw7NOCekZ78DCdK7-WZISpCS5r54T0amKVEYiy_itTcV8VOJ1ZWsEPwbDjpyuHYlVmV4y4resfjDZtldNKqtlzUHQQzQaBv7rSiYe1_ob9_t1gHNcl2Dh7kxk2vxbTkIXQlDEvRnQt-v_kazxxdlij7-KNE_dkrAv2FylyUDsvxdhtXkPqAwnKNzEqTTsbs6mxdUSM5h4k9-MPrT0V34spRcf_YvrvTsMvGAMW71BtHyhhNkERwlf7YcD6d8pU3CAJApGsl721-rGAziWkZX5o9ITisrIQpv_q3]--></g></svg>