<?xml version="1.0" encoding="us-ascii" standalone="no"?><svg xmlns="http://www.w3.org/2000/svg" xmlns:xlink="http://www.w3.org/1999/xlink" contentStyleType="text/css" height="1060.8px" preserveAspectRatio="none" style="width:2536px;height:1060px;background:#FFFFFF;" version="1.1" viewBox="0 0 2536 1060" width="2536.8px" zoomAndPan="magnify"><defs/><g><!--cluster engine--><g id="cluster_engine"><path d="M2039.6,232.592 L2079.6,232.592 A3,3 0 0 1 2081.6,234.592 L2087.2,252.2889 L2529.2,252.2889 A2,2 0 0 1 2531.2,254.2889 L2531.2,387.392 A2,2 0 0 1 2529.2,389.392 L2039.6,389.392 A2,2 0 0 1 2037.6,387.392 L2037.6,234.592 A2,2 0 0 1 2039.6,232.592 " fill="none" style="stroke:#000000;stroke-width:1.2000000000000002;"/><line style="stroke:#000000;stroke-width:1.2000000000000002;" x1="2037.6" x2="2087.2" y1="252.2889" y2="252.2889"/><text fill="#000000" font-family="sans-serif" font-size="11.2" font-weight="bold" lengthAdjust="spacing" textLength="39.2" x="2040.8" y="246.2779">engine</text></g><!--cluster cli--><g id="cluster_cli"><path d="M2045.2,33.792 L2058.8,33.792 A3,3 0 0 1 2060.8,35.792 L2066.4,53.4889 L2462,53.4889 A2,2 0 0 1 2464,55.4889 L2464,174.192 A2,2 0 0 1 2462,176.192 L2045.2,176.192 A2,2 0 0 1 2043.2,174.192 L2043.2,35.792 A2,2 0 0 1 2045.2,33.792 " fill="none" style="stroke:#000000;stroke-width:1.2000000000000002;"/><line style="stroke:#000000;stroke-width:1.2000000000000002;" x1="2043.2" x2="2066.4" y1="53.4889" y2="53.4889"/><text fill="#000000" font-family="sans-serif" font-size="11.2" font-weight="bold" lengthAdjust="spacing" textLength="12.8" x="2046.4" y="47.4779">cli</text></g><!--cluster gui--><g id="cluster_gui"><path d="M6.8,202.592 L25.2,202.592 A3,3 0 0 1 27.2,204.592 L32.8,222.2889 L2016.4,222.2889 A2,2 0 0 1 2018.4,224.2889 L2018.4,1053.392 A2,2 0 0 1 2016.4,1055.392 L6.8,1055.392 A2,2 0 0 1 4.8,1053.392 L4.8,204.592 A2,2 0 0 1 6.8,202.592 " fill="none" style="stroke:#000000;stroke-width:1.2000000000000002;"/><line style="stroke:#000000;stroke-width:1.2000000000000002;" x1="4.8" x2="32.8" y1="222.2889" y2="222.2889"/><text fill="#000000" font-family="sans-serif" font-size="11.2" font-weight="bold" lengthAdjust="spacing" textLength="17.6" x="8" y="216.2779">gui</text></g><!--cluster views--><g id="cluster_views"><path d="M26,444.192 L59.6,444.192 A3,3 0 0 1 61.6,446.192 L67.2,463.8889 L1997.2,463.8889 A2,2 0 0 1 1999.2,465.8889 L1999.2,674.192 A2,2 0 0 1 1997.2,676.192 L26,676.192 A2,2 0 0 1 24,674.192 L24,446.192 A2,2 0 0 1 26,444.192 " fill="none" style="stroke:#000000;stroke-width:1.2000000000000002;"/><line style="stroke:#000000;stroke-width:1.2000000000000002;" x1="24" x2="67.2" y1="463.8889" y2="463.8889"/><text fill="#000000" font-family="sans-serif" font-size="11.2" font-weight="bold" lengthAdjust="spacing" textLength="32.8" x="27.2" y="457.8779">views</text></g><!--cluster engine--><g id="cluster_engine"><path d="M1791.6,716.992 L1831.6,716.992 A3,3 0 0 1 1833.6,718.992 L1839.2,736.6889 L1997.2,736.6889 A2,2 0 0 1 1999.2,738.6889 L1999.2,1034.192 A2,2 0 0 1 1997.2,1036.192 L1791.6,1036.192 A2,2 0 0 1 1789.6,1034.192 L1789.6,718.992 A2,2 0 0 1 1791.6,716.992 " fill="none" style="stroke:#000000;stroke-width:1.2000000000000002;"/><line style="stroke:#000000;stroke-width:1.2000000000000002;" x1="1789.6" x2="1839.2" y1="736.6889" y2="736.6889"/><text fill="#000000" font-family="sans-serif" font-size="11.2" font-weight="bold" lengthAdjust="spacing" textLength="39.2" x="1792.8" y="730.6779">engine</text></g><!--class GameController--><g id="elem_GameController"><rect codeLine="3" fill="#F1F1F1" height="68.1938" id="GameController" rx="2" ry="2" style="stroke:#181818;stroke-width:0.4000000000000001;" width="112" x="2406.4" y="293.792"/><ellipse cx="2421.28" cy="306.592" fill="#A9DCDF" rx="8.8" ry="8.8" style="stroke:#181818;stroke-width:0.8000000000000002;"/><path d="M2423.03,308.0045 L2419.7175,308.0045 L2419.38,308.8295 L2419.7175,308.8295 Q2420.205,308.8295 2420.4175,309.017 Q2420.63,309.2045 2420.63,309.517 Q2420.63,309.817 2420.4175,310.0045 Q2420.205,310.192 2419.7175,310.192 L2417.88,310.192 Q2417.3925,310.192 2417.1925,310.0045 Q2416.98,309.817 2416.98,309.5045 Q2416.98,309.2045 2417.205,309.017 Q2417.4175,308.817 2417.9175,308.8295 L2420.055,303.5045 L2419.1675,303.5045 Q2418.68,303.5045 2418.4675,303.317 Q2418.255,303.1295 2418.255,302.817 Q2418.255,302.517 2418.4675,302.3295 Q2418.68,302.142 2419.1675,302.142 L2422.105,302.142 L2424.8175,308.8295 Q2425.2925,308.8295 2425.4425,308.942 Q2425.755,309.1545 2425.755,309.517 Q2425.755,309.817 2425.5425,310.0045 Q2425.3425,310.192 2424.855,310.192 L2423.0175,310.192 Q2422.53,310.192 2422.3175,310.0045 Q2422.105,309.817 2422.105,309.5045 Q2422.105,309.2045 2422.3175,309.017 Q2422.53,308.8295 2423.0175,308.8295 L2423.355,308.8295 L2423.03,308.0045 Z M2422.455,306.642 L2421.3675,303.942 L2420.2675,306.642 L2422.455,306.642 Z " fill="#000000"/><text fill="#000000" font-family="sans-serif" font-size="11.2" font-style="italic" lengthAdjust="spacing" textLength="80" x="2433.12" y="311.2295">GameController</text><line style="stroke:#181818;stroke-width:0.4000000000000001;" x1="2407.2" x2="2517.6" y1="319.392" y2="319.392"/><polygon fill="none" points="2415.2,327.2404,2418.4,330.4404,2415.2,333.6404,2412,330.4404" style="stroke:#B38D22;stroke-width:0.8000000000000002;"/><text fill="#000000" font-family="sans-serif" font-size="11.2" lengthAdjust="spacing" textLength="72" x="2422.4" y="334.6779">Monde monde</text><line style="stroke:#181818;stroke-width:0.8000000000000002;" x1="2407.2" x2="2517.6" y1="340.6889" y2="340.6889"/><ellipse cx="2415.2" cy="352.5373" fill="#84BE84" rx="2.4" ry="2.4" style="stroke:#038048;stroke-width:0.8000000000000002;"/><text fill="#000000" font-family="sans-serif" font-size="11.2" font-style="italic" lengthAdjust="spacing" textLength="91.2" x="2422.4" y="355.9748">update(long): void</text></g><!--class Engine--><g id="elem_Engine"><rect codeLine="9" fill="#F1F1F1" height="97.9875" id="Engine" rx="2" ry="2" style="stroke:#181818;stroke-width:0.4000000000000001;" width="126.4" x="2198.4" y="278.992"/><ellipse cx="2240.6" cy="291.792" fill="#A9DCDF" rx="8.8" ry="8.8" style="stroke:#181818;stroke-width:0.8000000000000002;"/><path d="M2242.35,293.2045 L2239.0375,293.2045 L2238.7,294.0295 L2239.0375,294.0295 Q2239.525,294.0295 2239.7375,294.217 Q2239.95,294.4045 2239.95,294.717 Q2239.95,295.017 2239.7375,295.2045 Q2239.525,295.392 2239.0375,295.392 L2237.2,295.392 Q2236.7125,295.392 2236.5125,295.2045 Q2236.3,295.017 2236.3,294.7045 Q2236.3,294.4045 2236.525,294.217 Q2236.7375,294.017 2237.2375,294.0295 L2239.375,288.7045 L2238.4875,288.7045 Q2238,288.7045 2237.7875,288.517 Q2237.575,288.3295 2237.575,288.017 Q2237.575,287.717 2237.7875,287.5295 Q2238,287.342 2238.4875,287.342 L2241.425,287.342 L2244.1375,294.0295 Q2244.6125,294.0295 2244.7625,294.142 Q2245.075,294.3545 2245.075,294.717 Q2245.075,295.017 2244.8625,295.2045 Q2244.6625,295.392 2244.175,295.392 L2242.3375,295.392 Q2241.85,295.392 2241.6375,295.2045 Q2241.425,295.017 2241.425,294.7045 Q2241.425,294.4045 2241.6375,294.217 Q2241.85,294.0295 2242.3375,294.0295 L2242.675,294.0295 L2242.35,293.2045 Z M2241.775,291.842 L2240.6875,289.142 L2239.5875,291.842 L2241.775,291.842 Z " fill="#000000"/><text fill="#000000" font-family="sans-serif" font-size="11.2" font-style="italic" lengthAdjust="spacing" textLength="35.2" x="2257" y="296.4295">Engine</text><line style="stroke:#181818;stroke-width:0.4000000000000001;" x1="2199.2" x2="2324" y1="304.592" y2="304.592"/><line style="stroke:#181818;stroke-width:0.4000000000000001;" x1="2199.2" x2="2324" y1="310.992" y2="310.992"/><ellipse cx="2207.2" cy="322.8404" fill="#84BE84" rx="2.4" ry="2.4" style="stroke:#038048;stroke-width:0.8000000000000002;"/><text fill="#000000" font-family="sans-serif" font-size="11.2" lengthAdjust="spacing" textLength="105.6" x="2214.4" y="326.2779">Engine(ui, controller)</text><ellipse cx="2207.2" cy="337.7373" fill="#84BE84" rx="2.4" ry="2.4" style="stroke:#038048;stroke-width:0.8000000000000002;"/><text fill="#000000" font-family="sans-serif" font-size="11.2" font-style="italic" lengthAdjust="spacing" textLength="56.8" x="2214.4" y="341.1748">start(): void</text><ellipse cx="2207.2" cy="352.6342" fill="#84BE84" rx="2.4" ry="2.4" style="stroke:#038048;stroke-width:0.8000000000000002;"/><text fill="#000000" font-family="sans-serif" font-size="11.2" font-style="italic" lengthAdjust="spacing" textLength="56" x="2214.4" y="356.0717">stop(): void</text><ellipse cx="2207.2" cy="367.5311" fill="#84BE84" rx="2.4" ry="2.4" style="stroke:#038048;stroke-width:0.8000000000000002;"/><text fill="#000000" font-family="sans-serif" font-size="11.2" font-style="italic" lengthAdjust="spacing" textLength="73.6" x="2214.4" y="370.9686">tick(long): void</text></g><!--class GameInterface--><g id="elem_GameInterface"><rect codeLine="16" fill="#F1F1F1" height="53.2969" id="GameInterface" rx="2" ry="2" style="stroke:#181818;stroke-width:0.4000000000000001;" width="100.8" x="2050.4" y="300.992"/><ellipse cx="2062.4" cy="313.792" fill="#B4A7E5" rx="8.8" ry="8.8" style="stroke:#181818;stroke-width:0.8000000000000002;"/><path d="M2063.1625,311.1045 L2063.1625,316.4295 L2064.5375,316.4295 Q2065.025,316.4295 2065.2375,316.617 Q2065.45,316.8045 2065.45,317.117 Q2065.45,317.417 2065.2375,317.6045 Q2065.025,317.792 2064.5375,317.792 L2060.425,317.792 Q2059.9375,317.792 2059.725,317.6045 Q2059.5125,317.417 2059.5125,317.1045 Q2059.5125,316.8045 2059.725,316.617 Q2059.9375,316.4295 2060.425,316.4295 L2061.8,316.4295 L2061.8,311.1045 L2060.425,311.1045 Q2059.9375,311.1045 2059.725,310.917 Q2059.5125,310.7295 2059.5125,310.417 Q2059.5125,310.117 2059.725,309.9295 Q2059.9375,309.742 2060.425,309.742 L2064.5375,309.742 Q2065.025,309.742 2065.2375,309.9295 Q2065.45,310.117 2065.45,310.417 Q2065.45,310.7295 2065.2375,310.917 Q2065.025,311.1045 2064.5375,311.1045 L2063.1625,311.1045 Z " fill="#000000"/><text fill="#000000" font-family="sans-serif" font-size="11.2" font-style="italic" lengthAdjust="spacing" textLength="75.2" x="2073.6" y="318.4295">GameInterface</text><line style="stroke:#181818;stroke-width:0.4000000000000001;" x1="2051.2" x2="2150.4" y1="326.592" y2="326.592"/><line style="stroke:#181818;stroke-width:0.4000000000000001;" x1="2051.2" x2="2150.4" y1="332.992" y2="332.992"/><ellipse cx="2059.2" cy="344.8404" fill="#84BE84" rx="2.4" ry="2.4" style="stroke:#038048;stroke-width:0.8000000000000002;"/><text fill="#000000" font-family="sans-serif" font-size="11.2" lengthAdjust="spacing" textLength="68.8" x="2066.4" y="348.2779">render(): void</text></g><!--class CLIController--><g id="elem_CLIController"><rect codeLine="22" fill="#F1F1F1" height="83.0906" id="CLIController" rx="2" ry="2" style="stroke:#181818;stroke-width:0.4000000000000001;" width="112.8" x="2338" y="80.192"/><ellipse cx="2359.36" cy="92.992" fill="#ADD1B2" rx="8.8" ry="8.8" style="stroke:#181818;stroke-width:0.8000000000000002;"/><path d="M2361.5725,89.692 Q2361.6975,89.517 2361.8475,89.4295 Q2361.9975,89.342 2362.1725,89.342 Q2362.4725,89.342 2362.66,89.5545 Q2362.8475,89.7545 2362.8475,90.242 L2362.8475,91.4045 Q2362.8475,91.892 2362.66,92.1045 Q2362.4725,92.317 2362.1725,92.317 Q2361.8975,92.317 2361.735,92.1545 Q2361.5725,92.0045 2361.485,91.592 Q2361.4475,91.3045 2361.2975,91.1545 Q2361.035,90.8545 2360.5475,90.6795 Q2360.06,90.5045 2359.56,90.5045 Q2358.9475,90.5045 2358.435,90.767 Q2357.935,91.0295 2357.535,91.6295 Q2357.1475,92.2295 2357.1475,93.0545 L2357.1475,93.9295 Q2357.1475,94.917 2357.86,95.5795 Q2358.5725,96.2295 2359.8475,96.2295 Q2360.5975,96.2295 2361.1225,96.0295 Q2361.435,95.9045 2361.7725,95.5545 Q2361.985,95.342 2362.0975,95.2795 Q2362.2225,95.217 2362.385,95.217 Q2362.6475,95.217 2362.8475,95.4295 Q2363.06,95.6295 2363.06,95.9045 Q2363.06,96.1795 2362.785,96.5045 Q2362.385,96.967 2361.7475,97.2295 Q2360.885,97.592 2359.8475,97.592 Q2358.635,97.592 2357.6725,97.092 Q2356.885,96.692 2356.335,95.842 Q2355.785,94.9795 2355.785,93.9545 L2355.785,93.0295 Q2355.785,91.967 2356.2725,91.0545 Q2356.7725,90.1295 2357.6475,89.642 Q2358.5225,89.142 2359.51,89.142 Q2360.0975,89.142 2360.61,89.2795 Q2361.135,89.4045 2361.5725,89.692 Z " fill="#000000"/><text fill="#000000" font-family="sans-serif" font-size="11.2" lengthAdjust="spacing" textLength="66.4" x="2372.64" y="97.6295">CLIController</text><line style="stroke:#181818;stroke-width:0.4000000000000001;" x1="2338.8" x2="2450" y1="105.792" y2="105.792"/><line style="stroke:#181818;stroke-width:0.4000000000000001;" x1="2338.8" x2="2450" y1="112.192" y2="112.192"/><ellipse cx="2346.8" cy="124.0404" fill="#84BE84" rx="2.4" ry="2.4" style="stroke:#038048;stroke-width:0.8000000000000002;"/><text fill="#000000" font-family="sans-serif" font-size="11.2" lengthAdjust="spacing" textLength="57.6" x="2354" y="127.4779">start(): void</text><ellipse cx="2346.8" cy="138.9373" fill="#84BE84" rx="2.4" ry="2.4" style="stroke:#038048;stroke-width:0.8000000000000002;"/><text fill="#000000" font-family="sans-serif" font-size="11.2" lengthAdjust="spacing" textLength="56.8" x="2354" y="142.3748">stop(): void</text><ellipse cx="2346.8" cy="153.8342" fill="#84BE84" rx="2.4" ry="2.4" style="stroke:#038048;stroke-width:0.8000000000000002;"/><text fill="#000000" font-family="sans-serif" font-size="11.2" lengthAdjust="spacing" textLength="92" x="2354" y="157.2717">update(long): void</text></g><!--class CLIEngine--><g id="elem_CLIEngine"><rect codeLine="28" fill="#F1F1F1" height="83.0906" id="CLIEngine" rx="2" ry="2" style="stroke:#181818;stroke-width:0.4000000000000001;" width="94.4" x="2215.2" y="80.192"/><ellipse cx="2234.76" cy="92.992" fill="#ADD1B2" rx="8.8" ry="8.8" style="stroke:#181818;stroke-width:0.8000000000000002;"/><path d="M2236.9725,89.692 Q2237.0975,89.517 2237.2475,89.4295 Q2237.3975,89.342 2237.5725,89.342 Q2237.8725,89.342 2238.06,89.5545 Q2238.2475,89.7545 2238.2475,90.242 L2238.2475,91.4045 Q2238.2475,91.892 2238.06,92.1045 Q2237.8725,92.317 2237.5725,92.317 Q2237.2975,92.317 2237.135,92.1545 Q2236.9725,92.0045 2236.885,91.592 Q2236.8475,91.3045 2236.6975,91.1545 Q2236.435,90.8545 2235.9475,90.6795 Q2235.46,90.5045 2234.96,90.5045 Q2234.3475,90.5045 2233.835,90.767 Q2233.335,91.0295 2232.935,91.6295 Q2232.5475,92.2295 2232.5475,93.0545 L2232.5475,93.9295 Q2232.5475,94.917 2233.26,95.5795 Q2233.9725,96.2295 2235.2475,96.2295 Q2235.9975,96.2295 2236.5225,96.0295 Q2236.835,95.9045 2237.1725,95.5545 Q2237.385,95.342 2237.4975,95.2795 Q2237.6225,95.217 2237.785,95.217 Q2238.0475,95.217 2238.2475,95.4295 Q2238.46,95.6295 2238.46,95.9045 Q2238.46,96.1795 2238.185,96.5045 Q2237.785,96.967 2237.1475,97.2295 Q2236.285,97.592 2235.2475,97.592 Q2234.035,97.592 2233.0725,97.092 Q2232.285,96.692 2231.735,95.842 Q2231.185,94.9795 2231.185,93.9545 L2231.185,93.0295 Q2231.185,91.967 2231.6725,91.0545 Q2232.1725,90.1295 2233.0475,89.642 Q2233.9225,89.142 2234.91,89.142 Q2235.4975,89.142 2236.01,89.2795 Q2236.535,89.4045 2236.9725,89.692 Z " fill="#000000"/><text fill="#000000" font-family="sans-serif" font-size="11.2" lengthAdjust="spacing" textLength="52" x="2247.64" y="97.6295">CLIEngine</text><line style="stroke:#181818;stroke-width:0.4000000000000001;" x1="2216" x2="2308.8" y1="105.792" y2="105.792"/><line style="stroke:#181818;stroke-width:0.4000000000000001;" x1="2216" x2="2308.8" y1="112.192" y2="112.192"/><ellipse cx="2224" cy="124.0404" fill="#84BE84" rx="2.4" ry="2.4" style="stroke:#038048;stroke-width:0.8000000000000002;"/><text fill="#000000" font-family="sans-serif" font-size="11.2" lengthAdjust="spacing" textLength="57.6" x="2231.2" y="127.4779">start(): void</text><ellipse cx="2224" cy="138.9373" fill="#84BE84" rx="2.4" ry="2.4" style="stroke:#038048;stroke-width:0.8000000000000002;"/><text fill="#000000" font-family="sans-serif" font-size="11.2" lengthAdjust="spacing" textLength="56.8" x="2231.2" y="142.3748">stop(): void</text><ellipse cx="2224" cy="153.8342" fill="#84BE84" rx="2.4" ry="2.4" style="stroke:#038048;stroke-width:0.8000000000000002;"/><text fill="#000000" font-family="sans-serif" font-size="11.2" lengthAdjust="spacing" textLength="73.6" x="2231.2" y="157.2717">tick(long): void</text></g><!--class CLI--><g id="elem_CLI"><rect codeLine="34" fill="#F1F1F1" height="53.2969" id="CLI" rx="2" ry="2" style="stroke:#181818;stroke-width:0.4000000000000001;" width="89.6" x="2056" y="94.992"/><ellipse cx="2089.24" cy="107.792" fill="#ADD1B2" rx="8.8" ry="8.8" style="stroke:#181818;stroke-width:0.8000000000000002;"/><path d="M2091.4525,104.492 Q2091.5775,104.317 2091.7275,104.2295 Q2091.8775,104.142 2092.0525,104.142 Q2092.3525,104.142 2092.54,104.3545 Q2092.7275,104.5545 2092.7275,105.042 L2092.7275,106.2045 Q2092.7275,106.692 2092.54,106.9045 Q2092.3525,107.117 2092.0525,107.117 Q2091.7775,107.117 2091.615,106.9545 Q2091.4525,106.8045 2091.365,106.392 Q2091.3275,106.1045 2091.1775,105.9545 Q2090.915,105.6545 2090.4275,105.4795 Q2089.94,105.3045 2089.44,105.3045 Q2088.8275,105.3045 2088.315,105.567 Q2087.815,105.8295 2087.415,106.4295 Q2087.0275,107.0295 2087.0275,107.8545 L2087.0275,108.7295 Q2087.0275,109.717 2087.74,110.3795 Q2088.4525,111.0295 2089.7275,111.0295 Q2090.4775,111.0295 2091.0025,110.8295 Q2091.315,110.7045 2091.6525,110.3545 Q2091.865,110.142 2091.9775,110.0795 Q2092.1025,110.017 2092.265,110.017 Q2092.5275,110.017 2092.7275,110.2295 Q2092.94,110.4295 2092.94,110.7045 Q2092.94,110.9795 2092.665,111.3045 Q2092.265,111.767 2091.6275,112.0295 Q2090.765,112.392 2089.7275,112.392 Q2088.515,112.392 2087.5525,111.892 Q2086.765,111.492 2086.215,110.642 Q2085.665,109.7795 2085.665,108.7545 L2085.665,107.8295 Q2085.665,106.767 2086.1525,105.8545 Q2086.6525,104.9295 2087.5275,104.442 Q2088.4025,103.942 2089.39,103.942 Q2089.9775,103.942 2090.49,104.0795 Q2091.015,104.2045 2091.4525,104.492 Z " fill="#000000"/><text fill="#000000" font-family="sans-serif" font-size="11.2" lengthAdjust="spacing" textLength="16.8" x="2105.16" y="112.4295">CLI</text><line style="stroke:#181818;stroke-width:0.4000000000000001;" x1="2056.8" x2="2144.8" y1="120.592" y2="120.592"/><line style="stroke:#181818;stroke-width:0.4000000000000001;" x1="2056.8" x2="2144.8" y1="126.992" y2="126.992"/><ellipse cx="2064.8" cy="138.8404" fill="#84BE84" rx="2.4" ry="2.4" style="stroke:#038048;stroke-width:0.8000000000000002;"/><text fill="#000000" font-family="sans-serif" font-size="11.2" lengthAdjust="spacing" textLength="68.8" x="2072" y="142.2779">render(): void</text></g><!--class View--><g id="elem_View"><rect codeLine="40" fill="#F1F1F1" height="142.6781" id="View" rx="2" ry="2" style="stroke:#181818;stroke-width:0.4000000000000001;" width="184" x="1341.6" y="256.592"/><ellipse cx="1418.6" cy="269.392" fill="#A9DCDF" rx="8.8" ry="8.8" style="stroke:#181818;stroke-width:0.8000000000000002;"/><path d="M1420.35,270.8045 L1417.0375,270.8045 L1416.7,271.6295 L1417.0375,271.6295 Q1417.525,271.6295 1417.7375,271.817 Q1417.95,272.0045 1417.95,272.317 Q1417.95,272.617 1417.7375,272.8045 Q1417.525,272.992 1417.0375,272.992 L1415.2,272.992 Q1414.7125,272.992 1414.5125,272.8045 Q1414.3,272.617 1414.3,272.3045 Q1414.3,272.0045 1414.525,271.817 Q1414.7375,271.617 1415.2375,271.6295 L1417.375,266.3045 L1416.4875,266.3045 Q1416,266.3045 1415.7875,266.117 Q1415.575,265.9295 1415.575,265.617 Q1415.575,265.317 1415.7875,265.1295 Q1416,264.942 1416.4875,264.942 L1419.425,264.942 L1422.1375,271.6295 Q1422.6125,271.6295 1422.7625,271.742 Q1423.075,271.9545 1423.075,272.317 Q1423.075,272.617 1422.8625,272.8045 Q1422.6625,272.992 1422.175,272.992 L1420.3375,272.992 Q1419.85,272.992 1419.6375,272.8045 Q1419.425,272.617 1419.425,272.3045 Q1419.425,272.0045 1419.6375,271.817 Q1419.85,271.6295 1420.3375,271.6295 L1420.675,271.6295 L1420.35,270.8045 Z M1419.775,269.442 L1418.6875,266.742 L1417.5875,269.442 L1419.775,269.442 Z " fill="#000000"/><text fill="#000000" font-family="sans-serif" font-size="11.2" font-style="italic" lengthAdjust="spacing" textLength="23.2" x="1435" y="274.0295">View</text><line style="stroke:#181818;stroke-width:0.4000000000000001;" x1="1342.4" x2="1524.8" y1="282.192" y2="282.192"/><polygon fill="none" points="1350.4,290.0404,1353.6,293.2404,1350.4,296.4404,1347.2,293.2404" style="stroke:#B38D22;stroke-width:0.8000000000000002;"/><text fill="#000000" font-family="sans-serif" font-size="11.2" lengthAdjust="spacing" textLength="56.8" x="1357.6" y="297.4779">Parent root</text><line style="stroke:#181818;stroke-width:0.8000000000000002;" x1="1342.4" x2="1524.8" y1="303.4889" y2="303.4889"/><ellipse cx="1350.4" cy="315.3373" fill="#84BE84" rx="2.4" ry="2.4" style="stroke:#038048;stroke-width:0.8000000000000002;"/><text fill="#000000" font-family="sans-serif" font-size="11.2" lengthAdjust="spacing" textLength="88" x="1357.6" y="318.7748">getRoot(): Parent</text><ellipse cx="1350.4" cy="330.2342" fill="#84BE84" rx="2.4" ry="2.4" style="stroke:#038048;stroke-width:0.8000000000000002;"/><text fill="#000000" font-family="sans-serif" font-size="11.2" lengthAdjust="spacing" textLength="128" x="1357.6" y="333.6717">enableRootEvents(): void</text><ellipse cx="1350.4" cy="345.1311" fill="#84BE84" rx="2.4" ry="2.4" style="stroke:#038048;stroke-width:0.8000000000000002;"/><text fill="#000000" font-family="sans-serif" font-size="11.2" lengthAdjust="spacing" textLength="85.6" x="1357.6" y="348.5686">onViewInit(): void</text><ellipse cx="1350.4" cy="360.0279" fill="#84BE84" rx="2.4" ry="2.4" style="stroke:#038048;stroke-width:0.8000000000000002;"/><text fill="#000000" font-family="sans-serif" font-size="11.2" lengthAdjust="spacing" textLength="163.2" x="1357.6" y="363.4654">onViewDisplayed(Object...): void</text><ellipse cx="1350.4" cy="374.9248" fill="#84BE84" rx="2.4" ry="2.4" style="stroke:#038048;stroke-width:0.8000000000000002;"/><text fill="#000000" font-family="sans-serif" font-size="11.2" lengthAdjust="spacing" textLength="156.8" x="1357.6" y="378.3623">onKeyPressed(KeyEvent): void</text><ellipse cx="1350.4" cy="389.8217" fill="#84BE84" rx="2.4" ry="2.4" style="stroke:#038048;stroke-width:0.8000000000000002;"/><text fill="#000000" font-family="sans-serif" font-size="11.2" lengthAdjust="spacing" textLength="163.2" x="1357.6" y="393.2592">onKeyReleased(KeyEvent): void</text></g><!--class ViewController--><g id="elem_ViewController"><rect codeLine="51" fill="#F1F1F1" height="53.2969" id="ViewController" rx="2" ry="2" style="stroke:#181818;stroke-width:0.4000000000000001;" width="133.6" x="714" y="300.992"/><ellipse cx="741.84" cy="313.792" fill="#A9DCDF" rx="8.8" ry="8.8" style="stroke:#181818;stroke-width:0.8000000000000002;"/><path d="M743.59,315.2045 L740.2775,315.2045 L739.94,316.0295 L740.2775,316.0295 Q740.765,316.0295 740.9775,316.217 Q741.19,316.4045 741.19,316.717 Q741.19,317.017 740.9775,317.2045 Q740.765,317.392 740.2775,317.392 L738.44,317.392 Q737.9525,317.392 737.7525,317.2045 Q737.54,317.017 737.54,316.7045 Q737.54,316.4045 737.765,316.217 Q737.9775,316.017 738.4775,316.0295 L740.615,310.7045 L739.7275,310.7045 Q739.24,310.7045 739.0275,310.517 Q738.815,310.3295 738.815,310.017 Q738.815,309.717 739.0275,309.5295 Q739.24,309.342 739.7275,309.342 L742.665,309.342 L745.3775,316.0295 Q745.8525,316.0295 746.0025,316.142 Q746.315,316.3545 746.315,316.717 Q746.315,317.017 746.1025,317.2045 Q745.9025,317.392 745.415,317.392 L743.5775,317.392 Q743.09,317.392 742.8775,317.2045 Q742.665,317.017 742.665,316.7045 Q742.665,316.4045 742.8775,316.217 Q743.09,316.0295 743.5775,316.0295 L743.915,316.0295 L743.59,315.2045 Z M743.015,313.842 L741.9275,311.142 L740.8275,313.842 L743.015,313.842 Z " fill="#000000"/><text fill="#000000" font-family="sans-serif" font-size="11.2" font-style="italic" lengthAdjust="spacing" textLength="72.8" x="756.56" y="318.4295">ViewController</text><line style="stroke:#181818;stroke-width:0.4000000000000001;" x1="714.8" x2="846.8" y1="326.592" y2="326.592"/><line style="stroke:#181818;stroke-width:0.4000000000000001;" x1="714.8" x2="846.8" y1="332.992" y2="332.992"/><ellipse cx="722.8" cy="344.8404" fill="#84BE84" rx="2.4" ry="2.4" style="stroke:#038048;stroke-width:0.8000000000000002;"/><text fill="#000000" font-family="sans-serif" font-size="11.2" font-style="italic" lengthAdjust="spacing" textLength="112.8" x="730" y="348.2779">applyLanguage(): void</text></g><!--class VIEWS--><g id="elem_VIEWS"><rect codeLine="55" fill="#F1F1F1" height="97.9875" id="VIEWS" rx="2" ry="2" style="stroke:#181818;stroke-width:0.4000000000000001;" width="64" x="496" y="278.992"/><ellipse cx="509.8" cy="291.792" fill="#EB937F" rx="8.8" ry="8.8" style="stroke:#181818;stroke-width:0.8000000000000002;"/><path d="M508.8875,292.4295 L508.8875,294.4295 L512.35,294.4295 L512.35,293.692 Q512.35,293.2045 512.5375,292.992 Q512.7375,292.7795 513.0375,292.7795 Q513.3375,292.7795 513.525,292.992 Q513.7125,293.2045 513.7125,293.692 L513.7125,295.792 L507.3125,295.792 Q506.8125,295.792 506.6,295.6045 Q506.4,295.417 506.4,295.1045 Q506.4,294.8045 506.6125,294.617 Q506.825,294.4295 507.3125,294.4295 L507.525,294.4295 L507.525,289.1045 L507.3125,289.1045 Q506.8125,289.1045 506.6,288.917 Q506.4,288.7295 506.4,288.417 Q506.4,288.117 506.6,287.9295 Q506.8125,287.742 507.3125,287.742 L513.4125,287.742 L513.4125,289.817 Q513.4125,290.3045 513.225,290.517 Q513.05,290.717 512.7375,290.717 Q512.4375,290.717 512.25,290.517 Q512.0625,290.3045 512.0625,289.817 L512.0625,289.1045 L508.8875,289.1045 L508.8875,291.067 L510.075,291.067 Q510.075,290.542 510.175,290.392 Q510.3875,290.067 510.7625,290.067 Q511.0625,290.067 511.25,290.2795 Q511.4375,290.4795 511.4375,290.967 L511.4375,292.542 Q511.4375,292.9795 511.3375,293.1295 Q511.125,293.442 510.7625,293.442 Q510.3875,293.442 510.175,293.117 Q510.075,292.967 510.075,292.4295 L508.8875,292.4295 Z " fill="#000000"/><text fill="#000000" font-family="sans-serif" font-size="11.2" lengthAdjust="spacing" textLength="34.4" x="521.4" y="296.4295">VIEWS</text><line style="stroke:#181818;stroke-width:0.4000000000000001;" x1="496.8" x2="559.2" y1="304.592" y2="304.592"/><text fill="#000000" font-family="sans-serif" font-size="11.2" lengthAdjust="spacing" textLength="32" x="500.8" y="319.8779">HOME</text><text fill="#000000" font-family="sans-serif" font-size="11.2" lengthAdjust="spacing" textLength="32" x="500.8" y="334.7748">GAME</text><text fill="#000000" font-family="sans-serif" font-size="11.2" lengthAdjust="spacing" textLength="54.4" x="500.8" y="349.6717">SETTINGS</text><text fill="#000000" font-family="sans-serif" font-size="11.2" lengthAdjust="spacing" textLength="36" x="500.8" y="364.5686">SAVES</text><line style="stroke:#181818;stroke-width:0.4000000000000001;" x1="496.8" x2="559.2" y1="370.5795" y2="370.5795"/></g><!--class ViewManager--><g id="elem_ViewManager"><rect codeLine="62" fill="#F1F1F1" height="157.575" id="ViewManager" rx="2" ry="2" style="stroke:#181818;stroke-width:0.4000000000000001;" width="196" x="1589.2" y="248.992"/><ellipse cx="1649.8" cy="261.792" fill="#ADD1B2" rx="8.8" ry="8.8" style="stroke:#181818;stroke-width:0.8000000000000002;"/><path d="M1652.0125,258.492 Q1652.1375,258.317 1652.2875,258.2295 Q1652.4375,258.142 1652.6125,258.142 Q1652.9125,258.142 1653.1,258.3545 Q1653.2875,258.5545 1653.2875,259.042 L1653.2875,260.2045 Q1653.2875,260.692 1653.1,260.9045 Q1652.9125,261.117 1652.6125,261.117 Q1652.3375,261.117 1652.175,260.9545 Q1652.0125,260.8045 1651.925,260.392 Q1651.8875,260.1045 1651.7375,259.9545 Q1651.475,259.6545 1650.9875,259.4795 Q1650.5,259.3045 1650,259.3045 Q1649.3875,259.3045 1648.875,259.567 Q1648.375,259.8295 1647.975,260.4295 Q1647.5875,261.0295 1647.5875,261.8545 L1647.5875,262.7295 Q1647.5875,263.717 1648.3,264.3795 Q1649.0125,265.0295 1650.2875,265.0295 Q1651.0375,265.0295 1651.5625,264.8295 Q1651.875,264.7045 1652.2125,264.3545 Q1652.425,264.142 1652.5375,264.0795 Q1652.6625,264.017 1652.825,264.017 Q1653.0875,264.017 1653.2875,264.2295 Q1653.5,264.4295 1653.5,264.7045 Q1653.5,264.9795 1653.225,265.3045 Q1652.825,265.767 1652.1875,266.0295 Q1651.325,266.392 1650.2875,266.392 Q1649.075,266.392 1648.1125,265.892 Q1647.325,265.492 1646.775,264.642 Q1646.225,263.7795 1646.225,262.7545 L1646.225,261.8295 Q1646.225,260.767 1646.7125,259.8545 Q1647.2125,258.9295 1648.0875,258.442 Q1648.9625,257.942 1649.95,257.942 Q1650.5375,257.942 1651.05,258.0795 Q1651.575,258.2045 1652.0125,258.492 Z " fill="#000000"/><text fill="#000000" font-family="sans-serif" font-size="11.2" lengthAdjust="spacing" textLength="68" x="1666.2" y="266.4295">ViewManager</text><line style="stroke:#181818;stroke-width:0.4000000000000001;" x1="1590" x2="1784.4" y1="274.592" y2="274.592"/><rect fill="none" height="4.8" style="stroke:#C82930;stroke-width:0.8000000000000002;" width="4.8" x="1595.6" y="284.0404"/><text fill="#000000" font-family="sans-serif" font-size="11.2" lengthAdjust="spacing" text-decoration="underline" textLength="116.8" x="1605.2" y="289.8779">instance: ViewManager</text><rect fill="none" height="4.8" style="stroke:#C82930;stroke-width:0.8000000000000002;" width="4.8" x="1595.6" y="298.9373"/><text fill="#000000" font-family="sans-serif" font-size="11.2" lengthAdjust="spacing" textLength="64" x="1605.2" y="304.7748">stage: Stage</text><line style="stroke:#181818;stroke-width:0.8000000000000002;" x1="1590" x2="1784.4" y1="310.7858" y2="310.7858"/><rect fill="#F24D5C" height="4.8" style="stroke:#C82930;stroke-width:0.8000000000000002;" width="4.8" x="1595.6" y="320.2342"/><text fill="#000000" font-family="sans-serif" font-size="11.2" lengthAdjust="spacing" textLength="76" x="1605.2" y="326.0717">ViewManager()</text><ellipse cx="1598" cy="337.5311" fill="#84BE84" rx="2.4" ry="2.4" style="stroke:#038048;stroke-width:0.8000000000000002;"/><text fill="#000000" font-family="sans-serif" font-size="11.2" lengthAdjust="spacing" text-decoration="underline" textLength="140.8" x="1605.2" y="340.9686">getInstance(): ViewManager</text><ellipse cx="1598" cy="352.4279" fill="#84BE84" rx="2.4" ry="2.4" style="stroke:#038048;stroke-width:0.8000000000000002;"/><text fill="#000000" font-family="sans-serif" font-size="11.2" lengthAdjust="spacing" textLength="109.6" x="1605.2" y="355.8654">setStage(Stage): void</text><ellipse cx="1598" cy="367.3248" fill="#84BE84" rx="2.4" ry="2.4" style="stroke:#038048;stroke-width:0.8000000000000002;"/><text fill="#000000" font-family="sans-serif" font-size="11.2" lengthAdjust="spacing" textLength="160.8" x="1605.2" y="370.7623">registerView(VIEWS, View): void</text><ellipse cx="1598" cy="382.2217" fill="#84BE84" rx="2.4" ry="2.4" style="stroke:#038048;stroke-width:0.8000000000000002;"/><text fill="#000000" font-family="sans-serif" font-size="11.2" lengthAdjust="spacing" textLength="175.2" x="1605.2" y="385.6592">navigateTo(VIEWS, Object...): void</text><ellipse cx="1598" cy="397.1186" fill="#84BE84" rx="2.4" ry="2.4" style="stroke:#038048;stroke-width:0.8000000000000002;"/><text fill="#000000" font-family="sans-serif" font-size="11.2" lengthAdjust="spacing" textLength="53.6" x="1605.2" y="400.5561">quit(): void</text></g><!--class Sprite--><g id="elem_Sprite"><rect codeLine="148" fill="#F1F1F1" height="68.1938" id="Sprite" rx="2" ry="2" style="stroke:#181818;stroke-width:0.4000000000000001;" width="71.2" x="144.4" y="293.792"/><ellipse cx="163.6" cy="306.592" fill="#ADD1B2" rx="8.8" ry="8.8" style="stroke:#181818;stroke-width:0.8000000000000002;"/><path d="M165.8125,303.292 Q165.9375,303.117 166.0875,303.0295 Q166.2375,302.942 166.4125,302.942 Q166.7125,302.942 166.9,303.1545 Q167.0875,303.3545 167.0875,303.842 L167.0875,305.0045 Q167.0875,305.492 166.9,305.7045 Q166.7125,305.917 166.4125,305.917 Q166.1375,305.917 165.975,305.7545 Q165.8125,305.6045 165.725,305.192 Q165.6875,304.9045 165.5375,304.7545 Q165.275,304.4545 164.7875,304.2795 Q164.3,304.1045 163.8,304.1045 Q163.1875,304.1045 162.675,304.367 Q162.175,304.6295 161.775,305.2295 Q161.3875,305.8295 161.3875,306.6545 L161.3875,307.5295 Q161.3875,308.517 162.1,309.1795 Q162.8125,309.8295 164.0875,309.8295 Q164.8375,309.8295 165.3625,309.6295 Q165.675,309.5045 166.0125,309.1545 Q166.225,308.942 166.3375,308.8795 Q166.4625,308.817 166.625,308.817 Q166.8875,308.817 167.0875,309.0295 Q167.3,309.2295 167.3,309.5045 Q167.3,309.7795 167.025,310.1045 Q166.625,310.567 165.9875,310.8295 Q165.125,311.192 164.0875,311.192 Q162.875,311.192 161.9125,310.692 Q161.125,310.292 160.575,309.442 Q160.025,308.5795 160.025,307.5545 L160.025,306.6295 Q160.025,305.567 160.5125,304.6545 Q161.0125,303.7295 161.8875,303.242 Q162.7625,302.742 163.75,302.742 Q164.3375,302.742 164.85,302.8795 Q165.375,303.0045 165.8125,303.292 Z " fill="#000000"/><text fill="#000000" font-family="sans-serif" font-size="11.2" lengthAdjust="spacing" textLength="29.6" x="176.4" y="311.2295">Sprite</text><line style="stroke:#181818;stroke-width:0.4000000000000001;" x1="145.2" x2="214.8" y1="319.392" y2="319.392"/><rect fill="none" height="4.8" style="stroke:#C82930;stroke-width:0.8000000000000002;" width="4.8" x="150.8" y="328.8404"/><text fill="#000000" font-family="sans-serif" font-size="11.2" lengthAdjust="spacing" textLength="45.6" x="160.4" y="334.6779">String uri</text><line style="stroke:#181818;stroke-width:0.4000000000000001;" x1="145.2" x2="214.8" y1="340.6889" y2="340.6889"/><ellipse cx="153.2" cy="352.5373" fill="#84BE84" rx="2.4" ry="2.4" style="stroke:#038048;stroke-width:0.8000000000000002;"/><text fill="#000000" font-family="sans-serif" font-size="11.2" lengthAdjust="spacing" textLength="50.4" x="160.4" y="355.9748">Sprite(uri)</text></g><!--class HomeViewController--><g id="elem_HomeViewController"><rect codeLine="75" fill="#F1F1F1" height="97.9875" id="HomeViewController" rx="2" ry="2" style="stroke:#181818;stroke-width:0.4000000000000001;" width="134.4" x="543.2" y="528.192"/><ellipse cx="558.44" cy="540.992" fill="#ADD1B2" rx="8.8" ry="8.8" style="stroke:#181818;stroke-width:0.8000000000000002;"/><path d="M560.6525,537.692 Q560.7775,537.517 560.9275,537.4295 Q561.0775,537.342 561.2525,537.342 Q561.5525,537.342 561.74,537.5545 Q561.9275,537.7545 561.9275,538.242 L561.9275,539.4045 Q561.9275,539.892 561.74,540.1045 Q561.5525,540.317 561.2525,540.317 Q560.9775,540.317 560.815,540.1545 Q560.6525,540.0045 560.565,539.592 Q560.5275,539.3045 560.3775,539.1545 Q560.115,538.8545 559.6275,538.6795 Q559.14,538.5045 558.64,538.5045 Q558.0275,538.5045 557.515,538.767 Q557.015,539.0295 556.615,539.6295 Q556.2275,540.2295 556.2275,541.0545 L556.2275,541.9295 Q556.2275,542.917 556.94,543.5795 Q557.6525,544.2295 558.9275,544.2295 Q559.6775,544.2295 560.2025,544.0295 Q560.515,543.9045 560.8525,543.5545 Q561.065,543.342 561.1775,543.2795 Q561.3025,543.217 561.465,543.217 Q561.7275,543.217 561.9275,543.4295 Q562.14,543.6295 562.14,543.9045 Q562.14,544.1795 561.865,544.5045 Q561.465,544.967 560.8275,545.2295 Q559.965,545.592 558.9275,545.592 Q557.715,545.592 556.7525,545.092 Q555.965,544.692 555.415,543.842 Q554.865,542.9795 554.865,541.9545 L554.865,541.0295 Q554.865,539.967 555.3525,539.0545 Q555.8525,538.1295 556.7275,537.642 Q557.6025,537.142 558.59,537.142 Q559.1775,537.142 559.69,537.2795 Q560.215,537.4045 560.6525,537.692 Z " fill="#000000"/><text fill="#000000" font-family="sans-serif" font-size="11.2" lengthAdjust="spacing" textLength="101.6" x="570.36" y="545.6295">HomeViewController</text><line style="stroke:#181818;stroke-width:0.4000000000000001;" x1="544" x2="676.8" y1="553.792" y2="553.792"/><line style="stroke:#181818;stroke-width:0.4000000000000001;" x1="544" x2="676.8" y1="560.192" y2="560.192"/><ellipse cx="552" cy="572.0404" fill="#84BE84" rx="2.4" ry="2.4" style="stroke:#038048;stroke-width:0.8000000000000002;"/><text fill="#000000" font-family="sans-serif" font-size="11.2" lengthAdjust="spacing" textLength="113.6" x="559.2" y="575.4779">applyLanguage(): void</text><rect fill="#F24D5C" height="4.8" style="stroke:#C82930;stroke-width:0.8000000000000002;" width="4.8" x="549.6" y="584.5373"/><text fill="#000000" font-family="sans-serif" font-size="11.2" lengthAdjust="spacing" textLength="96" x="559.2" y="590.3748">onClickStart(): void</text><rect fill="#F24D5C" height="4.8" style="stroke:#C82930;stroke-width:0.8000000000000002;" width="4.8" x="549.6" y="599.4342"/><text fill="#000000" font-family="sans-serif" font-size="11.2" lengthAdjust="spacing" textLength="112.8" x="559.2" y="605.2717">onClickSettings(): void</text><rect fill="#F24D5C" height="4.8" style="stroke:#C82930;stroke-width:0.8000000000000002;" width="4.8" x="549.6" y="614.3311"/><text fill="#000000" font-family="sans-serif" font-size="11.2" lengthAdjust="spacing" textLength="92.8" x="559.2" y="620.1686">onClickQuit(): void</text></g><!--class GameViewController--><g id="elem_GameViewController"><rect codeLine="82" fill="#F1F1F1" height="142.6781" id="GameViewController" rx="2" ry="2" style="stroke:#181818;stroke-width:0.4000000000000001;" width="150.4" x="705.6" y="505.792"/><ellipse cx="727.32" cy="518.592" fill="#ADD1B2" rx="8.8" ry="8.8" style="stroke:#181818;stroke-width:0.8000000000000002;"/><path d="M729.5325,515.292 Q729.6575,515.117 729.8075,515.0295 Q729.9575,514.942 730.1325,514.942 Q730.4325,514.942 730.62,515.1545 Q730.8075,515.3545 730.8075,515.842 L730.8075,517.0045 Q730.8075,517.492 730.62,517.7045 Q730.4325,517.917 730.1325,517.917 Q729.8575,517.917 729.695,517.7545 Q729.5325,517.6045 729.445,517.192 Q729.4075,516.9045 729.2575,516.7545 Q728.995,516.4545 728.5075,516.2795 Q728.02,516.1045 727.52,516.1045 Q726.9075,516.1045 726.395,516.367 Q725.895,516.6295 725.495,517.2295 Q725.1075,517.8295 725.1075,518.6545 L725.1075,519.5295 Q725.1075,520.517 725.82,521.1795 Q726.5325,521.8295 727.8075,521.8295 Q728.5575,521.8295 729.0825,521.6295 Q729.395,521.5045 729.7325,521.1545 Q729.945,520.942 730.0575,520.8795 Q730.1825,520.817 730.345,520.817 Q730.6075,520.817 730.8075,521.0295 Q731.02,521.2295 731.02,521.5045 Q731.02,521.7795 730.745,522.1045 Q730.345,522.567 729.7075,522.8295 Q728.845,523.192 727.8075,523.192 Q726.595,523.192 725.6325,522.692 Q724.845,522.292 724.295,521.442 Q723.745,520.5795 723.745,519.5545 L723.745,518.6295 Q723.745,517.567 724.2325,516.6545 Q724.7325,515.7295 725.6075,515.242 Q726.4825,514.742 727.47,514.742 Q728.0575,514.742 728.57,514.8795 Q729.095,515.0045 729.5325,515.292 Z " fill="#000000"/><text fill="#000000" font-family="sans-serif" font-size="11.2" lengthAdjust="spacing" textLength="103.2" x="740.68" y="523.2295">GameViewController</text><line style="stroke:#181818;stroke-width:0.4000000000000001;" x1="706.4" x2="855.2" y1="531.392" y2="531.392"/><rect fill="none" height="4.8" style="stroke:#C82930;stroke-width:0.8000000000000002;" width="4.8" x="712" y="540.8404"/><text fill="#000000" font-family="sans-serif" font-size="11.2" lengthAdjust="spacing" textLength="86.4" x="721.6" y="546.6779">pane: StackPane</text><rect fill="none" height="4.8" style="stroke:#C82930;stroke-width:0.8000000000000002;" width="4.8" x="712" y="555.7373"/><text fill="#000000" font-family="sans-serif" font-size="11.2" lengthAdjust="spacing" textLength="80.8" x="721.6" y="561.5748">canvas: Canvas</text><rect fill="none" height="4.8" style="stroke:#C82930;stroke-width:0.8000000000000002;" width="4.8" x="712" y="570.6342"/><text fill="#000000" font-family="sans-serif" font-size="11.2" lengthAdjust="spacing" textLength="81.6" x="721.6" y="576.4717">overlay: Canvas</text><line style="stroke:#181818;stroke-width:0.8000000000000002;" x1="706.4" x2="855.2" y1="582.4826" y2="582.4826"/><ellipse cx="714.4" cy="594.3311" fill="#84BE84" rx="2.4" ry="2.4" style="stroke:#038048;stroke-width:0.8000000000000002;"/><text fill="#000000" font-family="sans-serif" font-size="11.2" lengthAdjust="spacing" textLength="113.6" x="721.6" y="597.7686">applyLanguage(): void</text><ellipse cx="714.4" cy="609.2279" fill="#84BE84" rx="2.4" ry="2.4" style="stroke:#038048;stroke-width:0.8000000000000002;"/><text fill="#000000" font-family="sans-serif" font-size="11.2" lengthAdjust="spacing" textLength="111.2" x="721.6" y="612.6654">getPane(): StackPane</text><ellipse cx="714.4" cy="624.1248" fill="#84BE84" rx="2.4" ry="2.4" style="stroke:#038048;stroke-width:0.8000000000000002;"/><text fill="#000000" font-family="sans-serif" font-size="11.2" lengthAdjust="spacing" textLength="129.6" x="721.6" y="627.5623">getGameBoard(): Canvas</text><ellipse cx="714.4" cy="639.0217" fill="#84BE84" rx="2.4" ry="2.4" style="stroke:#038048;stroke-width:0.8000000000000002;"/><text fill="#000000" font-family="sans-serif" font-size="11.2" lengthAdjust="spacing" textLength="108" x="721.6" y="642.4592">getOverlay(): Canvas</text></g><!--class SettingsViewController--><g id="elem_SettingsViewController"><rect codeLine="93" fill="#F1F1F1" height="142.6781" id="SettingsViewController" rx="2" ry="2" style="stroke:#181818;stroke-width:0.4000000000000001;" width="216.8" x="884.4" y="505.792"/><ellipse cx="932.6" cy="518.592" fill="#ADD1B2" rx="8.8" ry="8.8" style="stroke:#181818;stroke-width:0.8000000000000002;"/><path d="M934.8125,515.292 Q934.9375,515.117 935.0875,515.0295 Q935.2375,514.942 935.4125,514.942 Q935.7125,514.942 935.9,515.1545 Q936.0875,515.3545 936.0875,515.842 L936.0875,517.0045 Q936.0875,517.492 935.9,517.7045 Q935.7125,517.917 935.4125,517.917 Q935.1375,517.917 934.975,517.7545 Q934.8125,517.6045 934.725,517.192 Q934.6875,516.9045 934.5375,516.7545 Q934.275,516.4545 933.7875,516.2795 Q933.3,516.1045 932.8,516.1045 Q932.1875,516.1045 931.675,516.367 Q931.175,516.6295 930.775,517.2295 Q930.3875,517.8295 930.3875,518.6545 L930.3875,519.5295 Q930.3875,520.517 931.1,521.1795 Q931.8125,521.8295 933.0875,521.8295 Q933.8375,521.8295 934.3625,521.6295 Q934.675,521.5045 935.0125,521.1545 Q935.225,520.942 935.3375,520.8795 Q935.4625,520.817 935.625,520.817 Q935.8875,520.817 936.0875,521.0295 Q936.3,521.2295 936.3,521.5045 Q936.3,521.7795 936.025,522.1045 Q935.625,522.567 934.9875,522.8295 Q934.125,523.192 933.0875,523.192 Q931.875,523.192 930.9125,522.692 Q930.125,522.292 929.575,521.442 Q929.025,520.5795 929.025,519.5545 L929.025,518.6295 Q929.025,517.567 929.5125,516.6545 Q930.0125,515.7295 930.8875,515.242 Q931.7625,514.742 932.75,514.742 Q933.3375,514.742 933.85,514.8795 Q934.375,515.0045 934.8125,515.292 Z " fill="#000000"/><text fill="#000000" font-family="sans-serif" font-size="11.2" lengthAdjust="spacing" textLength="113.6" x="949" y="523.2295">SettingsViewController</text><line style="stroke:#181818;stroke-width:0.4000000000000001;" x1="885.2" x2="1100.4" y1="531.392" y2="531.392"/><rect fill="none" height="4.8" style="stroke:#C82930;stroke-width:0.8000000000000002;" width="4.8" x="890.8" y="540.8404"/><text fill="#000000" font-family="sans-serif" font-size="11.2" lengthAdjust="spacing" textLength="157.6" x="900.4" y="546.6779">fullScreenCheckBox: CheckBox</text><rect fill="none" height="4.8" style="stroke:#C82930;stroke-width:0.8000000000000002;" width="4.8" x="890.8" y="555.7373"/><text fill="#000000" font-family="sans-serif" font-size="11.2" lengthAdjust="spacing" textLength="162.4" x="900.4" y="561.5748">languageComboBox: ComboBox</text><line style="stroke:#181818;stroke-width:0.8000000000000002;" x1="885.2" x2="1100.4" y1="567.5858" y2="567.5858"/><ellipse cx="893.2" cy="579.4342" fill="#84BE84" rx="2.4" ry="2.4" style="stroke:#038048;stroke-width:0.8000000000000002;"/><text fill="#000000" font-family="sans-serif" font-size="11.2" lengthAdjust="spacing" textLength="113.6" x="900.4" y="582.8717">applyLanguage(): void</text><ellipse cx="893.2" cy="594.3311" fill="#84BE84" rx="2.4" ry="2.4" style="stroke:#038048;stroke-width:0.8000000000000002;"/><text fill="#000000" font-family="sans-serif" font-size="11.2" lengthAdjust="spacing" textLength="190.4" x="900.4" y="597.7686">getLanguageComboBox(): ComboBox</text><ellipse cx="893.2" cy="609.2279" fill="#84BE84" rx="2.4" ry="2.4" style="stroke:#038048;stroke-width:0.8000000000000002;"/><text fill="#000000" font-family="sans-serif" font-size="11.2" lengthAdjust="spacing" textLength="196" x="900.4" y="612.6654">setFullScreenCheckBox(boolean): void</text><rect fill="#F24D5C" height="4.8" style="stroke:#C82930;stroke-width:0.8000000000000002;" width="4.8" x="890.8" y="621.7248"/><text fill="#000000" font-family="sans-serif" font-size="11.2" lengthAdjust="spacing" textLength="137.6" x="900.4" y="627.5623">onFullScreenToggle(): void</text><rect fill="#F24D5C" height="4.8" style="stroke:#C82930;stroke-width:0.8000000000000002;" width="4.8" x="890.8" y="636.6217"/><text fill="#000000" font-family="sans-serif" font-size="11.2" lengthAdjust="spacing" textLength="96.8" x="900.4" y="642.4592">onClickBack(): void</text></g><!--class SavesViewController--><g id="elem_SavesViewController"><rect codeLine="104" fill="#F1F1F1" height="97.9875" id="SavesViewController" rx="2" ry="2" style="stroke:#181818;stroke-width:0.4000000000000001;" width="240.8" x="274" y="528.192"/><ellipse cx="339" cy="540.992" fill="#ADD1B2" rx="8.8" ry="8.8" style="stroke:#181818;stroke-width:0.8000000000000002;"/><path d="M341.2125,537.692 Q341.3375,537.517 341.4875,537.4295 Q341.6375,537.342 341.8125,537.342 Q342.1125,537.342 342.3,537.5545 Q342.4875,537.7545 342.4875,538.242 L342.4875,539.4045 Q342.4875,539.892 342.3,540.1045 Q342.1125,540.317 341.8125,540.317 Q341.5375,540.317 341.375,540.1545 Q341.2125,540.0045 341.125,539.592 Q341.0875,539.3045 340.9375,539.1545 Q340.675,538.8545 340.1875,538.6795 Q339.7,538.5045 339.2,538.5045 Q338.5875,538.5045 338.075,538.767 Q337.575,539.0295 337.175,539.6295 Q336.7875,540.2295 336.7875,541.0545 L336.7875,541.9295 Q336.7875,542.917 337.5,543.5795 Q338.2125,544.2295 339.4875,544.2295 Q340.2375,544.2295 340.7625,544.0295 Q341.075,543.9045 341.4125,543.5545 Q341.625,543.342 341.7375,543.2795 Q341.8625,543.217 342.025,543.217 Q342.2875,543.217 342.4875,543.4295 Q342.7,543.6295 342.7,543.9045 Q342.7,544.1795 342.425,544.5045 Q342.025,544.967 341.3875,545.2295 Q340.525,545.592 339.4875,545.592 Q338.275,545.592 337.3125,545.092 Q336.525,544.692 335.975,543.842 Q335.425,542.9795 335.425,541.9545 L335.425,541.0295 Q335.425,539.967 335.9125,539.0545 Q336.4125,538.1295 337.2875,537.642 Q338.1625,537.142 339.15,537.142 Q339.7375,537.142 340.25,537.2795 Q340.775,537.4045 341.2125,537.692 Z " fill="#000000"/><text fill="#000000" font-family="sans-serif" font-size="11.2" lengthAdjust="spacing" textLength="104" x="355.4" y="545.6295">SavesViewController</text><line style="stroke:#181818;stroke-width:0.4000000000000001;" x1="274.8" x2="514" y1="553.792" y2="553.792"/><rect fill="none" height="4.8" style="stroke:#C82930;stroke-width:0.8000000000000002;" width="4.8" x="280.4" y="563.2404"/><text fill="#000000" font-family="sans-serif" font-size="11.2" lengthAdjust="spacing" textLength="180" x="290" y="569.0779">savesListView: ListView&lt;SaveData&gt;</text><rect fill="none" height="4.8" style="stroke:#C82930;stroke-width:0.8000000000000002;" width="4.8" x="280.4" y="578.1373"/><text fill="#000000" font-family="sans-serif" font-size="11.2" lengthAdjust="spacing" textLength="192" x="290" y="583.9748">savesList: ObservableList&lt;SaveData&gt;</text><line style="stroke:#181818;stroke-width:0.8000000000000002;" x1="274.8" x2="514" y1="589.9858" y2="589.9858"/><ellipse cx="282.8" cy="601.8342" fill="#84BE84" rx="2.4" ry="2.4" style="stroke:#038048;stroke-width:0.8000000000000002;"/><text fill="#000000" font-family="sans-serif" font-size="11.2" lengthAdjust="spacing" textLength="113.6" x="290" y="605.2717">applyLanguage(): void</text><ellipse cx="282.8" cy="616.7311" fill="#84BE84" rx="2.4" ry="2.4" style="stroke:#038048;stroke-width:0.8000000000000002;"/><text fill="#000000" font-family="sans-serif" font-size="11.2" lengthAdjust="spacing" textLength="220" x="290" y="620.1686">setSaves(ObservableList&lt;SaveData&gt;): void</text></g><!--class HomeView--><g id="elem_HomeView"><rect codeLine="112" fill="#F1F1F1" height="83.0906" id="HomeView" rx="2" ry="2" style="stroke:#181818;stroke-width:0.4000000000000001;" width="184" x="1341.6" y="535.392"/><ellipse cx="1404.2" cy="548.192" fill="#ADD1B2" rx="8.8" ry="8.8" style="stroke:#181818;stroke-width:0.8000000000000002;"/><path d="M1406.4125,544.892 Q1406.5375,544.717 1406.6875,544.6295 Q1406.8375,544.542 1407.0125,544.542 Q1407.3125,544.542 1407.5,544.7545 Q1407.6875,544.9545 1407.6875,545.442 L1407.6875,546.6045 Q1407.6875,547.092 1407.5,547.3045 Q1407.3125,547.517 1407.0125,547.517 Q1406.7375,547.517 1406.575,547.3545 Q1406.4125,547.2045 1406.325,546.792 Q1406.2875,546.5045 1406.1375,546.3545 Q1405.875,546.0545 1405.3875,545.8795 Q1404.9,545.7045 1404.4,545.7045 Q1403.7875,545.7045 1403.275,545.967 Q1402.775,546.2295 1402.375,546.8295 Q1401.9875,547.4295 1401.9875,548.2545 L1401.9875,549.1295 Q1401.9875,550.117 1402.7,550.7795 Q1403.4125,551.4295 1404.6875,551.4295 Q1405.4375,551.4295 1405.9625,551.2295 Q1406.275,551.1045 1406.6125,550.7545 Q1406.825,550.542 1406.9375,550.4795 Q1407.0625,550.417 1407.225,550.417 Q1407.4875,550.417 1407.6875,550.6295 Q1407.9,550.8295 1407.9,551.1045 Q1407.9,551.3795 1407.625,551.7045 Q1407.225,552.167 1406.5875,552.4295 Q1405.725,552.792 1404.6875,552.792 Q1403.475,552.792 1402.5125,552.292 Q1401.725,551.892 1401.175,551.042 Q1400.625,550.1795 1400.625,549.1545 L1400.625,548.2295 Q1400.625,547.167 1401.1125,546.2545 Q1401.6125,545.3295 1402.4875,544.842 Q1403.3625,544.342 1404.35,544.342 Q1404.9375,544.342 1405.45,544.4795 Q1405.975,544.6045 1406.4125,544.892 Z " fill="#000000"/><text fill="#000000" font-family="sans-serif" font-size="11.2" lengthAdjust="spacing" textLength="52" x="1420.6" y="552.8295">HomeView</text><line style="stroke:#181818;stroke-width:0.4000000000000001;" x1="1342.4" x2="1524.8" y1="560.992" y2="560.992"/><line style="stroke:#181818;stroke-width:0.4000000000000001;" x1="1342.4" x2="1524.8" y1="567.392" y2="567.392"/><ellipse cx="1350.4" cy="579.2404" fill="#84BE84" rx="2.4" ry="2.4" style="stroke:#038048;stroke-width:0.8000000000000002;"/><text fill="#000000" font-family="sans-serif" font-size="11.2" lengthAdjust="spacing" textLength="60" x="1357.6" y="582.6779">HomeView()</text><ellipse cx="1350.4" cy="594.1373" fill="#84BE84" rx="2.4" ry="2.4" style="stroke:#038048;stroke-width:0.8000000000000002;"/><text fill="#000000" font-family="sans-serif" font-size="11.2" lengthAdjust="spacing" textLength="163.2" x="1357.6" y="597.5748">onViewDisplayed(Object...): void</text><ellipse cx="1350.4" cy="609.0342" fill="#84BE84" rx="2.4" ry="2.4" style="stroke:#038048;stroke-width:0.8000000000000002;"/><text fill="#000000" font-family="sans-serif" font-size="11.2" lengthAdjust="spacing" textLength="156.8" x="1357.6" y="612.4717">onKeyPressed(KeyEvent): void</text></g><!--class GameView--><g id="elem_GameView"><rect codeLine="118" fill="#F1F1F1" height="172.4719" id="GameView" rx="2" ry="2" style="stroke:#181818;stroke-width:0.4000000000000001;" width="220" x="1766" y="490.592"/><ellipse cx="1845.8" cy="503.392" fill="#ADD1B2" rx="8.8" ry="8.8" style="stroke:#181818;stroke-width:0.8000000000000002;"/><path d="M1848.0125,500.092 Q1848.1375,499.917 1848.2875,499.8295 Q1848.4375,499.742 1848.6125,499.742 Q1848.9125,499.742 1849.1,499.9545 Q1849.2875,500.1545 1849.2875,500.642 L1849.2875,501.8045 Q1849.2875,502.292 1849.1,502.5045 Q1848.9125,502.717 1848.6125,502.717 Q1848.3375,502.717 1848.175,502.5545 Q1848.0125,502.4045 1847.925,501.992 Q1847.8875,501.7045 1847.7375,501.5545 Q1847.475,501.2545 1846.9875,501.0795 Q1846.5,500.9045 1846,500.9045 Q1845.3875,500.9045 1844.875,501.167 Q1844.375,501.4295 1843.975,502.0295 Q1843.5875,502.6295 1843.5875,503.4545 L1843.5875,504.3295 Q1843.5875,505.317 1844.3,505.9795 Q1845.0125,506.6295 1846.2875,506.6295 Q1847.0375,506.6295 1847.5625,506.4295 Q1847.875,506.3045 1848.2125,505.9545 Q1848.425,505.742 1848.5375,505.6795 Q1848.6625,505.617 1848.825,505.617 Q1849.0875,505.617 1849.2875,505.8295 Q1849.5,506.0295 1849.5,506.3045 Q1849.5,506.5795 1849.225,506.9045 Q1848.825,507.367 1848.1875,507.6295 Q1847.325,507.992 1846.2875,507.992 Q1845.075,507.992 1844.1125,507.492 Q1843.325,507.092 1842.775,506.242 Q1842.225,505.3795 1842.225,504.3545 L1842.225,503.4295 Q1842.225,502.367 1842.7125,501.4545 Q1843.2125,500.5295 1844.0875,500.042 Q1844.9625,499.542 1845.95,499.542 Q1846.5375,499.542 1847.05,499.6795 Q1847.575,499.8045 1848.0125,500.092 Z " fill="#000000"/><text fill="#000000" font-family="sans-serif" font-size="11.2" lengthAdjust="spacing" textLength="53.6" x="1862.2" y="508.0295">GameView</text><line style="stroke:#181818;stroke-width:0.4000000000000001;" x1="1766.8" x2="1985.2" y1="516.192" y2="516.192"/><line style="stroke:#181818;stroke-width:0.4000000000000001;" x1="1766.8" x2="1985.2" y1="522.592" y2="522.592"/><ellipse cx="1774.8" cy="534.4404" fill="#84BE84" rx="2.4" ry="2.4" style="stroke:#038048;stroke-width:0.8000000000000002;"/><text fill="#000000" font-family="sans-serif" font-size="11.2" lengthAdjust="spacing" textLength="61.6" x="1782" y="537.8779">GameView()</text><ellipse cx="1774.8" cy="549.3373" fill="#84BE84" rx="2.4" ry="2.4" style="stroke:#038048;stroke-width:0.8000000000000002;"/><text fill="#000000" font-family="sans-serif" font-size="11.2" lengthAdjust="spacing" textLength="163.2" x="1782" y="552.7748">onViewDisplayed(Object...): void</text><ellipse cx="1774.8" cy="564.2342" fill="#84BE84" rx="2.4" ry="2.4" style="stroke:#038048;stroke-width:0.8000000000000002;"/><text fill="#000000" font-family="sans-serif" font-size="11.2" lengthAdjust="spacing" textLength="68.8" x="1782" y="567.6717">render(): void</text><ellipse cx="1774.8" cy="579.1311" fill="#84BE84" rx="2.4" ry="2.4" style="stroke:#038048;stroke-width:0.8000000000000002;"/><text fill="#000000" font-family="sans-serif" font-size="11.2" lengthAdjust="spacing" textLength="100" x="1782" y="582.5686">save(boolean): void</text><ellipse cx="1774.8" cy="594.0279" fill="#84BE84" rx="2.4" ry="2.4" style="stroke:#038048;stroke-width:0.8000000000000002;"/><text fill="#000000" font-family="sans-serif" font-size="11.2" lengthAdjust="spacing" textLength="53.6" x="1782" y="597.4654">quit(): void</text><ellipse cx="1774.8" cy="608.9248" fill="#84BE84" rx="2.4" ry="2.4" style="stroke:#038048;stroke-width:0.8000000000000002;"/><text fill="#000000" font-family="sans-serif" font-size="11.2" lengthAdjust="spacing" textLength="72.8" x="1782" y="612.3623">resume(): void</text><rect fill="#F24D5C" height="4.8" style="stroke:#C82930;stroke-width:0.8000000000000002;" width="4.8" x="1772.4" y="621.4217"/><text fill="#000000" font-family="sans-serif" font-size="11.2" lengthAdjust="spacing" textLength="199.2" x="1782" y="627.2592">drawGameBoard(Canvas, double): void</text><rect fill="#F24D5C" height="4.8" style="stroke:#C82930;stroke-width:0.8000000000000002;" width="4.8" x="1772.4" y="636.3186"/><text fill="#000000" font-family="sans-serif" font-size="11.2" lengthAdjust="spacing" textLength="136.8" x="1782" y="642.1561">drawOverlay(Canvas): void</text><rect fill="#F24D5C" height="4.8" style="stroke:#C82930;stroke-width:0.8000000000000002;" width="4.8" x="1772.4" y="651.2154"/><text fill="#000000" font-family="sans-serif" font-size="11.2" lengthAdjust="spacing" textLength="136.8" x="1782" y="657.0529">clearCanvas(Canvas): void</text></g><!--class SettingsView--><g id="elem_SettingsView"><rect codeLine="130" fill="#F1F1F1" height="83.0906" id="SettingsView" rx="2" ry="2" style="stroke:#181818;stroke-width:0.4000000000000001;" width="184" x="1553.6" y="535.392"/><ellipse cx="1610.2" cy="548.192" fill="#ADD1B2" rx="8.8" ry="8.8" style="stroke:#181818;stroke-width:0.8000000000000002;"/><path d="M1612.4125,544.892 Q1612.5375,544.717 1612.6875,544.6295 Q1612.8375,544.542 1613.0125,544.542 Q1613.3125,544.542 1613.5,544.7545 Q1613.6875,544.9545 1613.6875,545.442 L1613.6875,546.6045 Q1613.6875,547.092 1613.5,547.3045 Q1613.3125,547.517 1613.0125,547.517 Q1612.7375,547.517 1612.575,547.3545 Q1612.4125,547.2045 1612.325,546.792 Q1612.2875,546.5045 1612.1375,546.3545 Q1611.875,546.0545 1611.3875,545.8795 Q1610.9,545.7045 1610.4,545.7045 Q1609.7875,545.7045 1609.275,545.967 Q1608.775,546.2295 1608.375,546.8295 Q1607.9875,547.4295 1607.9875,548.2545 L1607.9875,549.1295 Q1607.9875,550.117 1608.7,550.7795 Q1609.4125,551.4295 1610.6875,551.4295 Q1611.4375,551.4295 1611.9625,551.2295 Q1612.275,551.1045 1612.6125,550.7545 Q1612.825,550.542 1612.9375,550.4795 Q1613.0625,550.417 1613.225,550.417 Q1613.4875,550.417 1613.6875,550.6295 Q1613.9,550.8295 1613.9,551.1045 Q1613.9,551.3795 1613.625,551.7045 Q1613.225,552.167 1612.5875,552.4295 Q1611.725,552.792 1610.6875,552.792 Q1609.475,552.792 1608.5125,552.292 Q1607.725,551.892 1607.175,551.042 Q1606.625,550.1795 1606.625,549.1545 L1606.625,548.2295 Q1606.625,547.167 1607.1125,546.2545 Q1607.6125,545.3295 1608.4875,544.842 Q1609.3625,544.342 1610.35,544.342 Q1610.9375,544.342 1611.45,544.4795 Q1611.975,544.6045 1612.4125,544.892 Z " fill="#000000"/><text fill="#000000" font-family="sans-serif" font-size="11.2" lengthAdjust="spacing" textLength="64" x="1626.6" y="552.8295">SettingsView</text><line style="stroke:#181818;stroke-width:0.4000000000000001;" x1="1554.4" x2="1736.8" y1="560.992" y2="560.992"/><line style="stroke:#181818;stroke-width:0.4000000000000001;" x1="1554.4" x2="1736.8" y1="567.392" y2="567.392"/><ellipse cx="1562.4" cy="579.2404" fill="#84BE84" rx="2.4" ry="2.4" style="stroke:#038048;stroke-width:0.8000000000000002;"/><text fill="#000000" font-family="sans-serif" font-size="11.2" lengthAdjust="spacing" textLength="72" x="1569.6" y="582.6779">SettingsView()</text><ellipse cx="1562.4" cy="594.1373" fill="#84BE84" rx="2.4" ry="2.4" style="stroke:#038048;stroke-width:0.8000000000000002;"/><text fill="#000000" font-family="sans-serif" font-size="11.2" lengthAdjust="spacing" textLength="85.6" x="1569.6" y="597.5748">onViewInit(): void</text><ellipse cx="1562.4" cy="609.0342" fill="#84BE84" rx="2.4" ry="2.4" style="stroke:#038048;stroke-width:0.8000000000000002;"/><text fill="#000000" font-family="sans-serif" font-size="11.2" lengthAdjust="spacing" textLength="163.2" x="1569.6" y="612.4717">onViewDisplayed(Object...): void</text></g><!--class SavesView--><g id="elem_SavesView"><rect codeLine="136" fill="#F1F1F1" height="68.1938" id="SavesView" rx="2" ry="2" style="stroke:#181818;stroke-width:0.4000000000000001;" width="184" x="1129.6" y="542.992"/><ellipse cx="1191" cy="555.792" fill="#ADD1B2" rx="8.8" ry="8.8" style="stroke:#181818;stroke-width:0.8000000000000002;"/><path d="M1193.2125,552.492 Q1193.3375,552.317 1193.4875,552.2295 Q1193.6375,552.142 1193.8125,552.142 Q1194.1125,552.142 1194.3,552.3545 Q1194.4875,552.5545 1194.4875,553.042 L1194.4875,554.2045 Q1194.4875,554.692 1194.3,554.9045 Q1194.1125,555.117 1193.8125,555.117 Q1193.5375,555.117 1193.375,554.9545 Q1193.2125,554.8045 1193.125,554.392 Q1193.0875,554.1045 1192.9375,553.9545 Q1192.675,553.6545 1192.1875,553.4795 Q1191.7,553.3045 1191.2,553.3045 Q1190.5875,553.3045 1190.075,553.567 Q1189.575,553.8295 1189.175,554.4295 Q1188.7875,555.0295 1188.7875,555.8545 L1188.7875,556.7295 Q1188.7875,557.717 1189.5,558.3795 Q1190.2125,559.0295 1191.4875,559.0295 Q1192.2375,559.0295 1192.7625,558.8295 Q1193.075,558.7045 1193.4125,558.3545 Q1193.625,558.142 1193.7375,558.0795 Q1193.8625,558.017 1194.025,558.017 Q1194.2875,558.017 1194.4875,558.2295 Q1194.7,558.4295 1194.7,558.7045 Q1194.7,558.9795 1194.425,559.3045 Q1194.025,559.767 1193.3875,560.0295 Q1192.525,560.392 1191.4875,560.392 Q1190.275,560.392 1189.3125,559.892 Q1188.525,559.492 1187.975,558.642 Q1187.425,557.7795 1187.425,556.7545 L1187.425,555.8295 Q1187.425,554.767 1187.9125,553.8545 Q1188.4125,552.9295 1189.2875,552.442 Q1190.1625,551.942 1191.15,551.942 Q1191.7375,551.942 1192.25,552.0795 Q1192.775,552.2045 1193.2125,552.492 Z " fill="#000000"/><text fill="#000000" font-family="sans-serif" font-size="11.2" lengthAdjust="spacing" textLength="54.4" x="1207.4" y="560.4295">SavesView</text><line style="stroke:#181818;stroke-width:0.4000000000000001;" x1="1130.4" x2="1312.8" y1="568.592" y2="568.592"/><line style="stroke:#181818;stroke-width:0.4000000000000001;" x1="1130.4" x2="1312.8" y1="574.992" y2="574.992"/><ellipse cx="1138.4" cy="586.8404" fill="#84BE84" rx="2.4" ry="2.4" style="stroke:#038048;stroke-width:0.8000000000000002;"/><text fill="#000000" font-family="sans-serif" font-size="11.2" lengthAdjust="spacing" textLength="62.4" x="1145.6" y="590.2779">SavesView()</text><ellipse cx="1138.4" cy="601.7373" fill="#84BE84" rx="2.4" ry="2.4" style="stroke:#038048;stroke-width:0.8000000000000002;"/><text fill="#000000" font-family="sans-serif" font-size="11.2" lengthAdjust="spacing" textLength="163.2" x="1145.6" y="605.1748">onViewDisplayed(Object...): void</text></g><!--class SaveComponent--><g id="elem_SaveComponent"><rect codeLine="141" fill="#F1F1F1" height="83.0906" id="SaveComponent" rx="2" ry="2" style="stroke:#181818;stroke-width:0.4000000000000001;" width="208.8" x="37.2" y="535.392"/><ellipse cx="96.2" cy="548.192" fill="#ADD1B2" rx="8.8" ry="8.8" style="stroke:#181818;stroke-width:0.8000000000000002;"/><path d="M98.4125,544.892 Q98.5375,544.717 98.6875,544.6295 Q98.8375,544.542 99.0125,544.542 Q99.3125,544.542 99.5,544.7545 Q99.6875,544.9545 99.6875,545.442 L99.6875,546.6045 Q99.6875,547.092 99.5,547.3045 Q99.3125,547.517 99.0125,547.517 Q98.7375,547.517 98.575,547.3545 Q98.4125,547.2045 98.325,546.792 Q98.2875,546.5045 98.1375,546.3545 Q97.875,546.0545 97.3875,545.8795 Q96.9,545.7045 96.4,545.7045 Q95.7875,545.7045 95.275,545.967 Q94.775,546.2295 94.375,546.8295 Q93.9875,547.4295 93.9875,548.2545 L93.9875,549.1295 Q93.9875,550.117 94.7,550.7795 Q95.4125,551.4295 96.6875,551.4295 Q97.4375,551.4295 97.9625,551.2295 Q98.275,551.1045 98.6125,550.7545 Q98.825,550.542 98.9375,550.4795 Q99.0625,550.417 99.225,550.417 Q99.4875,550.417 99.6875,550.6295 Q99.9,550.8295 99.9,551.1045 Q99.9,551.3795 99.625,551.7045 Q99.225,552.167 98.5875,552.4295 Q97.725,552.792 96.6875,552.792 Q95.475,552.792 94.5125,552.292 Q93.725,551.892 93.175,551.042 Q92.625,550.1795 92.625,549.1545 L92.625,548.2295 Q92.625,547.167 93.1125,546.2545 Q93.6125,545.3295 94.4875,544.842 Q95.3625,544.342 96.35,544.342 Q96.9375,544.342 97.45,544.4795 Q97.975,544.6045 98.4125,544.892 Z " fill="#000000"/><text fill="#000000" font-family="sans-serif" font-size="11.2" lengthAdjust="spacing" textLength="84" x="112.6" y="552.8295">SaveComponent</text><line style="stroke:#181818;stroke-width:0.4000000000000001;" x1="38" x2="245.2" y1="560.992" y2="560.992"/><line style="stroke:#181818;stroke-width:0.4000000000000001;" x1="38" x2="245.2" y1="567.392" y2="567.392"/><ellipse cx="46" cy="579.2404" fill="#84BE84" rx="2.4" ry="2.4" style="stroke:#038048;stroke-width:0.8000000000000002;"/><text fill="#000000" font-family="sans-serif" font-size="11.2" lengthAdjust="spacing" textLength="188" x="53.2" y="582.6779">updateItem(SaveData, boolean): void</text><rect fill="#F24D5C" height="4.8" style="stroke:#C82930;stroke-width:0.8000000000000002;" width="4.8" x="43.6" y="591.7373"/><text fill="#000000" font-family="sans-serif" font-size="11.2" lengthAdjust="spacing" textLength="116.8" x="53.2" y="597.5748">load(ActionEvent): void</text><rect fill="#F24D5C" height="4.8" style="stroke:#C82930;stroke-width:0.8000000000000002;" width="4.8" x="43.6" y="606.6342"/><text fill="#000000" font-family="sans-serif" font-size="11.2" lengthAdjust="spacing" textLength="126.4" x="53.2" y="612.4717">delete(ActionEvent): void</text></g><!--class GUIController--><g id="elem_GUIController"><rect codeLine="154" fill="#F1F1F1" height="83.0906" id="GUIController" rx="2" ry="2" style="stroke:#181818;stroke-width:0.4000000000000001;" width="184" x="1802.4" y="940.192"/><ellipse cx="1857" cy="952.992" fill="#ADD1B2" rx="8.8" ry="8.8" style="stroke:#181818;stroke-width:0.8000000000000002;"/><path d="M1859.2125,949.692 Q1859.3375,949.517 1859.4875,949.4295 Q1859.6375,949.342 1859.8125,949.342 Q1860.1125,949.342 1860.3,949.5545 Q1860.4875,949.7545 1860.4875,950.242 L1860.4875,951.4045 Q1860.4875,951.892 1860.3,952.1045 Q1860.1125,952.317 1859.8125,952.317 Q1859.5375,952.317 1859.375,952.1545 Q1859.2125,952.0045 1859.125,951.592 Q1859.0875,951.3045 1858.9375,951.1545 Q1858.675,950.8545 1858.1875,950.6795 Q1857.7,950.5045 1857.2,950.5045 Q1856.5875,950.5045 1856.075,950.767 Q1855.575,951.0295 1855.175,951.6295 Q1854.7875,952.2295 1854.7875,953.0545 L1854.7875,953.9295 Q1854.7875,954.917 1855.5,955.5795 Q1856.2125,956.2295 1857.4875,956.2295 Q1858.2375,956.2295 1858.7625,956.0295 Q1859.075,955.9045 1859.4125,955.5545 Q1859.625,955.342 1859.7375,955.2795 Q1859.8625,955.217 1860.025,955.217 Q1860.2875,955.217 1860.4875,955.4295 Q1860.7,955.6295 1860.7,955.9045 Q1860.7,956.1795 1860.425,956.5045 Q1860.025,956.967 1859.3875,957.2295 Q1858.525,957.592 1857.4875,957.592 Q1856.275,957.592 1855.3125,957.092 Q1854.525,956.692 1853.975,955.842 Q1853.425,954.9795 1853.425,953.9545 L1853.425,953.0295 Q1853.425,951.967 1853.9125,951.0545 Q1854.4125,950.1295 1855.2875,949.642 Q1856.1625,949.142 1857.15,949.142 Q1857.7375,949.142 1858.25,949.2795 Q1858.775,949.4045 1859.2125,949.692 Z " fill="#000000"/><text fill="#000000" font-family="sans-serif" font-size="11.2" lengthAdjust="spacing" textLength="68" x="1873.4" y="957.6295">GUIController</text><line style="stroke:#181818;stroke-width:0.4000000000000001;" x1="1803.2" x2="1985.6" y1="965.792" y2="965.792"/><line style="stroke:#181818;stroke-width:0.4000000000000001;" x1="1803.2" x2="1985.6" y1="972.192" y2="972.192"/><ellipse cx="1811.2" cy="984.0404" fill="#84BE84" rx="2.4" ry="2.4" style="stroke:#038048;stroke-width:0.8000000000000002;"/><text fill="#000000" font-family="sans-serif" font-size="11.2" lengthAdjust="spacing" textLength="156.8" x="1818.4" y="987.4779">onKeyPressed(KeyEvent): void</text><ellipse cx="1811.2" cy="998.9373" fill="#84BE84" rx="2.4" ry="2.4" style="stroke:#038048;stroke-width:0.8000000000000002;"/><text fill="#000000" font-family="sans-serif" font-size="11.2" lengthAdjust="spacing" textLength="163.2" x="1818.4" y="1002.3748">onKeyReleased(KeyEvent): void</text><ellipse cx="1811.2" cy="1013.8342" fill="#84BE84" rx="2.4" ry="2.4" style="stroke:#038048;stroke-width:0.8000000000000002;"/><text fill="#000000" font-family="sans-serif" font-size="11.2" lengthAdjust="spacing" textLength="92" x="1818.4" y="1017.2717">update(long): void</text></g><!--class GUIEngine--><g id="elem_GUIEngine"><rect codeLine="160" fill="#F1F1F1" height="127.7813" id="GUIEngine" rx="2" ry="2" style="stroke:#181818;stroke-width:0.4000000000000001;" width="136.8" x="1849.2" y="763.392"/><ellipse cx="1887.4" cy="776.192" fill="#ADD1B2" rx="8.8" ry="8.8" style="stroke:#181818;stroke-width:0.8000000000000002;"/><path d="M1889.6125,772.892 Q1889.7375,772.717 1889.8875,772.6295 Q1890.0375,772.542 1890.2125,772.542 Q1890.5125,772.542 1890.7,772.7545 Q1890.8875,772.9545 1890.8875,773.442 L1890.8875,774.6045 Q1890.8875,775.092 1890.7,775.3045 Q1890.5125,775.517 1890.2125,775.517 Q1889.9375,775.517 1889.775,775.3545 Q1889.6125,775.2045 1889.525,774.792 Q1889.4875,774.5045 1889.3375,774.3545 Q1889.075,774.0545 1888.5875,773.8795 Q1888.1,773.7045 1887.6,773.7045 Q1886.9875,773.7045 1886.475,773.967 Q1885.975,774.2295 1885.575,774.8295 Q1885.1875,775.4295 1885.1875,776.2545 L1885.1875,777.1295 Q1885.1875,778.117 1885.9,778.7795 Q1886.6125,779.4295 1887.8875,779.4295 Q1888.6375,779.4295 1889.1625,779.2295 Q1889.475,779.1045 1889.8125,778.7545 Q1890.025,778.542 1890.1375,778.4795 Q1890.2625,778.417 1890.425,778.417 Q1890.6875,778.417 1890.8875,778.6295 Q1891.1,778.8295 1891.1,779.1045 Q1891.1,779.3795 1890.825,779.7045 Q1890.425,780.167 1889.7875,780.4295 Q1888.925,780.792 1887.8875,780.792 Q1886.675,780.792 1885.7125,780.292 Q1884.925,779.892 1884.375,779.042 Q1883.825,778.1795 1883.825,777.1545 L1883.825,776.2295 Q1883.825,775.167 1884.3125,774.2545 Q1884.8125,773.3295 1885.6875,772.842 Q1886.5625,772.342 1887.55,772.342 Q1888.1375,772.342 1888.65,772.4795 Q1889.175,772.6045 1889.6125,772.892 Z " fill="#000000"/><text fill="#000000" font-family="sans-serif" font-size="11.2" lengthAdjust="spacing" textLength="53.6" x="1903.8" y="780.8295">GUIEngine</text><line style="stroke:#181818;stroke-width:0.4000000000000001;" x1="1850" x2="1985.2" y1="788.992" y2="788.992"/><rect fill="none" height="4.8" style="stroke:#C82930;stroke-width:0.8000000000000002;" width="4.8" x="1855.6" y="798.4404"/><text fill="#000000" font-family="sans-serif" font-size="11.2" lengthAdjust="spacing" textLength="106.4" x="1865.2" y="804.2779">AnimationTimer timer</text><line style="stroke:#181818;stroke-width:0.8000000000000002;" x1="1850" x2="1985.2" y1="810.2889" y2="810.2889"/><ellipse cx="1858" cy="822.1373" fill="#84BE84" rx="2.4" ry="2.4" style="stroke:#038048;stroke-width:0.8000000000000002;"/><text fill="#000000" font-family="sans-serif" font-size="11.2" lengthAdjust="spacing" textLength="73.6" x="1865.2" y="825.5748">tick(long): void</text><ellipse cx="1858" cy="837.0342" fill="#84BE84" rx="2.4" ry="2.4" style="stroke:#038048;stroke-width:0.8000000000000002;"/><text fill="#000000" font-family="sans-serif" font-size="11.2" lengthAdjust="spacing" textLength="57.6" x="1865.2" y="840.4717">start(): void</text><ellipse cx="1858" cy="851.9311" fill="#84BE84" rx="2.4" ry="2.4" style="stroke:#038048;stroke-width:0.8000000000000002;"/><text fill="#000000" font-family="sans-serif" font-size="11.2" lengthAdjust="spacing" textLength="56.8" x="1865.2" y="855.3686">stop(): void</text><ellipse cx="1858" cy="866.8279" fill="#84BE84" rx="2.4" ry="2.4" style="stroke:#038048;stroke-width:0.8000000000000002;"/><text fill="#000000" font-family="sans-serif" font-size="11.2" lengthAdjust="spacing" textLength="116" x="1865.2" y="870.2654">getComputedFPS(): int</text><ellipse cx="1858" cy="881.7248" fill="#84BE84" rx="2.4" ry="2.4" style="stroke:#038048;stroke-width:0.8000000000000002;"/><text fill="#000000" font-family="sans-serif" font-size="11.2" lengthAdjust="spacing" textLength="64" x="1865.2" y="885.1623">getFPS(): int</text></g><!--link GameInterface to Engine--><g id="link_GameInterface_Engine"><path codeLine="173" d="M2151.24,327.792 C2166.16,327.792 2182.688,327.792 2198.312,327.792 " fill="none" id="GameInterface-Engine" style="stroke:#181818;stroke-width:0.8000000000000002;"/><polygon fill="none" points="2170,314.3084,2173.2,317.5084,2170,320.7084,2166.8,317.5084" style="stroke:#B38D22;stroke-width:0.8000000000000002;"/><text fill="#000000" font-family="sans-serif" font-size="10.4" lengthAdjust="spacing" textLength="8" x="2175.6" y="322.2147">ui</text><text fill="#000000" font-family="sans-serif" font-size="10.4" lengthAdjust="spacing" textLength="5.6" x="2157.7286" y="324.6186">1</text></g><!--link Engine to GameController--><g id="link_Engine_GameController"><path codeLine="174" d="M2324.856,327.792 C2350.952,327.792 2380.944,327.792 2406.248,327.792 " fill="none" id="Engine-GameController" style="stroke:#181818;stroke-width:0.8000000000000002;"/><polygon fill="none" points="2343.6,314.3084,2346.8,317.5084,2343.6,320.7084,2340.4,317.5084" style="stroke:#B38D22;stroke-width:0.8000000000000002;"/><text fill="#000000" font-family="sans-serif" font-size="10.4" lengthAdjust="spacing" textLength="42.4" x="2349.2" y="322.2147">controller</text><text fill="#000000" font-family="sans-serif" font-size="10.4" lengthAdjust="spacing" textLength="5.6" x="2394.5686" y="324.7154">1</text></g><!--link CLIController to GameController--><g id="link_CLIController_GameController"><path codeLine="177" d="M2408,163.464 C2420.712,201.68 2434.9195,244.3759 2446.7515,279.9519 " fill="none" id="CLIController-to-GameController" style="stroke:#181818;stroke-width:0.8000000000000002;"/><polygon fill="none" points="2451.296,293.616,2451.3062,278.4371,2442.1968,281.4667,2451.296,293.616" style="stroke:#181818;stroke-width:0.8000000000000002;"/></g><!--link CLIEngine to Engine--><g id="link_CLIEngine_Engine"><path codeLine="178" d="M2262.24,163.464 C2262.112,196.664 2261.9839,229.1761 2261.8479,264.2401 " fill="none" id="CLIEngine-to-Engine" style="stroke:#181818;stroke-width:0.8000000000000002;"/><polygon fill="none" points="2261.792,278.64,2266.6478,264.2587,2257.0479,264.2215,2261.792,278.64" style="stroke:#181818;stroke-width:0.8000000000000002;"/></g><!--link CLI to GameInterface--><g id="link_CLI_GameInterface"><path codeLine="179" d="M2100.8,148.688 C2100.8,187.864 2100.8,247.056 2100.8,286.328 " fill="none" id="CLI-to-GameInterface" style="stroke:#181818;stroke-width:0.8000000000000002;stroke-dasharray:7.0,7.0;"/><polygon fill="none" points="2100.8,300.728,2105.6,286.328,2096,286.328,2100.8,300.728" style="stroke:#181818;stroke-width:0.8000000000000002;"/></g><!--link CLI to CLIController--><g id="link_CLI_CLIController"><path codeLine="180" d="M2120.512,94.8 C2138.696,72.384 2167.92,42.136 2201.6,28.992 C2252.28,9.216 2275.28,4.8 2324,28.992 C2345.736,39.784 2362.56,60.848 2374.304,80.184 " fill="none" id="CLI-CLIController" style="stroke:#181818;stroke-width:0.8000000000000002;"/><rect fill="none" height="4.8" style="stroke:#C82930;stroke-width:0.8000000000000002;" width="4.8" x="2217.2" y="11.5084"/><text fill="#000000" font-family="sans-serif" font-size="10.4" lengthAdjust="spacing" textLength="42.4" x="2225.2" y="17.8147">controller</text><text fill="#000000" font-family="sans-serif" font-size="10.4" lengthAdjust="spacing" textLength="5.6" x="2365.6274" y="71.3248">1</text></g><!--link CLI to CLIEngine--><g id="link_CLI_CLIEngine"><path codeLine="181" d="M2145.6,121.792 C2167.176,121.792 2193.056,121.792 2214.968,121.792 " fill="none" id="CLI-CLIEngine" style="stroke:#181818;stroke-width:0.8000000000000002;"/><rect fill="none" height="4.8" style="stroke:#C82930;stroke-width:0.8000000000000002;" width="4.8" x="2162" y="109.9084"/><text fill="#000000" font-family="sans-serif" font-size="10.4" lengthAdjust="spacing" textLength="30.4" x="2170" y="116.2147">engine</text><text fill="#000000" font-family="sans-serif" font-size="10.4" lengthAdjust="spacing" textLength="5.6" x="2203.246" y="118.6068">1</text></g><!--reverse link GameController to GUIController--><g id="link_GameController_GUIController"><path codeLine="184" d="M2429.7611,373.6812 C2364.1371,463.6332 2183.624,704.832 2000,891.392 C1983.384,908.272 1963.928,925.424 1946.264,940.144 " fill="none" id="GameController-backto-GUIController" style="stroke:#181818;stroke-width:0.8000000000000002;"/><polygon fill="none" points="2438.248,362.048,2425.8833,370.8522,2433.6388,376.5102,2438.248,362.048" style="stroke:#181818;stroke-width:0.8000000000000002;"/></g><!--reverse link Engine to GUIEngine--><g id="link_Engine_GUIEngine"><path codeLine="185" d="M2220.1198,388.6402 C2157.6478,479.0802 2031.072,662.32 1961.36,763.24 " fill="none" id="Engine-backto-GUIEngine" style="stroke:#181818;stroke-width:0.8000000000000002;"/><polygon fill="none" points="2228.304,376.792,2216.1704,385.9121,2224.0692,391.3682,2228.304,376.792" style="stroke:#181818;stroke-width:0.8000000000000002;"/></g><!--reverse link GameInterface to GameView--><g id="link_GameInterface_GameView"><path codeLine="186" d="M2067.4873,365.2844 C2038.3993,397.3164 1997.232,442.664 1953.928,490.36 " fill="none" id="GameInterface-backto-GameView" style="stroke:#181818;stroke-width:0.8000000000000002;stroke-dasharray:7.0,7.0;"/><polygon fill="none" points="2077.168,354.624,2063.9339,362.0576,2071.0408,368.5113,2077.168,354.624" style="stroke:#181818;stroke-width:0.8000000000000002;"/></g><!--link GameView to GUIController--><g id="link_GameView_GUIController"><path codeLine="187" d="M1803.8,663.696 C1794.688,678.536 1786.76,694.424 1781.6,710.592 C1757.168,787.144 1746.664,819.024 1781.6,891.392 C1790.84,910.536 1806.384,926.848 1823.016,940.088 " fill="none" id="GameView-GUIController" style="stroke:#181818;stroke-width:0.8000000000000002;"/><rect fill="none" height="4.8" style="stroke:#C82930;stroke-width:0.8000000000000002;" width="4.8" x="1784" y="825.5084"/><text fill="#000000" font-family="sans-serif" font-size="10.4" lengthAdjust="spacing" textLength="42.4" x="1792" y="831.8147">controller</text><text fill="#000000" font-family="sans-serif" font-size="10.4" lengthAdjust="spacing" textLength="5.6" x="1807.4475" y="931.2159">1</text></g><!--link GameView to GUIEngine--><g id="link_GameView_GUIEngine"><path codeLine="188" d="M1890.32,663.416 C1895.792,696.168 1901.936,732.904 1907,763.216 " fill="none" id="GameView-GUIEngine" style="stroke:#181818;stroke-width:0.8000000000000002;"/><rect fill="none" height="4.8" style="stroke:#C82930;stroke-width:0.8000000000000002;" width="4.8" x="1899.2" y="694.7084"/><text fill="#000000" font-family="sans-serif" font-size="10.4" lengthAdjust="spacing" textLength="30.4" x="1907.2" y="701.0147">engine</text><text fill="#000000" font-family="sans-serif" font-size="10.4" lengthAdjust="spacing" textLength="5.6" x="1900.1647" y="754.3164">1</text></g><!--link GUIEngine to GUIController--><!--link ViewController to View--><g id="link_ViewController_View"><path codeLine="191" d="M847.896,327.792 C965.352,327.792 1208.352,327.792 1341.464,327.792 " fill="none" id="ViewController-View" style="stroke:#181818;stroke-width:0.8000000000000002;"/><polygon fill="none" points="1072.6,314.3084,1075.8,317.5084,1072.6,320.7084,1069.4,317.5084" style="stroke:#B38D22;stroke-width:0.8000000000000002;"/><text fill="#000000" font-family="sans-serif" font-size="10.4" lengthAdjust="spacing" textLength="42.4" x="1078.2" y="322.2147">controller</text><text fill="#000000" font-family="sans-serif" font-size="10.4" lengthAdjust="spacing" textLength="5.6" x="853.9027" y="324.8533">1</text></g><!--link View to ViewManager--><g id="link_View_ViewManager"><path codeLine="192" d="M1525.872,327.792 C1546.408,327.792 1568.248,327.792 1589.016,327.792 " fill="none" id="View-ViewManager" style="stroke:#181818;stroke-width:0.8000000000000002;"/><rect fill="none" height="4.8" style="stroke:#C82930;stroke-width:0.8000000000000002;" width="4.8" x="1541.8" y="315.9084"/><text fill="#000000" font-family="sans-serif" font-size="10.4" lengthAdjust="spacing" textLength="24.8" x="1549.8" y="322.2147">views</text><text fill="#000000" font-family="sans-serif" font-size="10.4" lengthAdjust="spacing" textLength="4" x="1531.9113" y="324.9776">*</text></g><!--reverse link ViewController to HomeViewController--><g id="link_ViewController_HomeViewController"><path codeLine="195" d="M748.3361,365.5499 C729.6961,387.1499 712.648,408.104 692,437.792 C671.856,466.76 651.688,500.896 636.448,528.016 " fill="none" id="ViewController-backto-HomeViewController" style="stroke:#181818;stroke-width:0.8000000000000002;"/><polygon fill="none" points="757.744,354.648,744.7021,362.4139,751.97,368.6859,757.744,354.648" style="stroke:#181818;stroke-width:0.8000000000000002;"/></g><!--reverse link View to HomeView--><g id="link_View_HomeView"><path codeLine="196" d="M1433.6,413.616 C1433.6,457.64 1433.6,498.336 1433.6,535.264 " fill="none" id="View-backto-HomeView" style="stroke:#181818;stroke-width:0.8000000000000002;"/><polygon fill="none" points="1433.6,399.216,1428.8,413.616,1438.4,413.616,1433.6,399.216" style="stroke:#181818;stroke-width:0.8000000000000002;"/></g><!--reverse link ViewController to GameViewController--><g id="link_ViewController_GameViewController"><path codeLine="197" d="M780.8,369.024 C780.8,404.528 780.8,455.104 780.8,505.544 " fill="none" id="ViewController-backto-GameViewController" style="stroke:#181818;stroke-width:0.8000000000000002;"/><polygon fill="none" points="780.8,354.624,776,369.024,785.6,369.024,780.8,354.624" style="stroke:#181818;stroke-width:0.8000000000000002;"/></g><!--reverse link View to GameView--><g id="link_View_GameView"><path codeLine="198" d="M1538.4777,391.4511 C1554.5817,399.6591 1558.656,400.76 1575.2,406.592 C1650.448,433.136 1682.264,399.016 1752,437.792 C1775.688,450.96 1797.176,470.392 1815.368,490.552 " fill="none" id="View-backto-GameView" style="stroke:#181818;stroke-width:0.8000000000000002;"/><polygon fill="none" points="1525.648,384.912,1536.298,395.7277,1540.6574,387.1746,1525.648,384.912" style="stroke:#181818;stroke-width:0.8000000000000002;"/></g><!--reverse link ViewController to SettingsViewController--><g id="link_ViewController_SettingsViewController"><path codeLine="199" d="M812.4537,365.5622 C842.8537,401.0662 889.12,455.104 932.312,505.544 " fill="none" id="ViewController-backto-SettingsViewController" style="stroke:#181818;stroke-width:0.8000000000000002;"/><polygon fill="none" points="803.088,354.624,808.8077,368.6841,816.0998,362.4403,803.088,354.624" style="stroke:#181818;stroke-width:0.8000000000000002;"/></g><!--reverse link View to SettingsView--><g id="link_View_SettingsView"><path codeLine="200" d="M1514.6313,409.5115 C1526.6793,422.1515 1528.928,424.968 1540,437.792 C1567.256,469.368 1595.808,507.112 1616.344,535.208 " fill="none" id="View-backto-SettingsView" style="stroke:#181818;stroke-width:0.8000000000000002;"/><polygon fill="none" points="1504.696,399.088,1511.1568,412.8233,1518.1058,406.1997,1504.696,399.088" style="stroke:#181818;stroke-width:0.8000000000000002;"/></g><!--reverse link ViewController to SavesViewController--><g id="link_ViewController_SavesViewController"><path codeLine="201" d="M700.3989,354.3927 C647.5909,372.8567 587.056,398.184 529.6,437.792 C493.096,462.96 458.288,498.968 433.136,527.952 " fill="none" id="ViewController-backto-SavesViewController" style="stroke:#181818;stroke-width:0.8000000000000002;"/><polygon fill="none" points="713.992,349.64,698.8147,349.8617,701.9832,358.9238,713.992,349.64" style="stroke:#181818;stroke-width:0.8000000000000002;"/></g><!--reverse link View to SavesView--><g id="link_View_SavesView"><path codeLine="202" d="M1353.2081,409.6214 C1341.2401,422.2534 1339.032,425.016 1328,437.792 C1298.096,472.44 1266.456,514.36 1245.528,542.928 " fill="none" id="View-backto-SavesView" style="stroke:#181818;stroke-width:0.8000000000000002;"/><polygon fill="none" points="1363.112,399.168,1349.7237,406.3201,1356.6926,412.9227,1363.112,399.168" style="stroke:#181818;stroke-width:0.8000000000000002;"/></g><!--SRC=[hLTHSwCs47xthz1S7qfwmJDzzNHk9l7vSfucJNeuwKEd3p9iY1eiKI6SPbB_zwv0W009dw_r0mRsq-xgq-woczFucQP0WAUC0tcR4VpHRQ4aZHM9CreKv8hkO2cuaYBBG1gC_dr7RWHFWEpqjNqRXktjU_BMw3gGCa-eWY0JF3rRaBrWIOKxp5msLxO_jQhwLL2oSnAttfovRHMAIXNOPXmGaKyZ58kVVUuoha0-qXWgTjRja-sm1AH51ltLk3utdCSPC_XwpylhjPFczzxjUFOmpNHhpC7nYOQc66hDdCH9MZ9t43umUEc5tXr5NOf88PGxz59GNr2eRTLOImQSRZFGujKU9OLZRu9haslEb5VuaHLvHbyX2MwtVqAivlEv2_eplDv9A0h4uMrbq0Fx0XbG7ywTADeFJzHOeKppF7kzfZmjaUJ0eHLukICFwzLlaQNYy-tDgdsukh0UejLci_xbAkfUN3oiel7nQ-zkA4UZjciXUSD0m-0vO1xX7OzXOKCj84fJ54RwptNCeRqkw5M3nWJ6mTfOqJjtsS401rNP2Ahh-7WafAp09DUhWugdyqhJ6CdfdgMOVXlHu2Q2uwzo45w6lIOTzcYYi9YhMVqiTk0zzrgn_y0xvWHVPfZ0aJFd-n1GYl6qc4RzMZfonMoeSrxNoqddGzmzhyyyVhx3su4qfdnFYmLPLlz3L_OWCINTql1aagegedtGKhT35KHlwb9GcMYSmtG5kgrzSq1693M47o7giSooA9O0VFa4yVEb-1jLcxi1D3FRN8hTLjH0S_U_S7GzK5zjqcMWIhLF8x-3hH1O-xWlmBeL6v6csP6GliI3EXw94Tt3COOBZRd6rDUu1MdkVj9hFr95F_Zm2qpx0kHUVsVqis_5j_2jYvMs4_XC7DrwKq56TQCHMANqn2_U2LyzRsqOkTK8_gjRZlR3eXNfcuf3HxcsDHVbpXUMYQGlNOcea_-S9AB4a_ElQEf5ZNVZOdHMrW0FRhAsZ8YsXHwodItHYQVXpyMnHutasy_UQGshKowuRY675klsUQrW5pGPTKucwrCcQ19Sn8e9xWnqSwROtM5RFe4xZ3keA9TCGQzvYfJ48oAbP5OdKUC2V7dcQYHWsEkRXBjVJpGHNvN4Nzk-7XrFt1NXVZocr2nSSBQZciaDsw7lIb-dIwjpMZas-qpCF-t7JuTIgI3vT1Tf4BD6ZHRZa1swyUTxSq0pizamWqSLlllntM2yNE3WKx8M9LdwrC6iazIuRaZM-d7OdFK7p30HBppyvyDWxQoR35j4_QmbPAxVpSsgrh5APBdJjxJGXQfdO80rzZJEy80UuoWuwyTdMEOEVxiGCNBZRVincPVvsE5M6jRytKyuFCQE7RQyq0pz_iII1FWVOL_pR5RhQOztq7uCpiqUdyoQ7-erbUbgEZ1KcGV7Q61OwRzjWRPuvkZDtQixHgpLdgRLhQ7t5UffSNHb7XNjDyDU_oy0]--></g></svg>