<?xml version="1.0" encoding="us-ascii" standalone="no"?><svg xmlns="http://www.w3.org/2000/svg" xmlns:xlink="http://www.w3.org/1999/xlink" contentStyleType="text/css" height="658px" preserveAspectRatio="none" style="width:1200px;height:658px;background:#FFFFFF;" version="1.1" viewBox="0 0 1200 658" width="1200px" zoomAndPan="magnify"><defs/><g><!--cluster gui--><g id="cluster_gui"><path d="M8.5,6.0137 L31.5,6.0137 A3.75,3.75 0 0 1 34,8.5137 L41,30.6348 L1190.5,30.6348 A2.5,2.5 0 0 1 1193,33.1348 L1193,648.5137 A2.5,2.5 0 0 1 1190.5,651.0137 L8.5,651.0137 A2.5,2.5 0 0 1 6,648.5137 L6,8.5137 A2.5,2.5 0 0 1 8.5,6.0137 " fill="none" style="stroke:#000000;stroke-width:1.5;"/><line style="stroke:#000000;stroke-width:1.5;" x1="6" x2="41" y1="30.6348" y2="30.6348"/><text fill="#000000" font-family="sans-serif" font-size="14" font-weight="bold" lengthAdjust="spacing" textLength="22" x="10" y="23.1211">gui</text></g><!--cluster views--><g id="cluster_views"><path d="M125.5,414.0137 L167.5,414.0137 A3.75,3.75 0 0 1 170,416.5137 L177,438.6348 L1118.5,438.6348 A2.5,2.5 0 0 1 1121,441.1348 L1121,624.5137 A2.5,2.5 0 0 1 1118.5,627.0137 L125.5,627.0137 A2.5,2.5 0 0 1 123,624.5137 L123,416.5137 A2.5,2.5 0 0 1 125.5,414.0137 " fill="none" style="stroke:#000000;stroke-width:1.5;"/><line style="stroke:#000000;stroke-width:1.5;" x1="123" x2="177" y1="438.6348" y2="438.6348"/><text fill="#000000" font-family="sans-serif" font-size="14" font-weight="bold" lengthAdjust="spacing" textLength="41" x="127" y="431.1211">views</text></g><!--cluster engine--><g id="cluster_engine"><path d="M814.5,62.0137 L864.5,62.0137 A3.75,3.75 0 0 1 867,64.5137 L874,86.6348 L1166.5,86.6348 A2.5,2.5 0 0 1 1169,89.1348 L1169,197.5137 A2.5,2.5 0 0 1 1166.5,200.0137 L814.5,200.0137 A2.5,2.5 0 0 1 812,197.5137 L812,64.5137 A2.5,2.5 0 0 1 814.5,62.0137 " fill="none" style="stroke:#000000;stroke-width:1.5;"/><line style="stroke:#000000;stroke-width:1.5;" x1="812" x2="874" y1="86.6348" y2="86.6348"/><text fill="#000000" font-family="sans-serif" font-size="14" font-weight="bold" lengthAdjust="spacing" textLength="49" x="816" y="79.1211">engine</text></g><!--class View--><g id="elem_View"><rect codeLine="3" fill="#F1F1F1" height="178.3477" id="View" rx="2.5" ry="2.5" style="stroke:#181818;stroke-width:0.5;" width="230" x="563" y="52.5137"/><ellipse cx="659.25" cy="68.5137" fill="#A9DCDF" rx="11" ry="11" style="stroke:#181818;stroke-width:1.0;"/><path d="M661.4375,70.2793 L657.2969,70.2793 L656.875,71.3105 L657.2969,71.3105 Q657.9063,71.3105 658.1719,71.5449 Q658.4375,71.7793 658.4375,72.1699 Q658.4375,72.5449 658.1719,72.7793 Q657.9063,73.0137 657.2969,73.0137 L655,73.0137 Q654.3906,73.0137 654.1406,72.7793 Q653.875,72.5449 653.875,72.1543 Q653.875,71.7793 654.1563,71.5449 Q654.4219,71.2949 655.0469,71.3105 L657.7188,64.6543 L656.6094,64.6543 Q656,64.6543 655.7344,64.4199 Q655.4688,64.1855 655.4688,63.7949 Q655.4688,63.4199 655.7344,63.1855 Q656,62.9512 656.6094,62.9512 L660.2813,62.9512 L663.6719,71.3105 Q664.2656,71.3105 664.4531,71.4512 Q664.8438,71.7168 664.8438,72.1699 Q664.8438,72.5449 664.5781,72.7793 Q664.3281,73.0137 663.7188,73.0137 L661.4219,73.0137 Q660.8125,73.0137 660.5469,72.7793 Q660.2813,72.5449 660.2813,72.1543 Q660.2813,71.7793 660.5469,71.5449 Q660.8125,71.3105 661.4219,71.3105 L661.8438,71.3105 L661.4375,70.2793 Z M660.7188,68.5762 L659.3594,65.2012 L657.9844,68.5762 L660.7188,68.5762 Z " fill="#000000"/><text fill="#000000" font-family="sans-serif" font-size="14" font-style="italic" lengthAdjust="spacing" textLength="29" x="679.75" y="74.3105">View</text><line style="stroke:#181818;stroke-width:0.5;" x1="564" x2="792" y1="84.5137" y2="84.5137"/><polygon fill="none" points="574,94.3242,578,98.3242,574,102.3242,570,98.3242" style="stroke:#B38D22;stroke-width:1.0;"/><text fill="#000000" font-family="sans-serif" font-size="14" lengthAdjust="spacing" textLength="71" x="583" y="103.6211">Parent root</text><line style="stroke:#181818;stroke-width:1.0;" x1="564" x2="792" y1="111.1348" y2="111.1348"/><ellipse cx="574" cy="125.9453" fill="#84BE84" rx="3" ry="3" style="stroke:#038048;stroke-width:1.0;"/><text fill="#000000" font-family="sans-serif" font-size="14" lengthAdjust="spacing" textLength="110" x="583" y="130.2422">getRoot(): Parent</text><ellipse cx="574" cy="144.5664" fill="#84BE84" rx="3" ry="3" style="stroke:#038048;stroke-width:1.0;"/><text fill="#000000" font-family="sans-serif" font-size="14" lengthAdjust="spacing" textLength="160" x="583" y="148.8633">enableRootEvents(): void</text><ellipse cx="574" cy="163.1875" fill="#84BE84" rx="3" ry="3" style="stroke:#038048;stroke-width:1.0;"/><text fill="#000000" font-family="sans-serif" font-size="14" lengthAdjust="spacing" textLength="107" x="583" y="167.4844">onViewInit(): void</text><ellipse cx="574" cy="181.8086" fill="#84BE84" rx="3" ry="3" style="stroke:#038048;stroke-width:1.0;"/><text fill="#000000" font-family="sans-serif" font-size="14" lengthAdjust="spacing" textLength="151" x="583" y="186.1055">onViewDisplayed(): void</text><ellipse cx="574" cy="200.4297" fill="#84BE84" rx="3" ry="3" style="stroke:#038048;stroke-width:1.0;"/><text fill="#000000" font-family="sans-serif" font-size="14" lengthAdjust="spacing" textLength="196" x="583" y="204.7266">onKeyPressed(KeyEvent): void</text><ellipse cx="574" cy="219.0508" fill="#84BE84" rx="3" ry="3" style="stroke:#038048;stroke-width:1.0;"/><text fill="#000000" font-family="sans-serif" font-size="14" lengthAdjust="spacing" textLength="204" x="583" y="223.3477">onKeyReleased(KeyEvent): void</text></g><!--class ViewController--><g id="elem_ViewController"><rect codeLine="14" fill="#F1F1F1" height="48" id="ViewController" rx="2.5" ry="2.5" style="stroke:#181818;stroke-width:0.5;" width="123" x="464.5" y="319.0137"/><ellipse cx="479.5" cy="335.0137" fill="#A9DCDF" rx="11" ry="11" style="stroke:#181818;stroke-width:1.0;"/><path d="M481.6875,336.7793 L477.5469,336.7793 L477.125,337.8105 L477.5469,337.8105 Q478.1563,337.8105 478.4219,338.0449 Q478.6875,338.2793 478.6875,338.6699 Q478.6875,339.0449 478.4219,339.2793 Q478.1563,339.5137 477.5469,339.5137 L475.25,339.5137 Q474.6406,339.5137 474.3906,339.2793 Q474.125,339.0449 474.125,338.6543 Q474.125,338.2793 474.4063,338.0449 Q474.6719,337.7949 475.2969,337.8105 L477.9688,331.1543 L476.8594,331.1543 Q476.25,331.1543 475.9844,330.9199 Q475.7188,330.6855 475.7188,330.2949 Q475.7188,329.9199 475.9844,329.6855 Q476.25,329.4512 476.8594,329.4512 L480.5313,329.4512 L483.9219,337.8105 Q484.5156,337.8105 484.7031,337.9512 Q485.0938,338.2168 485.0938,338.6699 Q485.0938,339.0449 484.8281,339.2793 Q484.5781,339.5137 483.9688,339.5137 L481.6719,339.5137 Q481.0625,339.5137 480.7969,339.2793 Q480.5313,339.0449 480.5313,338.6543 Q480.5313,338.2793 480.7969,338.0449 Q481.0625,337.8105 481.6719,337.8105 L482.0938,337.8105 L481.6875,336.7793 Z M480.9688,335.0762 L479.6094,331.7012 L478.2344,335.0762 L480.9688,335.0762 Z " fill="#000000"/><text fill="#000000" font-family="sans-serif" font-size="14" font-style="italic" lengthAdjust="spacing" textLength="91" x="493.5" y="340.8105">ViewController</text><line style="stroke:#181818;stroke-width:0.5;" x1="465.5" x2="586.5" y1="351.0137" y2="351.0137"/><line style="stroke:#181818;stroke-width:0.5;" x1="465.5" x2="586.5" y1="359.0137" y2="359.0137"/></g><!--class VIEWS--><g id="elem_VIEWS"><rect codeLine="16" fill="#F1F1F1" height="85.2422" id="VIEWS" rx="2.5" ry="2.5" style="stroke:#181818;stroke-width:0.5;" width="75" x="146.5" y="99.0137"/><ellipse cx="161.5" cy="115.0137" fill="#EB937F" rx="11" ry="11" style="stroke:#181818;stroke-width:1.0;"/><path d="M160.3594,115.8105 L160.3594,118.3105 L164.6875,118.3105 L164.6875,117.3887 Q164.6875,116.7793 164.9219,116.5137 Q165.1719,116.248 165.5469,116.248 Q165.9219,116.248 166.1563,116.5137 Q166.3906,116.7793 166.3906,117.3887 L166.3906,120.0137 L158.3906,120.0137 Q157.7656,120.0137 157.5,119.7793 Q157.25,119.5449 157.25,119.1543 Q157.25,118.7793 157.5156,118.5449 Q157.7813,118.3105 158.3906,118.3105 L158.6563,118.3105 L158.6563,111.6543 L158.3906,111.6543 Q157.7656,111.6543 157.5,111.4199 Q157.25,111.1855 157.25,110.7949 Q157.25,110.4199 157.5,110.1855 Q157.7656,109.9512 158.3906,109.9512 L166.0156,109.9512 L166.0156,112.5449 Q166.0156,113.1543 165.7813,113.4199 Q165.5625,113.6699 165.1719,113.6699 Q164.7969,113.6699 164.5625,113.4199 Q164.3281,113.1543 164.3281,112.5449 L164.3281,111.6543 L160.3594,111.6543 L160.3594,114.1074 L161.8438,114.1074 Q161.8438,113.4512 161.9688,113.2637 Q162.2344,112.8574 162.7031,112.8574 Q163.0781,112.8574 163.3125,113.123 Q163.5469,113.373 163.5469,113.9824 L163.5469,115.9512 Q163.5469,116.498 163.4219,116.6855 Q163.1563,117.0762 162.7031,117.0762 Q162.2344,117.0762 161.9688,116.6699 Q161.8438,116.4824 161.8438,115.8105 L160.3594,115.8105 Z " fill="#000000"/><text fill="#000000" font-family="sans-serif" font-size="14" lengthAdjust="spacing" textLength="43" x="175.5" y="120.8105">VIEWS</text><line style="stroke:#181818;stroke-width:0.5;" x1="147.5" x2="220.5" y1="131.0137" y2="131.0137"/><text fill="#000000" font-family="sans-serif" font-size="14" lengthAdjust="spacing" textLength="40" x="152.5" y="150.1211">HOME</text><text fill="#000000" font-family="sans-serif" font-size="14" lengthAdjust="spacing" textLength="40" x="152.5" y="168.7422">GAME</text><line style="stroke:#181818;stroke-width:0.5;" x1="147.5" x2="220.5" y1="176.2559" y2="176.2559"/></g><!--class ViewManager--><g id="elem_ViewManager"><rect codeLine="21" fill="#F1F1F1" height="196.9688" id="ViewManager" rx="2.5" ry="2.5" style="stroke:#181818;stroke-width:0.5;" width="227" x="256.5" y="43.0137"/><ellipse cx="323.25" cy="59.0137" fill="#ADD1B2" rx="11" ry="11" style="stroke:#181818;stroke-width:1.0;"/><path d="M326.0156,54.8887 Q326.1719,54.6699 326.3594,54.5605 Q326.5469,54.4512 326.7656,54.4512 Q327.1406,54.4512 327.375,54.7168 Q327.6094,54.9668 327.6094,55.5762 L327.6094,57.0293 Q327.6094,57.6387 327.375,57.9043 Q327.1406,58.1699 326.7656,58.1699 Q326.4219,58.1699 326.2188,57.9668 Q326.0156,57.7793 325.9063,57.2637 Q325.8594,56.9043 325.6719,56.7168 Q325.3438,56.3418 324.7344,56.123 Q324.125,55.9043 323.5,55.9043 Q322.7344,55.9043 322.0938,56.2324 Q321.4688,56.5605 320.9688,57.3105 Q320.4844,58.0605 320.4844,59.0918 L320.4844,60.1855 Q320.4844,61.4199 321.375,62.248 Q322.2656,63.0605 323.8594,63.0605 Q324.7969,63.0605 325.4531,62.8105 Q325.8438,62.6543 326.2656,62.2168 Q326.5313,61.9512 326.6719,61.873 Q326.8281,61.7949 327.0313,61.7949 Q327.3594,61.7949 327.6094,62.0605 Q327.875,62.3105 327.875,62.6543 Q327.875,62.998 327.5313,63.4043 Q327.0313,63.9824 326.2344,64.3105 Q325.1563,64.7637 323.8594,64.7637 Q322.3438,64.7637 321.1406,64.1387 Q320.1563,63.6387 319.4688,62.5762 Q318.7813,61.498 318.7813,60.2168 L318.7813,59.0605 Q318.7813,57.7324 319.3906,56.5918 Q320.0156,55.4355 321.1094,54.8262 Q322.2031,54.2012 323.4375,54.2012 Q324.1719,54.2012 324.8125,54.373 Q325.4688,54.5293 326.0156,54.8887 Z " fill="#000000"/><text fill="#000000" font-family="sans-serif" font-size="14" lengthAdjust="spacing" textLength="85" x="343.75" y="64.8105">ViewManager</text><line style="stroke:#181818;stroke-width:0.5;" x1="257.5" x2="482.5" y1="75.0137" y2="75.0137"/><rect fill="none" height="6" style="stroke:#C82930;stroke-width:1.0;" width="6" x="264.5" y="86.8242"/><text fill="#000000" font-family="sans-serif" font-size="14" lengthAdjust="spacing" text-decoration="underline" textLength="146" x="276.5" y="94.1211">instance: ViewManager</text><rect fill="none" height="6" style="stroke:#C82930;stroke-width:1.0;" width="6" x="264.5" y="105.4453"/><text fill="#000000" font-family="sans-serif" font-size="14" lengthAdjust="spacing" textLength="80" x="276.5" y="112.7422">stage: Stage</text><line style="stroke:#181818;stroke-width:1.0;" x1="257.5" x2="482.5" y1="120.2559" y2="120.2559"/><rect fill="#F24D5C" height="6" style="stroke:#C82930;stroke-width:1.0;" width="6" x="264.5" y="132.0664"/><text fill="#000000" font-family="sans-serif" font-size="14" lengthAdjust="spacing" textLength="95" x="276.5" y="139.3633">ViewManager()</text><ellipse cx="267.5" cy="153.6875" fill="#84BE84" rx="3" ry="3" style="stroke:#038048;stroke-width:1.0;"/><text fill="#000000" font-family="sans-serif" font-size="14" lengthAdjust="spacing" text-decoration="underline" textLength="176" x="276.5" y="157.9844">getInstance(): ViewManager</text><ellipse cx="267.5" cy="172.3086" fill="#84BE84" rx="3" ry="3" style="stroke:#038048;stroke-width:1.0;"/><text fill="#000000" font-family="sans-serif" font-size="14" lengthAdjust="spacing" textLength="137" x="276.5" y="176.6055">setStage(Stage): void</text><ellipse cx="267.5" cy="190.9297" fill="#84BE84" rx="3" ry="3" style="stroke:#038048;stroke-width:1.0;"/><text fill="#000000" font-family="sans-serif" font-size="14" lengthAdjust="spacing" textLength="201" x="276.5" y="195.2266">registerView(VIEWS, View): void</text><ellipse cx="267.5" cy="209.5508" fill="#84BE84" rx="3" ry="3" style="stroke:#038048;stroke-width:1.0;"/><text fill="#000000" font-family="sans-serif" font-size="14" lengthAdjust="spacing" textLength="158" x="276.5" y="213.8477">navigateTo(VIEWS): void</text><ellipse cx="267.5" cy="228.1719" fill="#84BE84" rx="3" ry="3" style="stroke:#038048;stroke-width:1.0;"/><text fill="#000000" font-family="sans-serif" font-size="14" lengthAdjust="spacing" textLength="182" x="276.5" y="232.4688">setFullScreen(boolean): void</text></g><!--class Sprite--><g id="elem_Sprite"><rect codeLine="64" fill="#F1F1F1" height="85.2422" id="Sprite" rx="2.5" ry="2.5" style="stroke:#181818;stroke-width:0.5;" width="89" x="22.5" y="99.0137"/><ellipse cx="46.5" cy="115.0137" fill="#ADD1B2" rx="11" ry="11" style="stroke:#181818;stroke-width:1.0;"/><path d="M49.2656,110.8887 Q49.4219,110.6699 49.6094,110.5605 Q49.7969,110.4512 50.0156,110.4512 Q50.3906,110.4512 50.625,110.7168 Q50.8594,110.9668 50.8594,111.5762 L50.8594,113.0293 Q50.8594,113.6387 50.625,113.9043 Q50.3906,114.1699 50.0156,114.1699 Q49.6719,114.1699 49.4688,113.9668 Q49.2656,113.7793 49.1563,113.2637 Q49.1094,112.9043 48.9219,112.7168 Q48.5938,112.3418 47.9844,112.123 Q47.375,111.9043 46.75,111.9043 Q45.9844,111.9043 45.3438,112.2324 Q44.7188,112.5605 44.2188,113.3105 Q43.7344,114.0605 43.7344,115.0918 L43.7344,116.1855 Q43.7344,117.4199 44.625,118.248 Q45.5156,119.0605 47.1094,119.0605 Q48.0469,119.0605 48.7031,118.8105 Q49.0938,118.6543 49.5156,118.2168 Q49.7813,117.9512 49.9219,117.873 Q50.0781,117.7949 50.2813,117.7949 Q50.6094,117.7949 50.8594,118.0605 Q51.125,118.3105 51.125,118.6543 Q51.125,118.998 50.7813,119.4043 Q50.2813,119.9824 49.4844,120.3105 Q48.4063,120.7637 47.1094,120.7637 Q45.5938,120.7637 44.3906,120.1387 Q43.4063,119.6387 42.7188,118.5762 Q42.0313,117.498 42.0313,116.2168 L42.0313,115.0605 Q42.0313,113.7324 42.6406,112.5918 Q43.2656,111.4355 44.3594,110.8262 Q45.4531,110.2012 46.6875,110.2012 Q47.4219,110.2012 48.0625,110.373 Q48.7188,110.5293 49.2656,110.8887 Z " fill="#000000"/><text fill="#000000" font-family="sans-serif" font-size="14" lengthAdjust="spacing" textLength="37" x="62.5" y="120.8105">Sprite</text><line style="stroke:#181818;stroke-width:0.5;" x1="23.5" x2="110.5" y1="131.0137" y2="131.0137"/><rect fill="none" height="6" style="stroke:#C82930;stroke-width:1.0;" width="6" x="30.5" y="142.8242"/><text fill="#000000" font-family="sans-serif" font-size="14" lengthAdjust="spacing" textLength="57" x="42.5" y="150.1211">String uri</text><line style="stroke:#181818;stroke-width:0.5;" x1="23.5" x2="110.5" y1="157.6348" y2="157.6348"/><ellipse cx="33.5" cy="172.4453" fill="#84BE84" rx="3" ry="3" style="stroke:#038048;stroke-width:1.0;"/><text fill="#000000" font-family="sans-serif" font-size="14" lengthAdjust="spacing" textLength="63" x="42.5" y="176.7422">Sprite(uri)</text></g><!--class HomeViewController--><g id="elem_HomeViewController"><rect codeLine="34" fill="#F1F1F1" height="159.7266" id="HomeViewController" rx="2.5" ry="2.5" style="stroke:#181818;stroke-width:0.5;" width="271" x="139.5" y="451.0137"/><ellipse cx="207.25" cy="467.0137" fill="#ADD1B2" rx="11" ry="11" style="stroke:#181818;stroke-width:1.0;"/><path d="M210.0156,462.8887 Q210.1719,462.6699 210.3594,462.5605 Q210.5469,462.4512 210.7656,462.4512 Q211.1406,462.4512 211.375,462.7168 Q211.6094,462.9668 211.6094,463.5762 L211.6094,465.0293 Q211.6094,465.6387 211.375,465.9043 Q211.1406,466.1699 210.7656,466.1699 Q210.4219,466.1699 210.2188,465.9668 Q210.0156,465.7793 209.9063,465.2637 Q209.8594,464.9043 209.6719,464.7168 Q209.3438,464.3418 208.7344,464.123 Q208.125,463.9043 207.5,463.9043 Q206.7344,463.9043 206.0938,464.2324 Q205.4688,464.5605 204.9688,465.3105 Q204.4844,466.0605 204.4844,467.0918 L204.4844,468.1855 Q204.4844,469.4199 205.375,470.248 Q206.2656,471.0605 207.8594,471.0605 Q208.7969,471.0605 209.4531,470.8105 Q209.8438,470.6543 210.2656,470.2168 Q210.5313,469.9512 210.6719,469.873 Q210.8281,469.7949 211.0313,469.7949 Q211.3594,469.7949 211.6094,470.0605 Q211.875,470.3105 211.875,470.6543 Q211.875,470.998 211.5313,471.4043 Q211.0313,471.9824 210.2344,472.3105 Q209.1563,472.7637 207.8594,472.7637 Q206.3438,472.7637 205.1406,472.1387 Q204.1563,471.6387 203.4688,470.5762 Q202.7813,469.498 202.7813,468.2168 L202.7813,467.0605 Q202.7813,465.7324 203.3906,464.5918 Q204.0156,463.4355 205.1094,462.8262 Q206.2031,462.2012 207.4375,462.2012 Q208.1719,462.2012 208.8125,462.373 Q209.4688,462.5293 210.0156,462.8887 Z " fill="#000000"/><text fill="#000000" font-family="sans-serif" font-size="14" lengthAdjust="spacing" textLength="127" x="227.75" y="472.8105">HomeViewController</text><line style="stroke:#181818;stroke-width:0.5;" x1="140.5" x2="409.5" y1="483.0137" y2="483.0137"/><rect fill="none" height="6" style="stroke:#C82930;stroke-width:1.0;" width="6" x="147.5" y="494.8242"/><text fill="#000000" font-family="sans-serif" font-size="14" lengthAdjust="spacing" textLength="107" x="159.5" y="502.1211">gameTitle: String</text><rect fill="none" height="6" style="stroke:#C82930;stroke-width:1.0;" width="6" x="147.5" y="513.4453"/><text fill="#000000" font-family="sans-serif" font-size="14" lengthAdjust="spacing" textLength="197" x="159.5" y="520.7422">fullScreenCheckBox: CheckBox</text><line style="stroke:#181818;stroke-width:1.0;" x1="140.5" x2="409.5" y1="528.2559" y2="528.2559"/><polygon fill="#FFFF44" points="150.5,538.0664,154.5,542.0664,150.5,546.0664,146.5,542.0664" style="stroke:#B38D22;stroke-width:1.0;"/><text fill="#000000" font-family="sans-serif" font-size="14" lengthAdjust="spacing" textLength="131" x="159.5" y="547.3633">onButtonClick(): void</text><polygon fill="#FFFF44" points="150.5,556.6875,154.5,560.6875,150.5,564.6875,146.5,560.6875" style="stroke:#B38D22;stroke-width:1.0;"/><text fill="#000000" font-family="sans-serif" font-size="14" lengthAdjust="spacing" textLength="172" x="159.5" y="565.9844">onFullScreenToggle(): void</text><ellipse cx="150.5" cy="580.3086" fill="#84BE84" rx="3" ry="3" style="stroke:#038048;stroke-width:1.0;"/><text fill="#000000" font-family="sans-serif" font-size="14" lengthAdjust="spacing" textLength="165" x="159.5" y="584.6055">setGameTitle(String): void</text><ellipse cx="150.5" cy="598.9297" fill="#84BE84" rx="3" ry="3" style="stroke:#038048;stroke-width:1.0;"/><text fill="#000000" font-family="sans-serif" font-size="14" lengthAdjust="spacing" textLength="245" x="159.5" y="603.2266">setFullScreenCheckBox(boolean): void</text></g><!--class GameViewController--><g id="elem_GameViewController"><rect codeLine="44" fill="#F1F1F1" height="85.2422" id="GameViewController" rx="2.5" ry="2.5" style="stroke:#181818;stroke-width:0.5;" width="161" x="445.5" y="488.5137"/><ellipse cx="460.5" cy="504.5137" fill="#ADD1B2" rx="11" ry="11" style="stroke:#181818;stroke-width:1.0;"/><path d="M463.2656,500.3887 Q463.4219,500.1699 463.6094,500.0605 Q463.7969,499.9512 464.0156,499.9512 Q464.3906,499.9512 464.625,500.2168 Q464.8594,500.4668 464.8594,501.0762 L464.8594,502.5293 Q464.8594,503.1387 464.625,503.4043 Q464.3906,503.6699 464.0156,503.6699 Q463.6719,503.6699 463.4688,503.4668 Q463.2656,503.2793 463.1563,502.7637 Q463.1094,502.4043 462.9219,502.2168 Q462.5938,501.8418 461.9844,501.623 Q461.375,501.4043 460.75,501.4043 Q459.9844,501.4043 459.3438,501.7324 Q458.7188,502.0605 458.2188,502.8105 Q457.7344,503.5605 457.7344,504.5918 L457.7344,505.6855 Q457.7344,506.9199 458.625,507.748 Q459.5156,508.5605 461.1094,508.5605 Q462.0469,508.5605 462.7031,508.3105 Q463.0938,508.1543 463.5156,507.7168 Q463.7813,507.4512 463.9219,507.373 Q464.0781,507.2949 464.2813,507.2949 Q464.6094,507.2949 464.8594,507.5605 Q465.125,507.8105 465.125,508.1543 Q465.125,508.498 464.7813,508.9043 Q464.2813,509.4824 463.4844,509.8105 Q462.4063,510.2637 461.1094,510.2637 Q459.5938,510.2637 458.3906,509.6387 Q457.4063,509.1387 456.7188,508.0762 Q456.0313,506.998 456.0313,505.7168 L456.0313,504.5605 Q456.0313,503.2324 456.6406,502.0918 Q457.2656,500.9355 458.3594,500.3262 Q459.4531,499.7012 460.6875,499.7012 Q461.4219,499.7012 462.0625,499.873 Q462.7188,500.0293 463.2656,500.3887 Z " fill="#000000"/><text fill="#000000" font-family="sans-serif" font-size="14" lengthAdjust="spacing" textLength="129" x="474.5" y="510.3105">GameViewController</text><line style="stroke:#181818;stroke-width:0.5;" x1="446.5" x2="605.5" y1="520.5137" y2="520.5137"/><rect fill="none" height="6" style="stroke:#C82930;stroke-width:1.0;" width="6" x="453.5" y="532.3242"/><text fill="#000000" font-family="sans-serif" font-size="14" lengthAdjust="spacing" textLength="101" x="465.5" y="539.6211">canvas: Canvas</text><line style="stroke:#181818;stroke-width:1.0;" x1="446.5" x2="605.5" y1="547.1348" y2="547.1348"/><ellipse cx="456.5" cy="561.9453" fill="#84BE84" rx="3" ry="3" style="stroke:#038048;stroke-width:1.0;"/><text fill="#000000" font-family="sans-serif" font-size="14" lengthAdjust="spacing" textLength="134" x="465.5" y="566.2422">getCanvas(): Canvas</text></g><!--class HomeView--><g id="elem_HomeView"><rect codeLine="50" fill="#F1F1F1" height="103.8633" id="HomeView" rx="2.5" ry="2.5" style="stroke:#181818;stroke-width:0.5;" width="222" x="642" y="479.0137"/><ellipse cx="716.25" cy="495.0137" fill="#ADD1B2" rx="11" ry="11" style="stroke:#181818;stroke-width:1.0;"/><path d="M719.0156,490.8887 Q719.1719,490.6699 719.3594,490.5605 Q719.5469,490.4512 719.7656,490.4512 Q720.1406,490.4512 720.375,490.7168 Q720.6094,490.9668 720.6094,491.5762 L720.6094,493.0293 Q720.6094,493.6387 720.375,493.9043 Q720.1406,494.1699 719.7656,494.1699 Q719.4219,494.1699 719.2188,493.9668 Q719.0156,493.7793 718.9063,493.2637 Q718.8594,492.9043 718.6719,492.7168 Q718.3438,492.3418 717.7344,492.123 Q717.125,491.9043 716.5,491.9043 Q715.7344,491.9043 715.0938,492.2324 Q714.4688,492.5605 713.9688,493.3105 Q713.4844,494.0605 713.4844,495.0918 L713.4844,496.1855 Q713.4844,497.4199 714.375,498.248 Q715.2656,499.0605 716.8594,499.0605 Q717.7969,499.0605 718.4531,498.8105 Q718.8438,498.6543 719.2656,498.2168 Q719.5313,497.9512 719.6719,497.873 Q719.8281,497.7949 720.0313,497.7949 Q720.3594,497.7949 720.6094,498.0605 Q720.875,498.3105 720.875,498.6543 Q720.875,498.998 720.5313,499.4043 Q720.0313,499.9824 719.2344,500.3105 Q718.1563,500.7637 716.8594,500.7637 Q715.3438,500.7637 714.1406,500.1387 Q713.1563,499.6387 712.4688,498.5762 Q711.7813,497.498 711.7813,496.2168 L711.7813,495.0605 Q711.7813,493.7324 712.3906,492.5918 Q713.0156,491.4355 714.1094,490.8262 Q715.2031,490.2012 716.4375,490.2012 Q717.1719,490.2012 717.8125,490.373 Q718.4688,490.5293 719.0156,490.8887 Z " fill="#000000"/><text fill="#000000" font-family="sans-serif" font-size="14" lengthAdjust="spacing" textLength="65" x="736.75" y="500.8105">HomeView</text><line style="stroke:#181818;stroke-width:0.5;" x1="643" x2="863" y1="511.0137" y2="511.0137"/><line style="stroke:#181818;stroke-width:0.5;" x1="643" x2="863" y1="519.0137" y2="519.0137"/><ellipse cx="653" cy="533.8242" fill="#84BE84" rx="3" ry="3" style="stroke:#038048;stroke-width:1.0;"/><text fill="#000000" font-family="sans-serif" font-size="14" lengthAdjust="spacing" textLength="75" x="662" y="538.1211">HomeView()</text><ellipse cx="653" cy="552.4453" fill="#84BE84" rx="3" ry="3" style="stroke:#038048;stroke-width:1.0;"/><text fill="#000000" font-family="sans-serif" font-size="14" lengthAdjust="spacing" textLength="107" x="662" y="556.7422">onViewInit(): void</text><ellipse cx="653" cy="571.0664" fill="#84BE84" rx="3" ry="3" style="stroke:#038048;stroke-width:1.0;"/><text fill="#000000" font-family="sans-serif" font-size="14" lengthAdjust="spacing" textLength="196" x="662" y="575.3633">onKeyPressed(KeyEvent): void</text></g><!--class GameView--><g id="elem_GameView"><rect codeLine="56" fill="#F1F1F1" height="122.4844" id="GameView" rx="2.5" ry="2.5" style="stroke:#181818;stroke-width:0.5;" width="205" x="899.5" y="470.0137"/><ellipse cx="964.25" cy="486.0137" fill="#ADD1B2" rx="11" ry="11" style="stroke:#181818;stroke-width:1.0;"/><path d="M967.0156,481.8887 Q967.1719,481.6699 967.3594,481.5605 Q967.5469,481.4512 967.7656,481.4512 Q968.1406,481.4512 968.375,481.7168 Q968.6094,481.9668 968.6094,482.5762 L968.6094,484.0293 Q968.6094,484.6387 968.375,484.9043 Q968.1406,485.1699 967.7656,485.1699 Q967.4219,485.1699 967.2188,484.9668 Q967.0156,484.7793 966.9063,484.2637 Q966.8594,483.9043 966.6719,483.7168 Q966.3438,483.3418 965.7344,483.123 Q965.125,482.9043 964.5,482.9043 Q963.7344,482.9043 963.0938,483.2324 Q962.4688,483.5605 961.9688,484.3105 Q961.4844,485.0605 961.4844,486.0918 L961.4844,487.1855 Q961.4844,488.4199 962.375,489.248 Q963.2656,490.0605 964.8594,490.0605 Q965.7969,490.0605 966.4531,489.8105 Q966.8438,489.6543 967.2656,489.2168 Q967.5313,488.9512 967.6719,488.873 Q967.8281,488.7949 968.0313,488.7949 Q968.3594,488.7949 968.6094,489.0605 Q968.875,489.3105 968.875,489.6543 Q968.875,489.998 968.5313,490.4043 Q968.0313,490.9824 967.2344,491.3105 Q966.1563,491.7637 964.8594,491.7637 Q963.3438,491.7637 962.1406,491.1387 Q961.1563,490.6387 960.4688,489.5762 Q959.7813,488.498 959.7813,487.2168 L959.7813,486.0605 Q959.7813,484.7324 960.3906,483.5918 Q961.0156,482.4355 962.1094,481.8262 Q963.2031,481.2012 964.4375,481.2012 Q965.1719,481.2012 965.8125,481.373 Q966.4688,481.5293 967.0156,481.8887 Z " fill="#000000"/><text fill="#000000" font-family="sans-serif" font-size="14" lengthAdjust="spacing" textLength="67" x="984.75" y="491.8105">GameView</text><line style="stroke:#181818;stroke-width:0.5;" x1="900.5" x2="1103.5" y1="502.0137" y2="502.0137"/><line style="stroke:#181818;stroke-width:0.5;" x1="900.5" x2="1103.5" y1="510.0137" y2="510.0137"/><ellipse cx="910.5" cy="524.8242" fill="#84BE84" rx="3" ry="3" style="stroke:#038048;stroke-width:1.0;"/><text fill="#000000" font-family="sans-serif" font-size="14" lengthAdjust="spacing" textLength="77" x="919.5" y="529.1211">GameView()</text><ellipse cx="910.5" cy="543.4453" fill="#84BE84" rx="3" ry="3" style="stroke:#038048;stroke-width:1.0;"/><text fill="#000000" font-family="sans-serif" font-size="14" lengthAdjust="spacing" textLength="151" x="919.5" y="547.7422">onViewDisplayed(): void</text><rect fill="#F24D5C" height="6" style="stroke:#C82930;stroke-width:1.0;" width="6" x="907.5" y="559.0664"/><text fill="#000000" font-family="sans-serif" font-size="14" lengthAdjust="spacing" textLength="179" x="919.5" y="566.3633">draw(Canvas, Number): void</text><ellipse cx="910.5" cy="580.6875" fill="#84BE84" rx="3" ry="3" style="stroke:#038048;stroke-width:1.0;"/><text fill="#000000" font-family="sans-serif" font-size="14" lengthAdjust="spacing" textLength="86" x="919.5" y="584.9844">render(): void</text></g><!--class Engine--><g id="elem_Engine"><rect codeLine="70" fill="#F1F1F1" height="85.2422" id="Engine" rx="2.5" ry="2.5" style="stroke:#181818;stroke-width:0.5;" width="140" x="828" y="99.0137"/><ellipse cx="871.8" cy="115.0137" fill="#ADD1B2" rx="11" ry="11" style="stroke:#181818;stroke-width:1.0;"/><path d="M874.5656,110.8887 Q874.7219,110.6699 874.9094,110.5605 Q875.0969,110.4512 875.3156,110.4512 Q875.6906,110.4512 875.925,110.7168 Q876.1594,110.9668 876.1594,111.5762 L876.1594,113.0293 Q876.1594,113.6387 875.925,113.9043 Q875.6906,114.1699 875.3156,114.1699 Q874.9719,114.1699 874.7688,113.9668 Q874.5656,113.7793 874.4563,113.2637 Q874.4094,112.9043 874.2219,112.7168 Q873.8938,112.3418 873.2844,112.123 Q872.675,111.9043 872.05,111.9043 Q871.2844,111.9043 870.6438,112.2324 Q870.0188,112.5605 869.5188,113.3105 Q869.0344,114.0605 869.0344,115.0918 L869.0344,116.1855 Q869.0344,117.4199 869.925,118.248 Q870.8156,119.0605 872.4094,119.0605 Q873.3469,119.0605 874.0031,118.8105 Q874.3938,118.6543 874.8156,118.2168 Q875.0813,117.9512 875.2219,117.873 Q875.3781,117.7949 875.5813,117.7949 Q875.9094,117.7949 876.1594,118.0605 Q876.425,118.3105 876.425,118.6543 Q876.425,118.998 876.0813,119.4043 Q875.5813,119.9824 874.7844,120.3105 Q873.7063,120.7637 872.4094,120.7637 Q870.8938,120.7637 869.6906,120.1387 Q868.7063,119.6387 868.0188,118.5762 Q867.3313,117.498 867.3313,116.2168 L867.3313,115.0605 Q867.3313,113.7324 867.9406,112.5918 Q868.5656,111.4355 869.6594,110.8262 Q870.7531,110.2012 871.9875,110.2012 Q872.7219,110.2012 873.3625,110.373 Q874.0188,110.5293 874.5656,110.8887 Z " fill="#000000"/><text fill="#000000" font-family="sans-serif" font-size="14" lengthAdjust="spacing" textLength="44" x="892.2" y="120.8105">Engine</text><line style="stroke:#181818;stroke-width:0.5;" x1="829" x2="967" y1="131.0137" y2="131.0137"/><line style="stroke:#181818;stroke-width:0.5;" x1="829" x2="967" y1="139.0137" y2="139.0137"/><ellipse cx="839" cy="153.8242" fill="#84BE84" rx="3" ry="3" style="stroke:#038048;stroke-width:1.0;"/><text fill="#000000" font-family="sans-serif" font-size="14" lengthAdjust="spacing" textLength="114" x="848" y="158.1211">handle(long): void</text><ellipse cx="839" cy="172.4453" fill="#84BE84" rx="3" ry="3" style="stroke:#038048;stroke-width:1.0;"/><text fill="#000000" font-family="sans-serif" font-size="14" lengthAdjust="spacing" textLength="72" x="848" y="176.7422">start(): void</text></g><!--class GameInterface--><g id="elem_GameInterface"><rect codeLine="75" fill="#F1F1F1" height="66.6211" id="GameInterface" rx="2.5" ry="2.5" style="stroke:#181818;stroke-width:0.5;" width="126" x="1027" y="108.0137"/><ellipse cx="1042" cy="124.0137" fill="#B4A7E5" rx="11" ry="11" style="stroke:#181818;stroke-width:1.0;"/><path d="M1042.9531,120.6543 L1042.9531,127.3105 L1044.6719,127.3105 Q1045.2813,127.3105 1045.5469,127.5449 Q1045.8125,127.7793 1045.8125,128.1699 Q1045.8125,128.5449 1045.5469,128.7793 Q1045.2813,129.0137 1044.6719,129.0137 L1039.5313,129.0137 Q1038.9219,129.0137 1038.6563,128.7793 Q1038.3906,128.5449 1038.3906,128.1543 Q1038.3906,127.7793 1038.6563,127.5449 Q1038.9219,127.3105 1039.5313,127.3105 L1041.25,127.3105 L1041.25,120.6543 L1039.5313,120.6543 Q1038.9219,120.6543 1038.6563,120.4199 Q1038.3906,120.1855 1038.3906,119.7949 Q1038.3906,119.4199 1038.6563,119.1855 Q1038.9219,118.9512 1039.5313,118.9512 L1044.6719,118.9512 Q1045.2813,118.9512 1045.5469,119.1855 Q1045.8125,119.4199 1045.8125,119.7949 Q1045.8125,120.1855 1045.5469,120.4199 Q1045.2813,120.6543 1044.6719,120.6543 L1042.9531,120.6543 Z " fill="#000000"/><text fill="#000000" font-family="sans-serif" font-size="14" font-style="italic" lengthAdjust="spacing" textLength="94" x="1056" y="129.8105">GameInterface</text><line style="stroke:#181818;stroke-width:0.5;" x1="1028" x2="1152" y1="140.0137" y2="140.0137"/><line style="stroke:#181818;stroke-width:0.5;" x1="1028" x2="1152" y1="148.0137" y2="148.0137"/><ellipse cx="1038" cy="162.8242" fill="#84BE84" rx="3" ry="3" style="stroke:#038048;stroke-width:1.0;"/><text fill="#000000" font-family="sans-serif" font-size="14" lengthAdjust="spacing" textLength="86" x="1047" y="167.1211">render(): void</text></g><!--link View to ViewController--><g id="link_View_ViewController"><path codeLine="81" d="M610.89,230.5937 C586.23,262.9537 560.32,296.9737 543.7,318.7837 " fill="none" id="View-ViewController" style="stroke:#181818;stroke-width:1.0;"/><polygon fill="none" points="585,275.1592,589,279.1592,585,283.1592,581,279.1592" style="stroke:#B38D22;stroke-width:1.0;"/><text fill="#000000" font-family="sans-serif" font-size="13" lengthAdjust="spacing" textLength="53" x="592" y="285.042">controller</text><text fill="#000000" font-family="sans-serif" font-size="13" lengthAdjust="spacing" textLength="7" x="540.1613" y="307.8695">1</text></g><!--link ViewManager to View--><g id="link_ViewManager_View"><path codeLine="82" d="M483.81,141.5137 C509.6,141.5137 537.01,141.5137 562.85,141.5137 " fill="none" id="ViewManager-View" style="stroke:#181818;stroke-width:1.0;"/><rect fill="none" height="6" style="stroke:#C82930;stroke-width:1.0;" width="6" x="503.75" y="126.6592"/><text fill="#000000" font-family="sans-serif" font-size="13" lengthAdjust="spacing" textLength="31" x="513.75" y="134.542">views</text><text fill="#000000" font-family="sans-serif" font-size="13" lengthAdjust="spacing" textLength="5" x="549.9454" y="137.969">*</text></g><!--reverse link ViewController to HomeViewController--><g id="link_ViewController_HomeViewController"><path codeLine="85" d="M471.8167,376.5718 C453.5367,387.8118 446.97,392.3937 428,406.0137 C408.56,419.9737 388.31,435.5637 369.15,450.8637 " fill="none" id="ViewController-backto-HomeViewController" style="stroke:#181818;stroke-width:1.0;"/><polygon fill="none" points="487.15,367.1437,468.674,371.4607,474.9594,381.6829,487.15,367.1437" style="stroke:#181818;stroke-width:1.0;"/></g><!--reverse link View to HomeView--><g id="link_View_HomeView"><path codeLine="86" d="M698.5305,248.5957 C713.3605,325.2157 730.88,415.7337 743.09,478.8137 " fill="none" id="View-backto-HomeView" style="stroke:#181818;stroke-width:1.0;"/><polygon fill="none" points="695.11,230.9237,692.6398,249.7359,704.4211,247.4555,695.11,230.9237" style="stroke:#181818;stroke-width:1.0;"/></g><!--reverse link ViewController to GameViewController--><g id="link_ViewController_GameViewController"><path codeLine="87" d="M526,385.1937 C526,415.4837 526,451.0437 526,488.4437 " fill="none" id="ViewController-backto-GameViewController" style="stroke:#181818;stroke-width:1.0;"/><polygon fill="none" points="526,367.1937,520,385.1937,532,385.1937,526,367.1937" style="stroke:#181818;stroke-width:1.0;"/></g><!--reverse link View to GameView--><g id="link_View_GameView"><path codeLine="88" d="M763.4748,244.7337 C824.6348,317.8937 898.33,406.0237 951.81,469.9937 " fill="none" id="View-backto-GameView" style="stroke:#181818;stroke-width:1.0;"/><polygon fill="none" points="751.93,230.9237,758.8715,248.582,768.0782,240.8854,751.93,230.9237" style="stroke:#181818;stroke-width:1.0;"/></g><!--reverse link GameInterface to GameView--><g id="link_GameInterface_GameView"><path codeLine="91" d="M1088.2277,193.3367 C1086.0877,242.5267 1080.12,319.9437 1059,398.0137 C1052.45,422.2337 1042.26,447.7737 1032.29,469.8737 " fill="none" id="GameInterface-backto-GameView" style="stroke:#181818;stroke-width:1.0;stroke-dasharray:7.0,7.0;"/><polygon fill="none" points="1089.01,175.3537,1082.2333,193.0759,1094.222,193.5974,1089.01,175.3537" style="stroke:#181818;stroke-width:1.0;"/></g><!--link Engine to GameInterface--><g id="link_Engine_GameInterface"><path codeLine="92" d="M968.13,141.5137 C987.31,141.5137 1007.97,141.5137 1026.74,141.5137 " fill="none" id="Engine-GameInterface" style="stroke:#181818;stroke-width:1.0;"/><rect fill="none" height="6" style="stroke:#C82930;stroke-width:1.0;" width="6" x="988.5" y="126.6592"/><text fill="#000000" font-family="sans-serif" font-size="13" lengthAdjust="spacing" textLength="10" x="998.5" y="134.542">ui</text><text fill="#000000" font-family="sans-serif" font-size="13" lengthAdjust="spacing" textLength="7" x="1012.0209" y="137.5979">1</text></g><!--SRC=[bLHDJ-Cm4BtdLrZbiEaMLzfh3oj1jq25O16jsBER3i6gQqUsKnPr-UyxiLFNpGU8718xxurd_EQZODc6vK3oafDzGl1XAsCroop913E6F75uhP7gEICFJ8EqH2jbmrzAmt94Sh2F2AR3ISsDC91i9Q22Ppj4J4NQARwEA4fMBkUIsrxm5pU5O6-mxcJSmjk31cCGngNpqqDx106iZ_UUzCanLT9g9GHeigzP8CijUPhF_YmYhMv-tyt2vlgYtjGMn-FkcCGCwCYGahsnpFBidN29Avd19AP6H4Hp11VLfoiTDBPBXv42mGNcQrvxgVJiyZCY1gppaRftMqyDEJSMT6MTEY7EtKbjfcGxdZCBI-LvRGRwkYg5M6GQGAOhfJ1BiYCrHLsxE_HZ8lcyj3Tg2yri1OgN9cTRM78hd82Qoxo1FuSefY-GRIxLtmavh4wfz6HxXkLrMLghv5JmRDEgqWFdUCkbodC1dKIdn_KXqjG7sakyQeNS9M0aub6moiSdWcLCxfX14Tpt8mdS6F2qwbODWvRlGx8Q7aS1Y4htqp7nXK7GAq8ha0FG4qZ_IFBAhJLxJRqAv-I-tAv0TuUD0tDTTMehqDRiM1IQMpWP6xuuIAbvr4wUb-BFOLVtWCovX5Rxp9g__M4lJAwn2eNghK7Bj4q_q9bB71FFB0CdwJpizbyJ0azqUQ9qy6FG7CiJRAyiR9DuojB1Tqz74lMZ8qc-rOkEcK7BWlxxsN0GY36ST3HGjtKeijWQW_2fECBZSLcC4JyHAgapu-vzAc5rev8d_m40]--></g></svg>