<?xml version="1.0" encoding="us-ascii" standalone="no"?><svg xmlns="http://www.w3.org/2000/svg" xmlns:xlink="http://www.w3.org/1999/xlink" contentStyleType="text/css" height="700px" preserveAspectRatio="none" style="width:890px;height:700px;background:#FFFFFF;" version="1.1" viewBox="0 0 890 700" width="890px" zoomAndPan="magnify"><defs/><g><!--cluster Escape--><g id="cluster_Escape"><path d="M8.5,6.0137 L60.5,6.0137 A3.75,3.75 0 0 1 63,8.5137 L70,30.6348 L880.5,30.6348 A2.5,2.5 0 0 1 883,33.1348 L883,690.5137 A2.5,2.5 0 0 1 880.5,693.0137 L8.5,693.0137 A2.5,2.5 0 0 1 6,690.5137 L6,8.5137 A2.5,2.5 0 0 1 8.5,6.0137 " fill="none" style="stroke:#000000;stroke-width:1.5;"/><line style="stroke:#000000;stroke-width:1.5;" x1="6" x2="70" y1="30.6348" y2="30.6348"/><text fill="#000000" font-family="sans-serif" font-size="14" font-weight="bold" lengthAdjust="spacing" textLength="51" x="10" y="23.1211">Escape</text></g><!--cluster Outils--><g id="cluster_Outils"><path d="M32.5,51.0137 L74.5,51.0137 A3.75,3.75 0 0 1 77,53.5137 L84,75.6348 L856.5,75.6348 A2.5,2.5 0 0 1 859,78.1348 L859,666.5137 A2.5,2.5 0 0 1 856.5,669.0137 L32.5,669.0137 A2.5,2.5 0 0 1 30,666.5137 L30,53.5137 A2.5,2.5 0 0 1 32.5,51.0137 " fill="none" style="stroke:#000000;stroke-width:1.5;"/><line style="stroke:#000000;stroke-width:1.5;" x1="30" x2="84" y1="75.6348" y2="75.6348"/><text fill="#000000" font-family="sans-serif" font-size="14" font-weight="bold" lengthAdjust="spacing" textLength="41" x="34" y="68.1211">Outils</text></g><!--class Donnees--><g id="elem_Donnees"><rect codeLine="3" fill="#F1F1F1" height="155.7266" id="Donnees" rx="2.5" ry="2.5" style="stroke:#181818;stroke-width:0.5;" width="266" x="46" y="127.0137"/><ellipse cx="146.25" cy="143.0137" fill="#ADD1B2" rx="11" ry="11" style="stroke:#181818;stroke-width:1.0;"/><path d="M149.0156,138.8887 Q149.1719,138.6699 149.3594,138.5605 Q149.5469,138.4512 149.7656,138.4512 Q150.1406,138.4512 150.375,138.7168 Q150.6094,138.9668 150.6094,139.5762 L150.6094,141.0293 Q150.6094,141.6387 150.375,141.9043 Q150.1406,142.1699 149.7656,142.1699 Q149.4219,142.1699 149.2188,141.9668 Q149.0156,141.7793 148.9063,141.2637 Q148.8594,140.9043 148.6719,140.7168 Q148.3438,140.3418 147.7344,140.123 Q147.125,139.9043 146.5,139.9043 Q145.7344,139.9043 145.0938,140.2324 Q144.4688,140.5605 143.9688,141.3105 Q143.4844,142.0605 143.4844,143.0918 L143.4844,144.1855 Q143.4844,145.4199 144.375,146.248 Q145.2656,147.0605 146.8594,147.0605 Q147.7969,147.0605 148.4531,146.8105 Q148.8438,146.6543 149.2656,146.2168 Q149.5313,145.9512 149.6719,145.873 Q149.8281,145.7949 150.0313,145.7949 Q150.3594,145.7949 150.6094,146.0605 Q150.875,146.3105 150.875,146.6543 Q150.875,146.998 150.5313,147.4043 Q150.0313,147.9824 149.2344,148.3105 Q148.1563,148.7637 146.8594,148.7637 Q145.3438,148.7637 144.1406,148.1387 Q143.1563,147.6387 142.4688,146.5762 Q141.7813,145.498 141.7813,144.2168 L141.7813,143.0605 Q141.7813,141.7324 142.3906,140.5918 Q143.0156,139.4355 144.1094,138.8262 Q145.2031,138.2012 146.4375,138.2012 Q147.1719,138.2012 147.8125,138.373 Q148.4688,138.5293 149.0156,138.8887 Z " fill="#000000"/><text fill="#000000" font-family="sans-serif" font-size="14" lengthAdjust="spacing" textLength="57" x="166.75" y="148.8105">Donnees</text><line style="stroke:#181818;stroke-width:0.5;" x1="47" x2="311" y1="159.0137" y2="159.0137"/><ellipse cx="57" cy="173.8242" fill="none" rx="3" ry="3" style="stroke:#038048;stroke-width:1.0;"/><text fill="#000000" font-family="sans-serif" font-size="14" lengthAdjust="spacing" text-decoration="underline" textLength="170" x="66" y="178.1211">String APPDATA_FOLDER</text><ellipse cx="57" cy="192.4453" fill="none" rx="3" ry="3" style="stroke:#038048;stroke-width:1.0;"/><text fill="#000000" font-family="sans-serif" font-size="14" lengthAdjust="spacing" text-decoration="underline" textLength="103" x="66" y="196.7422">boolean DEBUG</text><ellipse cx="57" cy="211.0664" fill="none" rx="3" ry="3" style="stroke:#038048;stroke-width:1.0;"/><text fill="#000000" font-family="sans-serif" font-size="14" lengthAdjust="spacing" text-decoration="underline" textLength="240" x="66" y="215.3633">Set&lt;Locale&gt; SUPPORTED_LOCALES</text><text fill="#000000" font-family="sans-serif" font-size="14" lengthAdjust="spacing" textLength="12" x="66" y="233.9844">...</text><rect fill="#F24D5C" height="6" style="stroke:#C82930;stroke-width:1.0;" width="6" x="54" y="267.9297"/><text fill="#000000" font-family="sans-serif" font-size="14" lengthAdjust="spacing" textLength="67" x="66" y="275.2266">Donnees()</text><line style="stroke:#181818;stroke-width:1.0;stroke-dasharray:1.0,2.0;" x1="47" x2="138" y1="250.8086" y2="250.8086"/><text fill="#000000" font-family="sans-serif" font-size="14" lengthAdjust="spacing" textLength="82" x="138" y="256.1055">Constructeur</text><line style="stroke:#181818;stroke-width:1.0;stroke-dasharray:1.0,2.0;" x1="220" x2="311" y1="250.8086" y2="250.8086"/></g><!--class Resources--><g id="elem_Resources"><rect codeLine="12" fill="#F1F1F1" height="234.2109" id="Resources" rx="2.5" ry="2.5" style="stroke:#181818;stroke-width:0.5;" width="279" x="347.5" y="88.0137"/><ellipse cx="448.75" cy="104.0137" fill="#ADD1B2" rx="11" ry="11" style="stroke:#181818;stroke-width:1.0;"/><path d="M451.5156,99.8887 Q451.6719,99.6699 451.8594,99.5605 Q452.0469,99.4512 452.2656,99.4512 Q452.6406,99.4512 452.875,99.7168 Q453.1094,99.9668 453.1094,100.5762 L453.1094,102.0293 Q453.1094,102.6387 452.875,102.9043 Q452.6406,103.1699 452.2656,103.1699 Q451.9219,103.1699 451.7188,102.9668 Q451.5156,102.7793 451.4063,102.2637 Q451.3594,101.9043 451.1719,101.7168 Q450.8438,101.3418 450.2344,101.123 Q449.625,100.9043 449,100.9043 Q448.2344,100.9043 447.5938,101.2324 Q446.9688,101.5605 446.4688,102.3105 Q445.9844,103.0605 445.9844,104.0918 L445.9844,105.1855 Q445.9844,106.4199 446.875,107.248 Q447.7656,108.0605 449.3594,108.0605 Q450.2969,108.0605 450.9531,107.8105 Q451.3438,107.6543 451.7656,107.2168 Q452.0313,106.9512 452.1719,106.873 Q452.3281,106.7949 452.5313,106.7949 Q452.8594,106.7949 453.1094,107.0605 Q453.375,107.3105 453.375,107.6543 Q453.375,107.998 453.0313,108.4043 Q452.5313,108.9824 451.7344,109.3105 Q450.6563,109.7637 449.3594,109.7637 Q447.8438,109.7637 446.6406,109.1387 Q445.6563,108.6387 444.9688,107.5762 Q444.2813,106.498 444.2813,105.2168 L444.2813,104.0605 Q444.2813,102.7324 444.8906,101.5918 Q445.5156,100.4355 446.6094,99.8262 Q447.7031,99.2012 448.9375,99.2012 Q449.6719,99.2012 450.3125,99.373 Q450.9688,99.5293 451.5156,99.8887 Z " fill="#000000"/><text fill="#000000" font-family="sans-serif" font-size="14" lengthAdjust="spacing" textLength="68" x="469.25" y="109.8105">Resources</text><line style="stroke:#181818;stroke-width:0.5;" x1="348.5" x2="625.5" y1="120.0137" y2="120.0137"/><rect fill="none" height="6" style="stroke:#C82930;stroke-width:1.0;" width="6" x="355.5" y="131.8242"/><text fill="#000000" font-family="sans-serif" font-size="14" lengthAdjust="spacing" text-decoration="underline" textLength="171" x="367.5" y="139.1211">Map&lt;String, Image&gt; assets</text><rect fill="#F24D5C" height="6" style="stroke:#C82930;stroke-width:1.0;" width="6" x="355.5" y="173.0664"/><text fill="#000000" font-family="sans-serif" font-size="14" lengthAdjust="spacing" textLength="78" x="367.5" y="180.3633">Resources()</text><line style="stroke:#181818;stroke-width:1.0;stroke-dasharray:1.0,2.0;" x1="348.5" x2="446" y1="155.9453" y2="155.9453"/><text fill="#000000" font-family="sans-serif" font-size="14" lengthAdjust="spacing" textLength="82" x="446" y="161.2422">Constructeur</text><line style="stroke:#181818;stroke-width:1.0;stroke-dasharray:1.0,2.0;" x1="528" x2="625.5" y1="155.9453" y2="155.9453"/><ellipse cx="358.5" cy="217.3086" fill="#84BE84" rx="3" ry="3" style="stroke:#038048;stroke-width:1.0;"/><text fill="#000000" font-family="sans-serif" font-size="14" lengthAdjust="spacing" text-decoration="underline" textLength="208" x="367.5" y="221.6055">InputStream getAsStream(String)</text><ellipse cx="358.5" cy="235.9297" fill="#84BE84" rx="3" ry="3" style="stroke:#038048;stroke-width:1.0;"/><text fill="#000000" font-family="sans-serif" font-size="14" lengthAdjust="spacing" text-decoration="underline" textLength="144" x="367.5" y="240.2266">Image getAsset(String)</text><ellipse cx="358.5" cy="254.5508" fill="#84BE84" rx="3" ry="3" style="stroke:#038048;stroke-width:1.0;"/><text fill="#000000" font-family="sans-serif" font-size="14" lengthAdjust="spacing" text-decoration="underline" textLength="253" x="367.5" y="258.8477">ResourceBundle getI18NBundle(Locale)</text><ellipse cx="358.5" cy="273.1719" fill="#84BE84" rx="3" ry="3" style="stroke:#038048;stroke-width:1.0;"/><text fill="#000000" font-family="sans-serif" font-size="14" lengthAdjust="spacing" text-decoration="underline" textLength="211" x="367.5" y="277.4688">ResourceBundle getI18NBundle()</text><ellipse cx="358.5" cy="291.793" fill="#84BE84" rx="3" ry="3" style="stroke:#038048;stroke-width:1.0;"/><text fill="#000000" font-family="sans-serif" font-size="14" lengthAdjust="spacing" text-decoration="underline" textLength="223" x="367.5" y="296.0898">String getI18NString(String, Locale)</text><ellipse cx="358.5" cy="310.4141" fill="#84BE84" rx="3" ry="3" style="stroke:#038048;stroke-width:1.0;"/><text fill="#000000" font-family="sans-serif" font-size="14" lengthAdjust="spacing" text-decoration="underline" textLength="173" x="367.5" y="314.7109">String getI18NString(String)</text><line style="stroke:#181818;stroke-width:1.0;stroke-dasharray:1.0,2.0;" x1="348.5" x2="456" y1="197.1875" y2="197.1875"/><text fill="#000000" font-family="sans-serif" font-size="14" lengthAdjust="spacing" textLength="62" x="456" y="202.4844">M&#233;thodes</text><line style="stroke:#181818;stroke-width:1.0;stroke-dasharray:1.0,2.0;" x1="518" x2="625.5" y1="197.1875" y2="197.1875"/></g><!--class FabriqueId--><g id="elem_FabriqueId"><rect codeLine="25" fill="#F1F1F1" height="178.3477" id="FabriqueId" rx="2.5" ry="2.5" style="stroke:#181818;stroke-width:0.5;" width="181" x="661.5" y="116.0137"/><ellipse cx="713.75" cy="132.0137" fill="#ADD1B2" rx="11" ry="11" style="stroke:#181818;stroke-width:1.0;"/><path d="M716.5156,127.8887 Q716.6719,127.6699 716.8594,127.5605 Q717.0469,127.4512 717.2656,127.4512 Q717.6406,127.4512 717.875,127.7168 Q718.1094,127.9668 718.1094,128.5762 L718.1094,130.0293 Q718.1094,130.6387 717.875,130.9043 Q717.6406,131.1699 717.2656,131.1699 Q716.9219,131.1699 716.7188,130.9668 Q716.5156,130.7793 716.4063,130.2637 Q716.3594,129.9043 716.1719,129.7168 Q715.8438,129.3418 715.2344,129.123 Q714.625,128.9043 714,128.9043 Q713.2344,128.9043 712.5938,129.2324 Q711.9688,129.5605 711.4688,130.3105 Q710.9844,131.0605 710.9844,132.0918 L710.9844,133.1855 Q710.9844,134.4199 711.875,135.248 Q712.7656,136.0605 714.3594,136.0605 Q715.2969,136.0605 715.9531,135.8105 Q716.3438,135.6543 716.7656,135.2168 Q717.0313,134.9512 717.1719,134.873 Q717.3281,134.7949 717.5313,134.7949 Q717.8594,134.7949 718.1094,135.0605 Q718.375,135.3105 718.375,135.6543 Q718.375,135.998 718.0313,136.4043 Q717.5313,136.9824 716.7344,137.3105 Q715.6563,137.7637 714.3594,137.7637 Q712.8438,137.7637 711.6406,137.1387 Q710.6563,136.6387 709.9688,135.5762 Q709.2813,134.498 709.2813,133.2168 L709.2813,132.0605 Q709.2813,130.7324 709.8906,129.5918 Q710.5156,128.4355 711.6094,127.8262 Q712.7031,127.2012 713.9375,127.2012 Q714.6719,127.2012 715.3125,127.373 Q715.9688,127.5293 716.5156,127.8887 Z " fill="#000000"/><text fill="#000000" font-family="sans-serif" font-size="14" lengthAdjust="spacing" textLength="68" x="734.25" y="137.8105">FabriqueId</text><line style="stroke:#181818;stroke-width:0.5;" x1="662.5" x2="841.5" y1="148.0137" y2="148.0137"/><rect fill="none" height="6" style="stroke:#C82930;stroke-width:1.0;" width="6" x="669.5" y="159.8242"/><text fill="#000000" font-family="sans-serif" font-size="14" lengthAdjust="spacing" text-decoration="underline" textLength="125" x="681.5" y="167.1211">FabriqueId instance</text><rect fill="none" height="6" style="stroke:#C82930;stroke-width:1.0;" width="6" x="669.5" y="178.4453"/><text fill="#000000" font-family="sans-serif" font-size="14" lengthAdjust="spacing" textLength="30" x="681.5" y="185.7422">int id</text><rect fill="#F24D5C" height="6" style="stroke:#C82930;stroke-width:1.0;" width="6" x="669.5" y="219.6875"/><text fill="#000000" font-family="sans-serif" font-size="14" lengthAdjust="spacing" textLength="78" x="681.5" y="226.9844">FabriqueId()</text><line style="stroke:#181818;stroke-width:1.0;stroke-dasharray:1.0,2.0;" x1="662.5" x2="711" y1="202.5664" y2="202.5664"/><text fill="#000000" font-family="sans-serif" font-size="14" lengthAdjust="spacing" textLength="82" x="711" y="207.8633">Constructeur</text><line style="stroke:#181818;stroke-width:1.0;stroke-dasharray:1.0,2.0;" x1="793" x2="841.5" y1="202.5664" y2="202.5664"/><ellipse cx="672.5" cy="263.9297" fill="#84BE84" rx="3" ry="3" style="stroke:#038048;stroke-width:1.0;"/><text fill="#000000" font-family="sans-serif" font-size="14" lengthAdjust="spacing" text-decoration="underline" textLength="155" x="681.5" y="268.2266">FabriqueId getInstance()</text><ellipse cx="672.5" cy="282.5508" fill="#84BE84" rx="3" ry="3" style="stroke:#038048;stroke-width:1.0;"/><text fill="#000000" font-family="sans-serif" font-size="14" lengthAdjust="spacing" textLength="60" x="681.5" y="286.8477">int getId()</text><line style="stroke:#181818;stroke-width:1.0;stroke-dasharray:1.0,2.0;" x1="662.5" x2="721" y1="243.8086" y2="243.8086"/><text fill="#000000" font-family="sans-serif" font-size="14" lengthAdjust="spacing" textLength="62" x="721" y="249.1055">M&#233;thodes</text><line style="stroke:#181818;stroke-width:1.0;stroke-dasharray:1.0,2.0;" x1="783" x2="841.5" y1="243.8086" y2="243.8086"/></g><!--class ErrorBehavior--><g id="elem_ErrorBehavior"><rect codeLine="36" fill="#F1F1F1" height="99.8633" id="ErrorBehavior" rx="2.5" ry="2.5" style="stroke:#181818;stroke-width:0.5;" width="215" x="71.5" y="467.5137"/><ellipse cx="130.75" cy="483.5137" fill="#ADD1B2" rx="11" ry="11" style="stroke:#181818;stroke-width:1.0;"/><path d="M133.5156,479.3887 Q133.6719,479.1699 133.8594,479.0605 Q134.0469,478.9512 134.2656,478.9512 Q134.6406,478.9512 134.875,479.2168 Q135.1094,479.4668 135.1094,480.0762 L135.1094,481.5293 Q135.1094,482.1387 134.875,482.4043 Q134.6406,482.6699 134.2656,482.6699 Q133.9219,482.6699 133.7188,482.4668 Q133.5156,482.2793 133.4063,481.7637 Q133.3594,481.4043 133.1719,481.2168 Q132.8438,480.8418 132.2344,480.623 Q131.625,480.4043 131,480.4043 Q130.2344,480.4043 129.5938,480.7324 Q128.9688,481.0605 128.4688,481.8105 Q127.9844,482.5605 127.9844,483.5918 L127.9844,484.6855 Q127.9844,485.9199 128.875,486.748 Q129.7656,487.5605 131.3594,487.5605 Q132.2969,487.5605 132.9531,487.3105 Q133.3438,487.1543 133.7656,486.7168 Q134.0313,486.4512 134.1719,486.373 Q134.3281,486.2949 134.5313,486.2949 Q134.8594,486.2949 135.1094,486.5605 Q135.375,486.8105 135.375,487.1543 Q135.375,487.498 135.0313,487.9043 Q134.5313,488.4824 133.7344,488.8105 Q132.6563,489.2637 131.3594,489.2637 Q129.8438,489.2637 128.6406,488.6387 Q127.6563,488.1387 126.9688,487.0762 Q126.2813,485.998 126.2813,484.7168 L126.2813,483.5605 Q126.2813,482.2324 126.8906,481.0918 Q127.5156,479.9355 128.6094,479.3262 Q129.7031,478.7012 130.9375,478.7012 Q131.6719,478.7012 132.3125,478.873 Q132.9688,479.0293 133.5156,479.3887 Z " fill="#000000"/><text fill="#000000" font-family="sans-serif" font-size="14" lengthAdjust="spacing" textLength="88" x="151.25" y="489.3105">ErrorBehavior</text><line style="stroke:#181818;stroke-width:0.5;" x1="72.5" x2="285.5" y1="499.5137" y2="499.5137"/><ellipse cx="82.5" cy="536.9453" fill="#84BE84" rx="3" ry="3" style="stroke:#038048;stroke-width:1.0;"/><text fill="#000000" font-family="sans-serif" font-size="14" lengthAdjust="spacing" text-decoration="underline" textLength="189" x="91.5" y="541.2422">void handle(Exception, String)</text><ellipse cx="82.5" cy="555.5664" fill="#84BE84" rx="3" ry="3" style="stroke:#038048;stroke-width:1.0;"/><text fill="#000000" font-family="sans-serif" font-size="14" lengthAdjust="spacing" text-decoration="underline" textLength="181" x="91.5" y="559.8633">void crash(Exception, String)</text><line style="stroke:#181818;stroke-width:1.0;stroke-dasharray:1.0,2.0;" x1="72.5" x2="148" y1="516.8242" y2="516.8242"/><text fill="#000000" font-family="sans-serif" font-size="14" lengthAdjust="spacing" textLength="62" x="148" y="522.1211">M&#233;thodes</text><line style="stroke:#181818;stroke-width:1.0;stroke-dasharray:1.0,2.0;" x1="210" x2="285.5" y1="516.8242" y2="516.8242"/></g><!--class FileManager--><g id="elem_FileManager"><rect codeLine="42" fill="#F1F1F1" height="271.4531" id="FileManager" rx="2.5" ry="2.5" style="stroke:#181818;stroke-width:0.5;" width="388" x="322" y="382.0137"/><ellipse cx="472.25" cy="398.0137" fill="#ADD1B2" rx="11" ry="11" style="stroke:#181818;stroke-width:1.0;"/><path d="M475.0156,393.8887 Q475.1719,393.6699 475.3594,393.5605 Q475.5469,393.4512 475.7656,393.4512 Q476.1406,393.4512 476.375,393.7168 Q476.6094,393.9668 476.6094,394.5762 L476.6094,396.0293 Q476.6094,396.6387 476.375,396.9043 Q476.1406,397.1699 475.7656,397.1699 Q475.4219,397.1699 475.2188,396.9668 Q475.0156,396.7793 474.9063,396.2637 Q474.8594,395.9043 474.6719,395.7168 Q474.3438,395.3418 473.7344,395.123 Q473.125,394.9043 472.5,394.9043 Q471.7344,394.9043 471.0938,395.2324 Q470.4688,395.5605 469.9688,396.3105 Q469.4844,397.0605 469.4844,398.0918 L469.4844,399.1855 Q469.4844,400.4199 470.375,401.248 Q471.2656,402.0605 472.8594,402.0605 Q473.7969,402.0605 474.4531,401.8105 Q474.8438,401.6543 475.2656,401.2168 Q475.5313,400.9512 475.6719,400.873 Q475.8281,400.7949 476.0313,400.7949 Q476.3594,400.7949 476.6094,401.0605 Q476.875,401.3105 476.875,401.6543 Q476.875,401.998 476.5313,402.4043 Q476.0313,402.9824 475.2344,403.3105 Q474.1563,403.7637 472.8594,403.7637 Q471.3438,403.7637 470.1406,403.1387 Q469.1563,402.6387 468.4688,401.5762 Q467.7813,400.498 467.7813,399.2168 L467.7813,398.0605 Q467.7813,396.7324 468.3906,395.5918 Q469.0156,394.4355 470.1094,393.8262 Q471.2031,393.2012 472.4375,393.2012 Q473.1719,393.2012 473.8125,393.373 Q474.4688,393.5293 475.0156,393.8887 Z " fill="#000000"/><text fill="#000000" font-family="sans-serif" font-size="14" lengthAdjust="spacing" textLength="79" x="492.75" y="403.8105">FileManager</text><line style="stroke:#181818;stroke-width:0.5;" x1="323" x2="709" y1="414.0137" y2="414.0137"/><line style="stroke:#181818;stroke-width:0.5;" x1="323" x2="709" y1="422.0137" y2="422.0137"/><ellipse cx="333" cy="436.8242" fill="#84BE84" rx="3" ry="3" style="stroke:#038048;stroke-width:1.0;"/><text fill="#000000" font-family="sans-serif" font-size="14" lengthAdjust="spacing" text-decoration="underline" textLength="141" x="342" y="441.1211">boolean delete(String)</text><ellipse cx="333" cy="455.4453" fill="#84BE84" rx="3" ry="3" style="stroke:#038048;stroke-width:1.0;"/><text fill="#000000" font-family="sans-serif" font-size="14" lengthAdjust="spacing" text-decoration="underline" textLength="274" x="342" y="459.7422">boolean write(JSONObject, String, boolean)</text><ellipse cx="333" cy="474.0664" fill="#84BE84" rx="3" ry="3" style="stroke:#038048;stroke-width:1.0;"/><text fill="#000000" font-family="sans-serif" font-size="14" lengthAdjust="spacing" text-decoration="underline" textLength="238" x="342" y="478.3633">JSONObject readFile(String, boolean)</text><ellipse cx="333" cy="492.6875" fill="#84BE84" rx="3" ry="3" style="stroke:#038048;stroke-width:1.0;"/><text fill="#000000" font-family="sans-serif" font-size="14" lengthAdjust="spacing" text-decoration="underline" textLength="360" x="342" y="496.9844">Map&lt;String, JSONObject&gt; readDirectory(String, boolean)</text><ellipse cx="333" cy="511.3086" fill="#84BE84" rx="3" ry="3" style="stroke:#038048;stroke-width:1.0;"/><text fill="#000000" font-family="sans-serif" font-size="14" lengthAdjust="spacing" text-decoration="underline" textLength="240" x="342" y="515.6055">JSONObject readResourceFile(String)</text><ellipse cx="333" cy="529.9297" fill="#84BE84" rx="3" ry="3" style="stroke:#038048;stroke-width:1.0;"/><text fill="#000000" font-family="sans-serif" font-size="14" lengthAdjust="spacing" text-decoration="underline" textLength="362" x="342" y="534.2266">Map&lt;String, JSONObject&gt; readResourceDirectory(String)</text><ellipse cx="333" cy="548.5508" fill="#84BE84" rx="3" ry="3" style="stroke:#038048;stroke-width:1.0;"/><text fill="#000000" font-family="sans-serif" font-size="14" lengthAdjust="spacing" text-decoration="underline" textLength="168" x="342" y="552.8477">void open(String, boolean)</text><ellipse cx="333" cy="567.1719" fill="#84BE84" rx="3" ry="3" style="stroke:#038048;stroke-width:1.0;"/><text fill="#000000" font-family="sans-serif" font-size="14" lengthAdjust="spacing" text-decoration="underline" textLength="117" x="342" y="571.4688">File getFile(String)</text><rect fill="#F24D5C" height="6" style="stroke:#C82930;stroke-width:1.0;" width="6" x="330" y="582.793"/><text fill="#000000" font-family="sans-serif" font-size="14" lengthAdjust="spacing" text-decoration="underline" textLength="213" x="342" y="590.0898">boolean writeString(String, String)</text><rect fill="#F24D5C" height="6" style="stroke:#C82930;stroke-width:1.0;" width="6" x="330" y="601.4141"/><text fill="#000000" font-family="sans-serif" font-size="14" lengthAdjust="spacing" text-decoration="underline" textLength="154" x="342" y="608.7109">String readString(String)</text><rect fill="#F24D5C" height="6" style="stroke:#C82930;stroke-width:1.0;" width="6" x="330" y="620.0352"/><text fill="#000000" font-family="sans-serif" font-size="14" lengthAdjust="spacing" text-decoration="underline" textLength="228" x="342" y="627.332">JSONObject readJSONString(String)</text><rect fill="#F24D5C" height="6" style="stroke:#C82930;stroke-width:1.0;" width="6" x="330" y="638.6563"/><text fill="#000000" font-family="sans-serif" font-size="14" lengthAdjust="spacing" text-decoration="underline" textLength="164" x="342" y="645.9531">SecretKey getSecretKey()</text></g><!--SRC=[dPJDRk8m4CVlVGeVWnQGzjP3XHIQT4KN6aJQSsMS4NWtjLFRQRUgUA1zZdsnjN4CmSY4uaCKE_EV_ER3Ks7o6wy0fPBW2j3d5TAhQWwpMj5IDeTcaH9BYHBE643xtAnlw5Cgh2ZPe5m9obOedi-J-35-likcIRe86IyvBm4pbAJZfnz1Zw1kffpW4aOeVvhFiyLZcZnFizjuckO7ek5mwErlEPDAr4H1BRoF0nTBrDkTRwwyS1SWUIt8KS23FTuCLpSsw3wQlEZKZP1MWf9VGTdzfmLZPRD_VzMQ5o0zJIj14rRLIYC0Va4hKB6qxv6bwWLb1jOAD6wNjICSrwmejxB9z-i7kujiUIxJzZewgR6skyXbkkEF9xGdgds7buA-rZ0fmkLksL1TKCm8UAQKAKIBhrH_x_EIyhU8JBmDr55U3PRvNXpskvU2L0Wknh36RvGBBmjdqRnnMg0rtfOs_KEWKfIpFkhehgsA22pNfqJ71QCbp33JVIp24yaDcG9AKD3LvyxwNL1jV9zd3zdo5n3bQFhE8kXXhq7w6XQ6CJfNsnucUp-ZhQE42ltEnKTq8OcxXYsYYq2S7n_eT7Lv1UniSeDekZM8EWXKp1iJ7T9cJ9YW0ZF24tWPDTlpX3aG0UedV9YeTfk3gsYVc_y0]--></g></svg>