<?xml version="1.0" encoding="us-ascii" standalone="no"?><svg xmlns="http://www.w3.org/2000/svg" xmlns:xlink="http://www.w3.org/1999/xlink" contentStyleType="text/css" height="1710px" preserveAspectRatio="none" style="width:3176px;height:1710px;background:#FFFFFF;" version="1.1" viewBox="0 0 3176 1710" width="3176px" zoomAndPan="magnify"><defs/><g><!--cluster Escape--><g id="cluster_Escape"><path d="M8.5,74 L60.5,74 A3.75,3.75 0 0 1 63,76.5 L70,98.6211 L3075.5,98.6211 A2.5,2.5 0 0 1 3078,101.1211 L3078,1700.5 A2.5,2.5 0 0 1 3075.5,1703 L8.5,1703 A2.5,2.5 0 0 1 6,1700.5 L6,76.5 A2.5,2.5 0 0 1 8.5,74 " fill="none" style="stroke:#000000;stroke-width:1.5;"/><line style="stroke:#000000;stroke-width:1.5;" x1="6" x2="70" y1="98.6211" y2="98.6211"/><text fill="#000000" font-family="sans-serif" font-size="14" font-weight="bold" lengthAdjust="spacing" textLength="51" x="10" y="91.1074">Escape</text></g><!--cluster Monde--><g id="cluster_Monde"><path d="M1036.5,401 L1086.5,401 A3.75,3.75 0 0 1 1089,403.5 L1096,425.6211 L2874.5,425.6211 A2.5,2.5 0 0 1 2877,428.1211 L2877,1676.5 A2.5,2.5 0 0 1 2874.5,1679 L1036.5,1679 A2.5,2.5 0 0 1 1034,1676.5 L1034,403.5 A2.5,2.5 0 0 1 1036.5,401 " fill="none" style="stroke:#000000;stroke-width:1.5;"/><line style="stroke:#000000;stroke-width:1.5;" x1="1034" x2="1096" y1="425.6211" y2="425.6211"/><text fill="#000000" font-family="sans-serif" font-size="14" font-weight="bold" lengthAdjust="spacing" textLength="49" x="1038" y="418.1074">Monde</text></g><!--cluster Outils--><g id="cluster_Outils"><path d="M530.5,494.5 L572.5,494.5 A3.75,3.75 0 0 1 575,497 L582,519.1211 L1007.5,519.1211 A2.5,2.5 0 0 1 1010,521.6211 L1010,1516.5 A2.5,2.5 0 0 1 1007.5,1519 L530.5,1519 A2.5,2.5 0 0 1 528,1516.5 L528,497 A2.5,2.5 0 0 1 530.5,494.5 " fill="none" style="stroke:#000000;stroke-width:1.5;"/><line style="stroke:#000000;stroke-width:1.5;" x1="528" x2="582" y1="519.1211" y2="519.1211"/><text fill="#000000" font-family="sans-serif" font-size="14" font-weight="bold" lengthAdjust="spacing" textLength="41" x="532" y="511.6074">Outils</text></g><!--cluster gui--><g id="cluster_gui"><path d="M2911.5,976 L2934.5,976 A3.75,3.75 0 0 1 2937,978.5 L2944,1000.6211 L3043.5,1000.6211 A2.5,2.5 0 0 1 3046,1003.1211 L3046,1090.5 A2.5,2.5 0 0 1 3043.5,1093 L2911.5,1093 A2.5,2.5 0 0 1 2909,1090.5 L2909,978.5 A2.5,2.5 0 0 1 2911.5,976 " fill="none" style="stroke:#000000;stroke-width:1.5;"/><line style="stroke:#000000;stroke-width:1.5;" x1="2909" x2="2944" y1="1000.6211" y2="1000.6211"/><text fill="#000000" font-family="sans-serif" font-size="14" font-weight="bold" lengthAdjust="spacing" textLength="22" x="2913" y="993.1074">gui</text></g><!--cluster engine--><g id="cluster_engine"><path d="M2795.5,157 L2845.5,157 A3.75,3.75 0 0 1 2848,159.5 L2855,181.6211 L2989.5,181.6211 A2.5,2.5 0 0 1 2992,184.1211 L2992,271.5 A2.5,2.5 0 0 1 2989.5,274 L2795.5,274 A2.5,2.5 0 0 1 2793,271.5 L2793,159.5 A2.5,2.5 0 0 1 2795.5,157 " fill="none" style="stroke:#000000;stroke-width:1.5;"/><line style="stroke:#000000;stroke-width:1.5;" x1="2793" x2="2855" y1="181.6211" y2="181.6211"/><text fill="#000000" font-family="sans-serif" font-size="14" font-weight="bold" lengthAdjust="spacing" textLength="49" x="2797" y="174.1074">engine</text></g><!--class Settings--><g id="elem_Settings"><rect codeLine="156" fill="#F1F1F1" height="230.2109" id="Settings" rx="2.5" ry="2.5" style="stroke:#181818;stroke-width:0.5;" width="245" x="143.5" y="111"/><ellipse cx="236.25" cy="127" fill="#ADD1B2" rx="11" ry="11" style="stroke:#181818;stroke-width:1.0;"/><path d="M239.0156,122.875 Q239.1719,122.6563 239.3594,122.5469 Q239.5469,122.4375 239.7656,122.4375 Q240.1406,122.4375 240.375,122.7031 Q240.6094,122.9531 240.6094,123.5625 L240.6094,125.0156 Q240.6094,125.625 240.375,125.8906 Q240.1406,126.1563 239.7656,126.1563 Q239.4219,126.1563 239.2188,125.9531 Q239.0156,125.7656 238.9063,125.25 Q238.8594,124.8906 238.6719,124.7031 Q238.3438,124.3281 237.7344,124.1094 Q237.125,123.8906 236.5,123.8906 Q235.7344,123.8906 235.0938,124.2188 Q234.4688,124.5469 233.9688,125.2969 Q233.4844,126.0469 233.4844,127.0781 L233.4844,128.1719 Q233.4844,129.4063 234.375,130.2344 Q235.2656,131.0469 236.8594,131.0469 Q237.7969,131.0469 238.4531,130.7969 Q238.8438,130.6406 239.2656,130.2031 Q239.5313,129.9375 239.6719,129.8594 Q239.8281,129.7813 240.0313,129.7813 Q240.3594,129.7813 240.6094,130.0469 Q240.875,130.2969 240.875,130.6406 Q240.875,130.9844 240.5313,131.3906 Q240.0313,131.9688 239.2344,132.2969 Q238.1563,132.75 236.8594,132.75 Q235.3438,132.75 234.1406,132.125 Q233.1563,131.625 232.4688,130.5625 Q231.7813,129.4844 231.7813,128.2031 L231.7813,127.0469 Q231.7813,125.7188 232.3906,124.5781 Q233.0156,123.4219 234.1094,122.8125 Q235.2031,122.1875 236.4375,122.1875 Q237.1719,122.1875 237.8125,122.3594 Q238.4688,122.5156 239.0156,122.875 Z " fill="#000000"/><text fill="#000000" font-family="sans-serif" font-size="14" lengthAdjust="spacing" textLength="51" x="256.75" y="132.7969">Settings</text><line style="stroke:#181818;stroke-width:0.5;" x1="144.5" x2="387.5" y1="143" y2="143"/><rect fill="none" height="6" style="stroke:#C82930;stroke-width:1.0;" width="6" x="151.5" y="154.8105"/><text fill="#000000" font-family="sans-serif" font-size="14" lengthAdjust="spacing" text-decoration="underline" textLength="180" x="163.5" y="162.1074">PropertyChangeSupport pcs</text><ellipse cx="154.5" cy="176.4316" fill="none" rx="3" ry="3" style="stroke:#038048;stroke-width:1.0;"/><text fill="#000000" font-family="sans-serif" font-size="14" lengthAdjust="spacing" text-decoration="underline" textLength="189" x="163.5" y="180.7285">Property&lt;Boolean&gt; fullScreen</text><ellipse cx="154.5" cy="195.0527" fill="none" rx="3" ry="3" style="stroke:#038048;stroke-width:1.0;"/><text fill="#000000" font-family="sans-serif" font-size="14" lengthAdjust="spacing" text-decoration="underline" textLength="182" x="163.5" y="199.3496">Property&lt;Boolean&gt; showFps</text><ellipse cx="154.5" cy="213.6738" fill="none" rx="3" ry="3" style="stroke:#038048;stroke-width:1.0;"/><text fill="#000000" font-family="sans-serif" font-size="14" lengthAdjust="spacing" text-decoration="underline" textLength="153" x="163.5" y="217.9707">Property&lt;Locale&gt; locale</text><ellipse cx="154.5" cy="254.916" fill="#84BE84" rx="3" ry="3" style="stroke:#038048;stroke-width:1.0;"/><text fill="#000000" font-family="sans-serif" font-size="14" lengthAdjust="spacing" text-decoration="underline" textLength="72" x="163.5" y="259.2129">void reset()</text><ellipse cx="154.5" cy="273.5371" fill="#84BE84" rx="3" ry="3" style="stroke:#038048;stroke-width:1.0;"/><text fill="#000000" font-family="sans-serif" font-size="14" lengthAdjust="spacing" text-decoration="underline" textLength="67" x="163.5" y="277.834">void load()</text><ellipse cx="154.5" cy="292.1582" fill="#84BE84" rx="3" ry="3" style="stroke:#038048;stroke-width:1.0;"/><text fill="#000000" font-family="sans-serif" font-size="14" lengthAdjust="spacing" text-decoration="underline" textLength="70" x="163.5" y="296.4551">void save()</text><rect fill="#F24D5C" height="6" style="stroke:#C82930;stroke-width:1.0;" width="6" x="151.5" y="307.7793"/><text fill="#000000" font-family="sans-serif" font-size="14" lengthAdjust="spacing" text-decoration="underline" textLength="219" x="163.5" y="315.0762">boolean ensureSettingsFileExists()</text><rect fill="#F24D5C" height="6" style="stroke:#C82930;stroke-width:1.0;" width="6" x="151.5" y="326.4004"/><text fill="#000000" font-family="sans-serif" font-size="14" lengthAdjust="spacing" text-decoration="underline" textLength="119" x="163.5" y="333.6973">void initAutoSave()</text><line style="stroke:#181818;stroke-width:1.0;stroke-dasharray:1.0,2.0;" x1="144.5" x2="235" y1="234.7949" y2="234.7949"/><text fill="#000000" font-family="sans-serif" font-size="14" lengthAdjust="spacing" textLength="62" x="235" y="240.0918">M&#233;thodes</text><line style="stroke:#181818;stroke-width:1.0;stroke-dasharray:1.0,2.0;" x1="297" x2="387.5" y1="234.7949" y2="234.7949"/></g><!--class Property--><g id="elem_Property"><rect codeLine="169" fill="#F1F1F1" height="439.043" id="Property" rx="2.5" ry="2.5" style="stroke:#181818;stroke-width:0.5;" width="487" x="22.5" y="401"/><ellipse cx="218.25" cy="417" fill="#ADD1B2" rx="11" ry="11" style="stroke:#181818;stroke-width:1.0;"/><path d="M221.0156,412.875 Q221.1719,412.6563 221.3594,412.5469 Q221.5469,412.4375 221.7656,412.4375 Q222.1406,412.4375 222.375,412.7031 Q222.6094,412.9531 222.6094,413.5625 L222.6094,415.0156 Q222.6094,415.625 222.375,415.8906 Q222.1406,416.1563 221.7656,416.1563 Q221.4219,416.1563 221.2188,415.9531 Q221.0156,415.7656 220.9063,415.25 Q220.8594,414.8906 220.6719,414.7031 Q220.3438,414.3281 219.7344,414.1094 Q219.125,413.8906 218.5,413.8906 Q217.7344,413.8906 217.0938,414.2188 Q216.4688,414.5469 215.9688,415.2969 Q215.4844,416.0469 215.4844,417.0781 L215.4844,418.1719 Q215.4844,419.4063 216.375,420.2344 Q217.2656,421.0469 218.8594,421.0469 Q219.7969,421.0469 220.4531,420.7969 Q220.8438,420.6406 221.2656,420.2031 Q221.5313,419.9375 221.6719,419.8594 Q221.8281,419.7813 222.0313,419.7813 Q222.3594,419.7813 222.6094,420.0469 Q222.875,420.2969 222.875,420.6406 Q222.875,420.9844 222.5313,421.3906 Q222.0313,421.9688 221.2344,422.2969 Q220.1563,422.75 218.8594,422.75 Q217.3438,422.75 216.1406,422.125 Q215.1563,421.625 214.4688,420.5625 Q213.7813,419.4844 213.7813,418.2031 L213.7813,417.0469 Q213.7813,415.7188 214.3906,414.5781 Q215.0156,413.4219 216.1094,412.8125 Q217.2031,412.1875 218.4375,412.1875 Q219.1719,412.1875 219.8125,412.3594 Q220.4688,412.5156 221.0156,412.875 Z " fill="#000000"/><text fill="#000000" font-family="sans-serif" font-size="14" lengthAdjust="spacing" textLength="83" x="238.75" y="422.7969">Property &lt;T&gt;</text><line style="stroke:#181818;stroke-width:0.5;" x1="23.5" x2="508.5" y1="433" y2="433"/><rect fill="none" height="6" style="stroke:#C82930;stroke-width:1.0;" width="6" x="30.5" y="444.8105"/><text fill="#000000" font-family="sans-serif" font-size="14" lengthAdjust="spacing" textLength="47" x="42.5" y="452.1074">T value</text><rect fill="none" height="6" style="stroke:#C82930;stroke-width:1.0;" width="6" x="30.5" y="463.4316"/><text fill="#000000" font-family="sans-serif" font-size="14" lengthAdjust="spacing" textLength="76" x="42.5" y="470.7285">String name</text><rect fill="none" height="6" style="stroke:#C82930;stroke-width:1.0;" width="6" x="30.5" y="482.0527"/><text fill="#000000" font-family="sans-serif" font-size="14" lengthAdjust="spacing" textLength="461" x="42.5" y="489.3496">Map&lt;MyPropertyChangeListener&lt;T&gt;, PropertyChangeListener&gt; listeners</text><rect fill="none" height="6" style="stroke:#C82930;stroke-width:1.0;" width="6" x="30.5" y="500.6738"/><text fill="#000000" font-family="sans-serif" font-size="14" lengthAdjust="spacing" textLength="180" x="42.5" y="507.9707">PropertyChangeSupport pcs</text><rect fill="none" height="6" style="stroke:#C82930;stroke-width:1.0;" width="6" x="30.5" y="519.2949"/><text fill="#000000" font-family="sans-serif" font-size="14" lengthAdjust="spacing" textLength="74" x="42.5" y="526.5918">boolean log</text><ellipse cx="33.5" cy="563.5371" fill="#84BE84" rx="3" ry="3" style="stroke:#038048;stroke-width:1.0;"/><text fill="#000000" font-family="sans-serif" font-size="14" lengthAdjust="spacing" textLength="424" x="42.5" y="567.834">Property(PropertyChangeSupport, String, T, Getter&lt;T&gt;, Setter&lt;T&gt;)</text><ellipse cx="33.5" cy="582.1582" fill="#84BE84" rx="3" ry="3" style="stroke:#038048;stroke-width:1.0;"/><text fill="#000000" font-family="sans-serif" font-size="14" lengthAdjust="spacing" textLength="217" x="42.5" y="586.4551">Property(T, Getter&lt;T&gt;, Setter&lt;T&gt;)</text><ellipse cx="33.5" cy="600.7793" fill="#84BE84" rx="3" ry="3" style="stroke:#038048;stroke-width:1.0;"/><text fill="#000000" font-family="sans-serif" font-size="14" lengthAdjust="spacing" textLength="280" x="42.5" y="605.0762">Property(PropertyChangeSupport, String, T)</text><ellipse cx="33.5" cy="619.4004" fill="#84BE84" rx="3" ry="3" style="stroke:#038048;stroke-width:1.0;"/><text fill="#000000" font-family="sans-serif" font-size="14" lengthAdjust="spacing" textLength="73" x="42.5" y="623.6973">Property(T)</text><line style="stroke:#181818;stroke-width:1.0;stroke-dasharray:1.0,2.0;" x1="23.5" x2="225" y1="543.416" y2="543.416"/><text fill="#000000" font-family="sans-serif" font-size="14" lengthAdjust="spacing" textLength="82" x="225" y="548.7129">Constructeur</text><line style="stroke:#181818;stroke-width:1.0;stroke-dasharray:1.0,2.0;" x1="307" x2="508.5" y1="543.416" y2="543.416"/><ellipse cx="33.5" cy="660.6426" fill="#84BE84" rx="3" ry="3" style="stroke:#038048;stroke-width:1.0;"/><text fill="#000000" font-family="sans-serif" font-size="14" lengthAdjust="spacing" textLength="43" x="42.5" y="664.9395">T get()</text><ellipse cx="33.5" cy="679.2637" fill="#84BE84" rx="3" ry="3" style="stroke:#038048;stroke-width:1.0;"/><text fill="#000000" font-family="sans-serif" font-size="14" lengthAdjust="spacing" textLength="68" x="42.5" y="683.5605">void set(T)</text><ellipse cx="33.5" cy="697.8848" fill="#84BE84" rx="3" ry="3" style="stroke:#038048;stroke-width:1.0;"/><text fill="#000000" font-family="sans-serif" font-size="14" lengthAdjust="spacing" textLength="299" x="42.5" y="702.1816">void subscribe(MyPropertyChangeListener&lt;T&gt;)</text><ellipse cx="33.5" cy="716.5059" fill="#84BE84" rx="3" ry="3" style="stroke:#038048;stroke-width:1.0;"/><text fill="#000000" font-family="sans-serif" font-size="14" lengthAdjust="spacing" textLength="327" x="42.5" y="720.8027">void subscribeIfNot(MyPropertyChangeListener&lt;T&gt;)</text><ellipse cx="33.5" cy="735.127" fill="#84BE84" rx="3" ry="3" style="stroke:#038048;stroke-width:1.0;"/><text fill="#000000" font-family="sans-serif" font-size="14" lengthAdjust="spacing" textLength="315" x="42.5" y="739.4238">void unsubscribe(MyPropertyChangeListener&lt;T&gt;)</text><ellipse cx="33.5" cy="753.748" fill="#84BE84" rx="3" ry="3" style="stroke:#038048;stroke-width:1.0;"/><text fill="#000000" font-family="sans-serif" font-size="14" lengthAdjust="spacing" textLength="132" x="42.5" y="758.0449">void unsubscribeAll()</text><ellipse cx="33.5" cy="772.3691" fill="#84BE84" rx="3" ry="3" style="stroke:#038048;stroke-width:1.0;"/><text fill="#000000" font-family="sans-serif" font-size="14" lengthAdjust="spacing" textLength="97" x="42.5" y="776.666">void forceFire()</text><ellipse cx="33.5" cy="790.9902" fill="#84BE84" rx="3" ry="3" style="stroke:#038048;stroke-width:1.0;"/><text fill="#000000" font-family="sans-serif" font-size="14" lengthAdjust="spacing" textLength="187" x="42.5" y="795.2871">Property&lt;T&gt; setLog(boolean)</text><rect fill="#F24D5C" height="6" style="stroke:#C82930;stroke-width:1.0;" width="6" x="30.5" y="806.6113"/><text fill="#000000" font-family="sans-serif" font-size="14" lengthAdjust="spacing" textLength="69" x="42.5" y="813.9082">void fire(T)</text><rect fill="#F24D5C" height="6" style="stroke:#C82930;stroke-width:1.0;" width="6" x="30.5" y="825.2324"/><text fill="#000000" font-family="sans-serif" font-size="14" lengthAdjust="spacing" textLength="96" x="42.5" y="832.5293">void log(String)</text><line style="stroke:#181818;stroke-width:1.0;stroke-dasharray:1.0,2.0;" x1="23.5" x2="235" y1="640.5215" y2="640.5215"/><text fill="#000000" font-family="sans-serif" font-size="14" lengthAdjust="spacing" textLength="62" x="235" y="645.8184">M&#233;thodes</text><line style="stroke:#181818;stroke-width:1.0;stroke-dasharray:1.0,2.0;" x1="297" x2="508.5" y1="640.5215" y2="640.5215"/></g><!--class Getter--><g id="elem_Getter"><rect codeLine="193" fill="#F1F1F1" height="66.6211" id="Getter" rx="2.5" ry="2.5" style="stroke:#181818;stroke-width:0.5;" width="105" x="282.5" y="1011.5"/><ellipse cx="297.5" cy="1027.5" fill="#B4A7E5" rx="11" ry="11" style="stroke:#181818;stroke-width:1.0;"/><path d="M298.4531,1024.1406 L298.4531,1030.7969 L300.1719,1030.7969 Q300.7813,1030.7969 301.0469,1031.0313 Q301.3125,1031.2656 301.3125,1031.6563 Q301.3125,1032.0313 301.0469,1032.2656 Q300.7813,1032.5 300.1719,1032.5 L295.0313,1032.5 Q294.4219,1032.5 294.1563,1032.2656 Q293.8906,1032.0313 293.8906,1031.6406 Q293.8906,1031.2656 294.1563,1031.0313 Q294.4219,1030.7969 295.0313,1030.7969 L296.75,1030.7969 L296.75,1024.1406 L295.0313,1024.1406 Q294.4219,1024.1406 294.1563,1023.9063 Q293.8906,1023.6719 293.8906,1023.2813 Q293.8906,1022.9063 294.1563,1022.6719 Q294.4219,1022.4375 295.0313,1022.4375 L300.1719,1022.4375 Q300.7813,1022.4375 301.0469,1022.6719 Q301.3125,1022.9063 301.3125,1023.2813 Q301.3125,1023.6719 301.0469,1023.9063 Q300.7813,1024.1406 300.1719,1024.1406 L298.4531,1024.1406 Z " fill="#000000"/><text fill="#000000" font-family="sans-serif" font-size="14" font-style="italic" lengthAdjust="spacing" textLength="69" x="311.5" y="1033.2969">Getter &lt;T&gt;</text><line style="stroke:#181818;stroke-width:0.5;" x1="283.5" x2="386.5" y1="1043.5" y2="1043.5"/><line style="stroke:#181818;stroke-width:0.5;" x1="283.5" x2="386.5" y1="1051.5" y2="1051.5"/><text fill="#000000" font-family="sans-serif" font-size="14" lengthAdjust="spacing" textLength="52" x="288.5" y="1070.6074">T get(T)</text></g><!--class Setter--><g id="elem_Setter"><rect codeLine="197" fill="#F1F1F1" height="66.6211" id="Setter" rx="2.5" ry="2.5" style="stroke:#181818;stroke-width:0.5;" width="103" x="144.5" y="1011.5"/><ellipse cx="159.5" cy="1027.5" fill="#B4A7E5" rx="11" ry="11" style="stroke:#181818;stroke-width:1.0;"/><path d="M160.4531,1024.1406 L160.4531,1030.7969 L162.1719,1030.7969 Q162.7813,1030.7969 163.0469,1031.0313 Q163.3125,1031.2656 163.3125,1031.6563 Q163.3125,1032.0313 163.0469,1032.2656 Q162.7813,1032.5 162.1719,1032.5 L157.0313,1032.5 Q156.4219,1032.5 156.1563,1032.2656 Q155.8906,1032.0313 155.8906,1031.6406 Q155.8906,1031.2656 156.1563,1031.0313 Q156.4219,1030.7969 157.0313,1030.7969 L158.75,1030.7969 L158.75,1024.1406 L157.0313,1024.1406 Q156.4219,1024.1406 156.1563,1023.9063 Q155.8906,1023.6719 155.8906,1023.2813 Q155.8906,1022.9063 156.1563,1022.6719 Q156.4219,1022.4375 157.0313,1022.4375 L162.1719,1022.4375 Q162.7813,1022.4375 163.0469,1022.6719 Q163.3125,1022.9063 163.3125,1023.2813 Q163.3125,1023.6719 163.0469,1023.9063 Q162.7813,1024.1406 162.1719,1024.1406 L160.4531,1024.1406 Z " fill="#000000"/><text fill="#000000" font-family="sans-serif" font-size="14" font-style="italic" lengthAdjust="spacing" textLength="67" x="173.5" y="1033.2969">Setter &lt;T&gt;</text><line style="stroke:#181818;stroke-width:0.5;" x1="145.5" x2="246.5" y1="1043.5" y2="1043.5"/><line style="stroke:#181818;stroke-width:0.5;" x1="145.5" x2="246.5" y1="1051.5" y2="1051.5"/><text fill="#000000" font-family="sans-serif" font-size="14" lengthAdjust="spacing" textLength="51" x="150.5" y="1070.6074">T set(T)</text></g><!--class ElementMonde--><g id="elem_ElementMonde"><rect codeLine="4" fill="#F1F1F1" height="327.3164" id="ElementMonde" rx="2.5" ry="2.5" style="stroke:#181818;stroke-width:0.5;" width="449" x="2122.5" y="457"/><ellipse cx="2295.25" cy="473" fill="#A9DCDF" rx="11" ry="11" style="stroke:#181818;stroke-width:1.0;"/><path d="M2297.4375,474.7656 L2293.2969,474.7656 L2292.875,475.7969 L2293.2969,475.7969 Q2293.9063,475.7969 2294.1719,476.0313 Q2294.4375,476.2656 2294.4375,476.6563 Q2294.4375,477.0313 2294.1719,477.2656 Q2293.9063,477.5 2293.2969,477.5 L2291,477.5 Q2290.3906,477.5 2290.1406,477.2656 Q2289.875,477.0313 2289.875,476.6406 Q2289.875,476.2656 2290.1563,476.0313 Q2290.4219,475.7813 2291.0469,475.7969 L2293.7188,469.1406 L2292.6094,469.1406 Q2292,469.1406 2291.7344,468.9063 Q2291.4688,468.6719 2291.4688,468.2813 Q2291.4688,467.9063 2291.7344,467.6719 Q2292,467.4375 2292.6094,467.4375 L2296.2813,467.4375 L2299.6719,475.7969 Q2300.2656,475.7969 2300.4531,475.9375 Q2300.8438,476.2031 2300.8438,476.6563 Q2300.8438,477.0313 2300.5781,477.2656 Q2300.3281,477.5 2299.7188,477.5 L2297.4219,477.5 Q2296.8125,477.5 2296.5469,477.2656 Q2296.2813,477.0313 2296.2813,476.6406 Q2296.2813,476.2656 2296.5469,476.0313 Q2296.8125,475.7969 2297.4219,475.7969 L2297.8438,475.7969 L2297.4375,474.7656 Z M2296.7188,473.0625 L2295.3594,469.6875 L2293.9844,473.0625 L2296.7188,473.0625 Z " fill="#000000"/><text fill="#000000" font-family="sans-serif" font-size="14" font-style="italic" lengthAdjust="spacing" textLength="95" x="2315.75" y="478.7969">ElementMonde</text><line style="stroke:#181818;stroke-width:0.5;" x1="2123.5" x2="2570.5" y1="489" y2="489"/><polygon fill="none" points="2133.5,498.8105,2137.5,502.8105,2133.5,506.8105,2129.5,502.8105" style="stroke:#B38D22;stroke-width:1.0;"/><text fill="#000000" font-family="sans-serif" font-size="14" lengthAdjust="spacing" textLength="53" x="2142.5" y="508.1074">double x</text><polygon fill="none" points="2133.5,517.4316,2137.5,521.4316,2133.5,525.4316,2129.5,521.4316" style="stroke:#B38D22;stroke-width:1.0;"/><text fill="#000000" font-family="sans-serif" font-size="14" lengthAdjust="spacing" textLength="54" x="2142.5" y="526.7285">double y</text><polygon fill="none" points="2133.5,536.0527,2137.5,540.0527,2133.5,544.0527,2129.5,540.0527" style="stroke:#B38D22;stroke-width:1.0;"/><text fill="#000000" font-family="sans-serif" font-size="14" lengthAdjust="spacing" textLength="96" x="2142.5" y="545.3496">double hauteur</text><polygon fill="none" points="2133.5,554.6738,2137.5,558.6738,2133.5,562.6738,2129.5,558.6738" style="stroke:#B38D22;stroke-width:1.0;"/><text fill="#000000" font-family="sans-serif" font-size="14" lengthAdjust="spacing" textLength="92" x="2142.5" y="563.9707">double largeur</text><ellipse cx="2133.5" cy="600.916" fill="#84BE84" rx="3" ry="3" style="stroke:#038048;stroke-width:1.0;"/><text fill="#000000" font-family="sans-serif" font-size="14" lengthAdjust="spacing" textLength="423" x="2142.5" y="605.2129">ElementMonde(double x, double y, double hauteur, double largeur)</text><line style="stroke:#181818;stroke-width:1.0;stroke-dasharray:1.0,2.0;" x1="2123.5" x2="2306" y1="580.7949" y2="580.7949"/><text fill="#000000" font-family="sans-serif" font-size="14" lengthAdjust="spacing" textLength="82" x="2306" y="586.0918">Constructeur</text><line style="stroke:#181818;stroke-width:1.0;stroke-dasharray:1.0,2.0;" x1="2388" x2="2570.5" y1="580.7949" y2="580.7949"/><ellipse cx="2133.5" cy="642.1582" fill="#84BE84" rx="3" ry="3" style="stroke:#038048;stroke-width:1.0;"/><text fill="#000000" font-family="sans-serif" font-size="14" lengthAdjust="spacing" textLength="85" x="2142.5" y="646.4551">double getX()</text><ellipse cx="2133.5" cy="660.7793" fill="#84BE84" rx="3" ry="3" style="stroke:#038048;stroke-width:1.0;"/><text fill="#000000" font-family="sans-serif" font-size="14" lengthAdjust="spacing" textLength="120" x="2142.5" y="665.0762">void setX(double x)</text><ellipse cx="2133.5" cy="679.4004" fill="#84BE84" rx="3" ry="3" style="stroke:#038048;stroke-width:1.0;"/><text fill="#000000" font-family="sans-serif" font-size="14" lengthAdjust="spacing" textLength="86" x="2142.5" y="683.6973">double getY()</text><ellipse cx="2133.5" cy="698.0215" fill="#84BE84" rx="3" ry="3" style="stroke:#038048;stroke-width:1.0;"/><text fill="#000000" font-family="sans-serif" font-size="14" lengthAdjust="spacing" textLength="122" x="2142.5" y="702.3184">void setY(double y)</text><ellipse cx="2133.5" cy="716.6426" fill="#84BE84" rx="3" ry="3" style="stroke:#038048;stroke-width:1.0;"/><text fill="#000000" font-family="sans-serif" font-size="14" lengthAdjust="spacing" textLength="127" x="2142.5" y="720.9395">double getHauteur()</text><ellipse cx="2133.5" cy="735.2637" fill="#84BE84" rx="3" ry="3" style="stroke:#038048;stroke-width:1.0;"/><text fill="#000000" font-family="sans-serif" font-size="14" lengthAdjust="spacing" textLength="127" x="2142.5" y="739.5605">double getLargeur()</text><ellipse cx="2133.5" cy="753.8848" fill="#84BE84" rx="3" ry="3" style="stroke:#038048;stroke-width:1.0;"/><text fill="#000000" font-family="sans-serif" font-size="14" lengthAdjust="spacing" textLength="100" x="2142.5" y="758.1816">String toString()</text><text fill="#000000" font-family="sans-serif" font-size="14" lengthAdjust="spacing" textLength="4" x="2142.5" y="776.8027">&#160;</text><line style="stroke:#181818;stroke-width:1.0;stroke-dasharray:1.0,2.0;" x1="2123.5" x2="2316" y1="622.0371" y2="622.0371"/><text fill="#000000" font-family="sans-serif" font-size="14" lengthAdjust="spacing" textLength="62" x="2316" y="627.334">M&#233;thodes</text><line style="stroke:#181818;stroke-width:1.0;stroke-dasharray:1.0,2.0;" x1="2378" x2="2570.5" y1="622.0371" y2="622.0371"/></g><!--class Terrain--><g id="elem_Terrain"><rect codeLine="21" fill="#F1F1F1" height="141.1055" id="Terrain" rx="2.5" ry="2.5" style="stroke:#181818;stroke-width:0.5;" width="401" x="1459.5" y="974.5"/><ellipse cx="1632.75" cy="990.5" fill="#A9DCDF" rx="11" ry="11" style="stroke:#181818;stroke-width:1.0;"/><path d="M1634.9375,992.2656 L1630.7969,992.2656 L1630.375,993.2969 L1630.7969,993.2969 Q1631.4063,993.2969 1631.6719,993.5313 Q1631.9375,993.7656 1631.9375,994.1563 Q1631.9375,994.5313 1631.6719,994.7656 Q1631.4063,995 1630.7969,995 L1628.5,995 Q1627.8906,995 1627.6406,994.7656 Q1627.375,994.5313 1627.375,994.1406 Q1627.375,993.7656 1627.6563,993.5313 Q1627.9219,993.2813 1628.5469,993.2969 L1631.2188,986.6406 L1630.1094,986.6406 Q1629.5,986.6406 1629.2344,986.4063 Q1628.9688,986.1719 1628.9688,985.7813 Q1628.9688,985.4063 1629.2344,985.1719 Q1629.5,984.9375 1630.1094,984.9375 L1633.7813,984.9375 L1637.1719,993.2969 Q1637.7656,993.2969 1637.9531,993.4375 Q1638.3438,993.7031 1638.3438,994.1563 Q1638.3438,994.5313 1638.0781,994.7656 Q1637.8281,995 1637.2188,995 L1634.9219,995 Q1634.3125,995 1634.0469,994.7656 Q1633.7813,994.5313 1633.7813,994.1406 Q1633.7813,993.7656 1634.0469,993.5313 Q1634.3125,993.2969 1634.9219,993.2969 L1635.3438,993.2969 L1634.9375,992.2656 Z M1634.2188,990.5625 L1632.8594,987.1875 L1631.4844,990.5625 L1634.2188,990.5625 Z " fill="#000000"/><text fill="#000000" font-family="sans-serif" font-size="14" font-style="italic" lengthAdjust="spacing" textLength="46" x="1653.25" y="996.2969">Terrain</text><line style="stroke:#181818;stroke-width:0.5;" x1="1460.5" x2="1859.5" y1="1006.5" y2="1006.5"/><ellipse cx="1470.5" cy="1043.9316" fill="#84BE84" rx="3" ry="3" style="stroke:#038048;stroke-width:1.0;"/><text fill="#000000" font-family="sans-serif" font-size="14" lengthAdjust="spacing" textLength="375" x="1479.5" y="1048.2285">Terrain(double x, double y, double hauteur, double largeur)</text><line style="stroke:#181818;stroke-width:1.0;stroke-dasharray:1.0,2.0;" x1="1460.5" x2="1619" y1="1023.8105" y2="1023.8105"/><text fill="#000000" font-family="sans-serif" font-size="14" lengthAdjust="spacing" textLength="82" x="1619" y="1029.1074">Constructeur</text><line style="stroke:#181818;stroke-width:1.0;stroke-dasharray:1.0,2.0;" x1="1701" x2="1859.5" y1="1023.8105" y2="1023.8105"/><ellipse cx="1470.5" cy="1085.1738" fill="#84BE84" rx="3" ry="3" style="stroke:#038048;stroke-width:1.0;"/><text fill="#000000" font-family="sans-serif" font-size="14" lengthAdjust="spacing" textLength="160" x="1479.5" y="1089.4707">boolean estTraversable()</text><text fill="#000000" font-family="sans-serif" font-size="14" lengthAdjust="spacing" textLength="4" x="1479.5" y="1108.0918">&#160;</text><line style="stroke:#181818;stroke-width:1.0;stroke-dasharray:1.0,2.0;" x1="1460.5" x2="1629" y1="1065.0527" y2="1065.0527"/><text fill="#000000" font-family="sans-serif" font-size="14" lengthAdjust="spacing" textLength="62" x="1629" y="1070.3496">M&#233;thodes</text><line style="stroke:#181818;stroke-width:1.0;stroke-dasharray:1.0,2.0;" x1="1691" x2="1859.5" y1="1065.0527" y2="1065.0527"/></g><!--class Mur--><g id="elem_Mur"><rect codeLine="29" fill="#F1F1F1" height="122.4844" id="Mur" rx="2.5" ry="2.5" style="stroke:#181818;stroke-width:0.5;" width="379" x="1050.5" y="1315.5"/><ellipse cx="1223.75" cy="1331.5" fill="#ADD1B2" rx="11" ry="11" style="stroke:#181818;stroke-width:1.0;"/><path d="M1226.5156,1327.375 Q1226.6719,1327.1563 1226.8594,1327.0469 Q1227.0469,1326.9375 1227.2656,1326.9375 Q1227.6406,1326.9375 1227.875,1327.2031 Q1228.1094,1327.4531 1228.1094,1328.0625 L1228.1094,1329.5156 Q1228.1094,1330.125 1227.875,1330.3906 Q1227.6406,1330.6563 1227.2656,1330.6563 Q1226.9219,1330.6563 1226.7188,1330.4531 Q1226.5156,1330.2656 1226.4063,1329.75 Q1226.3594,1329.3906 1226.1719,1329.2031 Q1225.8438,1328.8281 1225.2344,1328.6094 Q1224.625,1328.3906 1224,1328.3906 Q1223.2344,1328.3906 1222.5938,1328.7188 Q1221.9688,1329.0469 1221.4688,1329.7969 Q1220.9844,1330.5469 1220.9844,1331.5781 L1220.9844,1332.6719 Q1220.9844,1333.9063 1221.875,1334.7344 Q1222.7656,1335.5469 1224.3594,1335.5469 Q1225.2969,1335.5469 1225.9531,1335.2969 Q1226.3438,1335.1406 1226.7656,1334.7031 Q1227.0313,1334.4375 1227.1719,1334.3594 Q1227.3281,1334.2813 1227.5313,1334.2813 Q1227.8594,1334.2813 1228.1094,1334.5469 Q1228.375,1334.7969 1228.375,1335.1406 Q1228.375,1335.4844 1228.0313,1335.8906 Q1227.5313,1336.4688 1226.7344,1336.7969 Q1225.6563,1337.25 1224.3594,1337.25 Q1222.8438,1337.25 1221.6406,1336.625 Q1220.6563,1336.125 1219.9688,1335.0625 Q1219.2813,1333.9844 1219.2813,1332.7031 L1219.2813,1331.5469 Q1219.2813,1330.2188 1219.8906,1329.0781 Q1220.5156,1327.9219 1221.6094,1327.3125 Q1222.7031,1326.6875 1223.9375,1326.6875 Q1224.6719,1326.6875 1225.3125,1326.8594 Q1225.9688,1327.0156 1226.5156,1327.375 Z " fill="#000000"/><text fill="#000000" font-family="sans-serif" font-size="14" lengthAdjust="spacing" textLength="24" x="1244.25" y="1337.2969">Mur</text><line style="stroke:#181818;stroke-width:0.5;" x1="1051.5" x2="1428.5" y1="1347.5" y2="1347.5"/><ellipse cx="1061.5" cy="1384.9316" fill="#84BE84" rx="3" ry="3" style="stroke:#038048;stroke-width:1.0;"/><text fill="#000000" font-family="sans-serif" font-size="14" lengthAdjust="spacing" textLength="353" x="1070.5" y="1389.2285">Mur(double x, double y, double hauteur, double largeur)</text><line style="stroke:#181818;stroke-width:1.0;stroke-dasharray:1.0,2.0;" x1="1051.5" x2="1199" y1="1364.8105" y2="1364.8105"/><text fill="#000000" font-family="sans-serif" font-size="14" lengthAdjust="spacing" textLength="82" x="1199" y="1370.1074">Constructeur</text><line style="stroke:#181818;stroke-width:1.0;stroke-dasharray:1.0,2.0;" x1="1281" x2="1428.5" y1="1364.8105" y2="1364.8105"/><ellipse cx="1061.5" cy="1426.1738" fill="#84BE84" rx="3" ry="3" style="stroke:#038048;stroke-width:1.0;"/><text fill="#000000" font-family="sans-serif" font-size="14" lengthAdjust="spacing" textLength="160" x="1070.5" y="1430.4707">boolean estTraversable()</text><line style="stroke:#181818;stroke-width:1.0;stroke-dasharray:1.0,2.0;" x1="1051.5" x2="1209" y1="1406.0527" y2="1406.0527"/><text fill="#000000" font-family="sans-serif" font-size="14" lengthAdjust="spacing" textLength="62" x="1209" y="1411.3496">M&#233;thodes</text><line style="stroke:#181818;stroke-width:1.0;stroke-dasharray:1.0,2.0;" x1="1271" x2="1428.5" y1="1406.0527" y2="1406.0527"/></g><!--class Piege--><g id="elem_Piege"><rect codeLine="36" fill="#F1F1F1" height="99.8633" id="Piege" rx="2.5" ry="2.5" style="stroke:#181818;stroke-width:0.5;" width="391" x="1464.5" y="1326.5"/><ellipse cx="1637.75" cy="1342.5" fill="#ADD1B2" rx="11" ry="11" style="stroke:#181818;stroke-width:1.0;"/><path d="M1640.5156,1338.375 Q1640.6719,1338.1563 1640.8594,1338.0469 Q1641.0469,1337.9375 1641.2656,1337.9375 Q1641.6406,1337.9375 1641.875,1338.2031 Q1642.1094,1338.4531 1642.1094,1339.0625 L1642.1094,1340.5156 Q1642.1094,1341.125 1641.875,1341.3906 Q1641.6406,1341.6563 1641.2656,1341.6563 Q1640.9219,1341.6563 1640.7188,1341.4531 Q1640.5156,1341.2656 1640.4063,1340.75 Q1640.3594,1340.3906 1640.1719,1340.2031 Q1639.8438,1339.8281 1639.2344,1339.6094 Q1638.625,1339.3906 1638,1339.3906 Q1637.2344,1339.3906 1636.5938,1339.7188 Q1635.9688,1340.0469 1635.4688,1340.7969 Q1634.9844,1341.5469 1634.9844,1342.5781 L1634.9844,1343.6719 Q1634.9844,1344.9063 1635.875,1345.7344 Q1636.7656,1346.5469 1638.3594,1346.5469 Q1639.2969,1346.5469 1639.9531,1346.2969 Q1640.3438,1346.1406 1640.7656,1345.7031 Q1641.0313,1345.4375 1641.1719,1345.3594 Q1641.3281,1345.2813 1641.5313,1345.2813 Q1641.8594,1345.2813 1642.1094,1345.5469 Q1642.375,1345.7969 1642.375,1346.1406 Q1642.375,1346.4844 1642.0313,1346.8906 Q1641.5313,1347.4688 1640.7344,1347.7969 Q1639.6563,1348.25 1638.3594,1348.25 Q1636.8438,1348.25 1635.6406,1347.625 Q1634.6563,1347.125 1633.9688,1346.0625 Q1633.2813,1344.9844 1633.2813,1343.7031 L1633.2813,1342.5469 Q1633.2813,1341.2188 1633.8906,1340.0781 Q1634.5156,1338.9219 1635.6094,1338.3125 Q1636.7031,1337.6875 1637.9375,1337.6875 Q1638.6719,1337.6875 1639.3125,1337.8594 Q1639.9688,1338.0156 1640.5156,1338.375 Z " fill="#000000"/><text fill="#000000" font-family="sans-serif" font-size="14" lengthAdjust="spacing" textLength="36" x="1658.25" y="1348.2969">Piege</text><line style="stroke:#181818;stroke-width:0.5;" x1="1465.5" x2="1854.5" y1="1358.5" y2="1358.5"/><rect fill="none" height="6" style="stroke:#C82930;stroke-width:1.0;" width="6" x="1472.5" y="1370.3105"/><text fill="#000000" font-family="sans-serif" font-size="14" lengthAdjust="spacing" textLength="90" x="1484.5" y="1377.6074">double degats</text><ellipse cx="1475.5" cy="1414.5527" fill="#84BE84" rx="3" ry="3" style="stroke:#038048;stroke-width:1.0;"/><text fill="#000000" font-family="sans-serif" font-size="14" lengthAdjust="spacing" textLength="365" x="1484.5" y="1418.8496">Piege(double x, double y, double hauteur, double largeur)</text><line style="stroke:#181818;stroke-width:1.0;stroke-dasharray:1.0,2.0;" x1="1465.5" x2="1619" y1="1394.4316" y2="1394.4316"/><text fill="#000000" font-family="sans-serif" font-size="14" lengthAdjust="spacing" textLength="82" x="1619" y="1399.7285">Constructeur</text><line style="stroke:#181818;stroke-width:1.0;stroke-dasharray:1.0,2.0;" x1="1701" x2="1854.5" y1="1394.4316" y2="1394.4316"/></g><!--class Personnage--><g id="elem_Personnage"><rect codeLine="43" fill="#F1F1F1" height="290.0742" id="Personnage" rx="2.5" ry="2.5" style="stroke:#181818;stroke-width:0.5;" width="569" x="1978.5" y="900"/><ellipse cx="2220.25" cy="916" fill="#A9DCDF" rx="11" ry="11" style="stroke:#181818;stroke-width:1.0;"/><path d="M2222.4375,917.7656 L2218.2969,917.7656 L2217.875,918.7969 L2218.2969,918.7969 Q2218.9063,918.7969 2219.1719,919.0313 Q2219.4375,919.2656 2219.4375,919.6563 Q2219.4375,920.0313 2219.1719,920.2656 Q2218.9063,920.5 2218.2969,920.5 L2216,920.5 Q2215.3906,920.5 2215.1406,920.2656 Q2214.875,920.0313 2214.875,919.6406 Q2214.875,919.2656 2215.1563,919.0313 Q2215.4219,918.7813 2216.0469,918.7969 L2218.7188,912.1406 L2217.6094,912.1406 Q2217,912.1406 2216.7344,911.9063 Q2216.4688,911.6719 2216.4688,911.2813 Q2216.4688,910.9063 2216.7344,910.6719 Q2217,910.4375 2217.6094,910.4375 L2221.2813,910.4375 L2224.6719,918.7969 Q2225.2656,918.7969 2225.4531,918.9375 Q2225.8438,919.2031 2225.8438,919.6563 Q2225.8438,920.0313 2225.5781,920.2656 Q2225.3281,920.5 2224.7188,920.5 L2222.4219,920.5 Q2221.8125,920.5 2221.5469,920.2656 Q2221.2813,920.0313 2221.2813,919.6406 Q2221.2813,919.2656 2221.5469,919.0313 Q2221.8125,918.7969 2222.4219,918.7969 L2222.8438,918.7969 L2222.4375,917.7656 Z M2221.7188,916.0625 L2220.3594,912.6875 L2218.9844,916.0625 L2221.7188,916.0625 Z " fill="#000000"/><text fill="#000000" font-family="sans-serif" font-size="14" font-style="italic" lengthAdjust="spacing" textLength="77" x="2240.75" y="921.7969">Personnage</text><line style="stroke:#181818;stroke-width:0.5;" x1="1979.5" x2="2546.5" y1="932" y2="932"/><polygon fill="none" points="1989.5,941.8105,1993.5,945.8105,1989.5,949.8105,1985.5,945.8105" style="stroke:#B38D22;stroke-width:1.0;"/><text fill="#000000" font-family="sans-serif" font-size="14" lengthAdjust="spacing" textLength="91" x="1998.5" y="951.1074">double vitesse</text><rect fill="none" height="6" style="stroke:#C82930;stroke-width:1.0;" width="6" x="1986.5" y="962.4316"/><text fill="#000000" font-family="sans-serif" font-size="14" lengthAdjust="spacing" textLength="30" x="1998.5" y="969.7285">int id</text><rect fill="none" height="6" style="stroke:#C82930;stroke-width:1.0;" width="6" x="1986.5" y="981.0527"/><text fill="#000000" font-family="sans-serif" font-size="14" lengthAdjust="spacing" textLength="116" x="1998.5" y="988.3496">double pointDeVie</text><rect fill="none" height="6" style="stroke:#C82930;stroke-width:1.0;" width="6" x="1986.5" y="999.6738"/><text fill="#000000" font-family="sans-serif" font-size="14" lengthAdjust="spacing" textLength="90" x="1998.5" y="1006.9707">double degats</text><ellipse cx="1989.5" cy="1043.916" fill="#84BE84" rx="3" ry="3" style="stroke:#038048;stroke-width:1.0;"/><text fill="#000000" font-family="sans-serif" font-size="14" lengthAdjust="spacing" textLength="505" x="1998.5" y="1048.2129">Personnage(double x, double y, double largeur, double hauteur, double vitesse)</text><ellipse cx="1989.5" cy="1062.5371" fill="#84BE84" rx="3" ry="3" style="stroke:#038048;stroke-width:1.0;"/><text fill="#000000" font-family="sans-serif" font-size="14" lengthAdjust="spacing" textLength="543" x="1998.5" y="1066.834">Personnage(double x, double y, double hauteur, double largeur, double vitesse, int id)</text><line style="stroke:#181818;stroke-width:1.0;stroke-dasharray:1.0,2.0;" x1="1979.5" x2="2222" y1="1023.7949" y2="1023.7949"/><text fill="#000000" font-family="sans-serif" font-size="14" lengthAdjust="spacing" textLength="82" x="2222" y="1029.0918">Constructeur</text><line style="stroke:#181818;stroke-width:1.0;stroke-dasharray:1.0,2.0;" x1="2304" x2="2546.5" y1="1023.7949" y2="1023.7949"/><ellipse cx="1989.5" cy="1103.7793" fill="#84BE84" rx="3" ry="3" style="stroke:#038048;stroke-width:1.0;"/><text fill="#000000" font-family="sans-serif" font-size="14" lengthAdjust="spacing" textLength="421" x="1998.5" y="1108.0762">void deplacer(TypeMouvement typeMouvement, double deltaTime)</text><ellipse cx="1989.5" cy="1122.4004" fill="#84BE84" rx="3" ry="3" style="stroke:#038048;stroke-width:1.0;"/><text fill="#000000" font-family="sans-serif" font-size="14" lengthAdjust="spacing" textLength="138" x="1998.5" y="1126.6973">boolean estUnHeros()</text><ellipse cx="1989.5" cy="1141.0215" fill="#84BE84" rx="3" ry="3" style="stroke:#038048;stroke-width:1.0;"/><text fill="#000000" font-family="sans-serif" font-size="14" lengthAdjust="spacing" textLength="60" x="1998.5" y="1145.3184">int getId()</text><ellipse cx="1989.5" cy="1159.6426" fill="#84BE84" rx="3" ry="3" style="stroke:#038048;stroke-width:1.0;"/><text fill="#000000" font-family="sans-serif" font-size="14" lengthAdjust="spacing" textLength="123" x="1998.5" y="1163.9395">double getVitesse()</text><ellipse cx="1989.5" cy="1178.2637" fill="#84BE84" rx="3" ry="3" style="stroke:#038048;stroke-width:1.0;"/><text fill="#000000" font-family="sans-serif" font-size="14" lengthAdjust="spacing" textLength="100" x="1998.5" y="1182.5605">String toString()</text><line style="stroke:#181818;stroke-width:1.0;stroke-dasharray:1.0,2.0;" x1="1979.5" x2="2232" y1="1083.6582" y2="1083.6582"/><text fill="#000000" font-family="sans-serif" font-size="14" lengthAdjust="spacing" textLength="62" x="2232" y="1088.9551">M&#233;thodes</text><line style="stroke:#181818;stroke-width:1.0;stroke-dasharray:1.0,2.0;" x1="2294" x2="2546.5" y1="1083.6582" y2="1083.6582"/></g><!--class TypeMouvement--><g id="elem_TypeMouvement"><rect codeLine="59" fill="#F1F1F1" height="122.4844" id="TypeMouvement" rx="2.5" ry="2.5" style="stroke:#181818;stroke-width:0.5;" width="137" x="1950.5" y="559.5"/><ellipse cx="1965.5" cy="575.5" fill="#EB937F" rx="11" ry="11" style="stroke:#181818;stroke-width:1.0;"/><path d="M1964.3594,576.2969 L1964.3594,578.7969 L1968.6875,578.7969 L1968.6875,577.875 Q1968.6875,577.2656 1968.9219,577 Q1969.1719,576.7344 1969.5469,576.7344 Q1969.9219,576.7344 1970.1563,577 Q1970.3906,577.2656 1970.3906,577.875 L1970.3906,580.5 L1962.3906,580.5 Q1961.7656,580.5 1961.5,580.2656 Q1961.25,580.0313 1961.25,579.6406 Q1961.25,579.2656 1961.5156,579.0313 Q1961.7813,578.7969 1962.3906,578.7969 L1962.6563,578.7969 L1962.6563,572.1406 L1962.3906,572.1406 Q1961.7656,572.1406 1961.5,571.9063 Q1961.25,571.6719 1961.25,571.2813 Q1961.25,570.9063 1961.5,570.6719 Q1961.7656,570.4375 1962.3906,570.4375 L1970.0156,570.4375 L1970.0156,573.0313 Q1970.0156,573.6406 1969.7813,573.9063 Q1969.5625,574.1563 1969.1719,574.1563 Q1968.7969,574.1563 1968.5625,573.9063 Q1968.3281,573.6406 1968.3281,573.0313 L1968.3281,572.1406 L1964.3594,572.1406 L1964.3594,574.5938 L1965.8438,574.5938 Q1965.8438,573.9375 1965.9688,573.75 Q1966.2344,573.3438 1966.7031,573.3438 Q1967.0781,573.3438 1967.3125,573.6094 Q1967.5469,573.8594 1967.5469,574.4688 L1967.5469,576.4375 Q1967.5469,576.9844 1967.4219,577.1719 Q1967.1563,577.5625 1966.7031,577.5625 Q1966.2344,577.5625 1965.9688,577.1563 Q1965.8438,576.9688 1965.8438,576.2969 L1964.3594,576.2969 Z " fill="#000000"/><text fill="#000000" font-family="sans-serif" font-size="14" lengthAdjust="spacing" textLength="105" x="1979.5" y="581.2969">TypeMouvement</text><line style="stroke:#181818;stroke-width:0.5;" x1="1951.5" x2="2086.5" y1="591.5" y2="591.5"/><text fill="#000000" font-family="sans-serif" font-size="14" lengthAdjust="spacing" textLength="42" x="1956.5" y="610.6074">RIGHT</text><text fill="#000000" font-family="sans-serif" font-size="14" lengthAdjust="spacing" textLength="35" x="1956.5" y="629.2285">LEFT</text><text fill="#000000" font-family="sans-serif" font-size="14" lengthAdjust="spacing" textLength="18" x="1956.5" y="647.8496">UP</text><text fill="#000000" font-family="sans-serif" font-size="14" lengthAdjust="spacing" textLength="43" x="1956.5" y="666.4707">DOWN</text><line style="stroke:#181818;stroke-width:0.5;" x1="1951.5" x2="2086.5" y1="673.9844" y2="673.9844"/></g><!--class Heros--><g id="elem_Heros"><rect codeLine="66" fill="#F1F1F1" height="122.4844" id="Heros" rx="2.5" ry="2.5" style="stroke:#181818;stroke-width:0.5;" width="392" x="2469" y="1315.5"/><ellipse cx="2642.25" cy="1331.5" fill="#ADD1B2" rx="11" ry="11" style="stroke:#181818;stroke-width:1.0;"/><path d="M2645.0156,1327.375 Q2645.1719,1327.1563 2645.3594,1327.0469 Q2645.5469,1326.9375 2645.7656,1326.9375 Q2646.1406,1326.9375 2646.375,1327.2031 Q2646.6094,1327.4531 2646.6094,1328.0625 L2646.6094,1329.5156 Q2646.6094,1330.125 2646.375,1330.3906 Q2646.1406,1330.6563 2645.7656,1330.6563 Q2645.4219,1330.6563 2645.2188,1330.4531 Q2645.0156,1330.2656 2644.9063,1329.75 Q2644.8594,1329.3906 2644.6719,1329.2031 Q2644.3438,1328.8281 2643.7344,1328.6094 Q2643.125,1328.3906 2642.5,1328.3906 Q2641.7344,1328.3906 2641.0938,1328.7188 Q2640.4688,1329.0469 2639.9688,1329.7969 Q2639.4844,1330.5469 2639.4844,1331.5781 L2639.4844,1332.6719 Q2639.4844,1333.9063 2640.375,1334.7344 Q2641.2656,1335.5469 2642.8594,1335.5469 Q2643.7969,1335.5469 2644.4531,1335.2969 Q2644.8438,1335.1406 2645.2656,1334.7031 Q2645.5313,1334.4375 2645.6719,1334.3594 Q2645.8281,1334.2813 2646.0313,1334.2813 Q2646.3594,1334.2813 2646.6094,1334.5469 Q2646.875,1334.7969 2646.875,1335.1406 Q2646.875,1335.4844 2646.5313,1335.8906 Q2646.0313,1336.4688 2645.2344,1336.7969 Q2644.1563,1337.25 2642.8594,1337.25 Q2641.3438,1337.25 2640.1406,1336.625 Q2639.1563,1336.125 2638.4688,1335.0625 Q2637.7813,1333.9844 2637.7813,1332.7031 L2637.7813,1331.5469 Q2637.7813,1330.2188 2638.3906,1329.0781 Q2639.0156,1327.9219 2640.1094,1327.3125 Q2641.2031,1326.6875 2642.4375,1326.6875 Q2643.1719,1326.6875 2643.8125,1326.8594 Q2644.4688,1327.0156 2645.0156,1327.375 Z " fill="#000000"/><text fill="#000000" font-family="sans-serif" font-size="14" lengthAdjust="spacing" textLength="37" x="2662.75" y="1337.2969">Heros</text><line style="stroke:#181818;stroke-width:0.5;" x1="2470" x2="2860" y1="1347.5" y2="1347.5"/><ellipse cx="2480" cy="1384.9316" fill="#84BE84" rx="3" ry="3" style="stroke:#038048;stroke-width:1.0;"/><text fill="#000000" font-family="sans-serif" font-size="14" lengthAdjust="spacing" textLength="366" x="2489" y="1389.2285">Heros(double x, double y, double largeur, double hauteur)</text><line style="stroke:#181818;stroke-width:1.0;stroke-dasharray:1.0,2.0;" x1="2470" x2="2624" y1="1364.8105" y2="1364.8105"/><text fill="#000000" font-family="sans-serif" font-size="14" lengthAdjust="spacing" textLength="82" x="2624" y="1370.1074">Constructeur</text><line style="stroke:#181818;stroke-width:1.0;stroke-dasharray:1.0,2.0;" x1="2706" x2="2860" y1="1364.8105" y2="1364.8105"/><ellipse cx="2480" cy="1426.1738" fill="#84BE84" rx="3" ry="3" style="stroke:#038048;stroke-width:1.0;"/><text fill="#000000" font-family="sans-serif" font-size="14" lengthAdjust="spacing" textLength="138" x="2489" y="1430.4707">boolean estUnHeros()</text><line style="stroke:#181818;stroke-width:1.0;stroke-dasharray:1.0,2.0;" x1="2470" x2="2634" y1="1406.0527" y2="1406.0527"/><text fill="#000000" font-family="sans-serif" font-size="14" lengthAdjust="spacing" textLength="62" x="2634" y="1411.3496">M&#233;thodes</text><line style="stroke:#181818;stroke-width:1.0;stroke-dasharray:1.0,2.0;" x1="2696" x2="2860" y1="1406.0527" y2="1406.0527"/></g><!--class Monstre--><g id="elem_Monstre"><rect codeLine="73" fill="#F1F1F1" height="99.8633" id="Monstre" rx="2.5" ry="2.5" style="stroke:#181818;stroke-width:0.5;" width="543" x="1890.5" y="1326.5"/><ellipse cx="2131.75" cy="1342.5" fill="#A9DCDF" rx="11" ry="11" style="stroke:#181818;stroke-width:1.0;"/><path d="M2133.9375,1344.2656 L2129.7969,1344.2656 L2129.375,1345.2969 L2129.7969,1345.2969 Q2130.4063,1345.2969 2130.6719,1345.5313 Q2130.9375,1345.7656 2130.9375,1346.1563 Q2130.9375,1346.5313 2130.6719,1346.7656 Q2130.4063,1347 2129.7969,1347 L2127.5,1347 Q2126.8906,1347 2126.6406,1346.7656 Q2126.375,1346.5313 2126.375,1346.1406 Q2126.375,1345.7656 2126.6563,1345.5313 Q2126.9219,1345.2813 2127.5469,1345.2969 L2130.2188,1338.6406 L2129.1094,1338.6406 Q2128.5,1338.6406 2128.2344,1338.4063 Q2127.9688,1338.1719 2127.9688,1337.7813 Q2127.9688,1337.4063 2128.2344,1337.1719 Q2128.5,1336.9375 2129.1094,1336.9375 L2132.7813,1336.9375 L2136.1719,1345.2969 Q2136.7656,1345.2969 2136.9531,1345.4375 Q2137.3438,1345.7031 2137.3438,1346.1563 Q2137.3438,1346.5313 2137.0781,1346.7656 Q2136.8281,1347 2136.2188,1347 L2133.9219,1347 Q2133.3125,1347 2133.0469,1346.7656 Q2132.7813,1346.5313 2132.7813,1346.1406 Q2132.7813,1345.7656 2133.0469,1345.5313 Q2133.3125,1345.2969 2133.9219,1345.2969 L2134.3438,1345.2969 L2133.9375,1344.2656 Z M2133.2188,1342.5625 L2131.8594,1339.1875 L2130.4844,1342.5625 L2133.2188,1342.5625 Z " fill="#000000"/><text fill="#000000" font-family="sans-serif" font-size="14" font-style="italic" lengthAdjust="spacing" textLength="52" x="2152.25" y="1348.2969">Monstre</text><line style="stroke:#181818;stroke-width:0.5;" x1="1891.5" x2="2432.5" y1="1358.5" y2="1358.5"/><ellipse cx="1901.5" cy="1395.9316" fill="#84BE84" rx="3" ry="3" style="stroke:#038048;stroke-width:1.0;"/><text fill="#000000" font-family="sans-serif" font-size="14" lengthAdjust="spacing" textLength="479" x="1910.5" y="1400.2285">Monstre(double x, double y, double hauteur, double largeur, double vitesse)</text><ellipse cx="1901.5" cy="1414.5527" fill="#84BE84" rx="3" ry="3" style="stroke:#038048;stroke-width:1.0;"/><text fill="#000000" font-family="sans-serif" font-size="14" lengthAdjust="spacing" textLength="517" x="1910.5" y="1418.8496">Monstre(double x, double y, double largeur, double hauteur, double vitesse, int id)</text><line style="stroke:#181818;stroke-width:1.0;stroke-dasharray:1.0,2.0;" x1="1891.5" x2="2121" y1="1375.8105" y2="1375.8105"/><text fill="#000000" font-family="sans-serif" font-size="14" lengthAdjust="spacing" textLength="82" x="2121" y="1381.1074">Constructeur</text><line style="stroke:#181818;stroke-width:1.0;stroke-dasharray:1.0,2.0;" x1="2203" x2="2432.5" y1="1375.8105" y2="1375.8105"/></g><!--class Walker--><g id="elem_Walker"><rect codeLine="79" fill="#F1F1F1" height="99.8633" id="Walker" rx="2.5" ry="2.5" style="stroke:#181818;stroke-width:0.5;" width="536" x="1894" y="1563"/><ellipse cx="2135.75" cy="1579" fill="#ADD1B2" rx="11" ry="11" style="stroke:#181818;stroke-width:1.0;"/><path d="M2138.5156,1574.875 Q2138.6719,1574.6563 2138.8594,1574.5469 Q2139.0469,1574.4375 2139.2656,1574.4375 Q2139.6406,1574.4375 2139.875,1574.7031 Q2140.1094,1574.9531 2140.1094,1575.5625 L2140.1094,1577.0156 Q2140.1094,1577.625 2139.875,1577.8906 Q2139.6406,1578.1563 2139.2656,1578.1563 Q2138.9219,1578.1563 2138.7188,1577.9531 Q2138.5156,1577.7656 2138.4063,1577.25 Q2138.3594,1576.8906 2138.1719,1576.7031 Q2137.8438,1576.3281 2137.2344,1576.1094 Q2136.625,1575.8906 2136,1575.8906 Q2135.2344,1575.8906 2134.5938,1576.2188 Q2133.9688,1576.5469 2133.4688,1577.2969 Q2132.9844,1578.0469 2132.9844,1579.0781 L2132.9844,1580.1719 Q2132.9844,1581.4063 2133.875,1582.2344 Q2134.7656,1583.0469 2136.3594,1583.0469 Q2137.2969,1583.0469 2137.9531,1582.7969 Q2138.3438,1582.6406 2138.7656,1582.2031 Q2139.0313,1581.9375 2139.1719,1581.8594 Q2139.3281,1581.7813 2139.5313,1581.7813 Q2139.8594,1581.7813 2140.1094,1582.0469 Q2140.375,1582.2969 2140.375,1582.6406 Q2140.375,1582.9844 2140.0313,1583.3906 Q2139.5313,1583.9688 2138.7344,1584.2969 Q2137.6563,1584.75 2136.3594,1584.75 Q2134.8438,1584.75 2133.6406,1584.125 Q2132.6563,1583.625 2131.9688,1582.5625 Q2131.2813,1581.4844 2131.2813,1580.2031 L2131.2813,1579.0469 Q2131.2813,1577.7188 2131.8906,1576.5781 Q2132.5156,1575.4219 2133.6094,1574.8125 Q2134.7031,1574.1875 2135.9375,1574.1875 Q2136.6719,1574.1875 2137.3125,1574.3594 Q2137.9688,1574.5156 2138.5156,1574.875 Z " fill="#000000"/><text fill="#000000" font-family="sans-serif" font-size="14" lengthAdjust="spacing" textLength="44" x="2156.25" y="1584.7969">Walker</text><line style="stroke:#181818;stroke-width:0.5;" x1="1895" x2="2429" y1="1595" y2="1595"/><ellipse cx="1905" cy="1632.4316" fill="#84BE84" rx="3" ry="3" style="stroke:#038048;stroke-width:1.0;"/><text fill="#000000" font-family="sans-serif" font-size="14" lengthAdjust="spacing" textLength="373" x="1914" y="1636.7285">Walker(double x, double y, double hauteur, double largeur)</text><ellipse cx="1905" cy="1651.0527" fill="#84BE84" rx="3" ry="3" style="stroke:#038048;stroke-width:1.0;"/><text fill="#000000" font-family="sans-serif" font-size="14" lengthAdjust="spacing" textLength="510" x="1914" y="1655.3496">Walker(double x, double y, double hauteur, double largeur, double vitesse, int id)</text><line style="stroke:#181818;stroke-width:1.0;stroke-dasharray:1.0,2.0;" x1="1895" x2="2121" y1="1612.3105" y2="1612.3105"/><text fill="#000000" font-family="sans-serif" font-size="14" lengthAdjust="spacing" textLength="82" x="2121" y="1617.6074">Constructeur</text><line style="stroke:#181818;stroke-width:1.0;stroke-dasharray:1.0,2.0;" x1="2203" x2="2429" y1="1612.3105" y2="1612.3105"/></g><!--class Monde--><g id="elem_Monde"><rect codeLine="85" fill="#F1F1F1" height="364.5586" id="Monde" rx="2.5" ry="2.5" style="stroke:#181818;stroke-width:0.5;" width="510" x="1405" y="438"/><ellipse cx="1634.25" cy="454" fill="#ADD1B2" rx="11" ry="11" style="stroke:#181818;stroke-width:1.0;"/><path d="M1637.0156,449.875 Q1637.1719,449.6563 1637.3594,449.5469 Q1637.5469,449.4375 1637.7656,449.4375 Q1638.1406,449.4375 1638.375,449.7031 Q1638.6094,449.9531 1638.6094,450.5625 L1638.6094,452.0156 Q1638.6094,452.625 1638.375,452.8906 Q1638.1406,453.1563 1637.7656,453.1563 Q1637.4219,453.1563 1637.2188,452.9531 Q1637.0156,452.7656 1636.9063,452.25 Q1636.8594,451.8906 1636.6719,451.7031 Q1636.3438,451.3281 1635.7344,451.1094 Q1635.125,450.8906 1634.5,450.8906 Q1633.7344,450.8906 1633.0938,451.2188 Q1632.4688,451.5469 1631.9688,452.2969 Q1631.4844,453.0469 1631.4844,454.0781 L1631.4844,455.1719 Q1631.4844,456.4063 1632.375,457.2344 Q1633.2656,458.0469 1634.8594,458.0469 Q1635.7969,458.0469 1636.4531,457.7969 Q1636.8438,457.6406 1637.2656,457.2031 Q1637.5313,456.9375 1637.6719,456.8594 Q1637.8281,456.7813 1638.0313,456.7813 Q1638.3594,456.7813 1638.6094,457.0469 Q1638.875,457.2969 1638.875,457.6406 Q1638.875,457.9844 1638.5313,458.3906 Q1638.0313,458.9688 1637.2344,459.2969 Q1636.1563,459.75 1634.8594,459.75 Q1633.3438,459.75 1632.1406,459.125 Q1631.1563,458.625 1630.4688,457.5625 Q1629.7813,456.4844 1629.7813,455.2031 L1629.7813,454.0469 Q1629.7813,452.7188 1630.3906,451.5781 Q1631.0156,450.4219 1632.1094,449.8125 Q1633.2031,449.1875 1634.4375,449.1875 Q1635.1719,449.1875 1635.8125,449.3594 Q1636.4688,449.5156 1637.0156,449.875 Z " fill="#000000"/><text fill="#000000" font-family="sans-serif" font-size="14" lengthAdjust="spacing" textLength="43" x="1654.75" y="459.7969">Monde</text><line style="stroke:#181818;stroke-width:0.5;" x1="1406" x2="1914" y1="470" y2="470"/><ellipse cx="1416" cy="507.4316" fill="#84BE84" rx="3" ry="3" style="stroke:#038048;stroke-width:1.0;"/><text fill="#000000" font-family="sans-serif" font-size="14" lengthAdjust="spacing" textLength="53" x="1425" y="511.7285">Monde()</text><line style="stroke:#181818;stroke-width:1.0;stroke-dasharray:1.0,2.0;" x1="1406" x2="1619" y1="487.3105" y2="487.3105"/><text fill="#000000" font-family="sans-serif" font-size="14" lengthAdjust="spacing" textLength="82" x="1619" y="492.6074">Constructeur</text><line style="stroke:#181818;stroke-width:1.0;stroke-dasharray:1.0,2.0;" x1="1701" x2="1914" y1="487.3105" y2="487.3105"/><ellipse cx="1416" cy="548.6738" fill="#84BE84" rx="3" ry="3" style="stroke:#038048;stroke-width:1.0;"/><text fill="#000000" font-family="sans-serif" font-size="14" lengthAdjust="spacing" textLength="197" x="1425" y="552.9707">void chargerCarte(String carte)</text><ellipse cx="1416" cy="567.2949" fill="#84BE84" rx="3" ry="3" style="stroke:#038048;stroke-width:1.0;"/><text fill="#000000" font-family="sans-serif" font-size="14" lengthAdjust="spacing" textLength="351" x="1425" y="571.5918">boolean collision(ElementMonde e1, ElementMonde e2)</text><ellipse cx="1416" cy="585.916" fill="#84BE84" rx="3" ry="3" style="stroke:#038048;stroke-width:1.0;"/><text fill="#000000" font-family="sans-serif" font-size="14" lengthAdjust="spacing" textLength="171" x="1425" y="590.2129">void addTerrains(Terrain t)</text><ellipse cx="1416" cy="604.5371" fill="#84BE84" rx="3" ry="3" style="stroke:#038048;stroke-width:1.0;"/><text fill="#000000" font-family="sans-serif" font-size="14" lengthAdjust="spacing" textLength="230" x="1425" y="608.834">void addPersonnage(Personnage p)</text><ellipse cx="1416" cy="623.1582" fill="#84BE84" rx="3" ry="3" style="stroke:#038048;stroke-width:1.0;"/><text fill="#000000" font-family="sans-serif" font-size="14" lengthAdjust="spacing" textLength="484" x="1425" y="627.4551">void deplacementHeros(TypeMouvement typeMouvement, double deltaTime)</text><ellipse cx="1416" cy="641.7793" fill="#84BE84" rx="3" ry="3" style="stroke:#038048;stroke-width:1.0;"/><text fill="#000000" font-family="sans-serif" font-size="14" lengthAdjust="spacing" textLength="108" x="1425" y="646.0762">Heros getHeros()</text><ellipse cx="1416" cy="660.4004" fill="#84BE84" rx="3" ry="3" style="stroke:#038048;stroke-width:1.0;"/><text fill="#000000" font-family="sans-serif" font-size="14" lengthAdjust="spacing" textLength="267" x="1425" y="664.6973">ArrayList&lt;Personnage&gt; getPersonnages()</text><ellipse cx="1416" cy="679.0215" fill="#84BE84" rx="3" ry="3" style="stroke:#038048;stroke-width:1.0;"/><text fill="#000000" font-family="sans-serif" font-size="14" lengthAdjust="spacing" textLength="205" x="1425" y="683.3184">ArrayList&lt;Terrain&gt; getTerrains()</text><ellipse cx="1416" cy="697.6426" fill="#84BE84" rx="3" ry="3" style="stroke:#038048;stroke-width:1.0;"/><text fill="#000000" font-family="sans-serif" font-size="14" lengthAdjust="spacing" textLength="423" x="1425" y="701.9395">boolean collisionAvec(Personnage pers, boolean checkAvecHeros)</text><ellipse cx="1416" cy="716.2637" fill="#84BE84" rx="3" ry="3" style="stroke:#038048;stroke-width:1.0;"/><text fill="#000000" font-family="sans-serif" font-size="14" lengthAdjust="spacing" text-decoration="underline" textLength="260" x="1425" y="720.5605">int intLePlusProche(int value, int multiple)</text><ellipse cx="1416" cy="734.8848" fill="#84BE84" rx="3" ry="3" style="stroke:#038048;stroke-width:1.0;"/><text fill="#000000" font-family="sans-serif" font-size="14" lengthAdjust="spacing" textLength="179" x="1425" y="739.1816">void deplacementMonstres()</text><ellipse cx="1416" cy="753.5059" fill="#84BE84" rx="3" ry="3" style="stroke:#038048;stroke-width:1.0;"/><text fill="#000000" font-family="sans-serif" font-size="14" lengthAdjust="spacing" textLength="423" x="1425" y="757.8027">Graph&lt;Point2D, DefaultEdge&gt; grapheAlternatif(Monstre m, int pas)</text><ellipse cx="1416" cy="772.127" fill="#84BE84" rx="3" ry="3" style="stroke:#038048;stroke-width:1.0;"/><text fill="#000000" font-family="sans-serif" font-size="14" lengthAdjust="spacing" textLength="288" x="1425" y="776.4238">boolean collisionAvecTerrains(Personnage p)</text><ellipse cx="1416" cy="790.748" fill="#84BE84" rx="3" ry="3" style="stroke:#038048;stroke-width:1.0;"/><text fill="#000000" font-family="sans-serif" font-size="14" lengthAdjust="spacing" textLength="288" x="1425" y="795.0449">void deplacementMonstres(double deltaTime)</text><line style="stroke:#181818;stroke-width:1.0;stroke-dasharray:1.0,2.0;" x1="1406" x2="1629" y1="528.5527" y2="528.5527"/><text fill="#000000" font-family="sans-serif" font-size="14" lengthAdjust="spacing" textLength="62" x="1629" y="533.8496">M&#233;thodes</text><line style="stroke:#181818;stroke-width:1.0;stroke-dasharray:1.0,2.0;" x1="1691" x2="1914" y1="528.5527" y2="528.5527"/></g><!--class Donnees--><g id="elem_Donnees"><rect codeLine="107" fill="#F1F1F1" height="141.1055" id="Donnees" rx="2.5" ry="2.5" style="stroke:#181818;stroke-width:0.5;" width="233" x="760.5" y="550"/><ellipse cx="844.25" cy="566" fill="#ADD1B2" rx="11" ry="11" style="stroke:#181818;stroke-width:1.0;"/><path d="M847.0156,561.875 Q847.1719,561.6563 847.3594,561.5469 Q847.5469,561.4375 847.7656,561.4375 Q848.1406,561.4375 848.375,561.7031 Q848.6094,561.9531 848.6094,562.5625 L848.6094,564.0156 Q848.6094,564.625 848.375,564.8906 Q848.1406,565.1563 847.7656,565.1563 Q847.4219,565.1563 847.2188,564.9531 Q847.0156,564.7656 846.9063,564.25 Q846.8594,563.8906 846.6719,563.7031 Q846.3438,563.3281 845.7344,563.1094 Q845.125,562.8906 844.5,562.8906 Q843.7344,562.8906 843.0938,563.2188 Q842.4688,563.5469 841.9688,564.2969 Q841.4844,565.0469 841.4844,566.0781 L841.4844,567.1719 Q841.4844,568.4063 842.375,569.2344 Q843.2656,570.0469 844.8594,570.0469 Q845.7969,570.0469 846.4531,569.7969 Q846.8438,569.6406 847.2656,569.2031 Q847.5313,568.9375 847.6719,568.8594 Q847.8281,568.7813 848.0313,568.7813 Q848.3594,568.7813 848.6094,569.0469 Q848.875,569.2969 848.875,569.6406 Q848.875,569.9844 848.5313,570.3906 Q848.0313,570.9688 847.2344,571.2969 Q846.1563,571.75 844.8594,571.75 Q843.3438,571.75 842.1406,571.125 Q841.1563,570.625 840.4688,569.5625 Q839.7813,568.4844 839.7813,567.2031 L839.7813,566.0469 Q839.7813,564.7188 840.3906,563.5781 Q841.0156,562.4219 842.1094,561.8125 Q843.2031,561.1875 844.4375,561.1875 Q845.1719,561.1875 845.8125,561.3594 Q846.4688,561.5156 847.0156,561.875 Z " fill="#000000"/><text fill="#000000" font-family="sans-serif" font-size="14" lengthAdjust="spacing" textLength="57" x="864.75" y="571.7969">Donnees</text><line style="stroke:#181818;stroke-width:0.5;" x1="761.5" x2="992.5" y1="582" y2="582"/><ellipse cx="771.5" cy="596.8105" fill="none" rx="3" ry="3" style="stroke:#038048;stroke-width:1.0;"/><text fill="#000000" font-family="sans-serif" font-size="14" lengthAdjust="spacing" text-decoration="underline" textLength="207" x="780.5" y="601.1074">int WINDOW_DEFAULT_HEIGHT</text><ellipse cx="771.5" cy="615.4316" fill="none" rx="3" ry="3" style="stroke:#038048;stroke-width:1.0;"/><text fill="#000000" font-family="sans-serif" font-size="14" lengthAdjust="spacing" text-decoration="underline" textLength="201" x="780.5" y="619.7285">int WINDOW_DEFAULT_WIDTH</text><ellipse cx="771.5" cy="634.0527" fill="none" rx="3" ry="3" style="stroke:#038048;stroke-width:1.0;"/><text fill="#000000" font-family="sans-serif" font-size="14" lengthAdjust="spacing" text-decoration="underline" textLength="129" x="780.5" y="638.3496">int WORLD_HEIGHT</text><ellipse cx="771.5" cy="652.6738" fill="none" rx="3" ry="3" style="stroke:#038048;stroke-width:1.0;"/><text fill="#000000" font-family="sans-serif" font-size="14" lengthAdjust="spacing" text-decoration="underline" textLength="123" x="780.5" y="656.9707">int WORLD_WIDTH</text><text fill="#000000" font-family="sans-serif" font-size="14" lengthAdjust="spacing" textLength="12" x="780.5" y="675.5918">...</text><line style="stroke:#181818;stroke-width:0.5;" x1="761.5" x2="992.5" y1="683.1055" y2="683.1055"/></g><!--class GestionFichier--><g id="elem_GestionFichier"><rect codeLine="115" fill="#F1F1F1" height="122.4844" id="GestionFichier" rx="2.5" ry="2.5" style="stroke:#181818;stroke-width:0.5;" width="284" x="710" y="984"/><ellipse cx="801.75" cy="1000" fill="#ADD1B2" rx="11" ry="11" style="stroke:#181818;stroke-width:1.0;"/><path d="M804.5156,995.875 Q804.6719,995.6563 804.8594,995.5469 Q805.0469,995.4375 805.2656,995.4375 Q805.6406,995.4375 805.875,995.7031 Q806.1094,995.9531 806.1094,996.5625 L806.1094,998.0156 Q806.1094,998.625 805.875,998.8906 Q805.6406,999.1563 805.2656,999.1563 Q804.9219,999.1563 804.7188,998.9531 Q804.5156,998.7656 804.4063,998.25 Q804.3594,997.8906 804.1719,997.7031 Q803.8438,997.3281 803.2344,997.1094 Q802.625,996.8906 802,996.8906 Q801.2344,996.8906 800.5938,997.2188 Q799.9688,997.5469 799.4688,998.2969 Q798.9844,999.0469 798.9844,1000.0781 L798.9844,1001.1719 Q798.9844,1002.4063 799.875,1003.2344 Q800.7656,1004.0469 802.3594,1004.0469 Q803.2969,1004.0469 803.9531,1003.7969 Q804.3438,1003.6406 804.7656,1003.2031 Q805.0313,1002.9375 805.1719,1002.8594 Q805.3281,1002.7813 805.5313,1002.7813 Q805.8594,1002.7813 806.1094,1003.0469 Q806.375,1003.2969 806.375,1003.6406 Q806.375,1003.9844 806.0313,1004.3906 Q805.5313,1004.9688 804.7344,1005.2969 Q803.6563,1005.75 802.3594,1005.75 Q800.8438,1005.75 799.6406,1005.125 Q798.6563,1004.625 797.9688,1003.5625 Q797.2813,1002.4844 797.2813,1001.2031 L797.2813,1000.0469 Q797.2813,998.7188 797.8906,997.5781 Q798.5156,996.4219 799.6094,995.8125 Q800.7031,995.1875 801.9375,995.1875 Q802.6719,995.1875 803.3125,995.3594 Q803.9688,995.5156 804.5156,995.875 Z " fill="#000000"/><text fill="#000000" font-family="sans-serif" font-size="14" lengthAdjust="spacing" textLength="92" x="822.25" y="1005.7969">GestionFichier</text><line style="stroke:#181818;stroke-width:0.5;" x1="711" x2="993" y1="1016" y2="1016"/><ellipse cx="721" cy="1053.4316" fill="#84BE84" rx="3" ry="3" style="stroke:#038048;stroke-width:1.0;"/><text fill="#000000" font-family="sans-serif" font-size="14" lengthAdjust="spacing" textLength="102" x="730" y="1057.7285">GestionFichier()</text><line style="stroke:#181818;stroke-width:1.0;stroke-dasharray:1.0,2.0;" x1="711" x2="811" y1="1033.3105" y2="1033.3105"/><text fill="#000000" font-family="sans-serif" font-size="14" lengthAdjust="spacing" textLength="82" x="811" y="1038.6074">Constructeur</text><line style="stroke:#181818;stroke-width:1.0;stroke-dasharray:1.0,2.0;" x1="893" x2="993" y1="1033.3105" y2="1033.3105"/><ellipse cx="721" cy="1094.6738" fill="#84BE84" rx="3" ry="3" style="stroke:#038048;stroke-width:1.0;"/><text fill="#000000" font-family="sans-serif" font-size="14" lengthAdjust="spacing" text-decoration="underline" textLength="258" x="730" y="1098.9707">char[][] lireFichierCarte(String nomCarte)</text><line style="stroke:#181818;stroke-width:1.0;stroke-dasharray:1.0,2.0;" x1="711" x2="821" y1="1074.5527" y2="1074.5527"/><text fill="#000000" font-family="sans-serif" font-size="14" lengthAdjust="spacing" textLength="62" x="821" y="1079.8496">M&#233;thodes</text><line style="stroke:#181818;stroke-width:1.0;stroke-dasharray:1.0,2.0;" x1="883" x2="993" y1="1074.5527" y2="1074.5527"/></g><!--class Resources--><g id="elem_Resources"><rect codeLine="122" fill="#F1F1F1" height="252.832" id="Resources" rx="2.5" ry="2.5" style="stroke:#181818;stroke-width:0.5;" width="320" x="674" y="1250"/><ellipse cx="795.75" cy="1266" fill="#ADD1B2" rx="11" ry="11" style="stroke:#181818;stroke-width:1.0;"/><path d="M798.5156,1261.875 Q798.6719,1261.6563 798.8594,1261.5469 Q799.0469,1261.4375 799.2656,1261.4375 Q799.6406,1261.4375 799.875,1261.7031 Q800.1094,1261.9531 800.1094,1262.5625 L800.1094,1264.0156 Q800.1094,1264.625 799.875,1264.8906 Q799.6406,1265.1563 799.2656,1265.1563 Q798.9219,1265.1563 798.7188,1264.9531 Q798.5156,1264.7656 798.4063,1264.25 Q798.3594,1263.8906 798.1719,1263.7031 Q797.8438,1263.3281 797.2344,1263.1094 Q796.625,1262.8906 796,1262.8906 Q795.2344,1262.8906 794.5938,1263.2188 Q793.9688,1263.5469 793.4688,1264.2969 Q792.9844,1265.0469 792.9844,1266.0781 L792.9844,1267.1719 Q792.9844,1268.4063 793.875,1269.2344 Q794.7656,1270.0469 796.3594,1270.0469 Q797.2969,1270.0469 797.9531,1269.7969 Q798.3438,1269.6406 798.7656,1269.2031 Q799.0313,1268.9375 799.1719,1268.8594 Q799.3281,1268.7813 799.5313,1268.7813 Q799.8594,1268.7813 800.1094,1269.0469 Q800.375,1269.2969 800.375,1269.6406 Q800.375,1269.9844 800.0313,1270.3906 Q799.5313,1270.9688 798.7344,1271.2969 Q797.6563,1271.75 796.3594,1271.75 Q794.8438,1271.75 793.6406,1271.125 Q792.6563,1270.625 791.9688,1269.5625 Q791.2813,1268.4844 791.2813,1267.2031 L791.2813,1266.0469 Q791.2813,1264.7188 791.8906,1263.5781 Q792.5156,1262.4219 793.6094,1261.8125 Q794.7031,1261.1875 795.9375,1261.1875 Q796.6719,1261.1875 797.3125,1261.3594 Q797.9688,1261.5156 798.5156,1261.875 Z " fill="#000000"/><text fill="#000000" font-family="sans-serif" font-size="14" lengthAdjust="spacing" textLength="68" x="816.25" y="1271.7969">Resources</text><line style="stroke:#181818;stroke-width:0.5;" x1="675" x2="993" y1="1282" y2="1282"/><rect fill="none" height="6" style="stroke:#C82930;stroke-width:1.0;" width="6" x="682" y="1293.8105"/><text fill="#000000" font-family="sans-serif" font-size="14" lengthAdjust="spacing" text-decoration="underline" textLength="171" x="694" y="1301.1074">Map&lt;String, Image&gt; assets</text><rect fill="#F24D5C" height="6" style="stroke:#C82930;stroke-width:1.0;" width="6" x="682" y="1335.0527"/><text fill="#000000" font-family="sans-serif" font-size="14" lengthAdjust="spacing" textLength="78" x="694" y="1342.3496">Resources()</text><line style="stroke:#181818;stroke-width:1.0;stroke-dasharray:1.0,2.0;" x1="675" x2="793" y1="1317.9316" y2="1317.9316"/><text fill="#000000" font-family="sans-serif" font-size="14" lengthAdjust="spacing" textLength="82" x="793" y="1323.2285">Constructeur</text><line style="stroke:#181818;stroke-width:1.0;stroke-dasharray:1.0,2.0;" x1="875" x2="993" y1="1317.9316" y2="1317.9316"/><ellipse cx="685" cy="1379.2949" fill="#84BE84" rx="3" ry="3" style="stroke:#038048;stroke-width:1.0;"/><text fill="#000000" font-family="sans-serif" font-size="14" lengthAdjust="spacing" text-decoration="underline" textLength="130" x="694" y="1383.5918">URL get(String path)</text><ellipse cx="685" cy="1397.916" fill="#84BE84" rx="3" ry="3" style="stroke:#038048;stroke-width:1.0;"/><text fill="#000000" font-family="sans-serif" font-size="14" lengthAdjust="spacing" text-decoration="underline" textLength="240" x="694" y="1402.2129">InputStream getAsStream(String path)</text><ellipse cx="685" cy="1416.5371" fill="#84BE84" rx="3" ry="3" style="stroke:#038048;stroke-width:1.0;"/><text fill="#000000" font-family="sans-serif" font-size="14" lengthAdjust="spacing" text-decoration="underline" textLength="176" x="694" y="1420.834">Image getAsset(String path)</text><ellipse cx="685" cy="1435.1582" fill="#84BE84" rx="3" ry="3" style="stroke:#038048;stroke-width:1.0;"/><text fill="#000000" font-family="sans-serif" font-size="14" lengthAdjust="spacing" text-decoration="underline" textLength="294" x="694" y="1439.4551">ResourceBundle getI18NBundle(Locale locale)</text><ellipse cx="685" cy="1453.7793" fill="#84BE84" rx="3" ry="3" style="stroke:#038048;stroke-width:1.0;"/><text fill="#000000" font-family="sans-serif" font-size="14" lengthAdjust="spacing" text-decoration="underline" textLength="211" x="694" y="1458.0762">ResourceBundle getI18NBundle()</text><ellipse cx="685" cy="1472.4004" fill="#84BE84" rx="3" ry="3" style="stroke:#038048;stroke-width:1.0;"/><text fill="#000000" font-family="sans-serif" font-size="14" lengthAdjust="spacing" text-decoration="underline" textLength="290" x="694" y="1476.6973">String getI18NString(String key, Locale locale)</text><ellipse cx="685" cy="1491.0215" fill="#84BE84" rx="3" ry="3" style="stroke:#038048;stroke-width:1.0;"/><text fill="#000000" font-family="sans-serif" font-size="14" lengthAdjust="spacing" text-decoration="underline" textLength="199" x="694" y="1495.3184">String getI18NString(String key)</text><line style="stroke:#181818;stroke-width:1.0;stroke-dasharray:1.0,2.0;" x1="675" x2="803" y1="1359.1738" y2="1359.1738"/><text fill="#000000" font-family="sans-serif" font-size="14" lengthAdjust="spacing" textLength="62" x="803" y="1364.4707">M&#233;thodes</text><line style="stroke:#181818;stroke-width:1.0;stroke-dasharray:1.0,2.0;" x1="865" x2="993" y1="1359.1738" y2="1359.1738"/></g><!--class FabriqueId--><g id="elem_FabriqueId"><rect codeLine="136" fill="#F1F1F1" height="178.3477" id="FabriqueId" rx="2.5" ry="2.5" style="stroke:#181818;stroke-width:0.5;" width="181" x="544.5" y="531.5"/><ellipse cx="596.75" cy="547.5" fill="#ADD1B2" rx="11" ry="11" style="stroke:#181818;stroke-width:1.0;"/><path d="M599.5156,543.375 Q599.6719,543.1563 599.8594,543.0469 Q600.0469,542.9375 600.2656,542.9375 Q600.6406,542.9375 600.875,543.2031 Q601.1094,543.4531 601.1094,544.0625 L601.1094,545.5156 Q601.1094,546.125 600.875,546.3906 Q600.6406,546.6563 600.2656,546.6563 Q599.9219,546.6563 599.7188,546.4531 Q599.5156,546.2656 599.4063,545.75 Q599.3594,545.3906 599.1719,545.2031 Q598.8438,544.8281 598.2344,544.6094 Q597.625,544.3906 597,544.3906 Q596.2344,544.3906 595.5938,544.7188 Q594.9688,545.0469 594.4688,545.7969 Q593.9844,546.5469 593.9844,547.5781 L593.9844,548.6719 Q593.9844,549.9063 594.875,550.7344 Q595.7656,551.5469 597.3594,551.5469 Q598.2969,551.5469 598.9531,551.2969 Q599.3438,551.1406 599.7656,550.7031 Q600.0313,550.4375 600.1719,550.3594 Q600.3281,550.2813 600.5313,550.2813 Q600.8594,550.2813 601.1094,550.5469 Q601.375,550.7969 601.375,551.1406 Q601.375,551.4844 601.0313,551.8906 Q600.5313,552.4688 599.7344,552.7969 Q598.6563,553.25 597.3594,553.25 Q595.8438,553.25 594.6406,552.625 Q593.6563,552.125 592.9688,551.0625 Q592.2813,549.9844 592.2813,548.7031 L592.2813,547.5469 Q592.2813,546.2188 592.8906,545.0781 Q593.5156,543.9219 594.6094,543.3125 Q595.7031,542.6875 596.9375,542.6875 Q597.6719,542.6875 598.3125,542.8594 Q598.9688,543.0156 599.5156,543.375 Z " fill="#000000"/><text fill="#000000" font-family="sans-serif" font-size="14" lengthAdjust="spacing" textLength="68" x="617.25" y="553.2969">FabriqueId</text><line style="stroke:#181818;stroke-width:0.5;" x1="545.5" x2="724.5" y1="563.5" y2="563.5"/><rect fill="none" height="6" style="stroke:#C82930;stroke-width:1.0;" width="6" x="552.5" y="575.3105"/><text fill="#000000" font-family="sans-serif" font-size="14" lengthAdjust="spacing" text-decoration="underline" textLength="125" x="564.5" y="582.6074">FabriqueId instance</text><rect fill="none" height="6" style="stroke:#C82930;stroke-width:1.0;" width="6" x="552.5" y="593.9316"/><text fill="#000000" font-family="sans-serif" font-size="14" lengthAdjust="spacing" textLength="30" x="564.5" y="601.2285">int id</text><rect fill="#F24D5C" height="6" style="stroke:#C82930;stroke-width:1.0;" width="6" x="552.5" y="635.1738"/><text fill="#000000" font-family="sans-serif" font-size="14" lengthAdjust="spacing" textLength="78" x="564.5" y="642.4707">FabriqueId()</text><line style="stroke:#181818;stroke-width:1.0;stroke-dasharray:1.0,2.0;" x1="545.5" x2="594" y1="618.0527" y2="618.0527"/><text fill="#000000" font-family="sans-serif" font-size="14" lengthAdjust="spacing" textLength="82" x="594" y="623.3496">Constructeur</text><line style="stroke:#181818;stroke-width:1.0;stroke-dasharray:1.0,2.0;" x1="676" x2="724.5" y1="618.0527" y2="618.0527"/><ellipse cx="555.5" cy="679.416" fill="#84BE84" rx="3" ry="3" style="stroke:#038048;stroke-width:1.0;"/><text fill="#000000" font-family="sans-serif" font-size="14" lengthAdjust="spacing" text-decoration="underline" textLength="155" x="564.5" y="683.7129">FabriqueId getInstance()</text><ellipse cx="555.5" cy="698.0371" fill="#84BE84" rx="3" ry="3" style="stroke:#038048;stroke-width:1.0;"/><text fill="#000000" font-family="sans-serif" font-size="14" lengthAdjust="spacing" textLength="60" x="564.5" y="702.334">int getId()</text><line style="stroke:#181818;stroke-width:1.0;stroke-dasharray:1.0,2.0;" x1="545.5" x2="604" y1="659.2949" y2="659.2949"/><text fill="#000000" font-family="sans-serif" font-size="14" lengthAdjust="spacing" textLength="62" x="604" y="664.5918">M&#233;thodes</text><line style="stroke:#181818;stroke-width:1.0;stroke-dasharray:1.0,2.0;" x1="666" x2="724.5" y1="659.2949" y2="659.2949"/></g><!--class Sprite--><g id="elem_Sprite"><rect codeLine="148" fill="#F1F1F1" height="48" id="Sprite" rx="2.5" ry="2.5" style="stroke:#181818;stroke-width:0.5;" width="69" x="2933.5" y="1021"/><ellipse cx="2948.5" cy="1037" fill="#ADD1B2" rx="11" ry="11" style="stroke:#181818;stroke-width:1.0;"/><path d="M2951.2656,1032.875 Q2951.4219,1032.6563 2951.6094,1032.5469 Q2951.7969,1032.4375 2952.0156,1032.4375 Q2952.3906,1032.4375 2952.625,1032.7031 Q2952.8594,1032.9531 2952.8594,1033.5625 L2952.8594,1035.0156 Q2952.8594,1035.625 2952.625,1035.8906 Q2952.3906,1036.1563 2952.0156,1036.1563 Q2951.6719,1036.1563 2951.4688,1035.9531 Q2951.2656,1035.7656 2951.1563,1035.25 Q2951.1094,1034.8906 2950.9219,1034.7031 Q2950.5938,1034.3281 2949.9844,1034.1094 Q2949.375,1033.8906 2948.75,1033.8906 Q2947.9844,1033.8906 2947.3438,1034.2188 Q2946.7188,1034.5469 2946.2188,1035.2969 Q2945.7344,1036.0469 2945.7344,1037.0781 L2945.7344,1038.1719 Q2945.7344,1039.4063 2946.625,1040.2344 Q2947.5156,1041.0469 2949.1094,1041.0469 Q2950.0469,1041.0469 2950.7031,1040.7969 Q2951.0938,1040.6406 2951.5156,1040.2031 Q2951.7813,1039.9375 2951.9219,1039.8594 Q2952.0781,1039.7813 2952.2813,1039.7813 Q2952.6094,1039.7813 2952.8594,1040.0469 Q2953.125,1040.2969 2953.125,1040.6406 Q2953.125,1040.9844 2952.7813,1041.3906 Q2952.2813,1041.9688 2951.4844,1042.2969 Q2950.4063,1042.75 2949.1094,1042.75 Q2947.5938,1042.75 2946.3906,1042.125 Q2945.4063,1041.625 2944.7188,1040.5625 Q2944.0313,1039.4844 2944.0313,1038.2031 L2944.0313,1037.0469 Q2944.0313,1035.7188 2944.6406,1034.5781 Q2945.2656,1033.4219 2946.3594,1032.8125 Q2947.4531,1032.1875 2948.6875,1032.1875 Q2949.4219,1032.1875 2950.0625,1032.3594 Q2950.7188,1032.5156 2951.2656,1032.875 Z " fill="#000000"/><text fill="#000000" font-family="sans-serif" font-size="14" lengthAdjust="spacing" textLength="37" x="2962.5" y="1042.7969">Sprite</text><line style="stroke:#181818;stroke-width:0.5;" x1="2934.5" x2="3001.5" y1="1053" y2="1053"/><line style="stroke:#181818;stroke-width:0.5;" x1="2934.5" x2="3001.5" y1="1061" y2="1061"/></g><!--class GameController--><g id="elem_GameController"><rect codeLine="152" fill="#F1F1F1" height="48" id="GameController" rx="2.5" ry="2.5" style="stroke:#181818;stroke-width:0.5;" width="132" x="2817" y="202"/><ellipse cx="2832" cy="218" fill="#A9DCDF" rx="11" ry="11" style="stroke:#181818;stroke-width:1.0;"/><path d="M2834.1875,219.7656 L2830.0469,219.7656 L2829.625,220.7969 L2830.0469,220.7969 Q2830.6563,220.7969 2830.9219,221.0313 Q2831.1875,221.2656 2831.1875,221.6563 Q2831.1875,222.0313 2830.9219,222.2656 Q2830.6563,222.5 2830.0469,222.5 L2827.75,222.5 Q2827.1406,222.5 2826.8906,222.2656 Q2826.625,222.0313 2826.625,221.6406 Q2826.625,221.2656 2826.9063,221.0313 Q2827.1719,220.7813 2827.7969,220.7969 L2830.4688,214.1406 L2829.3594,214.1406 Q2828.75,214.1406 2828.4844,213.9063 Q2828.2188,213.6719 2828.2188,213.2813 Q2828.2188,212.9063 2828.4844,212.6719 Q2828.75,212.4375 2829.3594,212.4375 L2833.0313,212.4375 L2836.4219,220.7969 Q2837.0156,220.7969 2837.2031,220.9375 Q2837.5938,221.2031 2837.5938,221.6563 Q2837.5938,222.0313 2837.3281,222.2656 Q2837.0781,222.5 2836.4688,222.5 L2834.1719,222.5 Q2833.5625,222.5 2833.2969,222.2656 Q2833.0313,222.0313 2833.0313,221.6406 Q2833.0313,221.2656 2833.2969,221.0313 Q2833.5625,220.7969 2834.1719,220.7969 L2834.5938,220.7969 L2834.1875,219.7656 Z M2833.4688,218.0625 L2832.1094,214.6875 L2830.7344,218.0625 L2833.4688,218.0625 Z " fill="#000000"/><text fill="#000000" font-family="sans-serif" font-size="14" font-style="italic" lengthAdjust="spacing" textLength="100" x="2846" y="223.7969">GameController</text><line style="stroke:#181818;stroke-width:0.5;" x1="2818" x2="2948" y1="234" y2="234"/><line style="stroke:#181818;stroke-width:0.5;" x1="2818" x2="2948" y1="242" y2="242"/></g><g id="elem_N_gui"><path d="M2852.5,6 L2852.5,50.582 L3169.5,50.582 L3169.5,16 L3159.5,6 L2852.5,6 " fill="#FEFFDD" style="stroke:#181818;stroke-width:0.5;"/><path d="M3159.5,6 L3159.5,16 L3169.5,16 L3159.5,6 " fill="#FEFFDD" style="stroke:#181818;stroke-width:1.0;"/><text fill="#000000" font-family="sans-serif" font-size="13" lengthAdjust="spacing" textLength="91" x="2858.5" y="25.0283">Voir diagramme</text><text fill="#000000" font-family="sans-serif" font-size="13" font-style="italic" lengthAdjust="spacing" textLength="52" x="2953.5" y="25.0283">class-gui</text><text fill="#000000" font-family="sans-serif" font-size="13" lengthAdjust="spacing" textLength="108" x="3009.5" y="25.0283">pour en savoir plus</text><text fill="#000000" font-family="sans-serif" font-size="13" lengthAdjust="spacing" textLength="296" x="2858.5" y="42.3193">sur ces packages et les classes qu'ils contiennent.</text></g><!--reverse link Terrain to Piege--><g id="link_Terrain_Piege"><path d="M1660,1133.88 C1660,1197.07 1660,1270.51 1660,1326.31 " fill="none" id="Terrain-backto-Piege" style="stroke:#181818;stroke-width:1.0;"/><polygon fill="none" points="1660,1115.88,1654,1133.88,1666,1133.88,1660,1115.88" style="stroke:#181818;stroke-width:1.0;"/></g><!--link N_gui to engine--><g id="link_N_gui_engine"><path codeLine="203" d="M3008.01,51.17 C3004.55,76.22 2998.68,118.7225 2993.61,155.4288 C2993.2931,157.7229 2992.9794,159.9944 2992.6695,162.2376 C2992.5146,163.3592 2992.3607,164.4737 2992.2078,165.5804 C2992.1696,165.8571 2992.1314,166.1333 2992.0934,166.409 " fill="none" id="N_gui-engine" style="stroke:#181818;stroke-width:1.0;stroke-dasharray:7.0,7.0;"/></g><!--link N_gui to gui--><g id="link_N_gui_gui"><path codeLine="204" d="M3011.58,51.16 C3013.52,124.1 3020.0375,369.0175 3026.1138,597.3275 C3029.1519,711.4825 3032.0797,821.4856 3034.2698,903.7638 C3034.8174,924.3333 3035.3188,943.17 3035.7643,959.9056 C3035.8757,964.0895 3035.9836,968.142 3036.0879,972.0575 C3036.1139,973.0364 3036.1398,974.0067 3036.1654,974.9684 " fill="none" id="N_gui-gui" style="stroke:#181818;stroke-width:1.0;stroke-dasharray:7.0,7.0;"/></g><!--reverse link GestionFichier to Resources--><!--reverse link Donnees to GestionFichier--><!--link engine to gui--><!--link GameController to Monde--><g id="link_GameController_Monde"><path codeLine="213" d="M2876.08,250.08 C2866.63,277.1 2846.87,320.72 2813,341 C2644.93,441.65 2115.23,321.1 1933,393 C1904.21,404.36 1876.21,419.98 1849.79,437.76 " fill="none" id="GameController-Monde" style="stroke:#181818;stroke-width:1.0;"/><text fill="#000000" font-family="sans-serif" font-size="13" lengthAdjust="spacing" textLength="7" x="1850.6491" y="426.7358">1</text></g><!--reverse link ElementMonde to Personnage--><g id="link_ElementMonde_Personnage"><path codeLine="214" d="M2311.1295,801.9044 C2303.5495,840.0244 2299.04,862.72 2291.64,899.96 " fill="none" id="ElementMonde-backto-Personnage" style="stroke:#181818;stroke-width:1.0;"/><polygon fill="none" points="2314.64,784.25,2305.2447,800.7342,2317.0143,803.0745,2314.64,784.25" style="stroke:#181818;stroke-width:1.0;"/></g><!--reverse link Personnage to Heros--><g id="link_Personnage_Heros"><path codeLine="215" d="M2452.6603,1201.4517 C2506.4303,1245.5317 2548.73,1280.2 2591.68,1315.4 " fill="none" id="Personnage-backto-Heros" style="stroke:#181818;stroke-width:1.0;"/><polygon fill="none" points="2438.74,1190.04,2448.8564,1206.0918,2456.4642,1196.8116,2438.74,1190.04" style="stroke:#181818;stroke-width:1.0;"/></g><!--reverse link Personnage to Monstre--><g id="link_Personnage_Monstre"><path codeLine="216" d="M2213.575,1207.2497 C2198.605,1256.0897 2188.15,1290.18 2177.05,1326.41 " fill="none" id="Personnage-backto-Monstre" style="stroke:#181818;stroke-width:1.0;"/><polygon fill="none" points="2218.85,1190.04,2207.8385,1205.4914,2219.3116,1209.0081,2218.85,1190.04" style="stroke:#181818;stroke-width:1.0;"/></g><!--reverse link Monstre to Walker--><g id="link_Monstre_Walker"><path codeLine="217" d="M2162,1444.66 C2162,1484.68 2162,1522.9 2162,1562.91 " fill="none" id="Monstre-backto-Walker" style="stroke:#181818;stroke-width:1.0;"/><polygon fill="none" points="2162,1426.66,2156,1444.66,2168,1444.66,2162,1426.66" style="stroke:#181818;stroke-width:1.0;"/></g><!--reverse link ElementMonde to Terrain--><g id="link_ElementMonde_Terrain"><path codeLine="219" d="M2167.4202,795.5345 C2142.8502,815.7145 2130.94,823.57 2105,840 C2046.43,877.1 2024.29,871.7 1961,900 C1908.65,923.41 1851.77,950.25 1801.7,974.37 " fill="none" id="ElementMonde-backto-Terrain" style="stroke:#181818;stroke-width:1.0;"/><polygon fill="none" points="2181.33,784.11,2163.6121,790.8979,2171.2284,800.1711,2181.33,784.11" style="stroke:#181818;stroke-width:1.0;"/></g><!--reverse link Terrain to Mur--><g id="link_Terrain_Mur"><path codeLine="220" d="M1557.0274,1126.7894 C1481.5574,1185.9894 1388.5,1259 1316.71,1315.32 " fill="none" id="Terrain-backto-Mur" style="stroke:#181818;stroke-width:1.0;"/><polygon fill="none" points="1571.19,1115.68,1553.3242,1122.0685,1560.7305,1131.5103,1571.19,1115.68" style="stroke:#181818;stroke-width:1.0;"/></g><!--link Monde to Personnage--><g id="link_Monde_Personnage"><path codeLine="223" d="M1882.54,803.19 C1899.44,815.88 1916.38,828.28 1933,840 C1961.35,859.99 1991.64,880.2 2021.96,899.72 " fill="none" id="Monde-Personnage" style="stroke:#181818;stroke-width:1.0;"/><text fill="#000000" font-family="sans-serif" font-size="13" lengthAdjust="spacing" textLength="5" x="2004.4025" y="888.8246">*</text></g><!--link Monde to Terrain--><g id="link_Monde_Terrain"><path codeLine="224" d="M1660,803.13 C1660,863.74 1660,927.67 1660,974.43 " fill="none" id="Monde-Terrain" style="stroke:#181818;stroke-width:1.0;"/><text fill="#000000" font-family="sans-serif" font-size="13" lengthAdjust="spacing" textLength="5" x="1654.7422" y="963.3138">*</text></g><!--link Monde to GestionFichier--><g id="link_Monde_GestionFichier"><path codeLine="226" d="M1404.86,717.93 C1288.36,766.23 1150.67,829.43 1034,900 C993.84,924.29 952.54,956.3 919.45,983.96 " fill="none" id="Monde-GestionFichier" style="stroke:#181818;stroke-width:1.0;"/><text fill="#000000" font-family="sans-serif" font-size="13" lengthAdjust="spacing" textLength="7" x="919.8442" y="972.9366">1</text></g><!--link ElementMonde to Sprite--><g id="link_ElementMonde_Sprite"><path codeLine="228" d="M2571.64,707.79 C2672.8,754.2 2788.98,818.74 2877,900 C2915.24,935.31 2943.91,990.13 2958.1,1020.95 " fill="none" id="ElementMonde-Sprite" style="stroke:#181818;stroke-width:1.0;"/><text fill="#000000" font-family="sans-serif" font-size="13" lengthAdjust="spacing" textLength="5" x="2949.9225" y="1009.6747">*</text></g><!--link Settings to Property--><g id="link_Settings_Property"><path codeLine="231" d="M266,341.05 C266,360.07 266,380.34 266,400.94 " fill="none" id="Settings-Property" style="stroke:#181818;stroke-width:1.0;"/></g><!--link Property to Getter--><g id="link_Property_Getter"><path codeLine="232" d="M301.71,840.18 C312.66,907.23 323.45,973.28 329.65,1011.27 " fill="none" id="Property-Getter" style="stroke:#181818;stroke-width:1.0;"/><text fill="#000000" font-family="sans-serif" font-size="13" lengthAdjust="spacing" textLength="7" x="320.963" y="1000.3121">1</text></g><!--link Property to Setter--><g id="link_Property_Setter"><path codeLine="233" d="M229.77,840.18 C218.66,907.23 207.72,973.28 201.42,1011.27 " fill="none" id="Property-Setter" style="stroke:#181818;stroke-width:1.0;"/><text fill="#000000" font-family="sans-serif" font-size="13" lengthAdjust="spacing" textLength="7" x="194.786" y="1000.3121">1</text></g><!--SRC=[lLZDRjiu4BxhAOZieVBMyg8zxS4muCPsOi19WrXfjkWM1IDDR28ofP9KDaOt3xJFiI-sGv7wjMGxRR4vHD9m_ZdpSUY41Wzq1MGg0ve0-UOuX2IMTX7pK9C8_j4xgGGD50aYAYMPHh01hgeSXFn2mZYzYu0yDGdR9c5DKmMfQ98ZAbObUJ0uZJcQJGFDEnXOykkQTJUtsI-CzHjM-WtrlKB_nR__g7KSWgmejxmhK7-ulOBw6BEGI4tBxVLQ93wsI7pC9RPj4kV6HRTjRM7ShQmjbM1yHLHiNd0bMtfkso8VXA2C5xlJcKtB-DCJUHV74L1EG2fVq4SGag9iwNFsCBvUfEAmdyZq__cuu-8L0sm9U5B0mzta4kBbTaDOKIKBUaSusdYcyhj3Gk_QjlqAOuWvr_sxqvUFJ86KuEGUCwu82vr604cCz0byOE3i2wrpdqeFziLcO-cCrVhQUw7QZfGrrVPjxFkh8slX49A81Y1SVvl0HPm-PjX3LFMhNsOeKjHdcuhVbHAxuUSWObbfQEq5TleyR0M03yRPlG1GALJWwORKl2pBytf-TkuNNulfhFoukIfU9-zlBtTBFtFwS7-Qs5w-vKTtQ3rzpwtbVv7v1aUWYM7y2RNKUudE8yk-Nf-rtRYbqGCS0PU6xmSGymTKl22S-WYnRxl2iX7sj6kmrYw8KoeKkBPT0lsnsv5174LCifYxjN46tlJhymsyRPpgD0pj0I3T_2HGkpmLnAgWSj9hnHTjpfJtT-ACwL8zKZGmPemERXTCgc7fnKWpbf_jx3QqZBU8TqyQnuyGr2B5rtx9jeRWGRDa_fLglab55GkUJObmjO2hA9LN8aO1LzCUQPJQ2jgaaM991Dqfj2rOzVDCq6GzlDAdsjj9dqpWdgAQQPXbGQ_1E58WE7fnx-RuiJ464oeF15mavhWjBlnhtqWzoJrNP_3tgM9H3hwcOoPe1Q04v4OAR-UN2EDV9jFP-6RXVpcVLf1_F-ljVEAVTt2-lrvCzklAEAeg1hOrQ-r-XZYEcPknOCsEGR4w_m40A1pI8F3fywVF9682h6mD4NYyEIr1eURXDSWu5K4bmLwf-88cGwEYJ-QRh95G1WuDHLwfzTWGRguNkkzoXnEgrYqzC-T9gf05w4PpZwLvFoIbFJVyyg29tFDtAG_DM39_y_kb-N8NSK0rx6UFbmgty5jNB9yTSYpn0V3SEMJmW8AM_PxHEy6-fZ0FQzDyeR6oZcskA0-WmbOReVTC-rv5Jn5uUn7KugbOrp5P1oeQTcV87GnPfQm68Cj4uB7Sv0A-OhpZkdz6Du21AO78LtHjOSTg1QKmotdRL3A8M8v7WTgUhYbVmJ9DabWWj0QcQLxlCWxV6QGTaViqYfQ10E27UUKw_ckMT2irfJEojUEqfxyYc44tGZLsIAzrBOffsB4ayIvfbog9A6PPBbC1US9cB8Bf4nwuSbSYKyOuK-CKP_vSQINh9tbuPEYFo0cYKH5miH6-EKBjLuw0kAMMea7jOblV9Jq000U1MlkaVGapQT-aLRH_exqY_YXUEPtTyhfGuxRgwvCSWFq-7WzAMIUN-MklgUPOlaFcTXNtEgl8py0xbyX_2tBzEYMzau5WT-3kIN-xnFp-CbP7YwNyvQOgCkCegeTo7oEcp_1iTPivqLM8WIxYbMjtEwzf8wXb_1e9Yy42T57QY6WWxd5Y8YTcuyhYjj-cj4sI_JQvPKDkMPUJfHnAybYXo8UO2H8oYZFXPWDao4PPYta8dyFVs8WaU99Xw-hUrfm9Jgb_waOcUbQmA2e9A1BX8nF5vzVqbPxV0WHF1ZYtSJN8_BdyWcgTx3_MZmNVybilEiuhasYyLMtZL3dbPE9zMhCm1FuvJRnHOqPo6YDMdTSEZuv5-s9HiDLQuRentC1xpoCdRqxiRyI3x59a_ZkLeTT3_N-FQZSdnzn9x4h9w-HJzkwAlTtQ1SldEFajgys8_l7GqYqRHh3hQnR5hoTLOzrCXQ8E5in68-jExSheULgB5SQS3koPYrigBUmxnO7fbSZf5E2D6Z8ZkcoRL5FCZlCV]--></g></svg>