<?xml version="1.0" encoding="us-ascii" standalone="no"?><svg xmlns="http://www.w3.org/2000/svg" xmlns:xlink="http://www.w3.org/1999/xlink" contentStyleType="text/css" height="1268px" preserveAspectRatio="none" style="width:1700px;height:1268px;background:#FFFFFF;" version="1.1" viewBox="0 0 1700 1268" width="1700px" zoomAndPan="magnify"><defs/><g><!--cluster engine--><g id="cluster_engine"><path d="M1078.5,361.7627 L1128.5,361.7627 A3.75,3.75 0 0 1 1131,364.2627 L1138,386.3838 L1690.5,386.3838 A2.5,2.5 0 0 1 1693,388.8838 L1693,555.2627 A2.5,2.5 0 0 1 1690.5,557.7627 L1078.5,557.7627 A2.5,2.5 0 0 1 1076,555.2627 L1076,364.2627 A2.5,2.5 0 0 1 1078.5,361.7627 " fill="none" style="stroke:#000000;stroke-width:1.5;"/><line style="stroke:#000000;stroke-width:1.5;" x1="1076" x2="1138" y1="386.3838" y2="386.3838"/><text fill="#000000" font-family="sans-serif" font-size="14" font-weight="bold" lengthAdjust="spacing" textLength="49" x="1080" y="378.8701">engine</text></g><!--cluster cli--><g id="cluster_cli"><path d="M1085.5,88.2627 L1102.5,88.2627 A3.75,3.75 0 0 1 1105,90.7627 L1112,112.8838 L1606.5,112.8838 A2.5,2.5 0 0 1 1609,115.3838 L1609,263.7627 A2.5,2.5 0 0 1 1606.5,266.2627 L1085.5,266.2627 A2.5,2.5 0 0 1 1083,263.7627 L1083,90.7627 A2.5,2.5 0 0 1 1085.5,88.2627 " fill="none" style="stroke:#000000;stroke-width:1.5;"/><line style="stroke:#000000;stroke-width:1.5;" x1="1083" x2="1112" y1="112.8838" y2="112.8838"/><text fill="#000000" font-family="sans-serif" font-size="14" font-weight="bold" lengthAdjust="spacing" textLength="16" x="1087" y="105.3701">cli</text></g><!--cluster gui--><g id="cluster_gui"><path d="M8.5,41.7627 L31.5,41.7627 A3.75,3.75 0 0 1 34,44.2627 L41,66.3838 L1049.5,66.3838 A2.5,2.5 0 0 1 1052,68.8838 L1052,1259.2627 A2.5,2.5 0 0 1 1049.5,1261.7627 L8.5,1261.7627 A2.5,2.5 0 0 1 6,1259.2627 L6,44.2627 A2.5,2.5 0 0 1 8.5,41.7627 " fill="none" style="stroke:#000000;stroke-width:1.5;"/><line style="stroke:#000000;stroke-width:1.5;" x1="6" x2="41" y1="66.3838" y2="66.3838"/><text fill="#000000" font-family="sans-serif" font-size="14" font-weight="bold" lengthAdjust="spacing" textLength="22" x="10" y="58.8701">gui</text></g><!--cluster views--><g id="cluster_views"><path d="M32.5,590.7627 L74.5,590.7627 A3.75,3.75 0 0 1 77,593.2627 L84,615.3838 L1025.5,615.3838 A2.5,2.5 0 0 1 1028,617.8838 L1028,822.2627 A2.5,2.5 0 0 1 1025.5,824.7627 L32.5,824.7627 A2.5,2.5 0 0 1 30,822.2627 L30,593.2627 A2.5,2.5 0 0 1 32.5,590.7627 " fill="none" style="stroke:#000000;stroke-width:1.5;"/><line style="stroke:#000000;stroke-width:1.5;" x1="30" x2="84" y1="615.3838" y2="615.3838"/><text fill="#000000" font-family="sans-serif" font-size="14" font-weight="bold" lengthAdjust="spacing" textLength="41" x="34" y="607.8701">views</text></g><!--cluster engine--><g id="cluster_engine"><path d="M826.5,875.7627 L876.5,875.7627 A3.75,3.75 0 0 1 879,878.2627 L886,900.3838 L1025.5,900.3838 A2.5,2.5 0 0 1 1028,902.8838 L1028,1235.2627 A2.5,2.5 0 0 1 1025.5,1237.7627 L826.5,1237.7627 A2.5,2.5 0 0 1 824,1235.2627 L824,878.2627 A2.5,2.5 0 0 1 826.5,875.7627 " fill="none" style="stroke:#000000;stroke-width:1.5;"/><line style="stroke:#000000;stroke-width:1.5;" x1="824" x2="886" y1="900.3838" y2="900.3838"/><text fill="#000000" font-family="sans-serif" font-size="14" font-weight="bold" lengthAdjust="spacing" textLength="49" x="828" y="892.8701">engine</text></g><!--class GameController--><g id="elem_GameController"><rect codeLine="3" fill="#F1F1F1" height="85.2422" id="GameController" rx="2.5" ry="2.5" style="stroke:#181818;stroke-width:0.5;" width="140" x="1537" y="438.2627"/><ellipse cx="1555.6" cy="454.2627" fill="#A9DCDF" rx="11" ry="11" style="stroke:#181818;stroke-width:1.0;"/><path d="M1557.7875,456.0283 L1553.6469,456.0283 L1553.225,457.0596 L1553.6469,457.0596 Q1554.2563,457.0596 1554.5219,457.2939 Q1554.7875,457.5283 1554.7875,457.9189 Q1554.7875,458.2939 1554.5219,458.5283 Q1554.2563,458.7627 1553.6469,458.7627 L1551.35,458.7627 Q1550.7406,458.7627 1550.4906,458.5283 Q1550.225,458.2939 1550.225,457.9033 Q1550.225,457.5283 1550.5063,457.2939 Q1550.7719,457.0439 1551.3969,457.0596 L1554.0688,450.4033 L1552.9594,450.4033 Q1552.35,450.4033 1552.0844,450.1689 Q1551.8188,449.9346 1551.8188,449.5439 Q1551.8188,449.1689 1552.0844,448.9346 Q1552.35,448.7002 1552.9594,448.7002 L1556.6313,448.7002 L1560.0219,457.0596 Q1560.6156,457.0596 1560.8031,457.2002 Q1561.1938,457.4658 1561.1938,457.9189 Q1561.1938,458.2939 1560.9281,458.5283 Q1560.6781,458.7627 1560.0688,458.7627 L1557.7719,458.7627 Q1557.1625,458.7627 1556.8969,458.5283 Q1556.6313,458.2939 1556.6313,457.9033 Q1556.6313,457.5283 1556.8969,457.2939 Q1557.1625,457.0596 1557.7719,457.0596 L1558.1938,457.0596 L1557.7875,456.0283 Z M1557.0688,454.3252 L1555.7094,450.9502 L1554.3344,454.3252 L1557.0688,454.3252 Z " fill="#000000"/><text fill="#000000" font-family="sans-serif" font-size="14" font-style="italic" lengthAdjust="spacing" textLength="100" x="1570.4" y="460.0596">GameController</text><line style="stroke:#181818;stroke-width:0.5;" x1="1538" x2="1676" y1="470.2627" y2="470.2627"/><polygon fill="none" points="1548,480.0732,1552,484.0732,1548,488.0732,1544,484.0732" style="stroke:#B38D22;stroke-width:1.0;"/><text fill="#000000" font-family="sans-serif" font-size="14" lengthAdjust="spacing" textLength="90" x="1557" y="489.3701">Monde monde</text><line style="stroke:#181818;stroke-width:1.0;" x1="1538" x2="1676" y1="496.8838" y2="496.8838"/><ellipse cx="1548" cy="511.6943" fill="#84BE84" rx="3" ry="3" style="stroke:#038048;stroke-width:1.0;"/><text fill="#000000" font-family="sans-serif" font-size="14" font-style="italic" lengthAdjust="spacing" textLength="114" x="1557" y="515.9912">update(long): void</text></g><!--class Engine--><g id="elem_Engine"><rect codeLine="9" fill="#F1F1F1" height="122.4844" id="Engine" rx="2.5" ry="2.5" style="stroke:#181818;stroke-width:0.5;" width="158" x="1277" y="419.7627"/><ellipse cx="1329.75" cy="435.7627" fill="#A9DCDF" rx="11" ry="11" style="stroke:#181818;stroke-width:1.0;"/><path d="M1331.9375,437.5283 L1327.7969,437.5283 L1327.375,438.5596 L1327.7969,438.5596 Q1328.4063,438.5596 1328.6719,438.7939 Q1328.9375,439.0283 1328.9375,439.4189 Q1328.9375,439.7939 1328.6719,440.0283 Q1328.4063,440.2627 1327.7969,440.2627 L1325.5,440.2627 Q1324.8906,440.2627 1324.6406,440.0283 Q1324.375,439.7939 1324.375,439.4033 Q1324.375,439.0283 1324.6563,438.7939 Q1324.9219,438.5439 1325.5469,438.5596 L1328.2188,431.9033 L1327.1094,431.9033 Q1326.5,431.9033 1326.2344,431.6689 Q1325.9688,431.4346 1325.9688,431.0439 Q1325.9688,430.6689 1326.2344,430.4346 Q1326.5,430.2002 1327.1094,430.2002 L1330.7813,430.2002 L1334.1719,438.5596 Q1334.7656,438.5596 1334.9531,438.7002 Q1335.3438,438.9658 1335.3438,439.4189 Q1335.3438,439.7939 1335.0781,440.0283 Q1334.8281,440.2627 1334.2188,440.2627 L1331.9219,440.2627 Q1331.3125,440.2627 1331.0469,440.0283 Q1330.7813,439.7939 1330.7813,439.4033 Q1330.7813,439.0283 1331.0469,438.7939 Q1331.3125,438.5596 1331.9219,438.5596 L1332.3438,438.5596 L1331.9375,437.5283 Z M1331.2188,435.8252 L1329.8594,432.4502 L1328.4844,435.8252 L1331.2188,435.8252 Z " fill="#000000"/><text fill="#000000" font-family="sans-serif" font-size="14" font-style="italic" lengthAdjust="spacing" textLength="44" x="1350.25" y="441.5596">Engine</text><line style="stroke:#181818;stroke-width:0.5;" x1="1278" x2="1434" y1="451.7627" y2="451.7627"/><line style="stroke:#181818;stroke-width:0.5;" x1="1278" x2="1434" y1="459.7627" y2="459.7627"/><ellipse cx="1288" cy="474.5732" fill="#84BE84" rx="3" ry="3" style="stroke:#038048;stroke-width:1.0;"/><text fill="#000000" font-family="sans-serif" font-size="14" lengthAdjust="spacing" textLength="132" x="1297" y="478.8701">Engine(ui, controller)</text><ellipse cx="1288" cy="493.1943" fill="#84BE84" rx="3" ry="3" style="stroke:#038048;stroke-width:1.0;"/><text fill="#000000" font-family="sans-serif" font-size="14" font-style="italic" lengthAdjust="spacing" textLength="71" x="1297" y="497.4912">start(): void</text><ellipse cx="1288" cy="511.8154" fill="#84BE84" rx="3" ry="3" style="stroke:#038048;stroke-width:1.0;"/><text fill="#000000" font-family="sans-serif" font-size="14" font-style="italic" lengthAdjust="spacing" textLength="70" x="1297" y="516.1123">stop(): void</text><ellipse cx="1288" cy="530.4365" fill="#84BE84" rx="3" ry="3" style="stroke:#038048;stroke-width:1.0;"/><text fill="#000000" font-family="sans-serif" font-size="14" font-style="italic" lengthAdjust="spacing" textLength="92" x="1297" y="534.7334">tick(long): void</text></g><!--class GameInterface--><g id="elem_GameInterface"><rect codeLine="16" fill="#F1F1F1" height="66.6211" id="GameInterface" rx="2.5" ry="2.5" style="stroke:#181818;stroke-width:0.5;" width="126" x="1092" y="447.2627"/><ellipse cx="1107" cy="463.2627" fill="#B4A7E5" rx="11" ry="11" style="stroke:#181818;stroke-width:1.0;"/><path d="M1107.9531,459.9033 L1107.9531,466.5596 L1109.6719,466.5596 Q1110.2813,466.5596 1110.5469,466.7939 Q1110.8125,467.0283 1110.8125,467.4189 Q1110.8125,467.7939 1110.5469,468.0283 Q1110.2813,468.2627 1109.6719,468.2627 L1104.5313,468.2627 Q1103.9219,468.2627 1103.6563,468.0283 Q1103.3906,467.7939 1103.3906,467.4033 Q1103.3906,467.0283 1103.6563,466.7939 Q1103.9219,466.5596 1104.5313,466.5596 L1106.25,466.5596 L1106.25,459.9033 L1104.5313,459.9033 Q1103.9219,459.9033 1103.6563,459.6689 Q1103.3906,459.4346 1103.3906,459.0439 Q1103.3906,458.6689 1103.6563,458.4346 Q1103.9219,458.2002 1104.5313,458.2002 L1109.6719,458.2002 Q1110.2813,458.2002 1110.5469,458.4346 Q1110.8125,458.6689 1110.8125,459.0439 Q1110.8125,459.4346 1110.5469,459.6689 Q1110.2813,459.9033 1109.6719,459.9033 L1107.9531,459.9033 Z " fill="#000000"/><text fill="#000000" font-family="sans-serif" font-size="14" font-style="italic" lengthAdjust="spacing" textLength="94" x="1121" y="469.0596">GameInterface</text><line style="stroke:#181818;stroke-width:0.5;" x1="1093" x2="1217" y1="479.2627" y2="479.2627"/><line style="stroke:#181818;stroke-width:0.5;" x1="1093" x2="1217" y1="487.2627" y2="487.2627"/><ellipse cx="1103" cy="502.0732" fill="#84BE84" rx="3" ry="3" style="stroke:#038048;stroke-width:1.0;"/><text fill="#000000" font-family="sans-serif" font-size="14" lengthAdjust="spacing" textLength="86" x="1112" y="506.3701">render(): void</text></g><!--class CLIController--><g id="elem_CLIController"><rect codeLine="22" fill="#F1F1F1" height="103.8633" id="CLIController" rx="2.5" ry="2.5" style="stroke:#181818;stroke-width:0.5;" width="141" x="1451.5" y="146.2627"/><ellipse cx="1478.2" cy="162.2627" fill="#ADD1B2" rx="11" ry="11" style="stroke:#181818;stroke-width:1.0;"/><path d="M1480.9656,158.1377 Q1481.1219,157.9189 1481.3094,157.8096 Q1481.4969,157.7002 1481.7156,157.7002 Q1482.0906,157.7002 1482.325,157.9658 Q1482.5594,158.2158 1482.5594,158.8252 L1482.5594,160.2783 Q1482.5594,160.8877 1482.325,161.1533 Q1482.0906,161.4189 1481.7156,161.4189 Q1481.3719,161.4189 1481.1688,161.2158 Q1480.9656,161.0283 1480.8563,160.5127 Q1480.8094,160.1533 1480.6219,159.9658 Q1480.2938,159.5908 1479.6844,159.3721 Q1479.075,159.1533 1478.45,159.1533 Q1477.6844,159.1533 1477.0438,159.4814 Q1476.4188,159.8096 1475.9188,160.5596 Q1475.4344,161.3096 1475.4344,162.3408 L1475.4344,163.4346 Q1475.4344,164.6689 1476.325,165.4971 Q1477.2156,166.3096 1478.8094,166.3096 Q1479.7469,166.3096 1480.4031,166.0596 Q1480.7938,165.9033 1481.2156,165.4658 Q1481.4813,165.2002 1481.6219,165.1221 Q1481.7781,165.0439 1481.9813,165.0439 Q1482.3094,165.0439 1482.5594,165.3096 Q1482.825,165.5596 1482.825,165.9033 Q1482.825,166.2471 1482.4813,166.6533 Q1481.9813,167.2314 1481.1844,167.5596 Q1480.1063,168.0127 1478.8094,168.0127 Q1477.2938,168.0127 1476.0906,167.3877 Q1475.1063,166.8877 1474.4188,165.8252 Q1473.7313,164.7471 1473.7313,163.4658 L1473.7313,162.3096 Q1473.7313,160.9814 1474.3406,159.8408 Q1474.9656,158.6846 1476.0594,158.0752 Q1477.1531,157.4502 1478.3875,157.4502 Q1479.1219,157.4502 1479.7625,157.6221 Q1480.4188,157.7783 1480.9656,158.1377 Z " fill="#000000"/><text fill="#000000" font-family="sans-serif" font-size="14" lengthAdjust="spacing" textLength="83" x="1494.8" y="168.0596">CLIController</text><line style="stroke:#181818;stroke-width:0.5;" x1="1452.5" x2="1591.5" y1="178.2627" y2="178.2627"/><line style="stroke:#181818;stroke-width:0.5;" x1="1452.5" x2="1591.5" y1="186.2627" y2="186.2627"/><ellipse cx="1462.5" cy="201.0732" fill="#84BE84" rx="3" ry="3" style="stroke:#038048;stroke-width:1.0;"/><text fill="#000000" font-family="sans-serif" font-size="14" lengthAdjust="spacing" textLength="72" x="1471.5" y="205.3701">start(): void</text><ellipse cx="1462.5" cy="219.6943" fill="#84BE84" rx="3" ry="3" style="stroke:#038048;stroke-width:1.0;"/><text fill="#000000" font-family="sans-serif" font-size="14" lengthAdjust="spacing" textLength="71" x="1471.5" y="223.9912">stop(): void</text><ellipse cx="1462.5" cy="238.3154" fill="#84BE84" rx="3" ry="3" style="stroke:#038048;stroke-width:1.0;"/><text fill="#000000" font-family="sans-serif" font-size="14" lengthAdjust="spacing" textLength="115" x="1471.5" y="242.6123">update(long): void</text></g><!--class CLIEngine--><g id="elem_CLIEngine"><rect codeLine="28" fill="#F1F1F1" height="103.8633" id="CLIEngine" rx="2.5" ry="2.5" style="stroke:#181818;stroke-width:0.5;" width="118" x="1298" y="146.2627"/><ellipse cx="1322.45" cy="162.2627" fill="#ADD1B2" rx="11" ry="11" style="stroke:#181818;stroke-width:1.0;"/><path d="M1325.2156,158.1377 Q1325.3719,157.9189 1325.5594,157.8096 Q1325.7469,157.7002 1325.9656,157.7002 Q1326.3406,157.7002 1326.575,157.9658 Q1326.8094,158.2158 1326.8094,158.8252 L1326.8094,160.2783 Q1326.8094,160.8877 1326.575,161.1533 Q1326.3406,161.4189 1325.9656,161.4189 Q1325.6219,161.4189 1325.4188,161.2158 Q1325.2156,161.0283 1325.1063,160.5127 Q1325.0594,160.1533 1324.8719,159.9658 Q1324.5438,159.5908 1323.9344,159.3721 Q1323.325,159.1533 1322.7,159.1533 Q1321.9344,159.1533 1321.2938,159.4814 Q1320.6688,159.8096 1320.1688,160.5596 Q1319.6844,161.3096 1319.6844,162.3408 L1319.6844,163.4346 Q1319.6844,164.6689 1320.575,165.4971 Q1321.4656,166.3096 1323.0594,166.3096 Q1323.9969,166.3096 1324.6531,166.0596 Q1325.0438,165.9033 1325.4656,165.4658 Q1325.7313,165.2002 1325.8719,165.1221 Q1326.0281,165.0439 1326.2313,165.0439 Q1326.5594,165.0439 1326.8094,165.3096 Q1327.075,165.5596 1327.075,165.9033 Q1327.075,166.2471 1326.7313,166.6533 Q1326.2313,167.2314 1325.4344,167.5596 Q1324.3563,168.0127 1323.0594,168.0127 Q1321.5438,168.0127 1320.3406,167.3877 Q1319.3563,166.8877 1318.6688,165.8252 Q1317.9813,164.7471 1317.9813,163.4658 L1317.9813,162.3096 Q1317.9813,160.9814 1318.5906,159.8408 Q1319.2156,158.6846 1320.3094,158.0752 Q1321.4031,157.4502 1322.6375,157.4502 Q1323.3719,157.4502 1324.0125,157.6221 Q1324.6688,157.7783 1325.2156,158.1377 Z " fill="#000000"/><text fill="#000000" font-family="sans-serif" font-size="14" lengthAdjust="spacing" textLength="65" x="1338.55" y="168.0596">CLIEngine</text><line style="stroke:#181818;stroke-width:0.5;" x1="1299" x2="1415" y1="178.2627" y2="178.2627"/><line style="stroke:#181818;stroke-width:0.5;" x1="1299" x2="1415" y1="186.2627" y2="186.2627"/><ellipse cx="1309" cy="201.0732" fill="#84BE84" rx="3" ry="3" style="stroke:#038048;stroke-width:1.0;"/><text fill="#000000" font-family="sans-serif" font-size="14" lengthAdjust="spacing" textLength="72" x="1318" y="205.3701">start(): void</text><ellipse cx="1309" cy="219.6943" fill="#84BE84" rx="3" ry="3" style="stroke:#038048;stroke-width:1.0;"/><text fill="#000000" font-family="sans-serif" font-size="14" lengthAdjust="spacing" textLength="71" x="1318" y="223.9912">stop(): void</text><ellipse cx="1309" cy="238.3154" fill="#84BE84" rx="3" ry="3" style="stroke:#038048;stroke-width:1.0;"/><text fill="#000000" font-family="sans-serif" font-size="14" lengthAdjust="spacing" textLength="92" x="1318" y="242.6123">tick(long): void</text></g><!--class CLI--><g id="elem_CLI"><rect codeLine="34" fill="#F1F1F1" height="66.6211" id="CLI" rx="2.5" ry="2.5" style="stroke:#181818;stroke-width:0.5;" width="112" x="1099" y="164.7627"/><ellipse cx="1140.55" cy="180.7627" fill="#ADD1B2" rx="11" ry="11" style="stroke:#181818;stroke-width:1.0;"/><path d="M1143.3156,176.6377 Q1143.4719,176.4189 1143.6594,176.3096 Q1143.8469,176.2002 1144.0656,176.2002 Q1144.4406,176.2002 1144.675,176.4658 Q1144.9094,176.7158 1144.9094,177.3252 L1144.9094,178.7783 Q1144.9094,179.3877 1144.675,179.6533 Q1144.4406,179.9189 1144.0656,179.9189 Q1143.7219,179.9189 1143.5188,179.7158 Q1143.3156,179.5283 1143.2063,179.0127 Q1143.1594,178.6533 1142.9719,178.4658 Q1142.6438,178.0908 1142.0344,177.8721 Q1141.425,177.6533 1140.8,177.6533 Q1140.0344,177.6533 1139.3938,177.9814 Q1138.7688,178.3096 1138.2688,179.0596 Q1137.7844,179.8096 1137.7844,180.8408 L1137.7844,181.9346 Q1137.7844,183.1689 1138.675,183.9971 Q1139.5656,184.8096 1141.1594,184.8096 Q1142.0969,184.8096 1142.7531,184.5596 Q1143.1438,184.4033 1143.5656,183.9658 Q1143.8313,183.7002 1143.9719,183.6221 Q1144.1281,183.5439 1144.3313,183.5439 Q1144.6594,183.5439 1144.9094,183.8096 Q1145.175,184.0596 1145.175,184.4033 Q1145.175,184.7471 1144.8313,185.1533 Q1144.3313,185.7314 1143.5344,186.0596 Q1142.4563,186.5127 1141.1594,186.5127 Q1139.6438,186.5127 1138.4406,185.8877 Q1137.4563,185.3877 1136.7688,184.3252 Q1136.0813,183.2471 1136.0813,181.9658 L1136.0813,180.8096 Q1136.0813,179.4814 1136.6906,178.3408 Q1137.3156,177.1846 1138.4094,176.5752 Q1139.5031,175.9502 1140.7375,175.9502 Q1141.4719,175.9502 1142.1125,176.1221 Q1142.7688,176.2783 1143.3156,176.6377 Z " fill="#000000"/><text fill="#000000" font-family="sans-serif" font-size="14" lengthAdjust="spacing" textLength="21" x="1160.45" y="186.5596">CLI</text><line style="stroke:#181818;stroke-width:0.5;" x1="1100" x2="1210" y1="196.7627" y2="196.7627"/><line style="stroke:#181818;stroke-width:0.5;" x1="1100" x2="1210" y1="204.7627" y2="204.7627"/><ellipse cx="1110" cy="219.5732" fill="#84BE84" rx="3" ry="3" style="stroke:#038048;stroke-width:1.0;"/><text fill="#000000" font-family="sans-serif" font-size="14" lengthAdjust="spacing" textLength="86" x="1119" y="223.8701">render(): void</text></g><!--class View--><g id="elem_View"><rect codeLine="40" fill="#F1F1F1" height="178.3477" id="View" rx="2.5" ry="2.5" style="stroke:#181818;stroke-width:0.5;" width="230" x="563" y="109.2627"/><ellipse cx="659.25" cy="125.2627" fill="#A9DCDF" rx="11" ry="11" style="stroke:#181818;stroke-width:1.0;"/><path d="M661.4375,127.0283 L657.2969,127.0283 L656.875,128.0596 L657.2969,128.0596 Q657.9063,128.0596 658.1719,128.2939 Q658.4375,128.5283 658.4375,128.9189 Q658.4375,129.2939 658.1719,129.5283 Q657.9063,129.7627 657.2969,129.7627 L655,129.7627 Q654.3906,129.7627 654.1406,129.5283 Q653.875,129.2939 653.875,128.9033 Q653.875,128.5283 654.1563,128.2939 Q654.4219,128.0439 655.0469,128.0596 L657.7188,121.4033 L656.6094,121.4033 Q656,121.4033 655.7344,121.1689 Q655.4688,120.9346 655.4688,120.5439 Q655.4688,120.1689 655.7344,119.9346 Q656,119.7002 656.6094,119.7002 L660.2813,119.7002 L663.6719,128.0596 Q664.2656,128.0596 664.4531,128.2002 Q664.8438,128.4658 664.8438,128.9189 Q664.8438,129.2939 664.5781,129.5283 Q664.3281,129.7627 663.7188,129.7627 L661.4219,129.7627 Q660.8125,129.7627 660.5469,129.5283 Q660.2813,129.2939 660.2813,128.9033 Q660.2813,128.5283 660.5469,128.2939 Q660.8125,128.0596 661.4219,128.0596 L661.8438,128.0596 L661.4375,127.0283 Z M660.7188,125.3252 L659.3594,121.9502 L657.9844,125.3252 L660.7188,125.3252 Z " fill="#000000"/><text fill="#000000" font-family="sans-serif" font-size="14" font-style="italic" lengthAdjust="spacing" textLength="29" x="679.75" y="131.0596">View</text><line style="stroke:#181818;stroke-width:0.5;" x1="564" x2="792" y1="141.2627" y2="141.2627"/><polygon fill="none" points="574,151.0732,578,155.0732,574,159.0732,570,155.0732" style="stroke:#B38D22;stroke-width:1.0;"/><text fill="#000000" font-family="sans-serif" font-size="14" lengthAdjust="spacing" textLength="71" x="583" y="160.3701">Parent root</text><line style="stroke:#181818;stroke-width:1.0;" x1="564" x2="792" y1="167.8838" y2="167.8838"/><ellipse cx="574" cy="182.6943" fill="#84BE84" rx="3" ry="3" style="stroke:#038048;stroke-width:1.0;"/><text fill="#000000" font-family="sans-serif" font-size="14" lengthAdjust="spacing" textLength="110" x="583" y="186.9912">getRoot(): Parent</text><ellipse cx="574" cy="201.3154" fill="#84BE84" rx="3" ry="3" style="stroke:#038048;stroke-width:1.0;"/><text fill="#000000" font-family="sans-serif" font-size="14" lengthAdjust="spacing" textLength="160" x="583" y="205.6123">enableRootEvents(): void</text><ellipse cx="574" cy="219.9365" fill="#84BE84" rx="3" ry="3" style="stroke:#038048;stroke-width:1.0;"/><text fill="#000000" font-family="sans-serif" font-size="14" lengthAdjust="spacing" textLength="107" x="583" y="224.2334">onViewInit(): void</text><ellipse cx="574" cy="238.5576" fill="#84BE84" rx="3" ry="3" style="stroke:#038048;stroke-width:1.0;"/><text fill="#000000" font-family="sans-serif" font-size="14" lengthAdjust="spacing" textLength="151" x="583" y="242.8545">onViewDisplayed(): void</text><ellipse cx="574" cy="257.1787" fill="#84BE84" rx="3" ry="3" style="stroke:#038048;stroke-width:1.0;"/><text fill="#000000" font-family="sans-serif" font-size="14" lengthAdjust="spacing" textLength="196" x="583" y="261.4756">onKeyPressed(KeyEvent): void</text><ellipse cx="574" cy="275.7998" fill="#84BE84" rx="3" ry="3" style="stroke:#038048;stroke-width:1.0;"/><text fill="#000000" font-family="sans-serif" font-size="14" lengthAdjust="spacing" textLength="204" x="583" y="280.0967">onKeyReleased(KeyEvent): void</text></g><!--class ViewController--><g id="elem_ViewController"><rect codeLine="51" fill="#F1F1F1" height="48" id="ViewController" rx="2.5" ry="2.5" style="stroke:#181818;stroke-width:0.5;" width="123" x="316.5" y="456.7627"/><ellipse cx="331.5" cy="472.7627" fill="#A9DCDF" rx="11" ry="11" style="stroke:#181818;stroke-width:1.0;"/><path d="M333.6875,474.5283 L329.5469,474.5283 L329.125,475.5596 L329.5469,475.5596 Q330.1563,475.5596 330.4219,475.7939 Q330.6875,476.0283 330.6875,476.4189 Q330.6875,476.7939 330.4219,477.0283 Q330.1563,477.2627 329.5469,477.2627 L327.25,477.2627 Q326.6406,477.2627 326.3906,477.0283 Q326.125,476.7939 326.125,476.4033 Q326.125,476.0283 326.4063,475.7939 Q326.6719,475.5439 327.2969,475.5596 L329.9688,468.9033 L328.8594,468.9033 Q328.25,468.9033 327.9844,468.6689 Q327.7188,468.4346 327.7188,468.0439 Q327.7188,467.6689 327.9844,467.4346 Q328.25,467.2002 328.8594,467.2002 L332.5313,467.2002 L335.9219,475.5596 Q336.5156,475.5596 336.7031,475.7002 Q337.0938,475.9658 337.0938,476.4189 Q337.0938,476.7939 336.8281,477.0283 Q336.5781,477.2627 335.9688,477.2627 L333.6719,477.2627 Q333.0625,477.2627 332.7969,477.0283 Q332.5313,476.7939 332.5313,476.4033 Q332.5313,476.0283 332.7969,475.7939 Q333.0625,475.5596 333.6719,475.5596 L334.0938,475.5596 L333.6875,474.5283 Z M332.9688,472.8252 L331.6094,469.4502 L330.2344,472.8252 L332.9688,472.8252 Z " fill="#000000"/><text fill="#000000" font-family="sans-serif" font-size="14" font-style="italic" lengthAdjust="spacing" textLength="91" x="345.5" y="478.5596">ViewController</text><line style="stroke:#181818;stroke-width:0.5;" x1="317.5" x2="438.5" y1="488.7627" y2="488.7627"/><line style="stroke:#181818;stroke-width:0.5;" x1="317.5" x2="438.5" y1="496.7627" y2="496.7627"/></g><!--class VIEWS--><g id="elem_VIEWS"><rect codeLine="53" fill="#F1F1F1" height="85.2422" id="VIEWS" rx="2.5" ry="2.5" style="stroke:#181818;stroke-width:0.5;" width="75" x="146.5" y="155.7627"/><ellipse cx="161.5" cy="171.7627" fill="#EB937F" rx="11" ry="11" style="stroke:#181818;stroke-width:1.0;"/><path d="M160.3594,172.5596 L160.3594,175.0596 L164.6875,175.0596 L164.6875,174.1377 Q164.6875,173.5283 164.9219,173.2627 Q165.1719,172.9971 165.5469,172.9971 Q165.9219,172.9971 166.1563,173.2627 Q166.3906,173.5283 166.3906,174.1377 L166.3906,176.7627 L158.3906,176.7627 Q157.7656,176.7627 157.5,176.5283 Q157.25,176.2939 157.25,175.9033 Q157.25,175.5283 157.5156,175.2939 Q157.7813,175.0596 158.3906,175.0596 L158.6563,175.0596 L158.6563,168.4033 L158.3906,168.4033 Q157.7656,168.4033 157.5,168.1689 Q157.25,167.9346 157.25,167.5439 Q157.25,167.1689 157.5,166.9346 Q157.7656,166.7002 158.3906,166.7002 L166.0156,166.7002 L166.0156,169.2939 Q166.0156,169.9033 165.7813,170.1689 Q165.5625,170.4189 165.1719,170.4189 Q164.7969,170.4189 164.5625,170.1689 Q164.3281,169.9033 164.3281,169.2939 L164.3281,168.4033 L160.3594,168.4033 L160.3594,170.8564 L161.8438,170.8564 Q161.8438,170.2002 161.9688,170.0127 Q162.2344,169.6064 162.7031,169.6064 Q163.0781,169.6064 163.3125,169.8721 Q163.5469,170.1221 163.5469,170.7314 L163.5469,172.7002 Q163.5469,173.2471 163.4219,173.4346 Q163.1563,173.8252 162.7031,173.8252 Q162.2344,173.8252 161.9688,173.4189 Q161.8438,173.2314 161.8438,172.5596 L160.3594,172.5596 Z " fill="#000000"/><text fill="#000000" font-family="sans-serif" font-size="14" lengthAdjust="spacing" textLength="43" x="175.5" y="177.5596">VIEWS</text><line style="stroke:#181818;stroke-width:0.5;" x1="147.5" x2="220.5" y1="187.7627" y2="187.7627"/><text fill="#000000" font-family="sans-serif" font-size="14" lengthAdjust="spacing" textLength="40" x="152.5" y="206.8701">HOME</text><text fill="#000000" font-family="sans-serif" font-size="14" lengthAdjust="spacing" textLength="40" x="152.5" y="225.4912">GAME</text><line style="stroke:#181818;stroke-width:0.5;" x1="147.5" x2="220.5" y1="233.0049" y2="233.0049"/></g><!--class ViewManager--><g id="elem_ViewManager"><rect codeLine="58" fill="#F1F1F1" height="196.9688" id="ViewManager" rx="2.5" ry="2.5" style="stroke:#181818;stroke-width:0.5;" width="227" x="256.5" y="99.7627"/><ellipse cx="323.25" cy="115.7627" fill="#ADD1B2" rx="11" ry="11" style="stroke:#181818;stroke-width:1.0;"/><path d="M326.0156,111.6377 Q326.1719,111.4189 326.3594,111.3096 Q326.5469,111.2002 326.7656,111.2002 Q327.1406,111.2002 327.375,111.4658 Q327.6094,111.7158 327.6094,112.3252 L327.6094,113.7783 Q327.6094,114.3877 327.375,114.6533 Q327.1406,114.9189 326.7656,114.9189 Q326.4219,114.9189 326.2188,114.7158 Q326.0156,114.5283 325.9063,114.0127 Q325.8594,113.6533 325.6719,113.4658 Q325.3438,113.0908 324.7344,112.8721 Q324.125,112.6533 323.5,112.6533 Q322.7344,112.6533 322.0938,112.9814 Q321.4688,113.3096 320.9688,114.0596 Q320.4844,114.8096 320.4844,115.8408 L320.4844,116.9346 Q320.4844,118.1689 321.375,118.9971 Q322.2656,119.8096 323.8594,119.8096 Q324.7969,119.8096 325.4531,119.5596 Q325.8438,119.4033 326.2656,118.9658 Q326.5313,118.7002 326.6719,118.6221 Q326.8281,118.5439 327.0313,118.5439 Q327.3594,118.5439 327.6094,118.8096 Q327.875,119.0596 327.875,119.4033 Q327.875,119.7471 327.5313,120.1533 Q327.0313,120.7314 326.2344,121.0596 Q325.1563,121.5127 323.8594,121.5127 Q322.3438,121.5127 321.1406,120.8877 Q320.1563,120.3877 319.4688,119.3252 Q318.7813,118.2471 318.7813,116.9658 L318.7813,115.8096 Q318.7813,114.4814 319.3906,113.3408 Q320.0156,112.1846 321.1094,111.5752 Q322.2031,110.9502 323.4375,110.9502 Q324.1719,110.9502 324.8125,111.1221 Q325.4688,111.2783 326.0156,111.6377 Z " fill="#000000"/><text fill="#000000" font-family="sans-serif" font-size="14" lengthAdjust="spacing" textLength="85" x="343.75" y="121.5596">ViewManager</text><line style="stroke:#181818;stroke-width:0.5;" x1="257.5" x2="482.5" y1="131.7627" y2="131.7627"/><rect fill="none" height="6" style="stroke:#C82930;stroke-width:1.0;" width="6" x="264.5" y="143.5732"/><text fill="#000000" font-family="sans-serif" font-size="14" lengthAdjust="spacing" text-decoration="underline" textLength="146" x="276.5" y="150.8701">instance: ViewManager</text><rect fill="none" height="6" style="stroke:#C82930;stroke-width:1.0;" width="6" x="264.5" y="162.1943"/><text fill="#000000" font-family="sans-serif" font-size="14" lengthAdjust="spacing" textLength="80" x="276.5" y="169.4912">stage: Stage</text><line style="stroke:#181818;stroke-width:1.0;" x1="257.5" x2="482.5" y1="177.0049" y2="177.0049"/><rect fill="#F24D5C" height="6" style="stroke:#C82930;stroke-width:1.0;" width="6" x="264.5" y="188.8154"/><text fill="#000000" font-family="sans-serif" font-size="14" lengthAdjust="spacing" textLength="95" x="276.5" y="196.1123">ViewManager()</text><ellipse cx="267.5" cy="210.4365" fill="#84BE84" rx="3" ry="3" style="stroke:#038048;stroke-width:1.0;"/><text fill="#000000" font-family="sans-serif" font-size="14" lengthAdjust="spacing" text-decoration="underline" textLength="176" x="276.5" y="214.7334">getInstance(): ViewManager</text><ellipse cx="267.5" cy="229.0576" fill="#84BE84" rx="3" ry="3" style="stroke:#038048;stroke-width:1.0;"/><text fill="#000000" font-family="sans-serif" font-size="14" lengthAdjust="spacing" textLength="137" x="276.5" y="233.3545">setStage(Stage): void</text><ellipse cx="267.5" cy="247.6787" fill="#84BE84" rx="3" ry="3" style="stroke:#038048;stroke-width:1.0;"/><text fill="#000000" font-family="sans-serif" font-size="14" lengthAdjust="spacing" textLength="201" x="276.5" y="251.9756">registerView(VIEWS, View): void</text><ellipse cx="267.5" cy="266.2998" fill="#84BE84" rx="3" ry="3" style="stroke:#038048;stroke-width:1.0;"/><text fill="#000000" font-family="sans-serif" font-size="14" lengthAdjust="spacing" textLength="158" x="276.5" y="270.5967">navigateTo(VIEWS): void</text><ellipse cx="267.5" cy="284.9209" fill="#84BE84" rx="3" ry="3" style="stroke:#038048;stroke-width:1.0;"/><text fill="#000000" font-family="sans-serif" font-size="14" lengthAdjust="spacing" textLength="182" x="276.5" y="289.2178">setFullScreen(boolean): void</text></g><!--class Sprite--><g id="elem_Sprite"><rect codeLine="101" fill="#F1F1F1" height="85.2422" id="Sprite" rx="2.5" ry="2.5" style="stroke:#181818;stroke-width:0.5;" width="89" x="22.5" y="155.7627"/><ellipse cx="46.5" cy="171.7627" fill="#ADD1B2" rx="11" ry="11" style="stroke:#181818;stroke-width:1.0;"/><path d="M49.2656,167.6377 Q49.4219,167.4189 49.6094,167.3096 Q49.7969,167.2002 50.0156,167.2002 Q50.3906,167.2002 50.625,167.4658 Q50.8594,167.7158 50.8594,168.3252 L50.8594,169.7783 Q50.8594,170.3877 50.625,170.6533 Q50.3906,170.9189 50.0156,170.9189 Q49.6719,170.9189 49.4688,170.7158 Q49.2656,170.5283 49.1563,170.0127 Q49.1094,169.6533 48.9219,169.4658 Q48.5938,169.0908 47.9844,168.8721 Q47.375,168.6533 46.75,168.6533 Q45.9844,168.6533 45.3438,168.9814 Q44.7188,169.3096 44.2188,170.0596 Q43.7344,170.8096 43.7344,171.8408 L43.7344,172.9346 Q43.7344,174.1689 44.625,174.9971 Q45.5156,175.8096 47.1094,175.8096 Q48.0469,175.8096 48.7031,175.5596 Q49.0938,175.4033 49.5156,174.9658 Q49.7813,174.7002 49.9219,174.6221 Q50.0781,174.5439 50.2813,174.5439 Q50.6094,174.5439 50.8594,174.8096 Q51.125,175.0596 51.125,175.4033 Q51.125,175.7471 50.7813,176.1533 Q50.2813,176.7314 49.4844,177.0596 Q48.4063,177.5127 47.1094,177.5127 Q45.5938,177.5127 44.3906,176.8877 Q43.4063,176.3877 42.7188,175.3252 Q42.0313,174.2471 42.0313,172.9658 L42.0313,171.8096 Q42.0313,170.4814 42.6406,169.3408 Q43.2656,168.1846 44.3594,167.5752 Q45.4531,166.9502 46.6875,166.9502 Q47.4219,166.9502 48.0625,167.1221 Q48.7188,167.2783 49.2656,167.6377 Z " fill="#000000"/><text fill="#000000" font-family="sans-serif" font-size="14" lengthAdjust="spacing" textLength="37" x="62.5" y="177.5596">Sprite</text><line style="stroke:#181818;stroke-width:0.5;" x1="23.5" x2="110.5" y1="187.7627" y2="187.7627"/><rect fill="none" height="6" style="stroke:#C82930;stroke-width:1.0;" width="6" x="30.5" y="199.5732"/><text fill="#000000" font-family="sans-serif" font-size="14" lengthAdjust="spacing" textLength="57" x="42.5" y="206.8701">String uri</text><line style="stroke:#181818;stroke-width:0.5;" x1="23.5" x2="110.5" y1="214.3838" y2="214.3838"/><ellipse cx="33.5" cy="229.1943" fill="#84BE84" rx="3" ry="3" style="stroke:#038048;stroke-width:1.0;"/><text fill="#000000" font-family="sans-serif" font-size="14" lengthAdjust="spacing" textLength="63" x="42.5" y="233.4912">Sprite(uri)</text></g><!--class HomeViewController--><g id="elem_HomeViewController"><rect codeLine="71" fill="#F1F1F1" height="159.7266" id="HomeViewController" rx="2.5" ry="2.5" style="stroke:#181818;stroke-width:0.5;" width="271" x="242.5" y="648.7627"/><ellipse cx="310.25" cy="664.7627" fill="#ADD1B2" rx="11" ry="11" style="stroke:#181818;stroke-width:1.0;"/><path d="M313.0156,660.6377 Q313.1719,660.4189 313.3594,660.3096 Q313.5469,660.2002 313.7656,660.2002 Q314.1406,660.2002 314.375,660.4658 Q314.6094,660.7158 314.6094,661.3252 L314.6094,662.7783 Q314.6094,663.3877 314.375,663.6533 Q314.1406,663.9189 313.7656,663.9189 Q313.4219,663.9189 313.2188,663.7158 Q313.0156,663.5283 312.9063,663.0127 Q312.8594,662.6533 312.6719,662.4658 Q312.3438,662.0908 311.7344,661.8721 Q311.125,661.6533 310.5,661.6533 Q309.7344,661.6533 309.0938,661.9814 Q308.4688,662.3096 307.9688,663.0596 Q307.4844,663.8096 307.4844,664.8408 L307.4844,665.9346 Q307.4844,667.1689 308.375,667.9971 Q309.2656,668.8096 310.8594,668.8096 Q311.7969,668.8096 312.4531,668.5596 Q312.8438,668.4033 313.2656,667.9658 Q313.5313,667.7002 313.6719,667.6221 Q313.8281,667.5439 314.0313,667.5439 Q314.3594,667.5439 314.6094,667.8096 Q314.875,668.0596 314.875,668.4033 Q314.875,668.7471 314.5313,669.1533 Q314.0313,669.7314 313.2344,670.0596 Q312.1563,670.5127 310.8594,670.5127 Q309.3438,670.5127 308.1406,669.8877 Q307.1563,669.3877 306.4688,668.3252 Q305.7813,667.2471 305.7813,665.9658 L305.7813,664.8096 Q305.7813,663.4814 306.3906,662.3408 Q307.0156,661.1846 308.1094,660.5752 Q309.2031,659.9502 310.4375,659.9502 Q311.1719,659.9502 311.8125,660.1221 Q312.4688,660.2783 313.0156,660.6377 Z " fill="#000000"/><text fill="#000000" font-family="sans-serif" font-size="14" lengthAdjust="spacing" textLength="127" x="330.75" y="670.5596">HomeViewController</text><line style="stroke:#181818;stroke-width:0.5;" x1="243.5" x2="512.5" y1="680.7627" y2="680.7627"/><rect fill="none" height="6" style="stroke:#C82930;stroke-width:1.0;" width="6" x="250.5" y="692.5732"/><text fill="#000000" font-family="sans-serif" font-size="14" lengthAdjust="spacing" textLength="107" x="262.5" y="699.8701">gameTitle: String</text><rect fill="none" height="6" style="stroke:#C82930;stroke-width:1.0;" width="6" x="250.5" y="711.1943"/><text fill="#000000" font-family="sans-serif" font-size="14" lengthAdjust="spacing" textLength="197" x="262.5" y="718.4912">fullScreenCheckBox: CheckBox</text><line style="stroke:#181818;stroke-width:1.0;" x1="243.5" x2="512.5" y1="726.0049" y2="726.0049"/><polygon fill="#FFFF44" points="253.5,735.8154,257.5,739.8154,253.5,743.8154,249.5,739.8154" style="stroke:#B38D22;stroke-width:1.0;"/><text fill="#000000" font-family="sans-serif" font-size="14" lengthAdjust="spacing" textLength="131" x="262.5" y="745.1123">onButtonClick(): void</text><polygon fill="#FFFF44" points="253.5,754.4365,257.5,758.4365,253.5,762.4365,249.5,758.4365" style="stroke:#B38D22;stroke-width:1.0;"/><text fill="#000000" font-family="sans-serif" font-size="14" lengthAdjust="spacing" textLength="172" x="262.5" y="763.7334">onFullScreenToggle(): void</text><ellipse cx="253.5" cy="778.0576" fill="#84BE84" rx="3" ry="3" style="stroke:#038048;stroke-width:1.0;"/><text fill="#000000" font-family="sans-serif" font-size="14" lengthAdjust="spacing" textLength="165" x="262.5" y="782.3545">setGameTitle(String): void</text><ellipse cx="253.5" cy="796.6787" fill="#84BE84" rx="3" ry="3" style="stroke:#038048;stroke-width:1.0;"/><text fill="#000000" font-family="sans-serif" font-size="14" lengthAdjust="spacing" textLength="245" x="262.5" y="800.9756">setFullScreenCheckBox(boolean): void</text></g><!--class GameViewController--><g id="elem_GameViewController"><rect codeLine="81" fill="#F1F1F1" height="85.2422" id="GameViewController" rx="2.5" ry="2.5" style="stroke:#181818;stroke-width:0.5;" width="161" x="46.5" y="686.2627"/><ellipse cx="61.5" cy="702.2627" fill="#ADD1B2" rx="11" ry="11" style="stroke:#181818;stroke-width:1.0;"/><path d="M64.2656,698.1377 Q64.4219,697.9189 64.6094,697.8096 Q64.7969,697.7002 65.0156,697.7002 Q65.3906,697.7002 65.625,697.9658 Q65.8594,698.2158 65.8594,698.8252 L65.8594,700.2783 Q65.8594,700.8877 65.625,701.1533 Q65.3906,701.4189 65.0156,701.4189 Q64.6719,701.4189 64.4688,701.2158 Q64.2656,701.0283 64.1563,700.5127 Q64.1094,700.1533 63.9219,699.9658 Q63.5938,699.5908 62.9844,699.3721 Q62.375,699.1533 61.75,699.1533 Q60.9844,699.1533 60.3438,699.4814 Q59.7188,699.8096 59.2188,700.5596 Q58.7344,701.3096 58.7344,702.3408 L58.7344,703.4346 Q58.7344,704.6689 59.625,705.4971 Q60.5156,706.3096 62.1094,706.3096 Q63.0469,706.3096 63.7031,706.0596 Q64.0938,705.9033 64.5156,705.4658 Q64.7813,705.2002 64.9219,705.1221 Q65.0781,705.0439 65.2813,705.0439 Q65.6094,705.0439 65.8594,705.3096 Q66.125,705.5596 66.125,705.9033 Q66.125,706.2471 65.7813,706.6533 Q65.2813,707.2314 64.4844,707.5596 Q63.4063,708.0127 62.1094,708.0127 Q60.5938,708.0127 59.3906,707.3877 Q58.4063,706.8877 57.7188,705.8252 Q57.0313,704.7471 57.0313,703.4658 L57.0313,702.3096 Q57.0313,700.9814 57.6406,699.8408 Q58.2656,698.6846 59.3594,698.0752 Q60.4531,697.4502 61.6875,697.4502 Q62.4219,697.4502 63.0625,697.6221 Q63.7188,697.7783 64.2656,698.1377 Z " fill="#000000"/><text fill="#000000" font-family="sans-serif" font-size="14" lengthAdjust="spacing" textLength="129" x="75.5" y="708.0596">GameViewController</text><line style="stroke:#181818;stroke-width:0.5;" x1="47.5" x2="206.5" y1="718.2627" y2="718.2627"/><rect fill="none" height="6" style="stroke:#C82930;stroke-width:1.0;" width="6" x="54.5" y="730.0732"/><text fill="#000000" font-family="sans-serif" font-size="14" lengthAdjust="spacing" textLength="101" x="66.5" y="737.3701">canvas: Canvas</text><line style="stroke:#181818;stroke-width:1.0;" x1="47.5" x2="206.5" y1="744.8838" y2="744.8838"/><ellipse cx="57.5" cy="759.6943" fill="#84BE84" rx="3" ry="3" style="stroke:#038048;stroke-width:1.0;"/><text fill="#000000" font-family="sans-serif" font-size="14" lengthAdjust="spacing" textLength="134" x="66.5" y="763.9912">getCanvas(): Canvas</text></g><!--class HomeView--><g id="elem_HomeView"><rect codeLine="87" fill="#F1F1F1" height="103.8633" id="HomeView" rx="2.5" ry="2.5" style="stroke:#181818;stroke-width:0.5;" width="222" x="549" y="676.7627"/><ellipse cx="623.25" cy="692.7627" fill="#ADD1B2" rx="11" ry="11" style="stroke:#181818;stroke-width:1.0;"/><path d="M626.0156,688.6377 Q626.1719,688.4189 626.3594,688.3096 Q626.5469,688.2002 626.7656,688.2002 Q627.1406,688.2002 627.375,688.4658 Q627.6094,688.7158 627.6094,689.3252 L627.6094,690.7783 Q627.6094,691.3877 627.375,691.6533 Q627.1406,691.9189 626.7656,691.9189 Q626.4219,691.9189 626.2188,691.7158 Q626.0156,691.5283 625.9063,691.0127 Q625.8594,690.6533 625.6719,690.4658 Q625.3438,690.0908 624.7344,689.8721 Q624.125,689.6533 623.5,689.6533 Q622.7344,689.6533 622.0938,689.9814 Q621.4688,690.3096 620.9688,691.0596 Q620.4844,691.8096 620.4844,692.8408 L620.4844,693.9346 Q620.4844,695.1689 621.375,695.9971 Q622.2656,696.8096 623.8594,696.8096 Q624.7969,696.8096 625.4531,696.5596 Q625.8438,696.4033 626.2656,695.9658 Q626.5313,695.7002 626.6719,695.6221 Q626.8281,695.5439 627.0313,695.5439 Q627.3594,695.5439 627.6094,695.8096 Q627.875,696.0596 627.875,696.4033 Q627.875,696.7471 627.5313,697.1533 Q627.0313,697.7314 626.2344,698.0596 Q625.1563,698.5127 623.8594,698.5127 Q622.3438,698.5127 621.1406,697.8877 Q620.1563,697.3877 619.4688,696.3252 Q618.7813,695.2471 618.7813,693.9658 L618.7813,692.8096 Q618.7813,691.4814 619.3906,690.3408 Q620.0156,689.1846 621.1094,688.5752 Q622.2031,687.9502 623.4375,687.9502 Q624.1719,687.9502 624.8125,688.1221 Q625.4688,688.2783 626.0156,688.6377 Z " fill="#000000"/><text fill="#000000" font-family="sans-serif" font-size="14" lengthAdjust="spacing" textLength="65" x="643.75" y="698.5596">HomeView</text><line style="stroke:#181818;stroke-width:0.5;" x1="550" x2="770" y1="708.7627" y2="708.7627"/><line style="stroke:#181818;stroke-width:0.5;" x1="550" x2="770" y1="716.7627" y2="716.7627"/><ellipse cx="560" cy="731.5732" fill="#84BE84" rx="3" ry="3" style="stroke:#038048;stroke-width:1.0;"/><text fill="#000000" font-family="sans-serif" font-size="14" lengthAdjust="spacing" textLength="75" x="569" y="735.8701">HomeView()</text><ellipse cx="560" cy="750.1943" fill="#84BE84" rx="3" ry="3" style="stroke:#038048;stroke-width:1.0;"/><text fill="#000000" font-family="sans-serif" font-size="14" lengthAdjust="spacing" textLength="107" x="569" y="754.4912">onViewInit(): void</text><ellipse cx="560" cy="768.8154" fill="#84BE84" rx="3" ry="3" style="stroke:#038048;stroke-width:1.0;"/><text fill="#000000" font-family="sans-serif" font-size="14" lengthAdjust="spacing" textLength="196" x="569" y="773.1123">onKeyPressed(KeyEvent): void</text></g><!--class GameView--><g id="elem_GameView"><rect codeLine="93" fill="#F1F1F1" height="122.4844" id="GameView" rx="2.5" ry="2.5" style="stroke:#181818;stroke-width:0.5;" width="205" x="806.5" y="667.7627"/><ellipse cx="871.25" cy="683.7627" fill="#ADD1B2" rx="11" ry="11" style="stroke:#181818;stroke-width:1.0;"/><path d="M874.0156,679.6377 Q874.1719,679.4189 874.3594,679.3096 Q874.5469,679.2002 874.7656,679.2002 Q875.1406,679.2002 875.375,679.4658 Q875.6094,679.7158 875.6094,680.3252 L875.6094,681.7783 Q875.6094,682.3877 875.375,682.6533 Q875.1406,682.9189 874.7656,682.9189 Q874.4219,682.9189 874.2188,682.7158 Q874.0156,682.5283 873.9063,682.0127 Q873.8594,681.6533 873.6719,681.4658 Q873.3438,681.0908 872.7344,680.8721 Q872.125,680.6533 871.5,680.6533 Q870.7344,680.6533 870.0938,680.9814 Q869.4688,681.3096 868.9688,682.0596 Q868.4844,682.8096 868.4844,683.8408 L868.4844,684.9346 Q868.4844,686.1689 869.375,686.9971 Q870.2656,687.8096 871.8594,687.8096 Q872.7969,687.8096 873.4531,687.5596 Q873.8438,687.4033 874.2656,686.9658 Q874.5313,686.7002 874.6719,686.6221 Q874.8281,686.5439 875.0313,686.5439 Q875.3594,686.5439 875.6094,686.8096 Q875.875,687.0596 875.875,687.4033 Q875.875,687.7471 875.5313,688.1533 Q875.0313,688.7314 874.2344,689.0596 Q873.1563,689.5127 871.8594,689.5127 Q870.3438,689.5127 869.1406,688.8877 Q868.1563,688.3877 867.4688,687.3252 Q866.7813,686.2471 866.7813,684.9658 L866.7813,683.8096 Q866.7813,682.4814 867.3906,681.3408 Q868.0156,680.1846 869.1094,679.5752 Q870.2031,678.9502 871.4375,678.9502 Q872.1719,678.9502 872.8125,679.1221 Q873.4688,679.2783 874.0156,679.6377 Z " fill="#000000"/><text fill="#000000" font-family="sans-serif" font-size="14" lengthAdjust="spacing" textLength="67" x="891.75" y="689.5596">GameView</text><line style="stroke:#181818;stroke-width:0.5;" x1="807.5" x2="1010.5" y1="699.7627" y2="699.7627"/><line style="stroke:#181818;stroke-width:0.5;" x1="807.5" x2="1010.5" y1="707.7627" y2="707.7627"/><ellipse cx="817.5" cy="722.5732" fill="#84BE84" rx="3" ry="3" style="stroke:#038048;stroke-width:1.0;"/><text fill="#000000" font-family="sans-serif" font-size="14" lengthAdjust="spacing" textLength="77" x="826.5" y="726.8701">GameView()</text><ellipse cx="817.5" cy="741.1943" fill="#84BE84" rx="3" ry="3" style="stroke:#038048;stroke-width:1.0;"/><text fill="#000000" font-family="sans-serif" font-size="14" lengthAdjust="spacing" textLength="151" x="826.5" y="745.4912">onViewDisplayed(): void</text><rect fill="#F24D5C" height="6" style="stroke:#C82930;stroke-width:1.0;" width="6" x="814.5" y="756.8154"/><text fill="#000000" font-family="sans-serif" font-size="14" lengthAdjust="spacing" textLength="179" x="826.5" y="764.1123">draw(Canvas, Number): void</text><ellipse cx="817.5" cy="778.4365" fill="#84BE84" rx="3" ry="3" style="stroke:#038048;stroke-width:1.0;"/><text fill="#000000" font-family="sans-serif" font-size="14" lengthAdjust="spacing" textLength="86" x="826.5" y="782.7334">render(): void</text></g><!--class GUIController--><g id="elem_GUIController"><rect codeLine="107" fill="#F1F1F1" height="66.6211" id="GUIController" rx="2.5" ry="2.5" style="stroke:#181818;stroke-width:0.5;" width="141" x="855.5" y="1154.7627"/><ellipse cx="881.3" cy="1170.7627" fill="#ADD1B2" rx="11" ry="11" style="stroke:#181818;stroke-width:1.0;"/><path d="M884.0656,1166.6377 Q884.2219,1166.4189 884.4094,1166.3096 Q884.5969,1166.2002 884.8156,1166.2002 Q885.1906,1166.2002 885.425,1166.4658 Q885.6594,1166.7158 885.6594,1167.3252 L885.6594,1168.7783 Q885.6594,1169.3877 885.425,1169.6533 Q885.1906,1169.9189 884.8156,1169.9189 Q884.4719,1169.9189 884.2688,1169.7158 Q884.0656,1169.5283 883.9563,1169.0127 Q883.9094,1168.6533 883.7219,1168.4658 Q883.3938,1168.0908 882.7844,1167.8721 Q882.175,1167.6533 881.55,1167.6533 Q880.7844,1167.6533 880.1438,1167.9814 Q879.5188,1168.3096 879.0188,1169.0596 Q878.5344,1169.8096 878.5344,1170.8408 L878.5344,1171.9346 Q878.5344,1173.1689 879.425,1173.9971 Q880.3156,1174.8096 881.9094,1174.8096 Q882.8469,1174.8096 883.5031,1174.5596 Q883.8938,1174.4033 884.3156,1173.9658 Q884.5813,1173.7002 884.7219,1173.6221 Q884.8781,1173.5439 885.0813,1173.5439 Q885.4094,1173.5439 885.6594,1173.8096 Q885.925,1174.0596 885.925,1174.4033 Q885.925,1174.7471 885.5813,1175.1533 Q885.0813,1175.7314 884.2844,1176.0596 Q883.2063,1176.5127 881.9094,1176.5127 Q880.3938,1176.5127 879.1906,1175.8877 Q878.2063,1175.3877 877.5188,1174.3252 Q876.8313,1173.2471 876.8313,1171.9658 L876.8313,1170.8096 Q876.8313,1169.4814 877.4406,1168.3408 Q878.0656,1167.1846 879.1594,1166.5752 Q880.2531,1165.9502 881.4875,1165.9502 Q882.2219,1165.9502 882.8625,1166.1221 Q883.5188,1166.2783 884.0656,1166.6377 Z " fill="#000000"/><text fill="#000000" font-family="sans-serif" font-size="14" lengthAdjust="spacing" textLength="85" x="897.7" y="1176.5596">GUIController</text><line style="stroke:#181818;stroke-width:0.5;" x1="856.5" x2="995.5" y1="1186.7627" y2="1186.7627"/><line style="stroke:#181818;stroke-width:0.5;" x1="856.5" x2="995.5" y1="1194.7627" y2="1194.7627"/><ellipse cx="866.5" cy="1209.5732" fill="#84BE84" rx="3" ry="3" style="stroke:#038048;stroke-width:1.0;"/><text fill="#000000" font-family="sans-serif" font-size="14" lengthAdjust="spacing" textLength="115" x="875.5" y="1213.8701">update(long): void</text></g><!--class GUIEngine--><g id="elem_GUIEngine"><rect codeLine="111" fill="#F1F1F1" height="159.7266" id="GUIEngine" rx="2.5" ry="2.5" style="stroke:#181818;stroke-width:0.5;" width="171" x="840.5" y="933.7627"/><ellipse cx="888.25" cy="949.7627" fill="#ADD1B2" rx="11" ry="11" style="stroke:#181818;stroke-width:1.0;"/><path d="M891.0156,945.6377 Q891.1719,945.4189 891.3594,945.3096 Q891.5469,945.2002 891.7656,945.2002 Q892.1406,945.2002 892.375,945.4658 Q892.6094,945.7158 892.6094,946.3252 L892.6094,947.7783 Q892.6094,948.3877 892.375,948.6533 Q892.1406,948.9189 891.7656,948.9189 Q891.4219,948.9189 891.2188,948.7158 Q891.0156,948.5283 890.9063,948.0127 Q890.8594,947.6533 890.6719,947.4658 Q890.3438,947.0908 889.7344,946.8721 Q889.125,946.6533 888.5,946.6533 Q887.7344,946.6533 887.0938,946.9814 Q886.4688,947.3096 885.9688,948.0596 Q885.4844,948.8096 885.4844,949.8408 L885.4844,950.9346 Q885.4844,952.1689 886.375,952.9971 Q887.2656,953.8096 888.8594,953.8096 Q889.7969,953.8096 890.4531,953.5596 Q890.8438,953.4033 891.2656,952.9658 Q891.5313,952.7002 891.6719,952.6221 Q891.8281,952.5439 892.0313,952.5439 Q892.3594,952.5439 892.6094,952.8096 Q892.875,953.0596 892.875,953.4033 Q892.875,953.7471 892.5313,954.1533 Q892.0313,954.7314 891.2344,955.0596 Q890.1563,955.5127 888.8594,955.5127 Q887.3438,955.5127 886.1406,954.8877 Q885.1563,954.3877 884.4688,953.3252 Q883.7813,952.2471 883.7813,950.9658 L883.7813,949.8096 Q883.7813,948.4814 884.3906,947.3408 Q885.0156,946.1846 886.1094,945.5752 Q887.2031,944.9502 888.4375,944.9502 Q889.1719,944.9502 889.8125,945.1221 Q890.4688,945.2783 891.0156,945.6377 Z " fill="#000000"/><text fill="#000000" font-family="sans-serif" font-size="14" lengthAdjust="spacing" textLength="67" x="908.75" y="955.5596">GUIEngine</text><line style="stroke:#181818;stroke-width:0.5;" x1="841.5" x2="1010.5" y1="965.7627" y2="965.7627"/><rect fill="none" height="6" style="stroke:#C82930;stroke-width:1.0;" width="6" x="848.5" y="977.5732"/><text fill="#000000" font-family="sans-serif" font-size="14" lengthAdjust="spacing" textLength="133" x="860.5" y="984.8701">AnimationTimer timer</text><line style="stroke:#181818;stroke-width:1.0;" x1="841.5" x2="1010.5" y1="992.3838" y2="992.3838"/><ellipse cx="851.5" cy="1007.1943" fill="#84BE84" rx="3" ry="3" style="stroke:#038048;stroke-width:1.0;"/><text fill="#000000" font-family="sans-serif" font-size="14" lengthAdjust="spacing" textLength="92" x="860.5" y="1011.4912">tick(long): void</text><ellipse cx="851.5" cy="1025.8154" fill="#84BE84" rx="3" ry="3" style="stroke:#038048;stroke-width:1.0;"/><text fill="#000000" font-family="sans-serif" font-size="14" lengthAdjust="spacing" textLength="72" x="860.5" y="1030.1123">start(): void</text><ellipse cx="851.5" cy="1044.4365" fill="#84BE84" rx="3" ry="3" style="stroke:#038048;stroke-width:1.0;"/><text fill="#000000" font-family="sans-serif" font-size="14" lengthAdjust="spacing" textLength="71" x="860.5" y="1048.7334">stop(): void</text><ellipse cx="851.5" cy="1063.0576" fill="#84BE84" rx="3" ry="3" style="stroke:#038048;stroke-width:1.0;"/><text fill="#000000" font-family="sans-serif" font-size="14" lengthAdjust="spacing" textLength="145" x="860.5" y="1067.3545">getComputedFPS(): int</text><ellipse cx="851.5" cy="1081.6787" fill="#84BE84" rx="3" ry="3" style="stroke:#038048;stroke-width:1.0;"/><text fill="#000000" font-family="sans-serif" font-size="14" lengthAdjust="spacing" textLength="80" x="860.5" y="1085.9756">getFPS(): int</text></g><!--link GameInterface to Engine--><g id="link_GameInterface_Engine"><path codeLine="124" d="M1218.05,480.7627 C1236.7,480.7627 1257.36,480.7627 1276.89,480.7627 " fill="none" id="GameInterface-Engine" style="stroke:#181818;stroke-width:1.0;"/><polygon fill="none" points="1241.5,463.9082,1245.5,467.9082,1241.5,471.9082,1237.5,467.9082" style="stroke:#B38D22;stroke-width:1.0;"/><text fill="#000000" font-family="sans-serif" font-size="13" lengthAdjust="spacing" textLength="10" x="1248.5" y="473.791">ui</text><text fill="#000000" font-family="sans-serif" font-size="13" lengthAdjust="spacing" textLength="7" x="1226.1608" y="476.7959">1</text></g><!--link Engine to GameController--><g id="link_Engine_GameController"><path codeLine="125" d="M1435.07,480.7627 C1467.69,480.7627 1505.18,480.7627 1536.81,480.7627 " fill="none" id="Engine-GameController" style="stroke:#181818;stroke-width:1.0;"/><polygon fill="none" points="1458.5,463.9082,1462.5,467.9082,1458.5,471.9082,1454.5,467.9082" style="stroke:#B38D22;stroke-width:1.0;"/><text fill="#000000" font-family="sans-serif" font-size="13" lengthAdjust="spacing" textLength="53" x="1465.5" y="473.791">controller</text><text fill="#000000" font-family="sans-serif" font-size="13" lengthAdjust="spacing" textLength="7" x="1522.2107" y="476.917">1</text></g><!--link CLIController to GameController--><g id="link_CLIController_GameController"><path codeLine="128" d="M1537.49,250.3827 C1553.82,304.2727 1574.0103,370.8961 1589.1603,420.8961 " fill="none" id="CLIController-to-GameController" style="stroke:#181818;stroke-width:1.0;"/><polygon fill="none" points="1594.38,438.1227,1594.9025,419.1562,1583.4182,422.636,1594.38,438.1227" style="stroke:#181818;stroke-width:1.0;"/></g><!--link CLIEngine to Engine--><g id="link_CLIEngine_Engine"><path codeLine="129" d="M1356.82,250.3827 C1356.65,298.1027 1356.4543,351.3328 1356.2743,401.7328 " fill="none" id="CLIEngine-to-Engine" style="stroke:#181818;stroke-width:1.0;"/><polygon fill="none" points="1356.21,419.7327,1362.2742,401.7542,1350.2743,401.7114,1356.21,419.7327" style="stroke:#181818;stroke-width:1.0;"/></g><!--link CLI to GameInterface--><g id="link_CLI_GameInterface"><path codeLine="130" d="M1155,231.9927 C1155,286.0427 1155,375.3327 1155,429.2427 " fill="none" id="CLI-to-GameInterface" style="stroke:#181818;stroke-width:1.0;stroke-dasharray:7.0,7.0;"/><polygon fill="none" points="1155,447.2427,1161,429.2427,1149,429.2427,1155,447.2427" style="stroke:#181818;stroke-width:1.0;"/></g><!--link CLI to CLIController--><g id="link_CLI_CLIController"><path codeLine="131" d="M1171.58,164.7427 C1191.76,128.2127 1229.59,71.7727 1281,47.7627 C1342.61,18.9927 1375.02,13.9227 1434,47.7627 C1470.62,68.7727 1493.46,111.5727 1506.67,146.1827 " fill="none" id="CLI-CLIController" style="stroke:#181818;stroke-width:1.0;"/><rect fill="none" height="6" style="stroke:#C82930;stroke-width:1.0;" width="6" x="1300.5" y="13.9082"/><text fill="#000000" font-family="sans-serif" font-size="13" lengthAdjust="spacing" textLength="53" x="1310.5" y="21.791">controller</text><text fill="#000000" font-family="sans-serif" font-size="13" lengthAdjust="spacing" textLength="7" x="1497.1397" y="135.0993">1</text></g><!--link CLI to CLIEngine--><g id="link_CLI_CLIEngine"><path codeLine="132" d="M1211,198.2627 C1237.97,198.2627 1270.32,198.2627 1297.71,198.2627 " fill="none" id="CLI-CLIEngine" style="stroke:#181818;stroke-width:1.0;"/><rect fill="none" height="6" style="stroke:#C82930;stroke-width:1.0;" width="6" x="1231.5" y="183.4082"/><text fill="#000000" font-family="sans-serif" font-size="13" lengthAdjust="spacing" textLength="38" x="1241.5" y="191.291">engine</text><text fill="#000000" font-family="sans-serif" font-size="13" lengthAdjust="spacing" textLength="7" x="1283.0575" y="194.2811">1</text></g><!--reverse link GameController to GUIController--><g id="link_GameController_GUIController"><path codeLine="135" d="M1557.4694,537.0127 C1466.9394,637.6127 1240.32,886.5727 1029,1093.7627 C1007.79,1114.5627 983.18,1136.9527 963.34,1154.6127 " fill="none" id="GameController-backto-GUIController" style="stroke:#181818;stroke-width:1.0;"/><polygon fill="none" points="1569.51,523.6327,1553.0094,532.9991,1561.9294,541.0262,1569.51,523.6327" style="stroke:#181818;stroke-width:1.0;"/></g><!--reverse link Engine to GUIEngine--><g id="link_Engine_GUIEngine"><path codeLine="136" d="M1295.9719,555.8911 C1218.1319,652.0111 1076.98,826.3127 990.29,933.3727 " fill="none" id="Engine-backto-GUIEngine" style="stroke:#181818;stroke-width:1.0;"/><polygon fill="none" points="1307.3,541.9027,1291.3091,552.115,1300.6347,559.6671,1307.3,541.9027" style="stroke:#181818;stroke-width:1.0;"/></g><!--reverse link GameInterface to GameView--><g id="link_GameInterface_GameView"><path codeLine="137" d="M1109.6021,527.1606 C1070.6621,566.1006 1017.51,619.2527 969.24,667.5227 " fill="none" id="GameInterface-backto-GameView" style="stroke:#181818;stroke-width:1.0;stroke-dasharray:7.0,7.0;"/><polygon fill="none" points="1122.33,514.4327,1105.3594,522.918,1113.8447,531.4033,1122.33,514.4327" style="stroke:#181818;stroke-width:1.0;"/></g><!--link GameView to GUIController--><g id="link_GameView_GUIController"><path codeLine="138" d="M837.29,789.8027 C799.8,821.9927 760.71,857.1827 756,867.7627 C715.18,959.5427 704.88,1007.3027 756,1093.7627 C777.52,1130.1527 818.79,1153.3327 855.28,1167.5127 " fill="none" id="GameView-GUIController" style="stroke:#181818;stroke-width:1.0;"/><rect fill="none" height="6" style="stroke:#C82930;stroke-width:1.0;" width="6" x="759" y="1011.4082"/><text fill="#000000" font-family="sans-serif" font-size="13" lengthAdjust="spacing" textLength="53" x="769" y="1019.291">controller</text><text fill="#000000" font-family="sans-serif" font-size="13" lengthAdjust="spacing" textLength="7" x="840.6261" y="1161.5592">1</text></g><!--link GameView to GUIEngine--><g id="link_GameView_GUIEngine"><path codeLine="139" d="M912.61,789.7827 C915.12,831.7227 918.51,888.1527 921.25,933.7527 " fill="none" id="GameView-GUIEngine" style="stroke:#181818;stroke-width:1.0;"/><rect fill="none" height="6" style="stroke:#C82930;stroke-width:1.0;" width="6" x="920" y="847.9082"/><text fill="#000000" font-family="sans-serif" font-size="13" lengthAdjust="spacing" textLength="38" x="930" y="855.791">engine</text><text fill="#000000" font-family="sans-serif" font-size="13" lengthAdjust="spacing" textLength="7" x="913.4637" y="922.3718">1</text></g><!--link GUIEngine to GUIController--><!--link View to ViewController--><g id="link_View_ViewController"><path codeLine="142" d="M583.49,287.6327 C520.29,346.7227 441.78,420.1227 402.62,456.7427 " fill="none" id="View-ViewController" style="stroke:#181818;stroke-width:1.0;"/><polygon fill="none" points="543,331.9082,547,335.9082,543,339.9082,539,335.9082" style="stroke:#B38D22;stroke-width:1.0;"/><text fill="#000000" font-family="sans-serif" font-size="13" lengthAdjust="spacing" textLength="53" x="550" y="341.791">controller</text><text fill="#000000" font-family="sans-serif" font-size="13" lengthAdjust="spacing" textLength="7" x="401.032" y="445.4751">1</text></g><!--link ViewManager to View--><g id="link_ViewManager_View"><path codeLine="143" d="M483.81,198.2627 C509.6,198.2627 537.01,198.2627 562.85,198.2627 " fill="none" id="ViewManager-View" style="stroke:#181818;stroke-width:1.0;"/><rect fill="none" height="6" style="stroke:#C82930;stroke-width:1.0;" width="6" x="503.75" y="183.4082"/><text fill="#000000" font-family="sans-serif" font-size="13" lengthAdjust="spacing" textLength="31" x="513.75" y="191.291">views</text><text fill="#000000" font-family="sans-serif" font-size="13" lengthAdjust="spacing" textLength="5" x="549.9454" y="194.718">*</text></g><!--reverse link ViewController to HomeViewController--><g id="link_ViewController_HomeViewController"><path codeLine="146" d="M378,522.9027 C378,555.5627 378,598.7527 378,648.7627 " fill="none" id="ViewController-backto-HomeViewController" style="stroke:#181818;stroke-width:1.0;"/><polygon fill="none" points="378,504.9027,372,522.9027,384,522.9027,378,504.9027" style="stroke:#181818;stroke-width:1.0;"/></g><!--reverse link View to HomeView--><g id="link_View_HomeView"><path codeLine="147" d="M674.3875,305.4123 C670.5975,416.7223 664.81,586.5327 661.74,676.5927 " fill="none" id="View-backto-HomeView" style="stroke:#181818;stroke-width:1.0;"/><polygon fill="none" points="675,287.4227,668.3909,305.2081,680.384,305.6164,675,287.4227" style="stroke:#181818;stroke-width:1.0;"/></g><!--reverse link ViewController to GameViewController--><g id="link_ViewController_GameViewController"><path codeLine="148" d="M317.774,513.7415 C285.314,532.0115 257.24,550.8627 225,582.7627 C194,613.4227 166.96,655.2727 149.18,686.1327 " fill="none" id="ViewController-backto-GameViewController" style="stroke:#181818;stroke-width:1.0;"/><polygon fill="none" points="333.46,504.9127,314.831,508.5128,320.7169,518.9702,333.46,504.9127" style="stroke:#181818;stroke-width:1.0;"/></g><!--reverse link View to GameView--><g id="link_View_GameView"><path codeLine="149" d="M723.7391,303.916 C770.8491,411.696 842.11,574.7127 882.77,667.7527 " fill="none" id="View-backto-GameView" style="stroke:#181818;stroke-width:1.0;"/><polygon fill="none" points="716.53,287.4227,718.2414,306.319,729.2369,301.5129,716.53,287.4227" style="stroke:#181818;stroke-width:1.0;"/></g><!--SRC=[bLP1Jzim5BxdLrXmM1W4QTSU9a5NeDhOq5hOOTh198zWaTgHuvGXrl- -vzXndCGfeeSqpllix_FdPp-ND7sYEH3WEUD0NYE2FtfVAKbJHTA2LXMvf1kO2wwaA0gG5gD_X-HQy0p8HZ_TroHnhyVajHrhH-eoemhYGl3yQ4QsWcKDRXU5E1U-7ZEK-HJNx8IaJirHcAjILAhOfmb0HBaVeLZwD2MNSGNoWQRGkBDqBL-m1BH5nltUsB-qdgS5itWpv_ctPT3cuydfJCnXlzEEBE3nEudsEUHetkL9NhDm4junUEwbtWt5iHIHGgXmwkMWVc9GSnci5mDExmlGuSKM8rLWRe9hoYLdQZBuXLLbGLyW2oA-mikDXAh2CBusF1Emdr00dSA5zuUczvF5ee3N6tAtNFnQULvT_RXUkCRbcMtqbaaFTqqvhe2VU0bvnOJ0HTvXlkCRJs7cGpqWHdCChlHVQ3aIlr_SsxKj1QxNqh9eFqCyc8YW6ewuUOxzb92p2ZUZxXqtHfmq8usHd6vPZjjaBGmkaFIWBkgYMAKIWCVtGk0gyS3IjBcxHPxAiyzOUoKsC5mj1p7Mv7Y4h9ag6WCbu_aW_k1Kp1yXVJeNVsUaVUj3arxp4DFhl5PAy7cXT-fmYYscc-LQv7a1GM3ZnsMhD3P29u4N8yaX0pqJEyCqnnk6fPHlQOKcDF_xB6YE0GFJinfq676tYpLWF7O1BtNVF2RUSH1CcZ0IqWOcX4mVISQvJDBdsBXmGhxNctiieK7PWOFQ21sT7QjICWMzOyCa1wabyxQJmSNuyIYqUs1OZQmHjyl9H9YiT65BRySLpyWzuso3Pv3WQxP14gMV-vCgMFZUAgDxIccNgc9JrWgoYvkL1Z6lQZbC8BRhAka7wsHa9viKyA2IWqy7WvlA3BT-pHnAilonWtcMQrnttzBZuxqbwjzLaamyy-JVvq7VgBjaE8HfwmWvrTzERIydh0bvSlfCCxtxUmG3hENJEEi3AiPRHTHFfAGk0tgx5B5ngzRjnjEw70jsqSJuTxj7y1Wx5kofq0xzVcHP1lnFqXyvYhnn1kVbOCtywfuSV3JmXh4fMTOXsmZKAsj6_wi3-k4eS7Y7UtT6UBt_0m00]--></g></svg>