<?xml version="1.0" encoding="us-ascii" standalone="no"?><svg xmlns="http://www.w3.org/2000/svg" xmlns:xlink="http://www.w3.org/1999/xlink" contentStyleType="text/css" height="782px" preserveAspectRatio="none" style="width:1089px;height:782px;background:#FFFFFF;" version="1.1" viewBox="0 0 1089 782" width="1089px" zoomAndPan="magnify"><defs/><g><!--cluster Escape--><g id="cluster_Escape"><path d="M8.5,6 L60.5,6 A3.75,3.75 0 0 1 63,8.5 L70,29.6094 L1079.5,29.6094 A2.5,2.5 0 0 1 1082,32.1094 L1082,772.5 A2.5,2.5 0 0 1 1079.5,775 L8.5,775 A2.5,2.5 0 0 1 6,772.5 L6,8.5 A2.5,2.5 0 0 1 8.5,6 " fill="none" style="stroke:#000000;stroke-width:1.5;"/><line style="stroke:#000000;stroke-width:1.5;" x1="6" x2="70" y1="29.6094" y2="29.6094"/><text fill="#000000" font-family="sans-serif" font-size="14" font-weight="bold" lengthAdjust="spacing" textLength="51" x="10" y="22.5332">Escape</text></g><!--cluster Outils--><g id="cluster_Outils"><path d="M32.5,50 L74.5,50 A3.75,3.75 0 0 1 77,52.5 L84,73.6094 L1055.5,73.6094 A2.5,2.5 0 0 1 1058,76.1094 L1058,748.5 A2.5,2.5 0 0 1 1055.5,751 L32.5,751 A2.5,2.5 0 0 1 30,748.5 L30,52.5 A2.5,2.5 0 0 1 32.5,50 " fill="none" style="stroke:#000000;stroke-width:1.5;"/><line style="stroke:#000000;stroke-width:1.5;" x1="30" x2="84" y1="73.6094" y2="73.6094"/><text fill="#000000" font-family="sans-serif" font-size="14" font-weight="bold" lengthAdjust="spacing" textLength="41" x="34" y="66.5332">Outils</text></g><!--class Donnees--><g id="elem_Donnees"><rect codeLine="3" fill="#F1F1F1" height="149.6563" id="Donnees" rx="2.5" ry="2.5" style="stroke:#181818;stroke-width:0.5;" width="266" x="46" y="123"/><ellipse cx="146.25" cy="139" fill="#ADD1B2" rx="11" ry="11" style="stroke:#181818;stroke-width:1.0;"/><path d="M148.25,135.5 Q148.4531,135 148.6875,134.75 Q148.9219,134.5 149.1875,134.5 Q149.6563,134.5 149.9531,134.7813 Q150.25,135.0625 150.25,135.7188 L150.25,137.2813 Q150.25,137.9375 149.9688,138.2188 Q149.6875,138.5 149.25,138.5 Q148.8594,138.5 148.6094,138.3281 Q148.3594,138.1563 148.25,137.7031 Q148.2031,137.3906 148.0313,137.2188 Q147.7188,136.8906 147.1563,136.7031 Q146.5938,136.5 146.0313,136.5 Q145.3281,136.5 144.7344,136.7813 Q144.1563,137.0625 143.7031,137.6875 Q143.25,138.3125 143.25,139.1719 L143.25,140.0938 Q143.25,141.125 144.0938,141.8125 Q144.9375,142.5 146.4375,142.5 Q147.3281,142.5 147.9531,142.2969 Q148.3125,142.1875 148.7188,141.8281 Q148.9844,141.625 149.125,141.5625 Q149.2656,141.5 149.4375,141.5 Q149.7656,141.5 150,141.7656 Q150.25,142.0156 150.25,142.375 Q150.25,142.7188 149.9063,143.125 Q149.4063,143.7188 148.6094,144.0469 Q147.5625,144.5 146.2813,144.5 Q144.7813,144.5 143.5781,143.9063 Q142.6094,143.4375 141.9219,142.4219 Q141.25,141.4063 141.25,140.2031 L141.25,139.1094 Q141.25,137.8594 141.8438,136.7656 Q142.4531,135.6719 143.5,135.0938 Q144.5625,134.5 145.75,134.5 Q146.4688,134.5 147.0938,134.75 Q147.7188,135 148.25,135.5 Z " fill="#000000"/><text fill="#000000" font-family="sans-serif" font-size="14" lengthAdjust="spacing" textLength="57" x="166.75" y="144.7285">Donnees</text><line style="stroke:#181818;stroke-width:0.5;" x1="47" x2="311" y1="155" y2="155"/><ellipse cx="57" cy="169.3047" fill="none" rx="3" ry="3" style="stroke:#038048;stroke-width:1.0;"/><text fill="#000000" font-family="sans-serif" font-size="14" lengthAdjust="spacing" text-decoration="underline" textLength="170" x="66" y="173.5332">String APPDATA_FOLDER</text><ellipse cx="57" cy="186.9141" fill="none" rx="3" ry="3" style="stroke:#038048;stroke-width:1.0;"/><text fill="#000000" font-family="sans-serif" font-size="14" lengthAdjust="spacing" text-decoration="underline" textLength="103" x="66" y="191.1426">boolean DEBUG</text><ellipse cx="57" cy="204.5234" fill="none" rx="3" ry="3" style="stroke:#038048;stroke-width:1.0;"/><text fill="#000000" font-family="sans-serif" font-size="14" lengthAdjust="spacing" text-decoration="underline" textLength="240" x="66" y="208.752">Set&lt;Locale&gt; SUPPORTED_LOCALES</text><text fill="#000000" font-family="sans-serif" font-size="14" lengthAdjust="spacing" textLength="12" x="66" y="226.3613">...</text><rect fill="#F24D5C" height="6" style="stroke:#C82930;stroke-width:1.0;" width="6" x="54" y="258.3516"/><text fill="#000000" font-family="sans-serif" font-size="14" lengthAdjust="spacing" textLength="67" x="66" y="265.5801">Donnees()</text><line style="stroke:#181818;stroke-width:1.0;stroke-dasharray:1.0,2.0;" x1="47" x2="138" y1="242.2422" y2="242.2422"/><text fill="#000000" font-family="sans-serif" font-size="14" lengthAdjust="spacing" textLength="82" x="138" y="247.4707">Constructeur</text><line style="stroke:#181818;stroke-width:1.0;stroke-dasharray:1.0,2.0;" x1="220" x2="311" y1="242.2422" y2="242.2422"/></g><!--class Resources--><g id="elem_Resources"><rect codeLine="12" fill="#F1F1F1" height="224.0938" id="Resources" rx="2.5" ry="2.5" style="stroke:#181818;stroke-width:0.5;" width="279" x="347.5" y="86"/><ellipse cx="448.75" cy="102" fill="#ADD1B2" rx="11" ry="11" style="stroke:#181818;stroke-width:1.0;"/><path d="M450.75,98.5 Q450.9531,98 451.1875,97.75 Q451.4219,97.5 451.6875,97.5 Q452.1563,97.5 452.4531,97.7813 Q452.75,98.0625 452.75,98.7188 L452.75,100.2813 Q452.75,100.9375 452.4688,101.2188 Q452.1875,101.5 451.75,101.5 Q451.3594,101.5 451.1094,101.3281 Q450.8594,101.1563 450.75,100.7031 Q450.7031,100.3906 450.5313,100.2188 Q450.2188,99.8906 449.6563,99.7031 Q449.0938,99.5 448.5313,99.5 Q447.8281,99.5 447.2344,99.7813 Q446.6563,100.0625 446.2031,100.6875 Q445.75,101.3125 445.75,102.1719 L445.75,103.0938 Q445.75,104.125 446.5938,104.8125 Q447.4375,105.5 448.9375,105.5 Q449.8281,105.5 450.4531,105.2969 Q450.8125,105.1875 451.2188,104.8281 Q451.4844,104.625 451.625,104.5625 Q451.7656,104.5 451.9375,104.5 Q452.2656,104.5 452.5,104.7656 Q452.75,105.0156 452.75,105.375 Q452.75,105.7188 452.4063,106.125 Q451.9063,106.7188 451.1094,107.0469 Q450.0625,107.5 448.7813,107.5 Q447.2813,107.5 446.0781,106.9063 Q445.1094,106.4375 444.4219,105.4219 Q443.75,104.4063 443.75,103.2031 L443.75,102.1094 Q443.75,100.8594 444.3438,99.7656 Q444.9531,98.6719 446,98.0938 Q447.0625,97.5 448.25,97.5 Q448.9688,97.5 449.5938,97.75 Q450.2188,98 450.75,98.5 Z " fill="#000000"/><text fill="#000000" font-family="sans-serif" font-size="14" lengthAdjust="spacing" textLength="68" x="469.25" y="107.7285">Resources</text><line style="stroke:#181818;stroke-width:0.5;" x1="348.5" x2="625.5" y1="118" y2="118"/><rect fill="none" height="6" style="stroke:#C82930;stroke-width:1.0;" width="6" x="355.5" y="129.3047"/><text fill="#000000" font-family="sans-serif" font-size="14" lengthAdjust="spacing" text-decoration="underline" textLength="171" x="367.5" y="136.5332">Map&lt;String, Image&gt; assets</text><rect fill="#F24D5C" height="6" style="stroke:#C82930;stroke-width:1.0;" width="6" x="355.5" y="168.5234"/><text fill="#000000" font-family="sans-serif" font-size="14" lengthAdjust="spacing" textLength="78" x="367.5" y="175.752">Resources()</text><line style="stroke:#181818;stroke-width:1.0;stroke-dasharray:1.0,2.0;" x1="348.5" x2="446" y1="152.4141" y2="152.4141"/><text fill="#000000" font-family="sans-serif" font-size="14" lengthAdjust="spacing" textLength="82" x="446" y="157.6426">Constructeur</text><line style="stroke:#181818;stroke-width:1.0;stroke-dasharray:1.0,2.0;" x1="528" x2="625.5" y1="152.4141" y2="152.4141"/><ellipse cx="358.5" cy="210.7422" fill="#84BE84" rx="3" ry="3" style="stroke:#038048;stroke-width:1.0;"/><text fill="#000000" font-family="sans-serif" font-size="14" lengthAdjust="spacing" text-decoration="underline" textLength="208" x="367.5" y="214.9707">InputStream getAsStream(String)</text><ellipse cx="358.5" cy="228.3516" fill="#84BE84" rx="3" ry="3" style="stroke:#038048;stroke-width:1.0;"/><text fill="#000000" font-family="sans-serif" font-size="14" lengthAdjust="spacing" text-decoration="underline" textLength="144" x="367.5" y="232.5801">Image getAsset(String)</text><ellipse cx="358.5" cy="245.9609" fill="#84BE84" rx="3" ry="3" style="stroke:#038048;stroke-width:1.0;"/><text fill="#000000" font-family="sans-serif" font-size="14" lengthAdjust="spacing" text-decoration="underline" textLength="253" x="367.5" y="250.1895">ResourceBundle getI18NBundle(Locale)</text><ellipse cx="358.5" cy="263.5703" fill="#84BE84" rx="3" ry="3" style="stroke:#038048;stroke-width:1.0;"/><text fill="#000000" font-family="sans-serif" font-size="14" lengthAdjust="spacing" text-decoration="underline" textLength="211" x="367.5" y="267.7988">ResourceBundle getI18NBundle()</text><ellipse cx="358.5" cy="281.1797" fill="#84BE84" rx="3" ry="3" style="stroke:#038048;stroke-width:1.0;"/><text fill="#000000" font-family="sans-serif" font-size="14" lengthAdjust="spacing" text-decoration="underline" textLength="223" x="367.5" y="285.4082">String getI18NString(String, Locale)</text><ellipse cx="358.5" cy="298.7891" fill="#84BE84" rx="3" ry="3" style="stroke:#038048;stroke-width:1.0;"/><text fill="#000000" font-family="sans-serif" font-size="14" lengthAdjust="spacing" text-decoration="underline" textLength="173" x="367.5" y="303.0176">String getI18NString(String)</text><line style="stroke:#181818;stroke-width:1.0;stroke-dasharray:1.0,2.0;" x1="348.5" x2="456" y1="191.6328" y2="191.6328"/><text fill="#000000" font-family="sans-serif" font-size="14" lengthAdjust="spacing" textLength="62" x="456" y="196.8613">M&#233;thodes</text><line style="stroke:#181818;stroke-width:1.0;stroke-dasharray:1.0,2.0;" x1="518" x2="625.5" y1="191.6328" y2="191.6328"/></g><!--class FabriqueId--><g id="elem_FabriqueId"><rect codeLine="25" fill="#F1F1F1" height="171.2656" id="FabriqueId" rx="2.5" ry="2.5" style="stroke:#181818;stroke-width:0.5;" width="181" x="661.5" y="112.5"/><ellipse cx="713.75" cy="128.5" fill="#ADD1B2" rx="11" ry="11" style="stroke:#181818;stroke-width:1.0;"/><path d="M715.75,125 Q715.9531,124.5 716.1875,124.25 Q716.4219,124 716.6875,124 Q717.1563,124 717.4531,124.2813 Q717.75,124.5625 717.75,125.2188 L717.75,126.7813 Q717.75,127.4375 717.4688,127.7188 Q717.1875,128 716.75,128 Q716.3594,128 716.1094,127.8281 Q715.8594,127.6563 715.75,127.2031 Q715.7031,126.8906 715.5313,126.7188 Q715.2188,126.3906 714.6563,126.2031 Q714.0938,126 713.5313,126 Q712.8281,126 712.2344,126.2813 Q711.6563,126.5625 711.2031,127.1875 Q710.75,127.8125 710.75,128.6719 L710.75,129.5938 Q710.75,130.625 711.5938,131.3125 Q712.4375,132 713.9375,132 Q714.8281,132 715.4531,131.7969 Q715.8125,131.6875 716.2188,131.3281 Q716.4844,131.125 716.625,131.0625 Q716.7656,131 716.9375,131 Q717.2656,131 717.5,131.2656 Q717.75,131.5156 717.75,131.875 Q717.75,132.2188 717.4063,132.625 Q716.9063,133.2188 716.1094,133.5469 Q715.0625,134 713.7813,134 Q712.2813,134 711.0781,133.4063 Q710.1094,132.9375 709.4219,131.9219 Q708.75,130.9063 708.75,129.7031 L708.75,128.6094 Q708.75,127.3594 709.3438,126.2656 Q709.9531,125.1719 711,124.5938 Q712.0625,124 713.25,124 Q713.9688,124 714.5938,124.25 Q715.2188,124.5 715.75,125 Z " fill="#000000"/><text fill="#000000" font-family="sans-serif" font-size="14" lengthAdjust="spacing" textLength="68" x="734.25" y="134.2285">FabriqueId</text><line style="stroke:#181818;stroke-width:0.5;" x1="662.5" x2="841.5" y1="144.5" y2="144.5"/><rect fill="none" height="6" style="stroke:#C82930;stroke-width:1.0;" width="6" x="669.5" y="155.8047"/><text fill="#000000" font-family="sans-serif" font-size="14" lengthAdjust="spacing" text-decoration="underline" textLength="125" x="681.5" y="163.0332">FabriqueId instance</text><rect fill="none" height="6" style="stroke:#C82930;stroke-width:1.0;" width="6" x="669.5" y="173.4141"/><text fill="#000000" font-family="sans-serif" font-size="14" lengthAdjust="spacing" textLength="30" x="681.5" y="180.6426">int id</text><rect fill="#F24D5C" height="6" style="stroke:#C82930;stroke-width:1.0;" width="6" x="669.5" y="212.6328"/><text fill="#000000" font-family="sans-serif" font-size="14" lengthAdjust="spacing" textLength="78" x="681.5" y="219.8613">FabriqueId()</text><line style="stroke:#181818;stroke-width:1.0;stroke-dasharray:1.0,2.0;" x1="662.5" x2="711" y1="196.5234" y2="196.5234"/><text fill="#000000" font-family="sans-serif" font-size="14" lengthAdjust="spacing" textLength="82" x="711" y="201.752">Constructeur</text><line style="stroke:#181818;stroke-width:1.0;stroke-dasharray:1.0,2.0;" x1="793" x2="841.5" y1="196.5234" y2="196.5234"/><ellipse cx="672.5" cy="254.8516" fill="#84BE84" rx="3" ry="3" style="stroke:#038048;stroke-width:1.0;"/><text fill="#000000" font-family="sans-serif" font-size="14" lengthAdjust="spacing" text-decoration="underline" textLength="155" x="681.5" y="259.0801">FabriqueId getInstance()</text><ellipse cx="672.5" cy="272.4609" fill="#84BE84" rx="3" ry="3" style="stroke:#038048;stroke-width:1.0;"/><text fill="#000000" font-family="sans-serif" font-size="14" lengthAdjust="spacing" textLength="60" x="681.5" y="276.6895">int getId()</text><line style="stroke:#181818;stroke-width:1.0;stroke-dasharray:1.0,2.0;" x1="662.5" x2="721" y1="235.7422" y2="235.7422"/><text fill="#000000" font-family="sans-serif" font-size="14" lengthAdjust="spacing" textLength="62" x="721" y="240.9707">M&#233;thodes</text><line style="stroke:#181818;stroke-width:1.0;stroke-dasharray:1.0,2.0;" x1="783" x2="841.5" y1="235.7422" y2="235.7422"/></g><!--class ErrorBehavior--><g id="elem_ErrorBehavior"><rect codeLine="36" fill="#F1F1F1" height="96.8281" id="ErrorBehavior" rx="2.5" ry="2.5" style="stroke:#181818;stroke-width:0.5;" width="215" x="46.5" y="504"/><ellipse cx="105.75" cy="520" fill="#ADD1B2" rx="11" ry="11" style="stroke:#181818;stroke-width:1.0;"/><path d="M107.75,516.5 Q107.9531,516 108.1875,515.75 Q108.4219,515.5 108.6875,515.5 Q109.1563,515.5 109.4531,515.7813 Q109.75,516.0625 109.75,516.7188 L109.75,518.2813 Q109.75,518.9375 109.4688,519.2188 Q109.1875,519.5 108.75,519.5 Q108.3594,519.5 108.1094,519.3281 Q107.8594,519.1563 107.75,518.7031 Q107.7031,518.3906 107.5313,518.2188 Q107.2188,517.8906 106.6563,517.7031 Q106.0938,517.5 105.5313,517.5 Q104.8281,517.5 104.2344,517.7813 Q103.6563,518.0625 103.2031,518.6875 Q102.75,519.3125 102.75,520.1719 L102.75,521.0938 Q102.75,522.125 103.5938,522.8125 Q104.4375,523.5 105.9375,523.5 Q106.8281,523.5 107.4531,523.2969 Q107.8125,523.1875 108.2188,522.8281 Q108.4844,522.625 108.625,522.5625 Q108.7656,522.5 108.9375,522.5 Q109.2656,522.5 109.5,522.7656 Q109.75,523.0156 109.75,523.375 Q109.75,523.7188 109.4063,524.125 Q108.9063,524.7188 108.1094,525.0469 Q107.0625,525.5 105.7813,525.5 Q104.2813,525.5 103.0781,524.9063 Q102.1094,524.4375 101.4219,523.4219 Q100.75,522.4063 100.75,521.2031 L100.75,520.1094 Q100.75,518.8594 101.3438,517.7656 Q101.9531,516.6719 103,516.0938 Q104.0625,515.5 105.25,515.5 Q105.9688,515.5 106.5938,515.75 Q107.2188,516 107.75,516.5 Z " fill="#000000"/><text fill="#000000" font-family="sans-serif" font-size="14" lengthAdjust="spacing" textLength="88" x="126.25" y="525.7285">ErrorBehavior</text><line style="stroke:#181818;stroke-width:0.5;" x1="47.5" x2="260.5" y1="536" y2="536"/><ellipse cx="57.5" cy="571.9141" fill="#84BE84" rx="3" ry="3" style="stroke:#038048;stroke-width:1.0;"/><text fill="#000000" font-family="sans-serif" font-size="14" lengthAdjust="spacing" text-decoration="underline" textLength="189" x="66.5" y="576.1426">void handle(Exception, String)</text><ellipse cx="57.5" cy="589.5234" fill="#84BE84" rx="3" ry="3" style="stroke:#038048;stroke-width:1.0;"/><text fill="#000000" font-family="sans-serif" font-size="14" lengthAdjust="spacing" text-decoration="underline" textLength="181" x="66.5" y="593.752">void crash(Exception, String)</text><line style="stroke:#181818;stroke-width:1.0;stroke-dasharray:1.0,2.0;" x1="47.5" x2="123" y1="552.8047" y2="552.8047"/><text fill="#000000" font-family="sans-serif" font-size="14" lengthAdjust="spacing" textLength="62" x="123" y="558.0332">M&#233;thodes</text><line style="stroke:#181818;stroke-width:1.0;stroke-dasharray:1.0,2.0;" x1="185" x2="260.5" y1="552.8047" y2="552.8047"/></g><!--class FileManager--><g id="elem_FileManager"><rect codeLine="42" fill="#F1F1F1" height="259.3125" id="FileManager" rx="2.5" ry="2.5" style="stroke:#181818;stroke-width:0.5;" width="388" x="297" y="423"/><ellipse cx="447.25" cy="439" fill="#ADD1B2" rx="11" ry="11" style="stroke:#181818;stroke-width:1.0;"/><path d="M449.25,435.5 Q449.4531,435 449.6875,434.75 Q449.9219,434.5 450.1875,434.5 Q450.6563,434.5 450.9531,434.7813 Q451.25,435.0625 451.25,435.7188 L451.25,437.2813 Q451.25,437.9375 450.9688,438.2188 Q450.6875,438.5 450.25,438.5 Q449.8594,438.5 449.6094,438.3281 Q449.3594,438.1563 449.25,437.7031 Q449.2031,437.3906 449.0313,437.2188 Q448.7188,436.8906 448.1563,436.7031 Q447.5938,436.5 447.0313,436.5 Q446.3281,436.5 445.7344,436.7813 Q445.1563,437.0625 444.7031,437.6875 Q444.25,438.3125 444.25,439.1719 L444.25,440.0938 Q444.25,441.125 445.0938,441.8125 Q445.9375,442.5 447.4375,442.5 Q448.3281,442.5 448.9531,442.2969 Q449.3125,442.1875 449.7188,441.8281 Q449.9844,441.625 450.125,441.5625 Q450.2656,441.5 450.4375,441.5 Q450.7656,441.5 451,441.7656 Q451.25,442.0156 451.25,442.375 Q451.25,442.7188 450.9063,443.125 Q450.4063,443.7188 449.6094,444.0469 Q448.5625,444.5 447.2813,444.5 Q445.7813,444.5 444.5781,443.9063 Q443.6094,443.4375 442.9219,442.4219 Q442.25,441.4063 442.25,440.2031 L442.25,439.1094 Q442.25,437.8594 442.8438,436.7656 Q443.4531,435.6719 444.5,435.0938 Q445.5625,434.5 446.75,434.5 Q447.4688,434.5 448.0938,434.75 Q448.7188,435 449.25,435.5 Z " fill="#000000"/><text fill="#000000" font-family="sans-serif" font-size="14" lengthAdjust="spacing" textLength="79" x="467.75" y="444.7285">FileManager</text><line style="stroke:#181818;stroke-width:0.5;" x1="298" x2="684" y1="455" y2="455"/><line style="stroke:#181818;stroke-width:0.5;" x1="298" x2="684" y1="463" y2="463"/><ellipse cx="308" cy="477.3047" fill="#84BE84" rx="3" ry="3" style="stroke:#038048;stroke-width:1.0;"/><text fill="#000000" font-family="sans-serif" font-size="14" lengthAdjust="spacing" text-decoration="underline" textLength="141" x="317" y="481.5332">boolean delete(String)</text><ellipse cx="308" cy="494.9141" fill="#84BE84" rx="3" ry="3" style="stroke:#038048;stroke-width:1.0;"/><text fill="#000000" font-family="sans-serif" font-size="14" lengthAdjust="spacing" text-decoration="underline" textLength="274" x="317" y="499.1426">boolean write(JSONObject, String, boolean)</text><ellipse cx="308" cy="512.5234" fill="#84BE84" rx="3" ry="3" style="stroke:#038048;stroke-width:1.0;"/><text fill="#000000" font-family="sans-serif" font-size="14" lengthAdjust="spacing" text-decoration="underline" textLength="238" x="317" y="516.752">JSONObject readFile(String, boolean)</text><ellipse cx="308" cy="530.1328" fill="#84BE84" rx="3" ry="3" style="stroke:#038048;stroke-width:1.0;"/><text fill="#000000" font-family="sans-serif" font-size="14" lengthAdjust="spacing" text-decoration="underline" textLength="360" x="317" y="534.3613">Map&lt;String, JSONObject&gt; readDirectory(String, boolean)</text><ellipse cx="308" cy="547.7422" fill="#84BE84" rx="3" ry="3" style="stroke:#038048;stroke-width:1.0;"/><text fill="#000000" font-family="sans-serif" font-size="14" lengthAdjust="spacing" text-decoration="underline" textLength="240" x="317" y="551.9707">JSONObject readResourceFile(String)</text><ellipse cx="308" cy="565.3516" fill="#84BE84" rx="3" ry="3" style="stroke:#038048;stroke-width:1.0;"/><text fill="#000000" font-family="sans-serif" font-size="14" lengthAdjust="spacing" text-decoration="underline" textLength="362" x="317" y="569.5801">Map&lt;String, JSONObject&gt; readResourceDirectory(String)</text><ellipse cx="308" cy="582.9609" fill="#84BE84" rx="3" ry="3" style="stroke:#038048;stroke-width:1.0;"/><text fill="#000000" font-family="sans-serif" font-size="14" lengthAdjust="spacing" text-decoration="underline" textLength="168" x="317" y="587.1895">void open(String, boolean)</text><ellipse cx="308" cy="600.5703" fill="#84BE84" rx="3" ry="3" style="stroke:#038048;stroke-width:1.0;"/><text fill="#000000" font-family="sans-serif" font-size="14" lengthAdjust="spacing" text-decoration="underline" textLength="117" x="317" y="604.7988">File getFile(String)</text><rect fill="#F24D5C" height="6" style="stroke:#C82930;stroke-width:1.0;" width="6" x="305" y="615.1797"/><text fill="#000000" font-family="sans-serif" font-size="14" lengthAdjust="spacing" text-decoration="underline" textLength="213" x="317" y="622.4082">boolean writeString(String, String)</text><rect fill="#F24D5C" height="6" style="stroke:#C82930;stroke-width:1.0;" width="6" x="305" y="632.7891"/><text fill="#000000" font-family="sans-serif" font-size="14" lengthAdjust="spacing" text-decoration="underline" textLength="154" x="317" y="640.0176">String readString(String)</text><rect fill="#F24D5C" height="6" style="stroke:#C82930;stroke-width:1.0;" width="6" x="305" y="650.3984"/><text fill="#000000" font-family="sans-serif" font-size="14" lengthAdjust="spacing" text-decoration="underline" textLength="228" x="317" y="657.627">JSONObject readJSONString(String)</text><rect fill="#F24D5C" height="6" style="stroke:#C82930;stroke-width:1.0;" width="6" x="305" y="668.0078"/><text fill="#000000" font-family="sans-serif" font-size="14" lengthAdjust="spacing" text-decoration="underline" textLength="164" x="317" y="675.2363">SecretKey getSecretKey()</text></g><!--class ProceduralGenerator--><g id="elem_ProceduralGenerator"><rect codeLine="57" fill="#F1F1F1" height="364.9688" id="ProceduralGenerator" rx="2.5" ry="2.5" style="stroke:#181818;stroke-width:0.5;" width="321" x="720.5" y="370"/><ellipse cx="809.75" cy="386" fill="#ADD1B2" rx="11" ry="11" style="stroke:#181818;stroke-width:1.0;"/><path d="M811.75,382.5 Q811.9531,382 812.1875,381.75 Q812.4219,381.5 812.6875,381.5 Q813.1563,381.5 813.4531,381.7813 Q813.75,382.0625 813.75,382.7188 L813.75,384.2813 Q813.75,384.9375 813.4688,385.2188 Q813.1875,385.5 812.75,385.5 Q812.3594,385.5 812.1094,385.3281 Q811.8594,385.1563 811.75,384.7031 Q811.7031,384.3906 811.5313,384.2188 Q811.2188,383.8906 810.6563,383.7031 Q810.0938,383.5 809.5313,383.5 Q808.8281,383.5 808.2344,383.7813 Q807.6563,384.0625 807.2031,384.6875 Q806.75,385.3125 806.75,386.1719 L806.75,387.0938 Q806.75,388.125 807.5938,388.8125 Q808.4375,389.5 809.9375,389.5 Q810.8281,389.5 811.4531,389.2969 Q811.8125,389.1875 812.2188,388.8281 Q812.4844,388.625 812.625,388.5625 Q812.7656,388.5 812.9375,388.5 Q813.2656,388.5 813.5,388.7656 Q813.75,389.0156 813.75,389.375 Q813.75,389.7188 813.4063,390.125 Q812.9063,390.7188 812.1094,391.0469 Q811.0625,391.5 809.7813,391.5 Q808.2813,391.5 807.0781,390.9063 Q806.1094,390.4375 805.4219,389.4219 Q804.75,388.4063 804.75,387.2031 L804.75,386.1094 Q804.75,384.8594 805.3438,383.7656 Q805.9531,382.6719 807,382.0938 Q808.0625,381.5 809.25,381.5 Q809.9688,381.5 810.5938,381.75 Q811.2188,382 811.75,382.5 Z " fill="#000000"/><text fill="#000000" font-family="sans-serif" font-size="14" lengthAdjust="spacing" textLength="134" x="830.25" y="391.7285">ProceduralGenerator</text><line style="stroke:#181818;stroke-width:0.5;" x1="721.5" x2="1040.5" y1="402" y2="402"/><rect fill="none" height="6" style="stroke:#C82930;stroke-width:1.0;" width="6" x="728.5" y="413.3047"/><text fill="#000000" font-family="sans-serif" font-size="14" lengthAdjust="spacing" text-decoration="underline" textLength="171" x="740.5" y="420.5332">Map&lt;String, Image&gt; assets</text><rect fill="none" height="6" style="stroke:#C82930;stroke-width:1.0;" width="6" x="728.5" y="430.9141"/><text fill="#000000" font-family="sans-serif" font-size="14" lengthAdjust="spacing" text-decoration="underline" textLength="93" x="740.5" y="438.1426">boolean WALL</text><rect fill="none" height="6" style="stroke:#C82930;stroke-width:1.0;" width="6" x="728.5" y="448.5234"/><text fill="#000000" font-family="sans-serif" font-size="14" lengthAdjust="spacing" text-decoration="underline" textLength="102" x="740.5" y="455.752">boolean EMPTY</text><rect fill="none" height="6" style="stroke:#C82930;stroke-width:1.0;" width="6" x="728.5" y="466.1328"/><text fill="#000000" font-family="sans-serif" font-size="14" lengthAdjust="spacing" textLength="77" x="740.5" y="473.3613">char[][] level</text><rect fill="none" height="6" style="stroke:#C82930;stroke-width:1.0;" width="6" x="728.5" y="483.7422"/><text fill="#000000" font-family="sans-serif" font-size="14" lengthAdjust="spacing" textLength="105" x="740.5" y="490.9707">List&lt;int[]&gt; visited</text><rect fill="none" height="6" style="stroke:#C82930;stroke-width:1.0;" width="6" x="728.5" y="501.3516"/><text fill="#000000" font-family="sans-serif" font-size="14" lengthAdjust="spacing" textLength="51" x="740.5" y="508.5801">int width</text><rect fill="none" height="6" style="stroke:#C82930;stroke-width:1.0;" width="6" x="728.5" y="518.9609"/><text fill="#000000" font-family="sans-serif" font-size="14" lengthAdjust="spacing" textLength="58" x="740.5" y="526.1895">int height</text><rect fill="none" height="6" style="stroke:#C82930;stroke-width:1.0;" width="6" x="728.5" y="536.5703"/><text fill="#000000" font-family="sans-serif" font-size="14" lengthAdjust="spacing" textLength="202" x="740.5" y="543.7988">List&lt;Personnage&gt; personnages</text><rect fill="none" height="6" style="stroke:#C82930;stroke-width:1.0;" width="6" x="728.5" y="554.1797"/><text fill="#000000" font-family="sans-serif" font-size="14" lengthAdjust="spacing" textLength="121" x="740.5" y="561.4082">List&lt;Object&gt; objets</text><ellipse cx="731.5" cy="596.3984" fill="#84BE84" rx="3" ry="3" style="stroke:#038048;stroke-width:1.0;"/><text fill="#000000" font-family="sans-serif" font-size="14" lengthAdjust="spacing" textLength="194" x="740.5" y="600.627">ProceduralGenerator(long, int)</text><line style="stroke:#181818;stroke-width:1.0;stroke-dasharray:1.0,2.0;" x1="721.5" x2="840" y1="577.2891" y2="577.2891"/><text fill="#000000" font-family="sans-serif" font-size="14" lengthAdjust="spacing" textLength="82" x="840" y="582.5176">Constructeur</text><line style="stroke:#181818;stroke-width:1.0;stroke-dasharray:1.0,2.0;" x1="922" x2="1040.5" y1="577.2891" y2="577.2891"/><ellipse cx="731.5" cy="635.6172" fill="#84BE84" rx="3" ry="3" style="stroke:#038048;stroke-width:1.0;"/><text fill="#000000" font-family="sans-serif" font-size="14" lengthAdjust="spacing" textLength="120" x="740.5" y="639.8457">Monde getMonde()</text><rect fill="#F24D5C" height="6" style="stroke:#C82930;stroke-width:1.0;" width="6" x="728.5" y="650.2266"/><text fill="#000000" font-family="sans-serif" font-size="14" lengthAdjust="spacing" textLength="275" x="740.5" y="657.4551">void generateMaze(Random, int, int, int, int)</text><rect fill="#F24D5C" height="6" style="stroke:#C82930;stroke-width:1.0;" width="6" x="728.5" y="667.8359"/><text fill="#000000" font-family="sans-serif" font-size="14" lengthAdjust="spacing" textLength="134" x="740.5" y="675.0645">void splash(Random)</text><rect fill="#F24D5C" height="6" style="stroke:#C82930;stroke-width:1.0;" width="6" x="728.5" y="685.4453"/><text fill="#000000" font-family="sans-serif" font-size="14" lengthAdjust="spacing" textLength="226" x="740.5" y="692.6738">List&lt;int[]&gt; getVoisinsEligibles(int,int)</text><rect fill="#F24D5C" height="6" style="stroke:#C82930;stroke-width:1.0;" width="6" x="728.5" y="703.0547"/><text fill="#000000" font-family="sans-serif" font-size="14" lengthAdjust="spacing" textLength="295" x="740.5" y="710.2832">boolean containsCoordinate(List&lt;int[]&gt;, int, int)</text><rect fill="#F24D5C" height="6" style="stroke:#C82930;stroke-width:1.0;" width="6" x="728.5" y="720.6641"/><text fill="#000000" font-family="sans-serif" font-size="14" lengthAdjust="spacing" textLength="210" x="740.5" y="727.8926">int[] caseVisiteAleatoire(Random)</text><line style="stroke:#181818;stroke-width:1.0;stroke-dasharray:1.0,2.0;" x1="721.5" x2="850" y1="616.5078" y2="616.5078"/><text fill="#000000" font-family="sans-serif" font-size="14" lengthAdjust="spacing" textLength="62" x="850" y="621.7363">M&#233;thodes</text><line style="stroke:#181818;stroke-width:1.0;stroke-dasharray:1.0,2.0;" x1="912" x2="1040.5" y1="616.5078" y2="616.5078"/></g><!--SRC=[dLRHRjem57tlL_WngBJItlPG8OMILcoXHD1scb1L6UUAU7Fjp7RekeeFsdVinsOd15AJ420FmNRkkJxtdkjhKan-uWMWG16S0de_G-P9rulZJ5Ecrels8GmhXGQ2Su3gkdtEqRlIM5EoGbCjALyWFue6_ht_V3CE1y6aoNWk10FCqI3eFzmsUWHz5Gg26VJGz26AnfFxOF0SZg_zC9X-05rUNZhpQy6LbXdHa4dduqKPYzVPhA_Ed70de4GcoKx05rjw8vnU5K5tqV35fAw731AqEeRAPfyAcG8s-lTN9o86vM0g2HhoDDE60k0Nj03jgsBi5QmwZJ1BjW0OkctM9SD-ncEMmuQVFjyLCw-GvpHifwMIrjR5p2iptRBZ7kmUjM_mND9V6GpZPhahDjG8YZa1nvHoZMXyZFfRdwV8Ns5aursJsichfMM_nn_htKb18AMGVKZmaWhfPE4WDaj1OvJWNDhWDu5KKy6xgAMwSXIHM2NxGBk2KGOZp4qTo-QEL3QP61XeQAlpqlfLKcFyPJg-6yz_0D4bcsvfqUXXYq7c6CQMetSejjfCjdvwkQC1bMOiv9jt8fFo65OOdKIazECIsg-kI84VpDnIjDNQIFMYGJ6dJRH0rst21jNG8no0ar4xFGmu1I91VuKt6zLcik_gYQGW46SIirlW8B7UEOz7Nq8rIVlcXs6RJJ2AxhyxHYJ1SlOqUq8Cbi2SZo5L-ihqczbJ3osfChB4DJtobSOwgLbFW2uINUSo0gdCdPs7bsx6giwqh5TXVe-vYi_hykunOHDho1tUdaU2nta9vmFFBOpyI2oA3KmB-mFUnFHCyPBluhngiIfbjbiMgCuU0Go5Hs54u2fWT47dpFp9i9vh79U24y4rDe1h8MHCkM7eLJms4yk_8u8LFEQg-yQR5gPBxD1SdHNlrNy0]--></g></svg>