<?xml version="1.0" encoding="windows-1252" standalone="no"?>
<svg xmlns="http://www.w3.org/2000/svg" xmlns:xlink="http://www.w3.org/1999/xlink" contentStyleType="text/css" height="1921px" preserveAspectRatio="none" style="width:3871px;height:1921px;background:#FFFFFF;" version="1.1" viewBox="0 0 3871 1921" width="3871px" zoomAndPan="magnify"><defs/><g><!--cluster Escape--><g id="cluster_Escape"><path d="M8.5,93 L65.5,93 A3.75,3.75 0 0 1 68,95.5 L75,115.2969 L3503.5,115.2969 A2.5,2.5 0 0 1 3506,117.7969 L3506,1911.5 A2.5,2.5 0 0 1 3503.5,1914 L8.5,1914 A2.5,2.5 0 0 1 6,1911.5 L6,95.5 A2.5,2.5 0 0 1 8.5,93 " fill="none" style="stroke:#000000;stroke-width:1.5;"/><line style="stroke:#000000;stroke-width:1.5;" x1="6" x2="75" y1="115.2969" y2="115.2969"/><text fill="#000000" font-family="sans-serif" font-size="14" font-weight="bold" lengthAdjust="spacing" textLength="56" x="10" y="107.9951">Escape</text></g><!--cluster Monde--><g id="cluster_Monde"><path d="M598.5,382 L652.5,382 A3.75,3.75 0 0 1 655,384.5 L662,404.2969 L3294.5,404.2969 A2.5,2.5 0 0 1 3297,406.7969 L3297,1887.5 A2.5,2.5 0 0 1 3294.5,1890 L598.5,1890 A2.5,2.5 0 0 1 596,1887.5 L596,384.5 A2.5,2.5 0 0 1 598.5,382 " fill="none" style="stroke:#000000;stroke-width:1.5;"/><line style="stroke:#000000;stroke-width:1.5;" x1="596" x2="662" y1="404.2969" y2="404.2969"/><text fill="#000000" font-family="sans-serif" font-size="14" font-weight="bold" lengthAdjust="spacing" textLength="53" x="600" y="396.9951">Monde</text></g><!--cluster Environment--><g id="cluster_Environment"><path d="M622.5,1107.5 L725.5,1107.5 A3.75,3.75 0 0 1 728,1110 L735,1129.7969 L1214.5,1129.7969 A2.5,2.5 0 0 1 1217,1132.2969 L1217,1638.5 A2.5,2.5 0 0 1 1214.5,1641 L622.5,1641 A2.5,2.5 0 0 1 620,1638.5 L620,1110 A2.5,2.5 0 0 1 622.5,1107.5 " fill="none" style="stroke:#000000;stroke-width:1.5;"/><line style="stroke:#000000;stroke-width:1.5;" x1="620" x2="735" y1="1129.7969" y2="1129.7969"/><text fill="#000000" font-family="sans-serif" font-size="14" font-weight="bold" lengthAdjust="spacing" textLength="102" x="624" y="1122.4951">Environment</text></g><!--cluster Entities--><g id="cluster_Entities"><path d="M1411.5,1010 L1475.5,1010 A3.75,3.75 0 0 1 1478,1012.5 L1485,1032.2969 L2527.5,1032.2969 A2.5,2.5 0 0 1 2530,1034.7969 L2530,1863.5 A2.5,2.5 0 0 1 2527.5,1866 L1411.5,1866 A2.5,2.5 0 0 1 1409,1863.5 L1409,1012.5 A2.5,2.5 0 0 1 1411.5,1010 " fill="none" style="stroke:#000000;stroke-width:1.5;"/><line style="stroke:#000000;stroke-width:1.5;" x1="1409" x2="1485" y1="1032.2969" y2="1032.2969"/><text fill="#000000" font-family="sans-serif" font-size="14" font-weight="bold" lengthAdjust="spacing" textLength="63" x="1413" y="1024.9951">Entities</text></g><!--cluster Objects--><g id="cluster_Objects"><path d="M2556.5,1091.5 L2619.5,1091.5 A3.75,3.75 0 0 1 2622,1094 L2629,1113.7969 L3270.5,1113.7969 A2.5,2.5 0 0 1 3273,1116.2969 L3273,1654.5 A2.5,2.5 0 0 1 3270.5,1657 L2556.5,1657 A2.5,2.5 0 0 1 2554,1654.5 L2554,1094 A2.5,2.5 0 0 1 2556.5,1091.5 " fill="none" style="stroke:#000000;stroke-width:1.5;"/><line style="stroke:#000000;stroke-width:1.5;" x1="2554" x2="2629" y1="1113.7969" y2="1113.7969"/><text fill="#000000" font-family="sans-serif" font-size="14" font-weight="bold" lengthAdjust="spacing" textLength="62" x="2558" y="1106.4951">Objects</text></g><!--cluster gui--><g id="cluster_gui"><path d="M3331.5,854 L3357.5,854 A3.75,3.75 0 0 1 3360,856.5 L3367,876.2969 L3471.5,876.2969 A2.5,2.5 0 0 1 3474,878.7969 L3474,966.5 A2.5,2.5 0 0 1 3471.5,969 L3331.5,969 A2.5,2.5 0 0 1 3329,966.5 L3329,856.5 A2.5,2.5 0 0 1 3331.5,854 " fill="none" style="stroke:#000000;stroke-width:1.5;"/><line style="stroke:#000000;stroke-width:1.5;" x1="3329" x2="3367" y1="876.2969" y2="876.2969"/><text fill="#000000" font-family="sans-serif" font-size="14" font-weight="bold" lengthAdjust="spacing" textLength="25" x="3333" y="868.9951">gui</text></g><!--cluster engine--><g id="cluster_engine"><path d="M2388.5,164.5 L2442.5,164.5 A3.75,3.75 0 0 1 2445,167 L2452,186.7969 L2596.5,186.7969 A2.5,2.5 0 0 1 2599,189.2969 L2599,277 A2.5,2.5 0 0 1 2596.5,279.5 L2388.5,279.5 A2.5,2.5 0 0 1 2386,277 L2386,167 A2.5,2.5 0 0 1 2388.5,164.5 " fill="none" style="stroke:#000000;stroke-width:1.5;"/><line style="stroke:#000000;stroke-width:1.5;" x1="2386" x2="2452" y1="186.7969" y2="186.7969"/><text fill="#000000" font-family="sans-serif" font-size="14" font-weight="bold" lengthAdjust="spacing" textLength="53" x="2390" y="179.4951">engine</text></g><!--class SaveData--><g id="elem_SaveData"><rect codeLine="167" fill="#F1F1F1" height="194.6719" id="SaveData" rx="2.5" ry="2.5" style="stroke:#181818;stroke-width:0.5;" width="335" x="1406.5" y="134"/><ellipse cx="1535.75" cy="150" fill="#ADD1B2" rx="11" ry="11" style="stroke:#181818;stroke-width:1.0;"/><path d="M1538.0938,145.6719 C1537.1563,145.2344 1536.5625,145.0938 1535.6875,145.0938 C1533.0625,145.0938 1531.0625,147.1719 1531.0625,149.8906 L1531.0625,151.0156 C1531.0625,153.5938 1533.1719,155.4844 1536.0625,155.4844 C1537.2813,155.4844 1538.4375,155.1875 1539.1875,154.6406 C1539.7656,154.2344 1540.0938,153.7813 1540.0938,153.3906 C1540.0938,152.9375 1539.7031,152.5469 1539.2344,152.5469 C1539.0156,152.5469 1538.8125,152.625 1538.625,152.8125 C1538.1719,153.2969 1538.1719,153.2969 1537.9844,153.3906 C1537.5625,153.6563 1536.875,153.7813 1536.1094,153.7813 C1534.0625,153.7813 1532.7656,152.6875 1532.7656,150.9844 L1532.7656,149.8906 C1532.7656,148.1094 1534.0156,146.7969 1535.75,146.7969 C1536.3281,146.7969 1536.9375,146.9531 1537.4063,147.2031 C1537.8906,147.4844 1538.0625,147.7031 1538.1563,148.1094 C1538.2188,148.5156 1538.25,148.6406 1538.3906,148.7656 C1538.5313,148.9063 1538.7656,149.0156 1538.9844,149.0156 C1539.25,149.0156 1539.5156,148.875 1539.6875,148.6563 C1539.7969,148.5 1539.8281,148.3125 1539.8281,147.8906 L1539.8281,146.4688 C1539.8281,146.0313 1539.8125,145.9063 1539.7188,145.75 C1539.5625,145.4844 1539.2813,145.3438 1538.9844,145.3438 C1538.6875,145.3438 1538.4844,145.4375 1538.2656,145.75 L1538.0938,145.6719 Z " fill="#000000"/><text fill="#000000" font-family="sans-serif" font-size="14" lengthAdjust="spacing" textLength="68" x="1556.25" y="154.8467">SaveData</text><line style="stroke:#181818;stroke-width:0.5;" x1="1407.5" x2="1740.5" y1="166" y2="166"/><rect fill="none" height="6" style="stroke:#C82930;stroke-width:1.0;" width="6" x="1414.5" y="176.6484"/><text fill="#000000" font-family="sans-serif" font-size="14" lengthAdjust="spacing" textLength="111" x="1426.5" y="182.9951">String filename</text><rect fill="none" height="6" style="stroke:#C82930;stroke-width:1.0;" width="6" x="1414.5" y="192.9453"/><text fill="#000000" font-family="sans-serif" font-size="14" lengthAdjust="spacing" textLength="116" x="1426.5" y="199.292">JSONObject json</text><ellipse cx="1417.5" cy="232.5391" fill="#84BE84" rx="3" ry="3" style="stroke:#038048;stroke-width:1.0;"/><text fill="#000000" font-family="sans-serif" font-size="14" lengthAdjust="spacing" textLength="309" x="1426.5" y="235.8857">SaveData(Map.Entry&lt;String, JSONObject&gt;)</text><line style="stroke:#181818;stroke-width:1.0;stroke-dasharray:1.0,2.0;" x1="1407.5" x2="1527" y1="214.7422" y2="214.7422"/><text fill="#000000" font-family="sans-serif" font-size="14" lengthAdjust="spacing" textLength="94" x="1527" y="219.0889">Constructeur</text><line style="stroke:#181818;stroke-width:1.0;stroke-dasharray:1.0,2.0;" x1="1621" x2="1740.5" y1="214.7422" y2="214.7422"/><ellipse cx="1417.5" cy="269.1328" fill="#84BE84" rx="3" ry="3" style="stroke:#038048;stroke-width:1.0;"/><text fill="#000000" font-family="sans-serif" font-size="14" lengthAdjust="spacing" textLength="118" x="1426.5" y="272.4795">String getDate()</text><ellipse cx="1417.5" cy="285.4297" fill="#84BE84" rx="3" ry="3" style="stroke:#038048;stroke-width:1.0;"/><text fill="#000000" font-family="sans-serif" font-size="14" lengthAdjust="spacing" textLength="115" x="1426.5" y="288.7764">double getLife()</text><ellipse cx="1417.5" cy="301.7266" fill="#84BE84" rx="3" ry="3" style="stroke:#038048;stroke-width:1.0;"/><text fill="#000000" font-family="sans-serif" font-size="14" lengthAdjust="spacing" textLength="97" x="1426.5" y="305.0732">int getLevel()</text><ellipse cx="1417.5" cy="318.0234" fill="#84BE84" rx="3" ry="3" style="stroke:#038048;stroke-width:1.0;"/><text fill="#000000" font-family="sans-serif" font-size="14" lengthAdjust="spacing" textLength="145" x="1426.5" y="321.3701">void deleteFromFS()</text><line style="stroke:#181818;stroke-width:1.0;stroke-dasharray:1.0,2.0;" x1="1407.5" x2="1538.5" y1="251.3359" y2="251.3359"/><text fill="#000000" font-family="sans-serif" font-size="14" lengthAdjust="spacing" textLength="71" x="1538.5" y="255.6826">Méthodes</text><line style="stroke:#181818;stroke-width:1.0;stroke-dasharray:1.0,2.0;" x1="1609.5" x2="1740.5" y1="251.3359" y2="251.3359"/></g><!--class Settings--><g id="elem_Settings"><rect codeLine="179" fill="#F1F1F1" height="206.9688" id="Settings" rx="2.5" ry="2.5" style="stroke:#181818;stroke-width:0.5;" width="274" x="164" y="128"/><ellipse cx="266.25" cy="144" fill="#ADD1B2" rx="11" ry="11" style="stroke:#181818;stroke-width:1.0;"/><path d="M268.5938,139.6719 C267.6563,139.2344 267.0625,139.0938 266.1875,139.0938 C263.5625,139.0938 261.5625,141.1719 261.5625,143.8906 L261.5625,145.0156 C261.5625,147.5938 263.6719,149.4844 266.5625,149.4844 C267.7813,149.4844 268.9375,149.1875 269.6875,148.6406 C270.2656,148.2344 270.5938,147.7813 270.5938,147.3906 C270.5938,146.9375 270.2031,146.5469 269.7344,146.5469 C269.5156,146.5469 269.3125,146.625 269.125,146.8125 C268.6719,147.2969 268.6719,147.2969 268.4844,147.3906 C268.0625,147.6563 267.375,147.7813 266.6094,147.7813 C264.5625,147.7813 263.2656,146.6875 263.2656,144.9844 L263.2656,143.8906 C263.2656,142.1094 264.5156,140.7969 266.25,140.7969 C266.8281,140.7969 267.4375,140.9531 267.9063,141.2031 C268.3906,141.4844 268.5625,141.7031 268.6563,142.1094 C268.7188,142.5156 268.75,142.6406 268.8906,142.7656 C269.0313,142.9063 269.2656,143.0156 269.4844,143.0156 C269.75,143.0156 270.0156,142.875 270.1875,142.6563 C270.2969,142.5 270.3281,142.3125 270.3281,141.8906 L270.3281,140.4688 C270.3281,140.0313 270.3125,139.9063 270.2188,139.75 C270.0625,139.4844 269.7813,139.3438 269.4844,139.3438 C269.1875,139.3438 268.9844,139.4375 268.7656,139.75 L268.5938,139.6719 Z " fill="#000000"/><text fill="#000000" font-family="sans-serif" font-size="14" lengthAdjust="spacing" textLength="61" x="286.75" y="148.8467">Settings</text><line style="stroke:#181818;stroke-width:0.5;" x1="165" x2="437" y1="160" y2="160"/><rect fill="none" height="6" style="stroke:#C82930;stroke-width:1.0;" width="6" x="172" y="170.6484"/><text fill="#000000" font-family="sans-serif" font-size="14" lengthAdjust="spacing" text-decoration="underline" textLength="206" x="184" y="176.9951">PropertyChangeSupport pcs</text><ellipse cx="175" cy="189.9453" fill="none" rx="3" ry="3" style="stroke:#038048;stroke-width:1.0;"/><text fill="#000000" font-family="sans-serif" font-size="14" lengthAdjust="spacing" text-decoration="underline" textLength="220" x="184" y="193.292">Property&lt;Boolean&gt; fullScreen</text><ellipse cx="175" cy="206.2422" fill="none" rx="3" ry="3" style="stroke:#038048;stroke-width:1.0;"/><text fill="#000000" font-family="sans-serif" font-size="14" lengthAdjust="spacing" text-decoration="underline" textLength="209" x="184" y="209.5889">Property&lt;Boolean&gt; showFps</text><ellipse cx="175" cy="222.5391" fill="none" rx="3" ry="3" style="stroke:#038048;stroke-width:1.0;"/><text fill="#000000" font-family="sans-serif" font-size="14" lengthAdjust="spacing" text-decoration="underline" textLength="178" x="184" y="225.8857">Property&lt;Locale&gt; locale</text><ellipse cx="175" cy="259.1328" fill="#84BE84" rx="3" ry="3" style="stroke:#038048;stroke-width:1.0;"/><text fill="#000000" font-family="sans-serif" font-size="14" lengthAdjust="spacing" text-decoration="underline" textLength="82" x="184" y="262.4795">void reset()</text><ellipse cx="175" cy="275.4297" fill="#84BE84" rx="3" ry="3" style="stroke:#038048;stroke-width:1.0;"/><text fill="#000000" font-family="sans-serif" font-size="14" lengthAdjust="spacing" text-decoration="underline" textLength="74" x="184" y="278.7764">void load()</text><ellipse cx="175" cy="291.7266" fill="#84BE84" rx="3" ry="3" style="stroke:#038048;stroke-width:1.0;"/><text fill="#000000" font-family="sans-serif" font-size="14" lengthAdjust="spacing" text-decoration="underline" textLength="76" x="184" y="295.0732">void save()</text><rect fill="#F24D5C" height="6" style="stroke:#C82930;stroke-width:1.0;" width="6" x="172" y="305.0234"/><text fill="#000000" font-family="sans-serif" font-size="14" lengthAdjust="spacing" text-decoration="underline" textLength="248" x="184" y="311.3701">boolean ensureSettingsFileExists()</text><rect fill="#F24D5C" height="6" style="stroke:#C82930;stroke-width:1.0;" width="6" x="172" y="321.3203"/><text fill="#000000" font-family="sans-serif" font-size="14" lengthAdjust="spacing" text-decoration="underline" textLength="136" x="184" y="327.667">void initAutoSave()</text><line style="stroke:#181818;stroke-width:1.0;stroke-dasharray:1.0,2.0;" x1="165" x2="265.5" y1="241.3359" y2="241.3359"/><text fill="#000000" font-family="sans-serif" font-size="14" lengthAdjust="spacing" textLength="71" x="265.5" y="245.6826">Méthodes</text><line style="stroke:#181818;stroke-width:1.0;stroke-dasharray:1.0,2.0;" x1="336.5" x2="437" y1="241.3359" y2="241.3359"/></g><!--class Property--><g id="elem_Property"><rect codeLine="192" fill="#F1F1F1" height="390.2344" id="Property" rx="2.5" ry="2.5" style="stroke:#181818;stroke-width:0.5;" width="557" x="22.5" y="409"/><ellipse cx="245.25" cy="425" fill="#ADD1B2" rx="11" ry="11" style="stroke:#181818;stroke-width:1.0;"/><path d="M247.5938,420.6719 C246.6563,420.2344 246.0625,420.0938 245.1875,420.0938 C242.5625,420.0938 240.5625,422.1719 240.5625,424.8906 L240.5625,426.0156 C240.5625,428.5938 242.6719,430.4844 245.5625,430.4844 C246.7813,430.4844 247.9375,430.1875 248.6875,429.6406 C249.2656,429.2344 249.5938,428.7813 249.5938,428.3906 C249.5938,427.9375 249.2031,427.5469 248.7344,427.5469 C248.5156,427.5469 248.3125,427.625 248.125,427.8125 C247.6719,428.2969 247.6719,428.2969 247.4844,428.3906 C247.0625,428.6563 246.375,428.7813 245.6094,428.7813 C243.5625,428.7813 242.2656,427.6875 242.2656,425.9844 L242.2656,424.8906 C242.2656,423.1094 243.5156,421.7969 245.25,421.7969 C245.8281,421.7969 246.4375,421.9531 246.9063,422.2031 C247.3906,422.4844 247.5625,422.7031 247.6563,423.1094 C247.7188,423.5156 247.75,423.6406 247.8906,423.7656 C248.0313,423.9063 248.2656,424.0156 248.4844,424.0156 C248.75,424.0156 249.0156,423.875 249.1875,423.6563 C249.2969,423.5 249.3281,423.3125 249.3281,422.8906 L249.3281,421.4688 C249.3281,421.0313 249.3125,420.9063 249.2188,420.75 C249.0625,420.4844 248.7813,420.3438 248.4844,420.3438 C248.1875,420.3438 247.9844,420.4375 247.7656,420.75 L247.5938,420.6719 Z " fill="#000000"/><text fill="#000000" font-family="sans-serif" font-size="14" lengthAdjust="spacing" textLength="99" x="265.75" y="429.8467">Property &lt;T&gt;</text><line style="stroke:#181818;stroke-width:0.5;" x1="23.5" x2="578.5" y1="441" y2="441"/><rect fill="none" height="6" style="stroke:#C82930;stroke-width:1.0;" width="6" x="30.5" y="451.6484"/><text fill="#000000" font-family="sans-serif" font-size="14" lengthAdjust="spacing" textLength="50" x="42.5" y="457.9951">T value</text><rect fill="none" height="6" style="stroke:#C82930;stroke-width:1.0;" width="6" x="30.5" y="467.9453"/><text fill="#000000" font-family="sans-serif" font-size="14" lengthAdjust="spacing" textLength="88" x="42.5" y="474.292">String name</text><rect fill="none" height="6" style="stroke:#C82930;stroke-width:1.0;" width="6" x="30.5" y="484.2422"/><text fill="#000000" font-family="sans-serif" font-size="14" lengthAdjust="spacing" textLength="531" x="42.5" y="490.5889">Map&lt;MyPropertyChangeListener&lt;T&gt;, PropertyChangeListener&gt; listeners</text><rect fill="none" height="6" style="stroke:#C82930;stroke-width:1.0;" width="6" x="30.5" y="500.5391"/><text fill="#000000" font-family="sans-serif" font-size="14" lengthAdjust="spacing" textLength="206" x="42.5" y="506.8857">PropertyChangeSupport pcs</text><rect fill="none" height="6" style="stroke:#C82930;stroke-width:1.0;" width="6" x="30.5" y="516.8359"/><text fill="#000000" font-family="sans-serif" font-size="14" lengthAdjust="spacing" textLength="84" x="42.5" y="523.1826">boolean log</text><ellipse cx="33.5" cy="556.4297" fill="#84BE84" rx="3" ry="3" style="stroke:#038048;stroke-width:1.0;"/><text fill="#000000" font-family="sans-serif" font-size="14" lengthAdjust="spacing" textLength="494" x="42.5" y="559.7764">Property(PropertyChangeSupport, String, T, Getter&lt;T&gt;, Setter&lt;T&gt;)</text><ellipse cx="33.5" cy="572.7266" fill="#84BE84" rx="3" ry="3" style="stroke:#038048;stroke-width:1.0;"/><text fill="#000000" font-family="sans-serif" font-size="14" lengthAdjust="spacing" textLength="257" x="42.5" y="576.0732">Property(T, Getter&lt;T&gt;, Setter&lt;T&gt;)</text><ellipse cx="33.5" cy="589.0234" fill="#84BE84" rx="3" ry="3" style="stroke:#038048;stroke-width:1.0;"/><text fill="#000000" font-family="sans-serif" font-size="14" lengthAdjust="spacing" textLength="320" x="42.5" y="592.3701">Property(PropertyChangeSupport, String, T)</text><ellipse cx="33.5" cy="605.3203" fill="#84BE84" rx="3" ry="3" style="stroke:#038048;stroke-width:1.0;"/><text fill="#000000" font-family="sans-serif" font-size="14" lengthAdjust="spacing" textLength="83" x="42.5" y="608.667">Property(T)</text><line style="stroke:#181818;stroke-width:1.0;stroke-dasharray:1.0,2.0;" x1="23.5" x2="254" y1="538.6328" y2="538.6328"/><text fill="#000000" font-family="sans-serif" font-size="14" lengthAdjust="spacing" textLength="94" x="254" y="542.9795">Constructeur</text><line style="stroke:#181818;stroke-width:1.0;stroke-dasharray:1.0,2.0;" x1="348" x2="578.5" y1="538.6328" y2="538.6328"/><ellipse cx="33.5" cy="641.9141" fill="#84BE84" rx="3" ry="3" style="stroke:#038048;stroke-width:1.0;"/><text fill="#000000" font-family="sans-serif" font-size="14" lengthAdjust="spacing" textLength="48" x="42.5" y="645.2607">T get()</text><ellipse cx="33.5" cy="658.2109" fill="#84BE84" rx="3" ry="3" style="stroke:#038048;stroke-width:1.0;"/><text fill="#000000" font-family="sans-serif" font-size="14" lengthAdjust="spacing" textLength="76" x="42.5" y="661.5576">void set(T)</text><ellipse cx="33.5" cy="674.5078" fill="#84BE84" rx="3" ry="3" style="stroke:#038048;stroke-width:1.0;"/><text fill="#000000" font-family="sans-serif" font-size="14" lengthAdjust="spacing" textLength="341" x="42.5" y="677.8545">void subscribe(MyPropertyChangeListener&lt;T&gt;)</text><ellipse cx="33.5" cy="690.8047" fill="#84BE84" rx="3" ry="3" style="stroke:#038048;stroke-width:1.0;"/><text fill="#000000" font-family="sans-serif" font-size="14" lengthAdjust="spacing" textLength="377" x="42.5" y="694.1514">void subscribeIfNot(MyPropertyChangeListener&lt;T&gt;)</text><ellipse cx="33.5" cy="707.1016" fill="#84BE84" rx="3" ry="3" style="stroke:#038048;stroke-width:1.0;"/><text fill="#000000" font-family="sans-serif" font-size="14" lengthAdjust="spacing" textLength="358" x="42.5" y="710.4482">void unsubscribe(MyPropertyChangeListener&lt;T&gt;)</text><ellipse cx="33.5" cy="723.3984" fill="#84BE84" rx="3" ry="3" style="stroke:#038048;stroke-width:1.0;"/><text fill="#000000" font-family="sans-serif" font-size="14" lengthAdjust="spacing" textLength="148" x="42.5" y="726.7451">void unsubscribeAll()</text><ellipse cx="33.5" cy="739.6953" fill="#84BE84" rx="3" ry="3" style="stroke:#038048;stroke-width:1.0;"/><text fill="#000000" font-family="sans-serif" font-size="14" lengthAdjust="spacing" textLength="109" x="42.5" y="743.042">void forceFire()</text><ellipse cx="33.5" cy="755.9922" fill="#84BE84" rx="3" ry="3" style="stroke:#038048;stroke-width:1.0;"/><text fill="#000000" font-family="sans-serif" font-size="14" lengthAdjust="spacing" textLength="216" x="42.5" y="759.3389">Property&lt;T&gt; setLog(boolean)</text><rect fill="#F24D5C" height="6" style="stroke:#C82930;stroke-width:1.0;" width="6" x="30.5" y="769.2891"/><text fill="#000000" font-family="sans-serif" font-size="14" lengthAdjust="spacing" textLength="78" x="42.5" y="775.6357">void fire(T)</text><rect fill="#F24D5C" height="6" style="stroke:#C82930;stroke-width:1.0;" width="6" x="30.5" y="785.5859"/><text fill="#000000" font-family="sans-serif" font-size="14" lengthAdjust="spacing" textLength="110" x="42.5" y="791.9326">void log(String)</text><line style="stroke:#181818;stroke-width:1.0;stroke-dasharray:1.0,2.0;" x1="23.5" x2="265.5" y1="624.1172" y2="624.1172"/><text fill="#000000" font-family="sans-serif" font-size="14" lengthAdjust="spacing" textLength="71" x="265.5" y="628.4639">Méthodes</text><line style="stroke:#181818;stroke-width:1.0;stroke-dasharray:1.0,2.0;" x1="336.5" x2="578.5" y1="624.1172" y2="624.1172"/></g><!--class Getter--><g id="elem_Getter"><rect codeLine="216" fill="#F1F1F1" height="64.2969" id="Getter" rx="2.5" ry="2.5" style="stroke:#181818;stroke-width:0.5;" width="118" x="202" y="889"/><ellipse cx="217" cy="905" fill="#B4A7E5" rx="11" ry="11" style="stroke:#181818;stroke-width:1.0;"/><path d="M217.9531,901.7813 L219.6719,901.7813 C220.0625,901.7813 220.25,901.75 220.375,901.6719 C220.6406,901.5156 220.7813,901.2344 220.7813,900.9375 C220.7813,900.6719 220.6719,900.4063 220.4375,900.2344 C220.2656,900.125 220.125,900.0938 219.6719,900.0938 L214.5313,900.0938 C214.0938,900.0938 213.9688,900.1094 213.8125,900.2031 C213.5625,900.3594 213.4063,900.6563 213.4063,900.9375 C213.4063,901.2188 213.5469,901.4688 213.7656,901.6406 C213.9219,901.75 214.1094,901.7813 214.5313,901.7813 L216.25,901.7813 L216.25,908.2969 L214.5313,908.2969 C214.0938,908.2969 213.9688,908.3125 213.8125,908.4219 C213.5625,908.5781 213.4063,908.8594 213.4063,909.1563 C213.4063,909.4063 213.5469,909.6719 213.7656,909.8281 C213.9219,909.9531 214.125,910 214.5313,910 L219.6719,910 C220.4219,910 220.7813,909.7188 220.7813,909.1563 C220.7813,908.875 220.6719,908.625 220.4375,908.4531 C220.2656,908.3281 220.125,908.2969 219.6719,908.2969 L217.9531,908.2969 L217.9531,901.7813 Z " fill="#000000"/><text fill="#000000" font-family="sans-serif" font-size="14" font-style="italic" lengthAdjust="spacing" textLength="82" x="231" y="909.8467">Getter &lt;T&gt;</text><line style="stroke:#181818;stroke-width:0.5;" x1="203" x2="319" y1="921" y2="921"/><line style="stroke:#181818;stroke-width:0.5;" x1="203" x2="319" y1="929" y2="929"/><text fill="#000000" font-family="sans-serif" font-size="14" lengthAdjust="spacing" textLength="57" x="208" y="945.9951">T get(T)</text></g><!--class Setter--><g id="elem_Setter"><rect codeLine="220" fill="#F1F1F1" height="64.2969" id="Setter" rx="2.5" ry="2.5" style="stroke:#181818;stroke-width:0.5;" width="116" x="355" y="889"/><ellipse cx="370" cy="905" fill="#B4A7E5" rx="11" ry="11" style="stroke:#181818;stroke-width:1.0;"/><path d="M370.9531,901.7813 L372.6719,901.7813 C373.0625,901.7813 373.25,901.75 373.375,901.6719 C373.6406,901.5156 373.7813,901.2344 373.7813,900.9375 C373.7813,900.6719 373.6719,900.4063 373.4375,900.2344 C373.2656,900.125 373.125,900.0938 372.6719,900.0938 L367.5313,900.0938 C367.0938,900.0938 366.9688,900.1094 366.8125,900.2031 C366.5625,900.3594 366.4063,900.6563 366.4063,900.9375 C366.4063,901.2188 366.5469,901.4688 366.7656,901.6406 C366.9219,901.75 367.1094,901.7813 367.5313,901.7813 L369.25,901.7813 L369.25,908.2969 L367.5313,908.2969 C367.0938,908.2969 366.9688,908.3125 366.8125,908.4219 C366.5625,908.5781 366.4063,908.8594 366.4063,909.1563 C366.4063,909.4063 366.5469,909.6719 366.7656,909.8281 C366.9219,909.9531 367.125,910 367.5313,910 L372.6719,910 C373.4219,910 373.7813,909.7188 373.7813,909.1563 C373.7813,908.875 373.6719,908.625 373.4375,908.4531 C373.2656,908.3281 373.125,908.2969 372.6719,908.2969 L370.9531,908.2969 L370.9531,901.7813 Z " fill="#000000"/><text fill="#000000" font-family="sans-serif" font-size="14" font-style="italic" lengthAdjust="spacing" textLength="80" x="384" y="909.8467">Setter &lt;T&gt;</text><line style="stroke:#181818;stroke-width:0.5;" x1="356" x2="470" y1="921" y2="921"/><line style="stroke:#181818;stroke-width:0.5;" x1="356" x2="470" y1="929" y2="929"/><text fill="#000000" font-family="sans-serif" font-size="14" lengthAdjust="spacing" textLength="55" x="361" y="945.9951">T set(T)</text></g><!--class TypeMouvement--><g id="elem_TypeMouvement"><rect codeLine="3" fill="#F1F1F1" height="113.1875" id="TypeMouvement" rx="2.5" ry="2.5" style="stroke:#181818;stroke-width:0.5;" width="153" x="1236.5" y="1495.5"/><ellipse cx="1251.5" cy="1511.5" fill="#EB937F" rx="11" ry="11" style="stroke:#181818;stroke-width:1.0;"/><path d="M1250.2969,1512.375 L1251.75,1512.375 L1251.75,1512.4844 C1251.75,1512.8906 1251.7813,1513.0469 1251.8594,1513.2031 C1252.0156,1513.4531 1252.2969,1513.6094 1252.5938,1513.6094 C1252.8438,1513.6094 1253.1094,1513.4688 1253.2656,1513.25 C1253.3906,1513.0938 1253.4219,1512.9375 1253.4219,1512.4844 L1253.4219,1510.5625 C1253.4219,1510.4063 1253.4219,1510.3594 1253.4063,1510.2031 C1253.3438,1509.7344 1253.0313,1509.4219 1252.5781,1509.4219 C1252.3281,1509.4219 1252.0625,1509.5625 1251.8906,1509.7813 C1251.7813,1509.9531 1251.75,1510.1094 1251.75,1510.5625 L1251.75,1510.6875 L1250.2969,1510.6875 L1250.2969,1508.2813 L1254.2813,1508.2813 L1254.2813,1509.1406 C1254.2813,1509.5469 1254.3125,1509.7188 1254.3906,1509.875 C1254.5625,1510.125 1254.8438,1510.2813 1255.125,1510.2813 C1255.3906,1510.2813 1255.6563,1510.1406 1255.8281,1509.9219 C1255.9375,1509.75 1255.9688,1509.6094 1255.9688,1509.1406 L1255.9688,1506.5938 L1248.3438,1506.5938 C1247.9063,1506.5938 1247.7813,1506.6094 1247.625,1506.7031 C1247.375,1506.8594 1247.2188,1507.1563 1247.2188,1507.4375 C1247.2188,1507.7188 1247.3594,1507.9688 1247.5781,1508.1406 C1247.7344,1508.25 1247.9219,1508.2813 1248.3438,1508.2813 L1248.5938,1508.2813 L1248.5938,1514.7969 L1248.3438,1514.7969 C1247.9375,1514.7969 1247.7813,1514.8125 1247.625,1514.9219 C1247.375,1515.0938 1247.2188,1515.3594 1247.2188,1515.6563 C1247.2188,1515.9219 1247.3594,1516.1719 1247.5781,1516.3281 C1247.7188,1516.4531 1247.9531,1516.5 1248.3438,1516.5 L1256.3438,1516.5 L1256.3438,1513.9219 C1256.3438,1513.4844 1256.3125,1513.3438 1256.2344,1513.1875 C1256.0625,1512.9375 1255.7813,1512.7813 1255.5,1512.7813 C1255.2344,1512.7813 1254.9688,1512.8906 1254.7969,1513.1406 C1254.6875,1513.2969 1254.6563,1513.4375 1254.6563,1513.9219 L1254.6563,1514.7969 L1250.2969,1514.7969 L1250.2969,1512.375 Z " fill="#000000"/><text fill="#000000" font-family="sans-serif" font-size="14" lengthAdjust="spacing" textLength="121" x="1265.5" y="1516.3467">TypeMouvement</text><line style="stroke:#181818;stroke-width:0.5;" x1="1237.5" x2="1388.5" y1="1527.5" y2="1527.5"/><text fill="#000000" font-family="sans-serif" font-size="14" lengthAdjust="spacing" textLength="44" x="1242.5" y="1544.4951">RIGHT</text><text fill="#000000" font-family="sans-serif" font-size="14" lengthAdjust="spacing" textLength="34" x="1242.5" y="1560.792">LEFT</text><text fill="#000000" font-family="sans-serif" font-size="14" lengthAdjust="spacing" textLength="18" x="1242.5" y="1577.0889">UP</text><text fill="#000000" font-family="sans-serif" font-size="14" lengthAdjust="spacing" textLength="46" x="1242.5" y="1593.3857">DOWN</text><line style="stroke:#181818;stroke-width:0.5;" x1="1237.5" x2="1388.5" y1="1600.6875" y2="1600.6875"/></g><!--class ElementMonde--><g id="elem_ElementMonde"><rect codeLine="10" fill="#F1F1F1" height="227.2656" id="ElementMonde" rx="2.5" ry="2.5" style="stroke:#181818;stroke-width:0.5;" width="409" x="2542.5" y="490.5"/><ellipse cx="2689.25" cy="506.5" fill="#A9DCDF" rx="11" ry="11" style="stroke:#181818;stroke-width:1.0;"/><path d="M2691.3281,508.3125 L2691.7188,509.2969 L2691.3281,509.2969 C2690.875,509.2969 2690.7656,509.3125 2690.6094,509.4219 C2690.3594,509.5781 2690.2031,509.8594 2690.2031,510.1563 C2690.2031,510.4219 2690.3438,510.6719 2690.5625,510.8281 C2690.7031,510.9531 2690.9063,511 2691.3281,511 L2693.6875,511 C2694.0469,511 2694.2656,510.9688 2694.4063,510.875 C2694.6563,510.7344 2694.8125,510.4375 2694.8125,510.1563 C2694.8125,509.875 2694.6719,509.625 2694.4531,509.4688 C2694.2813,509.3281 2694.125,509.2969 2693.6563,509.2969 L2690.2656,501.0938 L2686.5938,501.0938 C2686.1406,501.0938 2686.0156,501.1094 2685.8594,501.2031 C2685.6094,501.375 2685.4531,501.6563 2685.4531,501.9375 C2685.4531,502.2188 2685.5938,502.4688 2685.8125,502.6406 C2685.9844,502.75 2686.1563,502.7813 2686.5938,502.7813 L2687.6719,502.7813 L2685.0313,509.2969 C2684.6094,509.2969 2684.4531,509.3125 2684.2969,509.4219 C2684.0469,509.5781 2683.8906,509.8594 2683.8906,510.1563 C2683.8906,510.7188 2684.2656,511 2685.0156,511 L2687.2813,511 C2687.6406,511 2687.8594,510.9688 2687.9844,510.875 C2688.25,510.7344 2688.3906,510.4375 2688.3906,510.1563 C2688.3906,509.875 2688.2656,509.625 2688.0469,509.4531 C2687.875,509.3281 2687.7344,509.2969 2687.2813,509.2969 L2686.8906,509.2969 L2687.2813,508.3125 L2691.3281,508.3125 Z M2690.625,506.6094 L2687.9531,506.6094 L2689.2969,503.3438 L2690.625,506.6094 Z " fill="#000000"/><text fill="#000000" font-family="sans-serif" font-size="14" font-style="italic" lengthAdjust="spacing" textLength="107" x="2709.75" y="511.3467">ElementMonde</text><line style="stroke:#181818;stroke-width:0.5;" x1="2543.5" x2="2950.5" y1="522.5" y2="522.5"/><polygon fill="none" points="2553.5,531.1484,2557.5,535.1484,2553.5,539.1484,2549.5,535.1484" style="stroke:#B38D22;stroke-width:1.0;"/><text fill="#000000" font-family="sans-serif" font-size="14" lengthAdjust="spacing" textLength="61" x="2562.5" y="539.4951">double x</text><polygon fill="none" points="2553.5,547.4453,2557.5,551.4453,2553.5,555.4453,2549.5,551.4453" style="stroke:#B38D22;stroke-width:1.0;"/><text fill="#000000" font-family="sans-serif" font-size="14" lengthAdjust="spacing" textLength="61" x="2562.5" y="555.792">double y</text><polygon fill="none" points="2553.5,563.7422,2557.5,567.7422,2553.5,571.7422,2549.5,567.7422" style="stroke:#B38D22;stroke-width:1.0;"/><text fill="#000000" font-family="sans-serif" font-size="14" lengthAdjust="spacing" textLength="108" x="2562.5" y="572.0889">double hauteur</text><polygon fill="none" points="2553.5,580.0391,2557.5,584.0391,2553.5,588.0391,2549.5,584.0391" style="stroke:#B38D22;stroke-width:1.0;"/><text fill="#000000" font-family="sans-serif" font-size="14" lengthAdjust="spacing" textLength="103" x="2562.5" y="588.3857">double largeur</text><rect fill="none" height="6" style="stroke:#C82930;stroke-width:1.0;" width="6" x="2550.5" y="598.3359"/><text fill="#000000" font-family="sans-serif" font-size="14" lengthAdjust="spacing" textLength="74" x="2562.5" y="604.6826">Type type</text><ellipse cx="2553.5" cy="637.9297" fill="#84BE84" rx="3" ry="3" style="stroke:#038048;stroke-width:1.0;"/><text fill="#000000" font-family="sans-serif" font-size="14" lengthAdjust="spacing" textLength="383" x="2562.5" y="641.2764">ElementMonde(Type, double, double, double, double)</text><ellipse cx="2553.5" cy="654.2266" fill="#84BE84" rx="3" ry="3" style="stroke:#038048;stroke-width:1.0;"/><text fill="#000000" font-family="sans-serif" font-size="14" lengthAdjust="spacing" textLength="202" x="2562.5" y="657.5732">ElementMonde(JSONObject)</text><line style="stroke:#181818;stroke-width:1.0;stroke-dasharray:1.0,2.0;" x1="2543.5" x2="2700" y1="620.1328" y2="620.1328"/><text fill="#000000" font-family="sans-serif" font-size="14" lengthAdjust="spacing" textLength="94" x="2700" y="624.4795">Constructeur</text><line style="stroke:#181818;stroke-width:1.0;stroke-dasharray:1.0,2.0;" x1="2794" x2="2950.5" y1="620.1328" y2="620.1328"/><ellipse cx="2553.5" cy="690.8203" fill="#84BE84" rx="3" ry="3" style="stroke:#038048;stroke-width:1.0;"/><text fill="#000000" font-family="sans-serif" font-size="14" lengthAdjust="spacing" textLength="147" x="2562.5" y="694.167">JSONObject toJSON()</text><ellipse cx="2553.5" cy="707.1172" fill="#84BE84" rx="3" ry="3" style="stroke:#038048;stroke-width:1.0;"/><text fill="#000000" font-family="sans-serif" font-size="14" font-style="italic" lengthAdjust="spacing" textLength="122" x="2562.5" y="710.4639">char getSymbol()</text><line style="stroke:#181818;stroke-width:1.0;stroke-dasharray:1.0,2.0;" x1="2543.5" x2="2711.5" y1="673.0234" y2="673.0234"/><text fill="#000000" font-family="sans-serif" font-size="14" lengthAdjust="spacing" textLength="71" x="2711.5" y="677.3701">Méthodes</text><line style="stroke:#181818;stroke-width:1.0;stroke-dasharray:1.0,2.0;" x1="2782.5" x2="2950.5" y1="673.0234" y2="673.0234"/></g><!--class Monde--><g id="elem_Monde"><rect codeLine="135" fill="#F1F1F1" height="373.9375" id="Monde" rx="2.5" ry="2.5" style="stroke:#181818;stroke-width:0.5;" width="656" x="1843" y="417"/><ellipse cx="2142.75" cy="433" fill="#ADD1B2" rx="11" ry="11" style="stroke:#181818;stroke-width:1.0;"/><path d="M2145.0938,428.6719 C2144.1563,428.2344 2143.5625,428.0938 2142.6875,428.0938 C2140.0625,428.0938 2138.0625,430.1719 2138.0625,432.8906 L2138.0625,434.0156 C2138.0625,436.5938 2140.1719,438.4844 2143.0625,438.4844 C2144.2813,438.4844 2145.4375,438.1875 2146.1875,437.6406 C2146.7656,437.2344 2147.0938,436.7813 2147.0938,436.3906 C2147.0938,435.9375 2146.7031,435.5469 2146.2344,435.5469 C2146.0156,435.5469 2145.8125,435.625 2145.625,435.8125 C2145.1719,436.2969 2145.1719,436.2969 2144.9844,436.3906 C2144.5625,436.6563 2143.875,436.7813 2143.1094,436.7813 C2141.0625,436.7813 2139.7656,435.6875 2139.7656,433.9844 L2139.7656,432.8906 C2139.7656,431.1094 2141.0156,429.7969 2142.75,429.7969 C2143.3281,429.7969 2143.9375,429.9531 2144.4063,430.2031 C2144.8906,430.4844 2145.0625,430.7031 2145.1563,431.1094 C2145.2188,431.5156 2145.25,431.6406 2145.3906,431.7656 C2145.5313,431.9063 2145.7656,432.0156 2145.9844,432.0156 C2146.25,432.0156 2146.5156,431.875 2146.6875,431.6563 C2146.7969,431.5 2146.8281,431.3125 2146.8281,430.8906 L2146.8281,429.4688 C2146.8281,429.0313 2146.8125,428.9063 2146.7188,428.75 C2146.5625,428.4844 2146.2813,428.3438 2145.9844,428.3438 C2145.6875,428.3438 2145.4844,428.4375 2145.2656,428.75 L2145.0938,428.6719 Z " fill="#000000"/><text fill="#000000" font-family="sans-serif" font-size="14" lengthAdjust="spacing" textLength="48" x="2163.25" y="437.8467">Monde</text><line style="stroke:#181818;stroke-width:0.5;" x1="1844" x2="2498" y1="449" y2="449"/><ellipse cx="1854" cy="482.9453" fill="#84BE84" rx="3" ry="3" style="stroke:#038048;stroke-width:1.0;"/><text fill="#000000" font-family="sans-serif" font-size="14" lengthAdjust="spacing" textLength="58" x="1863" y="486.292">Monde()</text><line style="stroke:#181818;stroke-width:1.0;stroke-dasharray:1.0,2.0;" x1="1844" x2="2124" y1="465.1484" y2="465.1484"/><text fill="#000000" font-family="sans-serif" font-size="14" lengthAdjust="spacing" textLength="94" x="2124" y="469.4951">Constructeur</text><line style="stroke:#181818;stroke-width:1.0;stroke-dasharray:1.0,2.0;" x1="2218" x2="2498" y1="465.1484" y2="465.1484"/><ellipse cx="1854" cy="519.5391" fill="#84BE84" rx="3" ry="3" style="stroke:#038048;stroke-width:1.0;"/><text fill="#000000" font-family="sans-serif" font-size="14" lengthAdjust="spacing" text-decoration="underline" textLength="171" x="1863" y="522.8857">Monde fromMap(String)</text><ellipse cx="1854" cy="535.8359" fill="#84BE84" rx="3" ry="3" style="stroke:#038048;stroke-width:1.0;"/><text fill="#000000" font-family="sans-serif" font-size="14" lengthAdjust="spacing" text-decoration="underline" textLength="214" x="1863" y="539.1826">Monde fromJSON(JSONObject)</text><ellipse cx="1854" cy="552.1328" fill="#84BE84" rx="3" ry="3" style="stroke:#038048;stroke-width:1.0;"/><text fill="#000000" font-family="sans-serif" font-size="14" lengthAdjust="spacing" text-decoration="underline" textLength="266" x="1863" y="555.4795">Monde fromJSON(JSONObject, String)</text><ellipse cx="1854" cy="568.4297" fill="#84BE84" rx="3" ry="3" style="stroke:#038048;stroke-width:1.0;"/><text fill="#000000" font-family="sans-serif" font-size="14" lengthAdjust="spacing" textLength="197" x="1863" y="571.7764">int intLePlusProche(int, int)</text><ellipse cx="1854" cy="584.7266" fill="#84BE84" rx="3" ry="3" style="stroke:#038048;stroke-width:1.0;"/><text fill="#000000" font-family="sans-serif" font-size="14" lengthAdjust="spacing" textLength="442" x="1863" y="588.0732">Graph&lt;Point2D, DefaultEdge&gt; grapheAlternatif(Monstre, int)</text><ellipse cx="1854" cy="601.0234" fill="#84BE84" rx="3" ry="3" style="stroke:#038048;stroke-width:1.0;"/><text fill="#000000" font-family="sans-serif" font-size="14" lengthAdjust="spacing" textLength="135" x="1863" y="604.3701">void heroAttaque()</text><ellipse cx="1854" cy="617.3203" fill="#84BE84" rx="3" ry="3" style="stroke:#038048;stroke-width:1.0;"/><text fill="#000000" font-family="sans-serif" font-size="14" lengthAdjust="spacing" textLength="359" x="1863" y="620.667">void deplacementHeros(TypeMouvement, double)</text><ellipse cx="1854" cy="633.6172" fill="#84BE84" rx="3" ry="3" style="stroke:#038048;stroke-width:1.0;"/><text fill="#000000" font-family="sans-serif" font-size="14" lengthAdjust="spacing" textLength="206" x="1863" y="636.9639">void deplacementMonstres()</text><ellipse cx="1854" cy="649.9141" fill="#84BE84" rx="3" ry="3" style="stroke:#038048;stroke-width:1.0;"/><text fill="#000000" font-family="sans-serif" font-size="14" lengthAdjust="spacing" textLength="315" x="1863" y="653.2607">void deplacementMonstre(Monstre, double)</text><ellipse cx="1854" cy="666.2109" fill="#84BE84" rx="3" ry="3" style="stroke:#038048;stroke-width:1.0;"/><text fill="#000000" font-family="sans-serif" font-size="14" lengthAdjust="spacing" textLength="630" x="1863" y="669.5576">void pathfinding(Monstre, int, Graph&lt;Point2D, DefaultEdge&gt;, Point2D, Point2D, double)</text><ellipse cx="1854" cy="682.5078" fill="#84BE84" rx="3" ry="3" style="stroke:#038048;stroke-width:1.0;"/><text fill="#000000" font-family="sans-serif" font-size="14" lengthAdjust="spacing" textLength="434" x="1863" y="685.8545">TypeMouvement getMouvement(Point2D, Point2D, Monstre)</text><ellipse cx="1854" cy="698.8047" fill="#84BE84" rx="3" ry="3" style="stroke:#038048;stroke-width:1.0;"/><text fill="#000000" font-family="sans-serif" font-size="14" lengthAdjust="spacing" textLength="306" x="1863" y="702.1514">void mouvementRandom(Monstre, double)</text><ellipse cx="1854" cy="715.1016" fill="#84BE84" rx="3" ry="3" style="stroke:#038048;stroke-width:1.0;"/><text fill="#000000" font-family="sans-serif" font-size="14" lengthAdjust="spacing" textLength="315" x="1863" y="718.4482">boolean collisionAvec(Personnage, boolean)</text><ellipse cx="1854" cy="731.3984" fill="#84BE84" rx="3" ry="3" style="stroke:#038048;stroke-width:1.0;"/><text fill="#000000" font-family="sans-serif" font-size="14" lengthAdjust="spacing" textLength="307" x="1863" y="734.7451">boolean collisionAvecTerrains(Personnage)</text><ellipse cx="1854" cy="747.6953" fill="#84BE84" rx="3" ry="3" style="stroke:#038048;stroke-width:1.0;"/><text fill="#000000" font-family="sans-serif" font-size="14" lengthAdjust="spacing" textLength="198" x="1863" y="751.042">void heroRamassageObjet()</text><polygon fill="#FFFF44" points="1854,758.9922,1858,762.9922,1854,766.9922,1850,762.9922" style="stroke:#B38D22;stroke-width:1.0;"/><text fill="#000000" font-family="sans-serif" font-size="14" lengthAdjust="spacing" textLength="356" x="1863" y="767.3389">boolean collision(ElementMonde, ElementMonde)</text><rect fill="#F24D5C" height="6" style="stroke:#C82930;stroke-width:1.0;" width="6" x="1851" y="777.2891"/><text fill="#000000" font-family="sans-serif" font-size="14" lengthAdjust="spacing" textLength="183" x="1863" y="783.6357">void chargerCarte(String)</text><line style="stroke:#181818;stroke-width:1.0;stroke-dasharray:1.0,2.0;" x1="1844" x2="2135.5" y1="501.7422" y2="501.7422"/><text fill="#000000" font-family="sans-serif" font-size="14" lengthAdjust="spacing" textLength="71" x="2135.5" y="506.0889">Méthodes</text><line style="stroke:#181818;stroke-width:1.0;stroke-dasharray:1.0,2.0;" x1="2206.5" x2="2498" y1="501.7422" y2="501.7422"/></g><!--class Terrain--><g id="elem_Terrain"><rect codeLine="25" fill="#F1F1F1" height="145.7813" id="Terrain" rx="2.5" ry="2.5" style="stroke:#181818;stroke-width:0.5;" width="351" x="849.5" y="1142.5"/><ellipse cx="994.75" cy="1158.5" fill="#A9DCDF" rx="11" ry="11" style="stroke:#181818;stroke-width:1.0;"/><path d="M996.8281,1160.3125 L997.2188,1161.2969 L996.8281,1161.2969 C996.375,1161.2969 996.2656,1161.3125 996.1094,1161.4219 C995.8594,1161.5781 995.7031,1161.8594 995.7031,1162.1563 C995.7031,1162.4219 995.8438,1162.6719 996.0625,1162.8281 C996.2031,1162.9531 996.4063,1163 996.8281,1163 L999.1875,1163 C999.5469,1163 999.7656,1162.9688 999.9063,1162.875 C1000.1563,1162.7344 1000.3125,1162.4375 1000.3125,1162.1563 C1000.3125,1161.875 1000.1719,1161.625 999.9531,1161.4688 C999.7813,1161.3281 999.625,1161.2969 999.1563,1161.2969 L995.7656,1153.0938 L992.0938,1153.0938 C991.6406,1153.0938 991.5156,1153.1094 991.3594,1153.2031 C991.1094,1153.375 990.9531,1153.6563 990.9531,1153.9375 C990.9531,1154.2188 991.0938,1154.4688 991.3125,1154.6406 C991.4844,1154.75 991.6563,1154.7813 992.0938,1154.7813 L993.1719,1154.7813 L990.5313,1161.2969 C990.1094,1161.2969 989.9531,1161.3125 989.7969,1161.4219 C989.5469,1161.5781 989.3906,1161.8594 989.3906,1162.1563 C989.3906,1162.7188 989.7656,1163 990.5156,1163 L992.7813,1163 C993.1406,1163 993.3594,1162.9688 993.4844,1162.875 C993.75,1162.7344 993.8906,1162.4375 993.8906,1162.1563 C993.8906,1161.875 993.7656,1161.625 993.5469,1161.4531 C993.375,1161.3281 993.2344,1161.2969 992.7813,1161.2969 L992.3906,1161.2969 L992.7813,1160.3125 L996.8281,1160.3125 Z M996.125,1158.6094 L993.4531,1158.6094 L994.7969,1155.3438 L996.125,1158.6094 Z " fill="#000000"/><text fill="#000000" font-family="sans-serif" font-size="14" font-style="italic" lengthAdjust="spacing" textLength="52" x="1015.25" y="1163.3467">Terrain</text><line style="stroke:#181818;stroke-width:0.5;" x1="850.5" x2="1199.5" y1="1174.5" y2="1174.5"/><ellipse cx="860.5" cy="1208.4453" fill="#84BE84" rx="3" ry="3" style="stroke:#038048;stroke-width:1.0;"/><text fill="#000000" font-family="sans-serif" font-size="14" lengthAdjust="spacing" textLength="325" x="869.5" y="1211.792">Terrain(Type, double, double, double, double)</text><ellipse cx="860.5" cy="1224.7422" fill="#84BE84" rx="3" ry="3" style="stroke:#038048;stroke-width:1.0;"/><text fill="#000000" font-family="sans-serif" font-size="14" lengthAdjust="spacing" textLength="144" x="869.5" y="1228.0889">Terrain(JSONObject)</text><line style="stroke:#181818;stroke-width:1.0;stroke-dasharray:1.0,2.0;" x1="850.5" x2="978" y1="1190.6484" y2="1190.6484"/><text fill="#000000" font-family="sans-serif" font-size="14" lengthAdjust="spacing" textLength="94" x="978" y="1194.9951">Constructeur</text><line style="stroke:#181818;stroke-width:1.0;stroke-dasharray:1.0,2.0;" x1="1072" x2="1199.5" y1="1190.6484" y2="1190.6484"/><ellipse cx="860.5" cy="1261.3359" fill="#84BE84" rx="3" ry="3" style="stroke:#038048;stroke-width:1.0;"/><text fill="#000000" font-family="sans-serif" font-size="14" lengthAdjust="spacing" text-decoration="underline" textLength="217" x="869.5" y="1264.6826">Terrain fromJSON(JSONObject)</text><ellipse cx="860.5" cy="1277.6328" fill="#84BE84" rx="3" ry="3" style="stroke:#038048;stroke-width:1.0;"/><text fill="#000000" font-family="sans-serif" font-size="14" lengthAdjust="spacing" textLength="179" x="869.5" y="1280.9795">boolean estTraversable()</text><line style="stroke:#181818;stroke-width:1.0;stroke-dasharray:1.0,2.0;" x1="850.5" x2="989.5" y1="1243.5391" y2="1243.5391"/><text fill="#000000" font-family="sans-serif" font-size="14" lengthAdjust="spacing" textLength="71" x="989.5" y="1247.8857">Méthodes</text><line style="stroke:#181818;stroke-width:1.0;stroke-dasharray:1.0,2.0;" x1="1060.5" x2="1199.5" y1="1243.5391" y2="1243.5391"/></g><!--class Mur--><g id="elem_Mur"><rect codeLine="34" fill="#F1F1F1" height="145.7813" id="Mur" rx="2.5" ry="2.5" style="stroke:#181818;stroke-width:0.5;" width="282" x="919" y="1479"/><ellipse cx="1042.75" cy="1495" fill="#ADD1B2" rx="11" ry="11" style="stroke:#181818;stroke-width:1.0;"/><path d="M1045.0938,1490.6719 C1044.1563,1490.2344 1043.5625,1490.0938 1042.6875,1490.0938 C1040.0625,1490.0938 1038.0625,1492.1719 1038.0625,1494.8906 L1038.0625,1496.0156 C1038.0625,1498.5938 1040.1719,1500.4844 1043.0625,1500.4844 C1044.2813,1500.4844 1045.4375,1500.1875 1046.1875,1499.6406 C1046.7656,1499.2344 1047.0938,1498.7813 1047.0938,1498.3906 C1047.0938,1497.9375 1046.7031,1497.5469 1046.2344,1497.5469 C1046.0156,1497.5469 1045.8125,1497.625 1045.625,1497.8125 C1045.1719,1498.2969 1045.1719,1498.2969 1044.9844,1498.3906 C1044.5625,1498.6563 1043.875,1498.7813 1043.1094,1498.7813 C1041.0625,1498.7813 1039.7656,1497.6875 1039.7656,1495.9844 L1039.7656,1494.8906 C1039.7656,1493.1094 1041.0156,1491.7969 1042.75,1491.7969 C1043.3281,1491.7969 1043.9375,1491.9531 1044.4063,1492.2031 C1044.8906,1492.4844 1045.0625,1492.7031 1045.1563,1493.1094 C1045.2188,1493.5156 1045.25,1493.6406 1045.3906,1493.7656 C1045.5313,1493.9063 1045.7656,1494.0156 1045.9844,1494.0156 C1046.25,1494.0156 1046.5156,1493.875 1046.6875,1493.6563 C1046.7969,1493.5 1046.8281,1493.3125 1046.8281,1492.8906 L1046.8281,1491.4688 C1046.8281,1491.0313 1046.8125,1490.9063 1046.7188,1490.75 C1046.5625,1490.4844 1046.2813,1490.3438 1045.9844,1490.3438 C1045.6875,1490.3438 1045.4844,1490.4375 1045.2656,1490.75 L1045.0938,1490.6719 Z " fill="#000000"/><text fill="#000000" font-family="sans-serif" font-size="14" lengthAdjust="spacing" textLength="26" x="1063.25" y="1499.8467">Mur</text><line style="stroke:#181818;stroke-width:0.5;" x1="920" x2="1200" y1="1511" y2="1511"/><ellipse cx="930" cy="1544.9453" fill="#84BE84" rx="3" ry="3" style="stroke:#038048;stroke-width:1.0;"/><text fill="#000000" font-family="sans-serif" font-size="14" lengthAdjust="spacing" textLength="256" x="939" y="1548.292">Mur(double, double, double, double)</text><ellipse cx="930" cy="1561.2422" fill="#84BE84" rx="3" ry="3" style="stroke:#038048;stroke-width:1.0;"/><text fill="#000000" font-family="sans-serif" font-size="14" lengthAdjust="spacing" textLength="119" x="939" y="1564.5889">Mur(JSONObject)</text><line style="stroke:#181818;stroke-width:1.0;stroke-dasharray:1.0,2.0;" x1="920" x2="1013" y1="1527.1484" y2="1527.1484"/><text fill="#000000" font-family="sans-serif" font-size="14" lengthAdjust="spacing" textLength="94" x="1013" y="1531.4951">Constructeur</text><line style="stroke:#181818;stroke-width:1.0;stroke-dasharray:1.0,2.0;" x1="1107" x2="1200" y1="1527.1484" y2="1527.1484"/><ellipse cx="930" cy="1597.8359" fill="#84BE84" rx="3" ry="3" style="stroke:#038048;stroke-width:1.0;"/><text fill="#000000" font-family="sans-serif" font-size="14" lengthAdjust="spacing" textLength="179" x="939" y="1601.1826">boolean estTraversable()</text><ellipse cx="930" cy="1614.1328" fill="#84BE84" rx="3" ry="3" style="stroke:#038048;stroke-width:1.0;"/><text fill="#000000" font-family="sans-serif" font-size="14" lengthAdjust="spacing" textLength="124" x="939" y="1617.4795">char getSymbol()</text><line style="stroke:#181818;stroke-width:1.0;stroke-dasharray:1.0,2.0;" x1="920" x2="1024.5" y1="1580.0391" y2="1580.0391"/><text fill="#000000" font-family="sans-serif" font-size="14" lengthAdjust="spacing" textLength="71" x="1024.5" y="1584.3857">Méthodes</text><line style="stroke:#181818;stroke-width:1.0;stroke-dasharray:1.0,2.0;" x1="1095.5" x2="1200" y1="1580.0391" y2="1580.0391"/></g><!--class BordureMonde--><g id="elem_BordureMonde"><rect codeLine="43" fill="#F1F1F1" height="129.4844" id="BordureMonde" rx="2.5" ry="2.5" style="stroke:#181818;stroke-width:0.5;" width="247" x="636.5" y="1487.5"/><ellipse cx="703.25" cy="1503.5" fill="#ADD1B2" rx="11" ry="11" style="stroke:#181818;stroke-width:1.0;"/><path d="M705.5938,1499.1719 C704.6563,1498.7344 704.0625,1498.5938 703.1875,1498.5938 C700.5625,1498.5938 698.5625,1500.6719 698.5625,1503.3906 L698.5625,1504.5156 C698.5625,1507.0938 700.6719,1508.9844 703.5625,1508.9844 C704.7813,1508.9844 705.9375,1508.6875 706.6875,1508.1406 C707.2656,1507.7344 707.5938,1507.2813 707.5938,1506.8906 C707.5938,1506.4375 707.2031,1506.0469 706.7344,1506.0469 C706.5156,1506.0469 706.3125,1506.125 706.125,1506.3125 C705.6719,1506.7969 705.6719,1506.7969 705.4844,1506.8906 C705.0625,1507.1563 704.375,1507.2813 703.6094,1507.2813 C701.5625,1507.2813 700.2656,1506.1875 700.2656,1504.4844 L700.2656,1503.3906 C700.2656,1501.6094 701.5156,1500.2969 703.25,1500.2969 C703.8281,1500.2969 704.4375,1500.4531 704.9063,1500.7031 C705.3906,1500.9844 705.5625,1501.2031 705.6563,1501.6094 C705.7188,1502.0156 705.75,1502.1406 705.8906,1502.2656 C706.0313,1502.4063 706.2656,1502.5156 706.4844,1502.5156 C706.75,1502.5156 707.0156,1502.375 707.1875,1502.1563 C707.2969,1502 707.3281,1501.8125 707.3281,1501.3906 L707.3281,1499.9688 C707.3281,1499.5313 707.3125,1499.4063 707.2188,1499.25 C707.0625,1498.9844 706.7813,1498.8438 706.4844,1498.8438 C706.1875,1498.8438 705.9844,1498.9375 705.7656,1499.25 L705.5938,1499.1719 Z " fill="#000000"/><text fill="#000000" font-family="sans-serif" font-size="14" lengthAdjust="spacing" textLength="105" x="723.75" y="1508.3467">BordureMonde</text><line style="stroke:#181818;stroke-width:0.5;" x1="637.5" x2="882.5" y1="1519.5" y2="1519.5"/><ellipse cx="647.5" cy="1553.4453" fill="#84BE84" rx="3" ry="3" style="stroke:#038048;stroke-width:1.0;"/><text fill="#000000" font-family="sans-serif" font-size="14" lengthAdjust="spacing" textLength="221" x="656.5" y="1556.792">BordureMonde(double, double)</text><line style="stroke:#181818;stroke-width:1.0;stroke-dasharray:1.0,2.0;" x1="637.5" x2="713" y1="1535.6484" y2="1535.6484"/><text fill="#000000" font-family="sans-serif" font-size="14" lengthAdjust="spacing" textLength="94" x="713" y="1539.9951">Constructeur</text><line style="stroke:#181818;stroke-width:1.0;stroke-dasharray:1.0,2.0;" x1="807" x2="882.5" y1="1535.6484" y2="1535.6484"/><ellipse cx="647.5" cy="1590.0391" fill="#84BE84" rx="3" ry="3" style="stroke:#038048;stroke-width:1.0;"/><text fill="#000000" font-family="sans-serif" font-size="14" lengthAdjust="spacing" textLength="179" x="656.5" y="1593.3857">boolean estTraversable()</text><ellipse cx="647.5" cy="1606.3359" fill="#84BE84" rx="3" ry="3" style="stroke:#038048;stroke-width:1.0;"/><text fill="#000000" font-family="sans-serif" font-size="14" lengthAdjust="spacing" textLength="124" x="656.5" y="1609.6826">char getSymbol()</text><line style="stroke:#181818;stroke-width:1.0;stroke-dasharray:1.0,2.0;" x1="637.5" x2="724.5" y1="1572.2422" y2="1572.2422"/><text fill="#000000" font-family="sans-serif" font-size="14" lengthAdjust="spacing" textLength="71" x="724.5" y="1576.5889">Méthodes</text><line style="stroke:#181818;stroke-width:1.0;stroke-dasharray:1.0,2.0;" x1="795.5" x2="882.5" y1="1572.2422" y2="1572.2422"/></g><!--class Personnage--><g id="elem_Personnage"><rect codeLine="53" fill="#F1F1F1" height="341.3438" id="Personnage" rx="2.5" ry="2.5" style="stroke:#181818;stroke-width:0.5;" width="583" x="1879.5" y="1045"/><ellipse cx="2124.75" cy="1061" fill="#A9DCDF" rx="11" ry="11" style="stroke:#181818;stroke-width:1.0;"/><path d="M2126.8281,1062.8125 L2127.2188,1063.7969 L2126.8281,1063.7969 C2126.375,1063.7969 2126.2656,1063.8125 2126.1094,1063.9219 C2125.8594,1064.0781 2125.7031,1064.3594 2125.7031,1064.6563 C2125.7031,1064.9219 2125.8438,1065.1719 2126.0625,1065.3281 C2126.2031,1065.4531 2126.4063,1065.5 2126.8281,1065.5 L2129.1875,1065.5 C2129.5469,1065.5 2129.7656,1065.4688 2129.9063,1065.375 C2130.1563,1065.2344 2130.3125,1064.9375 2130.3125,1064.6563 C2130.3125,1064.375 2130.1719,1064.125 2129.9531,1063.9688 C2129.7813,1063.8281 2129.625,1063.7969 2129.1563,1063.7969 L2125.7656,1055.5938 L2122.0938,1055.5938 C2121.6406,1055.5938 2121.5156,1055.6094 2121.3594,1055.7031 C2121.1094,1055.875 2120.9531,1056.1563 2120.9531,1056.4375 C2120.9531,1056.7188 2121.0938,1056.9688 2121.3125,1057.1406 C2121.4844,1057.25 2121.6563,1057.2813 2122.0938,1057.2813 L2123.1719,1057.2813 L2120.5313,1063.7969 C2120.1094,1063.7969 2119.9531,1063.8125 2119.7969,1063.9219 C2119.5469,1064.0781 2119.3906,1064.3594 2119.3906,1064.6563 C2119.3906,1065.2188 2119.7656,1065.5 2120.5156,1065.5 L2122.7813,1065.5 C2123.1406,1065.5 2123.3594,1065.4688 2123.4844,1065.375 C2123.75,1065.2344 2123.8906,1064.9375 2123.8906,1064.6563 C2123.8906,1064.375 2123.7656,1064.125 2123.5469,1063.9531 C2123.375,1063.8281 2123.2344,1063.7969 2122.7813,1063.7969 L2122.3906,1063.7969 L2122.7813,1062.8125 L2126.8281,1062.8125 Z M2126.125,1061.1094 L2123.4531,1061.1094 L2124.7969,1057.8438 L2126.125,1061.1094 Z " fill="#000000"/><text fill="#000000" font-family="sans-serif" font-size="14" font-style="italic" lengthAdjust="spacing" textLength="84" x="2145.25" y="1065.8467">Personnage</text><line style="stroke:#181818;stroke-width:0.5;" x1="1880.5" x2="2461.5" y1="1077" y2="1077"/><polygon fill="none" points="1890.5,1085.6484,1894.5,1089.6484,1890.5,1093.6484,1886.5,1089.6484" style="stroke:#B38D22;stroke-width:1.0;"/><text fill="#000000" font-family="sans-serif" font-size="14" lengthAdjust="spacing" textLength="37" x="1899.5" y="1093.9951">int id</text><polygon fill="none" points="1890.5,1101.9453,1894.5,1105.9453,1890.5,1109.9453,1886.5,1105.9453" style="stroke:#B38D22;stroke-width:1.0;"/><text fill="#000000" font-family="sans-serif" font-size="14" lengthAdjust="spacing" textLength="104" x="1899.5" y="1110.292">double vitesse</text><polygon fill="none" points="1890.5,1118.2422,1894.5,1122.2422,1890.5,1126.2422,1886.5,1122.2422" style="stroke:#B38D22;stroke-width:1.0;"/><text fill="#000000" font-family="sans-serif" font-size="14" lengthAdjust="spacing" textLength="100" x="1899.5" y="1126.5889">double coeurs</text><polygon fill="none" points="1890.5,1134.5391,1894.5,1138.5391,1890.5,1142.5391,1886.5,1138.5391" style="stroke:#B38D22;stroke-width:1.0;"/><text fill="#000000" font-family="sans-serif" font-size="14" lengthAdjust="spacing" textLength="128" x="1899.5" y="1142.8857">double coeursMax</text><rect fill="none" height="6" style="stroke:#C82930;stroke-width:1.0;" width="6" x="1887.5" y="1152.8359"/><text fill="#000000" font-family="sans-serif" font-size="14" lengthAdjust="spacing" textLength="102" x="1899.5" y="1159.1826">double degats</text><ellipse cx="1890.5" cy="1192.4297" fill="#84BE84" rx="3" ry="3" style="stroke:#038048;stroke-width:1.0;"/><text fill="#000000" font-family="sans-serif" font-size="14" lengthAdjust="spacing" textLength="557" x="1899.5" y="1195.7764">Personnage(Type, double, double, double, double, double, double, double, int)</text><ellipse cx="1890.5" cy="1208.7266" fill="#84BE84" rx="3" ry="3" style="stroke:#038048;stroke-width:1.0;"/><text fill="#000000" font-family="sans-serif" font-size="14" lengthAdjust="spacing" textLength="177" x="1899.5" y="1212.0732">Personnage(JSONObject)</text><line style="stroke:#181818;stroke-width:1.0;stroke-dasharray:1.0,2.0;" x1="1880.5" x2="2124" y1="1174.6328" y2="1174.6328"/><text fill="#000000" font-family="sans-serif" font-size="14" lengthAdjust="spacing" textLength="94" x="2124" y="1178.9795">Constructeur</text><line style="stroke:#181818;stroke-width:1.0;stroke-dasharray:1.0,2.0;" x1="2218" x2="2461.5" y1="1174.6328" y2="1174.6328"/><ellipse cx="1890.5" cy="1245.3203" fill="#84BE84" rx="3" ry="3" style="stroke:#038048;stroke-width:1.0;"/><text fill="#000000" font-family="sans-serif" font-size="14" lengthAdjust="spacing" text-decoration="underline" textLength="250" x="1899.5" y="1248.667">Personnage fromJSON(JSONObject)</text><ellipse cx="1890.5" cy="1261.6172" fill="#84BE84" rx="3" ry="3" style="stroke:#038048;stroke-width:1.0;"/><text fill="#000000" font-family="sans-serif" font-size="14" lengthAdjust="spacing" textLength="147" x="1899.5" y="1264.9639">JSONObject toJSON()</text><ellipse cx="1890.5" cy="1277.9141" fill="#84BE84" rx="3" ry="3" style="stroke:#038048;stroke-width:1.0;"/><text fill="#000000" font-family="sans-serif" font-size="14" lengthAdjust="spacing" textLength="285" x="1899.5" y="1281.2607">void deplacer(TypeMouvement, double)</text><ellipse cx="1890.5" cy="1294.2109" fill="#84BE84" rx="3" ry="3" style="stroke:#038048;stroke-width:1.0;"/><text fill="#000000" font-family="sans-serif" font-size="14" lengthAdjust="spacing" textLength="238" x="1899.5" y="1297.5576">void attaquer(List&lt;Personnage&gt;)</text><ellipse cx="1890.5" cy="1310.5078" fill="#84BE84" rx="3" ry="3" style="stroke:#038048;stroke-width:1.0;"/><text fill="#000000" font-family="sans-serif" font-size="14" lengthAdjust="spacing" textLength="237" x="1899.5" y="1313.8545">Rectangle2D getHitboxAttaque()</text><ellipse cx="1890.5" cy="1326.8047" fill="#84BE84" rx="3" ry="3" style="stroke:#038048;stroke-width:1.0;"/><text fill="#000000" font-family="sans-serif" font-size="14" lengthAdjust="spacing" textLength="239" x="1899.5" y="1330.1514">Rectangle2D getHitboxCollision()</text><ellipse cx="1890.5" cy="1343.1016" fill="#84BE84" rx="3" ry="3" style="stroke:#038048;stroke-width:1.0;"/><text fill="#000000" font-family="sans-serif" font-size="14" lengthAdjust="spacing" textLength="154" x="1899.5" y="1346.4482">boolean estUnHeros()</text><ellipse cx="1890.5" cy="1359.3984" fill="#84BE84" rx="3" ry="3" style="stroke:#038048;stroke-width:1.0;"/><text fill="#000000" font-family="sans-serif" font-size="14" lengthAdjust="spacing" textLength="141" x="1899.5" y="1362.7451">boolean estVivant()</text><ellipse cx="1890.5" cy="1375.6953" fill="#84BE84" rx="3" ry="3" style="stroke:#038048;stroke-width:1.0;"/><text fill="#000000" font-family="sans-serif" font-size="14" font-style="italic" lengthAdjust="spacing" textLength="137" x="1899.5" y="1379.042">Personnage clone()</text><line style="stroke:#181818;stroke-width:1.0;stroke-dasharray:1.0,2.0;" x1="1880.5" x2="2135.5" y1="1227.5234" y2="1227.5234"/><text fill="#000000" font-family="sans-serif" font-size="14" lengthAdjust="spacing" textLength="71" x="2135.5" y="1231.8701">Méthodes</text><line style="stroke:#181818;stroke-width:1.0;stroke-dasharray:1.0,2.0;" x1="2206.5" x2="2461.5" y1="1227.5234" y2="1227.5234"/></g><!--class Heros--><g id="elem_Heros"><rect codeLine="74" fill="#F1F1F1" height="162.0781" id="Heros" rx="2.5" ry="2.5" style="stroke:#181818;stroke-width:0.5;" width="496" x="2018" y="1471"/><ellipse cx="2241.25" cy="1487" fill="#ADD1B2" rx="11" ry="11" style="stroke:#181818;stroke-width:1.0;"/><path d="M2243.5938,1482.6719 C2242.6563,1482.2344 2242.0625,1482.0938 2241.1875,1482.0938 C2238.5625,1482.0938 2236.5625,1484.1719 2236.5625,1486.8906 L2236.5625,1488.0156 C2236.5625,1490.5938 2238.6719,1492.4844 2241.5625,1492.4844 C2242.7813,1492.4844 2243.9375,1492.1875 2244.6875,1491.6406 C2245.2656,1491.2344 2245.5938,1490.7813 2245.5938,1490.3906 C2245.5938,1489.9375 2245.2031,1489.5469 2244.7344,1489.5469 C2244.5156,1489.5469 2244.3125,1489.625 2244.125,1489.8125 C2243.6719,1490.2969 2243.6719,1490.2969 2243.4844,1490.3906 C2243.0625,1490.6563 2242.375,1490.7813 2241.6094,1490.7813 C2239.5625,1490.7813 2238.2656,1489.6875 2238.2656,1487.9844 L2238.2656,1486.8906 C2238.2656,1485.1094 2239.5156,1483.7969 2241.25,1483.7969 C2241.8281,1483.7969 2242.4375,1483.9531 2242.9063,1484.2031 C2243.3906,1484.4844 2243.5625,1484.7031 2243.6563,1485.1094 C2243.7188,1485.5156 2243.75,1485.6406 2243.8906,1485.7656 C2244.0313,1485.9063 2244.2656,1486.0156 2244.4844,1486.0156 C2244.75,1486.0156 2245.0156,1485.875 2245.1875,1485.6563 C2245.2969,1485.5 2245.3281,1485.3125 2245.3281,1484.8906 L2245.3281,1483.4688 C2245.3281,1483.0313 2245.3125,1482.9063 2245.2188,1482.75 C2245.0625,1482.4844 2244.7813,1482.3438 2244.4844,1482.3438 C2244.1875,1482.3438 2243.9844,1482.4375 2243.7656,1482.75 L2243.5938,1482.6719 Z " fill="#000000"/><text fill="#000000" font-family="sans-serif" font-size="14" lengthAdjust="spacing" textLength="41" x="2261.75" y="1491.8467">Heros</text><line style="stroke:#181818;stroke-width:0.5;" x1="2019" x2="2513" y1="1503" y2="1503"/><ellipse cx="2029" cy="1536.9453" fill="#84BE84" rx="3" ry="3" style="stroke:#038048;stroke-width:1.0;"/><text fill="#000000" font-family="sans-serif" font-size="14" lengthAdjust="spacing" textLength="470" x="2038" y="1540.292">Heros(double, double, double, double, double, double, double, int)</text><ellipse cx="2029" cy="1553.2422" fill="#84BE84" rx="3" ry="3" style="stroke:#038048;stroke-width:1.0;"/><text fill="#000000" font-family="sans-serif" font-size="14" lengthAdjust="spacing" textLength="134" x="2038" y="1556.5889">Heros(JSONObject)</text><line style="stroke:#181818;stroke-width:1.0;stroke-dasharray:1.0,2.0;" x1="2019" x2="2219" y1="1519.1484" y2="1519.1484"/><text fill="#000000" font-family="sans-serif" font-size="14" lengthAdjust="spacing" textLength="94" x="2219" y="1523.4951">Constructeur</text><line style="stroke:#181818;stroke-width:1.0;stroke-dasharray:1.0,2.0;" x1="2313" x2="2513" y1="1519.1484" y2="1519.1484"/><ellipse cx="2029" cy="1589.8359" fill="#84BE84" rx="3" ry="3" style="stroke:#038048;stroke-width:1.0;"/><text fill="#000000" font-family="sans-serif" font-size="14" lengthAdjust="spacing" textLength="154" x="2038" y="1593.1826">boolean estUnHeros()</text><ellipse cx="2029" cy="1606.1328" fill="#84BE84" rx="3" ry="3" style="stroke:#038048;stroke-width:1.0;"/><text fill="#000000" font-family="sans-serif" font-size="14" lengthAdjust="spacing" textLength="124" x="2038" y="1609.4795">char getSymbol()</text><ellipse cx="2029" cy="1622.4297" fill="#84BE84" rx="3" ry="3" style="stroke:#038048;stroke-width:1.0;"/><text fill="#000000" font-family="sans-serif" font-size="14" lengthAdjust="spacing" textLength="94" x="2038" y="1625.7764">Heros clone()</text><line style="stroke:#181818;stroke-width:1.0;stroke-dasharray:1.0,2.0;" x1="2019" x2="2230.5" y1="1572.0391" y2="1572.0391"/><text fill="#000000" font-family="sans-serif" font-size="14" lengthAdjust="spacing" textLength="71" x="2230.5" y="1576.3857">Méthodes</text><line style="stroke:#181818;stroke-width:1.0;stroke-dasharray:1.0,2.0;" x1="2301.5" x2="2513" y1="1572.0391" y2="1572.0391"/></g><!--class Monstre--><g id="elem_Monstre"><rect codeLine="84" fill="#F1F1F1" height="141.7813" id="Monstre" rx="2.5" ry="2.5" style="stroke:#181818;stroke-width:0.5;" width="558" x="1425" y="1481"/><ellipse cx="1671.25" cy="1497" fill="#A9DCDF" rx="11" ry="11" style="stroke:#181818;stroke-width:1.0;"/><path d="M1673.3281,1498.8125 L1673.7188,1499.7969 L1673.3281,1499.7969 C1672.875,1499.7969 1672.7656,1499.8125 1672.6094,1499.9219 C1672.3594,1500.0781 1672.2031,1500.3594 1672.2031,1500.6563 C1672.2031,1500.9219 1672.3438,1501.1719 1672.5625,1501.3281 C1672.7031,1501.4531 1672.9063,1501.5 1673.3281,1501.5 L1675.6875,1501.5 C1676.0469,1501.5 1676.2656,1501.4688 1676.4063,1501.375 C1676.6563,1501.2344 1676.8125,1500.9375 1676.8125,1500.6563 C1676.8125,1500.375 1676.6719,1500.125 1676.4531,1499.9688 C1676.2813,1499.8281 1676.125,1499.7969 1675.6563,1499.7969 L1672.2656,1491.5938 L1668.5938,1491.5938 C1668.1406,1491.5938 1668.0156,1491.6094 1667.8594,1491.7031 C1667.6094,1491.875 1667.4531,1492.1563 1667.4531,1492.4375 C1667.4531,1492.7188 1667.5938,1492.9688 1667.8125,1493.1406 C1667.9844,1493.25 1668.1563,1493.2813 1668.5938,1493.2813 L1669.6719,1493.2813 L1667.0313,1499.7969 C1666.6094,1499.7969 1666.4531,1499.8125 1666.2969,1499.9219 C1666.0469,1500.0781 1665.8906,1500.3594 1665.8906,1500.6563 C1665.8906,1501.2188 1666.2656,1501.5 1667.0156,1501.5 L1669.2813,1501.5 C1669.6406,1501.5 1669.8594,1501.4688 1669.9844,1501.375 C1670.25,1501.2344 1670.3906,1500.9375 1670.3906,1500.6563 C1670.3906,1500.375 1670.2656,1500.125 1670.0469,1499.9531 C1669.875,1499.8281 1669.7344,1499.7969 1669.2813,1499.7969 L1668.8906,1499.7969 L1669.2813,1498.8125 L1673.3281,1498.8125 Z M1672.625,1497.1094 L1669.9531,1497.1094 L1671.2969,1493.8438 L1672.625,1497.1094 Z " fill="#000000"/><text fill="#000000" font-family="sans-serif" font-size="14" font-style="italic" lengthAdjust="spacing" textLength="57" x="1691.75" y="1501.8467">Monstre</text><line style="stroke:#181818;stroke-width:0.5;" x1="1426" x2="1982" y1="1513" y2="1513"/><polygon fill="none" points="1436,1521.6484,1440,1525.6484,1436,1529.6484,1432,1525.6484" style="stroke:#B38D22;stroke-width:1.0;"/><text fill="#000000" font-family="sans-serif" font-size="14" lengthAdjust="spacing" textLength="417" x="1445" y="1529.9951">ArrayList&lt;TypeMouvement&gt; derniersMouvementsEssayes</text><ellipse cx="1436" cy="1563.2422" fill="#84BE84" rx="3" ry="3" style="stroke:#038048;stroke-width:1.0;"/><text fill="#000000" font-family="sans-serif" font-size="14" lengthAdjust="spacing" textLength="532" x="1445" y="1566.5889">Monstre(Type, double, double, double, double, double, double, double, int)</text><ellipse cx="1436" cy="1579.5391" fill="#84BE84" rx="3" ry="3" style="stroke:#038048;stroke-width:1.0;"/><text fill="#000000" font-family="sans-serif" font-size="14" lengthAdjust="spacing" textLength="152" x="1445" y="1582.8857">Monstre(JSONObject)</text><ellipse cx="1436" cy="1595.8359" fill="#84BE84" rx="3" ry="3" style="stroke:#038048;stroke-width:1.0;"/><text fill="#000000" font-family="sans-serif" font-size="14" lengthAdjust="spacing" textLength="292" x="1445" y="1599.1826">void reinitialiseListMouvementsEssayes()</text><ellipse cx="1436" cy="1612.1328" fill="#84BE84" rx="3" ry="3" style="stroke:#038048;stroke-width:1.0;"/><text fill="#000000" font-family="sans-serif" font-size="14" lengthAdjust="spacing" textLength="341" x="1445" y="1615.4795">boolean mouvementDansList(TypeMouvement)</text><line style="stroke:#181818;stroke-width:1.0;stroke-dasharray:1.0,2.0;" x1="1426" x2="1657" y1="1545.4453" y2="1545.4453"/><text fill="#000000" font-family="sans-serif" font-size="14" lengthAdjust="spacing" textLength="94" x="1657" y="1549.792">Constructeur</text><line style="stroke:#181818;stroke-width:1.0;stroke-dasharray:1.0,2.0;" x1="1751" x2="1982" y1="1545.4453" y2="1545.4453"/></g><!--class Walker--><g id="elem_Walker"><rect codeLine="93" fill="#F1F1F1" height="145.7813" id="Walker" rx="2.5" ry="2.5" style="stroke:#181818;stroke-width:0.5;" width="505" x="1451.5" y="1704"/><ellipse cx="1674.75" cy="1720" fill="#ADD1B2" rx="11" ry="11" style="stroke:#181818;stroke-width:1.0;"/><path d="M1677.0938,1715.6719 C1676.1563,1715.2344 1675.5625,1715.0938 1674.6875,1715.0938 C1672.0625,1715.0938 1670.0625,1717.1719 1670.0625,1719.8906 L1670.0625,1721.0156 C1670.0625,1723.5938 1672.1719,1725.4844 1675.0625,1725.4844 C1676.2813,1725.4844 1677.4375,1725.1875 1678.1875,1724.6406 C1678.7656,1724.2344 1679.0938,1723.7813 1679.0938,1723.3906 C1679.0938,1722.9375 1678.7031,1722.5469 1678.2344,1722.5469 C1678.0156,1722.5469 1677.8125,1722.625 1677.625,1722.8125 C1677.1719,1723.2969 1677.1719,1723.2969 1676.9844,1723.3906 C1676.5625,1723.6563 1675.875,1723.7813 1675.1094,1723.7813 C1673.0625,1723.7813 1671.7656,1722.6875 1671.7656,1720.9844 L1671.7656,1719.8906 C1671.7656,1718.1094 1673.0156,1716.7969 1674.75,1716.7969 C1675.3281,1716.7969 1675.9375,1716.9531 1676.4063,1717.2031 C1676.8906,1717.4844 1677.0625,1717.7031 1677.1563,1718.1094 C1677.2188,1718.5156 1677.25,1718.6406 1677.3906,1718.7656 C1677.5313,1718.9063 1677.7656,1719.0156 1677.9844,1719.0156 C1678.25,1719.0156 1678.5156,1718.875 1678.6875,1718.6563 C1678.7969,1718.5 1678.8281,1718.3125 1678.8281,1717.8906 L1678.8281,1716.4688 C1678.8281,1716.0313 1678.8125,1715.9063 1678.7188,1715.75 C1678.5625,1715.4844 1678.2813,1715.3438 1677.9844,1715.3438 C1677.6875,1715.3438 1677.4844,1715.4375 1677.2656,1715.75 L1677.0938,1715.6719 Z " fill="#000000"/><text fill="#000000" font-family="sans-serif" font-size="14" lengthAdjust="spacing" textLength="50" x="1695.25" y="1724.8467">Walker</text><line style="stroke:#181818;stroke-width:0.5;" x1="1452.5" x2="1955.5" y1="1736" y2="1736"/><ellipse cx="1462.5" cy="1769.9453" fill="#84BE84" rx="3" ry="3" style="stroke:#038048;stroke-width:1.0;"/><text fill="#000000" font-family="sans-serif" font-size="14" lengthAdjust="spacing" textLength="479" x="1471.5" y="1773.292">Walker(double, double, double, double, double, double, double, int)</text><ellipse cx="1462.5" cy="1786.2422" fill="#84BE84" rx="3" ry="3" style="stroke:#038048;stroke-width:1.0;"/><text fill="#000000" font-family="sans-serif" font-size="14" lengthAdjust="spacing" textLength="143" x="1471.5" y="1789.5889">Walker(JSONObject)</text><line style="stroke:#181818;stroke-width:1.0;stroke-dasharray:1.0,2.0;" x1="1452.5" x2="1657" y1="1752.1484" y2="1752.1484"/><text fill="#000000" font-family="sans-serif" font-size="14" lengthAdjust="spacing" textLength="94" x="1657" y="1756.4951">Constructeur</text><line style="stroke:#181818;stroke-width:1.0;stroke-dasharray:1.0,2.0;" x1="1751" x2="1955.5" y1="1752.1484" y2="1752.1484"/><ellipse cx="1462.5" cy="1822.8359" fill="#84BE84" rx="3" ry="3" style="stroke:#038048;stroke-width:1.0;"/><text fill="#000000" font-family="sans-serif" font-size="14" lengthAdjust="spacing" textLength="124" x="1471.5" y="1826.1826">char getSymbol()</text><ellipse cx="1462.5" cy="1839.1328" fill="#84BE84" rx="3" ry="3" style="stroke:#038048;stroke-width:1.0;"/><text fill="#000000" font-family="sans-serif" font-size="14" lengthAdjust="spacing" textLength="103" x="1471.5" y="1842.4795">Walker clone()</text><line style="stroke:#181818;stroke-width:1.0;stroke-dasharray:1.0,2.0;" x1="1452.5" x2="1668.5" y1="1805.0391" y2="1805.0391"/><text fill="#000000" font-family="sans-serif" font-size="14" lengthAdjust="spacing" textLength="71" x="1668.5" y="1809.3857">Méthodes</text><line style="stroke:#181818;stroke-width:1.0;stroke-dasharray:1.0,2.0;" x1="1739.5" x2="1955.5" y1="1805.0391" y2="1805.0391"/></g><!--class Objet--><g id="elem_Objet"><rect codeLine="103" fill="#F1F1F1" height="178.375" id="Objet" rx="2.5" ry="2.5" style="stroke:#181818;stroke-width:0.5;" width="341" x="2576.5" y="1126.5"/><ellipse cx="2723.75" cy="1142.5" fill="#A9DCDF" rx="11" ry="11" style="stroke:#181818;stroke-width:1.0;"/><path d="M2725.8281,1144.3125 L2726.2188,1145.2969 L2725.8281,1145.2969 C2725.375,1145.2969 2725.2656,1145.3125 2725.1094,1145.4219 C2724.8594,1145.5781 2724.7031,1145.8594 2724.7031,1146.1563 C2724.7031,1146.4219 2724.8438,1146.6719 2725.0625,1146.8281 C2725.2031,1146.9531 2725.4063,1147 2725.8281,1147 L2728.1875,1147 C2728.5469,1147 2728.7656,1146.9688 2728.9063,1146.875 C2729.1563,1146.7344 2729.3125,1146.4375 2729.3125,1146.1563 C2729.3125,1145.875 2729.1719,1145.625 2728.9531,1145.4688 C2728.7813,1145.3281 2728.625,1145.2969 2728.1563,1145.2969 L2724.7656,1137.0938 L2721.0938,1137.0938 C2720.6406,1137.0938 2720.5156,1137.1094 2720.3594,1137.2031 C2720.1094,1137.375 2719.9531,1137.6563 2719.9531,1137.9375 C2719.9531,1138.2188 2720.0938,1138.4688 2720.3125,1138.6406 C2720.4844,1138.75 2720.6563,1138.7813 2721.0938,1138.7813 L2722.1719,1138.7813 L2719.5313,1145.2969 C2719.1094,1145.2969 2718.9531,1145.3125 2718.7969,1145.4219 C2718.5469,1145.5781 2718.3906,1145.8594 2718.3906,1146.1563 C2718.3906,1146.7188 2718.7656,1147 2719.5156,1147 L2721.7813,1147 C2722.1406,1147 2722.3594,1146.9688 2722.4844,1146.875 C2722.75,1146.7344 2722.8906,1146.4375 2722.8906,1146.1563 C2722.8906,1145.875 2722.7656,1145.625 2722.5469,1145.4531 C2722.375,1145.3281 2722.2344,1145.2969 2721.7813,1145.2969 L2721.3906,1145.2969 L2721.7813,1144.3125 L2725.8281,1144.3125 Z M2725.125,1142.6094 L2722.4531,1142.6094 L2723.7969,1139.3438 L2725.125,1142.6094 Z " fill="#000000"/><text fill="#000000" font-family="sans-serif" font-size="14" font-style="italic" lengthAdjust="spacing" textLength="38" x="2744.25" y="1147.3467">Objet</text><line style="stroke:#181818;stroke-width:0.5;" x1="2577.5" x2="2916.5" y1="1158.5" y2="1158.5"/><polygon fill="none" points="2587.5,1167.1484,2591.5,1171.1484,2587.5,1175.1484,2583.5,1171.1484" style="stroke:#B38D22;stroke-width:1.0;"/><text fill="#000000" font-family="sans-serif" font-size="14" lengthAdjust="spacing" textLength="108" x="2596.5" y="1175.4951">boolean visible</text><ellipse cx="2587.5" cy="1208.7422" fill="#84BE84" rx="3" ry="3" style="stroke:#038048;stroke-width:1.0;"/><text fill="#000000" font-family="sans-serif" font-size="14" lengthAdjust="spacing" textLength="315" x="2596.5" y="1212.0889">Objet(Type, double, double, double, double)</text><ellipse cx="2587.5" cy="1225.0391" fill="#84BE84" rx="3" ry="3" style="stroke:#038048;stroke-width:1.0;"/><text fill="#000000" font-family="sans-serif" font-size="14" lengthAdjust="spacing" textLength="134" x="2596.5" y="1228.3857">Objet(JSONObject)</text><line style="stroke:#181818;stroke-width:1.0;stroke-dasharray:1.0,2.0;" x1="2577.5" x2="2700" y1="1190.9453" y2="1190.9453"/><text fill="#000000" font-family="sans-serif" font-size="14" lengthAdjust="spacing" textLength="94" x="2700" y="1195.292">Constructeur</text><line style="stroke:#181818;stroke-width:1.0;stroke-dasharray:1.0,2.0;" x1="2794" x2="2916.5" y1="1190.9453" y2="1190.9453"/><ellipse cx="2587.5" cy="1261.6328" fill="#84BE84" rx="3" ry="3" style="stroke:#038048;stroke-width:1.0;"/><text fill="#000000" font-family="sans-serif" font-size="14" font-style="italic" lengthAdjust="spacing" textLength="248" x="2596.5" y="1264.9795">void consommePar(Personnage p);</text><ellipse cx="2587.5" cy="1277.9297" fill="#84BE84" rx="3" ry="3" style="stroke:#038048;stroke-width:1.0;"/><text fill="#000000" font-family="sans-serif" font-size="14" lengthAdjust="spacing" textLength="180" x="2596.5" y="1281.2764">boolean estRamassable()</text><ellipse cx="2587.5" cy="1294.2266" fill="#84BE84" rx="3" ry="3" style="stroke:#038048;stroke-width:1.0;"/><text fill="#000000" font-family="sans-serif" font-size="14" lengthAdjust="spacing" textLength="193" x="2596.5" y="1297.5732">boolean estDeclenchable()</text><line style="stroke:#181818;stroke-width:1.0;stroke-dasharray:1.0,2.0;" x1="2577.5" x2="2711.5" y1="1243.8359" y2="1243.8359"/><text fill="#000000" font-family="sans-serif" font-size="14" lengthAdjust="spacing" textLength="71" x="2711.5" y="1248.1826">Méthodes</text><line style="stroke:#181818;stroke-width:1.0;stroke-dasharray:1.0,2.0;" x1="2782.5" x2="2916.5" y1="1243.8359" y2="1243.8359"/></g><!--class Coeur--><g id="elem_Coeur"><rect codeLine="114" fill="#F1F1F1" height="145.7813" id="Coeur" rx="2.5" ry="2.5" style="stroke:#181818;stroke-width:0.5;" width="298" x="2959" y="1479"/><ellipse cx="3082.75" cy="1495" fill="#ADD1B2" rx="11" ry="11" style="stroke:#181818;stroke-width:1.0;"/><path d="M3085.0938,1490.6719 C3084.1563,1490.2344 3083.5625,1490.0938 3082.6875,1490.0938 C3080.0625,1490.0938 3078.0625,1492.1719 3078.0625,1494.8906 L3078.0625,1496.0156 C3078.0625,1498.5938 3080.1719,1500.4844 3083.0625,1500.4844 C3084.2813,1500.4844 3085.4375,1500.1875 3086.1875,1499.6406 C3086.7656,1499.2344 3087.0938,1498.7813 3087.0938,1498.3906 C3087.0938,1497.9375 3086.7031,1497.5469 3086.2344,1497.5469 C3086.0156,1497.5469 3085.8125,1497.625 3085.625,1497.8125 C3085.1719,1498.2969 3085.1719,1498.2969 3084.9844,1498.3906 C3084.5625,1498.6563 3083.875,1498.7813 3083.1094,1498.7813 C3081.0625,1498.7813 3079.7656,1497.6875 3079.7656,1495.9844 L3079.7656,1494.8906 C3079.7656,1493.1094 3081.0156,1491.7969 3082.75,1491.7969 C3083.3281,1491.7969 3083.9375,1491.9531 3084.4063,1492.2031 C3084.8906,1492.4844 3085.0625,1492.7031 3085.1563,1493.1094 C3085.2188,1493.5156 3085.25,1493.6406 3085.3906,1493.7656 C3085.5313,1493.9063 3085.7656,1494.0156 3085.9844,1494.0156 C3086.25,1494.0156 3086.5156,1493.875 3086.6875,1493.6563 C3086.7969,1493.5 3086.8281,1493.3125 3086.8281,1492.8906 L3086.8281,1491.4688 C3086.8281,1491.0313 3086.8125,1490.9063 3086.7188,1490.75 C3086.5625,1490.4844 3086.2813,1490.3438 3085.9844,1490.3438 C3085.6875,1490.3438 3085.4844,1490.4375 3085.2656,1490.75 L3085.0938,1490.6719 Z " fill="#000000"/><text fill="#000000" font-family="sans-serif" font-size="14" lengthAdjust="spacing" textLength="42" x="3103.25" y="1499.8467">Coeur</text><line style="stroke:#181818;stroke-width:0.5;" x1="2960" x2="3256" y1="1511" y2="1511"/><polygon fill="none" points="2970,1519.6484,2974,1523.6484,2970,1527.6484,2966,1523.6484" style="stroke:#B38D22;stroke-width:1.0;"/><text fill="#000000" font-family="sans-serif" font-size="14" lengthAdjust="spacing" textLength="96" x="2979" y="1527.9951">double valeur</text><ellipse cx="2970" cy="1561.2422" fill="#84BE84" rx="3" ry="3" style="stroke:#038048;stroke-width:1.0;"/><text fill="#000000" font-family="sans-serif" font-size="14" lengthAdjust="spacing" textLength="272" x="2979" y="1564.5889">Coeur(double, double, double, double)</text><ellipse cx="2970" cy="1577.5391" fill="#84BE84" rx="3" ry="3" style="stroke:#038048;stroke-width:1.0;"/><text fill="#000000" font-family="sans-serif" font-size="14" lengthAdjust="spacing" textLength="135" x="2979" y="1580.8857">Coeur(JSONObject)</text><line style="stroke:#181818;stroke-width:1.0;stroke-dasharray:1.0,2.0;" x1="2960" x2="3061" y1="1543.4453" y2="1543.4453"/><text fill="#000000" font-family="sans-serif" font-size="14" lengthAdjust="spacing" textLength="94" x="3061" y="1547.792">Constructeur</text><line style="stroke:#181818;stroke-width:1.0;stroke-dasharray:1.0,2.0;" x1="3155" x2="3256" y1="1543.4453" y2="1543.4453"/><ellipse cx="2970" cy="1614.1328" fill="#84BE84" rx="3" ry="3" style="stroke:#038048;stroke-width:1.0;"/><text fill="#000000" font-family="sans-serif" font-size="14" lengthAdjust="spacing" textLength="124" x="2979" y="1617.4795">char getSymbol()</text><line style="stroke:#181818;stroke-width:1.0;stroke-dasharray:1.0,2.0;" x1="2960" x2="3072.5" y1="1596.3359" y2="1596.3359"/><text fill="#000000" font-family="sans-serif" font-size="14" lengthAdjust="spacing" textLength="71" x="3072.5" y="1600.6826">Méthodes</text><line style="stroke:#181818;stroke-width:1.0;stroke-dasharray:1.0,2.0;" x1="3143.5" x2="3256" y1="1596.3359" y2="1596.3359"/></g><!--class Piege--><g id="elem_Piege"><rect codeLine="123" fill="#F1F1F1" height="178.375" id="Piege" rx="2.5" ry="2.5" style="stroke:#181818;stroke-width:0.5;" width="353" x="2570.5" y="1463"/><ellipse cx="2722.75" cy="1479" fill="#ADD1B2" rx="11" ry="11" style="stroke:#181818;stroke-width:1.0;"/><path d="M2725.0938,1474.6719 C2724.1563,1474.2344 2723.5625,1474.0938 2722.6875,1474.0938 C2720.0625,1474.0938 2718.0625,1476.1719 2718.0625,1478.8906 L2718.0625,1480.0156 C2718.0625,1482.5938 2720.1719,1484.4844 2723.0625,1484.4844 C2724.2813,1484.4844 2725.4375,1484.1875 2726.1875,1483.6406 C2726.7656,1483.2344 2727.0938,1482.7813 2727.0938,1482.3906 C2727.0938,1481.9375 2726.7031,1481.5469 2726.2344,1481.5469 C2726.0156,1481.5469 2725.8125,1481.625 2725.625,1481.8125 C2725.1719,1482.2969 2725.1719,1482.2969 2724.9844,1482.3906 C2724.5625,1482.6563 2723.875,1482.7813 2723.1094,1482.7813 C2721.0625,1482.7813 2719.7656,1481.6875 2719.7656,1479.9844 L2719.7656,1478.8906 C2719.7656,1477.1094 2721.0156,1475.7969 2722.75,1475.7969 C2723.3281,1475.7969 2723.9375,1475.9531 2724.4063,1476.2031 C2724.8906,1476.4844 2725.0625,1476.7031 2725.1563,1477.1094 C2725.2188,1477.5156 2725.25,1477.6406 2725.3906,1477.7656 C2725.5313,1477.9063 2725.7656,1478.0156 2725.9844,1478.0156 C2726.25,1478.0156 2726.5156,1477.875 2726.6875,1477.6563 C2726.7969,1477.5 2726.8281,1477.3125 2726.8281,1476.8906 L2726.8281,1475.4688 C2726.8281,1475.0313 2726.8125,1474.9063 2726.7188,1474.75 C2726.5625,1474.4844 2726.2813,1474.3438 2725.9844,1474.3438 C2725.6875,1474.3438 2725.4844,1474.4375 2725.2656,1474.75 L2725.0938,1474.6719 Z " fill="#000000"/><text fill="#000000" font-family="sans-serif" font-size="14" lengthAdjust="spacing" textLength="40" x="2743.25" y="1483.8467">Piege</text><line style="stroke:#181818;stroke-width:0.5;" x1="2571.5" x2="2922.5" y1="1495" y2="1495"/><polygon fill="none" points="2581.5,1503.6484,2585.5,1507.6484,2581.5,1511.6484,2577.5,1507.6484" style="stroke:#B38D22;stroke-width:1.0;"/><text fill="#000000" font-family="sans-serif" font-size="14" lengthAdjust="spacing" textLength="102" x="2590.5" y="1511.9951">double degats</text><ellipse cx="2581.5" cy="1545.2422" fill="#84BE84" rx="3" ry="3" style="stroke:#038048;stroke-width:1.0;"/><text fill="#000000" font-family="sans-serif" font-size="14" lengthAdjust="spacing" textLength="327" x="2590.5" y="1548.5889">Piege(double, double, double, double, double)</text><ellipse cx="2581.5" cy="1561.5391" fill="#84BE84" rx="3" ry="3" style="stroke:#038048;stroke-width:1.0;"/><text fill="#000000" font-family="sans-serif" font-size="14" lengthAdjust="spacing" textLength="166" x="2590.5" y="1564.8857">Piege(JSONObject json)</text><line style="stroke:#181818;stroke-width:1.0;stroke-dasharray:1.0,2.0;" x1="2571.5" x2="2700" y1="1527.4453" y2="1527.4453"/><text fill="#000000" font-family="sans-serif" font-size="14" lengthAdjust="spacing" textLength="94" x="2700" y="1531.792">Constructeur</text><line style="stroke:#181818;stroke-width:1.0;stroke-dasharray:1.0,2.0;" x1="2794" x2="2922.5" y1="1527.4453" y2="1527.4453"/><ellipse cx="2581.5" cy="1598.1328" fill="#84BE84" rx="3" ry="3" style="stroke:#038048;stroke-width:1.0;"/><text fill="#000000" font-family="sans-serif" font-size="14" lengthAdjust="spacing" textLength="193" x="2590.5" y="1601.4795">boolean estDeclenchable()</text><ellipse cx="2581.5" cy="1614.4297" fill="#84BE84" rx="3" ry="3" style="stroke:#038048;stroke-width:1.0;"/><text fill="#000000" font-family="sans-serif" font-size="14" lengthAdjust="spacing" textLength="124" x="2590.5" y="1617.7764">char getSymbol()</text><text fill="#000000" font-family="sans-serif" font-size="14" lengthAdjust="spacing" textLength="4" x="2590.5" y="1634.0732"> </text><line style="stroke:#181818;stroke-width:1.0;stroke-dasharray:1.0,2.0;" x1="2571.5" x2="2711.5" y1="1580.3359" y2="1580.3359"/><text fill="#000000" font-family="sans-serif" font-size="14" lengthAdjust="spacing" textLength="71" x="2711.5" y="1584.6826">Méthodes</text><line style="stroke:#181818;stroke-width:1.0;stroke-dasharray:1.0,2.0;" x1="2782.5" x2="2922.5" y1="1580.3359" y2="1580.3359"/></g><!--class Sprite--><g id="elem_Sprite"><rect codeLine="160" fill="#F1F1F1" height="48" id="Sprite" rx="2.5" ry="2.5" style="stroke:#181818;stroke-width:0.5;" width="77" x="3353.5" y="897"/><ellipse cx="3368.5" cy="913" fill="#ADD1B2" rx="11" ry="11" style="stroke:#181818;stroke-width:1.0;"/><path d="M3370.8438,908.6719 C3369.9063,908.2344 3369.3125,908.0938 3368.4375,908.0938 C3365.8125,908.0938 3363.8125,910.1719 3363.8125,912.8906 L3363.8125,914.0156 C3363.8125,916.5938 3365.9219,918.4844 3368.8125,918.4844 C3370.0313,918.4844 3371.1875,918.1875 3371.9375,917.6406 C3372.5156,917.2344 3372.8438,916.7813 3372.8438,916.3906 C3372.8438,915.9375 3372.4531,915.5469 3371.9844,915.5469 C3371.7656,915.5469 3371.5625,915.625 3371.375,915.8125 C3370.9219,916.2969 3370.9219,916.2969 3370.7344,916.3906 C3370.3125,916.6563 3369.625,916.7813 3368.8594,916.7813 C3366.8125,916.7813 3365.5156,915.6875 3365.5156,913.9844 L3365.5156,912.8906 C3365.5156,911.1094 3366.7656,909.7969 3368.5,909.7969 C3369.0781,909.7969 3369.6875,909.9531 3370.1563,910.2031 C3370.6406,910.4844 3370.8125,910.7031 3370.9063,911.1094 C3370.9688,911.5156 3371,911.6406 3371.1406,911.7656 C3371.2813,911.9063 3371.5156,912.0156 3371.7344,912.0156 C3372,912.0156 3372.2656,911.875 3372.4375,911.6563 C3372.5469,911.5 3372.5781,911.3125 3372.5781,910.8906 L3372.5781,909.4688 C3372.5781,909.0313 3372.5625,908.9063 3372.4688,908.75 C3372.3125,908.4844 3372.0313,908.3438 3371.7344,908.3438 C3371.4375,908.3438 3371.2344,908.4375 3371.0156,908.75 L3370.8438,908.6719 Z " fill="#000000"/><text fill="#000000" font-family="sans-serif" font-size="14" lengthAdjust="spacing" textLength="45" x="3382.5" y="917.8467">Sprite</text><line style="stroke:#181818;stroke-width:0.5;" x1="3354.5" x2="3429.5" y1="929" y2="929"/><line style="stroke:#181818;stroke-width:0.5;" x1="3354.5" x2="3429.5" y1="937" y2="937"/></g><!--class GameController--><g id="elem_GameController"><rect codeLine="164" fill="#F1F1F1" height="48" id="GameController" rx="2.5" ry="2.5" style="stroke:#181818;stroke-width:0.5;" width="146" x="2410" y="207.5"/><ellipse cx="2425" cy="223.5" fill="#A9DCDF" rx="11" ry="11" style="stroke:#181818;stroke-width:1.0;"/><path d="M2427.0781,225.3125 L2427.4688,226.2969 L2427.0781,226.2969 C2426.625,226.2969 2426.5156,226.3125 2426.3594,226.4219 C2426.1094,226.5781 2425.9531,226.8594 2425.9531,227.1563 C2425.9531,227.4219 2426.0938,227.6719 2426.3125,227.8281 C2426.4531,227.9531 2426.6563,228 2427.0781,228 L2429.4375,228 C2429.7969,228 2430.0156,227.9688 2430.1563,227.875 C2430.4063,227.7344 2430.5625,227.4375 2430.5625,227.1563 C2430.5625,226.875 2430.4219,226.625 2430.2031,226.4688 C2430.0313,226.3281 2429.875,226.2969 2429.4063,226.2969 L2426.0156,218.0938 L2422.3438,218.0938 C2421.8906,218.0938 2421.7656,218.1094 2421.6094,218.2031 C2421.3594,218.375 2421.2031,218.6563 2421.2031,218.9375 C2421.2031,219.2188 2421.3438,219.4688 2421.5625,219.6406 C2421.7344,219.75 2421.9063,219.7813 2422.3438,219.7813 L2423.4219,219.7813 L2420.7813,226.2969 C2420.3594,226.2969 2420.2031,226.3125 2420.0469,226.4219 C2419.7969,226.5781 2419.6406,226.8594 2419.6406,227.1563 C2419.6406,227.7188 2420.0156,228 2420.7656,228 L2423.0313,228 C2423.3906,228 2423.6094,227.9688 2423.7344,227.875 C2424,227.7344 2424.1406,227.4375 2424.1406,227.1563 C2424.1406,226.875 2424.0156,226.625 2423.7969,226.4531 C2423.625,226.3281 2423.4844,226.2969 2423.0313,226.2969 L2422.6406,226.2969 L2423.0313,225.3125 L2427.0781,225.3125 Z M2426.375,223.6094 L2423.7031,223.6094 L2425.0469,220.3438 L2426.375,223.6094 Z " fill="#000000"/><text fill="#000000" font-family="sans-serif" font-size="14" font-style="italic" lengthAdjust="spacing" textLength="114" x="2439" y="228.3467">GameController</text><line style="stroke:#181818;stroke-width:0.5;" x1="2411" x2="2555" y1="239.5" y2="239.5"/><line style="stroke:#181818;stroke-width:0.5;" x1="2411" x2="2555" y1="247.5" y2="247.5"/></g><g id="elem_N_gui"><path d="M3522,211.5 L3522,251.7656 L3864,251.7656 L3864,221.5 L3854,211.5 L3522,211.5 " fill="#FEFFDD" style="stroke:#181818;stroke-width:0.5;"/><path d="M3854,211.5 L3854,221.5 L3864,221.5 L3854,211.5 " fill="#FEFFDD" style="stroke:#181818;stroke-width:1.0;"/><text fill="#000000" font-family="sans-serif" font-size="13" lengthAdjust="spacing" textLength="103" x="3528" y="228.5669">Voir diagramme</text><text fill="#000000" font-family="sans-serif" font-size="13" font-style="italic" lengthAdjust="spacing" textLength="58" x="3635" y="228.5669">class-gui</text><text fill="#000000" font-family="sans-serif" font-size="13" lengthAdjust="spacing" textLength="122" x="3697" y="228.5669">pour en savoir plus</text><text fill="#000000" font-family="sans-serif" font-size="13" lengthAdjust="spacing" textLength="321" x="3528" y="243.6997">sur ces packages et les classes qu'ils contiennent.</text></g><g id="elem_N_json"><path d="M2640,6 L2640,46.2656 A0,0 0 0 0 2640,46.2656 L2759.47,46.2656 L2953,600 L2767.47,46.2656 L2856,46.2656 A0,0 0 0 0 2856,46.2656 L2856,16 L2846,6 L2640,6 A0,0 0 0 0 2640,6 " fill="#FEFFDD" style="stroke:#181818;stroke-width:0.5;"/><path d="M2846,6 L2846,16 L2856,16 L2846,6 " fill="#FEFFDD" style="stroke:#181818;stroke-width:0.5;"/><text fill="#000000" font-family="sans-serif" font-size="13" lengthAdjust="spacing" textLength="195" x="2646" y="23.0669">'Type type' : Uniquement pour</text><text fill="#000000" font-family="sans-serif" font-size="13" lengthAdjust="spacing" textLength="150" x="2646" y="38.1997">la sérialisation en JSON.</text></g><!--reverse link Terrain to Mur--><g id="link_Terrain_Mur"><path d="M1034.4238,1306.5722 C1040.3138,1362.8452 1046.58,1422.72 1052.46,1478.96 " fill="none" id="Terrain-backto-Mur" style="stroke:#181818;stroke-width:1.0;"/><polygon fill="none" points="1032.55,1288.67,1028.4564,1307.1968,1040.3912,1305.9476,1032.55,1288.67" style="stroke:#181818;stroke-width:1.0;"/></g><!--reverse link Terrain to BordureMonde--><g id="link_Terrain_BordureMonde"><path d="M956.6475,1302.779 C909.7845,1361.933 855.274,1430.739 810.368,1487.422 " fill="none" id="Terrain-backto-BordureMonde" style="stroke:#181818;stroke-width:1.0;"/><polygon fill="none" points="967.825,1288.67,951.9445,1299.0532,961.3506,1306.5048,967.825,1288.67" style="stroke:#181818;stroke-width:1.0;"/></g><!--reverse link Personnage to Heros--><g id="link_Personnage_Heros"><path d="M2224.1148,1403.516 C2232.5148,1433.111 2235.98,1445.287 2243.27,1470.969 " fill="none" id="Personnage-backto-Heros" style="stroke:#181818;stroke-width:1.0;"/><polygon fill="none" points="2219.2,1386.2,2218.3428,1405.1543,2229.8868,1401.8777,2219.2,1386.2" style="stroke:#181818;stroke-width:1.0;"/></g><!--reverse link Personnage to Monstre--><g id="link_Personnage_Monstre"><path d="M1979.8307,1397.428 C1959.5907,1414.053 1952.7,1418.633 1932,1433 C1907.47,1450.029 1880.16,1466.227 1853.21,1480.862 " fill="none" id="Personnage-backto-Monstre" style="stroke:#181818;stroke-width:1.0;"/><polygon fill="none" points="1993.74,1386.003,1976.0223,1392.7916,1983.639,1402.0645,1993.74,1386.003" style="stroke:#181818;stroke-width:1.0;"/></g><!--reverse link Monstre to Walker--><g id="link_Monstre_Walker"><path d="M1704,1641.253 C1704,1666.914 1704,1677.968 1704,1703.796 " fill="none" id="Monstre-backto-Walker" style="stroke:#181818;stroke-width:1.0;"/><polygon fill="none" points="1704,1623.253,1698,1641.253,1710,1641.253,1704,1623.253" style="stroke:#181818;stroke-width:1.0;"/></g><!--reverse link Objet to Coeur--><g id="link_Objet_Coeur"><path d="M2855.5238,1317.0566 C2914.1238,1371.3506 2975.05,1427.809 3030.11,1478.827 " fill="none" id="Objet-backto-Coeur" style="stroke:#181818;stroke-width:1.0;"/><polygon fill="none" points="2842.32,1304.823,2851.4459,1321.4578,2859.6016,1312.6553,2842.32,1304.823" style="stroke:#181818;stroke-width:1.0;"/></g><!--reverse link Objet to Piege--><g id="link_Objet_Piege"><path d="M2747,1322.823 C2747,1371.601 2747,1413.999 2747,1462.762 " fill="none" id="Objet-backto-Piege" style="stroke:#181818;stroke-width:1.0;"/><polygon fill="none" points="2747,1304.823,2741,1322.823,2753,1322.823,2747,1304.823" style="stroke:#181818;stroke-width:1.0;"/></g><!--link engine to N_gui--><g id="link_engine_N_gui"><path codeLine="227" d="M2602.4434,231.5 C2603.6548,231.5 2604.8663,231.5 2606.0778,231.5 C2610.9238,231.5 2615.7697,231.5 2620.6157,231.5 C2630.3075,231.5 2639.9995,231.5 2649.6914,231.5 C2669.0752,231.5 2688.459,231.5 2707.8429,231.5 C2746.6107,231.5 2785.3786,231.5 2824.1466,231.5 C2901.6825,231.5 2979.2188,231.5 3056.755,231.5 C3211.8275,231.5 3366.9,231.5 3521.97,231.5 " fill="none" id="engine-N_gui" style="stroke:#181818;stroke-width:1.0;stroke-dasharray:7.0,7.0;"/></g><!--link N_gui to gui--><g id="link_N_gui_gui"><path codeLine="228" d="M3686.69,251.61 C3668.505,306.69 3614.05,471.6175 3563.7863,623.8475 C3538.6544,699.9625 3514.5703,772.9031 3496.5917,827.3513 C3487.6024,854.5753 3480.1395,877.1763 3474.8351,893.2393 C3474.6694,893.7413 3474.5057,894.2369 3474.3442,894.726 " fill="none" id="N_gui-gui" style="stroke:#181818;stroke-width:1.0;stroke-dasharray:7.0,7.0;"/></g><!--link ElementMonde to Sprite--><g id="link_ElementMonde_Sprite"><path codeLine="235" d="M2959.6,677.27 C3064.94,717.44 3191.77,772.55 3297,838 C3324.01,854.8 3351.11,879.11 3369.41,896.9 " fill="none" id="ElementMonde-Sprite" style="stroke:#181818;stroke-width:1.0;"/><text fill="#000000" font-family="sans-serif" font-size="13" lengthAdjust="spacing" textLength="7" x="3355.7244" y="885.8864">*</text></g><!--link Personnage to TypeMouvement--><g id="link_Personnage_TypeMouvement"><path codeLine="236" d="M1879.15,1279.453 C1731.83,1318.873 1554.08,1378.501 1409,1463 C1393.76,1471.876 1378.9,1483.512 1365.59,1495.403 " fill="none" id="Personnage-TypeMouvement" style="stroke:#181818;stroke-width:1.0;"/><ellipse cx="1492" cy="1425.0664" fill="none" rx="3" ry="3" style="stroke:#038048;stroke-width:1.0;"/><text fill="#000000" font-family="sans-serif" font-size="13" lengthAdjust="spacing" textLength="69" x="1499" y="1429.0669">orientation</text><text fill="#000000" font-family="sans-serif" font-size="13" lengthAdjust="spacing" textLength="8" x="1363.8156" y="1484.254">1</text></g><!--reverse link ElementMonde to Personnage--><g id="link_ElementMonde_Personnage"><path codeLine="238" d="M2667.3527,736.7409 C2615.4327,818.0509 2549.45,911.2 2468,994 C2450.89,1011.397 2432.31,1028.488 2413.08,1044.98 " fill="none" id="ElementMonde-backto-Personnage" style="stroke:#181818;stroke-width:1.0;"/><polygon fill="none" points="2677.04,721.57,2662.2957,733.5118,2672.4097,739.97,2677.04,721.57" style="stroke:#181818;stroke-width:1.0;"/></g><!--reverse link ElementMonde to Terrain--><g id="link_ElementMonde_Terrain"><path codeLine="239" d="M2615.8761,733.1479 C2581.5361,762.0379 2556.14,778.86 2516,799 C2193.98,960.569 2083.63,933.848 1727,985 C1691.97,990.024 1443.01,992.241 1409,1002 C1305.73,1031.63 1199.73,1093.085 1125.33,1142.319 " fill="none" id="ElementMonde-backto-Terrain" style="stroke:#181818;stroke-width:1.0;"/><polygon fill="none" points="2629.65,721.56,2612.0135,728.5566,2619.7387,737.7392,2629.65,721.56" style="stroke:#181818;stroke-width:1.0;"/></g><!--reverse link ElementMonde to Objet--><g id="link_ElementMonde_Objet"><path codeLine="240" d="M2747,739.8 C2747,857.84 2747,1019.608 2747,1126.247 " fill="none" id="ElementMonde-backto-Objet" style="stroke:#181818;stroke-width:1.0;"/><polygon fill="none" points="2747,721.8,2741,739.8,2753,739.8,2747,721.8" style="stroke:#181818;stroke-width:1.0;"/></g><!--link Monde to Personnage--><g id="link_Monde_Personnage"><path codeLine="241" d="M2171,791.18 C2171,871.96 2171,965.914 2171,1044.755 " fill="none" id="Monde-Personnage" style="stroke:#181818;stroke-width:1.0;"/><text fill="#000000" font-family="sans-serif" font-size="13" lengthAdjust="spacing" textLength="7" x="2163.8414" y="1033.7404">*</text></g><!--link Monde to Terrain--><g id="link_Monde_Terrain"><path codeLine="242" d="M1934.86,791.24 C1830.11,864.02 1701.79,940.549 1574,985 C1504.37,1009.22 1479.34,979.929 1409,1002 C1307.59,1033.822 1202.67,1094.063 1128.19,1142.301 " fill="none" id="Monde-Terrain" style="stroke:#181818;stroke-width:1.0;"/><text fill="#000000" font-family="sans-serif" font-size="13" lengthAdjust="spacing" textLength="7" x="1131.0032" y="1131.4414">*</text></g><!--link Monde to Objet--><g id="link_Monde_Objet"><path codeLine="243" d="M2346.95,791.18 C2452.16,902.51 2581,1038.845 2663.53,1126.179 " fill="none" id="Monde-Objet" style="stroke:#181818;stroke-width:1.0;"/><text fill="#000000" font-family="sans-serif" font-size="13" lengthAdjust="spacing" textLength="7" x="2649.5996" y="1115.5208">*</text></g><!--link Settings to Property--><g id="link_Settings_Property"><path codeLine="247" d="M301,335.21 C301,358.23 301,383.39 301,408.78 " fill="none" id="Settings-Property" style="stroke:#181818;stroke-width:1.0;"/></g><!--link Property to Getter--><g id="link_Property_Getter"><path codeLine="248" d="M276.351,799.11 C271.913,834.06 267.799,866.46 264.949,888.9 " fill="none" id="Property-Getter" style="stroke:#181818;stroke-width:1.0;"/><text fill="#000000" font-family="sans-serif" font-size="13" lengthAdjust="spacing" textLength="8" x="256.9385" y="877.7825">1</text></g><!--link Property to Setter--><g id="link_Property_Setter"><path codeLine="249" d="M370.018,799.11 C382.443,834.06 393.962,866.46 401.942,888.9 " fill="none" id="Property-Setter" style="stroke:#181818;stroke-width:1.0;"/><text fill="#000000" font-family="sans-serif" font-size="13" lengthAdjust="spacing" textLength="8" x="390.8363" y="877.7825">1</text></g><!--link GameController to Monde--><g id="link_GameController_Monde"><path codeLine="252" d="M2466.36,255.68 C2451.08,276.71 2427.61,308.39 2406,335 C2384.25,361.78 2360.83,389.61 2337.5,416.75 " fill="none" id="GameController-Monde" style="stroke:#181818;stroke-width:1.0;"/><text fill="#000000" font-family="sans-serif" font-size="13" lengthAdjust="spacing" textLength="8" x="2335.8477" y="406.2133">1</text></g><!--SRC=[lLdDSXev4Bxp52hdu64DR6sENeegnyP9jepjCYIvf6fB30qe6QI9f65DPVD0UOwysBP6cc7-c9bWPpdm8tMtMf-wlsuD8VK_qnMGiV9f2EHhX-0hT8CJmHV9c7a1ZpPajWjX8g8jR83h_PnvFRnz_MQM6xaPN-S7tjtdVbxTVRXD1xvrqgzqhhIalYP-G9KYuo1UhUYFURqW2n7D0o2FrSExwk4rZJH4ideoe79LdEp76oSQttBZWy6buEXiv1jxWq5kyYpdkMSizDmYXpwxTGR-cjxTtiq_WQ-x1IScFxxhjLY0Adcmro5Qc1zUSOcl2ThVYB-cagn0JtURkGWoafcpIQ9ZpBTC2cwyAvn9uVHc82Lbl23K29vrpYaVWLrU_n1qzV0vW9IccldVqfqifTZ4KDPPFIDp8GAWd83ICqct81L5BmluPv0rBmlP99847ZNmnHFXGqFUpuDcj9u2MAkDMz634NSGcrT2BY89bWoU1QIiHQy9dVzlxxMvfvbceEeJxnuN5vmRXJ8kBmZ3n6MBYWb7WrkcGIauBE0BH5GrpK_eOqcaduWiO4MrEkRGzfjhnGs7Fn66RhtzP-6Ep66qf8ycvhPIMy4M26COK1-abwlETIaUgr6jwPS8rMwOqiEzXwCgZGTqXF9L02-lJD2-ONek7Y-i1Q-rmgK80gQOu5u3OxxZRq0ArIJsdcqfrvLIcRgM0TyF16_5mV7oAS7KvbABSBMRUUOOjKQVYQdh0AzbgemlRT0jaDGaHWxQ0Vs2N23Fx-9mpONw25D0SeQwwP0QAqLtS1IvEAT-3RCankkpFqvG2OmZqLDC6J2RBcskDZqsYVGLvSgev-cXHGvyeC5dsBSYoLaTbG7MrdEdWBFwb1ne4TmEX-heBdzBohJrIDKMQIEZgo8zESKjqYKYS0paiUsZMsUh_QJYjsVWE9nzT5XiDd1FfPV9yx3xPpqrFT0DGdMmZyf8Ne4V0CSJRTbeNveM9OtlWsUHT4GqADuBMvv4lCuHdRZL-sNHNOd9FOCLjCRa2HsSMQSb7tGFwcUwf4yOK4ygWJNHSm3CvfOzhNAbHnSDZmxiTQJzHJ_jDErQficSqD2RQidugjiiNDkHjj7eaUgrudi6rpTm7qJgNWf_3HuptMc9qi_8Qqd3zV1UuDJBgnwvWYMD0ZrUO4zALcOEBWADbHvTMNgk75KQYlbcZJr9TOUQxvjDDRJDJul-kQpg_51UIy6zupNsGwhNIyON26XkexqwZ7ea7Kw_LA-HswW9wVI7LpRXrg_qCsqo7YXVY4tJtf9iyvDxmCKM_4mnw2KIhHJTjLzb31mC15T4Lc3hMhTJNMvJ-rxsqLilzo2kMtWqQ8lRsZmsb9TKQYXbdQK6Hmj9Ux2AM8OIB55CGudNxYffu2l6innIQ2HUqmqWeMY96m2PjU0iqorSKKqp5lekOycI8U-XVcQcmAkTHjOwIrVma7S6O_HaDxJsUnbhcRjbDPkT9KvXKAArREQU9KK7fsxOCZ_5R1pVm1Q2t8JBmW0qN2DhNK_TR1uTq1eNLJbqzfTtAKAGUdUvnWijJACm55AJq5UTgfk-4nw-iY4r8iie2AQ-1E3jvDLQ_7CTrXk_4Jvs8oCIn9-DcAO6tBr2vLAWE1y8kgYPLdZGcUaCK6anvIgIa81wZU4rViGBYAhMYesQcyv5fCLqRpntGYV9ribmDY8dXAeKZDoXpKoR5a4vo0i1Za4wdEpo9sikIS11uWezKZs5YBjlAcEiEK3wAJQ1MBN9fiIaLsaxAROzCiEAW3WxfwV9rswLgP-HRLgsUe7cx9wPB2qdg0d8MNaqcYjViZdMpCD7TLZhxV9Mw9zIZVXnIsRqBe8A_baAwSCratdEIhCP8ne1k14hhrJ-N7bP6jrPQHY3ALTiNCeW6O9SOjj1Jko1xvF6_TwdZ3sGsI7zQK5_MjPNMNsqS4guqA0wvfsSl1TCaWMZsB_XtOyCsIXEw3wMl-7lR4H2OQvWtB2AaGonI_new8Fue9BgfmXe4e2oN82VNw9J5YXpezGCECVAF8Yzk_qRpNRYTp88OAa7hd0cOmDJTZlEjTFqJxrJSaxUSOQTOjmG6Py-ye0IzUExZ9-_85C9msjnAKlMYYkZ_K3BWroJS7vkZ7SC6c275JPBED79_PtPxv_yTkB-VnsWQmFN0MJknoZonqcXOpl7w14IjwvZnpev-IZiz_yTvRpf9F-GL4x6BL7rbFCi_Z58NEuJu_H-oJefjt2TIBnyZ9Ho5QEJrkF-dbmxATzRH6ma5qTjVAArV4Da39dfiXl_0G00]--></g></svg>