<?xml version="1.0" encoding="us-ascii" standalone="no"?><svg xmlns="http://www.w3.org/2000/svg" xmlns:xlink="http://www.w3.org/1999/xlink" contentStyleType="text/css" height="1251px" preserveAspectRatio="none" style="width:2168px;height:1251px;background:#FFFFFF;" version="1.1" viewBox="0 0 2168 1251" width="2168px" zoomAndPan="magnify"><defs/><g><!--cluster engine--><g id="cluster_engine"><path d="M1546.5,290.74 L1596.5,290.74 A3.75,3.75 0 0 1 1599,293.24 L1606,315.3611 L2158.5,315.3611 A2.5,2.5 0 0 1 2161,317.8611 L2161,484.24 A2.5,2.5 0 0 1 2158.5,486.74 L1546.5,486.74 A2.5,2.5 0 0 1 1544,484.24 L1544,293.24 A2.5,2.5 0 0 1 1546.5,290.74 " fill="none" style="stroke:#000000;stroke-width:1.5;"/><line style="stroke:#000000;stroke-width:1.5;" x1="1544" x2="1606" y1="315.3611" y2="315.3611"/><text fill="#000000" font-family="sans-serif" font-size="14" font-weight="bold" lengthAdjust="spacing" textLength="49" x="1548" y="307.8474">engine</text></g><!--cluster cli--><g id="cluster_cli"><path d="M1553.5,42.24 L1570.5,42.24 A3.75,3.75 0 0 1 1573,44.74 L1580,66.8611 L2074.5,66.8611 A2.5,2.5 0 0 1 2077,69.3611 L2077,217.74 A2.5,2.5 0 0 1 2074.5,220.24 L1553.5,220.24 A2.5,2.5 0 0 1 1551,217.74 L1551,44.74 A2.5,2.5 0 0 1 1553.5,42.24 " fill="none" style="stroke:#000000;stroke-width:1.5;"/><line style="stroke:#000000;stroke-width:1.5;" x1="1551" x2="1580" y1="66.8611" y2="66.8611"/><text fill="#000000" font-family="sans-serif" font-size="14" font-weight="bold" lengthAdjust="spacing" textLength="16" x="1555" y="59.3474">cli</text></g><!--cluster gui--><g id="cluster_gui"><path d="M8.5,253.24 L31.5,253.24 A3.75,3.75 0 0 1 34,255.74 L41,277.8611 L1517.5,277.8611 A2.5,2.5 0 0 1 1520,280.3611 L1520,1241.74 A2.5,2.5 0 0 1 1517.5,1244.24 L8.5,1244.24 A2.5,2.5 0 0 1 6,1241.74 L6,255.74 A2.5,2.5 0 0 1 8.5,253.24 " fill="none" style="stroke:#000000;stroke-width:1.5;"/><line style="stroke:#000000;stroke-width:1.5;" x1="6" x2="41" y1="277.8611" y2="277.8611"/><text fill="#000000" font-family="sans-serif" font-size="14" font-weight="bold" lengthAdjust="spacing" textLength="22" x="10" y="270.3474">gui</text></g><!--cluster views--><g id="cluster_views"><path d="M32.5,555.24 L74.5,555.24 A3.75,3.75 0 0 1 77,557.74 L84,579.8611 L1493.5,579.8611 A2.5,2.5 0 0 1 1496,582.3611 L1496,804.74 A2.5,2.5 0 0 1 1493.5,807.24 L32.5,807.24 A2.5,2.5 0 0 1 30,804.74 L30,557.74 A2.5,2.5 0 0 1 32.5,555.24 " fill="none" style="stroke:#000000;stroke-width:1.5;"/><line style="stroke:#000000;stroke-width:1.5;" x1="30" x2="84" y1="579.8611" y2="579.8611"/><text fill="#000000" font-family="sans-serif" font-size="14" font-weight="bold" lengthAdjust="spacing" textLength="41" x="34" y="572.3474">views</text></g><!--cluster engine--><g id="cluster_engine"><path d="M1294.5,858.24 L1344.5,858.24 A3.75,3.75 0 0 1 1347,860.74 L1354,882.8611 L1493.5,882.8611 A2.5,2.5 0 0 1 1496,885.3611 L1496,1217.74 A2.5,2.5 0 0 1 1493.5,1220.24 L1294.5,1220.24 A2.5,2.5 0 0 1 1292,1217.74 L1292,860.74 A2.5,2.5 0 0 1 1294.5,858.24 " fill="none" style="stroke:#000000;stroke-width:1.5;"/><line style="stroke:#000000;stroke-width:1.5;" x1="1292" x2="1354" y1="882.8611" y2="882.8611"/><text fill="#000000" font-family="sans-serif" font-size="14" font-weight="bold" lengthAdjust="spacing" textLength="49" x="1296" y="875.3474">engine</text></g><!--class GameController--><g id="elem_GameController"><rect codeLine="3" fill="#F1F1F1" height="85.2422" id="GameController" rx="2.5" ry="2.5" style="stroke:#181818;stroke-width:0.5;" width="140" x="2005" y="367.24"/><ellipse cx="2023.6" cy="383.24" fill="#A9DCDF" rx="11" ry="11" style="stroke:#181818;stroke-width:1.0;"/><path d="M2025.7875,385.0056 L2021.6469,385.0056 L2021.225,386.0369 L2021.6469,386.0369 Q2022.2563,386.0369 2022.5219,386.2713 Q2022.7875,386.5056 2022.7875,386.8963 Q2022.7875,387.2713 2022.5219,387.5056 Q2022.2563,387.74 2021.6469,387.74 L2019.35,387.74 Q2018.7406,387.74 2018.4906,387.5056 Q2018.225,387.2713 2018.225,386.8806 Q2018.225,386.5056 2018.5063,386.2713 Q2018.7719,386.0213 2019.3969,386.0369 L2022.0688,379.3806 L2020.9594,379.3806 Q2020.35,379.3806 2020.0844,379.1463 Q2019.8188,378.9119 2019.8188,378.5213 Q2019.8188,378.1463 2020.0844,377.9119 Q2020.35,377.6775 2020.9594,377.6775 L2024.6313,377.6775 L2028.0219,386.0369 Q2028.6156,386.0369 2028.8031,386.1775 Q2029.1938,386.4431 2029.1938,386.8963 Q2029.1938,387.2713 2028.9281,387.5056 Q2028.6781,387.74 2028.0688,387.74 L2025.7719,387.74 Q2025.1625,387.74 2024.8969,387.5056 Q2024.6313,387.2713 2024.6313,386.8806 Q2024.6313,386.5056 2024.8969,386.2713 Q2025.1625,386.0369 2025.7719,386.0369 L2026.1938,386.0369 L2025.7875,385.0056 Z M2025.0688,383.3025 L2023.7094,379.9275 L2022.3344,383.3025 L2025.0688,383.3025 Z " fill="#000000"/><text fill="#000000" font-family="sans-serif" font-size="14" font-style="italic" lengthAdjust="spacing" textLength="100" x="2038.4" y="389.0369">GameController</text><line style="stroke:#181818;stroke-width:0.5;" x1="2006" x2="2144" y1="399.24" y2="399.24"/><polygon fill="none" points="2016,409.0505,2020,413.0505,2016,417.0505,2012,413.0505" style="stroke:#B38D22;stroke-width:1.0;"/><text fill="#000000" font-family="sans-serif" font-size="14" lengthAdjust="spacing" textLength="90" x="2025" y="418.3474">Monde monde</text><line style="stroke:#181818;stroke-width:1.0;" x1="2006" x2="2144" y1="425.8611" y2="425.8611"/><ellipse cx="2016" cy="440.6716" fill="#84BE84" rx="3" ry="3" style="stroke:#038048;stroke-width:1.0;"/><text fill="#000000" font-family="sans-serif" font-size="14" font-style="italic" lengthAdjust="spacing" textLength="114" x="2025" y="444.9685">update(long): void</text></g><!--class Engine--><g id="elem_Engine"><rect codeLine="9" fill="#F1F1F1" height="122.4844" id="Engine" rx="2.5" ry="2.5" style="stroke:#181818;stroke-width:0.5;" width="158" x="1745" y="348.74"/><ellipse cx="1797.75" cy="364.74" fill="#A9DCDF" rx="11" ry="11" style="stroke:#181818;stroke-width:1.0;"/><path d="M1799.9375,366.5056 L1795.7969,366.5056 L1795.375,367.5369 L1795.7969,367.5369 Q1796.4063,367.5369 1796.6719,367.7713 Q1796.9375,368.0056 1796.9375,368.3963 Q1796.9375,368.7713 1796.6719,369.0056 Q1796.4063,369.24 1795.7969,369.24 L1793.5,369.24 Q1792.8906,369.24 1792.6406,369.0056 Q1792.375,368.7713 1792.375,368.3806 Q1792.375,368.0056 1792.6563,367.7713 Q1792.9219,367.5213 1793.5469,367.5369 L1796.2188,360.8806 L1795.1094,360.8806 Q1794.5,360.8806 1794.2344,360.6463 Q1793.9688,360.4119 1793.9688,360.0213 Q1793.9688,359.6463 1794.2344,359.4119 Q1794.5,359.1775 1795.1094,359.1775 L1798.7813,359.1775 L1802.1719,367.5369 Q1802.7656,367.5369 1802.9531,367.6775 Q1803.3438,367.9431 1803.3438,368.3963 Q1803.3438,368.7713 1803.0781,369.0056 Q1802.8281,369.24 1802.2188,369.24 L1799.9219,369.24 Q1799.3125,369.24 1799.0469,369.0056 Q1798.7813,368.7713 1798.7813,368.3806 Q1798.7813,368.0056 1799.0469,367.7713 Q1799.3125,367.5369 1799.9219,367.5369 L1800.3438,367.5369 L1799.9375,366.5056 Z M1799.2188,364.8025 L1797.8594,361.4275 L1796.4844,364.8025 L1799.2188,364.8025 Z " fill="#000000"/><text fill="#000000" font-family="sans-serif" font-size="14" font-style="italic" lengthAdjust="spacing" textLength="44" x="1818.25" y="370.5369">Engine</text><line style="stroke:#181818;stroke-width:0.5;" x1="1746" x2="1902" y1="380.74" y2="380.74"/><line style="stroke:#181818;stroke-width:0.5;" x1="1746" x2="1902" y1="388.74" y2="388.74"/><ellipse cx="1756" cy="403.5505" fill="#84BE84" rx="3" ry="3" style="stroke:#038048;stroke-width:1.0;"/><text fill="#000000" font-family="sans-serif" font-size="14" lengthAdjust="spacing" textLength="132" x="1765" y="407.8474">Engine(ui, controller)</text><ellipse cx="1756" cy="422.1716" fill="#84BE84" rx="3" ry="3" style="stroke:#038048;stroke-width:1.0;"/><text fill="#000000" font-family="sans-serif" font-size="14" font-style="italic" lengthAdjust="spacing" textLength="71" x="1765" y="426.4685">start(): void</text><ellipse cx="1756" cy="440.7927" fill="#84BE84" rx="3" ry="3" style="stroke:#038048;stroke-width:1.0;"/><text fill="#000000" font-family="sans-serif" font-size="14" font-style="italic" lengthAdjust="spacing" textLength="70" x="1765" y="445.0896">stop(): void</text><ellipse cx="1756" cy="459.4138" fill="#84BE84" rx="3" ry="3" style="stroke:#038048;stroke-width:1.0;"/><text fill="#000000" font-family="sans-serif" font-size="14" font-style="italic" lengthAdjust="spacing" textLength="92" x="1765" y="463.7107">tick(long): void</text></g><!--class GameInterface--><g id="elem_GameInterface"><rect codeLine="16" fill="#F1F1F1" height="66.6211" id="GameInterface" rx="2.5" ry="2.5" style="stroke:#181818;stroke-width:0.5;" width="126" x="1560" y="376.24"/><ellipse cx="1575" cy="392.24" fill="#B4A7E5" rx="11" ry="11" style="stroke:#181818;stroke-width:1.0;"/><path d="M1575.9531,388.8806 L1575.9531,395.5369 L1577.6719,395.5369 Q1578.2813,395.5369 1578.5469,395.7713 Q1578.8125,396.0056 1578.8125,396.3963 Q1578.8125,396.7713 1578.5469,397.0056 Q1578.2813,397.24 1577.6719,397.24 L1572.5313,397.24 Q1571.9219,397.24 1571.6563,397.0056 Q1571.3906,396.7713 1571.3906,396.3806 Q1571.3906,396.0056 1571.6563,395.7713 Q1571.9219,395.5369 1572.5313,395.5369 L1574.25,395.5369 L1574.25,388.8806 L1572.5313,388.8806 Q1571.9219,388.8806 1571.6563,388.6463 Q1571.3906,388.4119 1571.3906,388.0213 Q1571.3906,387.6463 1571.6563,387.4119 Q1571.9219,387.1775 1572.5313,387.1775 L1577.6719,387.1775 Q1578.2813,387.1775 1578.5469,387.4119 Q1578.8125,387.6463 1578.8125,388.0213 Q1578.8125,388.4119 1578.5469,388.6463 Q1578.2813,388.8806 1577.6719,388.8806 L1575.9531,388.8806 Z " fill="#000000"/><text fill="#000000" font-family="sans-serif" font-size="14" font-style="italic" lengthAdjust="spacing" textLength="94" x="1589" y="398.0369">GameInterface</text><line style="stroke:#181818;stroke-width:0.5;" x1="1561" x2="1685" y1="408.24" y2="408.24"/><line style="stroke:#181818;stroke-width:0.5;" x1="1561" x2="1685" y1="416.24" y2="416.24"/><ellipse cx="1571" cy="431.0505" fill="#84BE84" rx="3" ry="3" style="stroke:#038048;stroke-width:1.0;"/><text fill="#000000" font-family="sans-serif" font-size="14" lengthAdjust="spacing" textLength="86" x="1580" y="435.3474">render(): void</text></g><!--class CLIController--><g id="elem_CLIController"><rect codeLine="22" fill="#F1F1F1" height="103.8633" id="CLIController" rx="2.5" ry="2.5" style="stroke:#181818;stroke-width:0.5;" width="141" x="1919.5" y="100.24"/><ellipse cx="1946.2" cy="116.24" fill="#ADD1B2" rx="11" ry="11" style="stroke:#181818;stroke-width:1.0;"/><path d="M1948.9656,112.115 Q1949.1219,111.8963 1949.3094,111.7869 Q1949.4969,111.6775 1949.7156,111.6775 Q1950.0906,111.6775 1950.325,111.9431 Q1950.5594,112.1931 1950.5594,112.8025 L1950.5594,114.2556 Q1950.5594,114.865 1950.325,115.1306 Q1950.0906,115.3963 1949.7156,115.3963 Q1949.3719,115.3963 1949.1688,115.1931 Q1948.9656,115.0056 1948.8563,114.49 Q1948.8094,114.1306 1948.6219,113.9431 Q1948.2938,113.5681 1947.6844,113.3494 Q1947.075,113.1306 1946.45,113.1306 Q1945.6844,113.1306 1945.0438,113.4588 Q1944.4188,113.7869 1943.9188,114.5369 Q1943.4344,115.2869 1943.4344,116.3181 L1943.4344,117.4119 Q1943.4344,118.6463 1944.325,119.4744 Q1945.2156,120.2869 1946.8094,120.2869 Q1947.7469,120.2869 1948.4031,120.0369 Q1948.7938,119.8806 1949.2156,119.4431 Q1949.4813,119.1775 1949.6219,119.0994 Q1949.7781,119.0213 1949.9813,119.0213 Q1950.3094,119.0213 1950.5594,119.2869 Q1950.825,119.5369 1950.825,119.8806 Q1950.825,120.2244 1950.4813,120.6306 Q1949.9813,121.2088 1949.1844,121.5369 Q1948.1063,121.99 1946.8094,121.99 Q1945.2938,121.99 1944.0906,121.365 Q1943.1063,120.865 1942.4188,119.8025 Q1941.7313,118.7244 1941.7313,117.4431 L1941.7313,116.2869 Q1941.7313,114.9588 1942.3406,113.8181 Q1942.9656,112.6619 1944.0594,112.0525 Q1945.1531,111.4275 1946.3875,111.4275 Q1947.1219,111.4275 1947.7625,111.5994 Q1948.4188,111.7556 1948.9656,112.115 Z " fill="#000000"/><text fill="#000000" font-family="sans-serif" font-size="14" lengthAdjust="spacing" textLength="83" x="1962.8" y="122.0369">CLIController</text><line style="stroke:#181818;stroke-width:0.5;" x1="1920.5" x2="2059.5" y1="132.24" y2="132.24"/><line style="stroke:#181818;stroke-width:0.5;" x1="1920.5" x2="2059.5" y1="140.24" y2="140.24"/><ellipse cx="1930.5" cy="155.0505" fill="#84BE84" rx="3" ry="3" style="stroke:#038048;stroke-width:1.0;"/><text fill="#000000" font-family="sans-serif" font-size="14" lengthAdjust="spacing" textLength="72" x="1939.5" y="159.3474">start(): void</text><ellipse cx="1930.5" cy="173.6716" fill="#84BE84" rx="3" ry="3" style="stroke:#038048;stroke-width:1.0;"/><text fill="#000000" font-family="sans-serif" font-size="14" lengthAdjust="spacing" textLength="71" x="1939.5" y="177.9685">stop(): void</text><ellipse cx="1930.5" cy="192.2927" fill="#84BE84" rx="3" ry="3" style="stroke:#038048;stroke-width:1.0;"/><text fill="#000000" font-family="sans-serif" font-size="14" lengthAdjust="spacing" textLength="115" x="1939.5" y="196.5896">update(long): void</text></g><!--class CLIEngine--><g id="elem_CLIEngine"><rect codeLine="28" fill="#F1F1F1" height="103.8633" id="CLIEngine" rx="2.5" ry="2.5" style="stroke:#181818;stroke-width:0.5;" width="118" x="1766" y="100.24"/><ellipse cx="1790.45" cy="116.24" fill="#ADD1B2" rx="11" ry="11" style="stroke:#181818;stroke-width:1.0;"/><path d="M1793.2156,112.115 Q1793.3719,111.8963 1793.5594,111.7869 Q1793.7469,111.6775 1793.9656,111.6775 Q1794.3406,111.6775 1794.575,111.9431 Q1794.8094,112.1931 1794.8094,112.8025 L1794.8094,114.2556 Q1794.8094,114.865 1794.575,115.1306 Q1794.3406,115.3963 1793.9656,115.3963 Q1793.6219,115.3963 1793.4188,115.1931 Q1793.2156,115.0056 1793.1063,114.49 Q1793.0594,114.1306 1792.8719,113.9431 Q1792.5438,113.5681 1791.9344,113.3494 Q1791.325,113.1306 1790.7,113.1306 Q1789.9344,113.1306 1789.2938,113.4588 Q1788.6688,113.7869 1788.1688,114.5369 Q1787.6844,115.2869 1787.6844,116.3181 L1787.6844,117.4119 Q1787.6844,118.6463 1788.575,119.4744 Q1789.4656,120.2869 1791.0594,120.2869 Q1791.9969,120.2869 1792.6531,120.0369 Q1793.0438,119.8806 1793.4656,119.4431 Q1793.7313,119.1775 1793.8719,119.0994 Q1794.0281,119.0213 1794.2313,119.0213 Q1794.5594,119.0213 1794.8094,119.2869 Q1795.075,119.5369 1795.075,119.8806 Q1795.075,120.2244 1794.7313,120.6306 Q1794.2313,121.2088 1793.4344,121.5369 Q1792.3563,121.99 1791.0594,121.99 Q1789.5438,121.99 1788.3406,121.365 Q1787.3563,120.865 1786.6688,119.8025 Q1785.9813,118.7244 1785.9813,117.4431 L1785.9813,116.2869 Q1785.9813,114.9588 1786.5906,113.8181 Q1787.2156,112.6619 1788.3094,112.0525 Q1789.4031,111.4275 1790.6375,111.4275 Q1791.3719,111.4275 1792.0125,111.5994 Q1792.6688,111.7556 1793.2156,112.115 Z " fill="#000000"/><text fill="#000000" font-family="sans-serif" font-size="14" lengthAdjust="spacing" textLength="65" x="1806.55" y="122.0369">CLIEngine</text><line style="stroke:#181818;stroke-width:0.5;" x1="1767" x2="1883" y1="132.24" y2="132.24"/><line style="stroke:#181818;stroke-width:0.5;" x1="1767" x2="1883" y1="140.24" y2="140.24"/><ellipse cx="1777" cy="155.0505" fill="#84BE84" rx="3" ry="3" style="stroke:#038048;stroke-width:1.0;"/><text fill="#000000" font-family="sans-serif" font-size="14" lengthAdjust="spacing" textLength="72" x="1786" y="159.3474">start(): void</text><ellipse cx="1777" cy="173.6716" fill="#84BE84" rx="3" ry="3" style="stroke:#038048;stroke-width:1.0;"/><text fill="#000000" font-family="sans-serif" font-size="14" lengthAdjust="spacing" textLength="71" x="1786" y="177.9685">stop(): void</text><ellipse cx="1777" cy="192.2927" fill="#84BE84" rx="3" ry="3" style="stroke:#038048;stroke-width:1.0;"/><text fill="#000000" font-family="sans-serif" font-size="14" lengthAdjust="spacing" textLength="92" x="1786" y="196.5896">tick(long): void</text></g><!--class CLI--><g id="elem_CLI"><rect codeLine="34" fill="#F1F1F1" height="66.6211" id="CLI" rx="2.5" ry="2.5" style="stroke:#181818;stroke-width:0.5;" width="112" x="1567" y="118.74"/><ellipse cx="1608.55" cy="134.74" fill="#ADD1B2" rx="11" ry="11" style="stroke:#181818;stroke-width:1.0;"/><path d="M1611.3156,130.615 Q1611.4719,130.3963 1611.6594,130.2869 Q1611.8469,130.1775 1612.0656,130.1775 Q1612.4406,130.1775 1612.675,130.4431 Q1612.9094,130.6931 1612.9094,131.3025 L1612.9094,132.7556 Q1612.9094,133.365 1612.675,133.6306 Q1612.4406,133.8963 1612.0656,133.8963 Q1611.7219,133.8963 1611.5188,133.6931 Q1611.3156,133.5056 1611.2063,132.99 Q1611.1594,132.6306 1610.9719,132.4431 Q1610.6438,132.0681 1610.0344,131.8494 Q1609.425,131.6306 1608.8,131.6306 Q1608.0344,131.6306 1607.3938,131.9588 Q1606.7688,132.2869 1606.2688,133.0369 Q1605.7844,133.7869 1605.7844,134.8181 L1605.7844,135.9119 Q1605.7844,137.1463 1606.675,137.9744 Q1607.5656,138.7869 1609.1594,138.7869 Q1610.0969,138.7869 1610.7531,138.5369 Q1611.1438,138.3806 1611.5656,137.9431 Q1611.8313,137.6775 1611.9719,137.5994 Q1612.1281,137.5213 1612.3313,137.5213 Q1612.6594,137.5213 1612.9094,137.7869 Q1613.175,138.0369 1613.175,138.3806 Q1613.175,138.7244 1612.8313,139.1306 Q1612.3313,139.7088 1611.5344,140.0369 Q1610.4563,140.49 1609.1594,140.49 Q1607.6438,140.49 1606.4406,139.865 Q1605.4563,139.365 1604.7688,138.3025 Q1604.0813,137.2244 1604.0813,135.9431 L1604.0813,134.7869 Q1604.0813,133.4588 1604.6906,132.3181 Q1605.3156,131.1619 1606.4094,130.5525 Q1607.5031,129.9275 1608.7375,129.9275 Q1609.4719,129.9275 1610.1125,130.0994 Q1610.7688,130.2556 1611.3156,130.615 Z " fill="#000000"/><text fill="#000000" font-family="sans-serif" font-size="14" lengthAdjust="spacing" textLength="21" x="1628.45" y="140.5369">CLI</text><line style="stroke:#181818;stroke-width:0.5;" x1="1568" x2="1678" y1="150.74" y2="150.74"/><line style="stroke:#181818;stroke-width:0.5;" x1="1568" x2="1678" y1="158.74" y2="158.74"/><ellipse cx="1578" cy="173.5505" fill="#84BE84" rx="3" ry="3" style="stroke:#038048;stroke-width:1.0;"/><text fill="#000000" font-family="sans-serif" font-size="14" lengthAdjust="spacing" textLength="86" x="1587" y="177.8474">render(): void</text></g><!--class View--><g id="elem_View"><rect codeLine="40" fill="#F1F1F1" height="178.3477" id="View" rx="2.5" ry="2.5" style="stroke:#181818;stroke-width:0.5;" width="230" x="880" y="320.74"/><ellipse cx="976.25" cy="336.74" fill="#A9DCDF" rx="11" ry="11" style="stroke:#181818;stroke-width:1.0;"/><path d="M978.4375,338.5056 L974.2969,338.5056 L973.875,339.5369 L974.2969,339.5369 Q974.9063,339.5369 975.1719,339.7713 Q975.4375,340.0056 975.4375,340.3963 Q975.4375,340.7713 975.1719,341.0056 Q974.9063,341.24 974.2969,341.24 L972,341.24 Q971.3906,341.24 971.1406,341.0056 Q970.875,340.7713 970.875,340.3806 Q970.875,340.0056 971.1563,339.7713 Q971.4219,339.5213 972.0469,339.5369 L974.7188,332.8806 L973.6094,332.8806 Q973,332.8806 972.7344,332.6463 Q972.4688,332.4119 972.4688,332.0213 Q972.4688,331.6463 972.7344,331.4119 Q973,331.1775 973.6094,331.1775 L977.2813,331.1775 L980.6719,339.5369 Q981.2656,339.5369 981.4531,339.6775 Q981.8438,339.9431 981.8438,340.3963 Q981.8438,340.7713 981.5781,341.0056 Q981.3281,341.24 980.7188,341.24 L978.4219,341.24 Q977.8125,341.24 977.5469,341.0056 Q977.2813,340.7713 977.2813,340.3806 Q977.2813,340.0056 977.5469,339.7713 Q977.8125,339.5369 978.4219,339.5369 L978.8438,339.5369 L978.4375,338.5056 Z M977.7188,336.8025 L976.3594,333.4275 L974.9844,336.8025 L977.7188,336.8025 Z " fill="#000000"/><text fill="#000000" font-family="sans-serif" font-size="14" font-style="italic" lengthAdjust="spacing" textLength="29" x="996.75" y="342.5369">View</text><line style="stroke:#181818;stroke-width:0.5;" x1="881" x2="1109" y1="352.74" y2="352.74"/><polygon fill="none" points="891,362.5505,895,366.5505,891,370.5505,887,366.5505" style="stroke:#B38D22;stroke-width:1.0;"/><text fill="#000000" font-family="sans-serif" font-size="14" lengthAdjust="spacing" textLength="71" x="900" y="371.8474">Parent root</text><line style="stroke:#181818;stroke-width:1.0;" x1="881" x2="1109" y1="379.3611" y2="379.3611"/><ellipse cx="891" cy="394.1716" fill="#84BE84" rx="3" ry="3" style="stroke:#038048;stroke-width:1.0;"/><text fill="#000000" font-family="sans-serif" font-size="14" lengthAdjust="spacing" textLength="110" x="900" y="398.4685">getRoot(): Parent</text><ellipse cx="891" cy="412.7927" fill="#84BE84" rx="3" ry="3" style="stroke:#038048;stroke-width:1.0;"/><text fill="#000000" font-family="sans-serif" font-size="14" lengthAdjust="spacing" textLength="160" x="900" y="417.0896">enableRootEvents(): void</text><ellipse cx="891" cy="431.4138" fill="#84BE84" rx="3" ry="3" style="stroke:#038048;stroke-width:1.0;"/><text fill="#000000" font-family="sans-serif" font-size="14" lengthAdjust="spacing" textLength="107" x="900" y="435.7107">onViewInit(): void</text><ellipse cx="891" cy="450.0349" fill="#84BE84" rx="3" ry="3" style="stroke:#038048;stroke-width:1.0;"/><text fill="#000000" font-family="sans-serif" font-size="14" lengthAdjust="spacing" textLength="151" x="900" y="454.3318">onViewDisplayed(): void</text><ellipse cx="891" cy="468.656" fill="#84BE84" rx="3" ry="3" style="stroke:#038048;stroke-width:1.0;"/><text fill="#000000" font-family="sans-serif" font-size="14" lengthAdjust="spacing" textLength="196" x="900" y="472.9529">onKeyPressed(KeyEvent): void</text><ellipse cx="891" cy="487.2771" fill="#84BE84" rx="3" ry="3" style="stroke:#038048;stroke-width:1.0;"/><text fill="#000000" font-family="sans-serif" font-size="14" lengthAdjust="spacing" textLength="204" x="900" y="491.574">onKeyReleased(KeyEvent): void</text></g><!--class ViewController--><g id="elem_ViewController"><rect codeLine="51" fill="#F1F1F1" height="66.6211" id="ViewController" rx="2.5" ry="2.5" style="stroke:#181818;stroke-width:0.5;" width="167" x="475.5" y="376.24"/><ellipse cx="510.3" cy="392.24" fill="#A9DCDF" rx="11" ry="11" style="stroke:#181818;stroke-width:1.0;"/><path d="M512.4875,394.0056 L508.3469,394.0056 L507.925,395.0369 L508.3469,395.0369 Q508.9563,395.0369 509.2219,395.2713 Q509.4875,395.5056 509.4875,395.8963 Q509.4875,396.2713 509.2219,396.5056 Q508.9563,396.74 508.3469,396.74 L506.05,396.74 Q505.4406,396.74 505.1906,396.5056 Q504.925,396.2713 504.925,395.8806 Q504.925,395.5056 505.2063,395.2713 Q505.4719,395.0213 506.0969,395.0369 L508.7688,388.3806 L507.6594,388.3806 Q507.05,388.3806 506.7844,388.1463 Q506.5188,387.9119 506.5188,387.5213 Q506.5188,387.1463 506.7844,386.9119 Q507.05,386.6775 507.6594,386.6775 L511.3313,386.6775 L514.7219,395.0369 Q515.3156,395.0369 515.5031,395.1775 Q515.8938,395.4431 515.8938,395.8963 Q515.8938,396.2713 515.6281,396.5056 Q515.3781,396.74 514.7688,396.74 L512.4719,396.74 Q511.8625,396.74 511.5969,396.5056 Q511.3313,396.2713 511.3313,395.8806 Q511.3313,395.5056 511.5969,395.2713 Q511.8625,395.0369 512.4719,395.0369 L512.8938,395.0369 L512.4875,394.0056 Z M511.7688,392.3025 L510.4094,388.9275 L509.0344,392.3025 L511.7688,392.3025 Z " fill="#000000"/><text fill="#000000" font-family="sans-serif" font-size="14" font-style="italic" lengthAdjust="spacing" textLength="91" x="528.7" y="398.0369">ViewController</text><line style="stroke:#181818;stroke-width:0.5;" x1="476.5" x2="641.5" y1="408.24" y2="408.24"/><line style="stroke:#181818;stroke-width:0.5;" x1="476.5" x2="641.5" y1="416.24" y2="416.24"/><ellipse cx="486.5" cy="431.0505" fill="#84BE84" rx="3" ry="3" style="stroke:#038048;stroke-width:1.0;"/><text fill="#000000" font-family="sans-serif" font-size="14" font-style="italic" lengthAdjust="spacing" textLength="141" x="495.5" y="435.3474">applyLanguage(): void</text></g><!--class VIEWS--><g id="elem_VIEWS"><rect codeLine="55" fill="#F1F1F1" height="103.8633" id="VIEWS" rx="2.5" ry="2.5" style="stroke:#181818;stroke-width:0.5;" width="80" x="295" y="357.74"/><ellipse cx="312.25" cy="373.74" fill="#EB937F" rx="11" ry="11" style="stroke:#181818;stroke-width:1.0;"/><path d="M311.1094,374.5369 L311.1094,377.0369 L315.4375,377.0369 L315.4375,376.115 Q315.4375,375.5056 315.6719,375.24 Q315.9219,374.9744 316.2969,374.9744 Q316.6719,374.9744 316.9063,375.24 Q317.1406,375.5056 317.1406,376.115 L317.1406,378.74 L309.1406,378.74 Q308.5156,378.74 308.25,378.5056 Q308,378.2713 308,377.8806 Q308,377.5056 308.2656,377.2713 Q308.5313,377.0369 309.1406,377.0369 L309.4063,377.0369 L309.4063,370.3806 L309.1406,370.3806 Q308.5156,370.3806 308.25,370.1463 Q308,369.9119 308,369.5213 Q308,369.1463 308.25,368.9119 Q308.5156,368.6775 309.1406,368.6775 L316.7656,368.6775 L316.7656,371.2713 Q316.7656,371.8806 316.5313,372.1463 Q316.3125,372.3963 315.9219,372.3963 Q315.5469,372.3963 315.3125,372.1463 Q315.0781,371.8806 315.0781,371.2713 L315.0781,370.3806 L311.1094,370.3806 L311.1094,372.8338 L312.5938,372.8338 Q312.5938,372.1775 312.7188,371.99 Q312.9844,371.5838 313.4531,371.5838 Q313.8281,371.5838 314.0625,371.8494 Q314.2969,372.0994 314.2969,372.7088 L314.2969,374.6775 Q314.2969,375.2244 314.1719,375.4119 Q313.9063,375.8025 313.4531,375.8025 Q312.9844,375.8025 312.7188,375.3963 Q312.5938,375.2088 312.5938,374.5369 L311.1094,374.5369 Z " fill="#000000"/><text fill="#000000" font-family="sans-serif" font-size="14" lengthAdjust="spacing" textLength="43" x="326.75" y="379.5369">VIEWS</text><line style="stroke:#181818;stroke-width:0.5;" x1="296" x2="374" y1="389.74" y2="389.74"/><text fill="#000000" font-family="sans-serif" font-size="14" lengthAdjust="spacing" textLength="40" x="301" y="408.8474">HOME</text><text fill="#000000" font-family="sans-serif" font-size="14" lengthAdjust="spacing" textLength="40" x="301" y="427.4685">GAME</text><text fill="#000000" font-family="sans-serif" font-size="14" lengthAdjust="spacing" textLength="68" x="301" y="446.0896">SETTINGS</text><line style="stroke:#181818;stroke-width:0.5;" x1="296" x2="374" y1="453.6033" y2="453.6033"/></g><!--class ViewManager--><g id="elem_ViewManager"><rect codeLine="61" fill="#F1F1F1" height="196.9688" id="ViewManager" rx="2.5" ry="2.5" style="stroke:#181818;stroke-width:0.5;" width="227" x="1189.5" y="311.24"/><ellipse cx="1256.25" cy="327.24" fill="#ADD1B2" rx="11" ry="11" style="stroke:#181818;stroke-width:1.0;"/><path d="M1259.0156,323.115 Q1259.1719,322.8963 1259.3594,322.7869 Q1259.5469,322.6775 1259.7656,322.6775 Q1260.1406,322.6775 1260.375,322.9431 Q1260.6094,323.1931 1260.6094,323.8025 L1260.6094,325.2556 Q1260.6094,325.865 1260.375,326.1306 Q1260.1406,326.3963 1259.7656,326.3963 Q1259.4219,326.3963 1259.2188,326.1931 Q1259.0156,326.0056 1258.9063,325.49 Q1258.8594,325.1306 1258.6719,324.9431 Q1258.3438,324.5681 1257.7344,324.3494 Q1257.125,324.1306 1256.5,324.1306 Q1255.7344,324.1306 1255.0938,324.4588 Q1254.4688,324.7869 1253.9688,325.5369 Q1253.4844,326.2869 1253.4844,327.3181 L1253.4844,328.4119 Q1253.4844,329.6463 1254.375,330.4744 Q1255.2656,331.2869 1256.8594,331.2869 Q1257.7969,331.2869 1258.4531,331.0369 Q1258.8438,330.8806 1259.2656,330.4431 Q1259.5313,330.1775 1259.6719,330.0994 Q1259.8281,330.0213 1260.0313,330.0213 Q1260.3594,330.0213 1260.6094,330.2869 Q1260.875,330.5369 1260.875,330.8806 Q1260.875,331.2244 1260.5313,331.6306 Q1260.0313,332.2088 1259.2344,332.5369 Q1258.1563,332.99 1256.8594,332.99 Q1255.3438,332.99 1254.1406,332.365 Q1253.1563,331.865 1252.4688,330.8025 Q1251.7813,329.7244 1251.7813,328.4431 L1251.7813,327.2869 Q1251.7813,325.9588 1252.3906,324.8181 Q1253.0156,323.6619 1254.1094,323.0525 Q1255.2031,322.4275 1256.4375,322.4275 Q1257.1719,322.4275 1257.8125,322.5994 Q1258.4688,322.7556 1259.0156,323.115 Z " fill="#000000"/><text fill="#000000" font-family="sans-serif" font-size="14" lengthAdjust="spacing" textLength="85" x="1276.75" y="333.0369">ViewManager</text><line style="stroke:#181818;stroke-width:0.5;" x1="1190.5" x2="1415.5" y1="343.24" y2="343.24"/><rect fill="none" height="6" style="stroke:#C82930;stroke-width:1.0;" width="6" x="1197.5" y="355.0505"/><text fill="#000000" font-family="sans-serif" font-size="14" lengthAdjust="spacing" text-decoration="underline" textLength="146" x="1209.5" y="362.3474">instance: ViewManager</text><rect fill="none" height="6" style="stroke:#C82930;stroke-width:1.0;" width="6" x="1197.5" y="373.6716"/><text fill="#000000" font-family="sans-serif" font-size="14" lengthAdjust="spacing" textLength="80" x="1209.5" y="380.9685">stage: Stage</text><line style="stroke:#181818;stroke-width:1.0;" x1="1190.5" x2="1415.5" y1="388.4822" y2="388.4822"/><rect fill="#F24D5C" height="6" style="stroke:#C82930;stroke-width:1.0;" width="6" x="1197.5" y="400.2927"/><text fill="#000000" font-family="sans-serif" font-size="14" lengthAdjust="spacing" textLength="95" x="1209.5" y="407.5896">ViewManager()</text><ellipse cx="1200.5" cy="421.9138" fill="#84BE84" rx="3" ry="3" style="stroke:#038048;stroke-width:1.0;"/><text fill="#000000" font-family="sans-serif" font-size="14" lengthAdjust="spacing" text-decoration="underline" textLength="176" x="1209.5" y="426.2107">getInstance(): ViewManager</text><ellipse cx="1200.5" cy="440.5349" fill="#84BE84" rx="3" ry="3" style="stroke:#038048;stroke-width:1.0;"/><text fill="#000000" font-family="sans-serif" font-size="14" lengthAdjust="spacing" textLength="137" x="1209.5" y="444.8318">setStage(Stage): void</text><ellipse cx="1200.5" cy="459.156" fill="#84BE84" rx="3" ry="3" style="stroke:#038048;stroke-width:1.0;"/><text fill="#000000" font-family="sans-serif" font-size="14" lengthAdjust="spacing" textLength="201" x="1209.5" y="463.4529">registerView(VIEWS, View): void</text><ellipse cx="1200.5" cy="477.7771" fill="#84BE84" rx="3" ry="3" style="stroke:#038048;stroke-width:1.0;"/><text fill="#000000" font-family="sans-serif" font-size="14" lengthAdjust="spacing" textLength="158" x="1209.5" y="482.074">navigateTo(VIEWS): void</text><ellipse cx="1200.5" cy="496.3982" fill="#84BE84" rx="3" ry="3" style="stroke:#038048;stroke-width:1.0;"/><text fill="#000000" font-family="sans-serif" font-size="14" lengthAdjust="spacing" textLength="67" x="1209.5" y="500.6951">quit(): void</text></g><!--class Sprite--><g id="elem_Sprite"><rect codeLine="123" fill="#F1F1F1" height="85.2422" id="Sprite" rx="2.5" ry="2.5" style="stroke:#181818;stroke-width:0.5;" width="89" x="39.5" y="367.24"/><ellipse cx="63.5" cy="383.24" fill="#ADD1B2" rx="11" ry="11" style="stroke:#181818;stroke-width:1.0;"/><path d="M66.2656,379.115 Q66.4219,378.8963 66.6094,378.7869 Q66.7969,378.6775 67.0156,378.6775 Q67.3906,378.6775 67.625,378.9431 Q67.8594,379.1931 67.8594,379.8025 L67.8594,381.2556 Q67.8594,381.865 67.625,382.1306 Q67.3906,382.3963 67.0156,382.3963 Q66.6719,382.3963 66.4688,382.1931 Q66.2656,382.0056 66.1563,381.49 Q66.1094,381.1306 65.9219,380.9431 Q65.5938,380.5681 64.9844,380.3494 Q64.375,380.1306 63.75,380.1306 Q62.9844,380.1306 62.3438,380.4588 Q61.7188,380.7869 61.2188,381.5369 Q60.7344,382.2869 60.7344,383.3181 L60.7344,384.4119 Q60.7344,385.6463 61.625,386.4744 Q62.5156,387.2869 64.1094,387.2869 Q65.0469,387.2869 65.7031,387.0369 Q66.0938,386.8806 66.5156,386.4431 Q66.7813,386.1775 66.9219,386.0994 Q67.0781,386.0213 67.2813,386.0213 Q67.6094,386.0213 67.8594,386.2869 Q68.125,386.5369 68.125,386.8806 Q68.125,387.2244 67.7813,387.6306 Q67.2813,388.2088 66.4844,388.5369 Q65.4063,388.99 64.1094,388.99 Q62.5938,388.99 61.3906,388.365 Q60.4063,387.865 59.7188,386.8025 Q59.0313,385.7244 59.0313,384.4431 L59.0313,383.2869 Q59.0313,381.9588 59.6406,380.8181 Q60.2656,379.6619 61.3594,379.0525 Q62.4531,378.4275 63.6875,378.4275 Q64.4219,378.4275 65.0625,378.5994 Q65.7188,378.7556 66.2656,379.115 Z " fill="#000000"/><text fill="#000000" font-family="sans-serif" font-size="14" lengthAdjust="spacing" textLength="37" x="79.5" y="389.0369">Sprite</text><line style="stroke:#181818;stroke-width:0.5;" x1="40.5" x2="127.5" y1="399.24" y2="399.24"/><rect fill="none" height="6" style="stroke:#C82930;stroke-width:1.0;" width="6" x="47.5" y="411.0505"/><text fill="#000000" font-family="sans-serif" font-size="14" lengthAdjust="spacing" textLength="57" x="59.5" y="418.3474">String uri</text><line style="stroke:#181818;stroke-width:0.5;" x1="40.5" x2="127.5" y1="425.8611" y2="425.8611"/><ellipse cx="50.5" cy="440.6716" fill="#84BE84" rx="3" ry="3" style="stroke:#038048;stroke-width:1.0;"/><text fill="#000000" font-family="sans-serif" font-size="14" lengthAdjust="spacing" textLength="63" x="59.5" y="444.9685">Sprite(uri)</text></g><!--class HomeViewController--><g id="elem_HomeViewController"><rect codeLine="74" fill="#F1F1F1" height="122.4844" id="HomeViewController" rx="2.5" ry="2.5" style="stroke:#181818;stroke-width:0.5;" width="168" x="46" y="641.24"/><ellipse cx="65.05" cy="657.24" fill="#ADD1B2" rx="11" ry="11" style="stroke:#181818;stroke-width:1.0;"/><path d="M67.8156,653.115 Q67.9719,652.8963 68.1594,652.7869 Q68.3469,652.6775 68.5656,652.6775 Q68.9406,652.6775 69.175,652.9431 Q69.4094,653.1931 69.4094,653.8025 L69.4094,655.2556 Q69.4094,655.865 69.175,656.1306 Q68.9406,656.3963 68.5656,656.3963 Q68.2219,656.3963 68.0188,656.1931 Q67.8156,656.0056 67.7063,655.49 Q67.6594,655.1306 67.4719,654.9431 Q67.1438,654.5681 66.5344,654.3494 Q65.925,654.1306 65.3,654.1306 Q64.5344,654.1306 63.8938,654.4588 Q63.2688,654.7869 62.7688,655.5369 Q62.2844,656.2869 62.2844,657.3181 L62.2844,658.4119 Q62.2844,659.6463 63.175,660.4744 Q64.0656,661.2869 65.6594,661.2869 Q66.5969,661.2869 67.2531,661.0369 Q67.6438,660.8806 68.0656,660.4431 Q68.3313,660.1775 68.4719,660.0994 Q68.6281,660.0213 68.8313,660.0213 Q69.1594,660.0213 69.4094,660.2869 Q69.675,660.5369 69.675,660.8806 Q69.675,661.2244 69.3313,661.6306 Q68.8313,662.2088 68.0344,662.5369 Q66.9563,662.99 65.6594,662.99 Q64.1438,662.99 62.9406,662.365 Q61.9563,661.865 61.2688,660.8025 Q60.5813,659.7244 60.5813,658.4431 L60.5813,657.2869 Q60.5813,655.9588 61.1906,654.8181 Q61.8156,653.6619 62.9094,653.0525 Q64.0031,652.4275 65.2375,652.4275 Q65.9719,652.4275 66.6125,652.5994 Q67.2688,652.7556 67.8156,653.115 Z " fill="#000000"/><text fill="#000000" font-family="sans-serif" font-size="14" lengthAdjust="spacing" textLength="127" x="79.95" y="663.0369">HomeViewController</text><line style="stroke:#181818;stroke-width:0.5;" x1="47" x2="213" y1="673.24" y2="673.24"/><line style="stroke:#181818;stroke-width:0.5;" x1="47" x2="213" y1="681.24" y2="681.24"/><ellipse cx="57" cy="696.0505" fill="#84BE84" rx="3" ry="3" style="stroke:#038048;stroke-width:1.0;"/><text fill="#000000" font-family="sans-serif" font-size="14" lengthAdjust="spacing" textLength="142" x="66" y="700.3474">applyLanguage(): void</text><rect fill="#F24D5C" height="6" style="stroke:#C82930;stroke-width:1.0;" width="6" x="54" y="711.6716"/><text fill="#000000" font-family="sans-serif" font-size="14" lengthAdjust="spacing" textLength="120" x="66" y="718.9685">onClickStart(): void</text><rect fill="#F24D5C" height="6" style="stroke:#C82930;stroke-width:1.0;" width="6" x="54" y="730.2927"/><text fill="#000000" font-family="sans-serif" font-size="14" lengthAdjust="spacing" textLength="141" x="66" y="737.5896">onClickSettings(): void</text><rect fill="#F24D5C" height="6" style="stroke:#C82930;stroke-width:1.0;" width="6" x="54" y="748.9138"/><text fill="#000000" font-family="sans-serif" font-size="14" lengthAdjust="spacing" textLength="116" x="66" y="756.2107">onClickQuit(): void</text></g><!--class GameViewController--><g id="elem_GameViewController"><rect codeLine="81" fill="#F1F1F1" height="178.3477" id="GameViewController" rx="2.5" ry="2.5" style="stroke:#181818;stroke-width:0.5;" width="188" x="249" y="613.24"/><ellipse cx="276.15" cy="629.24" fill="#ADD1B2" rx="11" ry="11" style="stroke:#181818;stroke-width:1.0;"/><path d="M278.9156,625.115 Q279.0719,624.8963 279.2594,624.7869 Q279.4469,624.6775 279.6656,624.6775 Q280.0406,624.6775 280.275,624.9431 Q280.5094,625.1931 280.5094,625.8025 L280.5094,627.2556 Q280.5094,627.865 280.275,628.1306 Q280.0406,628.3963 279.6656,628.3963 Q279.3219,628.3963 279.1188,628.1931 Q278.9156,628.0056 278.8063,627.49 Q278.7594,627.1306 278.5719,626.9431 Q278.2438,626.5681 277.6344,626.3494 Q277.025,626.1306 276.4,626.1306 Q275.6344,626.1306 274.9938,626.4588 Q274.3688,626.7869 273.8688,627.5369 Q273.3844,628.2869 273.3844,629.3181 L273.3844,630.4119 Q273.3844,631.6463 274.275,632.4744 Q275.1656,633.2869 276.7594,633.2869 Q277.6969,633.2869 278.3531,633.0369 Q278.7438,632.8806 279.1656,632.4431 Q279.4313,632.1775 279.5719,632.0994 Q279.7281,632.0213 279.9313,632.0213 Q280.2594,632.0213 280.5094,632.2869 Q280.775,632.5369 280.775,632.8806 Q280.775,633.2244 280.4313,633.6306 Q279.9313,634.2088 279.1344,634.5369 Q278.0563,634.99 276.7594,634.99 Q275.2438,634.99 274.0406,634.365 Q273.0563,633.865 272.3688,632.8025 Q271.6813,631.7244 271.6813,630.4431 L271.6813,629.2869 Q271.6813,627.9588 272.2906,626.8181 Q272.9156,625.6619 274.0094,625.0525 Q275.1031,624.4275 276.3375,624.4275 Q277.0719,624.4275 277.7125,624.5994 Q278.3688,624.7556 278.9156,625.115 Z " fill="#000000"/><text fill="#000000" font-family="sans-serif" font-size="14" lengthAdjust="spacing" textLength="129" x="292.85" y="635.0369">GameViewController</text><line style="stroke:#181818;stroke-width:0.5;" x1="250" x2="436" y1="645.24" y2="645.24"/><rect fill="none" height="6" style="stroke:#C82930;stroke-width:1.0;" width="6" x="257" y="657.0505"/><text fill="#000000" font-family="sans-serif" font-size="14" lengthAdjust="spacing" textLength="108" x="269" y="664.3474">pane: StackPane</text><rect fill="none" height="6" style="stroke:#C82930;stroke-width:1.0;" width="6" x="257" y="675.6716"/><text fill="#000000" font-family="sans-serif" font-size="14" lengthAdjust="spacing" textLength="101" x="269" y="682.9685">canvas: Canvas</text><rect fill="none" height="6" style="stroke:#C82930;stroke-width:1.0;" width="6" x="257" y="694.2927"/><text fill="#000000" font-family="sans-serif" font-size="14" lengthAdjust="spacing" textLength="102" x="269" y="701.5896">overlay: Canvas</text><line style="stroke:#181818;stroke-width:1.0;" x1="250" x2="436" y1="709.1033" y2="709.1033"/><ellipse cx="260" cy="723.9138" fill="#84BE84" rx="3" ry="3" style="stroke:#038048;stroke-width:1.0;"/><text fill="#000000" font-family="sans-serif" font-size="14" lengthAdjust="spacing" textLength="142" x="269" y="728.2107">applyLanguage(): void</text><ellipse cx="260" cy="742.5349" fill="#84BE84" rx="3" ry="3" style="stroke:#038048;stroke-width:1.0;"/><text fill="#000000" font-family="sans-serif" font-size="14" lengthAdjust="spacing" textLength="139" x="269" y="746.8318">getPane(): StackPane</text><ellipse cx="260" cy="761.156" fill="#84BE84" rx="3" ry="3" style="stroke:#038048;stroke-width:1.0;"/><text fill="#000000" font-family="sans-serif" font-size="14" lengthAdjust="spacing" textLength="162" x="269" y="765.4529">getGameBoard(): Canvas</text><ellipse cx="260" cy="779.7771" fill="#84BE84" rx="3" ry="3" style="stroke:#038048;stroke-width:1.0;"/><text fill="#000000" font-family="sans-serif" font-size="14" lengthAdjust="spacing" textLength="135" x="269" y="784.074">getOverlay(): Canvas</text></g><!--class SettingsViewController--><g id="elem_SettingsViewController"><rect codeLine="92" fill="#F1F1F1" height="178.3477" id="SettingsViewController" rx="2.5" ry="2.5" style="stroke:#181818;stroke-width:0.5;" width="271" x="472.5" y="613.24"/><ellipse cx="532.75" cy="629.24" fill="#ADD1B2" rx="11" ry="11" style="stroke:#181818;stroke-width:1.0;"/><path d="M535.5156,625.115 Q535.6719,624.8963 535.8594,624.7869 Q536.0469,624.6775 536.2656,624.6775 Q536.6406,624.6775 536.875,624.9431 Q537.1094,625.1931 537.1094,625.8025 L537.1094,627.2556 Q537.1094,627.865 536.875,628.1306 Q536.6406,628.3963 536.2656,628.3963 Q535.9219,628.3963 535.7188,628.1931 Q535.5156,628.0056 535.4063,627.49 Q535.3594,627.1306 535.1719,626.9431 Q534.8438,626.5681 534.2344,626.3494 Q533.625,626.1306 533,626.1306 Q532.2344,626.1306 531.5938,626.4588 Q530.9688,626.7869 530.4688,627.5369 Q529.9844,628.2869 529.9844,629.3181 L529.9844,630.4119 Q529.9844,631.6463 530.875,632.4744 Q531.7656,633.2869 533.3594,633.2869 Q534.2969,633.2869 534.9531,633.0369 Q535.3438,632.8806 535.7656,632.4431 Q536.0313,632.1775 536.1719,632.0994 Q536.3281,632.0213 536.5313,632.0213 Q536.8594,632.0213 537.1094,632.2869 Q537.375,632.5369 537.375,632.8806 Q537.375,633.2244 537.0313,633.6306 Q536.5313,634.2088 535.7344,634.5369 Q534.6563,634.99 533.3594,634.99 Q531.8438,634.99 530.6406,634.365 Q529.6563,633.865 528.9688,632.8025 Q528.2813,631.7244 528.2813,630.4431 L528.2813,629.2869 Q528.2813,627.9588 528.8906,626.8181 Q529.5156,625.6619 530.6094,625.0525 Q531.7031,624.4275 532.9375,624.4275 Q533.6719,624.4275 534.3125,624.5994 Q534.9688,624.7556 535.5156,625.115 Z " fill="#000000"/><text fill="#000000" font-family="sans-serif" font-size="14" lengthAdjust="spacing" textLength="142" x="553.25" y="635.0369">SettingsViewController</text><line style="stroke:#181818;stroke-width:0.5;" x1="473.5" x2="742.5" y1="645.24" y2="645.24"/><rect fill="none" height="6" style="stroke:#C82930;stroke-width:1.0;" width="6" x="480.5" y="657.0505"/><text fill="#000000" font-family="sans-serif" font-size="14" lengthAdjust="spacing" textLength="197" x="492.5" y="664.3474">fullScreenCheckBox: CheckBox</text><rect fill="none" height="6" style="stroke:#C82930;stroke-width:1.0;" width="6" x="480.5" y="675.6716"/><text fill="#000000" font-family="sans-serif" font-size="14" lengthAdjust="spacing" textLength="203" x="492.5" y="682.9685">languageComboBox: ComboBox</text><line style="stroke:#181818;stroke-width:1.0;" x1="473.5" x2="742.5" y1="690.4822" y2="690.4822"/><ellipse cx="483.5" cy="705.2927" fill="#84BE84" rx="3" ry="3" style="stroke:#038048;stroke-width:1.0;"/><text fill="#000000" font-family="sans-serif" font-size="14" lengthAdjust="spacing" textLength="142" x="492.5" y="709.5896">applyLanguage(): void</text><ellipse cx="483.5" cy="723.9138" fill="#84BE84" rx="3" ry="3" style="stroke:#038048;stroke-width:1.0;"/><text fill="#000000" font-family="sans-serif" font-size="14" lengthAdjust="spacing" textLength="238" x="492.5" y="728.2107">getLanguageComboBox(): ComboBox</text><ellipse cx="483.5" cy="742.5349" fill="#84BE84" rx="3" ry="3" style="stroke:#038048;stroke-width:1.0;"/><text fill="#000000" font-family="sans-serif" font-size="14" lengthAdjust="spacing" textLength="245" x="492.5" y="746.8318">setFullScreenCheckBox(boolean): void</text><rect fill="#F24D5C" height="6" style="stroke:#C82930;stroke-width:1.0;" width="6" x="480.5" y="758.156"/><text fill="#000000" font-family="sans-serif" font-size="14" lengthAdjust="spacing" textLength="172" x="492.5" y="765.4529">onFullScreenToggle(): void</text><rect fill="#F24D5C" height="6" style="stroke:#C82930;stroke-width:1.0;" width="6" x="480.5" y="776.7771"/><text fill="#000000" font-family="sans-serif" font-size="14" lengthAdjust="spacing" textLength="121" x="492.5" y="784.074">onClickBack(): void</text></g><!--class HomeView--><g id="elem_HomeView"><rect codeLine="103" fill="#F1F1F1" height="85.2422" id="HomeView" rx="2.5" ry="2.5" style="stroke:#181818;stroke-width:0.5;" width="222" x="779" y="659.74"/><ellipse cx="853.25" cy="675.74" fill="#ADD1B2" rx="11" ry="11" style="stroke:#181818;stroke-width:1.0;"/><path d="M856.0156,671.615 Q856.1719,671.3963 856.3594,671.2869 Q856.5469,671.1775 856.7656,671.1775 Q857.1406,671.1775 857.375,671.4431 Q857.6094,671.6931 857.6094,672.3025 L857.6094,673.7556 Q857.6094,674.365 857.375,674.6306 Q857.1406,674.8963 856.7656,674.8963 Q856.4219,674.8963 856.2188,674.6931 Q856.0156,674.5056 855.9063,673.99 Q855.8594,673.6306 855.6719,673.4431 Q855.3438,673.0681 854.7344,672.8494 Q854.125,672.6306 853.5,672.6306 Q852.7344,672.6306 852.0938,672.9588 Q851.4688,673.2869 850.9688,674.0369 Q850.4844,674.7869 850.4844,675.8181 L850.4844,676.9119 Q850.4844,678.1463 851.375,678.9744 Q852.2656,679.7869 853.8594,679.7869 Q854.7969,679.7869 855.4531,679.5369 Q855.8438,679.3806 856.2656,678.9431 Q856.5313,678.6775 856.6719,678.5994 Q856.8281,678.5213 857.0313,678.5213 Q857.3594,678.5213 857.6094,678.7869 Q857.875,679.0369 857.875,679.3806 Q857.875,679.7244 857.5313,680.1306 Q857.0313,680.7088 856.2344,681.0369 Q855.1563,681.49 853.8594,681.49 Q852.3438,681.49 851.1406,680.865 Q850.1563,680.365 849.4688,679.3025 Q848.7813,678.2244 848.7813,676.9431 L848.7813,675.7869 Q848.7813,674.4588 849.3906,673.3181 Q850.0156,672.1619 851.1094,671.5525 Q852.2031,670.9275 853.4375,670.9275 Q854.1719,670.9275 854.8125,671.0994 Q855.4688,671.2556 856.0156,671.615 Z " fill="#000000"/><text fill="#000000" font-family="sans-serif" font-size="14" lengthAdjust="spacing" textLength="65" x="873.75" y="681.5369">HomeView</text><line style="stroke:#181818;stroke-width:0.5;" x1="780" x2="1000" y1="691.74" y2="691.74"/><line style="stroke:#181818;stroke-width:0.5;" x1="780" x2="1000" y1="699.74" y2="699.74"/><ellipse cx="790" cy="714.5505" fill="#84BE84" rx="3" ry="3" style="stroke:#038048;stroke-width:1.0;"/><text fill="#000000" font-family="sans-serif" font-size="14" lengthAdjust="spacing" textLength="75" x="799" y="718.8474">HomeView()</text><ellipse cx="790" cy="733.1716" fill="#84BE84" rx="3" ry="3" style="stroke:#038048;stroke-width:1.0;"/><text fill="#000000" font-family="sans-serif" font-size="14" lengthAdjust="spacing" textLength="196" x="799" y="737.4685">onKeyPressed(KeyEvent): void</text></g><!--class GameView--><g id="elem_GameView"><rect codeLine="108" fill="#F1F1F1" height="159.7266" id="GameView" rx="2.5" ry="2.5" style="stroke:#181818;stroke-width:0.5;" width="275" x="1204.5" y="622.24"/><ellipse cx="1304.25" cy="638.24" fill="#ADD1B2" rx="11" ry="11" style="stroke:#181818;stroke-width:1.0;"/><path d="M1307.0156,634.115 Q1307.1719,633.8963 1307.3594,633.7869 Q1307.5469,633.6775 1307.7656,633.6775 Q1308.1406,633.6775 1308.375,633.9431 Q1308.6094,634.1931 1308.6094,634.8025 L1308.6094,636.2556 Q1308.6094,636.865 1308.375,637.1306 Q1308.1406,637.3963 1307.7656,637.3963 Q1307.4219,637.3963 1307.2188,637.1931 Q1307.0156,637.0056 1306.9063,636.49 Q1306.8594,636.1306 1306.6719,635.9431 Q1306.3438,635.5681 1305.7344,635.3494 Q1305.125,635.1306 1304.5,635.1306 Q1303.7344,635.1306 1303.0938,635.4588 Q1302.4688,635.7869 1301.9688,636.5369 Q1301.4844,637.2869 1301.4844,638.3181 L1301.4844,639.4119 Q1301.4844,640.6463 1302.375,641.4744 Q1303.2656,642.2869 1304.8594,642.2869 Q1305.7969,642.2869 1306.4531,642.0369 Q1306.8438,641.8806 1307.2656,641.4431 Q1307.5313,641.1775 1307.6719,641.0994 Q1307.8281,641.0213 1308.0313,641.0213 Q1308.3594,641.0213 1308.6094,641.2869 Q1308.875,641.5369 1308.875,641.8806 Q1308.875,642.2244 1308.5313,642.6306 Q1308.0313,643.2088 1307.2344,643.5369 Q1306.1563,643.99 1304.8594,643.99 Q1303.3438,643.99 1302.1406,643.365 Q1301.1563,642.865 1300.4688,641.8025 Q1299.7813,640.7244 1299.7813,639.4431 L1299.7813,638.2869 Q1299.7813,636.9588 1300.3906,635.8181 Q1301.0156,634.6619 1302.1094,634.0525 Q1303.2031,633.4275 1304.4375,633.4275 Q1305.1719,633.4275 1305.8125,633.5994 Q1306.4688,633.7556 1307.0156,634.115 Z " fill="#000000"/><text fill="#000000" font-family="sans-serif" font-size="14" lengthAdjust="spacing" textLength="67" x="1324.75" y="644.0369">GameView</text><line style="stroke:#181818;stroke-width:0.5;" x1="1205.5" x2="1478.5" y1="654.24" y2="654.24"/><line style="stroke:#181818;stroke-width:0.5;" x1="1205.5" x2="1478.5" y1="662.24" y2="662.24"/><ellipse cx="1215.5" cy="677.0505" fill="#84BE84" rx="3" ry="3" style="stroke:#038048;stroke-width:1.0;"/><text fill="#000000" font-family="sans-serif" font-size="14" lengthAdjust="spacing" textLength="77" x="1224.5" y="681.3474">GameView()</text><ellipse cx="1215.5" cy="695.6716" fill="#84BE84" rx="3" ry="3" style="stroke:#038048;stroke-width:1.0;"/><text fill="#000000" font-family="sans-serif" font-size="14" lengthAdjust="spacing" textLength="151" x="1224.5" y="699.9685">onViewDisplayed(): void</text><ellipse cx="1215.5" cy="714.2927" fill="#84BE84" rx="3" ry="3" style="stroke:#038048;stroke-width:1.0;"/><text fill="#000000" font-family="sans-serif" font-size="14" lengthAdjust="spacing" textLength="86" x="1224.5" y="718.5896">render(): void</text><rect fill="#F24D5C" height="6" style="stroke:#C82930;stroke-width:1.0;" width="6" x="1212.5" y="729.9138"/><text fill="#000000" font-family="sans-serif" font-size="14" lengthAdjust="spacing" textLength="249" x="1224.5" y="737.2107">drawGameBoard(Canvas, double): void</text><rect fill="#F24D5C" height="6" style="stroke:#C82930;stroke-width:1.0;" width="6" x="1212.5" y="748.5349"/><text fill="#000000" font-family="sans-serif" font-size="14" lengthAdjust="spacing" textLength="171" x="1224.5" y="755.8318">drawOverlay(Canvas): void</text><rect fill="#F24D5C" height="6" style="stroke:#C82930;stroke-width:1.0;" width="6" x="1212.5" y="767.156"/><text fill="#000000" font-family="sans-serif" font-size="14" lengthAdjust="spacing" textLength="171" x="1224.5" y="774.4529">clearCanvas(Canvas): void</text></g><!--class SettingsView--><g id="elem_SettingsView"><rect codeLine="117" fill="#F1F1F1" height="85.2422" id="SettingsView" rx="2.5" ry="2.5" style="stroke:#181818;stroke-width:0.5;" width="133" x="1036.5" y="659.74"/><ellipse cx="1060.95" cy="675.74" fill="#ADD1B2" rx="11" ry="11" style="stroke:#181818;stroke-width:1.0;"/><path d="M1063.7156,671.615 Q1063.8719,671.3963 1064.0594,671.2869 Q1064.2469,671.1775 1064.4656,671.1775 Q1064.8406,671.1775 1065.075,671.4431 Q1065.3094,671.6931 1065.3094,672.3025 L1065.3094,673.7556 Q1065.3094,674.365 1065.075,674.6306 Q1064.8406,674.8963 1064.4656,674.8963 Q1064.1219,674.8963 1063.9188,674.6931 Q1063.7156,674.5056 1063.6063,673.99 Q1063.5594,673.6306 1063.3719,673.4431 Q1063.0438,673.0681 1062.4344,672.8494 Q1061.825,672.6306 1061.2,672.6306 Q1060.4344,672.6306 1059.7938,672.9588 Q1059.1688,673.2869 1058.6688,674.0369 Q1058.1844,674.7869 1058.1844,675.8181 L1058.1844,676.9119 Q1058.1844,678.1463 1059.075,678.9744 Q1059.9656,679.7869 1061.5594,679.7869 Q1062.4969,679.7869 1063.1531,679.5369 Q1063.5438,679.3806 1063.9656,678.9431 Q1064.2313,678.6775 1064.3719,678.5994 Q1064.5281,678.5213 1064.7313,678.5213 Q1065.0594,678.5213 1065.3094,678.7869 Q1065.575,679.0369 1065.575,679.3806 Q1065.575,679.7244 1065.2313,680.1306 Q1064.7313,680.7088 1063.9344,681.0369 Q1062.8563,681.49 1061.5594,681.49 Q1060.0438,681.49 1058.8406,680.865 Q1057.8563,680.365 1057.1688,679.3025 Q1056.4813,678.2244 1056.4813,676.9431 L1056.4813,675.7869 Q1056.4813,674.4588 1057.0906,673.3181 Q1057.7156,672.1619 1058.8094,671.5525 Q1059.9031,670.9275 1061.1375,670.9275 Q1061.8719,670.9275 1062.5125,671.0994 Q1063.1688,671.2556 1063.7156,671.615 Z " fill="#000000"/><text fill="#000000" font-family="sans-serif" font-size="14" lengthAdjust="spacing" textLength="80" x="1077.05" y="681.5369">SettingsView</text><line style="stroke:#181818;stroke-width:0.5;" x1="1037.5" x2="1168.5" y1="691.74" y2="691.74"/><line style="stroke:#181818;stroke-width:0.5;" x1="1037.5" x2="1168.5" y1="699.74" y2="699.74"/><ellipse cx="1047.5" cy="714.5505" fill="#84BE84" rx="3" ry="3" style="stroke:#038048;stroke-width:1.0;"/><text fill="#000000" font-family="sans-serif" font-size="14" lengthAdjust="spacing" textLength="90" x="1056.5" y="718.8474">SettingsView()</text><ellipse cx="1047.5" cy="733.1716" fill="#84BE84" rx="3" ry="3" style="stroke:#038048;stroke-width:1.0;"/><text fill="#000000" font-family="sans-serif" font-size="14" lengthAdjust="spacing" textLength="107" x="1056.5" y="737.4685">onViewInit(): void</text></g><!--class GUIController--><g id="elem_GUIController"><rect codeLine="129" fill="#F1F1F1" height="66.6211" id="GUIController" rx="2.5" ry="2.5" style="stroke:#181818;stroke-width:0.5;" width="141" x="1323.5" y="1137.24"/><ellipse cx="1349.3" cy="1153.24" fill="#ADD1B2" rx="11" ry="11" style="stroke:#181818;stroke-width:1.0;"/><path d="M1352.0656,1149.115 Q1352.2219,1148.8963 1352.4094,1148.7869 Q1352.5969,1148.6775 1352.8156,1148.6775 Q1353.1906,1148.6775 1353.425,1148.9431 Q1353.6594,1149.1931 1353.6594,1149.8025 L1353.6594,1151.2556 Q1353.6594,1151.865 1353.425,1152.1306 Q1353.1906,1152.3963 1352.8156,1152.3963 Q1352.4719,1152.3963 1352.2688,1152.1931 Q1352.0656,1152.0056 1351.9563,1151.49 Q1351.9094,1151.1306 1351.7219,1150.9431 Q1351.3938,1150.5681 1350.7844,1150.3494 Q1350.175,1150.1306 1349.55,1150.1306 Q1348.7844,1150.1306 1348.1438,1150.4588 Q1347.5188,1150.7869 1347.0188,1151.5369 Q1346.5344,1152.2869 1346.5344,1153.3181 L1346.5344,1154.4119 Q1346.5344,1155.6463 1347.425,1156.4744 Q1348.3156,1157.2869 1349.9094,1157.2869 Q1350.8469,1157.2869 1351.5031,1157.0369 Q1351.8938,1156.8806 1352.3156,1156.4431 Q1352.5813,1156.1775 1352.7219,1156.0994 Q1352.8781,1156.0213 1353.0813,1156.0213 Q1353.4094,1156.0213 1353.6594,1156.2869 Q1353.925,1156.5369 1353.925,1156.8806 Q1353.925,1157.2244 1353.5813,1157.6306 Q1353.0813,1158.2088 1352.2844,1158.5369 Q1351.2063,1158.99 1349.9094,1158.99 Q1348.3938,1158.99 1347.1906,1158.365 Q1346.2063,1157.865 1345.5188,1156.8025 Q1344.8313,1155.7244 1344.8313,1154.4431 L1344.8313,1153.2869 Q1344.8313,1151.9588 1345.4406,1150.8181 Q1346.0656,1149.6619 1347.1594,1149.0525 Q1348.2531,1148.4275 1349.4875,1148.4275 Q1350.2219,1148.4275 1350.8625,1148.5994 Q1351.5188,1148.7556 1352.0656,1149.115 Z " fill="#000000"/><text fill="#000000" font-family="sans-serif" font-size="14" lengthAdjust="spacing" textLength="85" x="1365.7" y="1159.0369">GUIController</text><line style="stroke:#181818;stroke-width:0.5;" x1="1324.5" x2="1463.5" y1="1169.24" y2="1169.24"/><line style="stroke:#181818;stroke-width:0.5;" x1="1324.5" x2="1463.5" y1="1177.24" y2="1177.24"/><ellipse cx="1334.5" cy="1192.0505" fill="#84BE84" rx="3" ry="3" style="stroke:#038048;stroke-width:1.0;"/><text fill="#000000" font-family="sans-serif" font-size="14" lengthAdjust="spacing" textLength="115" x="1343.5" y="1196.3474">update(long): void</text></g><!--class GUIEngine--><g id="elem_GUIEngine"><rect codeLine="133" fill="#F1F1F1" height="159.7266" id="GUIEngine" rx="2.5" ry="2.5" style="stroke:#181818;stroke-width:0.5;" width="171" x="1308.5" y="916.24"/><ellipse cx="1356.25" cy="932.24" fill="#ADD1B2" rx="11" ry="11" style="stroke:#181818;stroke-width:1.0;"/><path d="M1359.0156,928.115 Q1359.1719,927.8963 1359.3594,927.7869 Q1359.5469,927.6775 1359.7656,927.6775 Q1360.1406,927.6775 1360.375,927.9431 Q1360.6094,928.1931 1360.6094,928.8025 L1360.6094,930.2556 Q1360.6094,930.865 1360.375,931.1306 Q1360.1406,931.3963 1359.7656,931.3963 Q1359.4219,931.3963 1359.2188,931.1931 Q1359.0156,931.0056 1358.9063,930.49 Q1358.8594,930.1306 1358.6719,929.9431 Q1358.3438,929.5681 1357.7344,929.3494 Q1357.125,929.1306 1356.5,929.1306 Q1355.7344,929.1306 1355.0938,929.4588 Q1354.4688,929.7869 1353.9688,930.5369 Q1353.4844,931.2869 1353.4844,932.3181 L1353.4844,933.4119 Q1353.4844,934.6463 1354.375,935.4744 Q1355.2656,936.2869 1356.8594,936.2869 Q1357.7969,936.2869 1358.4531,936.0369 Q1358.8438,935.8806 1359.2656,935.4431 Q1359.5313,935.1775 1359.6719,935.0994 Q1359.8281,935.0213 1360.0313,935.0213 Q1360.3594,935.0213 1360.6094,935.2869 Q1360.875,935.5369 1360.875,935.8806 Q1360.875,936.2244 1360.5313,936.6306 Q1360.0313,937.2088 1359.2344,937.5369 Q1358.1563,937.99 1356.8594,937.99 Q1355.3438,937.99 1354.1406,937.365 Q1353.1563,936.865 1352.4688,935.8025 Q1351.7813,934.7244 1351.7813,933.4431 L1351.7813,932.2869 Q1351.7813,930.9588 1352.3906,929.8181 Q1353.0156,928.6619 1354.1094,928.0525 Q1355.2031,927.4275 1356.4375,927.4275 Q1357.1719,927.4275 1357.8125,927.5994 Q1358.4688,927.7556 1359.0156,928.115 Z " fill="#000000"/><text fill="#000000" font-family="sans-serif" font-size="14" lengthAdjust="spacing" textLength="67" x="1376.75" y="938.0369">GUIEngine</text><line style="stroke:#181818;stroke-width:0.5;" x1="1309.5" x2="1478.5" y1="948.24" y2="948.24"/><rect fill="none" height="6" style="stroke:#C82930;stroke-width:1.0;" width="6" x="1316.5" y="960.0505"/><text fill="#000000" font-family="sans-serif" font-size="14" lengthAdjust="spacing" textLength="133" x="1328.5" y="967.3474">AnimationTimer timer</text><line style="stroke:#181818;stroke-width:1.0;" x1="1309.5" x2="1478.5" y1="974.8611" y2="974.8611"/><ellipse cx="1319.5" cy="989.6716" fill="#84BE84" rx="3" ry="3" style="stroke:#038048;stroke-width:1.0;"/><text fill="#000000" font-family="sans-serif" font-size="14" lengthAdjust="spacing" textLength="92" x="1328.5" y="993.9685">tick(long): void</text><ellipse cx="1319.5" cy="1008.2927" fill="#84BE84" rx="3" ry="3" style="stroke:#038048;stroke-width:1.0;"/><text fill="#000000" font-family="sans-serif" font-size="14" lengthAdjust="spacing" textLength="72" x="1328.5" y="1012.5896">start(): void</text><ellipse cx="1319.5" cy="1026.9138" fill="#84BE84" rx="3" ry="3" style="stroke:#038048;stroke-width:1.0;"/><text fill="#000000" font-family="sans-serif" font-size="14" lengthAdjust="spacing" textLength="71" x="1328.5" y="1031.2107">stop(): void</text><ellipse cx="1319.5" cy="1045.5349" fill="#84BE84" rx="3" ry="3" style="stroke:#038048;stroke-width:1.0;"/><text fill="#000000" font-family="sans-serif" font-size="14" lengthAdjust="spacing" textLength="145" x="1328.5" y="1049.8318">getComputedFPS(): int</text><ellipse cx="1319.5" cy="1064.156" fill="#84BE84" rx="3" ry="3" style="stroke:#038048;stroke-width:1.0;"/><text fill="#000000" font-family="sans-serif" font-size="14" lengthAdjust="spacing" textLength="80" x="1328.5" y="1068.4529">getFPS(): int</text></g><!--link GameInterface to Engine--><g id="link_GameInterface_Engine"><path codeLine="146" d="M1686.05,409.74 C1704.7,409.74 1725.36,409.74 1744.89,409.74 " fill="none" id="GameInterface-Engine" style="stroke:#181818;stroke-width:1.0;"/><polygon fill="none" points="1709.5,392.8855,1713.5,396.8855,1709.5,400.8855,1705.5,396.8855" style="stroke:#B38D22;stroke-width:1.0;"/><text fill="#000000" font-family="sans-serif" font-size="13" lengthAdjust="spacing" textLength="10" x="1716.5" y="402.7683">ui</text><text fill="#000000" font-family="sans-serif" font-size="13" lengthAdjust="spacing" textLength="7" x="1694.1608" y="405.7732">1</text></g><!--link Engine to GameController--><g id="link_Engine_GameController"><path codeLine="147" d="M1903.07,409.74 C1935.69,409.74 1973.18,409.74 2004.81,409.74 " fill="none" id="Engine-GameController" style="stroke:#181818;stroke-width:1.0;"/><polygon fill="none" points="1926.5,392.8855,1930.5,396.8855,1926.5,400.8855,1922.5,396.8855" style="stroke:#B38D22;stroke-width:1.0;"/><text fill="#000000" font-family="sans-serif" font-size="13" lengthAdjust="spacing" textLength="53" x="1933.5" y="402.7683">controller</text><text fill="#000000" font-family="sans-serif" font-size="13" lengthAdjust="spacing" textLength="7" x="1990.2107" y="405.8943">1</text></g><!--link CLIController to GameController--><g id="link_CLIController_GameController"><path codeLine="150" d="M2007,204.33 C2022.89,252.1 2040.6494,305.4699 2055.4394,349.9399 " fill="none" id="CLIController-to-GameController" style="stroke:#181818;stroke-width:1.0;"/><polygon fill="none" points="2061.12,367.02,2061.1328,348.0463,2049.746,351.8334,2061.12,367.02" style="stroke:#181818;stroke-width:1.0;"/></g><!--link CLIEngine to Engine--><g id="link_CLIEngine_Engine"><path codeLine="151" d="M1824.8,204.33 C1824.64,245.83 1824.4798,286.4701 1824.3098,330.3001 " fill="none" id="CLIEngine-to-Engine" style="stroke:#181818;stroke-width:1.0;"/><polygon fill="none" points="1824.24,348.3,1830.3098,330.3234,1818.3099,330.2769,1824.24,348.3" style="stroke:#181818;stroke-width:1.0;"/></g><!--link CLI to GameInterface--><g id="link_CLI_GameInterface"><path codeLine="152" d="M1623,185.86 C1623,234.83 1623,308.82 1623,357.91 " fill="none" id="CLI-to-GameInterface" style="stroke:#181818;stroke-width:1.0;stroke-dasharray:7.0,7.0;"/><polygon fill="none" points="1623,375.91,1629,357.91,1617,357.91,1623,375.91" style="stroke:#181818;stroke-width:1.0;"/></g><!--link CLI to CLIController--><g id="link_CLI_CLIController"><path codeLine="153" d="M1647.64,118.5 C1670.37,90.48 1706.9,52.67 1749,36.24 C1812.35,11.52 1841.1,6 1902,36.24 C1929.17,49.73 1950.2,76.06 1964.88,100.23 " fill="none" id="CLI-CLIController" style="stroke:#181818;stroke-width:1.0;"/><rect fill="none" height="6" style="stroke:#C82930;stroke-width:1.0;" width="6" x="1768.5" y="14.3855"/><text fill="#000000" font-family="sans-serif" font-size="13" lengthAdjust="spacing" textLength="53" x="1778.5" y="22.2683">controller</text><text fill="#000000" font-family="sans-serif" font-size="13" lengthAdjust="spacing" textLength="7" x="1954.0342" y="89.156">1</text></g><!--link CLI to CLIEngine--><g id="link_CLI_CLIEngine"><path codeLine="154" d="M1679,152.24 C1705.97,152.24 1738.32,152.24 1765.71,152.24 " fill="none" id="CLI-CLIEngine" style="stroke:#181818;stroke-width:1.0;"/><rect fill="none" height="6" style="stroke:#C82930;stroke-width:1.0;" width="6" x="1699.5" y="137.3855"/><text fill="#000000" font-family="sans-serif" font-size="13" lengthAdjust="spacing" textLength="38" x="1709.5" y="145.2683">engine</text><text fill="#000000" font-family="sans-serif" font-size="13" lengthAdjust="spacing" textLength="7" x="1751.0575" y="148.2584">1</text></g><!--reverse link GameController to GUIController--><g id="link_GameController_GUIController"><path codeLine="157" d="M2030.4785,466.3859 C1944.3585,573.4559 1716.65,851.72 1497,1076.24 C1476.4,1097.3 1452.04,1119.52 1432.18,1137.02 " fill="none" id="GameController-backto-GUIController" style="stroke:#181818;stroke-width:1.0;"/><polygon fill="none" points="2041.76,452.36,2025.8032,462.6254,2035.1538,470.1465,2041.76,452.36" style="stroke:#181818;stroke-width:1.0;"/></g><!--reverse link Engine to GUIEngine--><g id="link_Engine_GUIEngine"><path codeLine="158" d="M1769.1337,485.3193 C1691.0237,591.4993 1539.26,797.79 1452.16,916.18 " fill="none" id="Engine-backto-GUIEngine" style="stroke:#181818;stroke-width:1.0;"/><polygon fill="none" points="1779.8,470.82,1764.3006,481.7639,1773.9669,488.8748,1779.8,470.82" style="stroke:#181818;stroke-width:1.0;"/></g><!--reverse link GameInterface to GameView--><g id="link_GameInterface_GameView"><path codeLine="159" d="M1578.7958,456.4381 C1537.1758,499.4681 1475.23,563.5 1418.49,622.16 " fill="none" id="GameInterface-backto-GameView" style="stroke:#181818;stroke-width:1.0;stroke-dasharray:7.0,7.0;"/><polygon fill="none" points="1591.31,443.5,1574.4831,452.2667,1583.1085,460.6095,1591.31,443.5" style="stroke:#181818;stroke-width:1.0;"/></g><!--link GameView to GUIController--><g id="link_GameView_GUIController"><path codeLine="160" d="M1262.77,782.3 C1246.92,802.81 1232.52,826.01 1224,850.24 C1190.67,944.99 1172.88,989.78 1224,1076.24 C1245.52,1112.63 1286.79,1135.81 1323.28,1149.99 " fill="none" id="GameView-GUIController" style="stroke:#181818;stroke-width:1.0;"/><rect fill="none" height="6" style="stroke:#C82930;stroke-width:1.0;" width="6" x="1227" y="993.8855"/><text fill="#000000" font-family="sans-serif" font-size="13" lengthAdjust="spacing" textLength="53" x="1237" y="1001.7683">controller</text><text fill="#000000" font-family="sans-serif" font-size="13" lengthAdjust="spacing" textLength="7" x="1308.6261" y="1144.0365">1</text></g><!--link GameView to GUIEngine--><g id="link_GameView_GUIEngine"><path codeLine="161" d="M1356.07,782.26 C1363.47,823.81 1372.52,874.6 1379.92,916.16 " fill="none" id="GameView-GUIEngine" style="stroke:#181818;stroke-width:1.0;"/><rect fill="none" height="6" style="stroke:#C82930;stroke-width:1.0;" width="6" x="1369" y="830.3855"/><text fill="#000000" font-family="sans-serif" font-size="13" lengthAdjust="spacing" textLength="38" x="1379" y="838.2683">engine</text><text fill="#000000" font-family="sans-serif" font-size="13" lengthAdjust="spacing" textLength="7" x="1371.2993" y="905.0484">1</text></g><!--link GUIEngine to GUIController--><!--link ViewController to View--><g id="link_ViewController_View"><path codeLine="164" d="M642.55,409.74 C709.81,409.74 805.07,409.74 879.61,409.74 " fill="none" id="ViewController-View" style="stroke:#181818;stroke-width:1.0;"/><polygon fill="none" points="733.75,392.8855,737.75,396.8855,733.75,400.8855,729.75,396.8855" style="stroke:#B38D22;stroke-width:1.0;"/><text fill="#000000" font-family="sans-serif" font-size="13" lengthAdjust="spacing" textLength="53" x="740.75" y="402.7683">controller</text><text fill="#000000" font-family="sans-serif" font-size="13" lengthAdjust="spacing" textLength="7" x="650.5749" y="406.0156">1</text></g><!--link View to ViewManager--><g id="link_View_ViewManager"><path codeLine="165" d="M1110.13,409.74 C1136.01,409.74 1163.47,409.74 1189.29,409.74 " fill="none" id="View-ViewManager" style="stroke:#181818;stroke-width:1.0;"/><rect fill="none" height="6" style="stroke:#C82930;stroke-width:1.0;" width="6" x="1130.25" y="394.8855"/><text fill="#000000" font-family="sans-serif" font-size="13" lengthAdjust="spacing" textLength="31" x="1140.25" y="402.7683">views</text><text fill="#000000" font-family="sans-serif" font-size="13" lengthAdjust="spacing" textLength="5" x="1118.0333" y="406.1953">*</text></g><!--reverse link ViewController to HomeViewController--><g id="link_ViewController_HomeViewController"><path codeLine="168" d="M496.8395,453.318 C464.6195,474.408 435.29,491.13 393,508.24 C324.75,535.85 292.27,504.96 232,547.24 C198.66,570.63 173.29,608.71 156.2,641.15 " fill="none" id="ViewController-backto-HomeViewController" style="stroke:#181818;stroke-width:1.0;"/><polygon fill="none" points="511.9,443.46,493.5535,448.2979,500.1255,458.3382,511.9,443.46" style="stroke:#181818;stroke-width:1.0;"/></g><!--reverse link View to HomeView--><g id="link_View_HomeView"><path codeLine="169" d="M956.9505,516.0079 C937.7005,569.2579 920.19,617.7 905.12,659.42 " fill="none" id="View-backto-HomeView" style="stroke:#181818;stroke-width:1.0;"/><polygon fill="none" points="963.07,499.08,951.3079,513.968,962.5932,518.0477,963.07,499.08" style="stroke:#181818;stroke-width:1.0;"/></g><!--reverse link ViewController to GameViewController--><g id="link_ViewController_GameViewController"><path codeLine="170" d="M522.816,457.6778 C501.626,485.2278 481.6,511.51 455,547.24 C439.21,568.45 422.35,591.45 406.63,613.04 " fill="none" id="ViewController-backto-GameViewController" style="stroke:#181818;stroke-width:1.0;"/><polygon fill="none" points="533.79,443.41,518.06,454.0198,527.5719,461.3358,533.79,443.41" style="stroke:#181818;stroke-width:1.0;"/></g><!--reverse link View to GameView--><g id="link_View_GameView"><path codeLine="171" d="M1124.6221,498.3713 C1150.5621,517.0313 1162.92,526.95 1187,547.24 C1214.27,570.21 1242.41,597.08 1267.11,621.88 " fill="none" id="View-backto-GameView" style="stroke:#181818;stroke-width:1.0;"/><polygon fill="none" points="1110.01,487.86,1121.1184,503.242,1128.1259,493.5006,1110.01,487.86" style="stroke:#181818;stroke-width:1.0;"/></g><!--reverse link ViewController to SettingsViewController--><g id="link_ViewController_SettingsViewController"><path codeLine="172" d="M567.5216,461.2497 C574.4116,502.1297 583.48,555.89 593.16,613.23 " fill="none" id="ViewController-backto-SettingsViewController" style="stroke:#181818;stroke-width:1.0;"/><polygon fill="none" points="564.53,443.5,561.605,462.2469,573.4381,460.2525,564.53,443.5" style="stroke:#181818;stroke-width:1.0;"/></g><!--reverse link View to SettingsView--><g id="link_View_SettingsView"><path codeLine="173" d="M1034.1133,515.9514 C1053.9133,569.2014 1071.94,617.7 1087.45,659.42 " fill="none" id="View-backto-SettingsView" style="stroke:#181818;stroke-width:1.0;"/><polygon fill="none" points="1027.84,499.08,1028.4895,518.0425,1039.7371,513.8603,1027.84,499.08" style="stroke:#181818;stroke-width:1.0;"/></g><!--SRC=[hLPDRzGy4BxdLrXm88Mc4jSzl19TbhAYXRva2mV4mKscgTMi7HndIrNslpF-sCH9d5ILs4FMoJppuMTcxAbeTaSB8C0Bne4yHWH_zBfMacQAP2MjQt96jx0KN4bHbY0THlzUaWl1So1R_Mo_9acxV4CU3xRsfAbogY0k1I-E5cGdM6vm-oZaS-N7OqtPJt73ZadMHdCKzbKhAbNikmb0H3MFK2oxcmgNSGNoXcPWs5ctRtx04f0M6VUrKRzod6SbStYxv-NvEaZpcydjJEnXdkdMMO3ZPpgQOwXryonEYeQ5Y_0RW_jUwLrIjAM854A5Iwy0zHM5sfV5UZBWzBe4BLxjK587zYQuThdcJ4qAtxEwAka3v4749tYub53NACQbyJC1-mebq2bSk3-q-ubYyIgOLbNvS4vvqI2tSS0gy6PBlgrNtrFFnCSl5wlsvUoTzvAkDflrvxDqd6STpmNbwCOF9Y6FM55O9Nji65pn31O-r0EYj41Xglz2-KnylRZNzWSNcF2rywBt6lA3bGpA-8ZDSvmG2GMhiPkrTcoOEJQMnaXETwp0Fji8YniZVZM3ud6K7OfzXtPhZovBvKUnXSdqMiFJUUte4dnPOdkcmOxkGq0fnejw7lL_4-W4jw4kU7qQpWQVuEwvJNHsTudBWJIZV4Vh1LcQ_s4eEv3OS65fycoIp1cXOz3IS406eZTrAgWqVHvmRK1VR6m1o8Ya0-5F47NJb6MQIG2-l8NixbJyHjDkDO2MRfjBiRqM5kXM_uIZyu5viycG0zDV7qPnnzT2u177fmgiqzY8eYYVAEbJJDJJbNXeer7p70JU8VAC8tkouaT-3eA0d_dBO_Acx9Z89RtlgjBMsp79HOEtshJ6eKGjFepBC4_I0YPmi-KyOi4NJZ0Hl6FtupichIHJqBjUKYNHE6aayuvTYulnur7er8NXsEFoUBMUEN4dHgfmHLoDHoiRxZlEjdXN2RvXMtIYz7E-GOCJrbFpsipCrhOqjc_LACW_NAOQnBpngCK4PFjkP7lbc8pSPfCIRbJouksBmKYym66jOIrAikAsWtcKQrmts6lxE217_Q4uoSKzJ_xyDz2DkccsHTXtBI4d-jk9qse3Co8ldBwdXUw5deC1rldJECS3HepZQzGlfAIf0l5s9UBaBjhsC3bfgd70hJIn_5tD13p6ZWFsej0C_RXbUGxyPzAt74NMJflUmRKro9i_2JgTrrR7k3OpZwFAlGG67iTA_siBzCLHOE88QtUCUDeJLt7OGk-Wywty1G00]--></g></svg>